<svg width="220" height="230" viewBox="0 0 220 230" fill="none" xmlns="http://www.w3.org/2000/svg">
<circle cx="111" cy="120" r="109" fill="#2E2E2E"/>
<path d="M134.647 21.0866C134.716 18.0045 131.924 15.693 129.063 14.5723C126.201 13.4515 123.06 13.0312 120.547 11.3501C118.313 9.8091 116.778 7.49757 114.893 5.53627C110.286 0.84316 103.027 -1.11814 96.605 0.633021C90.2531 2.38418 84.9482 7.77775 83.3428 14.152C82.2259 18.4949 82.9937 23.6082 86.414 26.5502C90.3927 29.9124 96.256 29.1419 101.351 28.0912C106.447 27.0405 112.171 25.9898 116.429 29.0018C119.011 30.823 120.477 33.765 122.013 36.4267C123.548 39.1585 125.503 41.8903 128.504 42.941C131.436 43.9917 135.484 42.1705 135.554 39.0885" fill="#263238"/>
<path d="M134.437 22.7681C134.088 25.3598 135.973 27.6013 137.788 29.4225C139.603 31.2437 141.697 33.135 142.046 35.7267C142.395 38.7387 140.231 41.6806 140.859 44.6226C141.278 46.5138 142.674 47.9148 143.581 49.5959C144.838 51.9775 144.907 54.8494 144.14 57.4411C143.372 60.0328 142.185 65.7766 140.37 67.7379C135.414 73.2716 127.597 78.0347 120.337 79.7158C113.148 81.3969 105.609 81.3969 98.2802 80.9066C92.2075 80.5564 85.2972 80.8366 80.2715 72.431C77.6888 68.0881 76.3626 62.3443 74.9666 57.5111C73.78 53.3083 72.733 48.8254 73.9894 44.6926C74.6874 42.241 76.1532 40.0696 76.8512 37.688C77.7586 34.676 77.4096 31.3838 77.7586 28.2317C78.5265 21.4372 82.7145 15.063 88.7174 11.7708C94.7204 8.40861 102.259 8.19847 108.471 11.1404" fill="#263238"/>
<path d="M80.6899 33.274C81.2483 24.5882 87.0418 13.8711 95.6972 14.8518L122.71 21.7864C125.363 22.0665 127.317 24.308 127.247 26.9698L124.246 92.3231C124.316 92.3231 124.385 92.3231 124.455 92.3931C124.455 92.3931 118.313 110.815 100.444 105.212C96.8838 104.091 95.2784 100.238 94.5804 96.2457H94.3709C94.3709 95.7554 94.3709 95.3351 94.3709 94.8447C93.8125 90.2217 94.2313 85.8788 94.2313 85.8788C94.1615 80.6253 94.1615 78.4539 94.1615 78.5239C94.1615 78.5239 83.0632 76.6327 80.8295 62.1331C79.6429 54.7782 80.0617 42.9404 80.6899 33.274Z" fill="#FFBE9D"/>
<path d="M85.0182 42.0303C84.9484 43.0109 85.786 43.8515 86.8331 43.9215C87.8801 43.9916 88.7177 43.2211 88.7177 42.2404C88.7875 41.2598 87.9499 40.4192 86.9029 40.3492C85.9256 40.2791 85.088 41.0496 85.0182 42.0303Z" fill="#263238"/>
<path d="M83.2033 39.4391C83.4127 39.6492 84.8087 38.6686 86.8329 38.6686C88.8572 38.6686 90.323 39.6492 90.5324 39.4391C90.672 39.299 90.3928 38.8787 89.7646 38.4585C89.1364 37.9681 88.0893 37.5479 86.8329 37.5479C85.5765 37.5479 84.5295 38.0382 83.9711 38.4585C83.3429 38.8787 83.1335 39.299 83.2033 39.4391Z" fill="#263238"/>
<path d="M104.632 42.0303C104.563 43.0109 105.4 43.8515 106.447 43.9215C107.494 43.9916 108.332 43.2211 108.332 42.2404C108.402 41.2598 107.564 40.4192 106.517 40.3492C105.54 40.2791 104.702 41.0496 104.632 42.0303Z" fill="#263238"/>
<path d="M102.887 39.859C103.096 40.0692 104.492 39.0885 106.517 39.0885C108.541 39.0885 110.007 40.0692 110.216 39.859C110.356 39.7189 110.077 39.2987 109.448 38.8784C108.82 38.388 107.773 37.9678 106.517 37.9678C105.26 37.9678 104.213 38.4581 103.655 38.8784C102.957 39.2987 102.747 39.7189 102.887 39.859Z" fill="#263238"/>
<path d="M95.5584 54.709C95.5584 54.5689 94.3019 54.3587 92.3475 54.1486C91.8589 54.0786 91.3703 54.0085 91.3005 53.6583C91.1609 53.308 91.3703 52.7477 91.6495 52.1173C92.1381 50.8564 92.6267 49.5956 93.1851 48.1947C95.2792 42.661 96.8148 38.108 96.6054 38.0379C96.396 37.9679 94.5113 42.3808 92.4173 47.9145C91.9287 49.3154 91.4401 50.5762 90.9515 51.8371C90.7421 52.3974 90.3931 53.0979 90.6723 53.8684C90.8119 54.2186 91.1609 54.4988 91.5099 54.6389C91.8589 54.709 92.1381 54.779 92.3475 54.779C94.3019 54.779 95.5584 54.779 95.5584 54.709Z" fill="#263238"/>
<path d="M94.1621 78.3849C94.1621 78.3849 103.864 79.0153 113.567 73.2715C113.567 73.2715 108.681 83.2881 94.2319 81.8872L94.1621 78.3849Z" fill="#EB996E"/>
<path d="M96.3957 59.5429C97.0937 58.5622 98.3501 58.0719 99.6065 58.212C100.444 58.2821 101.352 58.7023 101.84 59.4729C102.399 60.1733 102.468 61.154 101.98 61.8544C101.421 62.6249 100.305 62.765 99.3273 62.4848C98.3501 62.2047 97.5823 61.5742 96.7447 60.9438C96.5353 60.8037 96.3258 60.5936 96.1862 60.3835C96.0466 60.1733 96.0466 59.8231 96.1862 59.6129" fill="#EB996E"/>
<path d="M101.422 56.1094C101.073 56.1094 101.073 58.2808 99.2579 59.8218C97.3733 61.3629 95.0698 61.0827 95.0698 61.4329C95.0698 61.573 95.5584 61.8532 96.5357 61.8532C97.5129 61.9232 98.9089 61.573 100.026 60.6624C101.143 59.7518 101.631 58.491 101.701 57.5803C101.841 56.5997 101.631 56.1094 101.422 56.1094Z" fill="#263238"/>
<path d="M101.98 36.3567C102.189 36.917 104.144 36.6368 106.517 36.917C108.89 37.1272 110.775 37.8276 111.054 37.3373C111.193 37.1272 110.844 36.5668 110.077 36.0765C109.309 35.5161 108.122 35.0258 106.726 34.8857C105.33 34.7456 104.004 34.9557 103.166 35.306C102.329 35.6562 101.91 36.0765 101.98 36.3567Z" fill="#263238"/>
<path d="M83.9712 33.6251C84.3202 34.1154 85.7162 33.6251 87.3216 33.6251C88.9969 33.555 90.3929 33.9053 90.6721 33.485C90.8117 33.2749 90.6023 32.7845 89.9741 32.3643C89.3459 31.944 88.3686 31.5938 87.2518 31.5938C86.135 31.5938 85.1578 32.014 84.5296 32.5044C84.041 32.9246 83.8316 33.415 83.9712 33.6251Z" fill="#263238"/>
<path d="M132.762 69.4882C128.783 70.2587 124.455 69.0679 121.454 66.2661C118.452 63.4642 116.917 59.2614 117.475 55.1987C117.894 51.6264 119.848 47.984 118.592 44.6217C116.987 40.1388 110.704 38.8079 109.099 34.3249C108.122 31.7332 109.029 28.7212 107.912 26.1995C106.865 23.818 104.422 22.417 101.979 21.5765C99.5363 20.6659 96.9536 20.1055 94.8596 18.4944C92.8353 16.8834 91.5091 13.8714 92.8353 11.6299C103.655 12.9608 114.264 15.5525 124.455 19.335C126.829 20.2456 129.272 21.2963 130.668 23.3977C132.133 25.6392 132.064 28.5111 131.924 31.1728C131.296 44.2015 130.737 57.2301 130.109 70.2587" fill="#263238"/>
<path d="M131.854 74.4615C131.854 74.4615 131.924 74.3915 132.064 74.3215C132.273 74.1814 132.482 74.0413 132.692 73.8311C133.25 73.4109 134.088 72.7104 135.065 71.8698C136.042 70.9592 137.299 69.8385 138.485 68.2975C139.672 66.7564 140.789 64.7951 141.208 62.3435C141.626 59.9619 141.347 56.95 139.323 54.7085C138.346 53.5877 137.089 52.7472 135.972 51.8366C134.786 50.926 133.878 49.7352 133.32 48.2642C132.273 45.3223 132.762 41.89 132.343 38.3877C131.854 34.8853 130.668 31.313 128.225 28.371C127.038 26.9001 125.572 25.7093 123.967 24.8687C122.291 24.0282 120.546 23.6079 118.871 23.1876C117.196 22.6973 115.66 22.0669 114.404 21.0162C113.147 19.9655 112.1 18.7046 111.193 17.4438C109.378 14.8521 108.052 12.1203 106.307 9.80874C105.469 8.68799 104.492 7.6373 103.445 6.79674C102.398 5.95618 101.211 5.32577 100.095 4.97553C97.7912 4.20502 95.2784 4.41516 93.6729 5.60595C92.0675 6.79674 91.5091 8.61795 91.3695 9.94883C91.2997 11.3498 91.7883 12.4005 92.2071 12.9608C92.4165 13.241 92.6259 13.4511 92.7655 13.5212C92.9051 13.6613 92.9749 13.6613 92.9749 13.6613C92.9749 13.6613 92.9051 13.5912 92.7655 13.4511C92.6259 13.3111 92.4165 13.171 92.2071 12.8908C91.7883 12.3304 91.3695 11.3498 91.5091 10.0189C91.6487 8.75804 92.2071 7.07693 93.7427 5.95619C95.2784 4.90549 97.5818 4.6253 99.8155 5.46586C100.932 5.81609 102.049 6.44651 103.026 7.28707C104.004 8.12762 104.911 9.10827 105.749 10.229C107.424 12.4705 108.75 15.2724 110.565 17.9341C111.472 19.265 112.589 20.5258 113.915 21.6466C115.242 22.7673 116.847 23.4678 118.592 23.9581C120.267 24.4484 122.012 24.7987 123.548 25.6392C125.083 26.4097 126.48 27.6005 127.666 29.0014C129.97 31.8033 131.156 35.3056 131.645 38.6678C132.064 42.0301 131.575 45.5324 132.692 48.6845C133.25 50.2255 134.297 51.5564 135.484 52.537C136.671 53.5177 137.927 54.2882 138.834 55.3389C140.719 57.4403 141.068 60.2421 140.649 62.5537C140.3 64.9352 139.253 66.8965 138.136 68.3675C137.02 69.9085 135.833 71.0993 134.856 72.0099C133.878 72.9205 133.111 73.621 132.552 74.1113C132.133 74.2514 131.854 74.4615 131.854 74.4615Z" fill="#455A64"/>
<path d="M134.507 76.2831C137.508 73.4112 142.534 75.9328 145.047 79.225C147.56 82.5172 149.305 86.79 153.074 88.4711C156.843 90.1523 161.799 88.6813 164.94 91.3431C169.338 94.9855 166.895 103.461 171.571 106.613C173.456 107.874 175.969 107.804 177.923 108.855C182.67 111.306 182.6 118.031 181.902 123.284C180.855 130.709 179.738 138.414 175.69 144.718C171.571 151.023 163.614 155.435 156.564 152.984C149.723 150.672 146.233 143.247 143.511 136.593C139.672 127.347 135.833 118.171 131.994 108.925C129.76 103.601 127.527 98.2076 126.829 92.4638C126.131 86.72 127.108 80.5559 130.738 76.0729" fill="#263238"/>
<path d="M136.392 69.9081C138.556 69.6279 140.231 72.2897 139.603 74.3911C139.044 76.4925 137.02 77.8934 134.996 78.5939C133.879 79.0141 132.623 79.2243 131.436 79.0141C130.249 78.804 129.133 77.9634 128.714 76.8427C128.295 75.6519 128.644 74.8114 129.691 74.1109C131.087 73.2003 131.925 72.4998 133.041 71.8694C134.787 71.0288 134.717 70.8888 136.392 69.9081Z" fill="#963EEE"/>
<mask id="mask0" mask-type="alpha" maskUnits="userSpaceOnUse" x="9" y="29" width="200" height="201">
<ellipse cx="108.689" cy="129.917" rx="99.5221" ry="100.082" fill="#2E2E2E"/>
</mask>
<g mask="url(#mask0)">
<path d="M86.6927 93.303L95.0688 86.9288L126.689 84.8975L127.945 89.1703L117.684 153.543L125.781 230.384H81.667L86.6927 93.303Z" fill="#963EEE"/>
<g opacity="0.3">
<g opacity="0.3">
<path opacity="0.3" d="M120.546 203.136C119.569 202.085 117.894 200.544 116.428 200.544C105.888 200.334 95.0685 199.283 84.5285 199.003L83.6909 230.384C86.2038 225.901 88.577 221.278 89.275 216.164C89.5542 213.923 89.973 211.261 91.9973 210.35C93.1141 209.79 94.5101 210 95.6967 210.28C99.5358 211.051 103.305 212.032 107.214 212.242C111.123 212.452 115.171 211.891 118.452 209.79C119.569 209.09 120.616 208.109 121.104 206.918C121.523 205.657 121.453 204.116 120.546 203.136Z" fill="black"/>
</g>
</g>
<path d="M93.5333 94.5633L92.5561 85.3873C92.4165 83.7762 93.6031 82.3052 95.2085 82.1651L124.316 79.5034C125.083 79.4333 125.781 80.0637 125.781 80.8343L126.13 91.7615L117.685 106.121L109.029 108.923H98.4194L92.3467 102.409L93.5333 94.5633Z" fill="#963EEE"/>
<path d="M121.802 88.329C121.802 88.329 121.384 88.259 120.616 88.1889C119.848 88.1189 118.801 88.0488 117.475 88.1189C116.149 88.1889 114.543 88.3991 112.798 88.8193C111.053 89.1696 109.168 89.7299 107.144 90.2203C105.12 90.7106 103.235 91.1309 101.421 91.271C99.6057 91.4111 98.0003 91.271 96.674 90.9207C95.3478 90.5705 94.3706 90.0802 93.7424 89.6599C93.3934 89.4498 93.184 89.3097 93.0444 89.1696C92.9048 89.0295 92.835 88.9594 92.835 88.9594C92.835 88.9594 93.184 89.1696 93.8122 89.5899C94.4404 89.9401 95.4874 90.4304 96.7438 90.7106C98.0701 90.9908 99.6755 91.1309 101.421 90.9207C103.166 90.7806 105.12 90.3604 107.074 89.87C109.099 89.3797 110.983 88.8894 112.728 88.5392C114.473 88.1889 116.079 87.9788 117.475 87.9087C118.801 87.8387 119.918 87.9788 120.686 88.0488C121.035 88.1189 121.314 88.1889 121.523 88.1889C121.733 88.259 121.802 88.259 121.802 88.329Z" fill="#263238"/>
<g opacity="0.3">
<g opacity="0.3">
<path opacity="0.3" d="M94.2309 89.7293C93.4631 91.9007 93.4631 94.5625 94.9987 96.1735C96.2551 97.5044 98.3492 97.8546 100.164 97.5044C101.979 97.1542 103.654 96.1735 105.26 95.1929C109.238 92.8113 113.356 90.2896 117.894 89.309C118.173 89.2389 118.522 89.1689 118.731 88.9587C118.941 88.7486 119.01 88.3283 118.731 88.1882C118.592 88.1182 118.452 88.1182 118.382 88.0481C114.334 87.6279 110.355 88.8187 106.376 89.6592C102.398 90.5698 98.2096 91.2002 94.3705 89.7993" fill="black"/>
</g>
</g>
<path d="M99.745 81.8847C99.745 81.9547 99.1866 82.0948 98.7678 82.8653C98.2792 83.6358 98.349 84.8967 98.349 86.2275C98.4188 88.9594 98.8376 91.1308 98.7678 91.1308C98.698 91.1308 98.5584 90.6405 98.349 89.7299C98.1396 88.8193 98 87.6285 97.9302 86.2275C97.9302 85.5271 97.9302 84.8967 98 84.2662C98.0698 83.6358 98.2094 83.0755 98.4886 82.7252C98.7678 82.3049 99.047 82.0948 99.3262 82.0248C99.6054 81.8146 99.745 81.8146 99.745 81.8847Z" fill="#263238"/>
<path d="M107.493 89.8708C107.354 89.8708 107.633 87.8394 107.284 85.3878C106.935 82.9362 106.167 81.115 106.237 81.0449C106.307 81.0449 106.516 81.4652 106.865 82.2357C107.144 83.0062 107.493 84.127 107.633 85.3178C107.842 86.5786 107.773 87.6993 107.703 88.5399C107.633 89.3804 107.493 89.8708 107.493 89.8708Z" fill="#263238"/>
<path d="M116.847 80.2734C116.917 80.2734 117.126 80.6237 117.405 81.3241C117.684 82.0246 117.894 83.0753 117.754 84.2661C117.684 85.4569 117.335 86.4375 116.986 87.138C116.637 87.8384 116.358 88.1887 116.288 88.1186C116.149 88.0486 117.266 86.5076 117.405 84.2661C117.615 82.0246 116.707 80.3435 116.847 80.2734Z" fill="#263238"/>
<path d="M76.0136 97.4355C76.0136 97.4355 66.1018 104.09 63.4493 116.138C61.4251 125.594 55.841 175.677 55.841 175.677L45.999 194.87L52.4207 210.21C57.935 210.631 63.3795 209.019 67.8468 205.797L72.1745 202.645L80.062 190.877L76.0136 97.4355Z" fill="#EBEBEB"/>
<path d="M92.8361 88.6094L76.014 97.4352L72.0353 110.534L68.5452 148.499L75.1763 192.979L63.5195 230.243L83.6223 230.453L84.1109 208.599L86.1351 137.852L88.0896 92.7421L92.8361 88.6094Z" fill="#EBEBEB"/>
<path d="M84.6687 147.589C84.6687 147.589 84.5291 147.379 84.3895 147.029C84.1801 146.679 83.9009 146.118 83.5519 145.488C83.2029 144.787 82.8539 143.947 82.4351 142.966C82.2257 142.476 82.0861 141.915 81.8767 141.355C81.6673 140.795 81.4579 140.164 81.2484 139.464C79.643 134.21 78.596 126.645 78.8054 118.31C78.8054 117.679 78.8752 117.049 78.8752 116.418V116.278L78.945 116.208C79.9222 115.788 80.8994 115.368 81.8767 114.948L81.8069 115.228C80.8296 114.387 79.7826 113.617 78.8752 112.846L78.8054 112.776V112.706C78.6658 109.554 79.4336 106.752 80.1316 104.23C80.8994 101.779 81.6673 99.6073 82.3653 97.8562C83.0633 96.105 83.6915 94.7742 84.1103 93.7935C84.3197 93.3032 84.5291 92.9529 84.5989 92.7428C84.7385 92.5327 84.8083 92.3926 84.8083 92.3926C84.8083 92.3926 84.7385 92.5327 84.6687 92.7428C84.5291 93.023 84.3895 93.3732 84.1801 93.7935C83.7613 94.7041 83.2029 96.105 82.5049 97.8562C81.8069 99.6073 81.039 101.779 80.341 104.23C79.643 106.682 78.945 109.484 79.0846 112.566L79.0148 112.426C79.992 113.196 80.9692 113.967 81.9465 114.807L82.1559 115.018L81.8767 115.158C80.8994 115.578 79.9222 115.998 78.945 116.418L79.0846 116.278C79.0148 116.909 79.0148 117.539 79.0148 118.17C78.8054 126.505 79.7826 134 81.3182 139.254C81.4578 139.884 81.6673 140.514 81.8767 141.075C82.0861 141.635 82.2257 142.196 82.4351 142.686C82.8539 143.667 83.2029 144.577 83.4821 145.278C83.8311 145.908 84.0405 146.468 84.2499 146.819C84.5989 147.379 84.7385 147.589 84.6687 147.589Z" fill="#263238"/>
<path d="M71.4764 174.136C71.4764 174.136 71.4066 173.926 71.3368 173.575C71.267 173.155 71.1274 172.665 70.918 171.964C70.7784 171.264 70.569 170.423 70.3596 169.443C70.1502 168.462 69.9408 167.341 69.7314 166.081C69.522 164.82 69.2428 163.419 69.1032 161.948C68.8938 160.477 68.7542 158.866 68.5448 157.185C68.2656 153.822 68.0562 150.11 68.0562 146.257C68.0562 142.335 68.2656 138.622 68.6146 135.33C68.824 133.649 68.9636 132.038 69.173 130.567C69.3824 129.096 69.5918 127.695 69.8012 126.434C70.0106 125.173 70.2898 124.053 70.4992 123.072C70.7086 122.091 70.918 121.251 71.0576 120.55C71.1972 119.92 71.3368 119.36 71.4764 118.939C71.5462 118.589 71.616 118.379 71.616 118.379C71.616 118.379 71.616 118.589 71.5462 118.939C71.4764 119.36 71.3368 119.85 71.1972 120.55C71.0576 121.251 70.8482 122.091 70.7086 123.072C70.4992 124.053 70.2898 125.173 70.0804 126.434C69.871 127.695 69.6616 129.096 69.4522 130.567C69.2428 132.038 69.1032 133.649 68.8938 135.33C68.6146 138.692 68.4052 142.405 68.4052 146.257C68.4052 150.11 68.6146 153.822 68.8938 157.185C69.0334 158.866 69.173 160.477 69.3824 161.948C69.5918 163.419 69.8012 164.82 70.0106 166.081C70.22 167.341 70.4294 168.462 70.6388 169.443C70.8482 170.423 70.9878 171.264 71.1274 171.964C71.267 172.665 71.4066 173.155 71.4764 173.575C71.4764 173.926 71.4764 174.136 71.4764 174.136Z" fill="#263238"/>
<path d="M76.0135 208.319C76.0833 208.319 75.8041 209.02 75.1759 210C74.6175 210.981 73.71 212.382 72.5932 213.783C71.4764 215.184 70.2898 216.305 69.4522 217.075C68.5448 217.846 67.9863 218.266 67.9863 218.196C67.9165 218.126 68.475 217.706 69.3126 216.865C70.1502 216.094 71.267 214.904 72.3838 213.573C73.5006 212.242 74.4081 210.911 75.0363 209.93C75.6645 208.95 76.0135 208.319 76.0135 208.319Z" fill="#263238"/>
<path d="M153.353 96.3851C160.542 99.187 165.847 105.351 167.592 112.916C173.107 137.292 182.53 169.654 182.669 180.091C182.879 193.399 177.085 202.505 169.477 204.187C163.474 205.517 109.238 202.505 109.238 202.505L106.726 182.192L150.7 175.678L144.697 141.915L150.631 95.1943L153.353 96.3851Z" fill="#EBEBEB"/>
<path d="M150.561 95.2649L138.415 90.2916L125.641 82.7266L125.572 84.898C127.107 87.5598 127.666 90.7819 127.107 93.8639L116.428 149.691L118.871 190.458L123.827 230.384H162.357L144.627 188.637L150.84 132.319L150.561 95.2649Z" fill="#EBEBEB"/>
<path d="M161.869 204.538C161.869 204.538 161.799 204.538 161.589 204.608C161.38 204.608 161.171 204.678 160.822 204.678C160.123 204.748 159.146 204.748 157.82 204.748C155.237 204.748 151.398 204.678 146.722 204.538C137.298 204.188 124.106 203.557 109.308 202.717H109.169V202.576C108.889 200.125 108.54 197.603 108.191 195.011C107.633 190.599 107.144 186.396 106.586 182.263V182.123H106.726C120.127 180.162 131.854 178.48 140.3 177.22C144.488 176.659 147.838 176.169 150.142 175.819C151.259 175.679 152.166 175.539 152.794 175.468C153.074 175.398 153.283 175.398 153.492 175.398C153.632 175.398 153.702 175.398 153.702 175.398C153.702 175.398 153.632 175.398 153.492 175.468C153.353 175.468 153.074 175.539 152.794 175.609C152.166 175.679 151.259 175.819 150.142 176.029C147.838 176.379 144.488 176.869 140.3 177.57C131.924 178.831 120.197 180.582 106.795 182.613L106.935 182.403C107.424 186.466 107.982 190.739 108.54 195.152C108.889 197.743 109.169 200.265 109.518 202.717L109.378 202.576C124.246 203.417 137.368 204.117 146.791 204.538C151.538 204.748 155.307 204.818 157.89 204.888C159.216 204.888 160.193 204.888 160.891 204.818C161.24 204.818 161.45 204.818 161.659 204.748C161.729 204.538 161.799 204.538 161.869 204.538Z" fill="#263238"/>
<path d="M144.279 138.624C144.279 138.624 144.349 138.764 144.349 138.974C144.418 139.254 144.488 139.605 144.558 140.025C144.767 141.006 144.977 142.336 145.256 144.018C145.814 147.45 146.652 152.073 147.559 157.186C148.397 162.3 149.165 166.923 149.723 170.355C150.002 172.036 150.212 173.367 150.351 174.348C150.421 174.768 150.491 175.118 150.491 175.468C150.491 175.749 150.561 175.819 150.491 175.819C150.491 175.819 150.421 175.679 150.421 175.468C150.351 175.188 150.282 174.838 150.212 174.418C150.002 173.437 149.793 172.106 149.444 170.425C148.816 167.063 148.048 162.37 147.141 157.256C146.233 152.143 145.465 147.45 144.977 144.088C144.698 142.407 144.488 141.076 144.349 140.095C144.279 139.675 144.209 139.324 144.209 138.974C144.279 138.694 144.279 138.624 144.279 138.624Z" fill="#263238"/>
<path d="M131.226 86.7197C131.226 86.7197 131.226 86.7898 131.295 86.8598C131.295 86.9999 131.365 87.07 131.435 87.2801C131.505 87.6303 131.714 88.1907 131.854 88.8912C132.133 90.2921 132.552 92.3234 132.761 94.9152C133.04 97.5069 133.11 100.589 132.971 104.091C132.831 107.594 132.482 111.446 131.993 115.509V115.649H131.854C130.597 115.859 129.271 116.139 127.875 116.419L128.015 116.139C128.224 116.77 128.503 117.4 128.643 118.101C129.969 122.864 129.341 127.627 128.224 131.619C127.037 135.682 125.223 138.974 123.547 141.706C121.872 144.438 120.406 146.469 119.359 147.94C118.871 148.641 118.452 149.201 118.173 149.551C118.033 149.691 117.963 149.832 117.824 149.972C117.754 150.042 117.684 150.112 117.684 150.112C117.684 150.112 117.684 150.042 117.754 149.972C117.824 149.832 117.893 149.691 118.033 149.551C118.312 149.131 118.661 148.571 119.15 147.87C120.127 146.399 121.593 144.298 123.198 141.636C124.804 138.904 126.619 135.612 127.735 131.619C128.852 127.627 129.411 122.934 128.154 118.311C127.945 117.61 127.735 116.98 127.526 116.419L127.456 116.209L127.666 116.139C129.062 115.859 130.388 115.649 131.644 115.439L131.505 115.579C132.063 111.516 132.412 107.664 132.552 104.161C132.691 100.659 132.622 97.5769 132.412 95.0552C132.203 92.4635 131.854 90.4322 131.575 89.0313C131.435 88.3308 131.295 87.7704 131.226 87.4202C131.226 87.2801 131.156 87.14 131.156 86.9999C131.226 86.7197 131.226 86.7197 131.226 86.7197Z" fill="#263238"/>
<path d="M131.226 143.947V135.051C131.226 135.051 131.365 132.88 129.481 133.3C127.666 133.79 128.015 137.223 128.015 137.223C128.015 137.223 127.666 150.742 128.504 150.602C129.341 150.461 129.62 149.411 129.62 149.411V144.227L131.226 143.947Z" fill="#963EEE"/>
<path d="M138.904 144.508C138.904 144.578 136.81 144.718 134.158 144.718C131.505 144.718 129.411 144.648 129.411 144.508C129.411 144.368 131.505 144.298 134.158 144.298C136.74 144.298 138.904 144.368 138.904 144.508Z" fill="#263238"/>
<path d="M156.424 101.64C156.424 101.64 156.075 101.78 155.447 101.99C154.819 102.2 153.911 102.55 152.795 103.111C150.631 104.231 147.839 106.193 145.675 109.205C145.116 109.975 144.628 110.746 144.279 111.516C143.93 112.287 143.651 113.127 143.441 113.898C143.022 115.439 142.813 116.91 142.743 118.101C142.673 119.291 142.604 120.272 142.604 120.972C142.604 121.673 142.604 122.023 142.604 122.023C142.604 122.023 142.534 121.673 142.464 120.972C142.394 120.272 142.394 119.291 142.464 118.03C142.534 116.77 142.673 115.369 143.092 113.758C143.302 112.987 143.581 112.147 143.93 111.306C144.349 110.465 144.767 109.695 145.326 108.924C147.559 105.842 150.421 103.881 152.655 102.83C153.772 102.27 154.679 101.99 155.377 101.78C156.075 101.71 156.424 101.64 156.424 101.64Z" fill="#263238"/>
</g>
<path d="M0 175.678L63.5191 199.283L116.987 207.479L53.3979 176.308L0 175.678Z" fill="#263238"/>
<path d="M27.1528 201.103C26.6642 197.741 25.4776 194.449 23.8024 191.437C23.4534 190.877 23.1044 190.246 22.9648 189.616C22.8252 188.985 22.895 188.215 23.3138 187.724C24.1514 186.814 25.6172 187.234 26.5944 187.935C28.6885 189.335 30.0845 191.577 30.8523 193.959C31.6899 196.34 31.9691 198.862 32.2483 201.313" fill="#FFBE9D"/>
<path d="M51.9325 195.009H48.7914C48.1632 194.379 47.186 193.749 45.9994 193.398C45.3014 193.188 44.5335 193.608 43.9053 194.239C45.3014 191.927 46.837 189.336 47.1162 188.635C47.6746 187.234 46.4182 186.254 44.3939 186.254C42.3697 186.254 33.3653 199.002 33.3653 199.002C33.3653 199.002 38.9494 188.705 39.5079 187.164C40.8341 183.242 36.5762 182.961 35.0406 184.853C33.0861 187.234 25.3382 199.002 25.3382 199.002C25.3382 199.002 23.8724 201.384 24.8496 203.695C25.8966 206.007 28.8283 205.096 28.8283 205.096C28.8283 205.096 28.8283 207.057 30.9223 208.248C33.2257 209.509 36.2272 208.038 36.2272 208.038L47.8142 210.63C47.8142 210.63 49.629 210.42 52.0023 210.209C57.8656 209.649 62.6121 205.096 63.4497 199.212L51.9325 195.009Z" fill="#FFBE9D"/>
<path d="M44.1146 194.099C44.2542 194.169 42.7185 196.62 40.6943 199.562C39.7171 201.033 38.7399 202.364 38.0419 203.275C37.3438 204.185 36.925 204.746 36.8552 204.746C36.7854 204.746 37.2042 204.115 37.8325 203.135C38.4607 202.154 39.3681 200.823 40.3453 199.352C41.3225 197.881 42.2997 196.55 42.9279 195.64C43.2072 195.219 43.4864 194.869 43.7656 194.519C43.975 194.169 44.0448 194.099 44.1146 194.099Z" fill="#EB996E"/>
<path d="M43.4167 207.057C43.3469 207.057 43.7657 206.287 44.4638 205.166C45.1618 204.045 46.139 202.434 47.186 200.753C47.7444 199.912 48.233 199.072 48.6518 198.301C49.0706 197.601 49.0706 196.76 48.931 196.13C48.582 194.869 47.884 194.309 47.9538 194.309C47.9538 194.309 48.1632 194.379 48.3726 194.659C48.6518 194.939 48.931 195.429 49.1404 196.06C49.3498 196.69 49.4196 197.601 48.931 198.441C48.5122 199.212 48.0236 200.052 47.4652 200.963C46.4182 202.714 45.3712 204.255 44.6034 205.376C43.9053 206.427 43.4167 207.127 43.4167 207.057Z" fill="#EB996E"/>
<path d="M49.4898 208.248C49.4199 208.248 49.6294 207.548 50.118 206.427C50.3972 205.867 50.6764 205.236 50.9556 204.536C51.2348 203.835 51.5838 203.065 51.7932 202.154C52.0026 201.314 51.863 200.473 51.4442 199.843C51.2348 199.563 50.8858 199.422 50.6066 199.282C50.3274 199.142 49.9784 199.072 49.769 199.072C49.2803 199.072 48.7917 199.352 48.5125 199.492C48.2333 199.633 48.0239 199.703 48.0239 199.703C48.0239 199.703 48.1635 199.562 48.4427 199.352C48.5823 199.282 48.7219 199.142 48.9313 199.072C49.1407 199.002 49.4199 198.862 49.6992 198.792C50.0482 198.792 50.3274 198.862 50.6764 199.002C51.0254 199.142 51.3744 199.352 51.6536 199.633C52.212 200.333 52.3516 201.314 52.1422 202.224C51.9328 203.135 51.5838 203.905 51.2348 204.606C50.8858 205.306 50.6066 205.937 50.3274 206.497C49.8388 207.548 49.5596 208.248 49.4898 208.248Z" fill="#EB996E"/>
<path d="M51.6537 197.181C51.6537 197.181 51.8631 197.181 52.1423 197.321C52.4215 197.461 52.9102 197.671 53.329 198.021C54.3062 198.722 55.423 200.053 55.8418 201.874C56.2606 203.695 55.772 205.376 55.2136 206.427C54.9344 206.987 54.6552 207.337 54.4458 207.618C54.2364 207.898 54.0968 207.968 54.0968 207.968C54.027 207.898 54.5854 207.407 55.074 206.357C55.5626 205.306 55.9814 203.695 55.5626 201.944C55.1438 200.193 54.1666 198.932 53.2592 198.161C52.2819 197.531 51.5839 197.251 51.6537 197.181Z" fill="#EB996E"/>
<path d="M31.2013 190.527C31.2711 190.597 30.0845 192.489 28.5488 194.73C27.0132 196.972 25.687 198.793 25.6172 198.723C25.5474 198.653 26.734 196.761 28.2696 194.52C29.8053 192.278 31.1315 190.457 31.2013 190.527Z" fill="#EB996E"/>
<path d="M106.517 183.033L99.2574 181.352L92.2773 174.767C91.4397 173.997 90.3228 173.507 89.1362 173.437L76.4324 172.736C75.176 172.666 73.9195 173.086 72.9423 173.927L63.8682 181.632L103.445 200.965L108.89 201.455L106.517 183.033Z" fill="#FFBE9D"/>
<path d="M85.0175 179.601C85.0175 179.671 84.11 179.461 82.5744 179.321C81.1086 179.181 78.9447 178.971 76.8507 179.951C75.8037 180.442 74.8963 181.072 74.1285 181.703C73.3606 182.333 72.5928 182.893 71.9646 183.314C71.3364 183.734 70.778 184.014 70.429 184.224C70.0102 184.434 69.8008 184.504 69.8008 184.434C69.8008 184.364 70.6384 184.014 71.825 183.103C72.4532 182.683 73.1512 182.053 73.9191 181.422C74.6869 180.792 75.5943 180.161 76.7111 179.671C77.7581 179.181 78.9447 178.971 79.922 178.971C80.969 178.971 81.8764 179.041 82.6442 179.181C83.412 179.321 83.9704 179.461 84.3892 179.531C84.8081 179.531 85.0175 179.601 85.0175 179.601Z" fill="#EB996E"/>
<path d="M87.6006 186.675C87.6006 186.745 87.112 186.535 86.2046 186.395C85.3669 186.325 84.1803 186.395 82.9239 186.885C81.6675 187.306 80.6903 188.006 79.9224 188.426C79.1546 188.917 78.7358 189.127 78.666 189.127C78.666 189.057 79.015 188.707 79.7828 188.216C80.4809 187.726 81.5279 187.025 82.7843 186.535C84.0407 186.045 85.3669 185.975 86.2046 186.185C87.1818 186.325 87.6006 186.675 87.6006 186.675Z" fill="#EB996E"/>
<path d="M103.934 187.866C103.864 187.936 102.817 186.395 101.491 184.574C100.165 182.753 98.9781 181.352 99.0479 181.282C99.1177 181.212 100.444 182.543 101.77 184.364C103.096 186.185 104.004 187.796 103.934 187.866Z" fill="#EB996E"/>
<path d="M83.971 173.437L100.025 158.377C100.723 157.747 100.654 156.626 99.8857 155.995C99.3273 155.575 98.4897 155.575 97.9313 156.065L79.085 173.017" fill="#963EEE"/>
<path opacity="0.3" d="M83.971 173.437L100.025 158.377C100.723 157.747 100.654 156.626 99.8857 155.995C99.3273 155.575 98.4897 155.575 97.9313 156.065L79.085 173.017" fill="#ED9C55"/>
</svg>
