<svg width="428" height="346" viewBox="0 0 428 346" fill="none" xmlns="http://www.w3.org/2000/svg">
<ellipse cx="214" cy="173" rx="172" ry="173" fill="#444444"/>
<path d="M427.62 318.35C427.62 318.49 333.01 318.61 216.32 318.61C99.59 318.61 5 318.5 5 318.35C5 318.21 99.59 318.09 216.32 318.09C333.01 318.09 427.62 318.21 427.62 318.35Z" fill="#263238"/>
<path d="M256.89 177.69L252.05 222.74C252.05 222.74 242.62 208.49 236.24 214.84C230.16 220.89 219.43 265.09 219.43 265.09C219.43 265.09 219.28 279.5 226.95 283.31C251.5 295.5 278.84 272.52 278.84 272.52L274.96 143.71C264.78 152.28 258.31 164.46 256.89 177.69Z" fill="#963EEE"/>
<path d="M339.77 146.421L297.26 143.021C297 138.061 297.35 118.851 297.35 118.851C297.35 118.851 279.66 116.101 279.44 98.4106C279.22 80.7206 282.29 40.1106 282.29 40.1106C302.76 31.3106 326.39 34.2806 344.05 47.8706L346.67 49.8906L339.77 146.421Z" fill="#FFBE9D"/>
<path d="M297.32 118.601C297.32 118.601 308.5 119.511 320.38 112.051C320.38 112.051 314.93 124.781 297.28 123.181L297.32 118.601Z" fill="#EB996E"/>
<path d="M344.49 68.2207C344.79 68.0907 356.64 64.6307 356.26 76.7207C355.87 88.8107 343.81 85.9307 343.8 85.5807C343.79 85.2307 344.49 68.2207 344.49 68.2207Z" fill="#FFBE9D"/>
<path d="M347.64 81.1209C347.69 81.0809 347.85 81.2709 348.2 81.4509C348.54 81.6209 349.14 81.7509 349.77 81.5309C351.06 81.1009 352.2 79.1109 352.33 76.9309C352.4 75.8309 352.2 74.7709 351.84 73.9009C351.5 73.0009 350.95 72.3709 350.31 72.2309C349.67 72.0609 349.21 72.4309 349.05 72.7709C348.88 73.1009 348.95 73.3509 348.88 73.3709C348.85 73.4009 348.63 73.1609 348.74 72.6609C348.8 72.4209 348.95 72.1409 349.24 71.9209C349.54 71.6909 349.97 71.5909 350.41 71.6509C351.34 71.7409 352.15 72.6309 352.55 73.5909C353 74.5609 353.25 75.7509 353.17 76.9809C353.01 79.4109 351.69 81.6509 349.93 82.1009C349.07 82.2909 348.37 82.0209 348.01 81.7209C347.65 81.4109 347.6 81.1409 347.64 81.1209Z" fill="#EB996E"/>
<path d="M286.18 67.5305C286.13 68.8605 287.22 70.0005 288.62 70.0805C290.01 70.1505 291.18 69.1405 291.22 67.8005C291.27 66.4705 290.18 65.3205 288.79 65.2505C287.4 65.1805 286.23 66.2005 286.18 67.5305Z" fill="#263238"/>
<path d="M285.63 65.0007C285.94 65.3307 287.86 63.9107 290.57 63.9207C293.28 63.8907 295.28 65.2907 295.57 64.9507C295.71 64.8007 295.4 64.2107 294.53 63.5807C293.68 62.9507 292.22 62.3407 290.52 62.3507C288.83 62.3607 287.4 62.9807 286.58 63.6207C285.76 64.2607 285.48 64.8507 285.63 65.0007Z" fill="#263238"/>
<path d="M312.8 68.4807C312.75 69.8107 313.84 70.9507 315.24 71.0307C316.63 71.1007 317.8 70.0907 317.84 68.7507C317.89 67.4207 316.8 66.2807 315.41 66.2007C314.01 66.1307 312.85 67.1507 312.8 68.4807Z" fill="#263238"/>
<path d="M312.35 65.5106C312.66 65.8406 314.58 64.4206 317.3 64.4306C320.01 64.4006 322.01 65.8006 322.3 65.4606C322.44 65.3106 322.13 64.7206 321.26 64.0906C320.41 63.4606 318.95 62.8506 317.25 62.8506C315.56 62.8606 314.13 63.4806 313.31 64.1206C312.48 64.7706 312.19 65.3606 312.35 65.5106Z" fill="#263238"/>
<path d="M302.48 85.661C302.49 85.511 300.8 85.211 298.07 84.861C297.38 84.791 296.72 84.651 296.6 84.181C296.44 83.681 296.73 82.931 297.06 82.121C297.71 80.441 298.4 78.681 299.11 76.841C301.96 69.321 304.02 63.131 303.72 63.021C303.42 62.911 300.86 68.921 298.01 76.441C297.32 78.301 296.67 80.061 296.04 81.761C295.78 82.551 295.33 83.441 295.68 84.481C295.87 85.001 296.38 85.381 296.82 85.491C297.26 85.631 297.66 85.631 298 85.651C300.76 85.811 302.47 85.821 302.48 85.661Z" fill="#263238"/>
<path d="M311.65 54.8606C311.92 55.6006 314.63 55.2506 317.82 55.6306C321.02 55.9506 323.59 56.8806 324.01 56.2206C324.2 55.9006 323.75 55.2106 322.71 54.4906C321.68 53.7806 320.04 53.1006 318.12 52.8806C316.21 52.6706 314.45 52.9706 313.29 53.4506C312.12 53.9306 311.53 54.5106 311.65 54.8606Z" fill="#263238"/>
<path d="M286.63 57.1407C287.11 57.7607 288.98 57.1207 291.23 57.0907C293.48 56.9807 295.39 57.5007 295.83 56.8607C296.02 56.5507 295.72 55.9307 294.89 55.3407C294.07 54.7607 292.7 54.2807 291.15 54.3307C289.6 54.3807 288.26 54.9407 287.48 55.5707C286.68 56.2007 286.42 56.8407 286.63 57.1407Z" fill="#263238"/>
<path d="M273.67 28.9603C273.48 26.7703 274.3 24.4203 276.08 23.1303C277.86 21.8403 280.63 21.9203 282.08 23.5803C281.25 20.6303 283.66 17.2203 286.73 17.0303C289.61 16.8503 292.07 19.0303 294.86 19.7903C297.58 20.5403 300.5 19.8903 303.12 18.8403C305.74 17.7903 308.18 16.3303 310.83 15.3603C316.36 13.3403 322.68 13.5903 328.02 16.0503C333.37 18.5103 337.68 23.1303 339.75 28.6403C343.62 27.4303 348.01 29.4003 350.4 32.6703C352.78 35.9503 353.4 40.2503 352.92 44.2703C352.6 46.9903 351.81 49.6203 350.9 52.2103C350.9 52.4403 350.92 52.6603 350.92 52.8903C350.74 62.6103 349.64 74.0403 345.49 74.1003C338.26 74.2103 339.98 60.5903 339.98 60.5903C331.11 57.1603 334.41 43.8603 332.19 41.8503C329.97 39.8303 325.33 35.1503 306.75 44.6403C299.54 48.3303 289.94 48.2103 284.71 47.0203C284.56 46.9903 284.4 46.9603 284.25 46.9303C284.22 46.9203 284.17 46.9203 284.14 46.9103C284.08 46.9003 284.04 46.8603 283.99 46.8503C282.32 46.4203 280.71 45.7703 279.22 44.8303C277.54 43.7603 276.01 42.3203 275.29 40.4603C274.58 38.6003 274.84 36.2803 276.3 34.9203C274.93 33.1903 273.86 31.1503 273.67 28.9603Z" fill="#263238"/>
<path d="M374.55 257.39L375.89 282.49L378.88 318.54H265.25L270.18 265.28L260.5 181.13C261.34 151.39 272.76 139.03 296.12 136.19C296.31 136.17 294.08 136.44 294.28 136.42C297.5 136.04 294.28 136.42 296.12 136.19C311.23 140.84 326.34 140.83 341.45 136.16C348.46 136.46 354.26 138.61 360.22 139.76C378.99 143.36 394.44 157.86 398.19 170.48C401.28 180.87 423.63 271 423.63 271H379.17L374.55 257.39Z" fill="#963EEE"/>
<path d="M300.18 94.0205C300.61 95.1005 301.04 96.1905 301.76 97.1105C302.47 98.0205 303.52 98.7505 304.68 98.8005C305.91 98.8605 307.11 98.1305 307.79 97.1005C308.48 96.0705 308.71 94.7905 308.66 93.5605C308.61 92.4405 308.1 91.1105 306.99 90.9805C306.53 90.9305 306.07 91.1005 305.64 91.2805C303.7 92.0705 301.75 92.8605 299.81 93.6505" fill="#EB996E"/>
<path d="M302.51 98.8201C302.54 98.6401 303.82 99.1601 305.62 98.4401C306.49 98.0901 307.45 97.3901 307.97 96.3001C308.5 95.2201 308.6 93.7601 308.05 92.4801C307.92 92.1601 307.73 91.8701 307.54 91.6101C307.31 91.3701 307.35 91.3801 307.1 91.4201C306.86 91.4801 306.48 91.6601 306.17 91.7901C305.84 91.9201 305.53 92.0501 305.21 92.1801C303.96 92.6801 302.83 93.1301 301.88 93.4801C299.97 94.1901 298.76 94.5701 298.7 94.4401C298.64 94.3101 299.75 93.6901 301.59 92.8101C302.51 92.3701 303.61 91.8501 304.84 91.3001C305.15 91.1601 305.46 91.0201 305.78 90.8801C306.12 90.7401 306.38 90.5901 306.85 90.4401C307.08 90.3801 307.4 90.3401 307.72 90.4701C308.03 90.5901 308.22 90.8001 308.36 90.9801C308.62 91.3301 308.85 91.6801 309.02 92.0901C309.71 93.6801 309.54 95.4501 308.84 96.7601C308.13 98.1001 306.91 98.8501 305.88 99.1501C304.83 99.4701 303.93 99.4001 303.35 99.2501C302.76 99.0801 302.48 98.8801 302.51 98.8201Z" fill="#263238"/>
<path d="M260.31 252.37L233.55 170.21L231.13 156.41C231.13 156.41 223.85 125.66 223.53 122.61C223.16 119.09 221.37 118.43 220.08 118.65C218.07 119 216.91 121.64 217.14 124.67C217.22 125.72 219.12 142.18 219.12 142.18C219.12 142.18 218.22 140.9 215.45 138.08C212.68 135.26 206.77 134.11 200.92 134.93C195.07 135.75 193.5 136.5 193.72 138.79C193.81 139.71 194.4 140.39 195.11 140.88C196.27 141.69 197.72 141.97 199.13 141.8C208.52 140.61 211.59 145.37 211.59 145.37L211.91 147.17C211.91 147.17 205.75 143.7 201.39 145.92C200.68 146.28 200.13 146.74 199.69 147.24C197.19 147.53 194.89 149.16 193.82 151.44C192.71 153.81 192.98 156.77 194.5 158.9C195.23 159.92 196.46 160.8 197.65 160.43C198.28 160.23 198.75 159.72 199.2 159.24C199.44 158.99 199.69 158.74 199.97 158.53L201.57 163.46C201.57 163.46 205.75 174.35 207.03 179.29L220.06 262.02C221.87 273.49 232.73 281.25 244.17 279.24C256.6 277.07 264.22 264.38 260.31 252.37Z" fill="#FFBE9D"/>
<path d="M230.72 169.37C229.04 170.03 227.14 168.95 226.04 167.53C224.94 166.1 224.36 164.34 223.37 162.84C220.41 158.35 214.24 156.71 211.49 152.08C211.11 151.43 210.84 150.52 211.39 150.01C211.9 149.54 212.72 149.78 213.36 150.05C218.84 152.36 224.32 154.66 229.8 156.97" fill="#FFBE9D"/>
<path d="M229.8 156.96C229.83 156.9 229.22 156.57 228.1 156.03C226.98 155.49 225.34 154.74 223.32 153.84C221.2 152.91 218.8 151.86 216.17 150.71C215.49 150.42 214.8 150.12 214.1 149.82C213.42 149.59 212.64 148.98 211.47 149.37C210.89 149.59 210.55 150.28 210.59 150.81C210.6 151.35 210.78 151.8 211 152.21C211.46 152.97 211.97 153.68 212.58 154.31C215.03 156.87 217.99 158.32 220.21 160.15C221.34 161.04 222.3 162 223.01 163.04C223.72 164.07 224.21 165.19 224.77 166.17C225.81 168.2 227.49 169.44 228.79 169.65C230.11 169.89 230.77 169.39 230.73 169.37C230.71 169.27 230.03 169.61 228.88 169.27C227.73 168.95 226.32 167.81 225.4 165.83C224.9 164.86 224.44 163.72 223.71 162.58C222.98 161.43 221.96 160.38 220.8 159.43C218.51 157.5 215.57 156 213.32 153.63C212.75 153.05 212.28 152.38 211.88 151.74C211.51 151.1 211.48 150.41 211.86 150.3C212.26 150.12 213.01 150.43 213.72 150.73C214.43 151.02 215.12 151.31 215.8 151.59C218.46 152.66 220.89 153.65 223.03 154.51C225.09 155.33 226.77 155.98 227.94 156.4C229.11 156.82 229.77 157.03 229.8 156.96Z" fill="#EB996E"/>
<path d="M212.13 147.25C212 147.29 212.07 145.81 210.71 144.2C210.04 143.41 208.97 142.73 207.62 142.43C206.28 142.11 204.73 142.13 203.1 142.27C201.47 142.4 199.87 142.55 198.41 142.36C196.96 142.17 195.67 141.72 194.76 141.01C193.83 140.3 193.54 139.29 193.57 138.68C193.6 138.05 193.76 137.74 193.78 137.74C193.84 137.75 193.77 138.09 193.82 138.67C193.87 139.24 194.19 140.06 195.04 140.65C195.87 141.24 197.1 141.63 198.47 141.77C199.85 141.92 201.4 141.76 203.04 141.62C204.69 141.48 206.32 141.47 207.76 141.85C209.2 142.2 210.38 143.01 211.06 143.91C211.76 144.8 212.02 145.7 212.12 146.3C212.23 146.9 212.17 147.25 212.13 147.25Z" fill="#EB996E"/>
<path d="M217.07 123.521C217.16 123.521 217.28 124.771 217.47 126.791C217.69 129.041 217.95 131.721 218.23 134.681C218.56 137.641 218.86 140.321 219.11 142.561C219.34 144.581 219.49 145.831 219.39 145.841C219.3 145.861 219 144.631 218.65 142.631C218.29 140.631 217.9 137.841 217.57 134.751C217.25 131.661 217.06 128.851 217 126.821C216.94 124.781 216.98 123.521 217.07 123.521Z" fill="#EB996E"/>
<path d="M208.82 151.36C208.8 151.41 208.45 151.28 207.82 151.09C207.22 150.92 206.2 150.66 205.28 151.24C204.83 151.52 204.57 152.05 204.58 152.7C204.57 153.34 204.78 154.04 204.96 154.81C205.14 155.57 205.31 156.53 204.85 157.43C204.39 158.3 203.47 158.87 202.48 159C201.46 159.14 200.49 158.74 199.78 158.16C199.07 157.57 198.56 156.83 198.32 156C197.91 154.41 197.89 152.98 197.93 151.78C197.99 150.58 198.2 149.61 198.47 148.98C198.74 148.35 199.03 148.09 199.05 148.11C199.1 148.15 198.89 148.45 198.71 149.07C198.52 149.69 198.39 150.63 198.39 151.8C198.4 152.96 198.49 154.39 198.89 155.84C199.31 157.17 200.75 158.56 202.39 158.36C203.19 158.26 203.93 157.78 204.28 157.14C204.63 156.49 204.54 155.7 204.37 154.95C204.21 154.2 203.99 153.45 204.03 152.68C204.03 151.93 204.43 151.16 205.03 150.85C206.23 150.19 207.32 150.62 207.91 150.85C208.52 151.12 208.83 151.32 208.82 151.36Z" fill="#EB996E"/>
<path d="M199.99 157.64C200.02 157.63 200.15 157.97 200 158.58C199.85 159.16 199.35 160.04 198.27 160.48C197.21 160.9 195.7 160.71 194.54 159.75C193.38 158.8 192.65 157.25 192.46 155.59C192.28 153.92 192.67 152.3 193.39 151.04C194.11 149.77 195.14 148.9 196.07 148.37C197.01 147.83 197.87 147.61 198.47 147.52C199.07 147.44 199.4 147.47 199.4 147.51C199.43 147.64 198.05 147.65 196.32 148.76C195.47 149.31 194.55 150.16 193.92 151.33C193.28 152.49 192.94 153.99 193.11 155.51C193.27 157.03 193.93 158.44 194.92 159.28C195.9 160.13 197.19 160.34 198.1 160.03C199.03 159.72 199.54 159 199.74 158.49C199.97 157.98 199.94 157.64 199.99 157.64Z" fill="#EB996E"/>
<path d="M212.52 167.43C212.51 167.37 213.09 167.19 214.1 167.28C215.09 167.37 216.53 167.81 217.75 168.99L217.21 169.21C217.21 168.51 217.25 167.75 217.34 166.98C217.84 162.64 219.87 159.63 219.99 159.74C220.17 159.82 218.46 162.88 217.99 167.06C217.9 167.81 217.85 168.54 217.84 169.22L217.82 169.97L217.3 169.44C216.23 168.36 214.95 167.87 214.03 167.68C213.11 167.47 212.53 167.51 212.52 167.43Z" fill="#EB996E"/>
<path d="M209.19 139.43C209.35 139.49 208.84 140.74 207.46 141.51C206.09 142.3 204.75 142.09 204.79 141.92C204.79 141.73 205.95 141.63 207.14 140.94C208.35 140.28 209.03 139.33 209.19 139.43Z" fill="#EB996E"/>
<path d="M281.51 139.421C281.54 139.451 281.14 139.821 280.47 140.591C279.83 141.371 278.79 142.531 278.15 144.311C277.99 144.761 277.91 145.241 277.89 145.751C277.9 146.261 278.02 146.781 278.27 147.261C278.81 148.221 279.89 148.941 281.15 149.401C283.69 150.351 286.85 150.631 290.3 150.691C292.03 150.721 293.88 150.791 295.78 150.901C296.73 151.011 297.7 151.131 298.69 151.241C299.68 151.351 300.67 151.611 301.68 151.801C305.69 152.711 309.97 154.251 313.7 157.141C315.56 158.561 317.28 160.291 318.67 162.351C319 162.871 319.33 163.411 319.61 163.971C319.9 164.551 320.1 165.131 320.35 165.701C320.79 166.871 321.16 168.101 321.39 169.361C322.39 174.381 321.62 179.941 319.04 184.731C316.43 189.541 312 193.031 307.22 194.821C304.82 195.721 302.32 196.191 299.86 196.281C297.39 196.361 294.99 195.921 292.74 195.411C290.49 194.911 288.32 194.391 286.2 194.241C284.08 194.091 282.02 194.391 280.26 195.291C278.5 196.171 277.06 197.511 275.81 198.901C274.56 200.301 273.5 201.771 272.45 203.171C270.37 205.961 268.18 208.411 265.61 209.701C264.35 210.341 263.02 210.711 261.8 210.701C260.58 210.711 259.48 210.471 258.55 210.091C257.62 209.721 256.88 209.211 256.32 208.681C255.77 208.141 255.42 207.581 255.2 207.101C254.79 206.131 254.85 205.561 254.85 205.561C254.92 205.551 254.94 206.111 255.39 207.001C255.63 207.441 255.99 207.951 256.53 208.441C257.08 208.921 257.8 209.371 258.69 209.701C260.45 210.351 262.96 210.521 265.33 209.171C267.73 207.901 269.82 205.511 271.84 202.711C272.86 201.311 273.92 199.811 275.18 198.351C276.45 196.911 277.94 195.481 279.84 194.501C281.74 193.511 284 193.171 286.23 193.311C288.47 193.451 290.68 193.971 292.92 194.451C295.16 194.941 297.45 195.341 299.8 195.261C302.15 195.161 304.54 194.711 306.83 193.841C311.4 192.111 315.62 188.781 318.09 184.201C320.55 179.641 321.3 174.321 320.36 169.521C320.14 168.321 319.8 167.151 319.38 166.021C319.15 165.461 318.94 164.881 318.69 164.381C318.43 163.861 318.13 163.351 317.81 162.861C316.51 160.911 314.87 159.241 313.09 157.871C309.53 155.071 305.38 153.541 301.46 152.611C300.47 152.421 299.5 152.151 298.53 152.031C297.56 151.911 296.61 151.781 295.67 151.661C293.79 151.531 291.99 151.441 290.24 151.391C286.75 151.271 283.54 150.951 280.9 149.901C279.59 149.391 278.4 148.591 277.79 147.451C277.5 146.881 277.38 146.271 277.39 145.691C277.43 145.121 277.54 144.591 277.72 144.121C278.47 142.251 279.57 141.131 280.27 140.391C281.05 139.721 281.49 139.401 281.51 139.421Z" fill="#FAFAFA"/>
<path d="M357.58 206.101C357.53 206.111 357.28 205.331 357.1 203.851C356.91 202.381 356.93 200.191 357.52 197.581C358.09 194.971 359.37 191.991 361.4 189.101C363.44 186.221 366.28 183.451 369.8 181.351C373.33 179.291 377.04 178.021 380.48 177.321C383.92 176.601 387.08 176.381 389.73 176.371C392.37 176.361 394.51 176.511 395.97 176.691C397.43 176.861 398.24 177.021 398.23 177.081C398.22 177.261 394.97 176.911 389.75 177.111C387.14 177.221 384.04 177.511 380.69 178.261C377.34 179.001 373.75 180.261 370.34 182.251C366.96 184.271 364.2 186.911 362.19 189.661C360.19 192.421 358.88 195.261 358.24 197.761C357.59 200.261 357.45 202.381 357.51 203.821C357.56 205.271 357.67 206.081 357.58 206.101Z" fill="#FAFAFA"/>
<path d="M412.22 223.48C412.27 223.52 411.88 224.16 411.04 225.24C410.21 226.32 408.87 227.78 407.01 229.37C405.16 230.96 402.73 232.62 399.8 234.01C396.88 235.41 393.43 236.49 389.71 236.95C385.98 237.38 382.38 237.15 379.2 236.49C376.02 235.83 373.27 234.8 371.09 233.7C368.91 232.6 367.26 231.49 366.2 230.64C365.13 229.8 364.6 229.26 364.64 229.21C364.76 229.04 367.05 231.04 371.41 233.03C375.72 235.03 382.33 236.78 389.58 235.91C396.83 235.03 402.83 231.75 406.54 228.79C410.32 225.83 412.06 223.35 412.22 223.48Z" fill="#FAFAFA"/>
<path d="M362 220.281C362.01 220.321 361.68 220.421 361.09 220.651C360.5 220.881 359.65 221.331 358.8 222.171C357.95 223.021 357.14 224.271 356.5 225.861C355.86 227.461 355.34 229.371 354.89 231.501C354.43 233.641 354.08 236.041 353.26 238.551C352.84 239.801 352.3 241.081 351.53 242.281C350.75 243.471 349.77 244.591 348.61 245.541C346.31 247.471 343.42 248.811 340.35 249.721C337.27 250.631 334.01 251.131 330.73 251.771C324.19 252.981 318.2 255.401 313.63 258.891C311.34 260.611 309.43 262.591 307.93 264.631C306.46 266.701 305.39 268.841 304.68 270.891C303.27 275.001 303.26 278.621 303.62 281.011C303.98 283.421 304.53 284.691 304.42 284.721C304.39 284.731 304.24 284.431 304 283.821C303.87 283.521 303.75 283.141 303.61 282.681C303.46 282.231 303.34 281.691 303.22 281.081C302.73 278.661 302.61 274.931 303.98 270.661C304.67 268.541 305.73 266.311 307.23 264.141C308.76 261.991 310.71 259.941 313.05 258.141C317.72 254.501 323.88 251.991 330.53 250.761C333.84 250.111 337.07 249.621 340.06 248.751C343.04 247.891 345.81 246.611 348 244.811C349.1 243.931 350.02 242.891 350.76 241.791C351.49 240.681 352.02 239.481 352.44 238.291C353.26 235.891 353.66 233.511 354.17 231.361C354.67 229.201 355.25 227.281 355.96 225.651C356.68 224.031 357.58 222.741 358.52 221.891C359.47 221.051 360.39 220.641 361.02 220.461C361.65 220.281 361.99 220.261 362 220.281Z" fill="#FAFAFA"/>
<path d="M335.2 216.111C335.24 216.091 335.61 216.781 335.72 218.161C335.83 219.521 335.54 221.621 334.12 223.691C333.41 224.711 332.43 225.731 331.11 226.421C330.46 226.791 329.72 227.031 328.94 227.211C328.16 227.341 327.33 227.411 326.5 227.311C324.83 227.141 323.14 226.481 321.7 225.371C320.27 224.261 319.08 222.651 318.6 220.731C318.3 219.511 318.28 218.241 318.55 217.051C318.81 215.841 319.48 214.781 320.14 213.911C320.82 213.021 321.54 212.221 322.33 211.511C322.73 211.161 323.14 210.831 323.6 210.561C324.06 210.291 324.55 210.041 325.17 210.011L325.3 210.901C325.13 210.941 324.97 210.981 324.81 211.021L324.56 210.161C326.57 209.581 328.55 209.841 330.07 210.461C331.62 211.051 332.76 212.001 333.55 212.861C334.33 213.741 334.75 214.581 334.97 215.161C335.19 215.771 335.24 216.101 335.2 216.111C335.07 216.171 334.77 214.821 333.18 213.241C332.39 212.471 331.28 211.651 329.83 211.161C328.4 210.641 326.6 210.481 324.84 211.031L324.59 210.171C324.75 210.131 324.91 210.081 325.08 210.041L325.21 210.931C324.51 211.001 323.68 211.591 322.98 212.241C322.26 212.901 321.58 213.681 320.95 214.521C320.31 215.371 319.78 216.251 319.56 217.281C319.33 218.301 319.35 219.411 319.61 220.481C320.02 222.141 321.05 223.551 322.32 224.561C323.6 225.561 325.12 226.181 326.6 226.351C327.34 226.451 328.07 226.401 328.77 226.301C329.46 226.151 330.12 225.961 330.71 225.651C331.91 225.071 332.83 224.161 333.52 223.251C334.9 221.391 335.3 219.451 335.31 218.161C335.33 216.861 335.1 216.141 335.2 216.111Z" fill="#FAFAFA"/>
<path d="M270.68 183.45C270.69 183.45 270.69 183.54 270.69 183.72C270.68 183.93 270.67 184.19 270.66 184.51C270.62 185.24 270.57 186.25 270.51 187.53C270.35 190.15 270.2 193.94 269.99 198.62C269.6 207.99 269.22 220.93 268.91 235.24C268.6 249.55 268.42 262.5 268.28 271.88C268.21 276.54 268.15 280.32 268.11 282.98C268.08 284.26 268.06 285.27 268.05 286C268.04 286.32 268.03 286.58 268.02 286.78C268.01 286.96 268 287.05 267.99 287.05C267.98 287.05 267.97 286.96 267.96 286.78C267.95 286.57 267.95 286.31 267.94 285.99C267.93 285.26 267.92 284.25 267.91 282.97C267.91 280.31 267.91 276.52 267.91 271.86C267.95 262.48 268.08 249.53 268.39 235.22C268.69 220.91 269.13 207.96 269.62 198.6C269.88 193.92 270.09 190.13 270.31 187.51C270.41 186.23 270.5 185.23 270.56 184.5C270.59 184.18 270.62 183.92 270.64 183.72C270.65 183.54 270.67 183.45 270.68 183.45Z" fill="#263238"/>
<g opacity="0.2">
<path opacity="0.2" d="M251.56 276.43C257.14 279.1 264.43 273.97 267.28 268.48C267.28 268.48 268.77 256.38 268.56 250.2C268.18 238.76 269.01 227.43 268.63 215.99C267.77 222.8 264.89 229.33 260.47 234.57C259.25 236.02 257.86 237.45 257.4 239.3C256.58 242.6 259.1 248.53 260.72 251.52C265.68 260.66 254.82 276.48 251.92 276.19" fill="black"/>
</g>
<g opacity="0.2">
<path opacity="0.2" d="M355.99 201.78C357.82 224.58 359.64 247.38 361.47 270.18C361.64 272.33 361.83 274.53 362.67 276.52C363.52 278.51 365.16 280.29 367.27 280.72C370.51 281.38 373.65 278.59 374.57 275.41C375.49 272.23 374.75 268.84 373.96 265.62C372.6 260.15 371.07 254.73 369.53 249.31C365.07 233.58 360.61 217.85 356.14 202.13" fill="black"/>
</g>
<path d="M293.32 318.57C293.21 318.51 294.27 317.43 294.84 314.94C295.41 312.47 295.05 308.65 293.14 304.52C292.2 302.45 290.87 300.31 289.53 297.94C288.2 295.58 286.8 292.94 286.14 289.86C285.47 286.77 285.85 283.39 286.85 280.18C287.83 276.96 289.29 273.83 290.47 270.55C292.97 264.05 292.84 257.12 290.97 251.42C290.05 248.56 288.72 246.01 287.18 243.83C285.62 241.66 283.87 239.86 282.12 238.41C278.59 235.51 275.14 233.99 272.73 233.17C270.3 232.36 268.88 232.14 268.9 232.04C268.91 232 269.26 232.04 269.94 232.13C270.61 232.23 271.61 232.42 272.85 232.78C275.33 233.49 278.9 234.94 282.58 237.83C284.4 239.29 286.24 241.1 287.87 243.32C289.49 245.55 290.89 248.17 291.87 251.12C292.84 254.06 293.41 257.31 293.37 260.69C293.38 264.07 292.67 267.57 291.44 270.9C290.24 274.24 288.78 277.35 287.82 280.48C286.84 283.59 286.47 286.76 287.08 289.67C287.67 292.58 289 295.16 290.28 297.52C291.58 299.89 292.88 302.07 293.81 304.22C295.69 308.51 295.95 312.5 295.23 315.04C294.89 316.32 294.36 317.21 294 317.78C293.58 318.33 293.34 318.59 293.32 318.57Z" fill="#FAFAFA"/>
<path d="M387.19 154.06C387.24 154.08 387 154.84 386.22 156.05C385.45 157.25 384.05 158.86 381.88 160.26C379.73 161.67 376.76 162.8 373.36 163.08C369.96 163.38 366.19 162.88 362.47 161.69C358.75 160.51 355.36 158.66 352.96 156.17C351.77 154.94 350.81 153.57 350.19 152.17C349.57 150.77 349.23 149.36 349.11 148.07C348.87 145.47 349.52 143.37 350.22 142.12C350.38 141.8 350.56 141.53 350.73 141.31C350.88 141.08 351.03 140.9 351.17 140.76C351.43 140.48 351.57 140.35 351.6 140.37C351.68 140.43 351.16 141.03 350.59 142.29C350.03 143.54 349.53 145.54 349.85 147.98C350.01 149.19 350.36 150.5 350.98 151.8C351.59 153.09 352.51 154.34 353.65 155.49C355.94 157.79 359.18 159.55 362.79 160.69C366.4 161.84 370.03 162.35 373.29 162.12C376.55 161.9 379.39 160.91 381.5 159.63C383.63 158.36 385.05 156.9 385.9 155.81C386.75 154.72 387.11 154.02 387.19 154.06Z" fill="#FAFAFA"/>
<path d="M373.5 261.63C373.49 261.63 373.46 261.54 373.39 261.35C373.32 261.13 373.24 260.86 373.13 260.51C372.9 259.74 372.58 258.65 372.18 257.27C371.37 254.42 370.21 250.35 368.78 245.34C365.95 235.23 362.05 221.31 357.74 205.94C355.61 198.24 353.57 190.91 351.72 184.23C350.8 180.89 350 177.68 349.59 174.61C349.17 171.54 349.15 168.63 349.56 166.02C350.43 160.77 353 157.05 355.22 155.14C356.33 154.16 357.35 153.61 358.03 153.25C358.36 153.11 358.63 153 358.84 152.91C359.02 152.84 359.12 152.8 359.12 152.81C359.17 152.89 357.54 153.34 355.35 155.29C353.21 157.22 350.73 160.91 349.92 166.08C349.53 168.65 349.58 171.53 350.01 174.55C350.44 177.59 351.25 180.77 352.17 184.1C354.03 190.77 356.08 198.1 358.23 205.8C362.48 221.19 366.33 235.12 369.12 245.24C370.48 250.27 371.59 254.35 372.36 257.21C372.72 258.6 373.01 259.69 373.22 260.47C373.31 260.82 373.38 261.1 373.43 261.32C373.49 261.53 373.51 261.63 373.5 261.63Z" fill="#263238"/>
<path d="M332.78 40.1799C332.71 40.1699 332.96 39.4099 332.79 38.0399C332.62 36.6899 331.86 34.7199 330.03 33.0699C328.25 31.3699 325.32 30.3599 322.07 30.4399C318.8 30.4699 315.32 31.5399 311.72 32.7499C309.91 33.3499 308.13 33.9099 306.37 34.2999C304.6 34.6799 302.86 34.8899 301.2 34.9299C297.87 35.0299 294.89 34.4899 292.49 33.7799C290.09 33.0499 288.25 32.1599 287.04 31.4699C286.43 31.1299 285.97 30.8299 285.67 30.6199C285.37 30.4099 285.21 30.2999 285.22 30.2799C285.25 30.2299 285.89 30.6599 287.14 31.2799C288.38 31.9099 290.21 32.7399 292.6 33.4199C294.99 34.0699 297.92 34.5599 301.2 34.4399C302.83 34.3899 304.54 34.1699 306.28 33.7899C308.02 33.3999 309.78 32.8299 311.58 32.2399C315.17 31.0299 318.72 29.9399 322.08 29.9399C325.42 29.8799 328.48 30.9699 330.3 32.7799C332.17 34.5299 332.9 36.5999 333.02 37.9899C333.1 39.4399 332.78 40.1799 332.78 40.1799Z" fill="#455A64"/>
<path d="M346.53 70.07C346.51 70.08 346.43 69.95 346.3 69.7C346.16 69.45 345.97 69.07 345.75 68.57C345.31 67.57 344.76 66.09 344.34 64.17C343.94 62.26 343.68 59.92 343.88 57.33C344.04 54.73 344.85 51.99 345.46 49.11C346.09 46.25 346.24 43.39 345.48 40.98C345.12 39.78 344.52 38.73 343.79 37.9C343.05 37.09 342.14 36.54 341.25 36.23C339.45 35.6 337.83 35.88 336.89 36.34C335.94 36.82 335.58 37.34 335.53 37.29C335.53 37.29 335.83 36.72 336.79 36.16C337.75 35.62 339.45 35.26 341.37 35.88C342.32 36.18 343.3 36.74 344.11 37.6C344.91 38.46 345.55 39.57 345.94 40.83C346.76 43.34 346.61 46.31 345.98 49.21C345.36 52.12 344.55 54.82 344.37 57.36C344.15 59.89 344.36 62.19 344.71 64.09C345.07 65.98 345.56 67.47 345.95 68.48C346.31 69.51 346.57 70.05 346.53 70.07Z" fill="#455A64"/>
<path d="M334.48 38.7602C334.46 38.7602 334.47 38.5102 334.49 38.0502C334.51 37.5302 334.53 36.8602 334.57 36.0202C334.59 34.2702 334.64 31.6802 333.75 28.6802C333.29 27.2002 332.55 25.6302 331.39 24.2202C330.24 22.8202 328.63 21.5902 326.65 21.0902C324.68 20.5502 322.47 20.7402 320.32 21.3502C318.16 21.9602 316.08 23.0402 313.99 24.2202C311.9 25.4002 309.85 26.6002 307.71 27.4502C305.56 28.2802 303.35 28.7102 301.24 28.7502C299.13 28.8002 297.12 28.5302 295.32 28.0202C293.52 27.5102 291.91 26.8102 290.51 26.0402C287.74 24.4502 285.91 22.5702 284.82 21.1802C284.26 20.4902 283.9 19.9002 283.67 19.5002C283.43 19.1002 283.31 18.8902 283.33 18.8802C283.35 18.8702 283.49 19.0702 283.76 19.4502C284.02 19.8302 284.4 20.4002 284.98 21.0602C286.1 22.4002 287.95 24.2002 290.69 25.7202C292.07 26.4602 293.66 27.1202 295.43 27.6002C297.2 28.0802 299.17 28.3202 301.23 28.2602C303.29 28.2102 305.43 27.7802 307.52 26.9702C309.61 26.1402 311.63 24.9502 313.73 23.7602C315.82 22.5702 317.95 21.4702 320.18 20.8502C322.39 20.2302 324.7 20.0402 326.77 20.6202C328.86 21.1702 330.55 22.4802 331.72 23.9402C332.91 25.4102 333.66 27.0402 334.1 28.5702C334.96 31.6602 334.84 34.2702 334.77 36.0302C334.72 36.9102 334.65 37.6002 334.6 38.0602C334.53 38.5202 334.49 38.7602 334.48 38.7602Z" fill="#455A64"/>
<path d="M308.06 288.8L382.84 277.65L381.63 271H421.88L423.06 281.23C426.71 300.19 412.29 317.82 392.99 318.01L305.77 317.04L308.06 288.8Z" fill="#FFBE9D"/>
<path d="M313.46 290.09C313.06 290.22 308.02 287.97 303.51 285.88C298.72 283.66 293.46 282.64 288.19 282.91L267.4 283.97C267.4 283.97 268.68 287.4 270.89 288.62C273.1 289.84 286.02 290.1 286.02 290.1L285.36 290.78C282.64 293.58 278.92 295.21 275.01 295.31L273.02 295.36C271.55 295.24 270.09 294.96 268.68 294.51L263.55 292.44C262 291.74 260.36 291.85 259.68 293.42C259.07 294.83 259.52 296.78 263.75 298.91C266.12 300.1 274.89 303.14 274.89 303.14C274.89 303.14 275.02 305.57 275.4 306.84C275.78 308.12 279.23 309.39 279.23 309.39C279.23 309.39 281.4 313.86 282.29 314.88C282.69 315.34 285.81 316.31 289.14 317.24C294.5 318.75 300.18 318.71 305.52 317.12L313.44 314.75V290.61" fill="#FFBE9D"/>
<path d="M285.02 305.85C285.01 305.98 282.54 305.86 279.61 305.08C276.68 304.31 274.47 303.21 274.52 303.09C274.58 302.95 276.85 303.82 279.74 304.58C282.63 305.35 285.04 305.7 285.02 305.85Z" fill="#EB996E"/>
<path d="M284.29 310.72C284.29 310.86 282.95 310.94 281.37 310.51C279.78 310.08 278.67 309.33 278.74 309.21C278.81 309.08 279.99 309.6 281.51 310C283.01 310.43 284.29 310.57 284.29 310.72Z" fill="#EB996E"/>
<path d="M402.6 295.09C402.5 295.13 402.01 293.64 400.81 291.45C400.22 290.35 399.41 289.1 398.42 287.79C397.4 286.49 396.19 285.14 394.79 283.86C393.37 282.6 391.89 281.54 390.5 280.67C389.09 279.82 387.76 279.15 386.6 278.68C384.29 277.72 382.77 277.39 382.79 277.29C382.8 277.25 383.18 277.32 383.87 277.47C384.22 277.54 384.64 277.64 385.11 277.79C385.59 277.94 386.14 278.09 386.73 278.33C387.92 278.76 389.29 279.41 390.74 280.25C392.18 281.11 393.69 282.18 395.14 283.47C396.57 284.77 397.8 286.16 398.81 287.49C399.8 288.84 400.59 290.13 401.15 291.27C401.46 291.82 401.66 292.36 401.86 292.82C402.07 293.28 402.21 293.69 402.32 294.02C402.53 294.7 402.63 295.08 402.6 295.09Z" fill="#EB996E"/>
<path d="M288.08 288.22C288.13 288.27 287.53 288.94 286.47 289.94C285.41 290.93 283.87 292.24 281.94 293.37C280.01 294.5 278.06 295.13 276.63 295.42C275.2 295.71 274.3 295.73 274.29 295.67C274.24 295.48 277.89 295.15 281.68 292.92C283.56 291.82 285.11 290.57 286.23 289.66C287.35 288.74 288.03 288.16 288.08 288.22Z" fill="#EB996E"/>
<path d="M235.17 68.9293C235.17 70.6493 236.56 72.0393 238.28 72.0393C240 72.0393 241.39 70.6493 241.39 68.9293C241.39 67.2093 240 65.8193 238.28 65.8193C236.56 65.8193 235.17 67.2093 235.17 68.9293Z" fill="white"/>
<path d="M225.83 72.0393C227.547 72.0393 228.94 70.6469 228.94 68.9293C228.94 67.2117 227.547 65.8193 225.83 65.8193C224.112 65.8193 222.72 67.2117 222.72 68.9293C222.72 70.6469 224.112 72.0393 225.83 72.0393Z" fill="white"/>
<path d="M210.29 67.3694C209.43 68.8594 209.94 70.7594 211.43 71.6194C212.92 72.4794 214.82 71.9694 215.68 70.4794C216.54 68.9894 216.03 67.0894 214.54 66.2294C213.06 65.3694 211.15 65.8794 210.29 67.3694Z" fill="white"/>
<path d="M225.63 32.5796C225.63 32.5696 225.42 32.5596 225 32.5696C224.54 32.5796 223.93 32.5996 223.15 32.6196C222.74 32.6396 222.29 32.6396 221.79 32.6796C221.29 32.7496 220.75 32.8296 220.16 32.9096C219.57 32.9996 218.93 33.0896 218.26 33.1796C217.59 33.3496 216.88 33.5196 216.13 33.7096C213.14 34.4796 209.52 35.7896 205.82 38.1996C202.12 40.5696 198.28 43.9696 195.16 48.5796C192.1 53.1996 189.74 59.0096 189.11 65.5396C189.05 67.1696 188.85 68.8396 189.01 70.5196C189.07 71.3596 189.05 72.2196 189.18 73.0696C189.31 73.9196 189.44 74.7796 189.57 75.6396C190.27 79.0496 191.28 82.5396 193.03 85.7796C194.74 89.0396 196.96 92.1396 199.66 94.8996C202.41 97.5996 205.63 99.9496 209.21 101.76C212.78 103.58 216.73 104.84 220.85 105.33C221.87 105.53 222.91 105.53 223.95 105.59C224.99 105.66 226.04 105.7 227.09 105.65C229.19 105.56 231.29 105.3 233.37 104.86C237.89 103.9 242.14 102.06 245.88 99.5996L245.5 99.6396C249.84 101.38 254.09 103.09 258.24 104.75L258.99 105.05L258.77 104.27C257.48 99.5896 256.23 95.0496 255.02 90.6496L254.96 90.9896C258.54 86.2396 260.82 80.8096 261.76 75.4196C262.23 72.7296 262.43 70.0396 262.26 67.4396C262.2 66.1396 262.14 64.8596 261.9 63.6096C261.8 62.9796 261.71 62.3596 261.61 61.7496C261.5 61.1396 261.31 60.5396 261.16 59.9496C258.7 50.3596 252.79 43.2796 246.94 39.2196C244.01 37.1596 241.12 35.6796 238.48 34.7596C237.82 34.5196 237.19 34.2996 236.57 34.0796C235.94 33.9196 235.34 33.7696 234.76 33.6196C234.18 33.4796 233.63 33.3396 233.1 33.2096C232.57 33.1096 232.06 33.0496 231.58 32.9796C230.62 32.8596 229.77 32.6896 229.03 32.6496C228.3 32.6296 227.68 32.5996 227.16 32.5896C226.69 32.5796 226.31 32.5696 226.02 32.5596C225.77 32.5596 225.63 32.5696 225.63 32.5796C225.63 32.5896 225.76 32.6096 226.02 32.6296C226.31 32.6496 226.69 32.6796 227.16 32.7196C227.68 32.7496 228.29 32.7996 229.02 32.8496C229.76 32.9096 230.59 33.0896 231.55 33.2296C235.3 33.9196 240.92 35.4096 246.67 39.6096C252.41 43.6696 258.16 50.6796 260.53 60.1096C260.67 60.6996 260.85 61.2796 260.96 61.8796C261.05 62.4896 261.14 63.0996 261.23 63.7096C261.46 64.9296 261.52 66.1896 261.57 67.4696C261.74 70.0196 261.53 72.6496 261.05 75.2896C260.11 80.5696 257.86 85.8696 254.34 90.5196L254.23 90.6696L254.28 90.8496C255.48 95.2496 256.72 99.7996 258 104.48L258.54 104C254.39 102.33 250.14 100.62 245.8 98.8696L245.6 98.7896L245.42 98.9096C241.76 101.31 237.61 103.11 233.19 104.05C231.16 104.49 229.1 104.74 227.05 104.83C226.02 104.88 225 104.84 223.98 104.77C222.96 104.71 221.94 104.71 220.95 104.51C216.93 104.03 213.06 102.81 209.57 101.03C206.07 99.2696 202.92 96.9796 200.22 94.3396C197.57 91.6396 195.4 88.6096 193.71 85.4296C191.98 82.2496 190.98 78.8396 190.28 75.4996C190.15 74.6596 190.02 73.8196 189.89 72.9796C189.77 72.1496 189.78 71.3096 189.72 70.4796C189.56 68.8196 189.75 67.1896 189.8 65.5896C190.38 59.1796 192.67 53.4596 195.65 48.8896C198.69 44.3296 202.45 40.9496 206.08 38.5696C209.71 36.1496 213.27 34.8096 216.22 33.9996C216.96 33.7996 217.66 33.6196 218.32 33.4396C218.99 33.3296 219.62 33.2296 220.2 33.1296C220.78 33.0296 221.32 32.9496 221.82 32.8596C222.32 32.8096 222.77 32.7896 223.17 32.7596C223.95 32.6996 224.56 32.6596 225.01 32.6296C225.42 32.6196 225.63 32.5896 225.63 32.5796Z" fill="white"/>
<path d="M177.27 284.531C183.5 283.891 189.45 280.791 193.55 276.051C197.65 271.311 199.85 264.971 199.58 258.711L186.45 202.891C186.45 202.891 177.93 154.981 151 150.671L160.18 223.701L159.3 239.091C159.3 239.091 159.72 249.271 160.75 268.351L177.27 284.531Z" fill="#E0E0E0"/>
<path d="M88.3301 28.9308C96.9501 20.1608 110.55 14.9808 121.82 19.9108C129.4 23.2208 134.53 30.3308 141.18 35.2508C146.02 38.8308 152.01 41.6008 154.54 47.0608C156.78 51.8708 155.7 57.4808 155.16 62.7608C154.62 68.0408 155 74.1308 159.09 77.5208C161.24 79.3008 164.06 80.0008 166.48 81.3908C171.35 84.1808 174.24 89.6108 175.28 95.1208C176.32 100.631 175.76 106.311 175.19 111.891L151.98 116.311L148.17 109.901L146.84 119.981L117.22 122.651L88.3301 28.9308Z" fill="#263238"/>
<path d="M84.5004 38.5112L84.4504 44.9712L82.6204 141.771C82.4604 152.991 93.2004 162.551 105.21 162.621C117.35 162.701 122.3 153.581 122.64 142.251C123 130.361 123.61 117.841 123.61 117.841C123.61 117.841 139 115.721 142.73 95.8112C144.58 85.9112 144.53 69.5912 144.06 56.2412C143.64 44.2212 133.3 34.9812 121.32 35.9112L84.5004 38.5112Z" fill="#FFBE9D"/>
<path d="M138.8 69.1112C138.81 70.4712 137.67 71.5912 136.26 71.6312C134.85 71.6712 133.69 70.6012 133.68 69.2512C133.67 67.8912 134.81 66.7712 136.22 66.7312C137.63 66.6812 138.79 67.7512 138.8 69.1112Z" fill="#263238"/>
<path d="M140.3 64.6312C139.97 64.9612 138.07 63.4612 135.31 63.4012C132.55 63.2912 130.49 64.6612 130.2 64.3112C130.06 64.1612 130.4 63.5612 131.3 62.9412C132.19 62.3212 133.68 61.7412 135.4 61.8012C137.12 61.8612 138.55 62.5312 139.36 63.2012C140.19 63.8712 140.46 64.4812 140.3 64.6312Z" fill="#263238"/>
<path d="M111.621 69.1102C111.631 70.4702 110.491 71.5902 109.081 71.6302C107.671 71.6702 106.511 70.6002 106.501 69.2502C106.491 67.8902 107.631 66.7702 109.041 66.7302C110.451 66.6802 111.611 67.7502 111.621 69.1102Z" fill="#263238"/>
<path d="M113.161 64.4007C112.831 64.7307 110.931 63.2307 108.171 63.1707C105.411 63.0607 103.351 64.4307 103.061 64.0807C102.921 63.9307 103.261 63.3307 104.161 62.7107C105.051 62.0907 106.541 61.5107 108.261 61.5707C109.981 61.6307 111.411 62.3007 112.221 62.9707C113.051 63.6407 113.321 64.2507 113.161 64.4007Z" fill="#263238"/>
<path d="M122.611 85.1413C122.601 84.9813 124.331 84.7313 127.111 84.4613C127.821 84.4113 128.491 84.2813 128.621 83.8113C128.801 83.3113 128.531 82.5413 128.211 81.7113C127.591 79.9913 126.951 78.1813 126.271 76.2913C123.591 68.5713 121.671 62.2313 121.981 62.1313C122.291 62.0213 124.721 68.2013 127.401 75.9113C128.041 77.8113 128.661 79.6313 129.251 81.3613C129.491 82.1713 129.931 83.0913 129.541 84.1413C129.341 84.6613 128.811 85.0313 128.351 85.1413C127.891 85.2713 127.501 85.2613 127.151 85.2713C124.351 85.3313 122.621 85.2913 122.611 85.1413Z" fill="#263238"/>
<path d="M123.621 117.841C123.621 117.841 110.151 118.341 97.0405 109.961C97.0405 109.961 103.161 123.871 123.221 122.551L123.621 117.841Z" fill="#EB996E"/>
<path d="M121.26 91.751C120.3 90.411 118.59 89.641 116.85 89.781C115.65 89.881 114.42 90.421 113.67 91.371C112.92 92.321 112.73 93.701 113.36 94.651C114.08 95.721 115.62 96.001 116.95 95.661C118.28 95.321 119.43 94.491 120.53 93.651C120.83 93.421 121.15 93.181 121.34 92.861C121.53 92.541 121.59 92.111 121.36 91.831" fill="#EB996E"/>
<path d="M114.441 86.8207C114.891 86.8107 114.811 89.8007 117.321 92.0007C119.821 94.2007 123.021 93.9607 123.031 94.3707C123.071 94.5607 122.301 94.9307 120.951 94.9307C119.631 94.9407 117.711 94.4607 116.181 93.1207C114.651 91.7707 114.031 90.0207 113.961 88.7807C113.881 87.5307 114.241 86.8007 114.441 86.8207Z" fill="#263238"/>
<path d="M114.041 56.3707C113.751 57.1107 111.001 56.6807 107.751 56.9807C104.501 57.2207 101.861 58.0907 101.451 57.4107C101.271 57.0807 101.741 56.3907 102.821 55.6907C103.891 54.9907 105.571 54.3507 107.521 54.1907C109.471 54.0307 111.241 54.3907 112.411 54.9007C113.581 55.4107 114.171 56.0207 114.041 56.3707Z" fill="#263238"/>
<path d="M140.4 59.0613C139.79 59.6713 137.5 58.9614 134.71 58.8514C131.93 58.6614 129.56 59.1314 129.04 58.4614C128.81 58.1414 129.2 57.5213 130.25 56.9513C131.28 56.3913 132.99 55.9514 134.9 56.0514C136.81 56.1514 138.45 56.7713 139.4 57.4313C140.37 58.1013 140.67 58.7613 140.4 59.0613Z" fill="#263238"/>
<path d="M98.7801 26.7004C102.4 31.5604 104.12 35.3004 106.29 43.9404C107.35 48.1704 103.91 51.1704 100.49 53.7504C98.8901 54.9604 96.5701 54.1204 96.1301 52.1504C96.1301 52.1504 97.3201 65.4004 92.5301 71.3404C90.2801 74.1204 90.1901 77.7004 90.7201 80.7104C91.2601 83.7804 92.8501 86.5504 95.0001 88.8104C100.55 94.6504 102.1 104.18 98.2701 111.34C97.2901 113.17 96.0101 114.85 95.2301 116.78C94.7801 117.88 94.5201 119.12 94.5901 120.3C94.6801 121.76 93.6701 123.05 92.2301 123.26C75.7901 125.65 59.0801 126.15 42.5301 124.75C41.3601 124.65 40.3701 123.83 40.1001 122.69C38.8001 117.2 40.9701 111.21 43.7401 106.16C46.8401 100.51 50.7801 95.1004 51.8501 88.7504C52.8501 82.7704 51.2201 76.3304 53.6201 70.7604C56.5701 63.9304 64.5801 60.7004 68.5901 54.4404C72.3701 48.5304 72.0701 40.7804 75.4601 34.6304C79.8101 26.7404 90.5201 23.0904 98.7801 26.7004Z" fill="#263238"/>
<path d="M99.7104 34.0312C106 37.2612 108.9 44.9512 115.01 48.5212C120.57 51.7612 127.52 50.9112 133.89 49.9512C133.65 48.5412 133.42 47.1212 133.18 45.7112C133.82 46.9512 134.49 48.2212 135.54 49.1412C136.59 50.0612 138.12 50.5812 139.41 50.0612C141.55 49.2012 141.83 46.2612 141.28 44.0212C140.4 40.4412 138.31 37.2312 135.72 34.6012C131.02 29.8212 124.56 26.8112 117.88 26.2812C111.2 25.7512 104.34 27.6912 98.9404 31.6612" fill="#263238"/>
<path d="M75.31 50.3904C77.37 45.7504 76.04 39.9204 72.39 36.4004C68.73 32.8804 63.05 31.7604 58.23 33.3304C56.07 34.0304 54.03 35.2704 52.7 37.1104C50.25 40.5004 50.73 45.4804 53.26 48.8004C55.8 52.1204 60.02 53.8804 64.19 54.1104C68.36 54.3404 72.51 53.2004 76.37 51.5904" fill="#263238"/>
<path d="M164.69 256.671L173.41 264.861L174.53 269.721L166.46 267.901C165.3 263.791 164.45 259.881 164.69 256.671Z" fill="#455A64"/>
<path d="M155.07 283.911C154.65 281.221 157.23 278.911 159.86 278.191C162.49 277.471 165.3 277.761 167.96 277.151C169.67 276.761 171.27 276.021 172.9 275.391C181.1 272.241 190.1 272.081 198.88 271.961C199.97 274.301 199.07 277.391 196.89 278.781C197.69 280.881 197.45 283.281 196.62 285.371C195.79 287.461 194.42 289.291 192.96 291.001C191.72 292.451 190.36 293.871 188.62 294.631C186.89 295.391 184.95 295.441 183.06 295.481C177.17 295.601 170.85 295.611 165.97 292.301C162.18 289.731 159.56 285.311 155.17 284.001C155.52 284.011 155.86 284.031 156.21 284.041" fill="#FFBE9D"/>
<path d="M194.37 280.641C194.37 280.681 193.97 280.711 193.24 280.751C192.4 280.781 191.37 280.811 190.16 280.851C187.56 280.911 183.97 280.961 180.01 280.981C178.03 280.981 176.15 280.981 174.42 280.981C173.55 280.961 172.7 280.881 171.95 280.601C171.2 280.321 170.57 279.861 170.16 279.301C169.75 278.741 169.59 278.071 169.69 277.531C169.78 276.981 170.04 276.571 170.31 276.301C170.89 275.761 171.39 275.851 171.36 275.861C171.38 275.911 170.92 275.911 170.45 276.441C169.99 276.931 169.64 278.101 170.44 279.081C170.81 279.561 171.39 279.961 172.07 280.191C172.76 280.421 173.56 280.491 174.41 280.501C176.14 280.491 178.02 280.471 179.99 280.461C183.95 280.441 187.54 280.451 190.14 280.491C191.35 280.521 192.38 280.541 193.22 280.561C193.97 280.571 194.37 280.601 194.37 280.641Z" fill="#EB996E"/>
<path d="M191.35 285.581C191.35 285.621 190.85 285.711 189.93 285.861C189.01 286.001 187.68 286.191 186.03 286.351C184.38 286.501 182.39 286.621 180.18 286.491C177.97 286.371 175.58 285.861 173.12 285.301C168.21 284.101 163.65 283.731 160.35 283.731C158.7 283.721 157.36 283.791 156.44 283.841C155.52 283.891 155 283.921 155 283.881C155 283.851 155.5 283.751 156.42 283.631C157.34 283.521 158.68 283.391 160.35 283.361C163.67 283.261 168.31 283.581 173.24 284.791C175.7 285.351 178.05 285.871 180.22 286.011C182.39 286.171 184.36 286.091 186 285.981C187.65 285.871 188.98 285.731 189.91 285.661C190.83 285.571 191.34 285.541 191.35 285.581Z" fill="#EB996E"/>
<path d="M186.45 290.861C186.45 290.901 186.06 290.971 185.35 291.071C184.64 291.161 183.6 291.291 182.32 291.401C179.76 291.611 176.15 291.831 172.24 291.071C168.29 290.321 165.22 288.311 162.87 287.371C160.52 286.351 158.91 286.251 158.92 286.161C158.92 286.141 159.33 286.111 160.04 286.221C160.76 286.321 161.79 286.571 163 287.031C165.44 287.911 168.5 289.841 172.34 290.561C176.16 291.301 179.74 291.141 182.29 291.031C183.49 290.961 184.5 290.911 185.33 290.861C186.05 290.831 186.45 290.821 186.45 290.861Z" fill="#EB996E"/>
<g opacity="0.5">
<path opacity="0.5" d="M91.2201 301.321C90.9401 301.231 91.4001 298.961 91.8101 296.161C92.2301 293.361 92.4501 291.051 92.7501 291.051C93.0301 291.041 93.2801 293.421 92.8401 296.311C92.4101 299.211 91.4801 301.411 91.2201 301.321Z" fill="#FAFAFA"/>
</g>
<g opacity="0.5">
<path opacity="0.5" d="M116.14 293.21C115.89 293.35 113.99 290.49 111.9 286.81C109.81 283.13 108.31 280.04 108.56 279.9C108.81 279.76 110.71 282.62 112.8 286.3C114.9 289.97 116.39 293.06 116.14 293.21Z" fill="#FAFAFA"/>
</g>
<g opacity="0.5">
<path opacity="0.5" d="M142.58 282.061C142.81 282.231 140.3 285.891 136.98 290.231C133.66 294.571 130.78 297.951 130.56 297.771C130.33 297.601 132.84 293.941 136.16 289.601C139.47 285.261 142.35 281.881 142.58 282.061Z" fill="#FAFAFA"/>
</g>
<g opacity="0.5">
<path opacity="0.5" d="M150.02 303.291C150.06 303.571 146.75 304.291 142.63 304.891C138.51 305.491 135.13 305.741 135.09 305.451C135.05 305.171 138.36 304.451 142.48 303.851C146.61 303.261 149.98 303.001 150.02 303.291Z" fill="#FAFAFA"/>
</g>
<path d="M68.46 50.5309C68.52 50.4509 69.66 51.4309 71.75 52.5709C72.79 53.1509 74.09 53.7309 75.58 54.2409C77.08 54.7209 78.76 55.1309 80.57 55.3509C82.38 55.5509 84.11 55.5309 85.68 55.4009C87.25 55.2409 88.65 54.9709 89.79 54.6409C92.09 54.0009 93.42 53.3009 93.46 53.4009C93.48 53.4309 93.15 53.6209 92.55 53.9309C92.25 54.0909 91.88 54.2709 91.43 54.4409C90.98 54.6109 90.48 54.8409 89.89 55.0009C88.74 55.3809 87.32 55.6909 85.72 55.8809C84.12 56.0409 82.35 56.0709 80.5 55.8709C78.66 55.6509 76.93 55.2109 75.42 54.6909C73.91 54.1409 72.6 53.5209 71.56 52.8809C71.03 52.5909 70.59 52.2609 70.19 51.9909C69.79 51.7209 69.47 51.4609 69.21 51.2409C68.71 50.8109 68.44 50.5609 68.46 50.5309Z" fill="#455A64"/>
<path d="M94.3003 62.0412C94.3103 62.0712 93.9203 62.2012 93.2103 62.3812C92.5003 62.5612 91.4603 62.7912 90.1703 63.0212C87.6003 63.4612 83.9103 63.8912 79.9303 63.0812C75.9403 62.2512 72.7603 60.0812 71.0803 58.0312C70.2303 57.0112 69.6903 56.0712 69.4003 55.3912C69.1103 54.7112 69.0103 54.3112 69.0303 54.3112C69.1403 54.2512 69.6103 55.8612 71.3503 57.7912C73.0503 59.7212 76.1603 61.7712 80.0303 62.5712C83.9103 63.3612 87.5403 63.0012 90.1103 62.6612C91.4003 62.4812 92.4403 62.3012 93.1603 62.1912C93.8903 62.0612 94.2903 62.0012 94.3003 62.0412Z" fill="#455A64"/>
<path d="M58.69 123.241C58.68 123.251 58.64 123.201 58.56 123.101C58.48 123.001 58.35 122.861 58.22 122.651C57.95 122.241 57.61 121.581 57.42 120.651C57.03 118.831 57.44 115.851 59.62 113.221C60.7 111.921 62.16 110.761 63.8 109.691C65.44 108.611 67.28 107.611 69.09 106.401C70.88 105.181 72.68 103.691 73.91 101.701C74.52 100.711 74.95 99.5812 75.11 98.4012C75.28 97.2112 75.18 95.9812 74.92 94.7612C74.37 92.3212 73.28 90.0912 72.39 87.8612C71.47 85.6512 70.75 83.3712 70.7 81.1312C70.52 76.6312 72.19 72.7512 74.13 70.0512C76.09 67.3012 78.38 65.7012 80.03 64.8512C80.44 64.6512 80.82 64.4712 81.15 64.3112C81.48 64.2012 81.76 64.1012 82.01 64.0112C82.48 63.8512 82.72 63.7812 82.73 63.8012C82.74 63.8212 82.5 63.9212 82.05 64.1112C81.81 64.2112 81.53 64.3212 81.22 64.4512C80.9 64.6212 80.54 64.8112 80.13 65.0212C78.53 65.9212 76.32 67.5312 74.44 70.2512C72.58 72.9212 70.98 76.7412 71.19 81.1012C71.26 83.2712 71.95 85.4712 72.87 87.6612C73.76 89.8612 74.87 92.1112 75.44 94.6412C75.72 95.9012 75.82 97.2012 75.64 98.4612C75.47 99.7212 75.01 100.921 74.37 101.961C73.07 104.061 71.21 105.561 69.38 106.801C67.53 108.031 65.69 109.001 64.06 110.061C62.42 111.101 60.99 112.221 59.92 113.471C57.78 115.971 57.32 118.851 57.64 120.621C57.94 122.441 58.77 123.201 58.69 123.241Z" fill="#455A64"/>
<path d="M85.3204 123.601C85.3104 123.621 85.1104 123.501 84.7404 123.271C84.4004 123.011 83.8804 122.591 83.4504 121.871C83.0104 121.161 82.6604 120.171 82.5504 118.991C82.4404 117.811 82.5704 116.451 82.9904 115.011C83.8004 112.071 86.2604 109.401 88.1004 106.051C89.0204 104.371 89.6704 102.431 89.6004 100.351C89.5604 98.2806 88.9404 96.1706 87.9904 94.1806C86.0904 90.1606 83.1704 86.9606 81.1504 83.6206C80.1304 81.9606 79.2904 80.2706 78.7904 78.5906C78.2604 76.9106 78.1604 75.2506 78.3004 73.7706C78.5804 70.7806 79.9604 68.6006 81.2104 67.5206C81.8504 66.9906 82.4104 66.6606 82.8104 66.4906C83.2104 66.3306 83.4304 66.2506 83.4304 66.2706C83.4704 66.3406 82.5404 66.5806 81.3404 67.6706C80.1704 68.7606 78.8904 70.9006 78.6604 73.8106C78.5504 75.2506 78.6604 76.8506 79.2004 78.4706C79.7104 80.1006 80.5404 81.7406 81.5504 83.3706C82.5704 85.0106 83.7804 86.6406 85.0204 88.3606C86.2604 90.0706 87.4904 91.9206 88.4504 93.9706C89.4104 96.0106 90.0604 98.1906 90.1004 100.361C90.1604 102.531 89.4604 104.591 88.5104 106.291C86.6004 109.701 84.1504 112.321 83.3304 115.131C82.9104 116.511 82.7504 117.831 82.8304 118.981C82.9104 120.121 83.2204 121.081 83.6104 121.781C84.4304 123.191 85.3904 123.531 85.3204 123.601Z" fill="#455A64"/>
<path d="M124.79 48.531C124.78 48.551 124.65 48.491 124.41 48.371C124.17 48.251 123.83 48.041 123.42 47.741C122.6 47.131 121.53 46.081 120.54 44.531C119.53 43.001 118.68 40.991 117.77 38.791C117.31 37.691 116.82 36.541 116.21 35.411C115.58 34.291 114.88 33.151 114 32.111C110.54 27.841 105.88 25.551 102.44 24.661C98.96 23.751 96.68 23.961 96.69 23.841C96.69 23.811 97.25 23.771 98.26 23.751C99.27 23.791 100.75 23.871 102.53 24.311C104.3 24.741 106.37 25.471 108.45 26.711C110.52 27.941 112.65 29.601 114.4 31.791C115.3 32.861 116.02 34.031 116.65 35.181C117.26 36.341 117.75 37.511 118.2 38.621C119.09 40.841 119.89 42.831 120.84 44.351C121.76 45.891 122.76 46.951 123.53 47.591C124.31 48.231 124.81 48.491 124.79 48.531Z" fill="#455A64"/>
<path d="M138.73 48.4506C138.73 48.4706 138.54 48.4506 138.19 48.3906C137.84 48.3406 137.33 48.2206 136.69 48.0006C135.41 47.5706 133.65 46.6106 131.92 44.9006C130.18 43.2206 128.5 40.8506 126.97 38.0606C125.4 35.3106 123.88 32.1506 121.53 29.4006C119.2 26.6206 116.04 24.9606 113.04 24.1106C110.02 23.2506 107.16 23.0806 104.78 23.0106C102.39 22.9606 100.46 23.0606 99.12 23.1106C98.5 23.1306 97.99 23.1506 97.58 23.1706C97.23 23.1806 97.04 23.1806 97.04 23.1606C97.04 23.1406 97.22 23.1106 97.57 23.0706C97.92 23.0306 98.44 22.9706 99.11 22.9106C100.44 22.8006 102.38 22.6406 104.78 22.6406C107.18 22.6606 110.07 22.8006 113.16 23.6506C116.23 24.4906 119.51 26.2006 121.91 29.0606C124.32 31.8906 125.83 35.0806 127.37 37.8306C128.86 40.6106 130.48 42.9606 132.16 44.6406C133.82 46.3406 135.51 47.3206 136.74 47.8106C138 48.3006 138.74 48.3906 138.73 48.4506Z" fill="#455A64"/>
<path d="M162.35 113.351C162.29 113.331 162.61 112.641 162.94 111.331C163.27 110.031 163.65 108.091 163.54 105.681C163.45 103.291 162.88 100.411 161.41 97.6011C160.68 96.1911 159.71 94.8411 158.55 93.5511C157.39 92.2611 156.07 91.0411 154.73 89.7611C153.39 88.4811 152.09 87.1911 151.02 85.7811C149.94 84.3811 149.06 82.9211 148.35 81.4611C147.64 80.0111 147.11 78.5511 146.74 77.1611C146.35 75.7711 146.11 74.4511 145.99 73.2411C145.72 70.8111 145.86 68.8211 146.05 67.4811C146.13 66.8011 146.25 66.2911 146.33 65.9411C146.41 65.5911 146.46 65.4111 146.47 65.4111C146.52 65.4211 146.37 66.1611 146.25 67.5011C146.13 68.8411 146.05 70.8111 146.36 73.2011C146.51 74.3911 146.77 75.6911 147.16 77.0511C147.54 78.4111 148.08 79.8311 148.79 81.2511C149.49 82.6711 150.37 84.1011 151.43 85.4611C152.48 86.8311 153.76 88.1011 155.09 89.3711C156.43 90.6511 157.76 91.8811 158.93 93.1911C160.11 94.5011 161.1 95.9111 161.84 97.3611C163.33 100.261 163.87 103.211 163.91 105.651C163.97 108.101 163.53 110.061 163.14 111.361C162.94 112.011 162.75 112.511 162.6 112.831C162.44 113.191 162.36 113.361 162.35 113.351Z" fill="#455A64"/>
<path d="M52.8001 47.6605C52.7701 47.6605 52.7901 47.3005 52.9301 46.6805C53.0601 46.0605 53.3601 45.1705 53.9101 44.1605C54.9701 42.1705 57.3601 39.6605 60.8401 38.8105C64.3301 37.9905 67.6001 39.1405 69.4401 40.4405C70.3901 41.0905 71.0501 41.7405 71.4501 42.2405C71.8501 42.7305 72.0301 43.0405 72.0101 43.0605C71.9301 43.1405 71.1301 41.9405 69.2401 40.7505C67.4001 39.5705 64.2701 38.5405 60.9601 39.3205C57.6601 40.1305 55.3301 42.4605 54.2201 44.3505C53.0701 46.2605 52.9101 47.6905 52.8001 47.6605Z" fill="#455A64"/>
<path d="M62.4904 51.8709C62.4304 51.8609 62.4904 50.9909 62.7704 49.6009C63.0604 48.2409 63.5704 46.2209 65.1304 44.5909C66.7604 42.9509 69.0704 42.7509 70.4304 43.2509C71.1204 43.5009 71.6104 43.8909 71.8504 44.2209C72.1004 44.5409 72.1804 44.7509 72.1504 44.7709C72.0704 44.8509 71.6304 43.9809 70.3204 43.6009C69.0604 43.2309 66.9604 43.4909 65.5004 44.9609C64.0604 46.4609 63.5004 48.3709 63.1204 49.7009C62.7604 51.0309 62.5704 51.8809 62.4904 51.8709Z" fill="#455A64"/>
<path d="M75.1903 37.2205C75.3303 37.3105 73.6603 39.5105 72.5603 42.6705C71.4403 45.8205 71.3703 48.5705 71.2003 48.5605C71.0803 48.5805 70.9103 45.7405 72.0703 42.4905C73.2003 39.2405 75.1103 37.1305 75.1903 37.2205Z" fill="#963EEE"/>
<path d="M139.039 84.6826C138.78 84.6826 138.52 84.6711 138.272 84.6479C136.004 84.44 133.939 83.3309 132.766 81.6903C131.953 80.5465 131.254 78.9406 130.509 77.2423C129.832 75.6942 129.133 74.0767 128.298 72.7365C127.767 71.8816 127.406 71.7892 127.113 71.8238C126.684 71.8701 126.334 72.1704 126.21 72.5864C125.906 73.6146 123.051 82.6377 115.988 83.7583C104.908 85.5144 95.2834 80.3848 94.8772 80.1653L94.7531 80.0729L87.9494 73.4991L87.2725 57.2552L136.23 56.7353C142.266 56.4349 146.012 57.1859 147.4 58.9766C149.611 61.8418 150.875 76.8148 145.944 81.6441C143.925 83.6197 141.499 84.6826 139.039 84.6826ZM127.203 70.6685C128.23 70.6685 128.862 71.4888 129.257 72.1242C130.126 73.5337 130.848 75.1858 131.536 76.7686C132.258 78.4092 132.935 79.9573 133.668 81.0087C134.639 82.372 136.444 83.3193 138.362 83.5042C140.732 83.7237 143.157 82.7648 145.166 80.8123C149.51 76.5607 148.472 62.2346 146.509 59.7045C145.865 58.8727 143.688 57.5325 136.286 57.9022L135.993 57.9137L88.4572 58.399L89.0665 72.9792L95.4753 79.1717C96.3328 79.6223 105.574 84.2436 115.819 82.6146C122.205 81.5979 124.845 73.2102 125.127 72.2513C125.387 71.3848 126.12 70.7725 127 70.6801C127.068 70.6685 127.136 70.6685 127.203 70.6685Z" fill="#FAFAFA"/>
<path d="M79.7242 79.0785L79.4422 76.687C79.4196 76.5021 78.9119 72.0888 79.0134 69.3853C79.115 66.5548 86.5956 58.352 87.4531 57.4277L88.2768 58.2249C85.1627 61.5985 80.2094 67.6293 80.153 69.4316C80.0966 70.9681 80.2545 73.1286 80.3899 74.6652C81.0444 73.66 82.0711 72.4932 83.5379 71.9502C85.1401 71.361 86.9003 71.6267 88.7958 72.7473L88.2317 73.7525C86.652 72.8167 85.2078 72.574 83.9328 73.0477C81.6311 73.9027 80.5592 76.8025 80.5479 76.8372L79.7242 79.0785Z" fill="#FAFAFA"/>
<path d="M128.817 67.1669C128.93 67.0514 131.57 69.57 134.819 72.6778C138.069 75.7856 140.72 78.2927 140.608 78.4198C140.551 78.4775 139.829 77.9345 138.701 76.9872C137.572 76.0398 136.049 74.6765 134.424 73.1168C132.8 71.5571 131.367 70.1014 130.351 69.0154C129.336 67.9294 128.749 67.2247 128.817 67.1669Z" fill="#FAFAFA"/>
<path d="M135.372 75.8438C135.462 75.7052 136.85 76.5601 138.373 77.8772C139.885 79.1942 140.923 80.4651 140.811 80.5806C140.698 80.6962 139.479 79.6333 137.99 78.3393C136.5 77.0338 135.271 75.9824 135.372 75.8438Z" fill="#FAFAFA"/>
<path d="M145.144 76.9319C144.963 76.8742 146.317 73.5122 146.588 69.1219C146.904 64.7317 146.001 61.2195 146.182 61.1733C146.25 61.1502 146.566 62.0051 146.836 63.4493C147.118 64.8819 147.31 66.9268 147.164 69.1566C147.017 71.3979 146.554 73.3851 146.092 74.7715C145.629 76.1694 145.212 76.9666 145.144 76.9319Z" fill="#FAFAFA"/>
<path d="M108.305 80.3512C108.338 80.2472 109.41 80.64 111.204 80.7671C112.987 80.9057 115.537 80.6631 117.974 79.4038C120.423 78.1445 122.126 76.192 123.085 74.6554C124.056 73.1073 124.394 71.9866 124.496 72.0213C124.53 72.0328 124.484 72.3217 124.338 72.83C124.191 73.3384 123.909 74.0547 123.446 74.8749C122.555 76.5271 120.806 78.6182 118.245 79.9468C115.672 81.2639 112.998 81.4487 111.17 81.1946C110.245 81.079 109.523 80.8826 109.038 80.6978C108.542 80.5245 108.293 80.3858 108.305 80.3512Z" fill="#FAFAFA"/>
<path d="M97.0997 65.6328C97.19 65.5057 99.4917 67.1579 102.053 69.5378C104.614 71.9178 106.431 74.1014 106.318 74.2053C106.194 74.3209 104.197 72.3337 101.658 69.9769C99.1194 67.62 96.9981 65.7715 97.0997 65.6328Z" fill="#FAFAFA"/>
<path d="M93.4445 64.7641C93.546 64.637 96.175 66.7975 99.2891 69.5818C102.415 72.3662 104.863 74.7346 104.75 74.8501C104.649 74.9772 102.02 72.8167 98.9055 70.0324C95.7801 67.2481 93.3429 64.8912 93.4445 64.7641Z" fill="#FAFAFA"/>
<path d="M132.713 142.846L123.395 132.416L82.3769 129.277L77.1104 137.783L91.492 227.4L85.0101 317.828H138.384L132.713 142.846Z" fill="#963EEE"/>
<g opacity="0.3">
<g opacity="0.3">
<path opacity="0.3" d="M87.4411 296.36C88.859 294.841 91.1884 292.816 93.214 292.714C108.001 292.411 122.99 290.892 137.777 290.588L138.385 317.827L131.194 314.486C130.789 311.347 130.282 307.701 127.446 306.385C125.826 305.676 124.003 305.878 122.281 306.284C116.913 307.296 111.647 308.714 106.279 309.018C100.911 309.321 95.2396 308.613 90.682 305.575C89.1629 304.562 87.6437 303.246 86.9347 301.524C86.1245 299.803 86.2258 297.676 87.4411 296.36Z" fill="black"/>
</g>
</g>
<path d="M123.395 132.418L149.626 149.329L155.095 167.556L160.463 224.364L154.589 282.387L164.716 317.829H138.384L138.283 303.855L135.447 205.529L132.712 142.848L123.395 132.418Z" fill="#E0E0E0"/>
<path d="M137.472 219.097C137.472 219.097 137.675 218.895 137.877 218.388C138.181 217.882 138.586 217.173 139.093 216.262C139.599 215.351 140.004 214.135 140.612 212.718C140.916 212.009 141.118 211.199 141.422 210.389C141.726 209.579 142.03 208.769 142.232 207.756C144.461 200.465 145.878 189.934 145.575 178.289C145.575 177.377 145.473 176.466 145.473 175.656V175.453L145.372 175.352C143.954 174.744 142.638 174.238 141.22 173.631L141.321 174.036C142.739 172.922 144.055 171.808 145.473 170.694L145.575 170.593V170.491C145.777 166.137 144.663 162.188 143.752 158.745C142.739 155.302 141.625 152.365 140.612 149.935C139.599 147.505 138.789 145.581 138.181 144.265C137.877 143.657 137.675 143.151 137.472 142.746C137.27 142.442 137.168 142.239 137.168 142.239C137.168 142.239 137.27 142.442 137.371 142.746C137.574 143.151 137.776 143.657 137.979 144.265C138.586 145.581 139.397 147.505 140.308 149.935C141.22 152.365 142.334 155.302 143.346 158.745C144.359 162.188 145.372 166.137 145.17 170.289L145.271 170.086C143.954 171.099 142.536 172.213 141.118 173.327L140.815 173.631L141.22 173.833C142.536 174.441 143.954 174.947 145.372 175.555L145.17 175.352C145.271 176.263 145.271 177.073 145.271 177.985C145.575 189.529 144.157 200.06 142.03 207.25C141.827 208.161 141.523 208.971 141.22 209.781C140.916 210.591 140.713 211.401 140.409 212.11C139.802 213.528 139.397 214.743 138.89 215.654C138.485 216.566 138.08 217.275 137.776 217.882C137.574 218.794 137.472 219.097 137.472 219.097Z" fill="#263238"/>
<path d="M155.905 256.058C155.905 256.058 156.006 255.754 156.108 255.248C156.209 254.742 156.412 253.932 156.614 253.02C156.817 252.109 157.121 250.894 157.424 249.476C157.728 248.058 158.032 246.539 158.336 244.818C158.64 243.097 158.944 241.173 159.247 239.046C159.551 237.021 159.754 234.793 160.058 232.464C160.463 227.806 160.767 222.642 160.767 217.275C160.767 211.908 160.463 206.743 159.956 202.085C159.653 199.756 159.45 197.529 159.146 195.503C158.842 193.478 158.538 191.554 158.235 189.731C157.931 188.01 157.627 186.39 157.323 185.073C157.019 183.656 156.715 182.542 156.513 181.529C156.31 180.618 156.108 179.909 155.905 179.301C155.804 178.795 155.703 178.491 155.703 178.491C155.703 178.491 155.703 178.795 155.804 179.301C155.905 179.808 156.108 180.618 156.31 181.529C156.513 182.542 156.817 183.656 157.019 185.073C157.323 186.491 157.627 188.01 157.83 189.731C158.133 191.453 158.437 193.377 158.64 195.503C158.944 197.529 159.146 199.756 159.349 202.085C159.754 206.743 160.058 211.908 160.058 217.275C160.058 222.642 159.754 227.806 159.349 232.464C159.146 234.793 158.944 237.021 158.64 239.046C158.437 241.071 158.133 242.995 157.83 244.818C157.526 246.539 157.222 248.16 157.019 249.476C156.817 250.894 156.513 252.008 156.31 253.02C156.108 253.932 156.006 254.742 155.804 255.248C155.905 255.754 155.905 256.058 155.905 256.058Z" fill="#263238"/>
<path d="M149.525 303.55C149.423 303.55 149.828 304.461 150.639 305.879C151.449 307.296 152.664 309.22 154.285 311.043C155.905 312.967 157.424 314.486 158.64 315.6C159.855 316.612 160.665 317.22 160.767 317.22C160.767 317.119 160.058 316.511 158.944 315.397C157.829 314.283 156.209 312.663 154.69 310.739C153.171 308.815 151.854 306.993 151.044 305.676C150.132 304.36 149.626 303.448 149.525 303.55Z" fill="#263238"/>
<g opacity="0.3">
<path opacity="0.3" d="M136.46 255.957C133.726 254.539 130.282 255.248 127.345 256.362C124.408 257.476 121.572 258.994 118.432 258.994C114.179 258.994 108.203 257.374 105.975 253.83C103.747 250.185 101.519 244.716 100.607 240.565C97.2651 224.97 96.4548 211.3 93.1126 195.807C91.2896 187.301 88.9602 177.478 85.8205 169.479C82.7821 161.681 79.9463 153.58 77.5156 145.479C77.9207 163.707 78.3259 182.035 81.1617 200.161C82.9847 211.806 85.8205 223.249 87.3397 234.894C88.6563 244.919 89.0615 254.944 89.3653 264.969L98.8855 276.614L125.016 277.12L138.688 259.501L136.46 255.957Z" fill="black"/>
</g>
<path d="M118.91 226.028C125.9 231.798 142.36 245.458 142.36 245.458L151.58 243.818L123.66 220.328C122.16 219.068 119.94 219.188 118.59 220.608C117.11 222.168 117.25 224.658 118.91 226.028Z" fill="#455A64"/>
<path d="M118.18 223.028L114.56 219.758C113.85 219.118 113.78 218.028 114.39 217.298C115.04 216.528 116.2 216.458 116.94 217.138L120.43 220.328L118.18 223.028Z" fill="#455A64"/>
<path d="M128.96 224.788C129.06 224.888 128.06 226.118 126.71 227.538C125.36 228.958 124.19 230.028 124.09 229.928C123.99 229.828 124.99 228.598 126.34 227.178C127.68 225.758 128.86 224.688 128.96 224.788Z" fill="#263238"/>
<path d="M129.24 236.288C129.2 236.348 128.12 235.668 126.45 234.468C124.78 233.268 122.53 231.528 120.17 229.468C119 228.458 117.81 227.408 117.23 226.088C116.65 224.768 116.75 223.398 117.14 222.418C117.53 221.418 118.16 220.788 118.62 220.428C119.09 220.078 119.4 219.968 119.41 219.998C119.43 220.038 119.16 220.198 118.75 220.588C118.35 220.978 117.8 221.608 117.49 222.548C117.17 223.468 117.13 224.728 117.67 225.898C118.21 227.088 119.33 228.068 120.51 229.088C122.86 231.138 125.07 232.918 126.67 234.188C128.28 235.448 129.29 236.228 129.24 236.288Z" fill="#263238"/>
<path d="M99 265.638C105.63 263.408 112.68 264.908 119.31 262.678C121.53 261.928 123.82 261.148 125.58 259.588C127.69 257.718 128.76 254.968 130.44 252.708C135.46 245.948 144.84 244.548 153.21 243.688C155.17 243.488 157.17 243.288 159.07 243.768C160.98 244.248 162.8 245.558 163.33 247.448C163.87 249.338 162.64 251.698 160.69 251.898C162.52 251.978 163.81 253.838 164.15 255.648C164.49 257.458 164.19 259.328 164.43 261.148C164.77 263.708 166.17 266.098 166.09 268.678C165.98 272.208 163.05 275.118 159.79 276.478C156.53 277.838 152.92 278.018 149.43 278.508C132.26 280.928 119.2 290.678 102.64 298.038" fill="#FFBE9D"/>
<path d="M164.3 258.027C164.87 259.207 166.61 259.467 167.68 258.727C168.75 257.987 169.17 256.527 168.98 255.237C168.79 253.937 168.1 252.777 167.32 251.717C165.91 249.787 164.21 248.097 162.51 246.407L157.19 250.857L164.3 258.027Z" fill="#FFBE9D"/>
<path d="M162.34 252.208C162.33 252.368 159.08 252.108 155.15 252.718C151.21 253.298 148.19 254.508 148.13 254.358C148.11 254.298 148.83 253.918 150.07 253.458C151.31 252.998 153.08 252.498 155.07 252.198C157.07 251.898 158.9 251.858 160.22 251.928C161.54 251.998 162.35 252.148 162.34 252.208Z" fill="#EB996E"/>
<path d="M164.68 262.627C164.65 262.787 161.94 262.227 158.58 262.327C155.21 262.397 152.54 263.087 152.5 262.927C152.45 262.807 155.12 261.877 158.57 261.807C162.01 261.707 164.72 262.507 164.68 262.627Z" fill="#EB996E"/>
<path d="M164.12 259.547C164.04 259.537 164.12 258.767 163.97 257.547C163.82 256.337 163.38 254.657 162.36 253.107C162.15 252.777 161.91 252.467 161.68 252.177L161.53 251.987L161.7 251.827C162.81 250.737 163.12 249.277 163.08 248.307C163.06 247.317 162.78 246.737 162.86 246.707C162.9 246.677 163.29 247.217 163.42 248.277C163.55 249.307 163.29 250.937 162.06 252.187L162.08 251.837C162.33 252.137 162.58 252.457 162.81 252.807C163.89 254.447 164.3 256.237 164.35 257.507C164.39 258.787 164.18 259.557 164.12 259.547Z" fill="#EB996E"/>
<path d="M41.6624 147.808C31.6357 151.656 24.1411 160.263 21.8116 170.795C14.1144 204.616 0.948135 249.678 0.745576 264.26C0.441739 282.791 8.54408 295.448 19.1784 297.777C27.4833 299.6 103.24 295.448 103.24 295.448L106.785 263.855L45.4097 258.184L53.8159 211.299L45.511 146.289L41.6624 147.808Z" fill="#E0E0E0"/>
<path d="M45.511 146.289L62.4247 139.404L81.769 128.974L81.9715 129.581C79.7434 133.328 77.414 140.214 78.3255 144.467L93.2135 222.034L89.8713 278.74L85.0099 317.929H36.1934L53.9172 276.209L45.2072 197.933L45.511 146.289Z" fill="#E0E0E0"/>
<path d="M54.3224 206.541C54.3224 206.541 54.2211 206.744 54.2211 207.047C54.1198 207.452 54.0186 207.959 53.9173 208.566C53.7147 209.984 53.3096 211.807 52.9045 214.136C52.0943 218.895 50.9802 225.376 49.7648 232.464C48.5495 239.553 47.5367 246.033 46.7265 250.793C46.3214 253.122 46.1188 254.944 45.815 256.362C45.7137 256.97 45.6124 257.476 45.6124 257.881C45.6124 258.185 45.5111 258.387 45.6124 258.387C45.6124 258.387 45.7137 258.185 45.7137 257.881C45.815 257.476 45.9162 256.97 46.0175 256.362C46.3214 254.944 46.6252 253.122 47.0303 250.793C47.8405 246.135 49.0559 239.654 50.2712 232.464C51.4866 225.275 52.6007 218.794 53.3096 214.136C53.6135 211.807 53.9173 209.984 54.1199 208.566C54.2211 207.959 54.2211 207.452 54.3224 207.047C54.3224 206.744 54.3224 206.541 54.3224 206.541Z" fill="#263238"/>
<path d="M72.5525 134.442C72.5525 134.442 72.5525 134.544 72.4512 134.645C72.4512 134.847 72.3499 134.949 72.2486 135.252C72.1474 135.759 71.9448 136.468 71.7423 137.48C71.3371 139.404 70.8307 142.24 70.4256 145.784C70.0205 149.328 69.9192 153.682 70.1218 158.543C70.3243 163.403 70.8307 168.77 71.5397 174.441V174.643H71.7423C73.464 174.947 75.3883 175.352 77.3126 175.656L77.1101 175.352C76.8062 176.162 76.5024 177.074 76.1985 178.086C74.3755 184.668 75.1857 191.352 76.8062 196.921C78.528 202.491 81.0599 207.149 83.2881 210.997C85.6175 214.743 87.7444 217.68 89.1623 219.604C89.8712 220.617 90.4789 221.325 90.884 221.933C91.0866 222.135 91.1879 222.338 91.2891 222.541C91.3904 222.642 91.4917 222.743 91.4917 222.743C91.4917 222.743 91.4917 222.642 91.3904 222.541C91.2891 222.338 91.1879 222.135 90.9853 221.933C90.5802 221.325 90.0738 220.617 89.3648 219.604C87.9469 217.579 85.9213 214.642 83.6932 210.895C81.4651 207.149 78.9331 202.491 77.3126 196.921C75.6921 191.352 74.9832 184.871 76.7049 178.39C76.9075 177.479 77.3126 176.567 77.6164 175.757L77.7177 175.454L77.4139 175.352C75.4896 175.049 73.6666 174.643 71.8435 174.34L72.0461 174.542C71.3371 168.872 70.7295 163.505 70.6282 158.745C70.4256 153.885 70.5269 149.632 70.8307 146.088C71.1346 142.543 71.641 139.708 71.9448 137.784C72.1474 136.771 72.3499 136.063 72.4512 135.556C72.4512 135.354 72.5525 135.151 72.5525 134.949C72.5525 134.442 72.5525 134.442 72.5525 134.442Z" fill="#263238"/>
<path d="M72.5524 214.034V201.68C72.5524 201.68 72.3499 198.642 74.9831 199.249C77.5151 199.857 77.11 204.717 77.11 204.717C77.11 204.717 77.6164 223.552 76.5023 223.35C75.3882 223.147 74.9831 221.729 74.9831 221.729V214.439L72.5524 214.034Z" fill="#963EEE"/>
<path d="M61.918 214.743C61.918 214.844 64.8551 215.047 68.5011 215.047C72.1472 215.047 75.0843 214.946 75.0843 214.743C75.0843 214.541 72.1472 214.439 68.5011 214.439C64.8551 214.541 61.918 214.642 61.918 214.743Z" fill="#263238"/>
<path d="M37.4082 155.201C37.4082 155.201 37.9146 155.404 38.8261 155.707C39.7376 156.011 40.953 156.518 42.4722 157.328C45.5105 158.847 49.3591 161.581 52.3975 165.834C53.2078 166.846 53.8154 167.96 54.3218 168.973C54.8282 170.087 55.2333 171.201 55.5372 172.213C56.1449 174.34 56.3474 176.365 56.55 178.086C56.6513 179.808 56.7525 181.124 56.7525 182.137C56.7525 183.048 56.7525 183.656 56.7525 183.656C56.7525 183.656 56.8538 183.15 56.9551 182.137C56.9551 181.226 57.0564 179.808 56.9551 178.086C56.8538 176.365 56.6513 174.34 56.0436 172.112C55.7397 170.998 55.3346 169.884 54.8282 168.77C54.3218 167.656 53.6129 166.543 52.8026 165.53C49.663 161.277 45.7131 158.442 42.5734 157.024C41.0543 156.315 39.7376 155.809 38.8261 155.606C37.9146 155.302 37.4082 155.201 37.4082 155.201Z" fill="#263238"/>
<path d="M103.24 295.45C103.24 295.45 103.24 295.247 103.24 294.842C103.24 294.437 103.342 293.829 103.443 293.121C103.645 291.602 103.848 289.374 104.152 286.64C104.759 281.07 105.671 273.172 106.684 263.856L106.886 264.16C99.9994 263.552 92.3021 262.944 84.0985 262.236C69.1092 260.919 55.4365 259.704 45.6124 258.894C40.6498 258.388 36.8012 259.907 34.3705 261.122C33.1551 261.729 32.2436 262.337 31.6359 262.843C31.3321 263.046 31.1295 263.248 31.0282 263.349C30.927 263.451 30.8257 263.552 30.8257 263.552C30.8257 263.552 31.8385 262.438 34.2692 261.02C36.6999 259.704 40.6498 258.185 45.6124 258.59C55.5378 259.4 69.1092 260.514 84.0985 261.83C92.3021 262.539 99.9994 263.248 106.886 263.856H107.089V264.058C105.975 273.374 105.063 281.273 104.456 286.842C104.152 289.576 103.848 291.804 103.645 293.323C103.544 294.032 103.443 294.64 103.443 295.045C103.342 295.247 103.24 295.45 103.24 295.45Z" fill="#263238"/>
<path d="M86.7314 296.259C86.7314 296.259 86.6301 295.753 86.5288 294.943C86.4276 294.031 86.3263 292.816 86.3263 291.297C86.225 288.158 86.225 283.905 86.6301 279.247C87.0352 274.488 87.7442 270.336 88.4532 267.298C88.757 265.779 89.0608 264.564 89.3647 263.754C89.5672 262.944 89.7698 262.438 89.7698 262.438C89.7698 262.438 89.7698 262.944 89.5672 263.754C89.3647 264.665 89.1621 265.88 88.8583 267.298C88.2506 270.336 87.6429 274.589 87.2378 279.247C86.8327 283.905 86.7314 288.158 86.7314 291.297C86.7314 292.715 86.7314 294.031 86.8327 294.943C86.8327 295.854 86.8327 296.259 86.7314 296.259Z" fill="#263238"/>
<path d="M95.4413 286.438C95.4413 286.438 95.7452 286.337 96.1503 286.337C96.6567 286.337 97.3656 286.539 98.0746 287.046C98.7835 287.552 99.4925 288.565 99.3912 289.881C99.2899 291.096 98.581 292.413 97.2644 293.02C95.8464 293.527 94.4285 293.02 93.6183 292.109C92.7068 291.197 92.6055 289.982 92.9093 289.071C93.1119 288.16 93.7196 287.653 94.1247 287.35C94.5298 287.046 94.8337 287.046 94.8337 287.046C94.8337 287.046 94.6311 287.248 94.226 287.552C93.9221 287.856 93.517 288.463 93.3145 289.172C93.1119 289.982 93.2132 290.995 94.0234 291.704C94.7324 292.413 96.049 292.818 97.1631 292.413C98.2771 292.008 98.9861 290.792 98.9861 289.78C99.0874 288.666 98.4797 287.856 97.872 287.35C97.2644 286.843 96.5554 286.641 96.1503 286.539C95.7452 286.438 95.4413 286.438 95.4413 286.438Z" fill="#263238"/>
<path d="M82.0727 128.671C82.0727 128.671 81.9714 128.772 81.7688 128.873C81.5663 128.975 81.2624 129.177 80.756 129.38C79.8445 129.886 78.6292 130.595 76.9074 131.506C73.5652 133.329 68.7038 136.063 62.4245 139.506C55.7401 142.341 47.5365 145.784 38.1175 149.733C33.3574 151.556 29.0024 155.1 25.8627 159.86C24.2423 162.189 23.0269 164.822 22.0141 167.657C21.0013 170.492 20.2924 173.429 19.8873 176.568C15.431 195.808 10.2657 217.883 5.30305 241.376C4.29026 246.439 3.27746 251.401 2.26467 256.363C2.06211 257.578 1.85955 258.793 1.55572 260.008C1.35316 261.223 1.04932 262.438 0.948042 263.654C0.644204 266.084 0.441646 268.514 0.542925 270.944C0.745484 275.805 1.85955 280.463 3.78386 284.716C4.79665 286.843 5.91072 288.767 7.42991 290.488C8.84782 292.209 10.5696 293.728 12.4939 294.842C16.2412 297.171 20.6975 298.083 24.8499 297.88C29.1037 297.779 33.1548 297.678 37.206 297.678C45.1058 297.475 52.6004 297.273 59.2849 297.07C72.755 296.564 83.6931 296.159 91.2891 295.855C95.0364 295.754 97.9735 295.551 99.9991 295.551C101.012 295.551 101.721 295.45 102.227 295.45C102.734 295.45 103.037 295.45 103.037 295.45C103.037 295.45 102.734 295.45 102.227 295.551C101.721 295.551 100.911 295.652 99.9991 295.652C97.9735 295.754 95.0364 295.855 91.2891 296.057C83.6931 296.361 72.755 296.868 59.2849 297.374C52.4991 297.576 45.1058 297.88 37.206 298.083C33.2561 298.184 29.1037 298.285 24.8499 298.386C20.5962 298.589 16.1399 297.678 12.19 295.349C10.2657 294.133 8.4427 292.716 7.02479 290.893C5.50561 289.07 4.29026 287.146 3.27746 284.919C1.25188 280.666 0.239088 275.906 0.0365294 270.944C-0.0647498 268.514 0.0365294 265.983 0.441646 263.552C0.644204 262.337 0.846763 261.122 1.04932 259.907C1.25188 258.692 1.45444 257.476 1.75828 256.261C2.66979 251.299 3.68258 246.338 4.79665 241.275C9.75933 217.782 14.8233 195.707 19.3809 176.467C19.786 173.328 20.4949 170.29 21.5077 167.454C22.5205 164.619 23.8371 161.885 25.4576 159.556C28.5973 154.797 33.1548 151.151 37.9149 149.328C47.3339 145.379 55.5375 142.038 62.3232 139.202C68.6025 135.861 73.4639 133.126 76.8062 131.304C78.4266 130.392 79.7433 129.684 80.6548 129.278C81.0599 129.076 81.3637 128.873 81.6676 128.772C81.9714 128.671 82.0727 128.671 82.0727 128.671Z" fill="#263238"/>
<path d="M152.5 265.878C152.32 266.198 105.43 289.318 105.43 289.318V294.288L153.28 269.398L212.66 267.158V263.638L152.5 265.878Z" fill="#F5F5F5"/>
<path d="M105.43 295.008C105.76 294.788 157.2 290.148 157.2 290.148L212.66 267.158L153.28 269.398L105.43 294.288V295.008Z" fill="#263238"/>
</svg>
