<svg width="344" height="381" viewBox="0 0 344 381" fill="none" xmlns="http://www.w3.org/2000/svg">
<ellipse cx="179.572" cy="214.648" rx="164.428" ry="165.353" fill="#444444"/>
<path d="M222.459 34.8396C222.575 29.7476 217.962 25.9285 213.234 24.0769C208.505 22.2252 203.316 21.5308 199.164 18.7533C195.474 16.2073 192.937 12.3883 189.823 9.14785C182.211 1.39402 170.218 -1.84638 159.608 1.04684C149.114 3.94006 140.349 12.8512 137.696 23.3825C135.851 30.5577 137.12 39.0059 142.771 43.8665C149.344 49.4215 159.031 48.1484 167.45 46.4125C175.869 44.6766 185.325 42.9406 192.36 47.917C196.627 50.9259 199.049 55.7865 201.586 60.1842C204.123 64.6977 207.352 69.2111 212.311 70.947C217.155 72.6829 223.843 69.674 223.959 64.5819" fill="#263238"/>
<path d="M222.113 37.6173C221.537 41.8993 224.651 45.6026 227.649 48.6115C230.647 51.6205 234.107 54.7452 234.684 59.0271C235.26 64.0035 231.685 68.8641 232.723 73.7247C233.415 76.8494 235.722 79.1639 237.221 81.9414C239.297 85.8762 239.412 90.6211 238.143 94.903C236.875 99.185 234.914 108.675 231.916 111.915C223.728 121.058 210.812 128.927 198.818 131.705C186.94 134.482 174.485 134.482 162.376 133.672C152.343 133.094 140.926 133.556 132.622 119.669C128.355 112.494 126.164 103.004 123.858 95.0188C121.897 88.075 120.167 80.6684 122.243 73.8404C123.396 69.7899 125.818 66.2023 126.971 62.2675C128.471 57.2912 127.894 51.8519 128.471 46.6441C129.739 35.4185 136.659 24.8871 146.576 19.4479C156.494 13.8929 168.949 13.5457 179.213 18.4063" fill="#263238"/>
<path d="M133.314 54.9758C134.237 40.6255 143.808 22.9189 158.109 24.5392L202.739 35.9963C207.121 36.4592 210.35 40.1625 210.235 44.5602L205.276 152.535C205.391 152.535 205.507 152.535 205.622 152.651C205.622 152.651 195.473 183.088 165.951 173.829C160.069 171.978 157.417 165.613 156.263 159.016H155.917C155.917 158.206 155.917 157.512 155.917 156.701C154.995 149.063 155.687 141.888 155.687 141.888C155.571 133.208 155.571 129.621 155.571 129.737C155.571 129.737 137.235 126.612 133.545 102.656C131.584 90.5045 132.276 70.9464 133.314 54.9758Z" fill="#FFBE9D"/>
<path d="M140.464 69.444C140.348 71.0642 141.732 72.4529 143.462 72.5687C145.192 72.6844 146.576 71.4114 146.576 69.7912C146.691 68.171 145.307 66.7822 143.577 66.6665C141.963 66.5508 140.579 67.8238 140.464 69.444Z" fill="#263238"/>
<path d="M137.466 65.1618C137.811 65.509 140.118 63.8888 143.462 63.8888C146.807 63.8888 149.229 65.509 149.575 65.1618C149.805 64.9303 149.344 64.236 148.306 63.5416C147.268 62.7315 145.538 62.0371 143.462 62.0371C141.387 62.0371 139.657 62.8472 138.734 63.5416C137.696 64.236 137.35 64.9303 137.466 65.1618Z" fill="#263238"/>
<path d="M172.87 69.443C172.755 71.0632 174.139 72.452 175.868 72.5677C177.598 72.6834 178.982 71.4104 178.982 69.7902C179.097 68.17 177.714 66.7812 175.984 66.6655C174.369 66.5498 172.985 67.8228 172.87 69.443Z" fill="#263238"/>
<path d="M169.986 65.8561C170.332 66.2033 172.639 64.5831 175.983 64.5831C179.328 64.5831 181.749 66.2033 182.095 65.8561C182.326 65.6247 181.865 64.9303 180.827 64.2359C179.789 63.4258 178.059 62.7314 175.983 62.7314C173.907 62.7314 172.178 63.5415 171.255 64.2359C170.102 64.9303 169.756 65.6247 169.986 65.8561Z" fill="#263238"/>
<path d="M157.878 90.3905C157.878 90.1591 155.802 89.8119 152.573 89.4647C151.765 89.3489 150.958 89.2332 150.843 88.6546C150.612 88.0759 150.958 87.1501 151.42 86.1085C152.227 84.0254 153.034 81.9423 153.957 79.6277C157.416 70.4852 159.953 62.9628 159.607 62.8471C159.262 62.7313 156.148 70.0222 152.688 79.1648C151.881 81.4794 151.074 83.5625 150.266 85.6456C149.92 86.5715 149.344 87.7287 149.805 89.0018C150.036 89.5804 150.612 90.0433 151.189 90.2748C151.765 90.3905 152.227 90.5062 152.573 90.5062C155.802 90.5062 157.878 90.5062 157.878 90.3905Z" fill="#263238"/>
<path d="M155.571 129.507C155.571 129.507 171.601 130.548 187.631 121.059C187.631 121.059 179.559 137.608 155.687 135.293L155.571 129.507Z" fill="#EB996E"/>
<path d="M159.262 98.3764C160.415 96.7562 162.491 95.9461 164.567 96.1776C165.95 96.2933 167.45 96.9877 168.257 98.2607C169.179 99.418 169.295 101.038 168.488 102.195C167.565 103.468 165.72 103.7 164.105 103.237C162.491 102.774 161.222 101.733 159.838 100.691C159.492 100.46 159.146 100.112 158.916 99.7652C158.685 99.418 158.685 98.8393 158.916 98.4921" fill="#EB996E"/>
<path d="M167.565 92.7051C166.989 92.7051 166.989 96.2927 163.99 98.8387C160.876 101.385 157.071 100.922 157.071 101.5C157.071 101.732 157.878 102.195 159.493 102.195C161.107 102.311 163.414 101.732 165.259 100.227C167.104 98.723 167.911 96.6399 168.027 95.1354C168.257 93.5152 167.911 92.7051 167.565 92.7051Z" fill="#263238"/>
<path d="M168.487 60.0692C168.833 60.995 172.063 60.5321 175.984 60.995C179.905 61.3422 183.018 62.4995 183.48 61.6894C183.71 61.3422 183.134 60.4164 181.865 59.6063C180.596 58.6805 178.636 57.8704 176.329 57.6389C174.023 57.4074 171.832 57.7546 170.448 58.3333C169.064 58.9119 168.372 59.6063 168.487 60.0692Z" fill="#263238"/>
<path d="M138.734 55.5554C139.311 56.3655 141.617 55.5554 144.27 55.5554C147.038 55.4396 149.344 56.0183 149.805 55.3239C150.036 54.9767 149.69 54.1666 148.652 53.4722C147.614 52.7779 146 52.1992 144.154 52.1992C142.309 52.1992 140.695 52.8936 139.657 53.7037C138.85 54.3981 138.504 55.2082 138.734 55.5554Z" fill="#263238"/>
<path d="M219.345 114.808C212.771 116.081 205.621 114.113 200.663 109.484C195.704 104.855 193.166 97.9114 194.089 91.1991C194.781 85.2969 198.01 79.279 195.934 73.7241C193.282 66.3174 182.903 64.1186 180.25 56.7119C178.636 52.43 180.135 47.4536 178.29 43.2874C176.56 39.3526 172.524 37.038 168.487 35.6493C164.451 34.1448 160.184 33.219 156.724 30.5572C153.38 27.8955 151.189 22.9191 153.38 19.2158C171.255 21.4147 188.784 25.6966 205.621 31.946C209.542 33.4505 213.579 35.1864 215.885 38.6583C218.307 42.3616 218.192 47.1065 217.961 51.5041C216.923 73.0297 216.001 94.5552 214.963 116.081" fill="#263238"/>
<path d="M217.846 123.025C217.846 123.025 217.961 122.909 218.192 122.793C218.538 122.562 218.884 122.33 219.23 121.983C220.153 121.289 221.536 120.132 223.151 118.743C224.766 117.238 226.841 115.387 228.802 112.841C230.762 110.295 232.608 107.054 233.299 103.004C233.991 99.0689 233.53 94.0926 230.186 90.3893C228.571 88.5376 226.495 87.1489 224.65 85.6444C222.69 84.1399 221.191 82.1725 220.268 79.7422C218.538 74.8816 219.345 69.2109 218.653 63.4245C217.846 57.638 215.886 51.7359 211.849 46.8753C209.889 44.445 207.467 42.4776 204.815 41.0888C202.047 39.7001 199.164 39.0057 196.396 38.3113C193.628 37.5012 191.091 36.4597 189.015 34.7237C186.939 32.9878 185.21 30.9047 183.71 28.8216C180.712 24.5396 178.521 20.0262 175.638 16.2071C174.254 14.3555 172.639 12.6195 170.909 11.2308C169.179 9.84205 167.219 8.80049 165.374 8.22185C161.568 6.94883 157.416 7.29602 154.764 9.26341C152.112 11.2308 151.189 14.2397 150.958 16.4386C150.843 18.7532 151.65 20.4891 152.342 21.4149C152.688 21.8778 153.034 22.225 153.265 22.3408C153.495 22.5722 153.611 22.5722 153.611 22.5722C153.611 22.5722 153.495 22.4565 153.265 22.225C153.034 21.9936 152.688 21.7621 152.342 21.2992C151.65 20.3734 150.958 18.7532 151.189 16.5543C151.42 14.4712 152.342 11.6937 154.879 9.84205C157.416 8.10612 161.222 7.64321 164.913 9.03195C166.758 9.6106 168.603 10.6522 170.217 12.0409C171.832 13.4296 173.331 15.0498 174.715 16.9015C177.483 20.6048 179.674 25.234 182.672 29.6317C184.172 31.8305 186.017 33.9136 188.208 35.7653C190.399 37.617 193.052 38.7742 195.935 39.5843C198.702 40.3944 201.585 40.9731 204.123 42.3618C206.66 43.6348 208.966 45.6022 210.927 47.9168C214.732 52.546 216.693 58.3324 217.5 63.8874C218.192 69.4424 217.385 75.2288 219.23 80.4366C220.153 82.9826 221.882 85.1815 223.843 86.8017C225.803 88.4219 227.879 89.6949 229.378 91.4308C232.492 94.9027 233.069 99.5318 232.377 103.351C231.8 107.286 230.07 110.526 228.225 112.956C226.38 115.502 224.42 117.47 222.805 118.974C221.19 120.479 219.922 121.636 218.999 122.446C218.307 122.678 217.846 123.025 217.846 123.025Z" fill="#455A64"/>
<path d="M222.228 126.032C227.187 121.288 235.491 125.454 239.642 130.893C243.794 136.332 246.677 143.392 252.905 146.169C259.132 148.947 267.32 146.516 272.51 150.914C279.775 156.932 275.739 170.935 283.465 176.143C286.579 178.226 290.731 178.11 293.96 179.846C301.802 183.897 301.686 195.007 300.533 203.686C298.803 215.954 296.958 228.684 290.269 239.099C283.465 249.515 270.318 256.806 258.671 252.755C247.369 248.936 241.603 236.669 237.105 225.675C230.762 210.399 224.42 195.238 218.077 179.962C214.386 171.167 210.696 162.255 209.543 152.766C208.39 143.276 210.004 133.092 216.001 125.685" fill="#263238"/>
<path d="M225.343 115.501C228.918 115.039 231.685 119.436 230.648 122.908C229.725 126.38 226.381 128.695 223.036 129.852C221.191 130.546 219.115 130.893 217.155 130.546C215.194 130.199 213.349 128.81 212.657 126.959C211.965 124.991 212.542 123.603 214.272 122.445C216.578 120.941 217.962 119.783 219.807 118.742C222.69 117.353 222.575 117.122 225.343 115.501Z" fill="#963EEE"/>
<mask id="mask0" mask-type="alpha" maskUnits="userSpaceOnUse" x="15" y="49" width="329" height="332">
<ellipse cx="179.572" cy="214.648" rx="164.428" ry="165.353" fill="#2E2E2E"/>
</mask>
<g mask="url(#mask0)">
<path d="M143.232 154.156L157.07 143.625L209.312 140.269L211.388 147.328L194.435 253.683L207.813 380.637H134.928L143.232 154.156Z" fill="#963EEE"/>
<g opacity="0.3">
<g opacity="0.3">
<path opacity="0.3" d="M199.163 335.618C197.549 333.882 194.781 331.336 192.359 331.336C174.945 330.989 157.07 329.253 139.656 328.79L138.272 380.637C142.424 373.23 146.345 365.592 147.498 357.144C147.96 353.44 148.652 349.043 151.996 347.538C153.841 346.612 156.148 346.959 158.108 347.422C164.451 348.695 170.678 350.316 177.137 350.663C183.595 351.01 190.283 350.084 195.704 346.612C197.549 345.455 199.279 343.835 200.086 341.867C200.778 339.784 200.663 337.238 199.163 335.618Z" fill="black"/>
</g>
</g>
<path d="M154.534 156.238L152.919 141.078C152.689 138.416 154.649 135.986 157.302 135.754L205.392 131.356C206.66 131.241 207.813 132.282 207.813 133.555L208.39 151.609L194.436 175.333L180.136 179.963H162.606L152.573 169.2L154.534 156.238Z" fill="#963EEE"/>
<path d="M201.24 145.939C201.24 145.939 200.548 145.823 199.279 145.707C198.011 145.592 196.281 145.476 194.09 145.592C191.899 145.707 189.246 146.055 186.363 146.749C183.48 147.328 180.366 148.253 177.022 149.063C173.677 149.874 170.564 150.568 167.565 150.799C164.567 151.031 161.914 150.799 159.723 150.221C157.532 149.642 155.917 148.832 154.88 148.138C154.303 147.79 153.957 147.559 153.726 147.328C153.496 147.096 153.38 146.98 153.38 146.98C153.38 146.98 153.957 147.328 154.995 148.022C156.033 148.601 157.763 149.411 159.839 149.874C162.03 150.336 164.682 150.568 167.565 150.221C170.448 149.989 173.677 149.295 176.906 148.485C180.251 147.675 183.365 146.865 186.248 146.286C189.131 145.707 191.783 145.36 194.09 145.244C196.281 145.129 198.126 145.36 199.395 145.476C199.971 145.592 200.432 145.707 200.778 145.707C201.124 145.823 201.24 145.823 201.24 145.939Z" fill="#263238"/>
<g opacity="0.3">
<g opacity="0.3">
<path opacity="0.3" d="M155.686 148.253C154.418 151.84 154.418 156.238 156.955 158.9C159.031 161.099 162.49 161.677 165.489 161.099C168.487 160.52 171.255 158.9 173.907 157.279C180.481 153.345 187.285 149.178 194.781 147.558C195.242 147.443 195.819 147.327 196.165 146.98C196.511 146.632 196.626 145.938 196.165 145.707C195.934 145.591 195.704 145.591 195.588 145.475C188.9 144.781 182.326 146.748 175.753 148.137C169.179 149.641 162.26 150.683 155.917 148.368" fill="black"/>
</g>
</g>
<path d="M164.797 135.291C164.797 135.407 163.874 135.638 163.182 136.911C162.375 138.184 162.49 140.267 162.49 142.466C162.606 146.98 163.298 150.567 163.182 150.567C163.067 150.567 162.836 149.757 162.49 148.253C162.144 146.748 161.914 144.781 161.798 142.466C161.798 141.309 161.798 140.267 161.914 139.226C162.029 138.184 162.26 137.258 162.721 136.68C163.182 135.985 163.644 135.638 164.105 135.522C164.566 135.175 164.797 135.175 164.797 135.291Z" fill="#263238"/>
<path d="M177.598 148.485C177.367 148.485 177.828 145.129 177.252 141.079C176.675 137.028 175.407 134.019 175.522 133.903C175.637 133.903 175.983 134.598 176.56 135.871C177.021 137.144 177.598 138.995 177.828 140.963C178.174 143.046 178.059 144.898 177.944 146.286C177.828 147.675 177.598 148.485 177.598 148.485Z" fill="#263238"/>
<path d="M193.051 132.629C193.167 132.629 193.513 133.208 193.974 134.365C194.435 135.522 194.781 137.258 194.551 139.225C194.435 141.193 193.859 142.813 193.282 143.97C192.705 145.128 192.244 145.706 192.129 145.591C191.898 145.475 193.743 142.929 193.974 139.225C194.32 135.522 192.821 132.745 193.051 132.629Z" fill="#263238"/>
<path d="M125.587 160.983C125.587 160.983 109.211 171.978 104.828 191.883C101.484 207.506 92.2582 290.252 92.2582 290.252L75.9976 321.962L86.6073 347.307C95.7179 348.001 104.713 345.339 112.094 340.016L119.244 334.808L132.276 315.366L125.587 160.983Z" fill="#EBEBEB"/>
<path d="M153.38 146.401L125.587 160.983L119.014 182.624L113.248 245.349L124.203 318.837L104.944 380.405L138.158 380.752L138.965 344.645L142.309 227.759L145.538 153.229L153.38 146.401Z" fill="#EBEBEB"/>
<path d="M139.887 243.846C139.887 243.846 139.656 243.498 139.426 242.92C139.08 242.341 138.618 241.415 138.042 240.374C137.465 239.216 136.888 237.828 136.197 236.208C135.851 235.397 135.62 234.472 135.274 233.546C134.928 232.62 134.582 231.578 134.236 230.421C131.584 221.741 129.854 209.243 130.2 195.471C130.2 194.429 130.315 193.388 130.315 192.346V192.115L130.43 191.999C132.045 191.305 133.659 190.61 135.274 189.916L135.159 190.379C133.544 188.99 131.814 187.717 130.315 186.444L130.2 186.328V186.213C129.969 181.005 131.238 176.376 132.391 172.21C133.659 168.159 134.928 164.571 136.081 161.678C137.234 158.785 138.272 156.586 138.964 154.966C139.31 154.156 139.656 153.577 139.772 153.23C140.002 152.883 140.118 152.651 140.118 152.651C140.118 152.651 140.002 152.883 139.887 153.23C139.656 153.693 139.426 154.272 139.08 154.966C138.388 156.47 137.465 158.785 136.312 161.678C135.159 164.571 133.89 168.159 132.737 172.21C131.584 176.26 130.43 180.889 130.661 185.981L130.546 185.75C132.16 187.023 133.775 188.296 135.389 189.685L135.735 190.032L135.274 190.263C133.659 190.958 132.045 191.652 130.43 192.346L130.661 192.115C130.546 193.156 130.546 194.198 130.546 195.24C130.2 209.011 131.814 221.394 134.351 230.074C134.582 231.115 134.928 232.157 135.274 233.083C135.62 234.009 135.851 234.935 136.197 235.745C136.888 237.365 137.465 238.869 137.926 240.027C138.503 241.068 138.849 241.994 139.195 242.573C139.772 243.498 140.002 243.846 139.887 243.846Z" fill="#263238"/>
<path d="M118.091 287.706C118.091 287.706 117.975 287.359 117.86 286.78C117.745 286.086 117.514 285.276 117.168 284.118C116.938 282.961 116.592 281.572 116.246 279.952C115.9 278.332 115.554 276.48 115.208 274.397C114.862 272.314 114.4 270 114.17 267.569C113.824 265.139 113.593 262.477 113.247 259.7C112.786 254.145 112.44 248.011 112.44 241.646C112.44 235.165 112.786 229.032 113.363 223.592C113.709 220.815 113.939 218.153 114.285 215.723C114.631 213.292 114.977 210.978 115.323 208.895C115.669 206.812 116.13 204.96 116.476 203.34C116.822 201.72 117.168 200.331 117.399 199.174C117.63 198.132 117.86 197.206 118.091 196.512C118.206 195.933 118.321 195.586 118.321 195.586C118.321 195.586 118.321 195.933 118.206 196.512C118.091 197.206 117.86 198.016 117.63 199.174C117.399 200.331 117.053 201.72 116.822 203.34C116.476 204.96 116.13 206.812 115.784 208.895C115.438 210.978 115.092 213.292 114.746 215.723C114.4 218.153 114.17 220.815 113.824 223.592C113.363 229.147 113.017 235.281 113.017 241.646C113.017 248.011 113.363 254.145 113.824 259.7C114.054 262.477 114.285 265.139 114.631 267.569C114.977 270 115.323 272.314 115.669 274.397C116.015 276.48 116.361 278.332 116.707 279.952C117.053 281.572 117.284 282.961 117.514 284.118C117.745 285.276 117.975 286.086 118.091 286.78C118.091 287.359 118.091 287.706 118.091 287.706Z" fill="#263238"/>
<path d="M125.587 344.184C125.702 344.184 125.241 345.341 124.203 346.961C123.28 348.581 121.781 350.896 119.936 353.21C118.091 355.525 116.13 357.377 114.746 358.65C113.247 359.923 112.325 360.617 112.325 360.501C112.209 360.386 113.132 359.691 114.516 358.302C115.9 357.029 117.745 355.062 119.59 352.863C121.435 350.664 122.934 348.466 123.972 346.845C125.01 345.225 125.587 344.184 125.587 344.184Z" fill="#263238"/>
<path d="M253.366 159.247C265.244 163.876 274.009 174.06 276.892 186.559C286.002 226.832 301.571 280.299 301.802 297.543C302.148 319.531 292.576 334.576 280.006 337.353C270.088 339.552 180.481 334.576 180.481 334.576L176.33 301.014L248.984 290.252L239.066 234.47L248.868 157.279L253.366 159.247Z" fill="#EBEBEB"/>
<path d="M248.753 157.395L228.686 149.178L207.582 136.68L207.467 140.267C210.004 144.665 210.927 149.988 210.004 155.081L192.359 247.316L196.396 314.671L204.584 380.636H268.242L238.95 311.662L249.214 218.616L248.753 157.395Z" fill="#EBEBEB"/>
<path d="M267.435 337.932C267.435 337.932 267.32 337.932 266.974 338.048C266.628 338.048 266.282 338.164 265.705 338.164C264.552 338.279 262.937 338.279 260.746 338.279C256.479 338.279 250.136 338.164 242.41 337.932C226.841 337.354 205.045 336.312 180.596 334.923H180.366V334.692C179.904 330.641 179.328 326.475 178.751 322.193C177.828 314.902 177.021 307.958 176.099 301.13V300.899H176.329C198.471 297.659 217.846 294.881 231.8 292.798C238.719 291.872 244.255 291.062 248.061 290.483C249.906 290.252 251.405 290.021 252.443 289.905C252.904 289.789 253.25 289.789 253.596 289.789C253.827 289.789 253.942 289.789 253.942 289.789C253.942 289.789 253.827 289.789 253.596 289.905C253.366 289.905 252.904 290.021 252.443 290.136C251.405 290.252 249.906 290.483 248.061 290.831C244.255 291.409 238.719 292.219 231.8 293.377C217.961 295.46 198.587 298.353 176.445 301.709L176.675 301.362C177.483 308.074 178.405 315.134 179.328 322.425C179.904 326.707 180.366 330.873 180.942 334.923L180.712 334.692C205.276 336.081 226.956 337.238 242.525 337.932C250.367 338.279 256.595 338.395 260.862 338.511C263.053 338.511 264.667 338.511 265.821 338.395C266.397 338.395 266.743 338.395 267.089 338.279C267.204 337.932 267.32 337.932 267.435 337.932Z" fill="#263238"/>
<path d="M238.374 229.031C238.374 229.031 238.489 229.263 238.489 229.61C238.604 230.073 238.72 230.651 238.835 231.346C239.181 232.966 239.527 235.165 239.988 237.942C240.911 243.613 242.295 251.251 243.794 259.699C245.178 268.148 246.446 275.786 247.369 281.456C247.83 284.234 248.176 286.433 248.407 288.053C248.522 288.747 248.637 289.326 248.637 289.905C248.637 290.368 248.753 290.483 248.637 290.483C248.637 290.483 248.522 290.252 248.522 289.905C248.407 289.442 248.291 288.863 248.176 288.169C247.83 286.548 247.484 284.35 246.908 281.572C245.87 276.017 244.601 268.263 243.102 259.815C241.603 251.367 240.334 243.613 239.527 238.058C239.066 235.281 238.72 233.082 238.489 231.462C238.374 230.767 238.258 230.189 238.258 229.61C238.374 229.147 238.374 229.031 238.374 229.031Z" fill="#263238"/>
<path d="M216.808 143.277C216.808 143.277 216.808 143.393 216.923 143.509C216.923 143.74 217.039 143.856 217.154 144.203C217.269 144.782 217.615 145.708 217.846 146.865C218.307 149.18 218.999 152.536 219.345 156.818C219.806 161.1 219.922 166.192 219.691 171.978C219.46 177.765 218.884 184.13 218.076 190.842V191.073H217.846C215.77 191.421 213.579 191.883 211.272 192.346L211.503 191.883C211.849 192.925 212.31 193.967 212.541 195.124C214.732 202.993 213.694 210.863 211.849 217.459C209.888 224.172 206.89 229.611 204.122 234.124C201.354 238.638 198.933 241.994 197.203 244.424C196.396 245.582 195.704 246.507 195.242 247.086C195.012 247.317 194.896 247.549 194.666 247.78C194.55 247.896 194.435 248.012 194.435 248.012C194.435 248.012 194.435 247.896 194.55 247.78C194.666 247.549 194.781 247.317 195.012 247.086C195.473 246.392 196.05 245.466 196.857 244.309C198.471 241.878 200.893 238.406 203.546 234.009C206.198 229.495 209.196 224.056 211.042 217.459C212.887 210.863 213.809 203.109 211.734 195.471C211.388 194.314 211.042 193.272 210.696 192.346L210.58 191.999L210.926 191.883C213.233 191.421 215.424 191.073 217.5 190.726L217.269 190.958C218.192 184.245 218.768 177.88 218.999 172.094C219.23 166.307 219.114 161.215 218.768 157.049C218.422 152.767 217.846 149.411 217.384 147.096C217.154 145.939 216.923 145.013 216.808 144.435C216.808 144.203 216.693 143.972 216.693 143.74C216.808 143.277 216.808 143.277 216.808 143.277Z" fill="#263238"/>
<path d="M216.808 237.826V223.129C216.808 223.129 217.038 219.541 213.925 220.236C210.926 221.046 211.503 226.717 211.503 226.717C211.503 226.717 210.926 249.052 212.31 248.821C213.694 248.589 214.155 246.853 214.155 246.853V238.289L216.808 237.826Z" fill="#963EEE"/>
<path d="M229.494 238.753C229.494 238.869 226.034 239.101 221.652 239.101C217.269 239.101 213.81 238.985 213.81 238.753C213.81 238.522 217.269 238.406 221.652 238.406C225.919 238.406 229.494 238.522 229.494 238.753Z" fill="#263238"/>
<path d="M258.44 167.927C258.44 167.927 257.863 168.158 256.825 168.505C255.787 168.853 254.288 169.431 252.443 170.357C248.868 172.209 244.255 175.449 240.68 180.425C239.757 181.698 238.95 182.971 238.373 184.245C237.797 185.518 237.336 186.906 236.99 188.179C236.298 190.725 235.952 193.156 235.836 195.123C235.721 197.09 235.606 198.711 235.606 199.868C235.606 201.025 235.606 201.604 235.606 201.604C235.606 201.604 235.49 201.025 235.375 199.868C235.26 198.711 235.26 197.09 235.375 195.007C235.49 192.924 235.721 190.61 236.413 187.948C236.759 186.675 237.22 185.286 237.797 183.897C238.489 182.509 239.181 181.236 240.103 179.963C243.794 174.87 248.522 171.63 252.212 169.894C254.058 168.968 255.557 168.505 256.71 168.158C257.863 168.042 258.44 167.927 258.44 167.927Z" fill="#263238"/>
</g>
<path d="M0 290.253L104.945 329.254L193.283 342.794L88.2227 291.294L0 290.253Z" fill="#263238"/>
<path d="M44.8614 332.261C44.0541 326.706 42.0936 321.267 39.3258 316.291C38.7492 315.365 38.1726 314.323 37.9419 313.282C37.7113 312.24 37.8266 310.967 38.5186 310.157C39.9024 308.653 42.3242 309.347 43.9388 310.504C47.3985 312.819 49.705 316.522 50.9735 320.457C52.3574 324.392 52.8187 328.558 53.28 332.609" fill="#FFBE9D"/>
<path d="M85.8016 322.194H80.612C79.5741 321.152 77.9596 320.111 75.9991 319.532C74.8458 319.185 73.5773 319.879 72.5394 320.921C74.8458 317.102 77.3829 312.82 77.8442 311.662C78.7668 309.348 76.691 307.728 73.3466 307.728C70.0022 307.728 55.1255 328.79 55.1255 328.79C55.1255 328.79 64.3514 311.778 65.274 309.232C67.4651 302.751 60.4304 302.288 57.8932 305.413C54.6642 309.348 41.8632 328.79 41.8632 328.79C41.8632 328.79 39.4414 332.725 41.056 336.544C42.7858 340.363 47.6294 338.859 47.6294 338.859C47.6294 338.859 47.6294 342.099 51.0891 344.066C54.8948 346.15 59.8537 343.719 59.8537 343.719L78.9975 348.001C78.9975 348.001 81.9959 347.654 85.9169 347.307C95.6041 346.381 103.446 338.859 104.83 329.137L85.8016 322.194Z" fill="#FFBE9D"/>
<path d="M72.8851 320.689C73.1158 320.805 70.5786 324.856 67.2342 329.716C65.6197 332.147 64.0052 334.345 62.8519 335.85C61.6987 337.354 61.0068 338.28 60.8914 338.28C60.7761 338.28 61.4681 337.239 62.506 335.618C63.5439 333.998 65.0431 331.799 66.6576 329.369C68.2722 326.939 69.8867 324.74 70.9246 323.236C71.3859 322.541 71.8472 321.962 72.3085 321.384C72.6545 320.805 72.7698 320.689 72.8851 320.689Z" fill="#EB996E"/>
<path d="M71.7317 342.1C71.6164 342.1 72.3083 340.827 73.4616 338.975C74.6148 337.123 76.2293 334.462 77.9592 331.684C78.8818 330.295 79.6891 328.907 80.381 327.634C81.0729 326.476 81.0729 325.088 80.8423 324.046C80.2657 321.963 79.1124 321.037 79.2278 321.037C79.2278 321.037 79.5737 321.153 79.9197 321.616C80.381 322.079 80.8423 322.889 81.1883 323.93C81.5342 324.972 81.6496 326.476 80.8423 327.865C80.1504 329.138 79.3431 330.527 78.4205 332.031C76.6906 334.925 74.9608 337.471 73.6922 339.322C72.539 341.058 71.7317 342.215 71.7317 342.1Z" fill="#EB996E"/>
<path d="M81.7655 344.068C81.6502 344.068 81.9962 342.91 82.8035 341.059C83.2648 340.133 83.726 339.091 84.1873 337.934C84.6486 336.777 85.2253 335.504 85.5712 333.999C85.9172 332.611 85.6865 331.222 84.9946 330.18C84.6486 329.717 84.072 329.486 83.6107 329.254C83.1494 329.023 82.5728 328.907 82.2268 328.907C81.4196 328.907 80.6123 329.37 80.151 329.602C79.6897 329.833 79.3438 329.949 79.3438 329.949C79.3438 329.949 79.5744 329.717 80.0357 329.37C80.2663 329.254 80.497 329.023 80.843 328.907C81.1889 328.792 81.6502 328.56 82.1115 328.444C82.6881 328.444 83.1494 328.56 83.726 328.792C84.3027 329.023 84.8793 329.37 85.3406 329.833C86.2632 330.99 86.4938 332.611 86.1478 334.115C85.8019 335.62 85.2253 336.893 84.6486 338.05C84.072 339.207 83.6107 340.249 83.1494 341.175C82.3422 342.91 81.8809 344.068 81.7655 344.068Z" fill="#EB996E"/>
<path d="M85.3409 325.781C85.3409 325.781 85.6869 325.781 86.1482 326.013C86.6095 326.244 87.4168 326.591 88.1087 327.17C89.7233 328.327 91.5684 330.526 92.2604 333.535C92.9523 336.544 92.145 339.321 91.2225 341.057C90.7612 341.983 90.2999 342.562 89.9539 343.025C89.6079 343.488 89.3773 343.603 89.3773 343.603C89.262 343.488 90.1845 342.678 90.9918 340.942C91.7991 339.206 92.491 336.544 91.7991 333.651C91.1071 330.758 89.4926 328.674 87.9934 327.401C86.3789 326.36 85.2256 325.897 85.3409 325.781Z" fill="#EB996E"/>
<path d="M51.5501 314.788C51.6654 314.904 49.7049 318.029 47.1678 321.732C44.6306 325.435 42.4395 328.444 42.3242 328.329C42.2088 328.213 44.1694 325.088 46.7065 321.385C49.2436 317.682 51.4347 314.673 51.5501 314.788Z" fill="#EB996E"/>
<path d="M175.984 302.404L163.991 299.627L152.458 288.748C151.074 287.475 149.229 286.665 147.269 286.55L126.28 285.392C124.204 285.277 122.128 285.971 120.514 287.36L105.521 300.09L170.91 332.031L179.905 332.841L175.984 302.404Z" fill="#FFBE9D"/>
<path d="M140.464 296.734C140.464 296.85 138.965 296.502 136.428 296.271C134.006 296.04 130.431 295.692 126.971 297.313C125.242 298.123 123.742 299.164 122.474 300.206C121.205 301.247 119.937 302.173 118.899 302.868C117.861 303.562 116.938 304.025 116.362 304.372C115.67 304.719 115.324 304.835 115.324 304.719C115.324 304.603 116.708 304.025 118.668 302.52C119.706 301.826 120.859 300.784 122.128 299.743C123.396 298.701 124.896 297.66 126.741 296.85C128.471 296.04 130.431 295.692 132.046 295.692C133.776 295.692 135.275 295.808 136.543 296.04C137.812 296.271 138.734 296.502 139.426 296.618C140.118 296.618 140.464 296.734 140.464 296.734Z" fill="#EB996E"/>
<path d="M144.732 308.422C144.732 308.538 143.924 308.191 142.425 307.959C141.041 307.844 139.081 307.959 137.005 308.77C134.929 309.464 133.315 310.621 132.046 311.316C130.777 312.126 130.086 312.473 129.97 312.473C129.97 312.357 130.547 311.779 131.815 310.968C132.969 310.158 134.698 309.001 136.774 308.191C138.85 307.381 141.041 307.265 142.425 307.612C144.04 307.844 144.732 308.422 144.732 308.422Z" fill="#EB996E"/>
<path d="M171.717 310.39C171.602 310.505 169.872 307.959 167.681 304.95C165.49 301.942 163.529 299.627 163.644 299.511C163.76 299.395 165.951 301.594 168.142 304.603C170.333 307.612 171.832 310.274 171.717 310.39Z" fill="#EB996E"/>
<path d="M138.734 286.55L165.259 261.668C166.412 260.627 166.297 258.775 165.028 257.734C164.106 257.039 162.722 257.039 161.799 257.849L130.662 285.856" fill="#963EEE"/>
<path opacity="0.3" d="M138.734 286.55L165.259 261.668C166.412 260.627 166.297 258.775 165.028 257.734C164.106 257.039 162.722 257.039 161.799 257.849L130.662 285.856" fill="#ED9C55"/>
</svg>
