<svg width="99" height="90" viewBox="0 0 99 90" fill="none" xmlns="http://www.w3.org/2000/svg">
<path d="M82.0474 21.7202L28.864 0L12.7087 39.5507L12.1715 40.8742C11.8723 41.6116 12.2257 42.4521 12.962 42.754V42.754C13.7034 43.058 14.5505 42.7005 14.85 41.9573L15.3851 40.6292L30.4429 3.7742L74.403 21.7202H31.4058V80.4109L3.755 69.1079L10.1669 53.3953L10.4691 52.6604C10.7702 51.9282 10.4215 51.0904 9.68973 50.7882V50.7882C8.95467 50.4846 8.11287 50.8367 7.81285 51.5732L7.5098 52.3171L0 70.6868L31.4058 83.5303V90H98.126V46.3094V45.8089V44.8653C98.126 44.0677 97.4794 43.4211 96.6817 43.4211V43.4211C95.8841 43.4211 95.2375 44.0677 95.2375 44.8653V45.8089V46.3094V87.1119H34.294V84.7047V24.6085H89.1145H95.2375V31.8678V33.3121C95.2375 34.1097 95.8841 34.7563 96.6817 34.7563V34.7563C97.4794 34.7563 98.126 34.1097 98.126 33.3121V31.8678V21.7202H82.0474Z" fill="#ED9C55"/>
<path d="M95.2373 39.0887C95.2373 38.2911 95.884 37.6445 96.6816 37.6445V37.6445C97.4792 37.6445 98.1258 38.2911 98.1258 39.0887V39.0887C98.1258 39.8863 97.4792 40.5329 96.6816 40.5329V40.5329C95.884 40.5329 95.2373 39.8863 95.2373 39.0887V39.0887Z" fill="#ED9C55"/>
<path d="M11.8521 45.4482C12.5907 45.7497 12.945 46.5929 12.6435 47.3315V47.3315C12.342 48.0701 11.4988 48.4245 10.7602 48.123V48.123C10.0216 47.8215 9.66725 46.9783 9.96876 46.2397V46.2397C10.2703 45.501 11.1135 45.1467 11.8521 45.4482V45.4482Z" fill="#ED9C55"/>
<path d="M40.1094 80.7193H41.0337H54.8783H57.3623H89.2109H89.4226V31.3867H40.1094V80.7193ZM59.7693 77.8312L70.9593 57.55C71.739 56.1368 73.7853 56.1817 74.5023 57.6277L76.2133 61.0788H71.6307C70.833 61.0788 70.1864 61.7254 70.1864 62.5231V62.5231C70.1864 63.3207 70.833 63.9673 71.6307 63.9673H77.6382L84.5316 77.8506H59.7693V77.8312ZM86.5342 34.2752V75.3472L76.3196 54.8023C74.8831 51.9129 70.7926 51.8261 69.2349 54.652L56.4572 77.8312H45.9052L58.8953 54.2652C58.923 54.2148 58.9958 54.2158 59.0222 54.267L61.2826 58.6563C61.6482 59.3662 62.5209 59.6442 63.2297 59.2764V59.2764C63.9354 58.9103 64.212 58.0424 63.8483 57.3356L59.2608 48.4197C59.1655 48.2346 58.9021 48.2309 58.8018 48.4134L42.9977 77.1572V34.2752H86.5342Z" fill="white"/>
<path d="M78.6014 47.4456C81.6628 47.4456 84.1468 44.9616 84.1468 41.9001C84.1468 38.8385 81.6628 36.3545 78.6014 36.3545C75.5397 36.3545 73.0557 38.8385 73.0557 41.9001C73.0557 44.9616 75.5397 47.4456 78.6014 47.4456V47.4456ZM78.6014 39.243C80.0647 39.243 81.2587 40.4368 81.2587 41.9003C81.2587 43.3635 80.0647 44.5575 78.6014 44.5575C77.1378 44.5575 75.9442 43.3637 75.9442 41.9003C75.9442 40.4368 77.1378 39.243 78.6014 39.243Z" fill="white"/>
</svg>
