<svg width="76" height="88" viewBox="0 0 76 88" fill="none" xmlns="http://www.w3.org/2000/svg">
<path d="M46.5 31C47.3279 31 48 30.1039 48 29C48 27.8961 47.3279 27 46.5 27C45.6703 27 45 27.8961 45 29C45 30.1039 45.6703 31 46.5 31Z" fill="white"/>
<path d="M29.5 31C30.3279 31 31 30.1039 31 29C31 27.8961 30.3279 27 29.5 27C28.6703 27 28 27.8961 28 29C28 30.1039 28.6703 31 29.5 31Z" fill="white"/>
<path d="M33.0674 42.8076C34.6289 43.5986 36.3022 44 38.0395 44C39.739 44 41.3796 43.615 42.9164 42.856C43.85 42.3945 44.2584 41.2076 43.8297 40.2042C43.4003 39.2015 42.2959 38.7619 41.3622 39.2234C40.3166 39.7395 39.1984 40.0019 38.0395 40.0019C36.8544 40.0019 35.7151 39.7294 34.6536 39.1914C33.7243 38.7205 32.6155 39.1484 32.1781 40.1472C31.7399 41.1459 32.1381 42.3367 33.0674 42.8076Z" fill="white"/>
<path d="M76 69.7416C76 60.2905 65.2097 52.8784 55.9606 52.5273L51.2419 48.2982C56.9891 44.1155 60.4775 37.3936 60.4775 30.25V18.9062C60.4775 8.48163 51.9479 0 41.4638 0H34.5718C24.1019 0 15.6793 8.45142 15.6793 18.9062V30.25C15.6793 37.3815 19.1213 44.0906 24.7938 48.266L20.0394 52.5273C10.8105 52.8777 0 60.2711 0 69.7416V86.2812C0 87.2306 0.771314 88 1.72301 88H74.277C75.2287 88 76 87.2306 76 86.2812V69.7416ZM34.1835 76.6562H41.8071L43.6136 84.5625H32.3245L34.1835 76.6562ZM41.9552 73.2188H34.0744L32.7526 69.1105L38.001 66.4928L43.3618 69.1676L41.9552 73.2188ZM38.0003 61.3285L32.0129 51.774C33.9573 52.3131 35.9778 52.5931 38.0178 52.5931C40.0383 52.5931 42.044 52.3185 43.9784 51.7881L38.0003 61.3285ZM40.4664 63.8798L48.7388 50.6756L53.2005 54.6744L47.5233 67.4005L40.4664 63.8798ZM34.5718 3.4375H41.4638C50.0479 3.4375 57.0315 10.3763 57.0315 18.9062V20.3269L53.7961 15.6796C53.5033 15.2586 53.0369 14.9901 52.5247 14.9471C52.0119 14.9041 51.5084 15.0914 51.149 15.458C47.6465 19.0311 43.5914 20.625 38.001 20.625C32.4113 20.625 28.3555 19.0311 24.8503 15.458C24.4896 15.0894 23.9814 14.9028 23.4679 14.9478C22.9537 14.9927 22.4866 15.2653 22.1958 15.691L19.1254 20.1792V18.9062C19.1254 10.3763 26.0544 3.4375 34.5718 3.4375V3.4375ZM19.1254 30.25V26.2774L23.9107 19.2822C27.7444 22.5351 32.2747 24.0625 38.001 24.0625C43.7334 24.0625 48.267 22.5317 52.1014 19.2722L57.0315 26.3539V30.25C57.0315 40.543 48.5975 49.1562 38.0178 49.1562C27.4725 49.1562 19.1254 40.5699 19.1254 30.25V30.25ZM27.2612 50.6763L35.535 63.8798L28.4767 67.4005L22.7995 54.6744L27.2612 50.6763ZM3.44601 69.7416C3.44601 62.6612 12.0745 56.5475 19.6147 55.9916L26.0611 70.4406C26.2523 70.8689 26.611 71.2012 27.0539 71.3597C27.4967 71.5181 27.9847 71.4886 28.406 71.2791L29.6337 70.6661L31.0316 75.0087L28.785 84.5625H3.44601V69.7416ZM72.554 84.5625H47.1477L44.9711 75.0349L46.47 70.7178L47.594 71.2791C48.018 71.4906 48.5073 71.5168 48.9461 71.3597C49.389 71.2012 49.7477 70.8689 49.9389 70.4406L56.3853 55.9916C63.9255 56.5482 72.554 62.6612 72.554 69.7416V84.5625Z" fill="#ED9C55"/>
<path d="M60.3333 77H53.6667C52.7461 77 52 77.6715 52 78.5C52 79.3285 52.7461 80 53.6667 80H60.3333C61.2539 80 62 79.3285 62 78.5C62 77.6715 61.2539 77 60.3333 77Z" fill="white"/>
<path d="M67 77C68.1039 77 69 77.6721 69 78.5C69 79.3279 68.1039 80 67 80C65.8961 80 65 79.3279 65 78.5C65 77.6721 65.8961 77 67 77Z" fill="white"/>
</svg>
