<svg width="84" height="84" viewBox="0 0 84 84" fill="none" xmlns="http://www.w3.org/2000/svg">
<path d="M42 73.1719C42.9061 73.1719 43.6406 72.4373 43.6406 71.5312C43.6406 70.6252 42.9061 69.8906 42 69.8906C41.0939 69.8906 40.3594 70.6252 40.3594 71.5312C40.3594 72.4373 41.0939 73.1719 42 73.1719Z" fill="#ED9C55"/>
<path d="M68.9076 21.9579L42.6576 10.4735C42.2384 10.2901 41.7616 10.2901 41.3424 10.4735C25.2454 17.5159 15.1207 21.9456 15.1039 21.9528C15.0877 21.9671 14.1094 22.3506 14.1094 23.461V33.587C12.1999 34.2642 10.8281 36.0878 10.8281 38.2267V44.7892C10.8281 45.6953 11.5628 46.4298 12.4688 46.4298H19.0312C19.9372 46.4298 20.6719 45.6953 20.6719 44.7892V38.2267C20.6719 36.0879 19.3001 34.2642 17.3906 33.587V25.9695L27.2344 30.2762V41.5079C27.2344 42.1566 27.6166 42.7444 28.2096 43.0076C28.5244 43.1472 35.9907 46.4298 42 46.4298C48.0093 46.4298 55.4756 43.1472 55.7904 43.0076C56.3834 42.7444 56.7656 42.1566 56.7656 41.5079V30.2762L68.9076 24.9642C69.5049 24.703 69.8906 24.113 69.8906 23.461C69.8906 22.809 69.5047 22.2192 68.9076 21.9579V21.9579ZM17.3906 43.1485H14.1094V38.2267C14.1094 37.322 14.8454 36.586 15.75 36.586C16.6546 36.586 17.3906 37.322 17.3906 38.2267V43.1485ZM53.4844 40.4123C51.3544 41.2605 46.1468 43.1485 42 43.1485C37.8625 43.1485 32.6476 41.2595 30.5156 40.4116V31.7117L41.3424 36.4485C41.7613 36.6318 42.2384 36.632 42.6576 36.4485L53.4844 31.7117V40.4123ZM42 33.1547C38.8621 31.7818 22.9838 24.835 19.8432 23.461L42 13.7674L64.1568 23.461C61.2724 24.7228 43.6803 32.4195 42 33.1547Z" fill="white"/>
<path d="M75.7969 33.3047H61.6875C60.7815 33.3047 60.0469 34.0392 60.0469 34.9453C60.0469 35.8514 60.7815 36.5859 61.6875 36.5859H75.7969C76.7028 36.5859 77.4375 35.8514 77.4375 34.9453C77.4375 34.0392 76.7028 33.3047 75.7969 33.3047Z" fill="#ED9C55"/>
<path d="M75.7969 39.8672H61.6875C60.7815 39.8672 60.0469 40.6017 60.0469 41.5078C60.0469 42.4139 60.7815 43.1484 61.6875 43.1484H75.7969C76.7028 43.1484 77.4375 42.4139 77.4375 41.5078C77.4375 40.6017 76.7028 39.8672 75.7969 39.8672Z" fill="#ED9C55"/>
<path d="M42 3.28125C42.9061 3.28125 43.6406 2.54672 43.6406 1.64062C43.6406 0.734533 42.9061 0 42 0C41.0939 0 40.3594 0.734533 40.3594 1.64062C40.3594 2.54672 41.0939 3.28125 42 3.28125Z" fill="#ED9C55"/>
<path d="M82.3594 0H49.3828C48.4769 0 47.7422 0.734508 47.7422 1.64062C47.7422 2.54674 48.4769 3.28125 49.3828 3.28125H80.7188V53.4844H3.28125V3.28125H34.6172C35.5231 3.28125 36.2578 2.54674 36.2578 1.64062C36.2578 0.734508 35.5231 0 34.6172 0H1.64062C0.734672 0 0 0.734508 0 1.64062V64.9688C0 65.8749 0.734672 66.6094 1.64062 66.6094H33.4584L30.7963 80.7188H25.5938C24.6878 80.7188 23.9531 81.4533 23.9531 82.3594C23.9531 83.2655 24.6878 84 25.5938 84H58.4062C59.3122 84 60.0469 83.2655 60.0469 82.3594C60.0469 81.4533 59.3122 80.7188 58.4062 80.7188H53.2037L50.5416 66.6094H82.3594C83.2653 66.6094 84 65.8749 84 64.9688V1.64062C84 0.734508 83.2653 0 82.3594 0ZM34.1353 80.7188L36.7974 66.6094H47.2024L49.8645 80.7188H34.1353ZM80.7188 63.3281C78.9848 63.3281 3.46467 63.3281 3.28125 63.3281V56.7656H80.7188V63.3281Z" fill="#ED9C55"/>
</svg>
