<svg width="663" height="449" viewBox="0 0 663 449" fill="none" xmlns="http://www.w3.org/2000/svg">
    <ellipse rx="1.50001" ry="1.52003" transform="matrix(0.999872 0.0159925 -0.0155738 0.999879 124.106 149.191)" fill="#B56AFF" fill-opacity="0.22"/>
    <ellipse rx="1.50001" ry="1.52003" transform="matrix(0.999872 0.0159925 -0.0155738 0.999879 128.139 232.138)" fill="#B56AFF" fill-opacity="0.22"/>
    <ellipse rx="1.50001" ry="1.52003" transform="matrix(0.999872 0.0159925 -0.0155738 0.999879 197.746 193.725)" fill="#B56AFF" fill-opacity="0.22"/>
    <ellipse rx="1.50001" ry="1.52003" transform="matrix(0.999872 0.0159925 -0.0155738 0.999879 264.106 235.326)" fill="#B56AFF" fill-opacity="0.22"/>
    <ellipse rx="1.50001" ry="1.52003" transform="matrix(0.999872 0.0159925 -0.0155738 0.999879 195.515 272.741)" fill="#B56AFF" fill-opacity="0.22"/>
    <ellipse rx="1.50001" ry="1.52003" transform="matrix(0.999872 0.0159925 -0.0155738 0.999879 264.139 317.67)" fill="#B56AFF" fill-opacity="0.22"/>
    <ellipse rx="1.50001" ry="1.52003" transform="matrix(0.999872 0.0159925 -0.0155738 0.999879 333.747 279.258)" fill="#B56AFF" fill-opacity="0.22"/>
    <ellipse rx="1.50001" ry="1.52003" transform="matrix(0.999872 0.0159925 -0.0155738 0.999879 400.106 320.858)" fill="#B56AFF" fill-opacity="0.22"/>
    <ellipse rx="1.50001" ry="1.52003" transform="matrix(0.999872 0.0159925 -0.0155738 0.999879 331.515 358.273)" fill="#B56AFF" fill-opacity="0.22"/>
    <ellipse rx="1.50001" ry="1.52003" transform="matrix(0.999872 0.0159925 -0.0155738 0.999879 477.399 365.585)" fill="#B56AFF" fill-opacity="0.22"/>
    <ellipse rx="1.50001" ry="1.52003" transform="matrix(0.999872 0.0159925 -0.0155738 0.999879 73.398 274.386)" fill="#B56AFF" fill-opacity="0.22"/>
    <ellipse rx="1.50001" ry="1.52003" transform="matrix(0.999872 0.0159925 -0.0155738 0.999879 139.758 315.986)" fill="#B56AFF" fill-opacity="0.22"/>
    <ellipse rx="1.50001" ry="1.52003" transform="matrix(0.999872 0.0159925 -0.0155738 0.999879 213.051 360.11)" fill="#B56AFF" fill-opacity="0.22"/>
    <ellipse rx="1.50001" ry="1.52003" transform="matrix(0.999872 0.0159925 -0.0155738 0.999879 185.792 109.523)" fill="#B56AFF" fill-opacity="0.22"/>
    <ellipse rx="1.50001" ry="1.52003" transform="matrix(0.999872 0.0159925 -0.0155738 0.999879 321.758 112.712)" fill="#B56AFF" fill-opacity="0.22"/>
    <ellipse rx="1.50001" ry="1.52003" transform="matrix(0.999872 0.0159925 -0.0155738 0.999879 253.168 150.127)" fill="#B56AFF" fill-opacity="0.22"/>
    <ellipse rx="1.50001" ry="1.52003" transform="matrix(0.999872 0.0159925 -0.0155738 0.999879 325.792 195.658)" fill="#B56AFF" fill-opacity="0.22"/>
    <ellipse rx="1.50001" ry="1.52003" transform="matrix(0.999872 0.0159925 -0.0155738 0.999879 395.399 157.246)" fill="#B56AFF" fill-opacity="0.22"/>
    <ellipse rx="1.50001" ry="1.52003" transform="matrix(0.999872 0.0159925 -0.0155738 0.999879 461.758 198.847)" fill="#B56AFF" fill-opacity="0.22"/>
    <ellipse rx="1.50001" ry="1.52003" transform="matrix(0.999872 0.0159925 -0.0155738 0.999879 393.168 236.262)" fill="#B56AFF" fill-opacity="0.22"/>
    <ellipse rx="1.50001" ry="1.52003" transform="matrix(0.999872 0.0159925 -0.0155738 0.999879 465.792 281.794)" fill="#B56AFF" fill-opacity="0.22"/>
    <ellipse rx="1.50001" ry="1.52003" transform="matrix(0.999872 0.0159925 -0.0155738 0.999879 535.398 243.382)" fill="#B56AFF" fill-opacity="0.22"/>
    <ellipse rx="1.50001" ry="1.52003" transform="matrix(0.999872 0.0159925 -0.0155738 0.999879 533.168 322.397)" fill="#B56AFF" fill-opacity="0.22"/>
    <ellipse rx="1.50001" ry="1.52003" transform="matrix(0.999872 0.0159925 -0.0155738 0.999879 480.168 119.726)" fill="#B56AFF" fill-opacity="0.22"/>
    <ellipse rx="1.50001" ry="1.52003" transform="matrix(0.999872 0.0159925 -0.0155738 0.999879 552.792 165.258)" fill="#B56AFF" fill-opacity="0.22"/>
    <path opacity="0.1" fill-rule="evenodd" clip-rule="evenodd" d="M346.325 0.469233C405.637 -3.90047 461.638 22.9222 507.412 52.8983C551.001 81.4438 571.1 123.287 595.407 163.587C623.898 210.823 673.444 256.256 661.046 307.617C648.288 360.467 592.963 403.9 531.638 427.755C474.876 449.833 409.605 428.086 346.325 430.036C279.217 432.104 209.202 464.657 150.148 439.51C89.8061 413.815 72.145 353.955 48.6287 303.268C24.2057 250.626 -21.9031 191.094 12.0359 141.82C46.4497 91.8576 142.126 102.033 205.773 75.1207C256.817 53.5373 288.62 4.72047 346.325 0.469233Z" fill="#853DCD"/>
    <path d="M579.7 294.201C579.7 294.201 609 287.201 609.9 286.001L585.8 224.001C582.4 215.301 576.8 207.701 569.1 202.401C565.6 200.001 561.8 198.001 557.7 196.701C542.1 191.401 529.3 192.301 529.3 192.301L488.7 190.101C476.1 190.801 465.3 194.501 456.6 199.001C442.9 206.001 432.3 217.901 426.5 232.201L408.3 277.701L454.3 287.301L456 336.201L449.1 403.701H576L575.1 296.801L579.7 294.201Z" fill="#963EEE"/>
    <g opacity="0.3">
        <g opacity="0.3">
            <path opacity="0.3" d="M604.9 277.9C604.9 278 597.4 280.5 587.9 283.4C578.5 286.3 570.8 288.6 570.8 288.4C570.8 288.3 578.3 285.8 587.8 282.9C597.2 280 604.9 277.7 604.9 277.9Z" fill="white"/>
        </g>
    </g>
    <path d="M472.2 234.3C472.2 234.3 471.9 233.9 471.4 233.2C470.9 232.5 470.2 231.5 469.3 230.3C468.4 229.1 467.2 227.7 465.9 226.3C464.5 224.9 462.9 223.4 461.1 221.9C459.3 220.5 457.5 219.2 455.8 218.2C454.1 217.2 452.5 216.3 451.1 215.7C449.7 215.1 448.6 214.6 447.8 214.3C447 214 446.6 213.8 446.6 213.8C446.6 213.8 447.1 213.9 447.9 214.1C448.7 214.3 449.9 214.8 451.3 215.4C452.7 216 454.3 216.8 456.1 217.8C457.8 218.8 459.7 220.1 461.5 221.5C463.3 223 464.9 224.5 466.3 226C467.7 227.5 468.8 228.9 469.7 230.1C470.6 231.3 471.3 232.4 471.7 233.1C472 233.9 472.2 234.3 472.2 234.3Z" fill="#263238"/>
    <path d="M466.2 249.101C466.3 249.101 464.9 264.001 463 282.401C461.1 300.801 459.5 315.701 459.3 315.701C459.2 315.701 460.6 300.801 462.5 282.401C464.4 264.001 466 249.101 466.2 249.101Z" fill="#263238"/>
    <path d="M566.1 221.401C566 221.401 565.8 220.201 565.4 218.401C565 216.501 564.4 214.001 563.4 211.201C562.4 208.501 561.3 206.101 560.4 204.401C559.5 202.701 558.9 201.701 559 201.601C559 201.601 559.2 201.801 559.5 202.301C559.8 202.701 560.2 203.401 560.7 204.201C561.7 205.901 562.9 208.201 563.9 211.001C564.9 213.801 565.5 216.401 565.8 218.301C566 219.201 566 220.001 566.1 220.601C566.1 221.101 566.1 221.401 566.1 221.401Z" fill="#263238"/>
    <path d="M568.6 273.6C568.6 273.6 568.5 273.1 568.4 272.1C568.3 271.2 568.1 269.8 568 268.1C567.7 264.7 567.3 260 567.1 254.8C566.9 249.6 566.9 244.9 567 241.4C567 239.7 567.1 238.3 567.2 237.4C567.3 236.4 567.3 235.9 567.3 235.9C567.3 235.9 567.4 236.4 567.4 237.4C567.4 238.5 567.4 239.8 567.4 241.4C567.4 244.8 567.4 249.5 567.6 254.7C567.8 259.9 568.1 264.6 568.3 268C568.4 269.6 568.5 271 568.6 272C568.6 273.1 568.7 273.6 568.6 273.6Z" fill="#263238"/>
    <path d="M507.2 264.9C496.5 265.5 485.8 265.3 475.2 264.3V268.5H507.2V264.9Z" fill="white"/>
    <g opacity="0.3">
        <g opacity="0.3">
            <path opacity="0.3" d="M539 195.8C539 195.8 539.1 196 539.1 196.4C539.2 196.9 539.3 197.5 539.4 198.2C539.6 199.8 539.9 202.2 540.1 205.2C540.6 211.2 541 219.8 541.1 229.8V230.2L540.8 230C534.4 226.9 527.3 223.5 519.8 219.8C505.6 212.7 492.8 206.3 483.4 201.6C478.8 199.3 475 197.4 472.4 196C471.1 195.3 470.1 194.8 469.4 194.5C469.1 194.3 468.8 194.2 468.6 194.1C468.4 194 468.3 194 468.3 193.9C468.3 193.9 468.4 193.9 468.6 194C468.8 194.1 469.1 194.2 469.4 194.4C470.1 194.7 471.1 195.2 472.4 195.9C475 197.2 478.8 199 483.5 201.3C492.9 205.9 505.7 212.3 519.9 219.4C527.3 223.1 534.5 226.5 540.8 229.6L540.5 229.8C540.4 219.7 540 211.2 539.6 205.2C539.4 202.2 539.2 199.8 539 198.2C538.9 197.4 538.8 196.8 538.8 196.3C539 196 539 195.8 539 195.8Z" fill="white"/>
        </g>
    </g>
    <g opacity="0.3">
        <g opacity="0.3">
            <path opacity="0.3" d="M462.599 282.101C462.599 282.101 462.399 282.101 462.099 282.001C461.699 281.901 461.199 281.801 460.599 281.601C459.199 281.301 457.399 280.801 455.099 280.201C450.499 279.001 444.099 277.401 436.999 275.701C429.899 274.001 423.499 272.501 418.899 271.501C416.599 271.001 414.799 270.601 413.399 270.201C412.799 270.101 412.299 269.901 411.899 269.801C411.599 269.701 411.399 269.701 411.399 269.601C411.399 269.601 411.599 269.601 411.899 269.701C412.299 269.801 412.799 269.901 413.399 270.001C414.699 270.201 416.599 270.601 418.899 271.101C423.599 272.101 429.999 273.501 437.099 275.201C444.199 276.901 450.499 278.601 455.099 279.901C457.399 280.501 459.299 281.101 460.499 281.501C461.099 281.701 461.599 281.801 461.999 282.001C462.399 282.101 462.599 282.101 462.599 282.101Z" fill="white"/>
        </g>
    </g>
    <path d="M533.4 188.2C533.4 188.1 536.1 189.5 538.8 193.4C541.4 197.3 543.9 203.4 545.2 210.4C545.9 213.9 546.2 217.3 546.4 220.4C546.4 221.9 546.5 223.4 546.4 224.8C546.3 226.2 546.3 227.4 546.2 228.6C546.1 229.7 546 230.8 545.9 231.7C545.8 232.6 545.6 233.4 545.5 234C545.3 235.3 545.1 236 545 236C544.9 236 545 235.3 545.1 234C545.2 233.3 545.2 232.6 545.3 231.7C545.4 230.8 545.4 229.7 545.5 228.6C545.6 227.5 545.5 226.2 545.6 224.8C545.6 223.4 545.5 222 545.5 220.5C545.3 217.5 544.9 214.1 544.3 210.7C542.9 203.8 540.6 197.8 538.3 193.9C537.1 192 535.9 190.6 535 189.7C534 188.7 533.4 188.3 533.4 188.2Z" fill="#263238"/>
    <path d="M488 188.501C488.1 188.601 487.3 189.601 485.9 191.501C484.5 193.401 482.8 196.401 481.2 200.301C479.6 204.201 478.4 209.101 477.7 214.701C477 220.201 476.7 226.401 476.3 232.901C476 239.401 475.9 245.601 475.9 251.201C475.9 256.801 475.9 261.901 475.9 266.201C475.9 270.501 475.8 273.901 475.7 276.301C475.6 278.701 475.4 280.001 475.3 280.001C475.2 280.001 475.1 278.701 475.1 276.301C475 273.901 474.9 270.401 474.8 266.201C474.7 261.901 474.5 256.901 474.5 251.201C474.4 245.601 474.4 239.301 474.7 232.801C475.1 226.301 475.5 220.101 476.3 214.501C477.1 208.901 478.4 203.901 480.2 199.901C481.9 195.901 483.9 193.001 485.4 191.201C486.9 189.301 487.9 188.401 488 188.501Z" fill="#263238"/>
    <path d="M555.2 272.101C555.1 272.101 555.1 270.901 555 268.801C554.9 266.701 554.9 263.601 554.8 259.801C554.8 257.901 554.8 255.801 554.7 253.601C554.7 251.401 554.7 249.001 554.6 246.501C554.4 244.101 553.8 241.501 552 239.501C550.3 237.501 547.7 236.201 544.9 236.201C542.1 236.201 539.5 237.301 537.5 239.101C535.5 240.801 534.4 243.201 533.8 245.601C533.2 248.001 532.9 250.401 532.5 252.601C532.2 254.801 531.8 256.901 531.5 258.701C530.9 262.501 530.4 265.501 530 267.601C529.6 269.701 529.4 270.801 529.3 270.801C529.2 270.801 529.3 269.601 529.6 267.501C529.8 265.401 530.2 262.301 530.8 258.601C531.1 256.701 531.3 254.601 531.6 252.401C531.9 250.201 532.2 247.801 532.8 245.301C533.4 242.801 534.6 240.201 536.8 238.301C538.9 236.401 541.8 235.101 544.9 235.201C548 235.201 550.8 236.701 552.7 238.901C554.6 241.101 555.3 244.001 555.4 246.501C555.6 249.101 555.4 251.401 555.4 253.701C555.4 255.901 555.3 258.001 555.3 259.901C555.2 263.701 555.2 266.801 555.1 268.901C555.3 270.901 555.3 272.101 555.2 272.101Z" fill="#263238"/>
    <path d="M545.6 226.3C545.3 229.8 544.2 233.7 541.7 236.3C543.8 235.8 546.1 235.9 548.2 236.4C546.7 233.4 546.4 229.7 546.5 226.3" fill="#263238"/>
    <path d="M555.201 249.1C555.001 249.1 554.901 247.4 553.601 245.1C553.001 244 552.001 242.7 550.701 241.6C549.401 240.5 547.701 239.6 545.801 239.3C543.901 239 542.001 239.2 540.401 239.8C538.801 240.4 537.501 241.3 536.501 242.1C534.601 243.9 533.901 245.5 533.701 245.4C533.601 245.4 534.001 243.6 535.901 241.6C536.901 240.6 538.201 239.6 539.901 238.9C541.601 238.2 543.701 237.9 545.801 238.2C547.901 238.6 549.801 239.6 551.201 240.8C552.601 242 553.501 243.4 554.101 244.7C555.501 247.3 555.301 249.1 555.201 249.1Z" fill="#263238"/>
    <path d="M582 362.4C588 362.4 593.3 358.1 596.1 352.9C598.9 347.6 599.6 341.5 599.9 335.6C600.6 319.9 598.7 304 594.2 288.9L568.1 293.5L575.2 363.8L582 362.4Z" fill="#FFBE9D"/>
    <path d="M476.399 371.1L561.399 368L581.999 268.5L492.499 273.4L476.399 371.1Z" fill="#263238"/>
    <path d="M520.199 271.7L521.499 269.2L528.299 268.7C528.299 268.7 529.999 264.3 539.699 263.8C548.399 263.4 548.699 267.8 548.699 267.8H553.399V269.9L520.199 271.7Z" fill="#455A64"/>
    <path d="M567.599 339L573.999 337.1C575.199 336.7 576.499 336.7 577.699 336.9C579.199 337.2 580.599 337.9 581.699 339C583.799 341.1 587.299 344.6 587.799 345.6C588.499 347.1 588.499 349.7 587.799 350.7C587.099 351.7 589.399 356.6 589.099 358.3C588.799 360 588.399 361.6 587.799 362.3C587.199 363 587.799 365.3 586.399 367.1C584.999 368.9 583.699 370 583.699 370C583.699 370 565.999 370.8 564.299 370C562.599 369.2 559.599 366 559.599 366C559.599 366 557.999 363.1 560.499 362.8L550.399 358.9C549.199 358.4 548.499 357.1 548.899 355.9C549.099 355.5 549.299 355.1 549.799 354.9C549.799 354.9 545.299 353.5 544.199 353C542.099 352.1 541.299 347.2 545.599 347.8C547.899 348.1 550.999 348.8 550.999 348.8C550.999 348.8 549.399 346.1 551.699 344.5C553.099 343.5 559.399 344.7 559.399 344.7L567.599 339Z" fill="#FFBE9D"/>
    <path d="M569.799 365.6C569.799 365.7 567.399 365.6 564.599 364.8C561.799 364 559.699 362.7 559.799 362.6C559.899 362.5 561.999 363.5 564.799 364.3C567.499 365.1 569.799 365.4 569.799 365.6Z" fill="#EB996E"/>
    <path d="M565.9 359.3C565.9 359.4 562.2 358.6 557.7 357.5C553.2 356.4 549.6 355.3 549.6 355.2C549.6 355.1 553.3 355.9 557.8 357C562.4 358.1 566 359.2 565.9 359.3Z" fill="#EB996E"/>
    <path d="M568 353C568 353.1 564 352.3 559.2 351.2C554.3 350.1 550.4 349 550.5 348.9C550.5 348.8 554.5 349.6 559.3 350.7C564.2 351.9 568.1 352.9 568 353Z" fill="#EB996E"/>
    <path d="M574.6 345C574.6 345.1 573.7 345.3 572.3 345.7C571.5 345.9 570.7 346.1 569.8 346.3C569.3 346.4 568.8 346.5 568.3 346.7C567.8 346.8 567.2 346.9 566.6 346.9C566 346.9 565.5 346.8 564.9 346.6C564.4 346.5 563.9 346.4 563.4 346.3C562.5 346.1 561.7 345.9 560.9 345.7C559.5 345.3 558.6 345.1 558.6 345C558.6 344.9 559.5 345.1 561 345.3C561.8 345.5 562.6 345.6 563.5 345.8C564.5 346 565.5 346.3 566.6 346.4C567.7 346.5 568.7 346.1 569.6 345.9C570.5 345.7 571.3 345.5 572.1 345.4C573.7 345.1 574.6 344.9 574.6 345Z" fill="#EB996E"/>
    <path d="M575.699 348.4C575.799 348.4 575.999 348.6 576.199 349.1C576.399 349.6 576.499 350.3 576.299 351.1C576.099 351.9 575.499 352.4 575.099 352.7C574.699 353 574.299 353 574.299 353C574.199 352.9 575.299 352.3 575.799 351C576.199 349.5 575.599 348.4 575.699 348.4Z" fill="#EB996E"/>
    <path d="M575.4 355.2C575.5 355.1 575.9 355.9 575.9 356.8C575.8 357.8 575.399 358.4 575.299 358.4C575.199 358.3 575.4 357.7 575.4 356.8C575.4 356 575.2 355.3 575.4 355.2Z" fill="#EB996E"/>
    <path d="M575.499 362.6C575.599 362.6 575.899 363 575.799 363.7C575.699 364.3 575.199 364.7 575.099 364.6C574.999 364.5 575.199 364.1 575.199 363.6C575.299 363.1 575.299 362.7 575.499 362.6Z" fill="#EB996E"/>
    <path d="M577.399 344.6C577.399 344.7 576.699 344.6 575.699 344.5C575.099 344.4 574.499 344.3 573.899 344.3C573.199 344.2 572.499 344.1 571.699 344.2C570.999 344.3 570.299 344.7 569.799 345.1C569.199 345.5 568.799 345.9 568.299 346.2C567.399 346.8 566.699 346.8 566.699 346.8C566.699 346.7 567.299 346.5 568.099 345.9C568.899 345.3 569.899 344.1 571.699 343.8C572.099 343.7 572.499 343.7 572.899 343.8C573.299 343.8 573.599 343.9 573.999 344C574.599 344.1 575.199 344.2 575.799 344.3C576.799 344.3 577.399 344.5 577.399 344.6Z" fill="#EB996E"/>
    <path d="M587.599 362.7C587.599 362.7 587.799 362.2 588.099 361.4C588.399 360.6 588.799 359.4 588.799 357.9C588.799 357.1 588.599 356.3 588.399 355.4C588.199 354.5 587.799 353.6 587.599 352.6C587.299 351.5 587.699 350.4 587.799 349.3C587.899 348.2 587.699 347.1 587.199 346.1C586.699 345.1 585.999 344.1 585.399 343.3C584.699 342.4 583.999 341.6 583.399 340.8C582.099 339.3 580.599 338.1 579.199 337.5C577.799 336.9 576.499 336.8 575.699 337C574.899 337.1 574.399 337.3 574.399 337.3C574.399 337.3 574.499 337.2 574.699 337.1C574.899 337 575.199 336.9 575.699 336.8C576.599 336.6 577.899 336.6 579.399 337.2C580.899 337.8 582.399 339 583.799 340.5C584.499 341.3 585.199 342.1 585.899 343C586.599 343.9 587.299 344.8 587.799 345.9C588.299 347 588.599 348.2 588.399 349.4C588.199 350.5 587.899 351.5 588.099 352.5C588.299 353.5 588.699 354.4 588.899 355.3C589.099 356.2 589.199 357.1 589.199 357.9C589.199 359.5 588.699 360.7 588.299 361.5C587.899 362.3 587.599 362.7 587.599 362.7Z" fill="#EB996E"/>
    <path d="M528.1 313.5L458.3 324.6L461.4 288.2L422.6 280.7L417.9 334.6L417.1 347C416.5 355.4 420.4 363.4 427.2 368.3C433.4 372.7 441.4 373.9 448.6 371.5L463.6 366.6L536.7 340.6" fill="#FFBE9D"/>
    <path d="M570.3 305.901C570.6 304.701 569.5 303.601 568.3 303.601C564.4 303.601 553.7 303.601 550 304.701C545.4 306.001 528.1 313.401 528.1 313.401L535.4 340.501L561.9 340.801C561.9 340.801 571.6 336.301 571.7 334.401C571.8 333.401 571.5 330.801 571.5 330.801L574.4 329.201C578.8 326.401 576 321.101 576 321.101C576 321.101 579 319.401 579.2 316.401C579.4 313.201 576.9 311.901 576.9 311.901C576.9 311.901 578.1 307.601 575.9 306.501C573.7 305.301 569.9 306.801 569.9 306.801C570.1 306.701 570.3 306.301 570.3 305.901Z" fill="#FFBE9D"/>
    <path d="M571.9 306.4C571.9 306.4 571.6 306.5 571.1 306.7C570.6 306.8 569.8 307 568.8 307.2C566.9 307.5 564.1 307.8 561.2 308.2C558.2 308.5 555.5 308.9 553.6 309.4C551.7 309.8 550.6 310.4 550.6 310.4C550.6 310.4 550.8 310.2 551.3 309.9C551.8 309.6 552.5 309.3 553.5 309.1C555.4 308.5 558.1 308.1 561.1 307.8C564.1 307.5 566.8 307.2 568.8 307C570.7 306.6 571.8 306.3 571.9 306.4Z" fill="#EB996E"/>
    <path d="M576.9 311.8C576.9 311.9 576.2 312.3 575 312.8C573.8 313.3 572.1 313.8 570.2 314.2C568.3 314.6 566.5 314.9 565.2 315C563.9 315.2 563.1 315.2 563.1 315.2C563.1 315 566.2 314.5 570 313.7C571.9 313.3 573.6 312.8 574.8 312.5C576.1 312 576.8 311.7 576.9 311.8Z" fill="#EB996E"/>
    <path d="M576.099 321.2C576.199 321.3 573.699 322.4 570.399 323.1C567.199 323.8 564.399 323.9 564.399 323.8C564.399 323.6 566.999 323.3 570.199 322.6C573.499 321.9 576.099 321.1 576.099 321.2Z" fill="#EB996E"/>
    <path d="M574.5 329.2C574.6 329.3 572.6 330.2 570.1 330.8C567.6 331.4 565.5 331.5 565.5 331.4C565.5 331.3 567.5 330.9 570 330.3C572.5 329.7 574.4 329.1 574.5 329.2Z" fill="#EB996E"/>
    <path d="M560.599 324.4C560.599 324.5 560.299 324.6 559.799 324.7C559.299 324.8 558.499 324.6 557.799 324.1C557.099 323.6 556.699 322.9 556.599 322.4C556.499 321.9 556.499 321.5 556.599 321.5C556.699 321.5 556.899 322.8 558.099 323.6C559.299 324.6 560.599 324.3 560.599 324.4Z" fill="#EB996E"/>
    <path d="M560.1 332.801C560.1 332.901 559.1 333.001 558.2 332.201C557.3 331.401 557.2 330.301 557.4 330.301C557.5 330.301 557.8 331.101 558.6 331.801C559.2 332.501 560.1 332.701 560.1 332.801Z" fill="#EB996E"/>
    <path d="M556.999 315.8C557.099 315.9 556.299 316.2 555.599 315.7C554.899 315.2 554.899 314.4 555.099 314.4C555.199 314.4 555.399 314.9 555.899 315.2C556.499 315.6 556.999 315.6 556.999 315.8Z" fill="#EB996E"/>
    <path d="M528.1 313.5C528.1 313.5 528.2 313.5 528.3 313.4C528.5 313.3 528.7 313.2 528.9 313.1C529.5 312.8 530.3 312.5 531.4 312C533.6 311.1 536.7 309.7 540.7 308.1C542.7 307.3 544.9 306.4 547.3 305.5C548.5 305.1 549.7 304.6 551.1 304.3C552.5 304 553.9 303.9 555.3 303.8C558.2 303.6 561.3 303.5 564.5 303.4C565.3 303.4 566.1 303.4 566.9 303.4C567.3 303.4 567.7 303.4 568.1 303.4C568.5 303.4 569 303.4 569.4 303.7C570.2 304.1 570.8 305.1 570.5 306.1C570.4 306.3 570.3 306.4 570.2 306.4C570.1 306.5 570 306.5 569.9 306.6C569.7 306.7 569.5 306.8 569.3 306.9C568.9 307.1 568.5 307.2 568 307.3C567.9 307.3 567.7 307.3 567.7 307.1C567.7 307 567.7 306.8 567.9 306.8C569 306.5 570.1 306.2 571.2 306.1C572.3 305.9 573.5 305.8 574.7 306C575.3 306.1 575.9 306.3 576.4 306.7C576.9 307.2 577.1 307.8 577.2 308.4C577.4 309.6 577.3 310.9 577 312.1L576.9 311.8C577.5 312.1 578 312.6 578.4 313.1C579.4 314.4 579.7 316.3 579.2 317.8C578.7 319.4 577.5 320.6 576.2 321.4L576.3 321.1C577 322.6 577.3 324.1 577.1 325.7C576.9 327.3 575.9 328.7 574.6 329.5C573.6 330 572.6 330.6 571.7 331.1L571.8 330.9C571.9 331.6 571.9 332.3 572 333C572 333.3 572 333.7 572.1 334C572.1 334.2 572.1 334.3 572.1 334.5C572.1 334.7 572 334.9 571.9 335.1C571.5 335.7 570.9 336.1 570.4 336.5C569.9 336.9 569.3 337.3 568.7 337.6C566.5 338.9 564.2 340.1 562.1 341H562C554 340.9 547.3 340.8 542.7 340.7C540.4 340.7 538.6 340.6 537.4 340.6C536.8 340.6 536.3 340.6 536 340.6C535.7 340.6 535.5 340.6 535.5 340.6C535.5 340.6 535.7 340.6 536 340.6C536.3 340.6 536.8 340.6 537.4 340.6C538.7 340.6 540.5 340.6 542.7 340.6C547.4 340.6 554 340.7 562 340.7H561.9C564 339.7 566.2 338.6 568.4 337.2C568.9 336.9 569.5 336.5 570 336.1C570.5 335.7 571 335.3 571.4 334.8C571.5 334.7 571.5 334.6 571.5 334.4C571.5 334.2 571.5 334.1 571.5 333.9C571.5 333.6 571.5 333.2 571.4 332.9C571.3 332.2 571.3 331.5 571.2 330.8C571.2 330.7 571.2 330.6 571.3 330.6C572.3 330.1 573.2 329.6 574.2 329C575.4 328.2 576.3 327 576.5 325.6C576.7 324.2 576.3 322.6 575.7 321.3C575.6 321.2 575.7 321 575.8 321C577 320.2 578.1 319.1 578.6 317.7C579.1 316.3 578.8 314.6 577.9 313.4C577.5 312.9 577.1 312.5 576.6 312.3C576.5 312.2 576.4 312.1 576.5 312C576.8 310.9 576.9 309.7 576.7 308.6C576.6 308.1 576.4 307.5 576 307.2C575.6 306.8 575.1 306.7 574.6 306.6C573.5 306.4 572.4 306.6 571.3 306.7C570.2 306.9 569.1 307.1 568.1 307.4L568 306.9C568.4 306.8 568.8 306.7 569.2 306.5C569.4 306.4 569.6 306.3 569.8 306.2C570 306.1 570.1 305.9 570.2 306C570.2 305.7 570.2 305.3 570 305C569.8 304.7 569.6 304.4 569.2 304.2C568.9 304 568.5 304 568.1 304C567.7 304 567.3 304 566.9 304C566.1 304 565.3 304 564.5 304C561.3 304 558.2 304.1 555.3 304.3C553.9 304.4 552.5 304.5 551.1 304.8C549.8 305 548.5 305.5 547.3 305.9C544.9 306.8 542.7 307.6 540.7 308.4C536.8 310 533.6 311.3 531.4 312.2C530.3 312.6 529.5 313 528.9 313.2C528.6 313.3 528.4 313.4 528.3 313.5C528.2 313.4 528.1 313.5 528.1 313.5Z" fill="#EB996E"/>
    <path d="M458.599 324.5C458.699 324.6 455.799 326 453.399 328.9C450.999 331.8 450.099 334.8 449.999 334.8C449.899 334.8 450.099 334 450.499 332.8C450.899 331.6 451.799 330.1 452.999 328.6C454.199 327.1 455.599 326 456.699 325.4C457.899 324.7 458.599 324.4 458.599 324.5Z" fill="#EB996E"/>
    <path d="M549.699 108.7C548.299 90.4002 532.999 76.3002 514.599 76.2002H512.799C493.099 77.3002 483.099 94.6002 484.699 114.3L488.099 193.1C488.199 194.4 488.899 195.6 490.099 196.2L534.299 216.9L532.899 175.6C532.899 175.6 551.799 172.7 552.099 153.8C552.299 144.6 551.099 125.8 549.699 108.7Z" fill="#FFBE9D"/>
    <path d="M533.199 175.5C533.199 175.5 521.099 176.2 508.399 168.2C508.399 168.2 514.199 181.8 533.099 180.2L533.199 175.5Z" fill="#EB996E"/>
    <path d="M542.999 120.501C542.999 121.901 541.899 123.101 540.399 123.201C538.899 123.301 537.699 122.201 537.599 120.801C537.599 119.401 538.699 118.201 540.199 118.101C541.699 118.001 542.999 119.001 542.999 120.501Z" fill="#263238"/>
    <path d="M545.699 118.001C545.399 118.401 543.299 116.801 540.399 116.801C537.499 116.801 535.399 118.301 534.999 117.901C534.799 117.701 535.199 117.101 536.099 116.401C536.999 115.701 538.599 115.101 540.399 115.101C542.199 115.101 543.699 115.801 544.599 116.501C545.499 117.201 545.799 117.801 545.699 118.001Z" fill="#263238"/>
    <path d="M514.5 121.401C514.5 122.801 513.4 124.001 511.9 124.101C510.4 124.201 509.2 123.101 509.1 121.701C509.1 120.301 510.2 119.101 511.7 119.001C513.2 118.801 514.4 119.901 514.5 121.401Z" fill="#263238"/>
    <path d="M517.099 118.501C516.799 118.901 514.699 117.301 511.799 117.301C508.899 117.301 506.799 118.801 506.399 118.401C506.199 118.201 506.599 117.601 507.499 116.901C508.399 116.201 509.999 115.601 511.799 115.601C513.599 115.601 515.099 116.301 515.999 117.001C516.899 117.701 517.299 118.301 517.099 118.501Z" fill="#263238"/>
    <path d="M527.599 140.001C527.599 139.801 529.399 139.501 532.299 139.201C532.999 139.101 533.699 139.001 533.899 138.501C534.099 138.001 533.799 137.201 533.399 136.301C532.699 134.501 531.999 132.601 531.199 130.601C528.199 122.501 525.999 115.901 526.299 115.801C526.599 115.701 529.299 122.101 532.399 130.201C533.099 132.201 533.799 134.101 534.499 135.901C534.799 136.701 535.299 137.701 534.899 138.801C534.699 139.401 534.199 139.801 533.699 139.901C533.199 140.001 532.799 140.101 532.399 140.101C529.399 140.201 527.599 140.201 527.599 140.001Z" fill="#263238"/>
    <path d="M518.999 142.001C519.499 142.001 519.499 145.101 522.199 147.401C524.899 149.701 528.299 149.301 528.299 149.701C528.299 149.901 527.499 150.301 526.099 150.301C524.699 150.301 522.699 149.901 520.999 148.501C519.399 147.101 518.699 145.301 518.499 144.001C518.499 142.801 518.799 142.001 518.999 142.001Z" fill="#263238"/>
    <path d="M517.899 107.1C517.599 107.9 514.699 107.5 511.299 107.9C507.899 108.2 505.099 109.2 504.699 108.5C504.499 108.2 504.999 107.4 506.099 106.7C507.199 105.9 508.999 105.2 510.999 105C512.999 104.8 514.899 105.1 516.199 105.6C517.399 106.1 517.999 106.7 517.899 107.1Z" fill="#263238"/>
    <path d="M544.599 109.6C544.099 110.3 542.099 109.6 539.699 109.5C537.299 109.4 535.299 109.9 534.799 109.2C534.599 108.9 534.899 108.2 535.799 107.6C536.699 107 538.099 106.5 539.799 106.5C541.499 106.6 542.899 107.2 543.699 107.8C544.599 108.6 544.799 109.2 544.599 109.6Z" fill="#263238"/>
    <path d="M487.599 128.3C487.299 128.2 474.599 124.4 474.999 137.4C475.399 150.3 488.299 147.3 488.299 146.9C488.299 146.5 487.599 128.3 487.599 128.3Z" fill="#FFBE9D"/>
    <path d="M485.299 142.1C485.199 142.1 485.099 142.3 484.699 142.5C484.299 142.7 483.699 142.8 482.999 142.6C481.599 142.1 480.399 140 480.299 137.7C480.199 136.5 480.399 135.4 480.799 134.5C481.199 133.5 481.799 132.9 482.399 132.7C483.099 132.5 483.599 132.9 483.699 133.3C483.899 133.7 483.799 133.9 483.899 133.9C483.899 133.9 484.199 133.7 484.099 133.1C483.999 132.8 483.899 132.5 483.599 132.3C483.299 132.1 482.799 131.9 482.299 132C481.299 132.1 480.399 133 479.999 134.1C479.499 135.1 479.199 136.4 479.299 137.7C479.499 140.3 480.899 142.7 482.799 143.2C483.699 143.4 484.499 143.1 484.899 142.8C485.299 142.4 485.399 142.1 485.299 142.1Z" fill="#EB996E"/>
    <path d="M496.099 89.9003L549.999 91.1003C548.299 87.4003 545.299 84.4003 542.099 81.9003C535.099 76.6003 526.5 73.3003 517.7 73.1003C508.9 73.0003 490.999 83.7003 484.599 89.8003C479.499 94.7003 479.499 98.9003 479.499 98.9003C478.699 105.9 482.6 113.8 484.2 120.7C485 124.2 486.599 135 486.599 135C489.599 135 490.7 132.6 490.2 129.7L489.599 118C489.599 118 499.699 110.8 494.899 97.7003C494.199 96.7003 492.499 91.9003 496.099 89.9003Z" fill="#263238"/>
    <path d="M507.399 130.801C507.199 130.801 507.099 130.701 506.999 130.501C506.999 130.301 507.099 130.101 507.199 130.101C507.399 130.101 507.499 130.201 507.599 130.401C507.699 130.601 507.599 130.801 507.399 130.801Z" fill="#EB996E"/>
    <path d="M513 129.5C512.8 129.5 512.7 129.4 512.6 129.2C512.6 129 512.7 128.8 512.8 128.7C513 128.7 513.1 128.8 513.2 129C513.2 129.3 513.1 129.5 513 129.5Z" fill="#EB996E"/>
    <path d="M516.7 129.5C516.5 129.5 516.4 129.3 516.3 129C516.3 128.7 516.4 128.5 516.6 128.4C516.8 128.4 516.9 128.6 517 128.9C517 129.2 516.9 129.4 516.7 129.5Z" fill="#EB996E"/>
    <path d="M510.1 134.3C509.9 134.3 509.8 134.2 509.8 134.1C509.8 134 509.9 133.9 510.1 133.9C510.3 133.9 510.4 134 510.4 134.1C510.4 134.2 510.3 134.3 510.1 134.3Z" fill="#EB996E"/>
    <path d="M515.2 133.1C515 133.1 514.9 133 514.8 132.8C514.8 132.6 514.9 132.4 515.1 132.4C515.3 132.4 515.4 132.5 515.4 132.7C515.5 132.9 515.4 133.1 515.2 133.1Z" fill="#EB996E"/>
    <path d="M541.7 130.001C541.5 130.001 541.4 129.901 541.3 129.701C541.3 129.501 541.4 129.301 541.5 129.301C541.7 129.301 541.8 129.401 541.9 129.601C542 129.801 541.9 130.001 541.7 130.001Z" fill="#EB996E"/>
    <path d="M545.5 129.7C545.3 129.7 545.2 129.6 545.1 129.3C545.1 129.1 545.2 128.9 545.4 128.9C545.6 128.9 545.7 129 545.8 129.3C545.8 129.5 545.7 129.7 545.5 129.7Z" fill="#EB996E"/>
    <path d="M538.399 130.101C538.199 130.101 538.099 130.001 537.999 129.901C537.999 129.701 538.099 129.601 538.299 129.601C538.499 129.601 538.599 129.701 538.699 129.801C538.699 129.901 538.599 130.101 538.399 130.101Z" fill="#EB996E"/>
    <path d="M541.199 133.9C540.999 134 540.799 133.9 540.799 133.7C540.699 133.5 540.799 133.3 540.899 133.2C541.099 133.1 541.299 133.2 541.299 133.4C541.399 133.6 541.399 133.8 541.199 133.9Z" fill="#EB996E"/>
    <path d="M544.399 133.2C544.199 133.2 544.099 133 544.199 132.9C544.199 132.8 544.399 132.7 544.599 132.7C544.799 132.7 544.899 132.9 544.799 133C544.799 133.2 544.599 133.3 544.399 133.2Z" fill="#EB996E"/>
    <path d="M484.2 90.5004C482.8 85.8004 484.2 80.5004 487.2 76.6004C490.2 72.7004 495.2 70.4004 500.1 70.6004C502.6 70.7004 505.1 71.4004 507.6 71.1004C512.3 70.6004 515.9 66.8004 520.2 65.0004C526.9 62.2004 535.5 64.7004 539.6 70.8004C541.2 73.2004 542.3 76.3004 544.8 77.8004C547 79.1004 549.7 79.0004 552.2 79.8004C557.1 81.3004 560.5 86.5004 560.3 91.7004C560 96.8004 556.4 101.6 551.7 103.6C547 105.6 541.3 105.1 536.8 102.5C532.7 100.2 529.1 96.4004 524.4 96.5004C519.6 96.6004 515.4 101.2 510.6 100.2C508.1 99.7004 506.2 97.8004 504.4 96.0004C502.6 94.2004 500.5 92.4004 498 92.3004C495.5 92.2004 494.2 95.6004 495.1 98.0004L484.2 90.5004Z" fill="#263238"/>
    <path d="M549 84.2006C549 84.2006 549 84.3006 548.9 84.4006C548.8 84.5006 548.7 84.7006 548.6 84.9006C548.3 85.3006 547.8 86.0006 547.1 86.7006C546.3 87.4006 545.3 88.1006 543.9 88.6006C542.5 89.1006 540.8 89.3006 539 88.9006C537.2 88.5006 535.3 87.6006 533.8 86.0006C532.3 84.4006 531.5 82.2006 530.1 80.3006C529.4 79.3006 528.6 78.5006 527.5 77.9006C526.4 77.4006 525.2 77.1006 523.9 77.1006C522.6 77.1006 521.4 77.5006 520.2 78.1006C519.1 78.7006 518.1 79.7006 517.5 80.9006C516.8 82.1006 516.4 83.4006 515.6 84.5006C514.9 85.7006 513.5 86.5006 512.1 86.6006C510.7 86.7006 509.4 86.2006 508.3 85.5006C507.2 84.9006 506.3 84.0006 505.4 83.1006C503.7 81.4006 502.1 79.7006 500.1 79.3006C498.1 78.8006 496.1 79.6006 494.7 80.6006C493.3 81.6006 492.3 83.0006 491.7 84.3006C491.1 85.6006 490.8 86.8006 490.6 87.8006C490.4 88.8006 490.3 89.6006 490.2 90.1006C490.1 90.6006 490.1 90.9006 490.1 90.9006C490.1 90.9006 490.1 90.8006 490.1 90.7006C490.1 90.6006 490.1 90.4006 490.1 90.1006C490.1 89.6006 490.2 88.8006 490.4 87.8006C490.6 86.8006 490.9 85.6006 491.4 84.2006C492 82.9006 492.9 81.4006 494.4 80.3006C495.9 79.2006 497.9 78.4006 500.1 78.9006C502.3 79.4006 504 81.1006 505.7 82.8006C506.5 83.6006 507.4 84.5006 508.5 85.1006C509.5 85.7006 510.7 86.2006 512 86.1006C513.2 86.0006 514.4 85.3006 515.1 84.2006C515.8 83.1006 516.3 81.8006 517 80.6006C517.7 79.4006 518.7 78.3006 519.9 77.6006C521.1 76.9006 522.5 76.6006 523.8 76.6006C525.1 76.6006 526.5 76.9006 527.6 77.5006C528.8 78.1006 529.7 79.0006 530.4 80.0006C531.8 82.0006 532.7 84.1006 534.1 85.7006C535.5 87.3006 537.3 88.2006 539 88.6006C540.7 89.0006 542.4 88.8006 543.7 88.4006C545 88.0006 546.1 87.3006 546.9 86.7006C548.4 85.3006 548.9 84.2006 549 84.2006Z" fill="#455A64"/>
    <path d="M558.7 84.4004C558.7 84.4004 558.9 84.8004 558.9 85.4004C559 86.1004 558.9 87.1004 558.6 88.3004C558.3 89.5004 557.6 90.9004 556.6 92.1004C555.5 93.4004 554.1 94.4004 552.3 95.2004C548.8 96.7004 545.3 96.6004 542.9 96.3004C541.7 96.1004 540.7 95.9004 540.1 95.7004C539.4 95.5004 539.1 95.4004 539.1 95.4004C539.1 95.3004 540.6 95.7004 543 95.9004C545.4 96.1004 548.8 96.2004 552.2 94.7004C553.9 94.0004 555.3 92.9004 556.3 91.8004C557.3 90.6004 558 89.3004 558.3 88.2004C559 86.0004 558.6 84.4004 558.7 84.4004Z" fill="#455A64"/>
    <path d="M466.699 292.8C466.899 295 467.799 296.9 468.999 298.4C470.199 299.9 472.499 301.4 474.399 301.3C474.399 301.3 479.099 301.7 481.699 297.7C483.999 294 484.599 286.4 482.699 281.9C481.399 278.8 478.599 275.9 475.199 275.8C470.799 275.7 467.999 278.9 467.099 282.1" fill="#E0E0E0"/>
    <path d="M467.1 282C467.1 282 467.2 281.2 467.9 279.8C468.3 279.1 468.8 278.4 469.6 277.6C470.4 276.9 471.4 276.2 472.7 275.8C473.3 275.6 474.1 275.5 474.8 275.5C475.5 275.5 476.3 275.5 477.1 275.8C478.6 276.3 480.1 277.4 481.2 278.7C482.3 280.1 483.2 281.8 483.6 283.7C484 285.6 484.2 287.6 484 289.6C483.8 292.7 483.2 295.8 481.4 298.2C480.5 299.4 479.3 300.2 478.1 300.7C476.8 301.2 475.6 301.4 474.3 301.3C473.3 301.3 472.4 301 471.6 300.6C470.8 300.2 470.1 299.7 469.6 299.2C468.5 298.1 467.8 296.9 467.4 295.9C467 294.9 466.8 294 466.7 293.5C466.7 293.2 466.6 293 466.6 292.8C466.6 292.7 466.6 292.6 466.6 292.6C466.7 292.6 466.7 293.9 467.6 295.8C468.1 296.8 468.7 297.9 469.8 298.9C470.4 299.4 471 299.9 471.8 300.2C472.5 300.6 473.4 300.8 474.3 300.8C476.6 300.9 479.3 300 480.9 297.8C482.5 295.6 483.1 292.5 483.3 289.4C483.5 285.4 482.9 281.5 480.6 278.8C479.5 277.5 478.2 276.5 476.8 276C476.1 275.8 475.4 275.7 474.7 275.7C474 275.7 473.3 275.8 472.7 276C471.5 276.4 470.4 277 469.7 277.7C468.9 278.4 468.4 279.1 468 279.8C467.3 281.2 467.1 282.1 467.1 282Z" fill="#263238"/>
    <path d="M464.399 293C464.599 295.2 465.499 297.1 466.699 298.6C467.899 300.1 470.199 301.6 472.099 301.5C472.099 301.5 476.799 301.9 479.399 297.9C481.699 294.2 482.299 286.6 480.399 282.1C479.099 279 476.299 276.1 472.899 276C468.499 275.9 465.699 279.1 464.799 282.3" fill="#E0E0E0"/>
    <path d="M464.699 282.2C464.699 282.2 464.799 281.4 465.499 280C465.899 279.3 466.399 278.6 467.199 277.8C467.999 277.1 468.999 276.4 470.299 276C470.899 275.8 471.699 275.7 472.399 275.7C473.099 275.7 473.899 275.7 474.699 276C476.199 276.5 477.699 277.6 478.799 278.9C479.899 280.3 480.799 282 481.199 283.9C481.599 285.8 481.799 287.8 481.599 289.8C481.399 292.9 480.799 296 478.999 298.4C478.099 299.6 476.899 300.4 475.699 300.9C474.399 301.4 473.199 301.6 471.899 301.5C470.899 301.5 469.999 301.2 469.199 300.8C468.399 300.4 467.699 299.9 467.199 299.4C466.099 298.3 465.399 297.1 464.999 296.1C464.599 295.1 464.399 294.2 464.299 293.7C464.299 293.4 464.199 293.2 464.199 293C464.199 292.9 464.199 292.8 464.199 292.8C464.299 292.8 464.299 294.1 465.199 296C465.699 297 466.299 298.1 467.399 299.1C467.999 299.6 468.599 300.1 469.399 300.4C470.099 300.8 470.999 301 471.899 301C474.199 301.1 476.899 300.2 478.499 298C480.099 295.8 480.699 292.7 480.899 289.6C481.099 285.6 480.499 281.7 478.199 279C477.099 277.7 475.799 276.7 474.399 276.2C473.699 276 472.999 275.9 472.299 275.9C471.599 275.9 470.899 276 470.299 276.2C469.099 276.6 467.999 277.2 467.299 277.9C466.499 278.6 465.999 279.3 465.599 280C464.999 281.4 464.799 282.3 464.699 282.2Z" fill="#263238"/>
    <path d="M468.6 281.1C466.4 280.7 464.2 282.2 463.2 284.2C462.3 286.2 462.5 288.6 463.2 290.7C463.6 291.8 464.1 292.8 464.9 293.6C465.7 294.4 466.7 295 467.9 295.1C469.6 295.2 471.1 294 472 292.7C473.6 290.5 474.1 287.6 473.4 285C472.9 283.3 471.7 281.5 469.9 281.4" fill="#E0E0E0"/>
    <path d="M469.9 281.4C469.9 281.4 470 281.4 470.3 281.4C470.6 281.4 470.9 281.5 471.4 281.8C472.3 282.3 473.3 283.5 473.7 285.2C474.1 286.9 474.1 289.2 473.1 291.3C472.6 292.4 471.9 293.4 470.9 294.2C469.9 295 468.4 295.5 467 295.1C465.6 294.7 464.6 293.7 463.9 292.6C463.2 291.5 462.9 290.3 462.6 289.1C462.1 286.8 462.5 284.5 463.6 283.1C464.7 281.6 466.1 281 467.1 280.9C467.6 280.8 468 280.9 468.2 280.9C468.5 281 468.6 281 468.6 281C468.6 281.1 468.1 280.9 467.1 281.1C466.2 281.3 464.8 281.9 463.9 283.3C462.9 284.7 462.6 286.8 463.1 289C463.3 290.1 463.7 291.2 464.4 292.3C465 293.3 466 294.2 467.2 294.6C468.4 295 469.7 294.5 470.6 293.8C471.6 293.1 472.2 292.1 472.7 291.1C473.7 289.1 473.8 286.9 473.4 285.3C473.1 283.6 472.2 282.5 471.4 281.9C470.5 281.5 469.9 281.5 469.9 281.4Z" fill="#263238"/>
    <path d="M473.599 297.5C473.499 297.5 473.399 297.2 473.099 296.8C472.799 296.4 472.199 295.9 471.399 295.7C470.599 295.5 469.899 295.4 469.299 295.4C468.699 295.4 468.399 295.3 468.399 295.2C468.399 295.1 468.699 295 469.299 295C469.899 295 470.699 294.9 471.599 295.2C472.499 295.5 473.099 296.1 473.499 296.6C473.699 297.1 473.699 297.5 473.599 297.5Z" fill="#263238"/>
    <path d="M474.4 279.7C474.4 279.7 474.2 280.1 473.8 280.4C473.3 280.8 472.6 281.2 471.7 281.3C470.8 281.5 470 281.4 469.4 281.2C468.8 281 468.5 280.8 468.6 280.7C468.7 280.6 470 281.1 471.6 280.8C473.3 280.6 474.3 279.6 474.4 279.7Z" fill="#263238"/>
    <path d="M198.901 104.8C199.001 100.4 195.001 97.1 190.901 95.5C186.801 93.9 182.301 93.3 178.701 90.9C175.501 88.7 173.301 85.4 170.601 82.6C164.001 75.9 153.601 73.1 144.401 75.6C135.301 78.1 127.701 85.8 125.401 94.9C123.801 101.1 124.901 108.4 129.801 112.6C135.501 117.4 143.901 116.3 151.201 114.8C158.501 113.3 166.701 111.8 172.801 116.1C176.501 118.7 178.601 122.9 180.801 126.7C183.001 130.6 185.801 134.5 190.101 136C194.301 137.5 200.101 134.9 200.201 130.5" fill="#263238"/>
    <path d="M198.6 107.2C198.1 110.9 200.8 114.1 203.4 116.7C206 119.3 209 122 209.5 125.7C210 130 206.9 134.2 207.8 138.4C208.4 141.1 210.4 143.1 211.7 145.5C213.5 148.9 213.6 153 212.5 156.7C211.4 160.4 209.7 168.6 207.1 171.4C200 179.3 188.8 186.1 178.4 188.5C168.1 190.9 157.3 190.9 146.8 190.2C138.1 189.7 128.2 190.1 121 178.1C117.3 171.9 115.4 163.7 113.4 156.8C111.7 150.8 110.2 144.4 112 138.5C113 135 115.1 131.9 116.1 128.5C117.4 124.2 116.9 119.5 117.4 115C118.5 105.3 124.5 96.2002 133.1 91.5002C141.7 86.7002 152.5 86.4002 161.4 90.6002" fill="#263238"/>
    <path d="M121.6 122.2C122.4 109.8 130.7 94.5001 143.1 95.9001L181.8 105.8C185.6 106.2 188.4 109.4 188.3 113.2L184 206.5C184.1 206.5 184.2 206.5 184.3 206.6C184.3 206.6 175.5 232.9 149.9 224.9C144.8 223.3 142.5 217.8 141.5 212.1H141.2C141.2 211.4 141.2 210.8 141.2 210.1C140.4 203.5 141 197.3 141 197.3C140.9 189.8 140.9 186.7 140.9 186.8C140.9 186.8 125 184.1 121.8 163.4C120.1 152.9 120.7 136 121.6 122.2Z" fill="#FFBE9D"/>
    <path d="M127.8 134.7C127.7 136.1 128.9 137.3 130.4 137.4C131.9 137.5 133.1 136.4 133.1 135C133.2 133.6 132 132.4 130.5 132.3C129.1 132.2 127.9 133.3 127.8 134.7Z" fill="#263238"/>
    <path d="M125.2 131C125.5 131.3 127.5 129.9 130.4 129.9C133.3 129.9 135.4 131.3 135.7 131C135.9 130.8 135.5 130.2 134.6 129.6C133.7 128.9 132.2 128.3 130.4 128.3C128.6 128.3 127.1 129 126.3 129.6C125.4 130.2 125.1 130.8 125.2 131Z" fill="#263238"/>
    <path d="M155.9 134.699C155.8 136.099 157 137.299 158.5 137.399C160 137.499 161.2 136.399 161.2 134.999C161.3 133.599 160.1 132.399 158.6 132.299C157.2 132.199 156 133.299 155.9 134.699Z" fill="#263238"/>
    <path d="M153.4 131.599C153.7 131.899 155.7 130.499 158.6 130.499C161.5 130.499 163.6 131.899 163.9 131.599C164.1 131.399 163.7 130.799 162.8 130.199C161.9 129.499 160.4 128.899 158.6 128.899C156.8 128.899 155.3 129.599 154.5 130.199C153.5 130.799 153.2 131.399 153.4 131.599Z" fill="#263238"/>
    <path d="M142.9 152.8C142.9 152.6 141.1 152.3 138.3 152C137.6 151.9 136.9 151.8 136.8 151.3C136.6 150.8 136.9 150 137.3 149.1C138 147.3 138.7 145.5 139.5 143.5C142.5 135.6 144.7 129.1 144.4 129C144.1 128.9 141.4 135.2 138.4 143.1C137.7 145.1 137 146.9 136.3 148.7C136 149.5 135.5 150.5 135.9 151.6C136.1 152.1 136.6 152.5 137.1 152.7C137.6 152.8 138 152.9 138.3 152.9C141.1 152.9 142.9 152.9 142.9 152.8Z" fill="#263238"/>
    <path d="M140.9 186.6C140.9 186.6 154.8 187.5 168.7 179.3C168.7 179.3 161.7 193.6 141 191.6L140.9 186.6Z" fill="#EB996E"/>
    <path d="M144.1 159.7C145.1 158.3 146.9 157.6 148.7 157.8C149.9 157.9 151.2 158.5 151.9 159.6C152.7 160.6 152.8 162 152.1 163C151.3 164.1 149.7 164.3 148.3 163.9C146.9 163.5 145.8 162.6 144.6 161.7C144.3 161.5 144 161.2 143.8 160.9C143.6 160.6 143.6 160.1 143.8 159.8" fill="#EB996E"/>
    <path d="M151.3 154.8C150.8 154.8 150.8 157.9 148.2 160.1C145.5 162.3 142.2 161.9 142.2 162.4C142.2 162.6 142.9 163 144.3 163C145.7 163.1 147.7 162.6 149.3 161.3C150.9 160 151.6 158.2 151.7 156.9C151.9 155.5 151.6 154.8 151.3 154.8Z" fill="#263238"/>
    <path d="M152.1 126.6C152.4 127.4 155.2 127 158.6 127.4C162 127.7 164.7 128.7 165.1 128C165.3 127.7 164.8 126.9 163.7 126.2C162.6 125.4 160.9 124.7 158.9 124.5C156.9 124.3 155 124.6 153.8 125.1C152.6 125.6 152 126.2 152.1 126.6Z" fill="#263238"/>
    <path d="M126.3 122.7C126.8 123.4 128.8 122.7 131.1 122.7C133.5 122.6 135.5 123.1 135.9 122.5C136.1 122.2 135.8 121.5 134.9 120.9C134 120.3 132.6 119.8 131 119.8C129.4 119.8 128 120.4 127.1 121.1C126.4 121.7 126.1 122.4 126.3 122.7Z" fill="#263238"/>
    <path d="M196.2 173.9C190.5 175 184.3 173.3 180 169.3C175.7 165.3 173.5 159.3 174.3 153.5C174.9 148.4 177.7 143.2 175.9 138.4C173.6 132 164.6 130.1 162.3 123.7C160.9 120 162.2 115.7 160.6 112.1C159.1 108.7 155.6 106.7 152.1 105.5C148.6 104.2 144.9 103.4 141.9 101.1C139 98.7998 137.1 94.4998 139 91.2998C154.5 93.1998 169.7 96.8998 184.3 102.3C187.7 103.6 191.2 105.1 193.2 108.1C195.3 111.3 195.2 115.4 195 119.2C194.1 137.8 193.3 156.4 192.4 175" fill="#263238"/>
    <path d="M194.9 181C194.9 181 195 180.9 195.2 180.8C195.5 180.6 195.8 180.4 196.1 180.1C196.9 179.5 198.1 178.5 199.5 177.3C200.9 176 202.7 174.4 204.4 172.2C206.1 170 207.7 167.2 208.3 163.7C208.9 160.3 208.5 156 205.6 152.8C204.2 151.2 202.4 150 200.8 148.7C199.1 147.4 197.8 145.7 197 143.6C195.5 139.4 196.2 134.5 195.6 129.5C194.9 124.5 193.2 119.4 189.7 115.2C188 113.1 185.9 111.4 183.6 110.2C181.2 109 178.7 108.4 176.3 107.8C173.9 107.1 171.7 106.2 169.9 104.7C168.1 103.2 166.6 101.4 165.3 99.5996C162.7 95.8996 160.8 91.9996 158.3 88.6996C157.1 87.0996 155.7 85.5996 154.2 84.3996C152.7 83.1996 151 82.2996 149.4 81.7996C146.1 80.6996 142.5 80.9996 140.2 82.6996C137.9 84.3996 137.1 86.9996 136.9 88.8996C136.8 90.8996 137.5 92.3996 138.1 93.1996C138.4 93.5996 138.7 93.8996 138.9 93.9996C139.1 94.1996 139.2 94.1996 139.2 94.1996C139.2 94.1996 139.1 94.0996 138.9 93.8996C138.7 93.6996 138.4 93.4996 138.1 93.0996C137.5 92.2996 136.9 90.8996 137.1 88.9996C137.3 87.1996 138.1 84.7996 140.3 83.1996C142.5 81.6996 145.8 81.2996 149 82.4996C150.6 82.9996 152.2 83.8996 153.6 85.0996C155 86.2996 156.3 87.6996 157.5 89.2996C159.9 92.4996 161.8 96.4996 164.4 100.3C165.7 102.2 167.3 104 169.2 105.6C171.1 107.2 173.4 108.2 175.9 108.9C178.3 109.6 180.8 110.1 183 111.3C185.2 112.4 187.2 114.1 188.9 116.1C192.2 120.1 193.9 125.1 194.6 129.9C195.2 134.7 194.5 139.7 196.1 144.2C196.9 146.4 198.4 148.3 200.1 149.7C201.8 151.1 203.6 152.2 204.9 153.7C207.6 156.7 208.1 160.7 207.5 164C207 167.4 205.5 170.2 203.9 172.3C202.3 174.5 200.6 176.2 199.2 177.5C197.8 178.8 196.7 179.8 195.9 180.5C195.3 180.7 194.9 181 194.9 181Z" fill="#455A64"/>
    <path d="M198.7 183.599C203 179.499 210.2 183.099 213.8 187.799C217.4 192.499 219.9 198.599 225.3 200.999C230.7 203.399 237.8 201.299 242.3 205.099C248.6 210.299 245.1 222.399 251.8 226.899C254.5 228.699 258.1 228.599 260.9 230.099C267.7 233.599 267.6 243.199 266.6 250.699C265.1 261.299 263.5 272.299 257.7 281.299C251.8 290.299 240.4 296.599 230.3 293.099C220.5 289.799 215.5 279.199 211.6 269.699C206.1 256.499 200.6 243.399 195.1 230.199C191.9 222.599 188.7 214.899 187.7 206.699C186.7 198.499 188.1 189.699 193.3 183.299" fill="#263238"/>
    <path d="M201.4 174.5C204.5 174.1 206.9 177.9 206 180.9C205.2 183.9 202.3 185.9 199.4 186.9C197.8 187.5 196 187.8 194.3 187.5C192.6 187.2 191 186 190.4 184.4C189.8 182.7 190.3 181.5 191.8 180.5C193.8 179.2 195 178.2 196.6 177.3C199.1 176.1 199 175.9 201.4 174.5Z" fill="#963EEE"/>
    <path d="M130.2 207.9L142.2 198.8L187.5 195.9L189.3 202L174.6 293.9L186.2 403.6H123L130.2 207.9Z" fill="#963EEE"/>
    <g opacity="0.3">
        <g opacity="0.3">
            <path opacity="0.3" d="M178.7 364.7C177.3 363.2 174.9 361 172.8 361C157.7 360.7 142.2 359.2 127.1 358.8L125.9 403.6C129.5 397.2 132.9 390.6 133.9 383.3C134.3 380.1 134.9 376.3 137.8 375C139.4 374.2 141.4 374.5 143.1 374.9C148.6 376 154 377.4 159.6 377.7C165.2 378 171 377.2 175.7 374.2C177.3 373.2 178.8 371.8 179.5 370.1C180.1 368.3 180 366.1 178.7 364.7Z" fill="black"/>
        </g>
    </g>
    <path d="M140 209.7L138.6 196.6C138.4 194.3 140.1 192.2 142.4 192L184.1 188.2C185.2 188.1 186.2 189 186.2 190.1L186.7 205.7L174.6 226.2L162.2 230.2H147L138.3 220.9L140 209.7Z" fill="#963EEE"/>
    <path d="M180.5 200.8C180.5 200.8 179.9 200.7 178.8 200.6C177.7 200.5 176.2 200.4 174.3 200.5C172.4 200.6 170.1 200.9 167.6 201.5C165.1 202 162.4 202.8 159.5 203.5C156.6 204.2 153.9 204.8 151.3 205C148.7 205.2 146.4 205 144.5 204.5C142.6 204 141.2 203.3 140.3 202.7C139.8 202.4 139.5 202.2 139.3 202C139.1 201.8 139 201.7 139 201.7C139 201.7 139.5 202 140.4 202.6C141.3 203.1 142.8 203.8 144.6 204.2C146.5 204.6 148.8 204.8 151.3 204.5C153.8 204.3 156.6 203.7 159.4 203C162.3 202.3 165 201.6 167.5 201.1C170 200.6 172.3 200.3 174.3 200.2C176.2 200.1 177.8 200.3 178.9 200.4C179.4 200.5 179.8 200.6 180.1 200.6C180.4 200.7 180.5 200.7 180.5 200.8Z" fill="#263238"/>
    <g opacity="0.3">
        <g opacity="0.3">
            <path opacity="0.3" d="M141 202.8C139.9 205.9 139.9 209.7 142.1 212C143.9 213.9 146.9 214.4 149.5 213.9C152.1 213.4 154.5 212 156.8 210.6C162.5 207.2 168.4 203.6 174.9 202.2C175.3 202.1 175.8 202 176.1 201.7C176.4 201.4 176.5 200.8 176.1 200.6C175.9 200.5 175.7 200.5 175.6 200.4C169.8 199.8 164.1 201.5 158.4 202.7C152.7 204 146.7 204.9 141.2 202.9" fill="black"/>
        </g>
    </g>
    <path d="M148.9 191.6C148.9 191.7 148.1 191.9 147.5 193C146.8 194.1 146.9 195.9 146.9 197.8C147 201.7 147.6 204.8 147.5 204.8C147.4 204.8 147.2 204.1 146.9 202.8C146.6 201.5 146.4 199.8 146.3 197.8C146.3 196.8 146.3 195.9 146.4 195C146.5 194.1 146.7 193.3 147.1 192.8C147.5 192.2 147.9 191.9 148.3 191.8C148.7 191.5 148.9 191.5 148.9 191.6Z" fill="#263238"/>
    <path d="M160 203C159.8 203 160.2 200.1 159.7 196.6C159.2 193.1 158.1 190.5 158.2 190.4C158.3 190.4 158.6 191 159.1 192.1C159.5 193.2 160 194.8 160.2 196.5C160.5 198.3 160.4 199.9 160.3 201.1C160.2 202.3 160 203 160 203Z" fill="#263238"/>
    <path d="M173.4 189.3C173.5 189.3 173.8 189.8 174.2 190.8C174.6 191.8 174.9 193.3 174.7 195C174.6 196.7 174.1 198.1 173.6 199.1C173.1 200.1 172.7 200.6 172.6 200.5C172.4 200.4 174 198.2 174.2 195C174.5 191.8 173.2 189.4 173.4 189.3Z" fill="#263238"/>
    <path d="M114.9 213.8C114.9 213.8 100.7 223.3 96.9004 240.5C94.0004 254 86.0004 325.5 86.0004 325.5L71.9004 352.9L81.1004 374.8C89.0004 375.4 96.8004 373.1 103.2 368.5L109.4 364L120.7 347.2L114.9 213.8Z" fill="#EBEBEB"/>
    <path d="M139 201.2L114.9 213.8L109.2 232.5L104.2 286.7L113.7 350.2L97 403.4L125.8 403.7L126.5 372.5L129.4 271.5L132.2 207.1L139 201.2Z" fill="#EBEBEB"/>
    <path d="M127.3 285.401C127.3 285.401 127.1 285.101 126.9 284.601C126.6 284.101 126.2 283.301 125.7 282.401C125.2 281.401 124.7 280.201 124.1 278.801C123.8 278.101 123.6 277.301 123.3 276.501C123 275.701 122.7 274.801 122.4 273.801C120.1 266.301 118.6 255.501 118.9 243.601C118.9 242.701 119 241.801 119 240.901V240.701L119.1 240.601C120.5 240.001 121.9 239.401 123.3 238.801L123.2 239.201C121.8 238.001 120.3 236.901 119 235.801L118.9 235.701V235.601C118.7 231.101 119.8 227.101 120.8 223.501C121.9 220.001 123 216.901 124 214.401C125 211.901 125.9 210.001 126.5 208.601C126.8 207.901 127.1 207.401 127.2 207.101C127.4 206.801 127.5 206.601 127.5 206.601C127.5 206.601 127.4 206.801 127.3 207.101C127.1 207.501 126.9 208.001 126.6 208.601C126 209.901 125.2 211.901 124.2 214.401C123.2 216.901 122.1 220.001 121.1 223.501C120.1 227.001 119.1 231.001 119.3 235.401L119.2 235.201C120.6 236.301 122 237.401 123.4 238.601L123.7 238.901L123.3 239.101C121.9 239.701 120.5 240.301 119.1 240.901L119.3 240.701C119.2 241.601 119.2 242.501 119.2 243.401C118.9 255.301 120.3 266.001 122.5 273.501C122.7 274.401 123 275.301 123.3 276.101C123.6 276.901 123.8 277.701 124.1 278.401C124.7 279.801 125.2 281.101 125.6 282.101C126.1 283.001 126.4 283.801 126.7 284.301C127.2 285.101 127.4 285.401 127.3 285.401Z" fill="#263238"/>
    <path d="M108.4 323.3C108.4 323.3 108.3 323 108.2 322.5C108.1 321.9 107.9 321.2 107.6 320.2C107.4 319.2 107.1 318 106.8 316.6C106.5 315.2 106.2 313.6 105.9 311.8C105.6 310 105.2 308 105 305.9C104.7 303.8 104.5 301.5 104.2 299.1C103.8 294.3 103.5 289 103.5 283.5C103.5 277.9 103.8 272.6 104.3 267.9C104.6 265.5 104.8 263.2 105.1 261.1C105.4 259 105.7 257 106 255.2C106.3 253.4 106.7 251.8 107 250.4C107.3 249 107.6 247.8 107.8 246.8C108 245.9 108.2 245.1 108.4 244.5C108.5 244 108.6 243.7 108.6 243.7C108.6 243.7 108.6 244 108.5 244.5C108.4 245.1 108.2 245.8 108 246.8C107.8 247.8 107.5 249 107.3 250.4C107 251.8 106.7 253.4 106.4 255.2C106.1 257 105.8 259 105.5 261.1C105.2 263.2 105 265.5 104.7 267.9C104.3 272.7 104 278 104 283.5C104 289 104.3 294.3 104.7 299.1C104.9 301.5 105.1 303.8 105.4 305.9C105.7 308 106 310 106.3 311.8C106.6 313.6 106.9 315.2 107.2 316.6C107.5 318 107.7 319.2 107.9 320.2C108.1 321.2 108.3 321.9 108.4 322.5C108.4 323 108.4 323.3 108.4 323.3Z" fill="#263238"/>
    <path d="M114.9 372.101C115 372.101 114.6 373.101 113.7 374.501C112.9 375.901 111.6 377.901 110 379.901C108.4 381.901 106.7 383.501 105.5 384.601C104.2 385.701 103.4 386.301 103.4 386.201C103.3 386.101 104.1 385.501 105.3 384.301C106.5 383.201 108.1 381.501 109.7 379.601C111.3 377.701 112.6 375.801 113.5 374.401C114.4 373.001 114.9 372.101 114.9 372.101Z" fill="#263238"/>
    <path d="M225.7 212.3C236 216.3 243.6 225.1 246.1 235.9C254 270.7 267.5 316.9 267.7 331.8C268 350.8 259.7 363.8 248.8 366.2C240.2 368.1 162.5 363.8 162.5 363.8L158.9 334.8L221.9 325.5L213.3 277.3L221.8 210.6L225.7 212.3Z" fill="#EBEBEB"/>
    <path d="M221.7 210.7L204.3 203.6L186 192.8L185.9 195.9C188.1 199.7 188.9 204.3 188.1 208.7L172.8 288.4L176.3 346.6L183.4 403.6H238.6L213.2 344L222.1 263.6L221.7 210.7Z" fill="#EBEBEB"/>
    <path d="M237.9 366.7C237.9 366.7 237.8 366.7 237.5 366.8C237.2 366.8 236.9 366.9 236.4 366.9C235.4 367 234 367 232.1 367C228.4 367 222.9 366.9 216.2 366.7C202.7 366.2 183.8 365.3 162.6 364.1H162.4V363.9C162 360.4 161.5 356.8 161 353.1C160.2 346.8 159.5 340.8 158.7 334.9V334.7H158.9C178.1 331.9 194.9 329.5 207 327.7C213 326.9 217.8 326.2 221.1 325.7C222.7 325.5 224 325.3 224.9 325.2C225.3 325.1 225.6 325.1 225.9 325.1C226.1 325.1 226.2 325.1 226.2 325.1C226.2 325.1 226.1 325.1 225.9 325.2C225.7 325.2 225.3 325.3 224.9 325.4C224 325.5 222.7 325.7 221.1 326C217.8 326.5 213 327.2 207 328.2C195 330 178.2 332.5 159 335.4L159.2 335.1C159.9 340.9 160.7 347 161.5 353.3C162 357 162.4 360.6 162.9 364.1L162.7 363.9C184 365.1 202.8 366.1 216.3 366.7C223.1 367 228.5 367.1 232.2 367.2C234.1 367.2 235.5 367.2 236.5 367.1C237 367.1 237.3 367.1 237.6 367C237.7 366.7 237.8 366.7 237.9 366.7Z" fill="#263238"/>
    <path d="M212.701 272.6C212.701 272.6 212.801 272.8 212.801 273.1C212.901 273.5 213.001 274 213.101 274.6C213.401 276 213.701 277.9 214.101 280.3C214.901 285.2 216.101 291.8 217.401 299.1C218.601 306.4 219.701 313 220.501 317.9C220.901 320.3 221.201 322.2 221.401 323.6C221.501 324.2 221.601 324.7 221.601 325.2C221.601 325.6 221.701 325.7 221.601 325.7C221.601 325.7 221.501 325.5 221.501 325.2C221.401 324.8 221.301 324.3 221.201 323.7C220.901 322.3 220.601 320.4 220.101 318C219.201 313.2 218.101 306.5 216.801 299.2C215.501 291.9 214.401 285.2 213.701 280.4C213.301 278 213.001 276.1 212.801 274.7C212.701 274.1 212.601 273.6 212.601 273.1C212.701 272.7 212.701 272.6 212.701 272.6Z" fill="#263238"/>
    <path d="M194.001 198.5C194.001 198.5 194.001 198.6 194.101 198.7C194.101 198.9 194.201 199 194.301 199.3C194.401 199.8 194.701 200.6 194.901 201.6C195.301 203.6 195.901 206.5 196.201 210.2C196.601 213.9 196.701 218.3 196.501 223.3C196.301 228.3 195.801 233.8 195.101 239.6V239.8H194.901C193.101 240.1 191.201 240.5 189.201 240.9L189.401 240.5C189.701 241.4 190.101 242.3 190.301 243.3C192.201 250.1 191.301 256.9 189.701 262.6C188.001 268.4 185.401 273.1 183.001 277C180.601 280.9 178.501 283.8 177.001 285.9C176.301 286.9 175.701 287.7 175.301 288.2C175.101 288.4 175.001 288.6 174.801 288.8C174.701 288.9 174.601 289 174.601 289C174.601 289 174.601 288.9 174.701 288.8C174.801 288.6 174.901 288.4 175.101 288.2C175.501 287.6 176.001 286.8 176.701 285.8C178.101 283.7 180.201 280.7 182.501 276.9C184.801 273 187.401 268.3 189.001 262.6C190.601 256.9 191.401 250.2 189.601 243.6C189.301 242.6 189.001 241.7 188.701 240.9L188.601 240.6L188.901 240.5C190.901 240.1 192.801 239.8 194.601 239.5L194.401 239.7C195.201 233.9 195.701 228.4 195.901 223.4C196.101 218.4 196.001 214 195.701 210.4C195.401 206.7 194.901 203.8 194.501 201.8C194.301 200.8 194.101 200 194.001 199.5C194.001 199.3 193.901 199.1 193.901 198.9C194.001 198.5 194.001 198.5 194.001 198.5Z" fill="#263238"/>
    <path d="M194 280.2V267.5C194 267.5 194.2 264.4 191.5 265C188.9 265.7 189.4 270.6 189.4 270.6C189.4 270.6 188.9 289.9 190.1 289.7C191.3 289.5 191.7 288 191.7 288V280.6L194 280.2Z" fill="#963EEE"/>
    <path d="M205 281C205 281.1 202 281.3 198.2 281.3C194.4 281.3 191.4 281.2 191.4 281C191.4 280.8 194.4 280.7 198.2 280.7C201.9 280.7 205 280.8 205 281Z" fill="#263238"/>
    <path d="M230.1 219.8C230.1 219.8 229.6 220 228.7 220.3C227.8 220.6 226.5 221.1 224.9 221.9C221.8 223.5 217.8 226.3 214.7 230.6C213.9 231.7 213.2 232.8 212.7 233.9C212.2 235 211.8 236.2 211.5 237.3C210.9 239.5 210.6 241.6 210.5 243.3C210.4 245 210.3 246.4 210.3 247.4C210.3 248.4 210.3 248.9 210.3 248.9C210.3 248.9 210.2 248.4 210.1 247.4C210 246.4 210 245 210.1 243.2C210.2 241.4 210.4 239.4 211 237.1C211.3 236 211.7 234.8 212.2 233.6C212.8 232.4 213.4 231.3 214.2 230.2C217.4 225.8 221.5 223 224.7 221.5C226.3 220.7 227.6 220.3 228.6 220C229.6 219.9 230.1 219.8 230.1 219.8Z" fill="#263238"/>
    <path d="M6 325.5L97 359.2L173.6 370.9L82.5 326.4L6 325.5Z" fill="#263238"/>
    <path d="M80.4004 353.1H75.9004C75.0004 352.2 73.6004 351.3 71.9004 350.8C70.9004 350.5 69.8004 351.1 68.9004 352C70.9004 348.7 73.1004 345 73.5004 344C74.3004 342 72.5004 340.6 69.6004 340.6C66.7004 340.6 53.8004 358.8 53.8004 358.8C53.8004 358.8 61.8004 344.1 62.6004 341.9C64.5004 336.3 58.4004 335.9 56.2004 338.6C53.4004 342 42.3004 358.8 42.3004 358.8C42.3004 358.8 40.2004 362.2 41.6004 365.5C43.1004 368.8 47.3004 367.5 47.3004 367.5C47.3004 367.5 47.3004 370.3 50.3004 372C53.6004 373.8 57.9004 371.7 57.9004 371.7L74.5004 375.4C74.5004 375.4 77.1004 375.1 80.5004 374.8C88.9004 374 95.7004 367.5 96.9004 359.1L80.4004 353.1Z" fill="#FFBE9D"/>
    <path d="M68.2003 370.3C68.1003 370.3 68.7003 369.2 69.7003 367.6C70.7003 366 72.1003 363.7 73.6003 361.3C74.4003 360.1 75.1003 358.9 75.7003 357.8C76.3003 356.8 76.3003 355.6 76.1003 354.7C75.6003 352.9 74.6003 352.1 74.7003 352.1C74.7003 352.1 75.0003 352.2 75.3003 352.6C75.7003 353 76.1003 353.7 76.4003 354.6C76.7003 355.5 76.8003 356.8 76.1003 358C75.5003 359.1 74.8003 360.3 74.0003 361.6C72.5003 364.1 71.0003 366.3 69.9003 367.9C68.9003 369.4 68.2003 370.4 68.2003 370.3Z" fill="#EB996E"/>
    <path d="M76.9008 372C76.8008 372 77.1008 371 77.8008 369.4C78.2008 368.6 78.6008 367.7 79.0008 366.7C79.4008 365.7 79.9008 364.6 80.2008 363.3C80.5008 362.1 80.3008 360.9 79.7008 360C79.4008 359.6 78.9008 359.4 78.5008 359.2C78.1008 359 77.6008 358.9 77.3008 358.9C76.6008 358.9 75.9008 359.3 75.5008 359.5C75.1008 359.7 74.8008 359.8 74.8008 359.8C74.8008 359.8 75.0008 359.6 75.4008 359.3C75.6008 359.2 75.8008 359 76.1008 358.9C76.4008 358.8 76.8008 358.6 77.2008 358.5C77.7008 358.5 78.1008 358.6 78.6008 358.8C79.1008 359 79.6008 359.3 80.0008 359.7C80.8008 360.7 81.0008 362.1 80.7008 363.4C80.4008 364.7 79.9008 365.8 79.4008 366.8C78.9008 367.8 78.5008 368.7 78.1008 369.5C77.4008 371 77.0008 372 76.9008 372Z" fill="#EB996E"/>
    <path d="M80 356.199C80 356.199 80.3 356.199 80.7 356.399C81.1 356.599 81.8001 356.899 82.4001 357.399C83.8001 358.399 85.4 360.299 86 362.899C86.6 365.499 85.9 367.899 85.1 369.399C84.7 370.199 84.3 370.699 84 371.099C83.7 371.499 83.5 371.599 83.5 371.599C83.4 371.499 84.2001 370.799 84.9001 369.299C85.6001 367.799 86.2 365.499 85.6 362.999C85 360.499 83.6001 358.699 82.3001 357.599C80.9001 356.699 79.9 356.299 80 356.199Z" fill="#EB996E"/>
    <path d="M158.6 336L148.2 333.6L138.2 324.2C137 323.1 135.4 322.4 133.7 322.3L115.5 321.3C113.7 321.2 111.9 321.8 110.5 323L97.5 334L154.2 361.6L162 362.3L158.6 336Z" fill="#FFBE9D"/>
    <path d="M127.8 331.1C127.8 331.2 126.5 330.9 124.3 330.7C122.2 330.5 119.1 330.2 116.1 331.6C114.6 332.3 113.3 333.2 112.2 334.1C111.1 335 110 335.8 109.1 336.4C108.2 337 107.4 337.4 106.9 337.7C106.3 338 106 338.1 106 338C106 337.9 107.2 337.4 108.9 336.1C109.8 335.5 110.8 334.6 111.9 333.7C113 332.8 114.3 331.9 115.9 331.2C117.4 330.5 119.1 330.2 120.5 330.2C122 330.2 123.3 330.3 124.4 330.5C125.5 330.7 126.3 330.9 126.9 331C127.5 331 127.8 331.1 127.8 331.1Z" fill="#EB996E"/>
    <path d="M131.5 341.2C131.5 341.3 130.8 341 129.5 340.8C128.3 340.7 126.6 340.8 124.8 341.5C123 342.1 121.6 343.1 120.5 343.7C119.4 344.4 118.8 344.7 118.7 344.7C118.7 344.6 119.2 344.1 120.3 343.4C121.3 342.7 122.8 341.7 124.6 341C126.4 340.3 128.3 340.2 129.5 340.5C130.9 340.7 131.5 341.2 131.5 341.2Z" fill="#EB996E"/>
    <path d="M154.9 342.9C154.8 343 153.3 340.8 151.4 338.2C149.5 335.6 147.8 333.6 147.9 333.5C148 333.4 149.9 335.3 151.8 337.9C153.7 340.5 155 342.8 154.9 342.9Z" fill="#EB996E"/>
    <path d="M126.3 322.3L149.3 300.8C150.3 299.9 150.2 298.3 149.1 297.4C148.3 296.8 147.1 296.8 146.3 297.5L119.3 321.7" fill="#963EEE"/>
    <g opacity="0.3">
        <path opacity="0.3" d="M126.3 322.3L149.3 300.8C150.3 299.9 150.2 298.3 149.1 297.4C148.3 296.8 147.1 296.8 146.3 297.5L119.3 321.7" fill="black"/>
    </g>
    <path d="M314.5 115.6C314.1 115.5 300.2 111.8 301 125.9C301.8 140 315.8 136.2 315.8 135.8C315.9 135.4 314.5 115.6 314.5 115.6Z" fill="#FFBE9D"/>
    <path d="M311.2 130.7C311.1 130.7 311 130.9 310.6 131.1C310.2 131.3 309.5 131.5 308.8 131.2C307.3 130.7 305.9 128.5 305.7 125.9C305.6 124.6 305.8 123.4 306.2 122.3C306.6 121.2 307.2 120.5 307.9 120.3C308.6 120.1 309.2 120.5 309.4 120.9C309.6 121.3 309.5 121.6 309.6 121.6C309.6 121.6 309.9 121.3 309.7 120.8C309.6 120.5 309.4 120.2 309.1 119.9C308.7 119.6 308.2 119.5 307.7 119.6C306.6 119.7 305.7 120.8 305.3 121.9C304.8 123 304.6 124.4 304.7 125.9C305 128.7 306.6 131.3 308.6 131.8C309.6 132 310.4 131.7 310.8 131.3C311.2 131.1 311.3 130.7 311.2 130.7Z" fill="#EFA077"/>
    <path d="M349.7 65.2002C356.9 65.2002 364.2 65.2002 373.1 69.9002C378.8 72.9002 382.3 77.5002 385.2 83.2002C387.5 87.5002 388.8 93.2002 388.5 98.1002C388.2 103 388.2 106.4 386.3 110.9" fill="#263238"/>
    <path d="M346.9 66.2995C368.1 64.7995 386.4 80.9995 387.5 102.199C388.4 119.899 389.2 138.999 389 148.599C388.6 169.299 367.9 172.299 367.9 172.299C367.9 172.299 368.4 178.399 368.9 185.999C369.9 201.299 358.1 214.399 342.8 214.999C327.8 215.599 315.1 203.799 314.6 188.799L311.5 105.499C310.7 85.0995 326.4 67.6995 346.9 66.2995Z" fill="#FFBE9D"/>
    <path d="M367.9 172.3C367.9 172.3 355.2 173 341.4 164.1C341.4 164.1 347.6 179.1 368.3 177.4L367.9 172.3Z" fill="#EFA077"/>
    <path d="M379.599 113.699C379.599 115.299 378.399 116.599 376.699 116.699C375.099 116.799 373.699 115.599 373.699 113.999C373.699 112.399 374.899 111.099 376.599 110.999C378.199 110.899 379.499 112.099 379.599 113.699Z" fill="#263238"/>
    <path d="M382.499 109.499C382.099 109.899 379.899 108.199 376.699 108.199C373.499 108.099 371.199 109.799 370.799 109.399C370.599 109.199 370.999 108.499 371.999 107.799C372.999 107.099 374.699 106.399 376.699 106.399C378.699 106.399 380.299 107.199 381.299 107.899C382.299 108.699 382.599 109.399 382.499 109.499Z" fill="#263238"/>
    <path d="M348.5 113.7C348.5 115.3 347.3 116.6 345.6 116.7C344 116.8 342.6 115.6 342.6 114C342.6 112.4 343.8 111.1 345.5 111C347.1 110.9 348.4 112.1 348.5 113.7Z" fill="#263238"/>
    <path d="M351.199 109.9C350.799 110.3 348.599 108.6 345.399 108.6C342.199 108.5 339.899 110.2 339.499 109.8C339.299 109.6 339.699 108.9 340.699 108.2C341.699 107.5 343.399 106.8 345.399 106.8C347.399 106.8 348.999 107.6 349.999 108.3C351.099 109 351.399 109.7 351.199 109.9Z" fill="#263238"/>
    <path d="M362.599 133.499C362.599 133.299 364.599 132.999 367.799 132.599C368.599 132.499 369.399 132.399 369.499 131.799C369.699 131.199 369.399 130.299 368.999 129.399C368.299 127.399 367.499 125.399 366.699 123.199C363.399 114.399 361.099 107.099 361.399 106.999C361.799 106.899 364.699 113.899 367.899 122.699C368.699 124.899 369.399 126.899 370.099 128.899C370.399 129.799 370.899 130.899 370.499 132.099C370.299 132.699 369.699 133.099 369.199 133.299C368.699 133.499 368.199 133.499 367.799 133.499C364.599 133.699 362.599 133.699 362.599 133.499Z" fill="#263238"/>
    <path d="M353.2 135.6C353.7 135.6 353.7 139 356.6 141.5C359.5 144 363.2 143.6 363.2 144.1C363.2 144.3 362.4 144.8 360.8 144.8C359.3 144.8 357.1 144.3 355.3 142.8C353.5 141.3 352.8 139.3 352.6 137.9C352.6 136.5 353 135.6 353.2 135.6Z" fill="#263238"/>
    <path d="M352.2 97.3992C351.9 98.2992 348.7 97.7992 345 98.1992C341.3 98.4992 338.3 99.5992 337.8 98.7992C337.6 98.3992 338.1 97.5992 339.3 96.7992C340.5 95.9992 342.4 95.1992 344.7 94.9992C346.9 94.7992 349 95.0992 350.3 95.6992C351.6 96.2992 352.3 96.9992 352.2 97.3992Z" fill="#263238"/>
    <path d="M382 98.1995C381.4 98.8995 379.3 98.1995 376.6 98.0995C374 97.9995 371.7 98.4995 371.2 97.7995C371 97.3995 371.3 96.6995 372.3 95.9995C373.3 95.2995 374.9 94.7995 376.7 94.8995C378.5 94.9995 380.1 95.5995 381 96.3995C382 97.0995 382.3 97.8995 382 98.1995Z" fill="#263238"/>
    <path d="M311.7 112.1C311.7 112.1 312.6 116.9 312.8 119C312.9 119.8 312.8 128.5 314.9 129C316.7 129.4 320.4 127.7 322 124.1C323.6 120.5 326.7 111.8 326.4 107.8C325.9 102.4 325.7 96.8998 326.8 91.5998C327.9 86.2998 330.4 81.0998 334.7 77.7998C339 74.4998 345.1 73.2998 349.9 75.6998C352.9 77.1998 355.1 79.7998 357.9 81.6998C360.4 83.3998 363.5 84.3998 366.4 83.8998C369.4 83.4998 372.2 81.3998 373 78.4998C373.9 75.2998 372.3 71.8998 369.7 69.7998C367.2 67.6998 363.9 66.7998 360.7 66.0998C351.8 64.2998 342.3 64.6998 333.9 67.9998C325.4 71.2998 317.9 77.5998 314.3 85.8998C310.1 95.6998 310.6 101.6 311.7 112.1Z" fill="#263238"/>
    <path d="M359 113.8C358.9 113.8 359 112.5 358.5 110.4C358 108.3 356.6 105.2 353.4 102.8C351.8 101.6 349.8 100.6 347.6 100.2C345.3 99.7996 342.8 99.8996 340.3 100.8C339.1 101.2 337.9 101.9 336.8 102.7C335.7 103.5 334.7 104.5 333.9 105.6C332.2 107.9 331.2 110.8 331.2 113.7C331.2 116.7 332.2 119.6 333.9 121.8C334.7 122.9 335.7 123.9 336.8 124.7C337.9 125.5 339.1 126.2 340.3 126.6C342.7 127.5 345.3 127.6 347.6 127.2C349.9 126.8 351.9 125.8 353.4 124.6C356.6 122.2 358 119.1 358.5 117C359 115.1 358.9 113.8 359 113.8C359 113.8 359 113.9 359 114C359 114.2 359 114.4 359 114.7C359 115 359 115.4 358.9 115.8C358.8 116.2 358.8 116.7 358.6 117.3C358.1 119.5 356.7 122.7 353.5 125.2C351.9 126.4 349.9 127.5 347.5 127.9C345.2 128.3 342.5 128.3 340 127.3C338.7 126.9 337.5 126.2 336.4 125.4C335.3 124.6 334.2 123.6 333.4 122.4C331.6 120.1 330.6 117.1 330.6 114C330.6 110.9 331.6 107.9 333.4 105.6C334.3 104.4 335.3 103.4 336.4 102.6C337.5 101.8 338.8 101.1 340 100.7C342.5 99.7996 345.2 99.6996 347.5 100.1C349.8 100.5 351.9 101.6 353.5 102.8C356.7 105.3 358.1 108.5 358.6 110.7C358.8 111.2 358.8 111.7 358.9 112.2C359 112.6 359 113 359 113.3C359 113.6 359 113.8 359 114C359 113.8 359 113.8 359 113.8Z" fill="#263238"/>
    <path d="M395.299 113.8C395.199 113.8 395.299 112.5 394.799 110.4C394.299 108.3 392.899 105.2 389.699 102.8C388.099 101.6 386.099 100.6 383.899 100.2C381.599 99.7996 379.099 99.8996 376.599 100.8C375.399 101.2 374.199 101.9 373.099 102.7C371.999 103.5 370.999 104.5 370.199 105.6C368.499 107.9 367.499 110.8 367.499 113.7C367.499 116.7 368.499 119.6 370.199 121.8C370.999 122.9 371.999 123.9 373.099 124.7C374.199 125.5 375.399 126.2 376.599 126.6C378.999 127.5 381.599 127.6 383.899 127.2C386.199 126.8 388.199 125.8 389.699 124.6C392.899 122.2 394.299 119.1 394.799 117C395.299 115.1 395.199 113.8 395.299 113.8C395.299 113.8 395.299 113.9 395.299 114C395.299 114.2 395.299 114.4 395.299 114.7C395.299 115 395.299 115.4 395.199 115.8C395.099 116.2 395.099 116.7 394.899 117.3C394.399 119.5 392.999 122.7 389.799 125.2C388.199 126.4 386.199 127.5 383.799 127.9C381.499 128.3 378.799 128.3 376.299 127.3C374.999 126.9 373.799 126.2 372.699 125.4C371.599 124.6 370.499 123.6 369.699 122.4C367.899 120.1 366.899 117.1 366.899 114C366.899 110.9 367.899 107.9 369.699 105.6C370.599 104.4 371.599 103.4 372.699 102.6C373.799 101.8 375.099 101.1 376.299 100.7C378.799 99.7996 381.499 99.6996 383.799 100.1C386.099 100.5 388.199 101.6 389.799 102.8C392.999 105.3 394.399 108.5 394.899 110.7C395.099 111.2 395.099 111.7 395.199 112.2C395.299 112.6 395.299 113 395.299 113.3C395.299 113.6 395.299 113.8 395.299 114C395.299 113.8 395.299 113.8 395.299 113.8Z" fill="#263238"/>
    <path d="M367.6 112.3C367.6 112.4 367.1 112.1 366.3 111.9C365.5 111.6 364.4 111.4 363.1 111.5C361.8 111.6 360.7 112 360 112.3C359.3 112.7 358.8 113 358.8 112.9C358.8 112.9 359.1 112.4 359.8 112C360.5 111.5 361.7 111.1 363 111C364.3 110.9 365.6 111.2 366.4 111.6C367.2 111.9 367.6 112.3 367.6 112.3Z" fill="#263238"/>
    <path d="M311 101.1C311 101.1 321.1 104.8 326.4 107L326.1 101.8L311.3 96C311.3 96 311 99.9 311 101.1Z" fill="#EBEBEB"/>
    <path d="M311.899 93C311.999 92.9 315.199 94.1 319.099 95.7C322.999 97.4 326.099 98.8 326.099 98.9C325.999 99 322.799 97.8 318.899 96.2C314.999 94.6 311.899 93.2 311.899 93Z" fill="#EBEBEB"/>
    <path d="M315.001 202.2L314.201 177.7C314.201 177.7 319.101 200.1 344.601 199.8C369.001 199.5 368.501 180 368.501 180L369.401 189.9V229.8L353.501 294.9L333.201 297.5L310.801 208.5L315.001 202.2Z" fill="#963EEE"/>
    <path d="M366.201 194.3C366.201 194.3 366.101 194.5 365.901 194.8C365.701 195.1 365.401 195.6 364.901 196.2C364.001 197.4 362.501 199 360.401 200.6C358.201 202.2 355.301 203.6 351.901 204.6C348.501 205.5 344.501 205.9 340.501 205.4C336.401 204.9 332.701 203.6 329.501 202.1C326.301 200.6 323.601 198.9 321.501 197.3C319.401 195.7 317.701 194.3 316.601 193.3C316.001 192.8 315.601 192.4 315.401 192.1C315.101 191.8 315.001 191.7 315.001 191.7C315.001 191.7 315.201 191.8 315.501 192.1C315.801 192.4 316.301 192.8 316.801 193.2C317.901 194.2 319.601 195.5 321.701 197.1C323.901 198.6 326.501 200.3 329.701 201.8C332.901 203.3 336.601 204.5 340.601 205C344.601 205.5 348.501 205.2 351.901 204.3C355.301 203.4 358.101 202 360.301 200.5C362.501 199 364.001 197.4 364.901 196.3C365.701 195 366.201 194.3 366.201 194.3Z" fill="#263238"/>
    <path d="M348.5 403.601L348.1 287.901L315.2 203.501L314.1 178.101L294.1 193.201C294.1 193.201 264.9 293.501 264.5 290.001C264.1 286.501 264.5 403.601 264.5 403.601H348.5Z" fill="#EBEBEB"/>
    <path d="M347.7 403.3C347.6 403.3 347.4 377.2 347.4 345.1C347.4 312.9 347.5 286.9 347.7 286.9C347.8 286.9 348 313 348 345.1C348 377.2 347.9 403.3 347.7 403.3Z" fill="#263238"/>
    <path d="M294.5 209.7L298.5 212.8L295.7 231.5L343.6 281.7L300.1 224.5L303.8 209.7H294.5Z" fill="#E0E0E0"/>
    <path d="M350.3 344.301L276.7 322.701L274.3 266.801L294.5 193.101C294.5 193.101 246.4 217.101 243.1 232.401C239.8 247.701 231.9 284.801 231.1 311.701C230.3 335.701 230.2 351.701 235.7 359.401C251.4 381.301 354.8 385.301 396.2 359.401" fill="#EBEBEB"/>
    <path d="M344.6 282.9C344.6 282.9 344.5 282.8 344.4 282.6C344.2 282.4 344 282.1 343.7 281.8C343.1 281 342.3 280 341.2 278.6C339 275.8 335.9 271.7 332.1 266.8C324.4 256.8 313.9 242.9 302.2 227.6C301.4 226.6 300.7 225.6 299.9 224.6L299.8 224.5V224.4C301.1 219.3 302.3 214.3 303.5 209.6L303.7 209.9C300.5 209.9 297.4 209.9 294.4 209.9H294.2V209.7C294.2 203.6 294.2 198.1 294.2 193.2V193.1L294.3 193C300.4 188.4 305.3 184.6 308.8 182C310.5 180.7 311.8 179.7 312.8 179C313.2 178.7 313.6 178.4 313.8 178.2C314 178 314.2 177.9 314.2 178C314.2 178 314.1 178.1 313.9 178.3C313.7 178.5 313.3 178.8 312.9 179.1C312 179.8 310.7 180.9 309 182.2C305.6 184.9 300.7 188.7 294.6 193.3L294.7 193.1C294.7 198 294.7 203.6 294.7 209.6L294.5 209.4C297.5 209.4 300.6 209.4 303.8 209.4H304.1L304 209.7C302.8 214.4 301.6 219.4 300.3 224.5V224.3C301 225.3 301.8 226.3 302.6 227.3C314.2 242.6 324.8 256.5 332.4 266.6C336.2 271.6 339.2 275.7 341.4 278.5C342.4 279.9 343.2 281 343.8 281.8C344.1 282.2 344.3 282.4 344.4 282.7C344.5 282.8 344.6 282.9 344.6 282.9Z" fill="#263238"/>
    <path d="M377.4 188.8C371.5 178.5 368.5 179.6 368.5 179.6L368.8 183.3V191L366 224L348.2 295.7L348.6 403.6H416L424.4 271.8L423.6 215L377.4 188.8Z" fill="#EBEBEB"/>
    <path d="M423.6 215.101C423.6 215.101 441 228.001 442.6 248.701C443.8 265.501 446.6 311.601 447.2 321.701C448 337.301 435.8 373.901 404.1 363.501C385.1 357.301 314.9 333.401 314.9 333.401L319.6 303.601L402.9 308.601L404.6 239.101L423.6 215.101Z" fill="#EBEBEB"/>
    <path d="M318.6 307C318.6 307 295 304.5 289.6 305.8C284.4 307.1 276.9 313.5 276.9 313.5L277 322.8L314.9 333.4L318.6 307Z" fill="#FFBE9D"/>
    <path d="M348.2 284.901C348.2 284.901 348.2 284.801 348.3 284.601C348.4 284.401 348.5 284.101 348.7 283.701C349 282.901 349.5 281.701 350.1 280.201C351.4 277.101 353.2 272.701 355.4 267.301C357.6 261.801 360.3 255.401 363.3 248.201C364 246.401 364.8 244.501 365.7 242.701C366.6 240.901 367.6 239.001 368.7 237.201C370.9 233.601 373.4 230.001 376.2 226.401C377.6 224.601 378.9 222.901 380.3 221.301V221.601C379.3 219.101 378.3 216.601 377.4 214.101L377.3 213.901L377.6 213.801C381.9 212.301 386 210.901 389.9 209.601L389.8 209.901C384.1 200.401 379.3 192.301 375.9 186.601C374.2 183.801 372.8 181.501 371.2 180.601C370.5 180.101 369.8 180.001 369.3 179.801C368.9 179.701 368.6 179.701 368.6 179.601C368.6 179.601 368.8 179.601 369.3 179.701C369.8 179.801 370.4 179.901 371.2 180.401C372 180.901 372.8 181.701 373.6 182.701C374.4 183.701 375.2 185.001 376.1 186.401C379.6 192.101 384.4 200.101 390.2 209.601L390.4 209.801L390.1 209.901C386.2 211.201 382.1 212.601 377.8 214.101L378 213.801C379 216.201 379.9 218.701 380.9 221.301L381 221.401L380.9 221.501C379.5 223.101 378.1 224.801 376.8 226.601C374.1 230.101 371.5 233.701 369.3 237.401C368.2 239.201 367.2 241.001 366.3 242.801C365.4 244.601 364.6 246.501 363.9 248.301C360.9 255.501 358.2 262.001 355.9 267.401C353.6 272.801 351.8 277.201 350.5 280.301C349.9 281.801 349.4 283.001 349 283.801C348.8 284.201 348.7 284.501 348.6 284.701C348.2 284.801 348.2 284.901 348.2 284.901Z" fill="#263238"/>
    <path d="M433.1 357.7C433.1 357.7 433 357.8 432.8 358C432.6 358.2 432.3 358.5 431.9 358.9C431.1 359.7 429.8 360.7 428.1 361.8C426.3 362.9 424 364 421.1 364.7C418.2 365.4 414.8 365.7 411.1 365.3C409.2 365.1 407.3 364.7 405.4 364.1C403.4 363.5 401.5 362.7 399.4 362C395.3 360.5 390.9 359 386.2 357.3C376.9 354 366.7 350.6 355.9 347C334.3 339.9 314.6 333.9 300.3 329.7C293.2 327.6 287.4 325.9 283.4 324.7C281.4 324.1 279.9 323.7 278.8 323.3C278.3 323.1 277.9 323 277.6 322.9C277.3 322.8 277.2 322.8 277.2 322.8C277.2 322.8 277.3 322.8 277.6 322.9C277.9 323 278.3 323.1 278.8 323.2C279.9 323.5 281.4 323.9 283.4 324.5C287.4 325.6 293.2 327.3 300.4 329.3C314.7 333.5 334.4 339.4 356 346.5C366.8 350 377.1 353.5 386.3 356.8C390.9 358.4 395.4 360 399.5 361.5C401.6 362.2 403.5 363 405.5 363.6C407.4 364.2 409.3 364.6 411.2 364.8C414.9 365.2 418.3 365 421.1 364.2C424 363.5 426.3 362.4 428.1 361.4C429.9 360.3 431.1 359.3 432 358.6C432.4 358.2 432.7 358 432.9 357.8C433 357.8 433.1 357.7 433.1 357.7Z" fill="#263238"/>
    <path d="M276.9 323.001C276.9 323.101 275.6 322.801 273.5 322.901C272.4 322.901 271.2 323.101 269.9 323.501C268.6 323.901 267.2 324.501 265.8 325.401C263.1 327.101 261.2 329.501 260.1 331.301C259 333.101 258.5 334.301 258.4 334.301C258.4 334.301 258.5 334.001 258.7 333.401C258.9 332.801 259.3 332.001 259.8 331.101C260.9 329.201 262.7 326.801 265.5 325.001C266.9 324.101 268.4 323.501 269.8 323.101C271.2 322.701 272.5 322.601 273.6 322.601C274.7 322.601 275.6 322.701 276.1 322.801C276.6 322.801 276.9 322.901 276.9 323.001Z" fill="#263238"/>
    <path d="M253.7 315.7C253.7 315.7 253.7 315.6 253.8 315.4C253.9 315.2 254 315 254.3 314.7C254.8 314.2 255.7 313.6 256.9 313.4C258.1 313.1 259.6 313.2 261.2 313.4C262.8 313.6 264.6 314 266.3 314.6C269.8 315.9 272.7 317.9 274.4 319.6C275.3 320.5 275.9 321.2 276.3 321.8C276.7 322.4 276.9 322.7 276.8 322.7C276.7 322.8 275.9 321.5 274.1 319.8C272.3 318.2 269.5 316.3 266 315C264.3 314.4 262.6 314 261 313.7C259.4 313.5 258 313.4 256.8 313.6C255.6 313.8 254.7 314.2 254.3 314.7C253.9 315.3 253.8 315.7 253.7 315.7Z" fill="#263238"/>
    <path d="M281.201 251.401C281.201 251.401 281.001 250.901 280.901 249.901C280.801 249.401 280.501 248.901 280.301 248.201C280.001 247.601 279.701 246.801 279.201 246.101C278.301 244.601 277.001 242.901 275.401 241.101C273.801 239.401 271.901 237.601 269.701 236.001C265.301 232.801 260.601 231.001 257.101 230.201C255.301 229.901 253.901 229.701 252.901 229.701C251.901 229.701 251.301 229.601 251.301 229.601C251.301 229.601 251.901 229.501 252.901 229.501C253.901 229.401 255.401 229.601 257.201 229.901C260.801 230.501 265.501 232.401 270.001 235.601C272.301 237.201 274.201 239.001 275.801 240.801C277.401 242.601 278.601 244.301 279.501 245.901C279.901 246.701 280.201 247.501 280.501 248.101C280.701 248.801 280.901 249.401 281.001 249.901C281.201 250.901 281.201 251.401 281.201 251.401Z" fill="#263238"/>
    <path d="M421 336.901C421 336.901 421 336.801 421 336.501C421 336.201 421 335.901 421 335.501C421 334.601 420.9 333.201 420.8 331.501C420.5 328.001 419.9 323.001 417.8 317.101C417.3 315.601 416.7 314.101 415.8 312.701C414.9 311.301 413.6 310.101 411.9 309.401C408.6 308.001 404.5 308.101 400.4 307.901C392.1 307.601 383.1 307.201 373.6 306.801C351.4 305.801 331.7 305.001 319.3 304.301L319.5 304.201C318.8 308.801 318.2 312.401 317.7 314.901C317.5 316.101 317.3 317.101 317.2 317.701C317.1 318.001 317.1 318.201 317.1 318.401C317.1 318.601 317 318.601 317 318.601C317 318.601 317 318.501 317 318.401C317 318.201 317.1 318.001 317.1 317.701C317.2 317.001 317.3 316.101 317.5 314.901C317.9 312.401 318.4 308.801 319.1 304.201V304.101H319.2C331.6 304.601 351.4 305.401 373.5 306.401C383 306.801 392.1 307.201 400.3 307.601C402.4 307.701 404.4 307.801 406.3 307.901C408.3 308.101 410.2 308.401 411.9 309.201C413.6 309.901 415 311.201 416 312.701C416.9 314.201 417.5 315.701 418 317.201C420.1 323.101 420.6 328.201 420.8 331.701C420.9 333.401 420.9 334.801 420.9 335.701C420.9 336.101 420.9 336.501 420.9 336.701C421 336.801 421 336.901 421 336.901Z" fill="#263238"/>
    <path d="M405.101 271.7C405.201 271.7 405.401 279.8 405.401 289.7C405.401 299.7 405.301 307.7 405.101 307.7C405.001 307.7 404.801 299.6 404.801 289.7C404.801 279.8 404.901 271.7 405.101 271.7Z" fill="#263238"/>
    <path d="M243.6 230.601C243.6 230.601 243.5 230.801 243.4 231.301C243.3 231.701 243 232.401 242.8 233.301C242.3 235.001 241.7 237.601 241 241.001C239.6 247.701 237.9 257.601 236 269.901C235 276.101 234 282.901 233 290.201C232.5 293.901 232.2 297.701 231.9 301.601C231.6 305.601 231.4 309.601 231.3 313.801C231 322.201 230.8 331.101 231.1 340.301C231.2 342.601 231.3 344.901 231.4 347.301C231.5 348.501 231.7 349.601 231.8 350.801C232 352.001 232.3 353.101 232.7 354.301C233.4 356.601 234.5 358.701 236 360.601C237.5 362.501 239.5 364.101 241.7 365.001C246.3 367.401 251.4 369.101 256.5 370.701C261.7 372.201 267 373.501 272.4 374.601C284.5 377.101 296.6 378.501 308.2 379.001C314 379.201 319.7 379.001 325.3 378.601C330.9 378.201 336.3 377.601 341.5 376.901C352 375.401 361.8 373.001 370.7 370.101C379.6 367.201 387.4 363.601 394.3 360.001V360.301C380.6 355.401 369.6 351.501 362 348.801C358.2 347.401 355.3 346.401 353.3 345.701C352.3 345.301 351.6 345.101 351 344.901C350.5 344.701 350.2 344.601 350.2 344.601C350.2 344.601 350.5 344.701 351 344.801C351.5 345.001 352.3 345.201 353.3 345.601C355.3 346.301 358.2 347.301 362 348.601C369.6 351.301 380.7 355.101 394.4 359.901L394.8 360.001L394.4 360.201C387.6 363.901 379.7 367.501 370.8 370.401C361.9 373.401 352.1 375.701 341.6 377.201C336.3 378.001 330.9 378.601 325.3 379.001C319.7 379.401 314 379.601 308.2 379.501C296.5 379.101 284.5 377.601 272.3 375.101C266.9 374.001 261.5 372.701 256.3 371.201C251.1 369.601 246.1 367.901 241.4 365.501C239 364.501 237 362.901 235.5 361.001C233.9 359.101 232.8 356.801 232.1 354.501C231.7 353.301 231.5 352.201 231.2 351.001C231.1 349.801 230.9 348.601 230.8 347.401C230.6 345.001 230.5 342.701 230.5 340.401C230.3 331.101 230.5 322.201 230.8 313.801C231 309.601 231.2 305.501 231.4 301.501C231.7 297.501 232 293.701 232.5 290.001C233.5 282.701 234.6 275.901 235.5 269.701C237.5 257.401 239.2 247.501 240.7 240.801C241.4 237.401 242.1 234.801 242.6 233.101C242.8 232.201 243.1 231.601 243.2 231.201C243.6 230.901 243.6 230.601 243.6 230.601Z" fill="#263238"/>
    <path d="M276.801 316C289.101 302.4 288.601 278.1 281.501 260.9C280.801 279.5 278.701 296 277.001 314.1" fill="#E0E0E0"/>
    <path d="M281.5 264.5C281.5 264.5 281.5 264.7 281.5 265.1C281.5 265.5 281.4 266.1 281.4 266.8C281.3 268.3 281.1 270.5 280.9 273C280.5 278.3 279.9 285.6 279.2 293.6C278.6 301.6 278 308.9 277.6 314.2C277.4 316.8 277.2 318.9 277.1 320.4C277 321.1 277 321.7 277 322.1C277 322.5 276.9 322.7 276.9 322.7C276.9 322.7 276.9 322.5 276.9 322.1C276.9 321.7 276.9 321.1 276.9 320.4C276.9 318.9 277.1 316.8 277.2 314.1C277.5 308.8 278 301.5 278.7 293.5C279.4 285.5 280 278.2 280.5 272.9C280.8 270.3 281 268.2 281.2 266.7C281.3 266 281.4 265.5 281.4 265C281.5 264.7 281.5 264.5 281.5 264.5Z" fill="#263238"/>
    <path d="M311.901 239.9C312.001 239.9 312.201 244.6 312.201 250.5C312.201 256.3 312.101 261.1 311.901 261.1C311.701 261.1 311.601 256.4 311.601 250.5C311.601 244.6 311.701 239.9 311.901 239.9Z" fill="#263238"/>
    <path d="M303.901 275C304.101 277.2 305.001 279.1 306.201 280.6C307.401 282.1 309.701 283.6 311.601 283.5C311.601 283.5 316.301 283.9 318.901 279.9C321.201 276.2 321.801 268.6 319.901 264.1C318.601 261 315.801 258.1 312.401 258C308.001 257.9 305.201 261.1 304.301 264.3" fill="#E0E0E0"/>
    <path d="M304.201 264.2C304.201 264.2 304.301 263.4 305.001 262C305.401 261.3 305.901 260.6 306.701 259.8C307.501 259.1 308.501 258.4 309.801 258C310.401 257.8 311.201 257.7 311.901 257.7C312.601 257.7 313.401 257.7 314.201 258C315.701 258.5 317.201 259.6 318.301 260.9C319.401 262.3 320.301 264 320.701 265.9C321.101 267.8 321.301 269.8 321.101 271.8C320.901 274.9 320.301 278 318.501 280.4C317.601 281.6 316.401 282.4 315.201 282.9C313.901 283.4 312.701 283.6 311.401 283.5C310.401 283.5 309.501 283.2 308.701 282.8C307.901 282.4 307.201 281.9 306.701 281.4C305.601 280.3 304.901 279.1 304.501 278.1C304.101 277.1 303.901 276.2 303.801 275.7C303.801 275.4 303.701 275.2 303.701 275C303.701 274.9 303.701 274.8 303.701 274.8C303.801 274.8 303.801 276.1 304.701 278C305.201 279 305.801 280.1 306.901 281.1C307.501 281.6 308.101 282.1 308.901 282.4C309.601 282.8 310.501 283 311.401 283C313.701 283.1 316.401 282.2 318.001 280C319.601 277.8 320.201 274.7 320.401 271.6C320.601 267.6 320.001 263.7 317.701 261C316.601 259.7 315.301 258.7 313.901 258.2C313.201 258 312.501 257.9 311.801 257.9C311.101 257.9 310.401 258 309.801 258.2C308.601 258.6 307.501 259.2 306.801 259.9C306.001 260.6 305.501 261.3 305.101 262C304.501 263.4 304.301 264.2 304.201 264.2Z" fill="#263238"/>
    <path d="M301.5 275.201C301.7 277.401 302.6 279.301 303.8 280.801C305 282.301 307.3 283.801 309.2 283.701C309.2 283.701 313.9 284.101 316.5 280.101C318.8 276.401 319.4 268.801 317.5 264.301C316.2 261.201 313.4 258.301 310 258.201C305.6 258.101 302.8 261.301 301.9 264.501" fill="#E0E0E0"/>
    <path d="M301.9 264.4C301.9 264.4 302 263.6 302.7 262.2C303.1 261.5 303.6 260.8 304.4 260C305.2 259.3 306.2 258.6 307.5 258.2C308.1 258 308.9 257.9 309.6 257.9C310.3 257.9 311.1 257.9 311.9 258.2C313.4 258.7 314.9 259.8 316 261.1C317.1 262.5 318 264.2 318.4 266.1C318.8 268 319 270 318.8 272C318.6 275.1 318 278.2 316.2 280.6C315.3 281.8 314.1 282.6 312.9 283.1C311.6 283.6 310.4 283.8 309.1 283.7C308.1 283.7 307.2 283.4 306.4 283C305.6 282.6 304.9 282.1 304.4 281.6C303.3 280.5 302.6 279.3 302.2 278.3C301.8 277.3 301.6 276.4 301.5 275.9C301.5 275.6 301.4 275.4 301.4 275.2C301.4 275.1 301.4 275 301.4 275C301.5 275 301.5 276.3 302.4 278.2C302.9 279.2 303.5 280.3 304.6 281.3C305.2 281.8 305.8 282.3 306.6 282.6C307.3 283 308.2 283.2 309.1 283.2C311.4 283.3 314.1 282.4 315.7 280.2C317.3 278 317.9 274.9 318.1 271.8C318.3 267.8 317.7 263.9 315.4 261.2C314.3 259.9 313 258.9 311.6 258.4C310.9 258.2 310.2 258.1 309.5 258.1C308.8 258.1 308.1 258.2 307.5 258.4C306.3 258.8 305.2 259.4 304.5 260.1C303.7 260.8 303.2 261.5 302.8 262.2C302.1 263.6 302 264.4 301.9 264.4Z" fill="#263238"/>
    <path d="M305.801 263.3C303.601 262.9 301.401 264.4 300.401 266.4C299.501 268.4 299.701 270.8 300.401 272.9C300.801 274 301.301 275 302.101 275.8C302.901 276.6 303.901 277.2 305.101 277.3C306.801 277.4 308.301 276.2 309.201 274.9C310.801 272.7 311.301 269.8 310.601 267.2C310.101 265.5 308.901 263.7 307.101 263.6" fill="#E0E0E0"/>
    <path d="M307.101 263.6C307.101 263.6 307.201 263.6 307.501 263.6C307.801 263.6 308.101 263.7 308.601 264C309.501 264.5 310.501 265.7 310.901 267.4C311.301 269.1 311.301 271.4 310.301 273.5C309.801 274.6 309.101 275.6 308.101 276.4C307.101 277.2 305.601 277.7 304.201 277.3C302.801 276.9 301.801 275.9 301.101 274.8C300.401 273.7 300.101 272.5 299.801 271.3C299.301 269 299.701 266.7 300.801 265.3C301.901 263.8 303.301 263.2 304.301 263.1C304.801 263 305.201 263.1 305.401 263.1C305.701 263.2 305.801 263.2 305.801 263.2C305.801 263.3 305.301 263.1 304.301 263.3C303.401 263.5 302.001 264.1 301.101 265.5C300.101 266.9 299.801 269 300.301 271.2C300.501 272.3 300.901 273.4 301.601 274.5C302.201 275.5 303.201 276.4 304.401 276.8C305.601 277.2 306.901 276.7 307.801 276C308.801 275.3 309.401 274.3 309.901 273.3C310.901 271.3 311.001 269.1 310.601 267.5C310.301 265.8 309.401 264.7 308.601 264.1C307.601 263.6 307.101 263.7 307.101 263.6Z" fill="#263238"/>
    <path d="M310.801 279.701C310.701 279.701 310.601 279.401 310.301 279.001C310.001 278.601 309.401 278.101 308.601 277.901C307.801 277.701 307.101 277.601 306.501 277.601C305.901 277.601 305.601 277.501 305.601 277.401C305.601 277.301 305.901 277.201 306.501 277.201C307.101 277.201 307.901 277.101 308.801 277.401C309.701 277.701 310.301 278.301 310.701 278.801C310.901 279.301 310.901 279.701 310.801 279.701Z" fill="#263238"/>
    <path d="M311.601 261.901C311.601 261.901 311.401 262.301 311.001 262.601C310.501 263.001 309.801 263.401 308.901 263.501C308.001 263.701 307.201 263.601 306.601 263.401C306.001 263.201 305.701 263.001 305.801 262.901C305.901 262.801 307.201 263.301 308.801 263.001C310.401 262.801 311.501 261.801 311.601 261.901Z" fill="#263238"/>
    <path d="M380.301 190.3C380.301 190.3 380.401 190.3 380.601 190.4C380.801 190.5 381.101 190.6 381.501 190.9C382.301 191.3 383.301 192 384.501 193C386.901 195 389.601 198.6 390.901 203.2C392.301 207.7 393.001 212 393.401 215.1C393.601 216.6 393.701 217.9 393.701 218.8C393.801 219.7 393.801 220.1 393.701 220.1C393.701 220.1 393.601 219.6 393.501 218.8C393.401 217.8 393.201 216.6 393.001 215.2C392.601 212.1 391.801 208 390.401 203.4C389.101 198.9 386.501 195.4 384.201 193.3C382.001 191.2 380.201 190.4 380.301 190.3Z" fill="#263238"/>
    <path d="M367.8 300.4C370.7 300.3 373 297.4 375.9 297.6C378 297.7 379.9 299.8 379.7 302C379.5 304.1 377.4 305.9 375.2 305.7C372.2 305.3 370.4 301.8 367.4 301.1" fill="#263238"/>
    <path d="M392.4 302.799C391.5 302.799 390.6 302.699 389.7 302.599L389.9 301.599C393.5 302.199 396.5 301.599 398.8 299.899C401.8 297.699 403.7 293.799 404.5 288.299V288.099C404.8 285.899 405.3 243.099 405.3 234.999C405.3 222.299 394.2 220.599 393.7 220.499C393.2 220.399 383.1 218.699 377.8 232.599C372.2 247.099 363.2 275.099 362.6 278.299C362.5 278.699 362.4 279.199 362.3 279.799C361.4 283.999 359.4 292.699 365.2 297.799C371.7 303.399 376.8 301.199 377 301.099L377.4 301.999C377.2 302.099 371.5 304.499 364.5 298.499C358.2 293.099 360.3 283.999 361.2 279.599C361.3 278.999 361.4 278.599 361.5 278.199C362.1 274.899 371.1 246.799 376.8 232.299C382.5 217.599 393.7 219.599 393.8 219.599C393.9 219.599 406.2 221.499 406.2 235.099C406.2 241.799 405.8 285.999 405.4 288.299V288.499C404.6 294.299 402.5 298.399 399.3 300.699C397.5 302.099 395.1 302.799 392.4 302.799Z" fill="#263238"/>
    <path d="M405.8 243.2C405.7 243.2 405.5 241.1 403.7 238.2C402.8 236.8 401.5 235.3 399.7 233.9C397.9 232.6 395.8 231.4 393.3 230.9C388.3 229.8 383.6 231 380.6 232.6C377.6 234.2 376.3 235.9 376.2 235.8C376.2 235.8 376.3 235.7 376.4 235.5C376.6 235.3 376.8 235 377.1 234.7C377.8 234 378.9 233.2 380.4 232.3C381.9 231.5 383.8 230.7 386 230.3C388.2 229.9 390.8 229.9 393.3 230.5C395.9 231.1 398.1 232.3 399.9 233.7C401.7 235.1 403 236.7 403.9 238.2C404.8 239.7 405.2 241 405.4 241.9C405.5 242.4 405.6 242.7 405.6 243C405.8 243.1 405.8 243.2 405.8 243.2Z" fill="#263238"/>
    <path d="M431.301 323.2C431.201 323.2 431.001 321.5 429.901 318.9C428.801 316.4 426.701 313.1 423.101 310.8C421.301 309.7 419.401 309.1 417.601 308.8C415.801 308.5 414.101 308.4 412.801 308.3C411.501 308.2 410.401 308.1 409.501 308.1C408.701 308 408.301 308 408.301 307.9C408.301 307.9 408.701 307.9 409.501 307.9C410.401 307.9 411.501 307.9 412.801 308C414.201 308 415.901 308.1 417.701 308.4C419.501 308.7 421.601 309.2 423.401 310.4C427.101 312.8 429.201 316.2 430.201 318.8C430.701 320.1 431.001 321.2 431.101 322C431.301 322.7 431.301 323.2 431.301 323.2Z" fill="#263238"/>
    <path d="M380.801 306.5C380.801 306.5 390.601 291.6 393.101 289.7C395.601 287.7 417.101 278.1 419.601 279.6C422.101 281.1 420.601 284.5 420.601 284.5C420.601 284.5 429.701 281.3 430.701 282.6C431.701 283.9 431.901 286 430.701 287.7C430.701 287.7 435.701 286.9 435.701 288.5C435.701 290 435.101 292 432.801 293.7C430.501 295.4 415.401 305.5 414.201 308.3L409.301 308L380.801 306.5Z" fill="#FFBE9D"/>
    <path d="M409.101 302.2C409.101 302.2 409.201 301.8 409.501 301.3C409.801 300.7 410.401 299.9 411.101 299C412.601 297.1 415.101 294.9 418.201 293C421.301 291.1 424.401 289.9 426.601 289C427.701 288.6 428.601 288.3 429.301 288C429.901 287.8 430.301 287.7 430.301 287.7C430.301 287.7 430.001 287.9 429.401 288.2C428.701 288.5 427.801 288.9 426.801 289.3C424.601 290.2 421.601 291.5 418.501 293.4C415.401 295.2 412.901 297.4 411.401 299.2C409.901 301 409.201 302.3 409.101 302.2Z" fill="#EFA077"/>
    <path d="M396.601 301.999C396.601 301.999 396.701 301.599 397.101 300.899C397.401 300.199 397.901 299.199 398.601 297.999C399.301 296.799 400.101 295.399 401.301 293.999C401.901 293.299 402.501 292.599 403.401 291.999C404.201 291.399 405.101 290.899 406.001 290.399C409.601 288.299 413.001 286.599 415.601 285.599C416.901 285.099 417.901 284.799 418.701 284.599C419.501 284.399 419.901 284.399 419.901 284.399C419.901 284.499 418.301 284.899 415.801 285.999C413.301 287.099 409.901 288.799 406.301 290.899C405.401 291.399 404.501 291.999 403.701 292.499C403.001 292.999 402.301 293.799 401.701 294.399C400.501 295.799 399.701 297.099 398.901 298.299C398.201 299.399 397.701 300.299 397.201 301.099C396.901 301.599 396.701 301.999 396.601 301.999Z" fill="#EFA077"/>
</svg>
