<svg width="85" height="75" viewBox="0 0 85 75" fill="none" xmlns="http://www.w3.org/2000/svg">
<path d="M78.7586 0.000165917H51.574C50.8849 0.000165917 50.3264 0.558782 50.3264 1.24771C50.3264 1.93665 50.8849 2.49526 51.574 2.49526H78.7584C80.8219 2.49526 82.5009 4.1741 82.5009 6.23774V49.899H76.52L76.5198 11.5766C76.5198 9.51291 74.8408 7.83407 72.7773 7.83407H12.2185C10.1549 7.83407 8.47603 9.51291 8.47603 11.5766V49.899H2.49493V6.23758C2.49493 4.17393 4.17393 2.4951 6.23741 2.4951H46.584C47.273 2.4951 47.8315 1.93648 47.8315 1.24755C47.8315 0.558616 47.273 0 46.584 0H6.23741C2.79806 0.000166008 0 2.79823 0 6.23758V56.6787C0 60.1181 2.79806 62.9161 6.23741 62.9161H33.667L32.4097 72.5049H27.977C27.2879 72.5049 26.7294 73.0635 26.7294 73.7524C26.7294 74.4414 27.2879 75 27.977 75H57.0189C57.708 75 58.2664 74.4414 58.2664 73.7524C58.2664 73.0635 57.708 72.5049 57.0189 72.5049H52.5863L51.3289 62.9161H64.548C65.2371 62.9161 65.7955 62.3575 65.7955 61.6686C65.7955 60.9796 65.2371 60.421 64.548 60.421H6.23741C4.17393 60.421 2.49493 58.7422 2.49493 56.6786V52.3937H82.5009V56.6786C82.5009 58.7422 80.8219 60.421 78.7584 60.421H69.5378C68.8487 60.421 68.2903 60.9796 68.2903 61.6686C68.2903 62.3575 68.8487 62.9161 69.5378 62.9161H78.7584C82.1978 62.9161 84.9958 60.1181 84.9958 56.6787V6.23758C84.996 2.79823 82.1979 0.000165917 78.7586 0.000165917ZM50.0699 72.5049H34.9262L36.1836 62.9161H48.8124L50.0699 72.5049ZM10.971 11.5764C10.971 10.8885 11.5306 10.3288 12.2185 10.3288H72.7775C73.4654 10.3288 74.025 10.8885 74.025 11.5764V17.7162H10.971V11.5764ZM10.971 20.2113H74.025V49.899H67.9601V44.3379C67.9601 43.6489 67.4017 43.0903 66.7126 43.0903H45.4843C44.7952 43.0903 44.2368 43.6489 44.2368 44.3379V49.899H40.7591V44.3379C40.7591 43.6489 40.2006 43.0903 39.5115 43.0903H18.2834C17.5943 43.0903 17.0359 43.6489 17.0359 44.3379V49.899H10.971V20.2113ZM65.465 49.8988H46.7319V45.5852H65.465V49.8988ZM38.2641 49.8988H19.531V45.5852H38.2641V49.8988Z" fill="#963EEE"/>
<path d="M15.7286 12.0107C14.6721 12.0107 13.8125 12.8703 13.8125 13.927C13.8125 14.9836 14.6721 15.843 15.7286 15.843C16.785 15.843 17.6446 14.9834 17.6446 13.927C17.6448 12.8705 16.7852 12.0107 15.7286 12.0107Z" fill="white"/>
<path d="M21.878 12.0107C20.8215 12.0107 19.9619 12.8703 19.9619 13.927C19.9619 14.9836 20.8215 15.843 21.878 15.843C22.9344 15.843 23.794 14.9834 23.794 13.927C23.794 12.8705 22.9344 12.0107 21.878 12.0107Z" fill="white"/>
<path d="M28.0274 12.0107C26.9709 12.0107 26.1113 12.8703 26.1113 13.927C26.1113 14.9836 26.9709 15.843 28.0274 15.843C29.084 15.843 29.9436 14.9834 29.9436 13.927C29.9436 12.8705 29.084 12.0107 28.0274 12.0107Z" fill="white"/>
<path d="M18.2837 40.0456H27.3592C28.0483 40.0456 28.6067 39.487 28.6067 38.7981C28.6067 38.1091 28.0483 37.5505 27.3592 37.5505H19.5311V26.6043H65.4626V37.5505H32.349C31.6599 37.5505 31.1015 38.1091 31.1015 38.7981C31.1015 39.487 31.6599 40.0456 32.349 40.0456H66.71C67.3991 40.0456 67.9575 39.487 67.9575 38.7981V25.3569C67.9575 24.668 67.3991 24.1094 66.71 24.1094H18.2837C17.5946 24.1094 17.0361 24.668 17.0361 25.3569V38.7982C17.0361 39.4872 17.5946 40.0456 18.2837 40.0456Z" fill="white"/>
</svg>
