<svg width="218" height="222" viewBox="0 0 218 222" fill="none" xmlns="http://www.w3.org/2000/svg">
<circle cx="109" cy="109" r="109" fill="#2E2E2E"/>
<path d="M154.17 65.6866C153.365 65.6034 152.645 65.1732 152.136 64.6632C151.583 64.0976 151.185 63.4972 150.52 63.0219C149.957 62.5569 149.126 62.217 148.291 62.4358C147.455 62.6546 146.771 63.3974 146.59 64.1921C146.409 64.9869 146.631 65.8233 147.129 66.434L150.849 68.3942L154.17 65.6866Z" fill="#EB996E"/>
<path d="M164.311 62.8961C164.239 62.6096 164.025 62.3232 163.811 61.9651C162.738 60.3897 160.951 59.6736 159.236 60.1033L158.258 64.4424L151.885 66.2632L148.338 69.9767C147.793 70.5482 147.633 71.3881 147.95 72.1119C148.263 72.8257 148.645 73.6574 148.871 73.9957C149.228 74.7118 151.372 75.1415 151.372 75.1415C151.372 75.1415 152.731 77.3614 153.517 77.9343C154.303 78.5072 155.518 78.6504 155.518 78.6504C155.518 78.6504 156.305 80.2974 157.091 81.5148C157.949 82.7322 163.239 82.5174 163.239 82.5174C163.382 84.1644 167.099 88.461 167.099 88.461L177.464 83.7347C177.464 83.7347 170.03 71.5609 169.601 70.0571C169.243 68.5533 164.311 62.8961 164.311 62.8961Z" fill="#FFBE9D"/>
<path d="M147.788 70.8149C147.788 70.7433 147.869 70.3436 148.727 69.4843C149.156 68.983 149.656 68.4817 150.157 67.9089C150.443 67.6224 150.729 67.2644 151.014 66.9779C151.157 66.8347 151.3 66.6915 151.515 66.4766C151.586 66.405 151.729 66.3334 151.801 66.2618C151.944 66.1902 152.015 66.1902 152.158 66.1186C153.945 65.5457 155.518 65.0444 156.733 64.758C157.948 64.4716 158.663 64.2567 158.663 64.3283C158.663 64.3999 157.948 64.6148 156.805 65.0444C155.661 65.4741 154.088 65.9754 152.301 66.5483C151.872 66.6199 151.586 66.9779 151.3 67.2644C151.014 67.5508 150.729 67.9089 150.443 68.1953C149.871 68.7682 149.37 69.3411 148.941 69.6991C148.012 70.5584 147.788 70.8866 147.788 70.8149Z" fill="#EB996E"/>
<path d="M151.873 75.6416C151.873 75.6416 151.73 75.4983 151.658 75.1403C151.587 74.7822 151.515 74.281 151.658 73.7081C151.73 73.1352 152.087 72.3475 152.73 71.8462C153.374 71.2733 154.232 70.9153 155.089 70.6288C156.805 70.0559 158.449 69.6263 159.593 69.4114C160.737 69.1966 161.523 69.125 161.523 69.125C161.523 69.1966 160.808 69.3398 159.664 69.6263C158.521 69.9127 156.948 70.3424 155.232 70.9869C154.375 71.2733 153.588 71.5598 153.016 72.061C152.445 72.5623 152.159 73.2068 152.016 73.7797C151.658 74.9254 151.944 75.6416 151.873 75.6416Z" fill="#EB996E"/>
<path d="M155.661 79.0081C155.661 79.0081 155.375 78.4353 155.732 77.5759C155.946 77.1463 156.304 76.7166 156.804 76.3586C157.305 76.0005 157.948 75.7857 158.591 75.5708C161.165 74.7831 163.309 74.2819 163.309 74.3535C163.309 74.4251 161.236 75.1412 158.663 75.9289C158.019 76.1437 157.448 76.3586 156.947 76.645C156.447 76.9314 156.161 77.2895 155.946 77.6476C155.589 78.4353 155.732 79.0081 155.661 79.0081Z" fill="#EB996E"/>
<path d="M161.737 82.5164C161.737 82.4448 162.881 82.5164 164.168 82.6596C165.526 82.8028 166.598 82.8744 166.598 82.946C166.598 83.0176 165.454 83.1609 164.096 83.0176C162.738 82.8744 161.666 82.588 161.737 82.5164Z" fill="#EB996E"/>
<path d="M124.566 199.53L121.706 183.775L122.135 180.267L121.063 180.123L111.556 128.206L89.0387 99.275L69.9528 75.8584L66.1642 85.1678C66.1642 85.1678 47.0068 101.781 45.2197 104.288C45.2197 104.288 40.0014 111.95 39.2151 120.042C38.9292 123.193 46.7923 182.558 47.6501 185.208C48.2935 187.213 54.3695 191.509 58.6585 194.087C58.0866 211.632 55.6255 221.222 55.6255 221.222L127.197 221.007L124.566 199.53Z" fill="#EBEBEB"/>
<path d="M114.057 116.318C114.057 116.318 111.198 102.497 111.412 102.067C111.627 101.638 104.979 85.3105 104.979 85.3105L102.763 77.863L72.2394 72.707L70.7383 77.3617L111.412 128.85L115.558 150.977L119.847 144.962L114.057 116.318Z" fill="#963EEE"/>
<path d="M145.944 221.006L134.644 140.665L129.212 109.514C128.497 103.284 118.918 91.0389 118.918 91.0389L108.41 87.8164C108.41 87.8164 104.121 82.5172 103.907 81.7295L111.412 100.921L114.057 116.246L115.701 151.407L124.351 198.669L127.001 221.15L145.944 221.006Z" fill="#EBEBEB"/>
<path d="M116.345 127.489L119.919 101.279L108.482 87.8164L103.979 81.7295L110.984 101.995L116.345 127.489Z" fill="#EBEBEB"/>
<path d="M118.204 111.591C118.133 111.591 118.705 114.169 119.562 117.32C120.349 120.471 121.064 122.977 121.207 122.977C121.278 122.977 120.706 120.399 119.848 117.249C118.991 114.098 118.276 111.52 118.204 111.591Z" fill="#263238"/>
<path d="M127.426 129.28C127.64 130.425 127.426 131.643 126.997 132.574C126.568 133.576 125.567 134.65 124.495 134.865C124.495 134.865 121.993 135.725 120.135 133.934C118.419 132.287 116.989 128.277 117.418 125.627C117.633 123.766 118.776 121.832 120.563 121.331C122.922 120.686 124.852 121.975 125.782 123.551" fill="#E0E0E0"/>
<path d="M125.71 123.551C125.71 123.551 125.567 123.121 124.995 122.476C124.709 122.19 124.352 121.832 123.78 121.546C123.28 121.259 122.636 121.044 121.85 120.973C121.493 120.973 121.064 120.973 120.706 121.116C120.277 121.187 119.92 121.331 119.491 121.617C118.705 122.118 118.133 122.835 117.704 123.765C117.275 124.625 117.061 125.699 117.132 126.773C117.132 127.847 117.347 128.921 117.704 129.996C118.276 131.643 118.991 133.218 120.277 134.292C120.921 134.793 121.636 135.08 122.422 135.152C123.137 135.223 123.852 135.152 124.495 134.937C125.067 134.793 125.496 134.507 125.853 134.221C126.211 133.934 126.496 133.576 126.711 133.146C127.14 132.43 127.354 131.643 127.426 131.07C127.497 130.497 127.497 129.996 127.426 129.638C127.426 129.494 127.354 129.351 127.354 129.279C127.354 129.208 127.354 129.136 127.283 129.136C127.211 129.136 127.426 129.852 127.211 130.998C127.068 131.571 126.925 132.287 126.496 133.003C126.282 133.361 125.996 133.648 125.639 134.006C125.281 134.292 124.852 134.579 124.352 134.65C123.137 135.008 121.564 134.937 120.349 133.934C119.205 132.932 118.419 131.428 117.919 129.781C117.275 127.704 117.061 125.484 117.919 123.694C118.276 122.835 118.919 122.118 119.563 121.617C119.92 121.402 120.277 121.259 120.635 121.187C120.992 121.116 121.421 121.044 121.779 121.044C122.493 121.044 123.137 121.259 123.637 121.546C124.138 121.832 124.495 122.118 124.852 122.405C125.496 123.193 125.71 123.551 125.71 123.551Z" fill="#263238"/>
<path d="M128.712 129.064C128.926 130.21 128.712 131.427 128.283 132.358C127.854 133.36 126.853 134.435 125.781 134.649C125.781 134.649 123.279 135.509 121.421 133.718C119.705 132.071 118.275 128.061 118.704 125.412C118.919 123.55 120.062 121.616 121.85 121.115C124.208 120.471 126.139 121.76 127.068 123.335" fill="#E0E0E0"/>
<path d="M126.997 123.337C126.997 123.337 126.854 122.907 126.282 122.263C125.997 121.976 125.639 121.618 125.067 121.332C124.567 121.045 123.923 120.83 123.137 120.759C122.78 120.759 122.351 120.759 121.993 120.902C121.565 120.974 121.207 121.117 120.778 121.403C119.992 121.905 119.42 122.621 118.991 123.552C118.562 124.411 118.348 125.485 118.419 126.559C118.419 127.633 118.634 128.708 118.991 129.782C119.563 131.429 120.278 133.004 121.565 134.078C122.208 134.58 122.923 134.866 123.709 134.938C124.424 135.009 125.139 134.938 125.782 134.723C126.354 134.58 126.783 134.293 127.14 134.007C127.498 133.72 127.784 133.362 127.998 132.933C128.427 132.216 128.641 131.429 128.713 130.856C128.784 130.283 128.784 129.782 128.713 129.424C128.713 129.28 128.641 129.137 128.641 129.066C128.641 128.994 128.641 128.922 128.57 128.922C128.498 128.922 128.713 129.638 128.498 130.784C128.355 131.357 128.212 132.073 127.784 132.789C127.569 133.147 127.283 133.434 126.926 133.792C126.568 134.078 126.139 134.365 125.639 134.436C124.424 134.794 122.851 134.723 121.636 133.72C120.492 132.718 119.706 131.214 119.206 129.567C118.562 127.49 118.348 125.27 119.206 123.48C119.563 122.621 120.206 121.905 120.85 121.403C121.207 121.188 121.565 121.045 121.922 120.974C122.279 120.902 122.708 120.83 123.066 120.83C123.781 120.83 124.424 121.045 124.924 121.332C125.425 121.618 125.782 121.905 126.139 122.191C126.711 122.907 126.926 123.337 126.997 123.337Z" fill="#263238"/>
<path d="M124.781 123.266C125.924 122.693 127.282 123.194 128.069 124.197C128.855 125.128 129.069 126.488 128.998 127.706C128.927 128.35 128.784 128.995 128.498 129.496C128.212 130.069 127.711 130.498 127.139 130.713C126.282 131 125.281 130.57 124.566 129.997C123.422 129.066 122.708 127.562 122.708 126.059C122.708 125.056 123.136 123.91 124.066 123.624" fill="#E0E0E0"/>
<path d="M124.138 123.623C124.138 123.623 124.067 123.623 123.924 123.694C123.781 123.766 123.566 123.838 123.423 124.053C122.994 124.411 122.637 125.198 122.708 126.201C122.708 127.203 123.066 128.349 123.924 129.423C124.352 129.925 124.853 130.426 125.568 130.712C126.211 130.999 127.069 131.07 127.784 130.641C128.498 130.211 128.856 129.567 129.07 128.85C129.285 128.134 129.285 127.49 129.285 126.845C129.213 125.556 128.713 124.411 127.927 123.766C127.14 123.122 126.283 122.978 125.782 123.05C125.496 123.05 125.282 123.122 125.139 123.193C124.996 123.265 124.924 123.265 124.924 123.336C124.924 123.336 125.21 123.193 125.711 123.193C126.211 123.193 126.997 123.336 127.712 123.909C128.427 124.482 128.927 125.628 128.927 126.845C128.927 127.49 128.927 128.134 128.713 128.779C128.498 129.423 128.141 130.068 127.569 130.426C126.997 130.784 126.211 130.712 125.639 130.426C124.996 130.139 124.495 129.71 124.138 129.28C123.352 128.349 122.994 127.203 122.923 126.272C122.851 125.341 123.209 124.554 123.566 124.196C123.781 123.694 124.138 123.694 124.138 123.623Z" fill="#263238"/>
<path d="M124.352 132.79C124.424 132.79 124.424 132.575 124.567 132.36C124.71 132.073 124.924 131.787 125.354 131.5C125.711 131.285 126.14 131.142 126.426 130.999C126.712 130.927 126.927 130.855 126.927 130.784C126.927 130.712 126.712 130.784 126.426 130.784C126.14 130.855 125.711 130.927 125.21 131.214C124.781 131.5 124.495 131.858 124.424 132.217C124.281 132.575 124.352 132.79 124.352 132.79Z" fill="#263238"/>
<path d="M121.421 123.337C121.421 123.337 121.564 123.48 121.85 123.624C122.136 123.767 122.636 123.838 123.136 123.838C123.637 123.767 124.066 123.624 124.352 123.48C124.638 123.337 124.781 123.122 124.709 123.122C124.638 123.051 123.994 123.552 123.065 123.552C122.207 123.624 121.492 123.265 121.421 123.337Z" fill="#263238"/>
<path d="M99.1871 142.813C97.7574 143.242 96.1133 142.168 94.6836 142.67C93.6114 143.099 93.0395 144.388 93.4684 145.462C93.8973 146.537 95.2555 147.038 96.2563 146.537C97.6859 145.892 98.0433 143.815 99.4015 142.956" fill="#263238"/>
<path d="M87.3935 148.041C87.8224 147.898 88.2513 147.683 88.6802 147.468L88.4657 146.967C86.7501 147.826 85.1775 148.041 83.7478 147.54C81.8893 146.967 80.3167 145.32 79.03 142.67L78.9585 142.599C78.4581 141.596 71.3098 120.328 70.0231 116.246C67.9501 109.944 73.2399 107.223 73.4543 107.151C73.6688 107.008 78.4581 104.573 83.3189 110.589C88.4657 116.89 97.4726 129.422 98.2589 130.926C98.3304 131.141 98.4733 131.356 98.6163 131.642C99.76 133.576 102.119 137.658 100.046 141.095C97.687 144.962 94.8277 144.675 94.6847 144.675L94.6133 145.177C94.7562 145.177 97.9729 145.463 100.475 141.381C102.762 137.658 100.26 133.433 99.0452 131.427C98.9022 131.141 98.7593 130.926 98.6878 130.783C97.83 129.208 88.8231 116.676 83.6764 110.302C78.4581 103.929 73.1684 106.65 73.1684 106.722C73.0969 106.722 67.3068 109.658 69.4513 116.461C70.5235 119.827 77.8862 141.811 78.4581 142.885L78.5296 142.957C79.8878 145.678 81.5319 147.397 83.5334 148.113C84.7486 148.471 86.0353 148.471 87.3935 148.041Z" fill="#263238"/>
<path d="M71.0954 120.399C71.1669 120.399 70.8809 119.253 71.3098 117.606C71.5243 116.747 71.9532 115.816 72.5965 114.813C73.2399 113.882 74.1692 112.951 75.3129 112.235C77.6003 110.875 80.1737 110.731 81.8893 111.018C83.6049 111.304 84.5342 111.949 84.6057 111.877C84.6057 111.877 84.5342 111.806 84.4627 111.734C84.3197 111.662 84.1768 111.591 83.9623 111.447C83.5334 111.233 82.8186 110.946 81.9608 110.803C81.103 110.66 80.0308 110.588 78.8155 110.731C77.6718 110.875 76.3851 111.304 75.1699 112.02C74.0262 112.736 73.0254 113.667 72.3821 114.67C71.7387 115.673 71.3098 116.675 71.0954 117.534C70.8809 118.394 70.8809 119.11 70.9524 119.611C70.9524 119.826 71.0239 120.041 71.0239 120.184C71.0239 120.327 71.0954 120.399 71.0954 120.399Z" fill="#263238"/>
<path d="M66.1636 85.1668L90.0389 114.814L111.484 128.205L69.9522 75.8574L66.1636 85.1668Z" fill="#EBEBEB"/>
<path d="M67.3071 123.909C67.2357 123.98 66.5208 122.548 65.4486 120.328C64.3763 118.108 62.8752 115.029 60.4448 112.165C58.0858 109.3 55.155 107.438 52.7961 106.722C50.5087 105.935 48.936 106.006 48.936 105.863C48.936 105.791 49.2934 105.72 50.0083 105.72C50.7231 105.72 51.7239 105.791 52.9391 106.149C55.3695 106.794 58.5147 108.656 60.9452 111.663C63.3756 114.599 64.8767 117.822 65.8775 120.113C66.9497 122.405 67.4501 123.837 67.3071 123.909Z" fill="#263238"/>
<path d="M60.9453 173.749C60.8023 173.678 63.0898 170.813 67.1643 169.309C71.2388 167.734 74.813 168.307 74.813 168.45C74.813 168.665 71.3818 168.522 67.4502 170.025C63.5902 171.458 61.0883 173.964 60.9453 173.749Z" fill="#263238"/>
<path d="M65.4479 178.404C65.2334 178.404 66.2342 175.039 69.0935 172.103C72.0243 169.095 75.3125 168.092 75.3125 168.307C75.384 168.522 72.3817 169.811 69.5939 172.675C66.8775 175.397 65.6623 178.476 65.4479 178.404Z" fill="#263238"/>
<path d="M111.484 128.204C111.484 128.204 110.912 127.918 109.839 127.273C108.696 126.557 107.195 125.698 105.336 124.552C101.404 122.117 96.1147 118.823 89.8957 115.028H89.8242L89.7527 114.956C87.5368 112.164 85.1064 109.228 82.6044 106.077C76.028 97.9131 70.0949 90.4656 65.9489 85.2381L65.8774 85.0948L65.9489 84.9516C67.1641 82.1588 68.0934 79.8673 68.8082 78.1486C69.1657 77.4325 69.3801 76.788 69.5946 76.3584C69.809 75.9287 69.8805 75.7139 69.952 75.7139C69.952 75.7139 69.8805 75.9287 69.7375 76.3584C69.5231 76.8596 69.3086 77.5041 69.0227 78.2202C68.3793 79.9389 67.4501 82.2304 66.3778 85.0948L66.3063 84.8084C70.5238 89.8928 76.5284 97.2686 83.1048 105.504C85.6067 108.655 88.0371 111.662 90.2531 114.384L90.1816 114.312C96.3292 118.251 101.619 121.616 105.479 124.051C107.266 125.268 108.767 126.199 109.839 126.915C110.912 127.846 111.484 128.204 111.484 128.204Z" fill="#263238"/>
<path d="M114.915 133.79C114.844 133.79 114.915 133.074 115.058 131.857C115.201 130.496 115.487 128.706 115.701 126.629C116.273 122.189 117.203 115.959 118.203 109.013L118.275 109.228C117.846 108.369 117.346 107.509 116.845 106.578C113.2 99.7753 109.911 93.5452 107.552 89.1054C106.48 86.9571 105.551 85.1668 104.836 83.7346C104.193 82.4456 103.907 81.7295 103.907 81.7295C103.978 81.7295 104.336 82.374 105.05 83.5914C105.837 84.952 106.766 86.6706 107.981 88.8189C110.412 93.2588 113.771 99.4173 117.417 106.22C117.917 107.151 118.346 108.011 118.847 108.87L118.918 109.013V109.156C117.846 116.103 116.917 122.261 116.202 126.701C115.844 128.778 115.558 130.568 115.344 131.928C115.13 133.146 114.987 133.79 114.915 133.79Z" fill="#263238"/>
<path d="M71.1671 108.082L72.3823 107.366L71.1671 108.082C69.237 104.86 67.2355 101.566 65.8058 98.0567L65.5199 97.4122C64.0902 93.9033 62.3747 89.8931 63.0895 86.0261V85.9545C63.4469 84.3074 64.3762 82.8036 65.7343 81.6579L66.1632 81.2998H67.3785V83.5197L67.6644 83.8062C67.5929 83.8778 67.5214 83.9494 67.3785 84.021V84.0926H67.307C66.6636 84.7371 66.1632 85.5964 66.0203 86.4558V86.5274C65.5199 89.535 66.9496 93.1155 68.2363 96.2664L68.5222 96.9109C69.8804 100.277 71.8104 103.427 73.669 106.578L71.1671 108.082Z" fill="#263238"/>
<path d="M177.463 83.7354C177.463 83.7354 186.255 105.433 186.97 111.019C187.685 116.605 187.899 121.761 187.899 121.761L177.463 129.065L168.17 117.894L167.098 88.4616L177.463 83.7354Z" fill="#FFBE9D"/>
<path d="M183.182 88.4609C183.182 88.4609 187.542 108.655 187.828 109.371C188.114 110.159 189.758 116.031 189.758 116.031V126.629C189.758 126.629 189.258 135.366 183.825 137.156C178.392 138.946 158.806 136.87 158.806 136.87C158.806 136.87 151.157 135.294 149.442 134.936C147.726 134.578 130.999 127.847 130.999 127.847L117.989 90.8241L124.709 91.8982L150.014 106.364C150.014 106.364 152.087 105.433 153.016 105.862C153.945 106.292 166.598 110.087 166.598 110.087C166.598 110.087 162.666 90.7525 163.381 90.8957C164.024 90.9673 183.182 88.4609 183.182 88.4609Z" fill="#EBEBEB"/>
<path d="M127.622 221.007C127.622 221.007 127.622 220.979 127.622 220.952C127.622 220.897 127.622 220.842 127.591 220.76C127.591 220.569 127.559 220.322 127.528 220.021C127.496 219.364 127.402 218.434 127.307 217.257C127.212 216.08 127.054 214.711 126.833 213.179C126.644 211.646 126.392 209.949 126.139 208.197C125.603 204.666 125.066 201.464 124.719 199.165C124.561 198.015 124.403 197.057 124.34 196.428C124.309 196.099 124.277 195.853 124.245 195.689C124.245 195.607 124.245 195.552 124.214 195.497C124.214 195.442 124.214 195.442 124.214 195.442C124.214 195.442 124.214 195.47 124.245 195.497C124.245 195.552 124.277 195.607 124.277 195.689C124.309 195.88 124.34 196.127 124.403 196.428C124.498 197.085 124.656 198.015 124.845 199.165C125.224 201.491 125.76 204.666 126.297 208.197C126.581 209.976 126.802 211.646 126.991 213.179C127.181 214.711 127.338 216.107 127.402 217.257C127.496 218.434 127.559 219.364 127.591 220.021C127.591 220.35 127.622 220.596 127.622 220.76C127.622 220.842 127.622 220.897 127.622 220.952C127.622 220.979 127.622 221.007 127.622 221.007Z" fill="#263238"/>
<path d="M55.5126 94.4053C55.5126 94.4053 55.3696 94.5485 55.1551 94.7633C54.9407 94.9782 54.5833 95.2646 54.1544 95.6943C53.2251 96.5536 51.9384 97.771 50.1513 99.3464C49.2935 100.134 48.2928 100.993 47.292 102.068C46.2913 103.07 45.2905 104.359 44.3612 105.791C43.4319 107.224 42.7171 108.871 41.9308 110.661C41.1445 112.451 40.4297 114.385 39.8578 116.461C39.5719 117.535 39.3574 118.61 39.2859 119.684C39.2144 120.257 39.2859 120.83 39.3574 121.402C39.4289 121.975 39.5004 122.548 39.5719 123.121C39.9293 125.484 40.2152 127.991 40.5726 130.497C41.2875 135.653 42.0023 141.167 42.8601 147.039C44.4327 158.783 46.2198 171.959 48.1498 186.067L48.0783 185.923C50.9376 188.072 53.8684 190.22 56.9422 192.368C58.4434 193.371 60.016 194.517 61.6601 195.304C63.4472 195.877 65.3057 196.45 67.0928 196.952C74.4555 199.243 82.0327 201.606 89.8244 203.755C94.7567 205.115 99.6175 206.404 104.407 207.478C106.837 207.98 109.196 208.552 111.627 208.91C114.057 209.34 116.416 209.555 118.775 209.555L118.632 209.698C119.776 199.386 120.848 189.576 121.92 180.338L122.063 180.553C106.98 177.975 93.3985 175.683 81.8898 173.678H81.8183C79.6023 171.601 77.4578 169.74 75.3133 168.092H75.2418V168.021C73.4548 157.064 72.0966 148.328 71.0958 142.313C70.5955 139.305 70.238 137.014 70.0236 135.438C69.8091 133.863 69.6662 133.003 69.7377 133.075C69.8806 134.006 71.8821 146.18 75.5278 168.021L75.4563 167.949C77.6008 169.596 79.7453 171.458 81.9612 173.535H81.8898C93.3985 175.468 106.98 177.76 122.063 180.338H122.206V180.481C121.205 189.719 120.062 199.601 118.918 209.913V210.056H118.775C116.345 210.056 113.914 209.77 111.555 209.412C109.125 209.054 106.766 208.481 104.335 207.98C99.4746 206.905 94.6137 205.616 89.7529 204.256C81.9612 202.036 74.3126 199.744 67.0213 197.453C65.1628 196.88 63.3757 196.307 61.5171 195.734C59.8015 194.875 58.2289 193.801 56.7278 192.726C53.654 190.578 50.7232 188.43 47.8639 186.282L47.7924 186.21V186.138C45.9338 171.959 44.1468 158.783 42.5741 147.039C41.7878 141.167 41.073 135.653 40.3582 130.497C40.0008 127.919 39.7148 125.484 39.3574 123.121C39.2859 122.548 39.2144 121.975 39.143 121.331C39 120.758 39 120.185 39 119.612C39.0715 118.466 39.3574 117.392 39.6433 116.318C40.2152 114.241 41.0015 112.308 41.7878 110.518C42.5741 108.727 43.289 107.08 44.2183 105.648C45.1475 104.216 46.1483 102.999 47.1491 101.924C48.1498 100.922 49.1506 100.063 50.0799 99.2748C51.7954 97.6994 53.1536 96.482 54.0829 95.6227C54.5118 95.193 54.8692 94.9065 55.1551 94.6917C55.3696 94.4769 55.5126 94.4053 55.5126 94.4053Z" fill="#263238"/>
<path d="M97.9731 176.256L125.494 137.371L173.674 151.98L137.217 199.171L120.776 195.948L122.277 180.337L97.9731 176.256Z" fill="#963EEE"/>
<path d="M159.593 150.118C159.593 150.763 159.093 151.336 158.378 151.336C157.734 151.336 157.162 150.835 157.162 150.118C157.162 149.473 157.663 148.9 158.378 148.9C159.093 148.972 159.593 149.473 159.593 150.118Z" fill="#263238"/>
<path d="M140.364 144.748C140.364 145.393 139.863 145.966 139.148 145.966C138.505 145.966 137.933 145.465 137.933 144.748C137.933 144.103 138.433 143.53 139.148 143.53C139.792 143.53 140.364 144.103 140.364 144.748Z" fill="#263238"/>
<path d="M121.92 181.912L124.422 181.483C124.422 181.483 125.208 177.687 126.209 176.899C127.21 176.112 137.075 171.6 139.291 170.383C141.435 169.166 149.942 165.299 151.014 167.375C152.229 169.738 148.726 171.6 146.868 172.531C145.009 173.391 139.648 175.539 140.72 176.756C141.793 178.045 153.802 177.472 153.802 177.472L155.303 175.467C155.303 175.467 157.948 177.974 157.662 180.122C157.376 182.27 156.447 183.702 156.447 183.702H155.517C155.517 183.702 156.375 184.991 155.589 186.28C154.802 187.569 153.23 189.217 153.23 189.217C153.23 189.217 151.8 192.153 147.583 193.37C147.082 193.513 127.353 195.232 127.353 195.232L120.705 195.876L121.92 181.912Z" fill="#FFBE9D"/>
<path d="M77.3856 12.4102C70.5232 14.4153 64.8761 19.2132 65.0905 26.4458C65.162 29.6683 66.0913 33.2488 64.3042 35.8984C65.162 35.6836 65.8768 34.9675 66.1628 34.1081C67.3065 38.6912 67.5209 45.4942 71.3095 48.2154" fill="#263238"/>
<path d="M72.5262 43.3451C72.3118 43.2735 64.5916 41.1252 64.949 49.074C65.3779 56.9511 73.1696 54.946 73.1696 54.7312C73.1696 54.4448 72.5262 43.3451 72.5262 43.3451Z" fill="#FFBE9D"/>
<path d="M70.6656 51.795C70.5941 51.795 70.5226 51.8666 70.3082 52.0098C70.0937 52.153 69.7363 52.2247 69.3074 52.0814C68.4496 51.795 67.6633 50.506 67.5918 49.0738C67.5204 48.3577 67.6633 47.6416 67.8778 47.0687C68.0922 46.4958 68.4496 46.0662 68.8785 45.9945C69.3074 45.8513 69.5934 46.1378 69.7363 46.3526C69.8793 46.5674 69.8078 46.7106 69.8793 46.7106C69.8793 46.7106 70.0223 46.5674 69.9508 46.281C69.8793 46.1378 69.8078 45.9229 69.5934 45.7797C69.3789 45.6365 69.093 45.5649 68.8071 45.6365C68.2352 45.7081 67.6633 46.281 67.4489 46.9255C67.1629 47.57 67.02 48.3577 67.0915 49.1454C67.2344 50.7208 68.0922 52.153 69.2359 52.4395C69.8078 52.5827 70.2367 52.3679 70.4512 52.153C70.6656 51.9382 70.6656 51.795 70.6656 51.795Z" fill="#EB996E"/>
<path d="M113.056 58.0261C113.056 52.4405 111.984 40.9828 110.983 30.5993C109.911 19.3564 100.403 10.9064 89.1805 11.1212H88.0367C76.0276 12.0521 70.166 22.7937 71.3812 34.7527L73.0968 72.9927L101.69 88.6754L101.618 71.5605C101.618 71.5605 113.127 69.5554 113.056 58.0261Z" fill="#FFBE9D"/>
<path d="M101.619 71.561C101.619 71.561 94.3273 72.2771 86.5356 67.5508C86.5356 67.5508 90.1813 75.9292 101.69 74.7118L101.619 71.561Z" fill="#EB996E"/>
<path d="M108.195 39.1914C108.267 40.0507 107.552 40.8384 106.623 40.91C105.694 40.9817 104.979 40.3372 104.907 39.4778C104.836 38.6185 105.551 37.8308 106.48 37.7592C107.338 37.616 108.124 38.2605 108.195 39.1914Z" fill="#263238"/>
<path d="M108.767 35.6112C108.552 35.8261 107.337 34.8951 105.55 34.9667C103.763 34.9667 102.476 35.8977 102.333 35.6828C102.262 35.6112 102.405 35.1816 102.977 34.7519C103.549 34.3222 104.478 33.8926 105.55 33.8926C106.622 33.8926 107.623 34.2506 108.124 34.6803C108.695 35.1816 108.838 35.5396 108.767 35.6112Z" fill="#263238"/>
<path d="M91.6105 39.1933C91.682 40.0527 90.9672 40.8404 90.0379 40.912C89.1086 40.9836 88.3938 40.3391 88.3223 39.4798C88.2508 38.6205 88.9657 37.8327 89.8949 37.7611C90.7527 37.6179 91.539 38.2624 91.6105 39.1933Z" fill="#263238"/>
<path d="M91.1109 35.4696C90.9679 35.6844 89.6097 34.9683 87.8227 35.1831C86.0356 35.3979 84.8919 36.4721 84.6774 36.2573C84.6059 36.1857 84.7489 35.756 85.2493 35.2547C85.7497 34.7534 86.6074 34.2522 87.7512 34.109C88.8234 33.9657 89.8242 34.2522 90.396 34.6102C90.9679 34.9683 91.1824 35.3263 91.1109 35.4696Z" fill="#263238"/>
<path d="M97.9014 49.9344C97.9014 49.8628 98.9736 49.6479 100.761 49.3615C101.19 49.2899 101.618 49.2183 101.69 48.9318C101.761 48.5738 101.618 48.1441 101.333 47.5712C100.904 46.4971 100.403 45.3513 99.9029 44.1339C97.9728 39.2644 96.5432 35.2542 96.7576 35.1826C96.9721 35.111 98.6877 38.978 100.618 43.8475C101.118 45.0649 101.547 46.2106 101.976 47.2848C102.19 47.7861 102.476 48.359 102.262 49.0751C102.119 49.4331 101.833 49.6479 101.547 49.7196C101.261 49.7912 100.975 49.7912 100.761 49.8628C98.9736 50.006 97.9014 50.0776 97.9014 49.9344Z" fill="#263238"/>
<path d="M92.6825 51.2939C92.9684 51.2939 93.0399 53.2274 94.684 54.5164C96.3281 55.877 98.4011 55.5906 98.4011 55.877C98.4011 56.0202 97.9722 56.2351 97.1144 56.3067C96.2566 56.3783 95.0414 56.0918 93.9692 55.3041C92.9684 54.5164 92.468 53.3706 92.3965 52.5829C92.325 51.7236 92.5395 51.2939 92.6825 51.2939Z" fill="#263238"/>
<path d="M91.1825 27.8068C91.0395 28.308 89.2524 28.0932 87.1794 28.3797C85.1064 28.5945 83.4623 29.239 83.1764 28.8093C83.0334 28.5945 83.3193 28.1648 84.0342 27.6635C84.6775 27.1623 85.7497 26.7326 87.0364 26.5894C88.2517 26.4462 89.3954 26.5894 90.1817 26.8758C90.8965 27.1623 91.2539 27.5919 91.1825 27.8068Z" fill="#263238"/>
<path d="M107.837 31.0998C107.551 31.5295 106.336 31.0998 104.835 31.0998C103.334 31.0282 102.118 31.3863 101.833 31.0282C101.69 30.8134 101.904 30.3837 102.404 30.0257C102.905 29.6676 103.834 29.3096 104.835 29.3096C105.836 29.3096 106.693 29.6676 107.265 30.0973C107.837 30.527 107.98 30.885 107.837 31.0998Z" fill="#263238"/>
<path d="M97.616 9.90319C93.5415 8.32776 89.3955 9.11547 85.035 9.75997C81.6039 10.2612 78.6016 11.3354 75.8137 13.4121C71.4533 16.6346 69.2373 21.7905 69.0229 27.3045C68.8084 32.7469 69.3803 37.6165 70.7385 42.844L71.1674 42.7724C70.8814 44.133 70.667 45.4936 71.0959 46.7826C71.5248 48.0716 73.0259 49.0741 74.3126 48.5013C75.7423 47.8568 75.8137 45.8517 75.6708 44.2762C75.2419 38.9054 75.3134 33.6063 75.5993 28.2355C75.8137 24.2253 78.1012 19.3558 81.175 17.4939C86.8221 13.6985 94.1849 16.7778 96.6868 17.2075C100.547 13.9134 104.121 16.4914 106.48 19.3558C105.694 15.1308 101.691 11.5502 97.616 9.90319Z" fill="#263238"/>
<path d="M77.8854 17.3508C80.8162 14.8445 85.6771 15.0593 88.322 17.7805C89.4657 18.9263 90.1805 20.3585 91.3957 21.4326C93.8976 23.6526 97.6147 23.7242 100.974 23.5809C99.9737 23.2229 99.1159 22.4352 98.544 21.5042C102.69 23.8674 107.837 24.2971 112.269 22.7932C109.91 16.4199 104.406 10.333 97.8292 8.75757C91.2528 7.18214 82.4603 7.89824 77.4565 12.4813" fill="#263238"/>
<path d="M110.768 22.7224C110.768 22.7224 110.625 22.7224 110.411 22.794C110.196 22.794 109.767 22.8656 109.338 22.8656C108.409 22.8656 106.979 22.794 105.335 22.3643C103.691 21.9346 101.833 21.0753 100.046 19.6431C98.2586 18.2109 96.8289 16.2058 95.1133 14.2723C94.2555 13.3414 93.3977 12.482 92.397 11.7659C91.3962 11.1214 90.324 10.6202 89.2517 10.4053C87.1072 9.90407 85.1057 10.1189 83.4616 10.4053C81.8175 10.6918 80.5308 11.0498 79.6015 11.2647C79.1726 11.4079 78.8152 11.4795 78.5293 11.5511C78.3148 11.6227 78.1719 11.6227 78.1719 11.6227C78.1719 11.6227 78.3148 11.5511 78.5293 11.4795C78.7437 11.4079 79.1012 11.2647 79.5301 11.1214C80.4593 10.835 81.746 10.477 83.3901 10.1189C85.0342 9.83246 87.1072 9.54602 89.3232 10.0473C90.3955 10.2621 91.5392 10.7634 92.6114 11.4079C93.6122 12.0524 94.5415 12.9833 95.3993 13.9143C97.1149 15.8477 98.5445 17.8528 100.26 19.285C101.976 20.7173 103.834 21.505 105.407 22.0062C106.979 22.5075 108.338 22.6507 109.338 22.6507C110.268 22.7224 110.768 22.6507 110.768 22.7224Z" fill="#455A64"/>
<path d="M99.6877 23.653C99.6877 23.653 99.6163 23.653 99.4018 23.653C99.2588 23.653 98.9729 23.5813 98.6155 23.5097C97.9721 23.3665 97.0429 23.0801 95.9706 22.4356C94.8984 21.8627 93.7547 20.9318 92.6109 19.8576C91.4672 18.7834 90.3235 17.4228 89.0368 16.1339C87.7501 14.8449 86.4634 13.6991 85.0337 12.983C83.6756 12.2669 82.2459 11.9088 81.1022 11.8372C79.887 11.7656 78.9577 12.0521 78.3858 12.2669C77.7425 12.4817 77.4565 12.7682 77.4565 12.6965C77.4565 12.6965 77.528 12.6249 77.671 12.5533C77.814 12.4101 78.0284 12.3385 78.3143 12.1237C78.9577 11.8372 79.887 11.5508 81.1022 11.5508C82.3174 11.5508 83.747 11.9088 85.1767 12.6249C86.6064 13.341 87.9645 14.5584 89.2512 15.8474C90.5379 17.1364 91.6816 18.497 92.8254 19.5712C93.9691 20.6453 95.0413 21.5763 96.1136 22.2207C98.1151 23.5097 99.6877 23.5813 99.6877 23.653Z" fill="#455A64"/>
<path d="M64.4467 33.8204C64.3752 33.7488 65.6619 33.1043 67.0916 31.3141C67.8064 30.3831 68.4497 29.2373 69.0931 27.8767C69.7364 26.5161 70.2368 24.9407 70.8802 23.2937C71.452 21.6466 72.1668 20.1428 72.9532 18.7822C73.7395 17.4932 74.6687 16.4191 75.5265 15.703C76.3843 14.9869 77.2421 14.5572 77.8855 14.3424C78.1714 14.2708 78.4573 14.1991 78.6003 14.1275C78.7433 14.1275 78.8862 14.0559 78.8862 14.1275C78.9577 14.1991 77.4566 14.414 75.741 15.9178C74.8832 16.6339 74.0254 17.7081 73.2391 18.997C72.4528 20.286 71.8809 21.7899 71.2376 23.4369C70.6657 25.0839 70.0938 26.6594 69.4505 28.02C68.8071 29.3806 68.0923 30.5979 67.3775 31.4573C66.6627 32.3166 65.9478 32.9611 65.4475 33.3191C65.1615 33.534 64.9471 33.6056 64.8041 33.6772C64.5182 33.7488 64.4467 33.8204 64.4467 33.8204Z" fill="#455A64"/>
<path d="M65.9482 36.5438C65.9482 36.4722 66.3057 36.5438 66.949 36.4005C67.5923 36.2573 68.4501 35.9709 69.3794 35.3264C70.3087 34.6819 71.3095 33.6793 72.0243 32.3904C72.8106 31.1014 73.311 29.5259 73.7399 27.8073C74.1688 26.0886 74.4547 24.4416 74.8836 22.9378C75.241 21.4339 75.7414 20.145 76.3133 19.0708C76.8851 18.0683 77.457 17.2805 77.8859 16.7793C78.1003 16.5644 78.3148 16.3496 78.4578 16.278C78.6007 16.1348 78.6722 16.1348 78.6722 16.1348C78.7437 16.2064 77.6 17.1373 76.5992 19.214C76.0988 20.2166 75.6699 21.5772 75.3125 23.0094C74.9551 24.5132 74.6692 26.1602 74.2403 27.8789C73.8114 29.5975 73.2395 31.2446 72.4532 32.5336C71.6669 33.8942 70.5946 34.8967 69.6654 35.5412C68.6646 36.1857 67.7353 36.4722 67.092 36.5438C66.5916 36.6154 66.3771 36.6154 66.1627 36.6154C66.0197 36.6154 65.9482 36.6154 65.9482 36.5438Z" fill="#455A64"/>
<path d="M149.608 64.8984L147.332 56.25L130.945 59.8914L133.221 68.5398L149.608 64.8984Z" fill="white"/>
<path d="M153.498 54.4281L163.263 61.2558L160.78 66.2627L151.677 58.0695C149.704 57.6144 146.033 57.0682 145.305 56.704C144.837 56.4702 144.594 55.2234 144.601 54.1197C144.607 53.2103 145.47 52.7381 146.36 52.9254L153.498 54.4281Z" fill="#FFBE9D"/>
<circle cx="140.504" cy="62.1665" r="2.27588" fill="#D9BEFB"/>
</svg>
