<svg width="80" height="80" viewBox="0 0 80 80" fill="none" xmlns="http://www.w3.org/2000/svg">
<g clip-path="url(#clip0)">
<path d="M58.1704 7.93066H4.50485C2.02079 7.93066 0 9.95145 0 12.4354V44.6317C0 47.1156 2.02079 49.1365 4.50485 49.1365H7.9847V61.1225C7.9847 61.8856 8.44439 62.5739 9.14971 62.8661C9.38314 62.963 9.62846 63.0098 9.87158 63.0098C10.3628 63.0098 10.8453 62.818 11.2064 62.457L24.5269 49.1367H27.1994C28.2418 49.1367 29.0866 48.2918 29.0866 47.2495C29.0866 46.207 28.2415 45.3621 27.1994 45.3621C27.1994 45.3621 23.6541 45.3646 23.6171 45.3684C23.1777 45.3982 22.7465 45.5792 22.4105 45.915L11.7591 56.5664C11.7591 56.5664 11.7558 47.1301 11.7497 47.0812C11.6646 46.1178 10.8564 45.3621 9.87096 45.3621H4.50485C4.10204 45.3621 3.77454 45.0345 3.77454 44.6318V12.4354C3.77454 12.0325 4.1022 11.705 4.50485 11.705H58.1704C58.5732 11.705 58.9007 12.0327 58.9007 12.4354V24.7877C58.9007 25.8301 59.7459 26.6749 60.7879 26.6749C61.83 26.6749 62.6751 25.8301 62.6751 24.7877V12.4354C62.6751 9.95145 60.6543 7.93066 58.1704 7.93066Z" fill="#963EEE"/>
<path d="M75.4955 31.0146H37.9306C35.4467 31.0146 33.4258 33.0354 33.4258 35.5195V57.4836C33.4258 59.9675 35.4466 61.9885 37.9306 61.9885H61.4485L70.9766 71.5166C71.3377 71.8777 71.8204 72.0694 72.3115 72.0694C72.5546 72.0694 72.7999 72.0224 73.0334 71.9257C73.7383 71.6335 74.1984 70.9455 74.1984 70.1821V61.9883H75.4954C77.9793 61.9883 80.0002 59.9675 80.0002 57.4834V35.5193C80.0004 33.0354 77.9796 31.0146 75.4955 31.0146ZM76.226 57.4836C76.226 57.8863 75.8984 58.2139 75.4957 58.2139H72.3119C71.3188 58.2139 70.5066 58.9814 70.4321 59.9556C70.4272 59.9969 70.4241 65.626 70.4241 65.626L63.5719 58.7736C63.5647 58.7664 63.5572 58.7597 63.55 58.7525C63.5232 58.7263 63.4977 58.7035 63.4736 58.683C63.1415 58.3917 62.7076 58.2138 62.2313 58.2138H37.9306C37.5278 58.2138 37.2003 57.8861 37.2003 57.4834V35.5193C37.2003 35.1165 37.528 34.789 37.9306 34.789H75.4957C75.8984 34.789 76.226 35.1167 76.226 35.5193V57.4836Z" fill="#963EEE"/>
<path d="M56.7134 44.6143C55.6716 44.6143 54.8262 45.4597 54.8262 46.5015C54.8262 47.5432 55.6716 48.3886 56.7134 48.3886C57.7552 48.3886 58.6006 47.5432 58.6006 46.5015C58.6006 45.4597 57.7551 44.6143 56.7134 44.6143Z" fill="white"/>
<path d="M48.5108 20.4082H14.1636C13.1214 20.4082 12.2764 21.253 12.2764 22.2954C12.2764 23.3377 13.1215 24.1826 14.1636 24.1826H48.5108C49.553 24.1826 50.398 23.3377 50.398 22.2954C50.398 21.253 49.553 20.4082 48.5108 20.4082Z" fill="white"/>
<path d="M27.1987 32.8857H14.1636C13.1214 32.8857 12.2764 33.7306 12.2764 34.7729C12.2764 35.8153 13.1215 36.6601 14.1636 36.6601H27.1987C28.2411 36.6601 29.0859 35.8153 29.0859 34.7729C29.0859 33.7306 28.2409 32.8857 27.1987 32.8857Z" fill="white"/>
<path d="M47.9438 44.6143C46.9023 44.6143 46.0566 45.4597 46.0566 46.5015C46.0566 47.5432 46.9023 48.3886 47.9438 48.3886C48.9857 48.3886 49.831 47.5432 49.831 46.5015C49.831 45.4597 48.9857 44.6143 47.9438 44.6143Z" fill="white"/>
<path d="M65.4809 44.6143C64.4392 44.6143 63.5938 45.4597 63.5938 46.5015C63.5938 47.5432 64.4392 48.3886 65.4809 48.3886C66.5228 48.3886 67.3681 47.5432 67.3681 46.5015C67.3681 45.4597 66.5227 44.6143 65.4809 44.6143Z" fill="white"/>
</g>
<defs>
<clipPath id="clip0">
<rect width="80" height="80" fill="white"/>
</clipPath>
</defs>
</svg>
