<svg width="86" height="86" viewBox="0 0 86 86" fill="none" xmlns="http://www.w3.org/2000/svg">
<path d="M81.6992 42.9996H80.266V8.59992H81.6992C84.074 8.59992 85.9992 6.67468 85.9992 4.29996C85.9992 1.92524 84.0741 0 81.6992 0H4.29996C1.92507 0 0 1.92507 0 4.29996C0 6.67485 1.92507 8.59992 4.29996 8.59992H5.73322V42.9996H4.29996C1.92507 42.9996 0 44.9248 0 47.2996C0 49.6743 1.92507 51.5995 4.29996 51.5995H81.6992C84.074 51.5995 85.9992 49.6743 85.9992 47.2996C85.9992 44.9248 84.0741 42.9996 81.6992 42.9996ZM4.29996 5.73322C3.50883 5.73222 2.8677 5.09109 2.8667 4.29996C2.8677 3.50883 3.50883 2.8677 4.29996 2.8667H81.6992C82.4909 2.8667 83.1325 3.50833 83.1325 4.29996C83.1325 5.09159 82.4909 5.73322 81.6992 5.73322H4.29996ZM77.3993 8.59992V42.9996H8.59992V8.59992H77.3993ZM81.6992 48.7328H4.29996C3.50833 48.7328 2.8667 48.0912 2.8667 47.2996C2.8667 46.5079 3.50833 45.8663 4.29996 45.8663H81.6992C82.4904 45.8673 83.1315 46.5084 83.1325 47.2996C83.1315 48.0907 82.4904 48.7318 81.6992 48.7328Z" fill="#ED9C55"/>
<path d="M24.3674 32.8716C25.159 32.8716 25.8007 32.2298 25.8007 31.4384V24.4214L30.1006 26.2485V34.8017L30.1038 34.8173C30.1055 34.9994 30.1419 35.1795 30.211 35.3478C30.3096 35.5023 30.4107 35.655 30.5145 35.8062C30.6467 35.9414 30.8046 36.049 30.9786 36.123L38.1058 39.1492C41.2387 40.4681 44.7712 40.4668 47.9031 39.1457L55.0226 36.1228C55.1966 36.0489 55.3545 35.9412 55.4867 35.806C55.5905 35.655 55.6916 35.5021 55.7902 35.3476C55.8594 35.1791 55.8957 34.9991 55.8974 34.8172L55.9004 34.8016V26.2483L61.577 23.836C62.4857 23.4137 63.067 22.5027 63.067 21.5006C63.067 20.4985 62.4857 19.5874 61.577 19.1652L43.89 11.6495C43.3218 11.4059 42.6785 11.4059 42.1103 11.6495L24.424 19.1652C23.5035 19.574 22.9168 20.4936 22.934 21.5006V31.438C22.9341 32.2298 23.5758 32.8716 24.3674 32.8716ZM53.0337 33.8534L46.7908 36.5039C44.3698 37.524 41.6396 37.5253 39.2175 36.5074L32.967 33.8534V27.4668L42.1108 31.3522C42.679 31.5957 43.3223 31.5957 43.8906 31.3522L53.0335 27.4668V33.8534H53.0337ZM43.0005 14.386L59.7426 21.5009L53.9158 23.9771L53.9032 23.9825L43.0005 28.6157L32.0977 23.9825L32.0851 23.9771L26.2584 21.5009L43.0005 14.386Z" fill="white"/>
<path d="M83.1335 77.3997H80.2668V75.5569C80.23 71.928 78.1476 68.6308 74.8866 67.0383C77.1696 65.0893 77.9962 61.9242 76.9575 59.1079C75.919 56.2915 73.2352 54.4209 70.2334 54.4209C67.2317 54.4209 64.5479 56.2915 63.5094 59.1079C62.4708 61.9242 63.2972 65.0893 65.5802 67.0383C62.3193 68.6309 60.2369 71.928 60.2001 75.5569V77.3997H53.0334V75.5569C52.9966 71.928 50.9142 68.6308 47.6533 67.0383C49.9363 65.0893 50.7629 61.9242 49.7241 59.1079C48.6856 56.2915 46.0018 54.4209 43.0001 54.4209C39.9983 54.4209 37.3146 56.2915 36.276 59.1079C35.2375 61.9242 36.0639 65.0893 38.3469 67.0383C35.086 68.6309 33.0035 71.928 32.9667 75.5569V77.3997H25.8007V75.5569C25.764 71.928 23.6815 68.6308 20.4206 67.0383C22.7036 65.0893 23.5302 61.9242 22.4914 59.1079C21.4529 56.2915 18.7691 54.4209 15.7674 54.4209C12.7656 54.4209 10.0819 56.2915 9.04332 59.1079C8.00478 61.9242 8.83118 65.0893 11.1142 67.0383C7.85328 68.6309 5.77082 71.928 5.73403 75.5569V77.3997H2.86767C1.28509 77.4012 0.00248827 78.6838 0.000976562 80.2664V83.133C0.00248827 84.7156 1.28509 85.9981 2.86767 85.9997H83.1337C84.7162 85.9982 85.9987 84.7156 86.0004 83.133V80.2664C85.9987 78.6838 84.7161 77.4012 83.1335 77.3997ZM70.2336 57.3331C72.6083 57.3331 74.5336 59.2582 74.5336 61.6331C74.5336 64.008 72.6085 65.933 70.2336 65.933C67.8599 65.9305 65.9362 64.0068 65.9336 61.6331C65.9336 59.2584 67.8589 57.3331 70.2336 57.3331ZM63.0671 75.5569C63.2904 71.7623 66.4327 68.7996 70.2338 68.7996C74.0349 68.7996 77.177 71.7623 77.4004 75.5569V77.3997H63.0673V75.5569H63.0671ZM43.0006 57.3331C45.3753 57.3331 47.3005 59.2582 47.3005 61.6331C47.3005 64.008 45.3753 65.933 43.0006 65.933C40.6269 65.9305 38.7031 64.0068 38.7006 61.6331C38.7006 59.2584 40.6259 57.3331 43.0006 57.3331ZM35.8339 75.5569C36.0572 71.7623 39.1995 68.7996 43.0006 68.7996C46.8017 68.7996 49.9438 71.7623 50.1672 75.5569V77.3997H35.8341V75.5569H35.8339ZM15.7676 57.3331C18.1423 57.3331 20.0675 59.2582 20.0675 61.6331C20.0675 64.008 18.1424 65.933 15.7676 65.933C13.3938 65.9305 11.4701 64.0068 11.4676 61.6331C11.4676 59.2584 13.3927 57.3331 15.7676 57.3331ZM8.6009 75.5569C8.7215 71.7153 11.9255 68.6944 15.7676 68.7997C19.6095 68.6944 22.8134 71.7153 22.9342 75.5569V77.3997H8.6009V75.5569ZM2.86767 83.1329V80.2662H83.1337L83.1357 83.1329H2.86767Z" fill="#ED9C55"/>
</svg>
