<svg width="100" height="90" viewBox="0 0 100 90" fill="none" xmlns="http://www.w3.org/2000/svg">
<path d="M96.8712 77.4193H92.028C92.4012 76.6924 92.6131 75.8698 92.6131 74.998L92.6116 35.6118C92.6116 34.8099 91.9616 34.1602 91.1599 34.1602C90.3581 34.1602 89.7083 34.8101 89.7083 35.6118L89.7099 74.998C89.7099 76.3322 88.6246 77.4174 87.2905 77.4174L11.8084 77.4193C10.4743 77.4193 9.38905 76.3341 9.38905 75L9.38712 24.6792C9.38712 23.3451 10.4723 22.2599 11.8065 22.2599L50.3244 22.2581C49.8253 23.1391 49.7508 24.2099 50.1429 25.1613L44.9976 25.1615C44.9947 25.1615 44.9918 25.1612 44.9889 25.1612H42.3614C42.3574 25.1612 42.3535 25.1615 42.3496 25.1615L13.742 25.1631C12.9401 25.1631 12.2903 25.813 12.2903 26.6147L12.2917 57.2713C12.2917 58.0732 12.9416 58.7229 13.7433 58.7229C14.5452 58.7229 15.1949 58.073 15.1949 57.2713L15.1936 28.0663L39.0328 28.0652C38.8348 28.8562 38.6132 29.8239 38.5081 30.5699C38.4909 30.6928 38.4132 30.8047 38.3004 30.8697L35.8729 32.2679C35.7599 32.3333 35.6234 32.3449 35.5073 32.2979C34.683 31.9656 33.5047 31.6168 32.661 31.3828C31.1987 30.9771 29.6455 31.6106 28.8858 32.9232L27.5739 35.1901C26.8119 36.5066 27.0397 38.17 28.1277 39.2351C28.7511 39.8451 29.6408 40.6872 30.3415 41.2331C30.4386 41.3085 30.4965 41.4309 30.4965 41.5603V44.3533C30.4965 44.4827 30.4385 44.6055 30.3415 44.6809C29.6408 45.2266 28.7509 46.0687 28.1277 46.6787C27.0397 47.7438 26.8119 49.4074 27.5739 50.7237L28.8858 52.9906C29.6455 54.3032 31.1979 54.9375 32.6614 54.5308C33.5047 54.297 34.683 53.9482 35.5079 53.6157C35.6229 53.5693 35.7595 53.5805 35.8727 53.6457L38.3004 55.0439C38.4132 55.109 38.4909 55.221 38.5081 55.3437C38.632 56.2223 38.9174 57.4106 39.1352 58.2524C39.5157 59.7243 40.8423 60.7525 42.3613 60.7525H44.9887C46.5076 60.7525 47.8342 59.7243 48.2146 58.2526C48.4325 57.4104 48.718 56.2223 48.8418 55.3437C48.8593 55.221 48.9369 55.109 49.0495 55.0439L51.4774 53.6457C51.5904 53.5805 51.7267 53.5691 51.8426 53.6159C52.667 53.9482 53.8453 54.297 54.689 54.531C56.151 54.9361 57.7044 54.3032 58.4641 52.9906L59.776 50.7237C60.538 49.4072 60.3102 47.7438 59.2223 46.6787C58.5988 46.0687 57.7091 45.2265 57.0084 44.6811C56.9113 44.6053 56.8532 44.4827 56.8532 44.3533V41.5603C56.8532 41.4309 56.9111 41.3084 57.0083 41.2329C57.7089 40.6873 58.5988 39.8451 59.2221 39.2351C60.31 38.17 60.5378 36.5064 59.7758 35.1901L58.4639 32.9232C57.7043 31.6106 56.152 30.9767 54.6884 31.383C53.8451 31.6168 52.6668 31.9656 51.8419 32.2981C51.7269 32.3441 51.5902 32.3331 51.477 32.2681L49.0491 30.8695C48.9365 30.8046 48.8589 30.6928 48.8417 30.5701C48.7364 29.8239 48.5148 28.8558 48.3169 28.0648L51.7989 28.0646C52.6004 29.2164 54.052 29.7514 55.4248 29.3699C56.2685 29.1359 57.4472 28.7871 58.2714 28.4548C58.3863 28.4085 58.523 28.4195 58.6362 28.4848L61.0639 29.883C61.1767 29.948 61.2543 30.0601 61.2716 30.1828C61.3956 31.0613 61.6809 32.2497 61.8987 33.0914C62.2792 34.5634 63.6058 35.5915 65.1247 35.5915H67.7521C69.2711 35.5915 70.5977 34.5634 70.978 33.0916C71.196 32.2495 71.4816 31.0613 71.6053 30.1828C71.6227 30.0601 71.7003 29.948 71.813 29.883L74.2407 28.4848C74.3541 28.4195 74.4904 28.4081 74.6061 28.455C75.4304 28.7873 76.6088 29.1361 77.4524 29.3701C78.8245 29.7504 80.2765 29.2164 81.078 28.0646H83.9011L83.903 71.6111L15.1955 71.6129L15.1951 63.5367C15.1951 62.7348 14.5452 62.085 13.7435 62.085C12.9416 62.085 12.2919 62.735 12.2919 63.5367L12.2923 73.0645C12.2923 73.8664 12.9422 74.5161 13.7439 74.5161L85.355 74.5142C85.74 74.5142 86.1093 74.3613 86.3816 74.0889C86.6537 73.8168 86.8066 73.4477 86.8066 73.0625L86.8047 26.6128C86.8047 25.8109 86.1548 25.1612 85.3531 25.1612H82.7346C83.1267 24.2097 83.052 23.139 82.5528 22.2579H87.2886C88.6227 22.2579 89.7079 23.3431 89.7079 24.6773L89.7081 29.4543C89.7081 30.2561 90.3581 30.9059 91.1597 30.9059C91.9616 30.9059 92.6114 30.2559 92.6114 29.4543L92.6112 24.6773C92.6112 21.7425 90.2234 19.3547 87.2886 19.3547H79.6509C79.63 19.3038 79.6171 19.249 79.6171 19.1919V16.399C79.6171 16.2695 79.675 16.1472 79.7725 16.0715C80.473 15.5255 81.3629 14.6836 81.9861 14.0737C83.0741 13.0086 83.3019 11.3451 82.5399 10.0287L81.228 7.76189C80.4683 6.44924 78.9157 5.81498 77.4524 6.22163C76.6082 6.45582 75.4291 6.8046 74.6059 7.13673C74.4909 7.18279 74.3543 7.17176 74.2411 7.10673L71.8132 5.70814C71.7005 5.6433 71.6229 5.53143 71.6057 5.40872C71.4816 4.52943 71.1962 3.34143 70.9786 2.50007C70.5981 1.02813 69.2715 0 67.7525 0H65.1251C63.6061 0 62.2796 1.02813 61.8992 2.49988C61.6815 3.34162 61.3958 4.52943 61.2719 5.40853C61.2547 5.53143 61.1771 5.6433 61.0643 5.70834L58.6368 7.10653C58.5232 7.17214 58.3867 7.18318 58.2717 7.13673C57.4494 6.80498 56.2699 6.45582 55.4248 6.22143C53.9626 5.81595 52.4093 6.44924 51.6497 7.76189L50.3378 10.0287C49.5758 11.3453 49.8036 13.0086 50.8915 14.0737C51.5144 14.6834 52.4039 15.5249 53.1053 16.0717C53.2025 16.1472 53.2604 16.2695 53.2604 16.399V19.1919C53.2604 19.2488 53.2474 19.3038 53.2265 19.3547L11.8065 19.3566C8.8717 19.3566 6.48389 21.7444 6.48389 24.6792L6.48582 75C6.48582 75.8709 6.69756 76.6929 7.06995 77.4193H2.22581C0.998518 77.4193 0 78.4178 0 79.6451V83.5161C0 87.0914 2.90865 90 6.48389 90H74.2966C75.0985 90 75.7482 89.3503 75.7482 88.5484C75.7482 87.7465 75.0985 87.0968 74.2966 87.0968H6.48389C4.50949 87.0968 2.90323 85.4905 2.90323 83.5161V80.3226H39.1936V81.1935C39.1936 83.2746 40.8868 84.9677 42.9678 84.9677H56.1292C58.2102 84.9677 59.9034 83.2746 59.9034 81.1935V80.3226H96.1938V83.5161C96.1938 85.4905 94.5875 87.0968 92.6131 87.0968H80.562C79.7601 87.0968 79.1104 87.7465 79.1104 88.5484C79.1104 89.3503 79.7601 90 80.562 90H92.6131C96.1883 90 99.097 87.0914 99.097 83.5161V79.6451C99.097 78.4178 98.0985 77.4193 96.8712 77.4193V77.4193ZM45.404 28.388C45.6853 29.4757 45.8852 30.3945 45.9671 30.9754C46.1105 31.9919 46.706 32.8702 47.6006 33.3852L50.0285 34.7838C50.9215 35.2979 51.9783 35.3732 52.9279 34.9903C53.4733 34.7705 54.3742 34.4828 55.4641 34.1803C55.6532 34.1275 55.8535 34.2086 55.9513 34.3774L57.2632 36.6442C57.3601 36.8116 57.3305 37.024 57.191 37.1604C56.3856 37.9489 55.6869 38.582 55.2239 38.9426C54.4143 39.5734 53.95 40.5274 53.95 41.5603V44.3533C53.95 45.386 54.4141 46.3402 55.2239 46.971C55.6871 47.3318 56.3856 47.9649 57.191 48.7534C57.3305 48.8898 57.3601 49.1022 57.2632 49.2696L55.9513 51.5364C55.8535 51.705 55.6524 51.7853 55.4645 51.7337C54.3741 51.4311 53.4733 51.1433 52.9282 50.9237C51.9777 50.5404 50.921 50.6157 50.0281 51.1302L47.6004 52.5284C46.7057 53.0438 46.1103 53.9223 45.9669 54.9384V54.9386C45.885 55.5193 45.6851 56.4381 45.4036 57.526C45.3545 57.7163 45.1838 57.8494 44.9885 57.8494H42.3611C42.1658 57.8494 41.9951 57.7163 41.9457 57.5258C41.6645 56.4381 41.4645 55.5193 41.3827 54.9384C41.2393 53.9223 40.6439 53.0438 39.7491 52.5284L37.3216 51.1302C36.8049 50.8325 36.2335 50.6819 35.6596 50.6819C35.2414 50.6819 34.8219 50.762 34.4217 50.9235C33.8763 51.1433 32.9753 51.431 31.8854 51.7335C31.6959 51.7865 31.4958 51.705 31.3983 51.5364L30.0864 49.2696C29.9894 49.1022 30.019 48.8898 30.1586 48.7534C30.9639 47.9649 31.6627 47.3318 32.1258 46.9708C32.9354 46.34 33.3996 45.386 33.3996 44.3533V41.5603C33.3996 40.5274 32.9352 39.5732 32.1256 38.9428C31.6625 38.582 30.9639 37.9489 30.1586 37.1604C30.019 37.024 29.9894 36.8116 30.0864 36.6442L31.3983 34.3774C31.496 34.2088 31.6973 34.1283 31.885 34.1801C32.9755 34.4827 33.8763 34.7705 34.4213 34.9901C35.371 35.3732 36.4278 35.2981 37.3214 34.7836L39.7489 33.3854C40.6437 32.8702 41.2393 31.9919 41.3827 30.9752C41.4645 30.3945 41.6645 29.4757 41.9459 28.3878C41.9945 28.1995 42.1623 28.0677 42.3549 28.065L44.9929 28.0648C45.1867 28.0669 45.3551 28.1989 45.404 28.388V28.388ZM52.9226 11.9991C52.7831 11.8626 52.7535 11.6503 52.8504 11.4829L54.1623 9.21602C54.2599 9.04744 54.461 8.96692 54.6491 9.01879C55.7413 9.3217 56.6419 9.6095 57.1854 9.8288C58.1351 10.212 59.1921 10.1367 60.0855 9.62228L62.513 8.22408C63.4078 7.70886 64.0033 6.83053 64.1467 5.81382C64.2286 5.23279 64.4285 4.31401 64.71 3.22646C64.7591 3.0362 64.9298 2.90304 65.1251 2.90304H67.7525C67.9478 2.90304 68.1185 3.0362 68.1679 3.22665C68.4491 4.31401 68.6491 5.23279 68.7309 5.81401C68.8743 6.83053 69.4699 7.70886 70.3645 8.22389L72.7925 9.62247C73.6858 10.1367 74.7426 10.2122 75.6921 9.8288C76.2362 9.60931 77.1369 9.32189 78.2282 9.01899C78.4169 8.96615 78.6178 9.04725 78.7153 9.21602L80.0272 11.4829C80.1242 11.6503 80.0946 11.8626 79.955 11.9991C79.1499 12.7874 78.4511 13.4207 77.9886 13.7811C77.1786 14.4118 76.714 15.3658 76.714 16.399V19.1919C76.714 20.2249 77.1784 21.1791 77.988 21.8097C78.4513 22.1704 79.1499 22.8037 79.955 23.5921C80.0946 23.7285 80.1242 23.9408 80.0272 24.1082L78.7153 26.3751C78.6178 26.5437 78.4167 26.6242 78.2286 26.5723C77.1381 26.2698 76.2373 25.982 75.6923 25.7623C74.7427 25.3793 73.6854 25.4542 72.7922 25.9688L70.3645 27.367C69.4697 27.8824 68.8743 28.761 68.7309 29.7771V29.7773C68.6491 30.3579 68.4491 31.2767 68.1677 32.3647C68.1185 32.5549 67.9478 32.6881 67.7525 32.6881H65.1251C64.9298 32.6881 64.7591 32.5549 64.7098 32.3645C64.4285 31.2767 64.2286 30.3579 64.1467 29.7771C64.0033 28.761 63.4079 27.8824 62.5132 27.367L60.0857 25.9688C59.5689 25.6712 58.9976 25.5206 58.4237 25.5206C58.0054 25.5206 57.586 25.6007 57.1857 25.7621C56.6411 25.9818 55.7401 26.2694 54.6495 26.5721C54.4604 26.625 54.2599 26.5439 54.1623 26.3751L53.9053 25.9309C53.8972 25.9156 53.8881 25.9011 53.8795 25.8864L52.8504 24.1082C52.7535 23.9408 52.7831 23.7285 52.9226 23.5921C53.7274 22.8041 54.4261 22.171 54.8899 21.8095C55.6995 21.1787 56.1636 20.2247 56.1636 19.1919V16.399C56.1636 15.366 55.6993 14.4118 54.8899 13.7815C54.4259 13.4201 53.7274 12.787 52.9226 11.9991V11.9991ZM57.0001 81.1935C57.0001 81.6737 56.6094 82.0645 56.1292 82.0645H42.9678C42.4876 82.0645 42.0969 81.6737 42.0969 81.1935V80.3226H57.0001V81.1935Z" fill="#ED9C55"/>
<path d="M66.4393 25.7003C70.8068 25.7003 74.3601 22.1543 74.3601 17.7954C74.3601 13.4366 70.807 9.89062 66.4393 9.89062C62.0717 9.89062 58.5186 13.4366 58.5186 17.7954C58.5186 22.1543 62.0717 25.7003 66.4393 25.7003ZM64.1773 22.2578H68.7014C68.021 22.6018 67.2528 22.797 66.4393 22.797C65.6259 22.797 64.8575 22.6018 64.1773 22.2578ZM66.4393 12.7941C69.2061 12.7941 71.4569 15.0377 71.4569 17.7955C71.4569 18.34 71.4569 20.8648 68.7014 22.2578H64.1773C61 20.8696 61.4218 18.34 61.4218 17.7955C61.4218 15.0375 63.6726 12.7941 66.4393 12.7941Z" fill="white"/>
<path d="M35.7539 42.9565C35.7539 47.3154 39.3071 50.8614 43.6747 50.8614C48.0423 50.8614 51.5955 47.3154 51.5955 42.9565C51.5955 38.5978 48.0423 35.0518 43.6747 35.0518C39.3071 35.0518 35.7539 38.598 35.7539 42.9565V42.9565ZM48.6923 42.9565C48.6923 45.7144 46.4415 47.9582 43.6747 47.9582C40.9079 47.9582 38.6571 45.7144 38.6571 42.9565C38.6571 40.1986 40.9079 37.955 43.6747 37.955C46.4415 37.955 48.6923 40.1986 48.6923 42.9565V42.9565Z" fill="white"/>
</svg>
