<svg width="86" height="90" viewBox="0 0 86 90" fill="none" xmlns="http://www.w3.org/2000/svg">
<path d="M65.9436 61.5789L50.9897 68.9849C50.4623 66.775 48.7979 64.8945 46.4672 64.204L39.5431 62.1516C34.5511 60.6674 27.9811 59.4482 21.4353 63.2233C21.02 63.4615 20.648 63.6999 20.3197 63.9103C19.0753 64.7078 18.314 65.1928 16.1403 65.2065C15.4424 63.4882 13.7556 62.273 11.7893 62.273H4.6946C2.10604 62.273 0 64.378 0 66.9655V83.4229C0 86.0104 2.10586 88.1154 4.6946 88.1154H11.7895C14.2749 88.1154 16.3141 86.1746 16.4729 83.7296C19.411 83.7703 21.3362 83.9921 25.3231 85.1638C27.5158 85.8095 36.8881 88.5357 37.6015 88.7426C39.9566 89.4257 41.9361 90 43.9992 89.9998C46.329 89.9998 48.7653 89.2673 51.9683 87.1326C51.9832 87.1226 51.998 87.1124 52.0126 87.102L72.6031 72.449C75.5249 70.3736 76.3748 66.6259 74.5813 63.7343C72.819 60.8828 69.1871 59.9761 65.9436 61.5789V61.5789ZM12.9683 83.4229C12.9683 84.0719 12.4395 84.5999 11.7893 84.5999H4.6946C4.04456 84.5999 3.51563 84.0719 3.51563 83.4229V66.9655C3.51563 66.3165 4.04438 65.7885 4.6946 65.7885H11.7895C12.4395 65.7885 12.9685 66.3165 12.9685 66.9655V83.4229H12.9683ZM70.566 69.5843L49.9962 84.2224C45.3327 87.3247 43.3529 86.7505 38.5807 85.3663C37.8581 85.1568 28.5062 82.4366 26.3154 81.7915C22.0411 80.5352 19.9292 80.2662 16.4839 80.2161V68.717C19.458 68.6369 20.86 67.7397 22.2167 66.8702C22.525 66.6725 22.8437 66.4682 23.1879 66.271C27.4497 63.8131 32.0413 63.5889 38.5428 65.5218L45.4682 67.5746C47.0706 68.0494 47.996 69.7322 47.5321 71.3272C47.5312 71.3298 47.5305 71.3325 47.5296 71.3349C47.0613 72.9303 45.3749 73.8488 43.7695 73.3838L33.8673 70.5138C32.9346 70.2435 31.9597 70.7803 31.6897 71.7129C31.4194 72.6452 31.9562 73.6203 32.8888 73.8904L42.7909 76.7604C45.9889 77.6872 49.3373 76.0599 50.6271 73.0873L67.5024 64.7296C68.8577 64.0597 70.6975 64.1375 71.592 65.5849C72.3948 66.8792 71.9541 68.5982 70.566 69.5843V69.5843Z" fill="#963EEE"/>
<path d="M35.5688 40.2587L42.8481 47.2792C43.1888 47.6076 43.6284 47.7717 44.0684 47.7717C44.5084 47.7717 44.9482 47.6076 45.2887 47.2792L52.568 40.2587C52.5831 40.2441 52.5982 40.229 52.6128 40.2138C55.2653 37.4639 55.2653 32.9894 52.6108 30.2377C50.4078 27.9603 46.6745 27.8799 44.0661 29.977C41.4591 27.878 37.7251 27.958 35.5252 30.2381C32.8653 32.9889 32.8653 37.4648 35.5252 40.2154C35.5396 40.23 35.554 40.2444 35.5688 40.2587V40.2587ZM38.0542 32.6802C39.162 31.532 40.994 31.892 42.056 32.8837L42.1255 32.9488C42.6482 33.438 43.1888 33.9439 44.0679 33.9439C44.9501 33.9439 45.4894 33.4362 46.0109 32.9453L46.076 32.8839C47.1384 31.892 48.9727 31.533 50.0828 32.6802C51.4076 34.0537 51.4141 36.3698 50.1023 37.7527L44.0686 43.572L38.0338 37.7518C36.6958 36.3468 36.7023 34.0784 38.0542 32.6802V32.6802Z" fill="white"/>
<path d="M4.63477 39.8691H14.1428C15.1136 39.8691 15.9006 39.0822 15.9006 38.1113C15.9006 37.1405 15.1136 36.3535 14.1428 36.3535H4.63477C3.66393 36.3535 2.87695 37.1405 2.87695 38.1113C2.87695 39.0822 3.66393 39.8691 4.63477 39.8691Z" fill="#963EEE"/>
<path d="M5.1296 28.0126L13.3764 32.0385C13.6248 32.1596 13.8876 32.2171 14.1463 32.2171C14.7971 32.2171 15.4225 31.8543 15.7273 31.2301C16.1532 30.3577 15.7913 29.3053 14.9189 28.8793L6.67208 24.8534C5.79933 24.4275 4.7471 24.7894 4.32118 25.6618C3.89526 26.5342 4.2572 27.5866 5.1296 28.0126V28.0126Z" fill="#963EEE"/>
<path d="M13.3764 44.1855L5.1296 48.2114C4.2572 48.6374 3.89526 49.6898 4.32118 50.5622C4.62581 51.1864 5.25124 51.5492 5.90216 51.5492C6.16091 51.5492 6.42388 51.4917 6.67208 51.3706L14.9189 47.3447C15.7913 46.9187 16.1532 45.8663 15.7273 44.9939C15.3012 44.1215 14.2488 43.7594 13.3764 44.1855V44.1855Z" fill="#963EEE"/>
<path d="M83.4963 36.3535H73.9883C73.0176 36.3535 72.2305 37.1405 72.2305 38.1113C72.2305 39.0822 73.0176 39.8691 73.9883 39.8691H83.4963C84.467 39.8691 85.2541 39.0822 85.2541 38.1113C85.2541 37.1405 84.4672 36.3535 83.4963 36.3535Z" fill="#963EEE"/>
<path d="M73.99 32.2171C74.249 32.2171 74.5119 32.1596 74.7603 32.0383L83.002 28.0124C83.8742 27.5863 84.236 26.5337 83.8099 25.6615C83.3836 24.7892 82.3317 24.4275 81.4588 24.8536L73.2171 28.8795C72.3449 29.3056 71.9831 30.3582 72.4092 31.2304C72.714 31.8542 73.3393 32.2171 73.99 32.2171Z" fill="#963EEE"/>
<path d="M83.002 48.2115L74.7603 44.1856C73.8875 43.7595 72.8353 44.1214 72.4092 44.9935C71.9831 45.8657 72.3449 46.9183 73.2171 47.3444L81.4588 51.3703C81.7072 51.4916 81.9702 51.5491 82.2291 51.5491C82.8797 51.5491 83.5051 51.1862 83.8099 50.5624C84.2358 49.6902 83.8742 48.6376 83.002 48.2115Z" fill="#963EEE"/>
<path d="M21.8379 24.1782V49.8854C21.8379 53.2119 24.5455 55.9182 27.8736 55.9182H60.2617C63.5871 55.9182 66.2926 53.2119 66.2926 49.8854V24.1791C68.9492 23.6929 70.9693 21.3636 70.9693 18.5701V16.0738C70.9693 12.9285 68.4094 10.3699 65.2625 10.3699H61.6214C62.0385 8.81506 61.9316 7.13635 61.2693 5.48945C60.0831 2.53966 57.3567 0.349416 54.4852 0.0395131C51.8857 -0.240683 49.5179 0.979066 47.8186 3.47675L44.0668 9.00034L40.311 3.4764C38.6145 0.980121 36.2491 -0.23998 33.6491 0.0391615C30.7764 0.348361 28.0488 2.5386 26.8616 5.48962C26.1991 7.13652 26.092 8.81506 26.509 10.3697H22.8726C19.7259 10.3697 17.166 12.9284 17.166 16.0736V18.5699C17.1662 21.3618 19.184 23.6901 21.8379 24.1782V24.1782ZM50.7266 5.45306C51.6867 4.04171 52.8258 3.39571 54.1081 3.53476C55.7 3.70649 57.3035 5.04964 58.0078 6.80096C58.3158 7.56666 58.6528 8.965 57.8495 10.3699H47.3869L50.7266 5.45306ZM30.1236 6.80183C30.8286 5.04947 32.4332 3.70597 34.0258 3.53458C35.3083 3.39606 36.4452 4.04189 37.4041 5.45271L40.7473 10.3699H30.2816C29.4785 8.96536 29.8156 7.56736 30.1236 6.80183V6.80183ZM20.6818 16.0738C20.6818 14.8671 21.6646 13.8855 22.8728 13.8855H65.2627C66.4708 13.8855 67.4538 14.8672 67.4538 16.0738V18.5701C67.4538 19.7768 66.4708 20.7584 65.2627 20.7584H44.0678C43.0972 20.7584 42.31 21.5453 42.31 22.5162C42.31 23.487 43.0972 24.274 44.0678 24.274H62.7771V49.8856C62.7771 51.2735 61.6488 52.4028 60.2619 52.4028H27.8738C26.4842 52.4028 25.3538 51.2735 25.3538 49.8856V24.274H28.0135C28.9843 24.274 29.7713 23.487 29.7713 22.5162C29.7713 21.5453 28.9843 20.7584 28.0135 20.7584H22.8729C21.6648 20.7584 20.682 19.7766 20.682 18.5701V16.0738H20.6818Z" fill="#963EEE"/>
<path d="M35.9116 24.2744C36.8825 24.2744 37.6695 23.4874 37.6695 22.5166C37.6695 21.5458 36.8825 20.7588 35.9116 20.7588H35.9067C34.9359 20.7588 34.1514 21.5458 34.1514 22.5166C34.1512 23.4874 34.9408 24.2744 35.9116 24.2744V24.2744Z" fill="#963EEE"/>
</svg>
