<svg width="119" height="75" viewBox="0 0 119 75" fill="none" xmlns="http://www.w3.org/2000/svg">
<path d="M110.265 31.7951L107.195 19.5137C108.034 19.3354 108.664 18.5906 108.664 17.6984V15.7182C108.664 11.4188 105.166 7.92116 100.867 7.92116H86.8817V3.83669C86.8817 1.72105 85.1607 0 83.0451 0H11.7574C9.64174 0 7.9207 1.72105 7.9207 3.83669V37.5003C7.9207 38.5255 8.75181 39.3569 9.77721 39.3569C10.8024 39.3569 11.6337 38.5258 11.6337 37.5003V3.83669C11.6337 3.76838 11.6891 3.71303 11.7574 3.71303H83.0448C83.1131 3.71303 83.1685 3.76838 83.1685 3.83669V37.5008C83.1685 38.526 83.9996 39.3573 85.025 39.3573C86.0502 39.3573 86.8815 38.5262 86.8815 37.5008V35.3963H108.781C108.783 35.3963 108.784 35.3967 108.786 35.3967C108.788 35.3967 108.789 35.3965 108.791 35.3965C111.486 35.3984 113.774 37.1671 114.56 39.6044H108.787C107.762 39.6044 106.931 40.4355 106.931 41.4609V45.4213C106.931 48.6288 109.54 51.2381 112.748 51.2381H114.852V59.4064H109.998C108.403 54.802 104.026 51.4855 98.8862 51.4855C93.7465 51.4855 89.3693 54.802 87.7749 59.4064H86.881V45.421C86.881 44.3959 86.0499 43.5645 85.0245 43.5645C83.9994 43.5645 83.168 44.3956 83.168 45.421V59.4059H44.6511C43.0565 54.8016 38.6795 51.485 33.5398 51.485C28.4 51.485 24.0228 54.8016 22.4285 59.4059H11.7574C11.6891 59.4059 11.6337 59.3506 11.6337 59.2823V55.198H19.6783C20.7035 55.198 21.5348 54.3669 21.5348 53.3415C21.5348 52.3161 20.7037 51.485 19.6783 51.485H1.85651C0.831344 51.485 0 52.3161 0 53.3415C0 54.3669 0.831113 55.198 1.85651 55.198H7.92093V59.2823C7.92093 61.3979 9.64197 63.119 11.7576 63.119H21.7856C21.7852 63.1602 21.7824 63.2012 21.7824 63.2426C21.7824 69.7257 27.0569 75 33.5398 75C40.0226 75 45.2972 69.7257 45.2972 63.2426C45.2972 63.2009 45.2944 63.1602 45.2939 63.119H87.1321C87.1316 63.1602 87.1288 63.2012 87.1288 63.2426C87.1288 69.7257 92.4033 75 98.8862 75C105.369 75 110.644 69.7257 110.644 63.2426C110.644 63.2009 110.641 63.1602 110.64 63.119H116.708C117.733 63.119 118.565 62.2878 118.565 61.2624V41.4605C118.565 36.5715 114.958 32.5095 110.265 31.7951ZM86.8817 11.634H100.867C103.119 11.634 104.951 13.4662 104.951 15.7182V15.8419H86.8817V11.634ZM86.8817 31.6835V19.5547H103.378L106.41 31.6835H86.8817ZM33.5398 71.2877C29.104 71.2877 25.4952 67.6791 25.4952 63.2431C25.4952 58.8071 29.104 55.1985 33.5398 55.1985C37.9755 55.1985 41.5844 58.8071 41.5844 63.2431C41.5844 67.6791 37.9755 71.2877 33.5398 71.2877ZM98.8867 71.2877C94.4509 71.2877 90.8421 67.6791 90.8421 63.2431C90.8421 58.8071 94.4509 55.1985 98.8867 55.1985C103.322 55.1985 106.931 58.8071 106.931 63.2431C106.931 67.6791 103.322 71.2877 98.8867 71.2877ZM114.852 47.5251H112.748C111.588 47.5251 110.644 46.5812 110.644 45.421V43.317H114.852V47.5251H114.852Z" fill="#ED9C55"/>
<path d="M33.5398 59.4062C31.4242 59.4062 29.7031 61.1273 29.7031 63.2429C29.7031 65.3586 31.4242 67.0796 33.5398 67.0796C35.6555 67.0796 37.3765 65.3586 37.3765 63.2429C37.3765 61.1273 35.6555 59.4062 33.5398 59.4062Z" fill="white"/>
<path d="M98.8865 59.4062C96.7709 59.4062 95.0498 61.1273 95.0498 63.2429C95.0498 65.3586 96.7709 67.0796 98.8865 67.0796C101.002 67.0796 102.723 65.3586 102.723 63.2429C102.723 61.1273 101.002 59.4062 98.8865 59.4062Z" fill="white"/>
<path d="M77.1048 51.4854H49.3819C48.3567 51.4854 47.5254 52.3165 47.5254 53.3419C47.5254 54.3673 48.3565 55.1984 49.3819 55.1984H77.1048C78.13 55.1984 78.9613 54.3673 78.9613 53.3419C78.9613 52.3165 78.1302 51.4854 77.1048 51.4854Z" fill="white"/>
<path d="M29.579 43.5645H5.81648C4.79131 43.5645 3.95996 44.3956 3.95996 45.421C3.95996 46.4464 4.79107 47.2775 5.81648 47.2775H29.579C30.6042 47.2775 31.4355 46.4464 31.4355 45.421C31.4355 44.3956 30.6042 43.5645 29.579 43.5645Z" fill="white"/>
</svg>
