<svg width="218" height="218" viewBox="0 0 218 218" fill="none" xmlns="http://www.w3.org/2000/svg">
<circle cx="109" cy="109" r="109" fill="#2E2E2E"/>
<g clip-path="url(#clip0)">
<path d="M106.12 102.66L116 99.1599L143.46 96.8398L156.95 104.28C156.95 104.28 132.45 142.28 131.51 142.28C130.57 142.28 106.12 102.66 106.12 102.66Z" fill="#FFBE9D"/>
<path d="M167.68 149.33L176.43 115L151.83 101.45L128.07 138.06L106.55 102.48L84.38 112.48C82.9226 113.138 81.7511 114.299 81.08 115.75L61 170L88.1 178.75L91.21 166.18L94.78 187.89L92.78 209.53C103.371 214.867 115.056 217.675 126.915 217.734C138.775 217.793 150.486 215.101 161.13 209.87L157.33 186.05L159.5 173L167.68 149.33Z" fill="#963EEE"/>
<path d="M158.39 144.149H140.08V147.179H158.39V144.149Z" fill="#263238"/>
<path d="M159.63 181.17C167.02 183.8 175.14 183.41 182.9 182.26C184.768 182.136 186.57 181.519 188.12 180.47C188.61 180.08 189.78 179.09 189.76 178.86C189.76 178.15 188.42 177.21 187.67 176.62C184.85 174.445 181.597 172.901 178.13 172.09C174.663 171.279 171.062 171.221 167.57 171.92C165.708 172.243 163.925 172.922 162.32 173.92C160.74 174.98 159.76 175.56 159.22 177.37" fill="#963EEE"/>
<g opacity="0.3">
<path opacity="0.3" d="M159.63 181.17C167.02 183.8 175.14 183.41 182.9 182.26C184.768 182.136 186.57 181.519 188.12 180.47C188.61 180.08 189.78 179.09 189.76 178.86C189.76 178.15 188.42 177.21 187.67 176.62C184.85 174.445 181.597 172.901 178.13 172.09C174.663 171.279 171.062 171.221 167.57 171.92C165.708 172.243 163.925 172.922 162.32 173.92C160.74 174.98 159.76 175.56 159.22 177.37" fill="black"/>
</g>
<path d="M189.76 178.86C189.76 178.86 181.99 132.49 181.5 128.35C180.3 118.1 176.43 114.82 176.43 114.82L158.43 170.04L159.68 181.17C159.68 181.17 165.34 172.59 189.76 178.86Z" fill="#963EEE"/>
<path d="M179.81 141.62C179.725 142.011 179.611 142.396 179.47 142.77C179.24 143.5 178.86 144.55 178.36 145.83C177.031 149.167 175.446 152.397 173.62 155.49C171.796 158.585 169.726 161.528 167.43 164.29C166.54 165.35 165.8 166.18 165.27 166.73C165.008 167.034 164.72 167.315 164.41 167.57C164.64 167.244 164.891 166.934 165.16 166.64C165.67 166.06 166.38 165.21 167.24 164.13C169.468 161.334 171.499 158.387 173.32 155.31C175.132 152.229 176.739 149.032 178.13 145.74C178.66 144.47 179.07 143.44 179.35 142.74C179.474 142.355 179.628 141.981 179.81 141.62Z" fill="#263238"/>
<path d="M94.6999 186.799C94.6999 186.799 94.6999 186.749 94.6999 186.649L94.6199 186.199C94.5599 185.779 94.4699 185.199 94.3499 184.469C94.0999 182.939 93.7299 180.779 93.2899 178.129C92.3599 172.769 91.0299 165.379 89.5399 157.229L85.7399 136.329C85.2699 133.679 84.8999 131.519 84.6299 129.989C84.5099 129.259 84.4199 128.689 84.3599 128.259C84.3599 128.079 84.3599 127.929 84.3599 127.809C84.3599 127.689 84.3599 127.649 84.3599 127.649C84.3599 127.649 84.3599 127.649 84.3599 127.799C84.3599 127.949 84.4099 128.069 84.4499 128.249L84.7799 129.969C85.0799 131.489 85.4899 133.639 85.9999 136.289C86.9999 141.619 88.4199 148.999 89.9099 157.159C91.3999 165.319 92.6899 172.719 93.5499 178.089C93.9899 180.769 94.2999 182.949 94.5499 184.449C94.6299 185.179 94.6999 185.759 94.7499 186.189C94.7499 186.369 94.7499 186.519 94.7499 186.649C94.7499 186.779 94.7099 186.799 94.6999 186.799Z" fill="#263238"/>
<path d="M169 130.899C168.985 131.075 168.955 131.249 168.91 131.419C168.82 131.789 168.71 132.289 168.58 132.899C168.27 134.219 167.84 136.069 167.32 138.329C166.25 142.909 164.76 149.239 163.19 156.239C161.62 163.239 160.25 169.599 159.34 174.239C158.89 176.549 158.53 178.419 158.34 179.709C158.23 180.339 158.14 180.829 158.07 181.199C158.054 181.377 158.013 181.552 157.95 181.719C157.956 181.542 157.972 181.365 158 181.189C158.047 180.816 158.117 180.316 158.21 179.689C158.38 178.389 158.71 176.509 159.13 174.199C159.97 169.559 161.3 163.199 162.87 156.199C164.44 149.199 165.97 142.879 167.1 138.309C167.68 136.059 168.1 134.219 168.47 132.909C168.64 132.299 168.77 131.809 168.87 131.449C168.895 131.262 168.939 131.078 169 130.899Z" fill="#263238"/>
<path d="M100.86 104.85C100.921 104.917 100.975 104.991 101.02 105.07L101.43 105.71L103 108.2L108.73 117.41C113.55 125.24 120.22 136 127.62 148H127.32L128.22 146.73L131.02 142.8V143L113.57 114.1L108.4 105.45L107 103.11L106.64 102.49L106.53 102.28C106.587 102.335 106.634 102.4 106.67 102.47L107.05 103.07L108.49 105.39L113.78 114L131.31 142.86L131.37 142.96L131.3 143.05L128.51 147L127.61 148.26L127.46 148.48L127.32 148.25L108.52 117.57C106.15 113.67 104.22 110.5 102.89 108.3L101.37 105.78L100.99 105.12C100.938 105.035 100.895 104.944 100.86 104.85Z" fill="#263238"/>
<path d="M151.83 101.27L151.72 101.46L151.38 102.02C151.06 102.52 150.62 103.23 150.04 104.13L145.04 111.93L128.21 137.93V137.74L130.55 141.55L131.3 142.79H131C134.6 137.4 137.92 132.22 141 127.53C144.08 122.84 146.82 118.65 149.24 115.19C151.66 111.73 153.67 109 155.09 107.13L156.74 104.98L157.18 104.43C157.227 104.364 157.281 104.304 157.34 104.25L157.21 104.45L156.8 105.03L155.2 107.21C153.82 109.1 151.82 111.86 149.44 115.33C147.06 118.8 144.29 123 141.27 127.7C138.25 132.4 134.93 137.59 131.33 142.99L131.17 143.21L131 143C130.76 142.61 130.5 142.19 130.25 141.77L127.92 138V137.91L127.98 137.82L144.9 111.82L149.99 104.08L151.32 102C151.48 101.78 151.6 101.6 151.69 101.46C151.78 101.32 151.82 101.26 151.83 101.27Z" fill="#263238"/>
<path d="M104.82 166.18C103.48 165.604 101.973 165.544 100.592 166.014C99.2107 166.483 98.052 167.447 97.3399 168.72C96.7964 169.8 96.5833 171.017 96.7274 172.217C96.8715 173.418 97.3663 174.549 98.1499 175.47C99.7499 177.18 103.62 178.33 105.42 176.28L104.82 166.18Z" fill="#EBEBEB"/>
<path d="M104.82 166.179C104.863 166.414 104.889 166.651 104.9 166.89L105.07 168.95C105.2 170.8 105.38 173.32 105.58 176.27V176.34C105.179 176.757 104.687 177.077 104.142 177.274C103.598 177.472 103.016 177.542 102.44 177.48C101.215 177.414 100.029 177.028 99 176.36C98.0029 175.7 97.2617 174.719 96.9 173.58C96.5605 172.534 96.4849 171.421 96.68 170.34C96.8458 169.357 97.2742 168.438 97.92 167.679C98.4893 167.031 99.192 166.512 99.98 166.16C101.108 165.628 102.379 165.477 103.6 165.73C104.043 165.815 104.472 165.967 104.87 166.179C104.87 166.179 104.42 166.01 103.58 165.86C102.388 165.67 101.166 165.852 100.08 166.38C99.2806 166.746 98.5825 167.302 98.0459 167.999C97.5093 168.696 97.1503 169.513 97 170.38C96.8182 171.406 96.8973 172.462 97.23 173.45C97.5782 174.52 98.2845 175.438 99.23 176.05C100.209 176.699 101.338 177.085 102.51 177.17C103.035 177.233 103.567 177.176 104.066 177.003C104.565 176.829 105.018 176.544 105.39 176.17V176.28C105.25 173.35 105.12 170.86 105.03 169.03C105.03 168.17 104.97 167.47 104.95 166.94C104.881 166.691 104.838 166.437 104.82 166.179Z" fill="#263238"/>
<path d="M101.1 165.75C101.1 165.75 103 126.11 104 120.42C105 114.73 107.56 105.55 111.57 99.9996C115.41 94.6896 115.79 94.3096 115.79 94.3096L115.54 99.3096C111.894 105.71 109.291 112.65 107.83 119.87C105.69 131.1 104.22 165.8 104.22 165.8L101.1 165.75Z" fill="#263238"/>
<path d="M154.44 173.28C153.314 173.266 152.201 173.039 151.16 172.61L151.67 171.36C153.047 171.959 154.585 172.082 156.04 171.71C156.756 171.494 157.413 171.121 157.965 170.617C158.518 170.114 158.95 169.493 159.23 168.8C159.671 167.432 159.696 165.963 159.3 164.58C159.028 163.561 158.694 162.559 158.3 161.58C158.13 161.14 157.96 160.7 157.81 160.26C154.97 152.26 155.46 143.37 155.89 135.49L157.24 135.57C156.81 143.31 156.33 152.09 159.08 159.81C159.23 160.24 159.4 160.67 159.56 161.1C159.981 162.137 160.335 163.199 160.62 164.28C161.085 165.921 161.043 167.664 160.5 169.28C160.153 170.171 159.606 170.971 158.9 171.616C158.194 172.261 157.349 172.735 156.43 173C155.784 173.19 155.114 173.284 154.44 173.28Z" fill="#E0E0E0"/>
<path d="M154.31 173.88C153.141 173.849 151.995 173.545 150.964 172.993C149.933 172.441 149.045 171.656 148.37 170.7C146.14 167.96 145.79 161.16 145.48 155.16C145.37 153.01 145.26 150.99 145.07 149.52C144.41 144.33 141.43 137.38 141.4 137.31L142.64 136.78C142.77 137.07 145.72 143.97 146.41 149.35C146.61 150.87 146.71 152.92 146.83 155.09C147.11 160.6 147.47 167.45 149.42 169.85C152.36 173.47 155.93 173.44 160.99 169.73L161.79 170.82C159 172.86 156.52 173.88 154.31 173.88Z" fill="#EBEBEB"/>
<path d="M159.07 170.9C159.313 170.211 159.649 169.558 160.07 168.96C160.482 168.378 161.107 167.983 161.81 167.86C162.161 167.817 162.517 167.886 162.828 168.056C163.138 168.227 163.387 168.49 163.54 168.81C163.671 169.141 163.711 169.501 163.656 169.852C163.602 170.204 163.455 170.534 163.23 170.81C162.797 171.341 162.186 171.697 161.51 171.81C160.846 171.894 160.174 171.894 159.51 171.81" fill="#263238"/>
<path d="M145.6 112.079C150.88 118.863 154.048 127.049 154.71 135.619H157.52C156.925 125.785 153.053 116.434 146.52 109.059C147.23 106.821 147.749 104.526 148.07 102.199C148.69 96.9195 143.07 93.7295 143.07 93.7295L142.91 97.7295C143.64 98.1433 144.244 98.7464 144.659 99.475C145.075 100.204 145.286 101.031 145.27 101.869C145.15 104.709 143.01 110.749 140.92 115.959C139.166 120.238 138.384 124.852 138.63 129.469C138.82 135.379 141.13 138.049 141.13 138.049L143.91 136.869C143.91 136.869 142.25 134.789 141.52 129.079C140.97 124.729 142.26 121.319 143.38 118.159C144 116.599 144.8 114.449 145.6 112.079Z" fill="#263238"/>
<path d="M65.51 171.32L62.12 184.19C61.5572 186.239 61.5378 188.399 62.0639 190.458C62.5899 192.516 63.6432 194.402 65.12 195.93L65.68 196.46C67.4435 198.035 69.6102 199.087 71.9379 199.501C74.2656 199.914 76.6623 199.671 78.86 198.8L113.86 184.91L108.69 169.16L82.15 176.7L65.51 171.32Z" fill="#FFBE9D"/>
<path d="M94.2002 149.88L100.54 183.6C100.67 184.313 101.053 184.955 101.619 185.407C102.186 185.859 102.896 186.091 103.62 186.06L152 184.22C152.398 184.208 152.789 184.118 153.151 183.954C153.513 183.79 153.839 183.555 154.11 183.264C154.381 182.973 154.591 182.63 154.728 182.257C154.866 181.884 154.928 181.487 154.91 181.09L153.8 149.21C153.777 148.43 153.45 147.69 152.89 147.147C152.33 146.603 151.58 146.3 150.8 146.3H97.1702C96.7248 146.296 96.2841 146.391 95.8802 146.579C95.4762 146.766 95.119 147.042 94.8347 147.384C94.5503 147.727 94.3458 148.129 94.2361 148.561C94.1263 148.992 94.114 149.443 94.2002 149.88Z" fill="#455A64"/>
<path d="M147.1 163.61C146.192 163.609 145.305 163.883 144.555 164.395C143.806 164.907 143.229 165.634 142.9 166.48C142.2 168.31 141.17 170.48 140.04 171.06C137.94 172.2 134.31 173.12 132.4 172.18C130.49 171.24 122.86 164.38 121.53 165.18C120.2 165.98 119.04 167.66 120.38 169.18C121.72 170.7 128.78 175.29 127.44 176.81C126.1 178.33 111.22 171.62 108.93 172.21C106.64 172.8 105.3 174.21 106.64 175.13C107.98 176.05 118.09 179.87 118.64 181.2C118.64 181.2 103.37 177.2 102.8 178.2C102.23 179.2 101.28 180.68 102.8 181.2C104.32 181.72 117.5 185.2 118.64 185.78C120.534 186.568 122.509 187.145 124.53 187.5C126.612 188.045 128.664 188.696 130.68 189.45C133.769 190.52 137.141 190.431 140.17 189.2L141.72 188.57C142.897 188.092 143.894 187.255 144.569 186.178C145.244 185.101 145.563 183.839 145.48 182.57L145.17 177.36L146.84 173.07L147.1 163.61Z" fill="#FFBE9D"/>
<path d="M134.87 190.16C134.87 190.16 162.73 215.38 172.11 215.45C182 215.53 187.56 205.27 186.51 198.89C185.95 195.49 184.51 177.71 184.51 177.71C177.89 175.9 168 175.09 160.95 179.78L163.51 190.16L144.92 181.16L134.87 190.16Z" fill="#FFBE9D"/>
<path d="M189.76 178.86L189.44 178.81L188.54 178.59L185.24 177.81C181.616 176.936 177.898 176.506 174.17 176.53C172.121 176.594 170.081 176.825 168.07 177.22C166.424 177.502 164.816 177.975 163.28 178.63C162.244 179.071 161.28 179.664 160.42 180.39C159.81 180.91 159.52 181.25 159.5 181.22C159.48 181.19 159.55 181.13 159.69 180.96C159.884 180.719 160.094 180.492 160.32 180.28C161.17 179.513 162.13 178.879 163.17 178.4C164.716 177.704 166.341 177.2 168.01 176.9C170.035 176.483 172.093 176.242 174.16 176.18C177.915 176.147 181.658 176.615 185.29 177.57C186.69 177.92 187.81 178.23 188.58 178.46L189.46 178.74C189.564 178.769 189.665 178.809 189.76 178.86Z" fill="#263238"/>
<path d="M142 39.5001C143.179 39.6253 144.267 40.1896 145.049 41.0808C145.831 41.972 146.249 43.1248 146.22 44.3101L143.4 102.17C143.28 109.73 132.24 113.97 124.15 113.78C115.98 111.85 115.69 106.95 115.59 99.7801C115.41 87.7801 115.47 91.9901 115.46 92.0601C115.45 92.1301 105.14 90.3101 103 76.84C102 70.14 102.31 59.1701 102.9 50.2001C103.42 42.1201 108.8 32.2001 116.84 33.0901L142 39.5001Z" fill="#FFBE9D"/>
<path d="M107.64 59.8798C107.634 60.3292 107.805 60.7629 108.115 61.0881C108.425 61.4133 108.851 61.6041 109.3 61.6198C109.519 61.6374 109.739 61.6111 109.948 61.5424C110.157 61.4737 110.35 61.3639 110.516 61.2194C110.682 61.075 110.817 60.899 110.914 60.7015C111.011 60.5041 111.067 60.2893 111.08 60.0698C111.085 59.6194 110.915 59.1845 110.605 58.8578C110.295 58.531 109.87 58.3379 109.42 58.3198C109.2 58.3021 108.979 58.3287 108.769 58.3981C108.56 58.4674 108.366 58.5781 108.2 58.7236C108.034 58.869 107.899 59.0463 107.803 59.2449C107.707 59.4435 107.651 59.6594 107.64 59.8798Z" fill="#263238"/>
<path d="M105.3 56.3901C105.51 56.6201 106.82 55.6501 108.68 55.6601C110.54 55.6701 111.89 56.6001 112.1 56.3701C112.31 56.1401 111.98 55.8701 111.39 55.4301C110.585 54.8735 109.629 54.5769 108.65 54.5801C107.684 54.5764 106.741 54.8812 105.96 55.4501C105.38 55.8801 105.19 56.2901 105.3 56.3901Z" fill="#263238"/>
<path d="M125.4 60.6003C125.395 61.0497 125.565 61.4834 125.875 61.8086C126.186 62.1338 126.611 62.3247 127.06 62.3403C127.279 62.3594 127.501 62.3341 127.71 62.2659C127.919 62.1976 128.113 62.0879 128.279 61.9433C128.445 61.7986 128.581 61.622 128.677 61.4239C128.773 61.2258 128.829 61.0103 128.84 60.7903C128.856 60.3331 128.691 59.888 128.38 59.5526C128.069 59.2171 127.637 59.0185 127.18 59.0003C126.957 58.9826 126.732 59.0105 126.52 59.0823C126.308 59.1541 126.113 59.2683 125.946 59.418C125.78 59.5677 125.646 59.7497 125.552 59.953C125.458 60.1562 125.406 60.3765 125.4 60.6003Z" fill="#263238"/>
<path d="M123.72 56.3903C123.94 56.6203 125.25 55.6503 127.11 55.6603C128.97 55.6703 130.32 56.6003 130.53 56.3803C130.74 56.1603 130.41 55.8703 129.81 55.3803C129.01 54.8222 128.056 54.5253 127.08 54.5303C126.114 54.5266 125.171 54.8314 124.39 55.4003C123.81 55.8803 123.62 56.2903 123.72 56.3903Z" fill="#263238"/>
<path d="M116.78 70.0603C115.805 69.7598 114.798 69.5752 113.78 69.5103C113.3 69.4603 112.85 69.3703 112.78 69.0403C112.732 68.5513 112.845 68.06 113.1 67.6403C113.54 66.4903 114.01 65.2903 114.51 64.0303C116.51 58.8903 117.89 54.6603 117.68 54.5803C117.47 54.5003 115.68 58.5803 113.75 63.7503L112.4 67.3803C112.101 67.9518 112.013 68.6101 112.15 69.2403C112.219 69.4083 112.324 69.5587 112.46 69.6799C112.595 69.8012 112.756 69.8902 112.93 69.9403C113.194 70.0122 113.466 70.0492 113.74 70.0503C114.748 70.1886 115.771 70.1919 116.78 70.0603Z" fill="#263238"/>
<path d="M115.45 92.0503C121.775 92.1516 128.005 90.5007 133.45 87.2803C133.45 87.2803 128.88 96.7703 115.45 95.4803V92.0503Z" fill="#EB996E"/>
<path d="M117.08 74.5802C117.464 73.9472 117.983 73.4071 118.6 72.999C119.217 72.5908 119.918 72.3249 120.65 72.2202C121.077 72.1825 121.506 72.2739 121.88 72.4825C122.254 72.6911 122.558 73.0073 122.75 73.3902C122.95 73.8919 123.027 74.4341 122.975 74.9716C122.923 75.509 122.743 76.0263 122.45 76.4802C122.163 76.9565 121.744 77.3388 121.243 77.5804C120.742 77.8219 120.182 77.9122 119.63 77.8402C118.725 77.5707 117.919 77.0424 117.31 76.3202C117.099 76.1445 116.937 75.9171 116.84 75.6602C116.784 75.4942 116.767 75.3172 116.791 75.1435C116.815 74.9698 116.88 74.8043 116.98 74.6602" fill="#EB996E"/>
<path d="M122.25 71.3595C121.95 71.3595 121.94 73.3595 120.25 74.7895C118.56 76.2195 116.37 75.9895 116.36 76.2695C116.35 76.5495 116.84 76.6595 117.74 76.6895C118.926 76.7116 120.082 76.3111 121 75.5595C121.883 74.8474 122.451 73.8165 122.58 72.6895C122.61 71.8495 122.39 71.3495 122.25 71.3595Z" fill="#263238"/>
<path d="M122.67 52.1297C122.9 52.6097 124.67 52.1897 126.91 52.2397C129.15 52.2897 130.91 52.6997 131.17 52.2397C131.27 52.0097 130.92 51.5697 130.17 51.1497C129.168 50.6425 128.063 50.3754 126.94 50.3697C125.816 50.3464 124.702 50.5897 123.69 51.0797C122.93 51.4597 122.56 51.8897 122.67 52.1297Z" fill="#263238"/>
<path d="M105.46 53.33C105.87 53.75 107.46 53.33 109.37 53.33C111.28 53.33 112.9 53.61 113.27 53.17C113.43 52.95 113.18 52.53 112.47 52.17C111.486 51.6742 110.391 51.44 109.29 51.49C108.197 51.4955 107.124 51.7887 106.18 52.34C105.5 52.69 105.28 53.12 105.46 53.33Z" fill="#263238"/>
<path d="M151.53 84.9297C151.454 84.9429 151.376 84.9429 151.3 84.9297C151.15 84.9297 150.93 84.8397 150.65 84.7497C149.856 84.4966 149.124 84.0812 148.5 83.5297C148.023 83.1149 147.654 82.5907 147.424 82.0021C147.194 81.4134 147.111 80.7778 147.18 80.1497C147.22 79.7668 147.346 79.3978 147.548 79.0705C147.751 78.7432 148.025 78.466 148.35 78.2597C148.534 78.1444 148.745 78.0783 148.962 78.0678C149.179 78.0573 149.395 78.1027 149.59 78.1997C149.803 78.2977 149.975 78.4677 150.076 78.6798C150.176 78.8918 150.199 79.1325 150.14 79.3597C150.107 79.4749 150.051 79.5822 149.976 79.6751C149.9 79.7679 149.806 79.8443 149.7 79.8997C149.502 79.9918 149.288 80.0429 149.07 80.0497C148.664 80.0616 148.261 79.9831 147.89 79.8197C147.206 79.5416 146.584 79.1303 146.06 78.6097C145.163 77.724 144.613 76.5461 144.51 75.2897C144.448 74.4538 144.581 73.6149 144.9 72.8397C144.99 72.6331 145.094 72.4327 145.21 72.2397C145.29 72.1097 145.34 72.0497 145.35 72.0597C145.36 72.0697 145.21 72.3497 145.02 72.8897C144.749 73.6518 144.653 74.4654 144.74 75.2697C144.863 76.4612 145.406 77.5703 146.27 78.3997C146.767 78.8788 147.355 79.2529 148 79.4997C148.315 79.6375 148.656 79.709 149 79.7097C149.164 79.7206 149.327 79.6815 149.468 79.5976C149.609 79.5137 149.721 79.3888 149.79 79.2397C149.818 79.0812 149.793 78.9178 149.719 78.775C149.645 78.6321 149.526 78.5177 149.38 78.4497C149.233 78.378 149.07 78.3458 148.907 78.3563C148.744 78.3668 148.586 78.4197 148.45 78.5097C148.172 78.6944 147.939 78.938 147.766 79.2231C147.593 79.5083 147.485 79.8281 147.45 80.1597C147.362 80.7811 147.449 81.4146 147.7 81.9897C147.912 82.4967 148.229 82.9533 148.63 83.3297C149.213 83.8727 149.891 84.3032 150.63 84.5997C150.936 84.6935 151.236 84.8036 151.53 84.9297Z" fill="#263238"/>
<path d="M118.88 25.1899C118.069 24.6552 117.476 23.8489 117.207 22.9159C116.937 21.983 117.009 20.9844 117.41 20.0999C117.306 19.8849 117.249 19.6499 117.244 19.4109C117.239 19.172 117.285 18.9348 117.38 18.7154C117.475 18.4961 117.616 18.2999 117.794 18.1401C117.972 17.9804 118.182 17.8609 118.41 17.7899C119.367 17.5588 120.372 17.6251 121.29 17.9799C121.03 17.5299 121.71 17.1399 122.22 17.0599L125.78 16.4899C124.96 16.2829 124.198 15.8904 123.553 15.3425C122.908 14.7947 122.397 14.1061 122.06 13.3299C121.397 11.751 121.219 10.0102 121.55 8.32989C121.564 8.0851 121.626 7.84554 121.734 7.62559C121.843 7.40563 121.994 7.20982 122.18 7.04989C123.252 8.27859 124.092 9.69144 124.66 11.2199C125.151 11.2477 125.631 11.3766 126.07 11.5986C126.509 11.8206 126.897 12.1308 127.21 12.5099C127.272 12.3802 127.361 12.2654 127.471 12.1732C127.581 12.081 127.71 12.0137 127.849 11.9757C127.987 11.9378 128.132 11.9301 128.274 11.9533C128.416 11.9764 128.551 12.0298 128.67 12.1099C129.42 10.0099 130.85 7.78989 133.07 7.52989C132.37 6.52989 133.64 5.37989 134.71 4.83989C135.483 4.40402 136.331 4.11896 137.21 3.99989C137.644 3.93828 138.087 3.99928 138.488 4.17599C138.889 4.3527 139.233 4.63809 139.48 4.99989C139.587 5.18827 139.65 5.3982 139.665 5.61426C139.681 5.83032 139.647 6.04702 139.568 6.24844C139.488 6.44987 139.364 6.6309 139.205 6.77825C139.047 6.92559 138.857 7.03549 138.65 7.09989C139.099 7.4161 139.428 7.87433 139.584 8.40055C139.74 8.92677 139.714 9.49023 139.51 9.99989C139.863 9.58916 140.343 9.30805 140.874 9.20116C141.405 9.09427 141.956 9.16773 142.44 9.40989C143.977 8.73985 145.665 8.49133 147.33 8.68989C147.761 8.71799 148.176 8.86321 148.53 9.10989C148.78 9.31989 148.95 9.61989 149.21 9.81989C149.612 10.0576 150.073 10.1788 150.54 10.1699C151.61 10.2241 152.638 10.6006 153.49 11.2499C153.905 11.5859 154.205 12.0428 154.348 12.5571C154.492 13.0715 154.471 13.6177 154.29 14.1199C156.75 14.9199 159.18 12.1199 161.72 12.5899C162.439 12.8191 163.097 13.208 163.644 13.7276C164.191 14.2471 164.614 14.8838 164.88 15.5899C163.613 16.1009 162.241 16.2998 160.88 16.1699C160.794 16.5375 160.586 16.8651 160.29 17.0994C159.994 17.3337 159.628 17.4608 159.25 17.4599C159.345 17.5917 159.406 17.7446 159.428 17.9053C159.45 18.0659 159.433 18.2296 159.378 18.3822C159.323 18.5347 159.231 18.6716 159.111 18.7809C158.992 18.8903 158.847 18.9689 158.69 19.0099C160.244 18.6018 161.881 18.6294 163.42 19.0899C165.78 19.6499 168.42 20.8899 168.93 23.2599C169.075 24.1104 169.075 24.9794 168.93 25.8299C168.78 27.0999 168.13 28.7799 166.87 28.5499C166.09 28.3999 165.68 27.5499 165.27 26.8899C164.338 25.3893 162.856 24.3127 161.14 23.8899C160.54 24.4799 161.66 25.2299 162.14 25.8899C162.62 26.5499 162.43 27.4999 162.55 28.3199C162.74 29.5699 163.66 30.5699 164.21 31.7099C165.39 34.1699 164.77 37.0799 164.13 39.7099C163.95 40.4299 163.13 41.3199 162.69 40.7099C163.13 40.8233 163.518 41.0831 163.791 41.4466C164.064 41.8102 164.205 42.2557 164.19 42.7099C164.115 43.6313 163.824 44.5221 163.34 45.3099C163.16 45.6599 162.93 46.0499 162.55 46.1399C161.99 46.2699 161.55 45.7099 161.24 45.2199C160.44 43.8999 159.63 42.5799 158.83 41.2199C159.012 42.127 158.988 43.0633 158.76 43.9599C158.37 45.6999 157.34 47.4799 155.63 47.9599C154.421 48.1996 153.17 48.1063 152.01 47.6899" fill="#263238"/>
<path d="M145.38 67.0502C144.86 66.8402 142.76 67.7002 142.38 67.2502C140.62 64.9702 139.67 58.4502 139.23 55.6002C138.79 52.7502 140.57 49.6002 140.3 46.7102C140.09 44.4102 139.66 41.9902 138.14 40.2602C137.193 39.2345 136.008 38.4582 134.69 38.0002C132.67 37.2813 130.508 37.0542 128.383 37.3376C126.258 37.6211 124.231 38.407 122.47 39.6302C121.03 40.6302 119.67 42.0202 117.91 42.1802C116.15 42.3402 114.57 41.2702 113.07 40.3702C111.57 39.4702 109.7 38.6802 108.07 39.3702C107.459 39.69 106.921 40.1326 106.49 40.6702C105.4 41.9302 103.14 47.4402 103.1 49.6202C102.486 46.3507 102.762 42.9764 103.9 39.8502C106.22 34.1802 112.45 27.7602 122.39 26.1502C138.3 23.5702 145.76 32.4302 148.59 38.7602C149.8 41.4702 150.81 48.5902 149.93 54.0802C149.184 58.6365 147.644 63.0265 145.38 67.0502Z" fill="#263238"/>
<path d="M149.65 41.0001C149.41 41.0801 148.77 39.2901 147.17 36.7301C146.25 35.2395 145.2 33.8339 144.03 32.5301C142.642 30.9332 140.996 29.581 139.16 28.5301C137.282 27.5522 135.254 26.8932 133.16 26.5801C131.44 26.3125 129.694 26.252 127.96 26.4001C124.96 26.6601 123.19 27.3501 123.1 27.1101C123.01 26.8701 123.45 26.7201 124.25 26.3501C125.388 25.8449 126.583 25.4821 127.81 25.2701C129.642 24.9482 131.512 24.8943 133.36 25.1101C135.644 25.3689 137.862 26.0469 139.9 27.1101C141.905 28.2379 143.677 29.7381 145.12 31.5301C146.299 32.9428 147.306 34.4903 148.12 36.1401C149.57 39.0001 149.84 41.0001 149.65 41.0001Z" fill="#963EEE"/>
<path d="M134.11 27.1994C133.78 27.2646 133.446 27.3014 133.11 27.3094C132.239 27.4012 131.374 27.5448 130.52 27.7394C127.699 28.3766 125.058 29.6428 122.795 31.4437C120.532 33.2445 118.705 35.5334 117.45 38.1394C117.067 38.9247 116.733 39.7329 116.45 40.5594C116.362 40.8702 116.252 41.1743 116.12 41.4694C116.105 41.3868 116.105 41.302 116.12 41.2194C116.164 40.9832 116.221 40.7495 116.29 40.5194C116.551 39.654 116.882 38.8112 117.28 37.9994C118.5 35.3275 120.335 32.9818 122.634 31.1536C124.933 29.3254 127.632 28.0665 130.51 27.4794C131.376 27.2994 132.256 27.189 133.14 27.1494C133.45 27.1494 133.7 27.1494 133.86 27.1494C133.946 27.1511 134.03 27.168 134.11 27.1994Z" fill="#455A64"/>
<path d="M138.35 29.1201C138.35 29.1201 137.64 29.5201 136.49 30.1201C134.989 30.9244 133.536 31.816 132.14 32.7901C130.747 33.7729 129.411 34.8347 128.14 35.9701C127.14 36.8401 126.58 37.4101 126.55 37.3701C126.645 37.2049 126.763 37.0535 126.9 36.9201C127.14 36.6501 127.51 36.2601 127.98 35.8001C129.225 34.6068 130.563 33.5134 131.98 32.5301C133.385 31.5469 134.863 30.6711 136.4 29.9101C136.99 29.6301 137.48 29.4101 137.82 29.2801C137.987 29.2006 138.166 29.1467 138.35 29.1201Z" fill="#455A64"/>
<path d="M147 36.2598C147.029 36.4353 147.029 36.6143 147 36.7898C147 37.1398 146.88 37.6298 146.76 38.2298C146.415 39.7939 145.919 41.321 145.28 42.7898C144.611 44.2699 143.797 45.6801 142.85 46.9998C142.577 47.398 142.283 47.7818 141.97 48.1498C141.867 48.2972 141.742 48.4286 141.6 48.5398C141.6 48.5398 142.01 47.8998 142.66 46.8698C143.517 45.5385 144.266 44.1407 144.9 42.6898C145.536 41.236 146.058 39.7348 146.46 38.1998C146.604 37.5435 146.784 36.8958 147 36.2598Z" fill="#455A64"/>
<path d="M142.52 55.5103C142.52 55.5103 143.17 54.7303 144.1 53.3803C144.643 52.5964 145.134 51.778 145.57 50.9303C146.095 49.8901 146.546 48.8141 146.92 47.7103C147.279 46.5979 147.56 45.4618 147.76 44.3103C147.906 43.3663 148 42.4148 148.04 41.4603C148.04 39.8303 147.97 38.8203 148.04 38.8203C148.112 39.0469 148.153 39.2825 148.16 39.5203C148.243 40.1669 148.28 40.8185 148.27 41.4703C148.271 42.4342 148.2 43.3967 148.06 44.3503C147.878 45.5234 147.604 46.6803 147.24 47.8103C146.861 48.9324 146.392 50.0225 145.84 51.0703C145.385 51.9244 144.867 52.7433 144.29 53.5203C143.891 54.0402 143.461 54.5345 143 55.0003C142.856 55.1849 142.696 55.3556 142.52 55.5103Z" fill="#455A64"/>
<path d="M91.7198 41.3803C91.7198 41.3803 91.9698 41.6403 92.4498 42.0903C93.1084 42.7221 93.8825 43.2212 94.7298 43.5603C95.3507 43.8071 96.0183 43.9145 96.6854 43.8747C97.3524 43.835 98.0025 43.6491 98.5898 43.3303C99.2549 42.9263 99.7546 42.2989 99.9998 41.5603C100.147 41.1773 100.203 40.7649 100.161 40.3566C100.119 39.9483 99.9818 39.5556 99.7598 39.2103C99.6542 39.0414 99.5065 38.9028 99.3312 38.8081C99.1559 38.7135 98.959 38.666 98.7598 38.6703C98.5784 38.6789 98.4054 38.7489 98.2691 38.8688C98.1328 38.9888 98.0414 39.1515 98.0098 39.3303C97.889 40.094 98.076 40.8743 98.5298 41.5003C98.9271 42.0887 99.4912 42.545 100.15 42.8103C100.726 43.0344 101.357 43.0797 101.96 42.9403C102.847 42.7343 103.628 42.2071 104.15 41.4603C104.329 41.176 104.486 40.8784 104.62 40.5703C104.616 40.6622 104.599 40.753 104.57 40.8403C104.495 41.0838 104.387 41.3159 104.25 41.5303C104 41.9364 103.673 42.2894 103.287 42.5691C102.901 42.8488 102.463 43.0497 102 43.1603C101.34 43.3411 100.639 43.3061 99.9998 43.0603C99.2854 42.782 98.6695 42.2983 98.2298 41.6703C97.9747 41.3269 97.791 40.9357 97.6897 40.5201C97.5883 40.1044 97.5714 39.6726 97.6398 39.2503C97.6978 39.0134 97.8227 38.7981 97.9998 38.6303C98.1884 38.4566 98.4335 38.3571 98.6898 38.3503C98.9459 38.3349 99.2015 38.3868 99.4314 38.5008C99.6612 38.6149 99.8571 38.7871 99.9998 39.0003C100.246 39.3894 100.399 39.8298 100.448 40.2876C100.496 40.7454 100.439 41.2083 100.28 41.6403C100.001 42.4465 99.4446 43.1271 98.7098 43.5603C98.0856 43.8957 97.3942 44.0868 96.6864 44.1197C95.9786 44.1526 95.2724 44.0264 94.6198 43.7503C93.7544 43.3849 92.9745 42.8434 92.3298 42.1603C92.0998 41.9203 91.9398 41.7203 91.8298 41.5903C91.7198 41.4603 91.7098 41.3903 91.7198 41.3803Z" fill="#263238"/>
<path d="M173.41 37.4203L173.05 37.4903C172.82 37.4903 172.47 37.5903 172.05 37.6403C170.765 37.8262 169.457 37.7754 168.19 37.4903C167.305 37.2688 166.483 36.8443 165.79 36.2503C165.389 35.9045 165.06 35.4825 164.823 35.0087C164.586 34.5349 164.446 34.0188 164.41 33.4903C164.37 32.9131 164.477 32.3353 164.72 31.8103C164.983 31.2585 165.414 30.8036 165.95 30.5103C166.506 30.203 167.13 30.0418 167.765 30.0418C168.4 30.0418 169.024 30.203 169.58 30.5103C169.888 30.6439 170.15 30.8663 170.331 31.1493C170.513 31.4323 170.605 31.7628 170.598 32.0988C170.59 32.4348 170.483 32.7609 170.289 33.0355C170.095 33.31 169.824 33.5206 169.51 33.6403C168.956 33.8801 168.35 33.973 167.75 33.9103C167.189 33.8723 166.634 33.7819 166.09 33.6403C164.515 33.2258 163.09 32.3722 161.982 31.1788C160.873 29.9855 160.127 28.5016 159.83 26.9003C159.771 26.5698 159.734 26.2357 159.72 25.9003C159.702 25.7776 159.702 25.653 159.72 25.5303C159.72 25.5303 159.72 26.0303 159.95 26.9203C160.222 28.1664 160.765 29.3375 161.54 30.3503C162.708 31.8314 164.332 32.8859 166.16 33.3503C166.685 33.4838 167.22 33.5708 167.76 33.6103C168.306 33.6637 168.856 33.5777 169.36 33.3603C169.608 33.2506 169.823 33.0773 169.983 32.8578C170.143 32.6382 170.242 32.3804 170.27 32.1103C170.256 31.8325 170.17 31.5633 170.019 31.3297C169.868 31.0962 169.658 30.9067 169.41 30.7803C168.9 30.5046 168.33 30.3602 167.75 30.3602C167.17 30.3602 166.6 30.5046 166.09 30.7803C165.623 31.0463 165.243 31.442 164.997 31.9194C164.75 32.3968 164.647 32.9355 164.7 33.4703C164.73 33.9606 164.857 34.4402 165.073 34.8813C165.289 35.3224 165.591 35.7163 165.96 36.0403C166.615 36.6177 167.396 37.0353 168.24 37.2603C169.48 37.5596 170.762 37.6441 172.03 37.5103L173.03 37.4203C173.156 37.4041 173.284 37.4041 173.41 37.4203Z" fill="#263238"/>
<path d="M111.18 8.32031C111.026 8.71802 110.912 9.13005 110.84 9.55031C110.766 10.1214 110.809 10.7017 110.967 11.2555C111.125 11.8093 111.395 12.3248 111.76 12.7703C112.328 13.4044 113.06 13.8689 113.875 14.1125C114.691 14.356 115.558 14.3691 116.38 14.1503C116.861 14.0573 117.312 13.8445 117.689 13.5317C118.067 13.2189 118.359 12.816 118.54 12.3603C118.602 12.119 118.614 11.8674 118.574 11.6213C118.535 11.3752 118.445 11.14 118.31 10.9303C118.177 10.7129 117.979 10.5434 117.743 10.4463C117.508 10.3492 117.247 10.3296 117 10.3903C116.753 10.4654 116.525 10.5939 116.334 10.7667C116.142 10.9395 115.99 11.1524 115.89 11.3903C115.701 11.8655 115.701 12.3951 115.89 12.8703C116.259 13.8064 116.896 14.6132 117.72 15.1903C119.091 16.2208 120.722 16.8477 122.43 17.0003C123.589 17.1109 124.759 17.0058 125.88 16.6903C126.68 16.4503 127.09 16.2403 127.1 16.2703C127.11 16.3003 127.01 16.3403 126.81 16.4403C126.52 16.5799 126.223 16.7034 125.92 16.8103C124.789 17.1792 123.596 17.3186 122.41 17.2203C120.637 17.0902 118.939 16.4513 117.52 15.3803C116.625 14.7797 115.929 13.927 115.52 12.9303C115.324 12.373 115.346 11.7625 115.58 11.2203C115.715 10.935 115.913 10.6842 116.159 10.4867C116.405 10.2892 116.692 10.1502 117 10.0803C117.308 10.0073 117.63 10.0326 117.923 10.1529C118.215 10.2731 118.463 10.482 118.63 10.7503C118.789 11 118.894 11.2802 118.939 11.5729C118.984 11.8656 118.967 12.1644 118.89 12.4503C118.706 12.9885 118.356 13.4543 117.89 13.7803C117.468 14.0888 116.989 14.3098 116.48 14.4303C115.608 14.6603 114.69 14.6407 113.828 14.3737C112.967 14.1067 112.199 13.6031 111.61 12.9203C111.237 12.4468 110.966 11.901 110.815 11.3176C110.663 10.7341 110.634 10.1255 110.73 9.53031C110.793 9.21288 110.894 8.90406 111.03 8.61031C111.07 8.50878 111.12 8.41161 111.18 8.32031Z" fill="#263238"/>
<path d="M142.08 65.0702C142.102 64.3767 142.3 63.7003 142.657 63.1049C143.013 62.5094 143.515 62.0146 144.115 61.6673C144.716 61.3199 145.395 61.1315 146.089 61.1197C146.783 61.108 147.468 61.2734 148.08 61.6002C149.5 62.4102 150.58 64.0602 150.45 67.2302C150.11 75.6602 141.71 73.5702 141.7 73.3302C141.69 73.0902 141.91 68.5602 142.08 65.0702Z" fill="#FFBE9D"/>
<path d="M144.39 70.2402C144.39 70.2402 144.53 70.3502 144.78 70.4702C145.123 70.6363 145.518 70.6614 145.88 70.5402C146.78 70.2502 147.59 68.8702 147.69 67.3502C147.748 66.6283 147.639 65.9026 147.37 65.2302C147.302 64.9621 147.171 64.7146 146.986 64.509C146.801 64.3033 146.569 64.1459 146.31 64.0502C146.143 64 145.964 64.0096 145.803 64.0771C145.643 64.1446 145.511 64.2659 145.43 64.4202C145.3 64.6502 145.35 64.8202 145.3 64.8402C145.25 64.8602 145.13 64.6902 145.21 64.3402C145.266 64.1355 145.389 63.9558 145.56 63.8302C145.679 63.7466 145.814 63.6877 145.957 63.6568C146.099 63.6259 146.247 63.6237 146.39 63.6502C146.731 63.7315 147.045 63.8981 147.304 64.1342C147.563 64.3703 147.758 64.6683 147.87 65.0002C148.195 65.7458 148.335 66.5587 148.28 67.3702C148.16 69.0702 147.22 70.6202 145.99 70.9202C145.76 70.9762 145.52 70.9802 145.288 70.9318C145.056 70.8833 144.838 70.7837 144.65 70.6402C144.4 70.4502 144.36 70.2602 144.39 70.2402Z" fill="#EB996E"/>
<path d="M85.8098 87.1896H85.7498C90.555 80.7549 92.7649 72.7487 91.9411 64.7602C91.1172 56.7717 87.3198 49.3851 81.3025 44.0665C75.2853 38.7479 67.4882 35.8863 59.459 36.0496C51.4299 36.2129 43.7556 39.3893 37.9597 44.9482C32.1637 50.5071 28.6698 58.0421 28.1716 66.0575C27.6733 74.0729 30.207 81.9826 35.2699 88.2166C40.3327 94.4505 47.5545 98.5529 55.5016 99.7094C63.4487 100.866 71.5402 98.992 78.1698 94.4596L89.1698 98.8696L85.8098 87.1896Z" fill="#FAFAFA"/>
<path d="M69 84.0604C69.6763 84.0604 70.3249 83.7917 70.8031 83.3135C71.2813 82.8353 71.55 82.1867 71.55 81.5104V57.4404C71.5473 56.7658 71.2775 56.1198 70.7996 55.6437C70.3216 55.1677 69.6745 54.9004 69 54.9004C68.3263 54.9004 67.6803 55.168 67.2039 55.6443C66.7276 56.1207 66.46 56.7667 66.46 57.4404V81.5104C66.46 82.185 66.7272 82.8321 67.2033 83.31C67.6794 83.7879 68.3254 84.0577 69 84.0604Z" fill="#E0E0E0"/>
<path d="M69 84.0603C69.6763 84.0603 70.3249 83.7917 70.8031 83.3135C71.2813 82.8353 71.55 82.1867 71.55 81.5104V66.1604C71.55 65.484 71.2813 64.8354 70.8031 64.3572C70.3249 63.879 69.6763 63.6104 69 63.6104C68.3254 63.613 67.6794 63.8828 67.2033 64.3608C66.7272 64.8387 66.46 65.4858 66.46 66.1604V81.5104C66.46 82.1849 66.7272 82.832 67.2033 83.3099C67.6794 83.7879 68.3254 84.0577 69 84.0603Z" fill="#963EEE"/>
<path d="M60.6799 84.0604C61.3562 84.0604 62.0048 83.7917 62.483 83.3135C62.9612 82.8353 63.2299 82.1867 63.2299 81.5104V57.4404C63.2272 56.7658 62.9574 56.1198 62.4795 55.6437C62.0015 55.1677 61.3545 54.9004 60.6799 54.9004C60.0053 54.9004 59.3582 55.1677 58.8803 55.6437C58.4024 56.1198 58.1325 56.7658 58.1299 57.4404V81.5104C58.1299 82.1867 58.3985 82.8353 58.8768 83.3135C59.355 83.7917 60.0036 84.0604 60.6799 84.0604Z" fill="#E0E0E0"/>
<path d="M60.6799 84.0599C61.3562 84.0599 62.0048 83.7912 62.483 83.313C62.9612 82.8348 63.2299 82.1862 63.2299 81.5099V70.6799C63.2299 70.0036 62.9612 69.355 62.483 68.8768C62.0048 68.3985 61.3562 68.1299 60.6799 68.1299C60.0036 68.1299 59.355 68.3985 58.8768 68.8768C58.3985 69.355 58.1299 70.0036 58.1299 70.6799V81.5099C58.1299 82.1862 58.3985 82.8348 58.8768 83.313C59.355 83.7912 60.0036 84.0599 60.6799 84.0599Z" fill="#963EEE"/>
<path d="M51.2299 84.0604C51.9062 84.0604 52.5548 83.7917 53.0331 83.3135C53.5113 82.8353 53.7799 82.1867 53.7799 81.5104V57.4404C53.7773 56.7658 53.5075 56.1198 53.0295 55.6437C52.5516 55.1677 51.9045 54.9004 51.2299 54.9004C50.5563 54.9004 49.9102 55.168 49.4339 55.6443C48.9575 56.1207 48.6899 56.7667 48.6899 57.4404V81.5104C48.6899 82.185 48.9572 82.8321 49.4333 83.31C49.9093 83.7879 50.5554 84.0577 51.2299 84.0604Z" fill="#E0E0E0"/>
<path d="M51.2299 84.0602C51.9062 84.0602 52.5548 83.7915 53.0331 83.3133C53.5113 82.8351 53.7799 82.1865 53.7799 81.5102V62.7102C53.7799 62.0339 53.5113 61.3853 53.0331 60.907C52.5548 60.4288 51.9062 60.1602 51.2299 60.1602C50.5554 60.1628 49.9093 60.4326 49.4333 60.9106C48.9572 61.3885 48.6899 62.0356 48.6899 62.7102V81.5102C48.6899 82.1847 48.9572 82.8318 49.4333 83.3097C49.9093 83.7877 50.5554 84.0575 51.2299 84.0602Z" fill="#963EEE"/>
<path d="M68.9999 84.06C68.7841 84.0347 68.5703 83.9946 68.3599 83.94C67.7656 83.7697 67.2581 83.3801 66.9399 82.85C66.7175 82.4674 66.6002 82.0327 66.5999 81.59C66.5999 81.1 66.5999 80.59 66.5999 79.98C66.5999 78.82 66.5999 77.51 66.5999 76.06C66.5999 73.14 66.5999 69.68 66.5999 65.85C66.5999 63.92 66.5999 61.85 66.5999 59.85V58.23C66.5596 57.7108 66.5967 57.1884 66.7099 56.68C66.8794 56.1953 67.1987 55.7771 67.6217 55.4859C68.0446 55.1947 68.5491 55.0455 69.0624 55.06C69.5757 55.0744 70.0711 55.2518 70.4769 55.5664C70.8827 55.881 71.178 56.3166 71.3199 56.81C71.3942 57.3298 71.4176 57.8557 71.3899 58.38V60C71.3899 62.09 71.3899 64.11 71.3899 66C71.3899 69.84 71.3899 73.3 71.3899 76.22C71.3899 77.67 71.3899 78.98 71.3899 80.14C71.3899 80.72 71.3899 81.26 71.3899 81.75C71.4024 82.1872 71.2952 82.6194 71.0799 83C70.7215 83.5035 70.1917 83.8591 69.5899 84C69.1799 84.08 68.9499 84.06 68.9499 84.08C69.1684 84.1166 69.3914 84.1166 69.6099 84.08C70.2406 83.9564 70.8013 83.5993 71.1799 83.08C71.4508 82.7015 71.6102 82.2546 71.6399 81.79C71.6399 81.28 71.6399 80.79 71.6399 80.17C71.6399 79.01 71.6399 77.7 71.6399 76.25C71.6399 73.33 71.6399 69.87 71.6399 66.03C71.6399 64.11 71.6399 62.09 71.6399 60.03V57.58C71.6476 57.2978 71.6207 57.0157 71.5599 56.74C71.4176 56.1707 71.0897 55.6649 70.6279 55.3027C70.1661 54.9405 69.5968 54.7425 69.0099 54.74C68.424 54.709 67.8444 54.874 67.3627 55.209C66.881 55.544 66.5247 56.0299 66.3499 56.59C66.2654 56.8618 66.2249 57.1454 66.2299 57.43V59.81C66.2299 61.9 66.2299 63.92 66.2299 65.81C66.2299 69.64 66.2299 73.1 66.2299 76.02C66.2299 77.47 66.2299 78.78 66.2299 79.94C66.2299 80.52 66.2299 81.06 66.2299 81.55C66.2344 82.0178 66.3695 82.475 66.6199 82.87C66.8032 83.1672 67.048 83.4218 67.3377 83.6167C67.6275 83.8116 67.9555 83.9423 68.2999 84C68.527 84.0661 68.7649 84.0865 68.9999 84.06Z" fill="#263238"/>
<path d="M60.5996 84.0601C60.3872 84.0341 60.1768 83.9941 59.9696 83.9401C59.373 83.7745 58.8639 83.3837 58.5496 82.8501C58.3237 82.4684 58.2029 82.0337 58.1996 81.5901C58.1996 81.1001 58.1996 80.5901 58.1996 79.9801C58.1996 78.8201 58.1996 77.5101 58.1996 76.0601C58.1996 73.1401 58.1996 69.6801 58.1996 65.8501C58.1996 63.9201 58.1996 61.8501 58.1996 59.8501V58.2301C58.169 57.7109 58.206 57.1899 58.3096 56.6801C58.4792 56.1954 58.7985 55.7772 59.2214 55.486C59.6443 55.1948 60.1489 55.0456 60.6622 55.0601C61.1754 55.0745 61.6708 55.2519 62.0766 55.5665C62.4825 55.8811 62.7777 56.3167 62.9196 56.8101C62.9939 57.33 63.0174 57.8558 62.9897 58.3801V60.0001C62.9897 62.0901 62.9897 64.1101 62.9897 66.0001C62.9897 69.8401 62.9897 73.3001 62.9897 76.2201C62.9897 77.6701 62.9897 78.9801 62.9897 80.1401C62.9897 80.7201 62.9897 81.2601 62.9897 81.7501C63.0174 82.1826 62.9276 82.6146 62.7296 83.0001C62.375 83.503 61.8485 83.8587 61.2496 84.0001C60.8296 84.0801 60.5996 84.0601 60.5996 84.0801C60.8181 84.1167 61.0412 84.1167 61.2596 84.0801C61.8903 83.9565 62.451 83.5994 62.8297 83.0801C63.1006 82.7016 63.2599 82.2547 63.2896 81.7901C63.2896 81.2801 63.2896 80.7901 63.2896 80.1701C63.2896 79.0101 63.2896 77.7001 63.2896 76.2501C63.2896 73.3301 63.2896 69.8701 63.2896 66.0301C63.2896 64.1101 63.2896 62.0901 63.2896 60.0301V57.5801C63.3027 57.2978 63.2758 57.015 63.2096 56.7401C63.0674 56.1708 62.7394 55.665 62.2776 55.3028C61.8158 54.9406 61.2465 54.7426 60.6596 54.7401C60.0732 54.7133 59.4939 54.8782 59.0096 55.2101C58.5376 55.5516 58.1872 56.0352 58.0096 56.5901C57.9348 56.864 57.8945 57.1462 57.8896 57.4301V58.2301C57.8896 58.7601 57.8896 59.2901 57.8896 59.8101C57.8896 61.9001 57.8896 63.9201 57.8896 65.8101C57.8896 69.6401 57.8896 73.1001 57.8896 76.0201C57.8896 77.4701 57.8896 78.7801 57.8896 79.9401C57.8896 80.5201 57.8896 81.0601 57.8896 81.5501C57.8957 82.0162 58.0269 82.4722 58.2696 82.8701C58.4593 83.1722 58.7122 83.4297 59.0108 83.6247C59.3094 83.8198 59.6468 83.9479 59.9996 84.0001C60.1948 84.0539 60.3977 84.0742 60.5996 84.0601Z" fill="#263238"/>
<path d="M51.1599 84.06C50.944 84.0347 50.7302 83.9946 50.5199 83.94C49.9255 83.7697 49.418 83.3801 49.0999 82.85C48.8774 82.4674 48.7601 82.0327 48.7599 81.59C48.7599 81.1 48.7599 80.59 48.7599 79.98C48.7599 78.82 48.7599 77.51 48.7599 76.06C48.7599 73.14 48.7599 69.68 48.7599 65.85C48.7599 63.92 48.7599 61.85 48.7599 59.85V58.23C48.762 57.7043 48.8429 57.1818 48.9999 56.68C49.1694 56.1953 49.4887 55.7771 49.9116 55.4859C50.3345 55.1947 50.8391 55.0455 51.3524 55.06C51.8657 55.0744 52.361 55.2518 52.7669 55.5664C53.1727 55.881 53.4679 56.3166 53.6099 56.81C53.6842 57.3298 53.7076 57.8557 53.6799 58.38V60C53.6799 62.09 53.6799 64.11 53.6799 66C53.6799 69.84 53.6799 73.3 53.6799 76.22C53.6799 77.67 53.6799 78.98 53.6799 80.14C53.6799 80.72 53.6799 81.26 53.6799 81.75C53.6682 82.1948 53.5332 82.6276 53.2899 83C52.9314 83.5035 52.4017 83.8591 51.7999 84C51.3899 84.08 51.1599 84.06 51.1599 84.08C51.3784 84.1166 51.6014 84.1166 51.8199 84.08C52.4505 83.9564 53.0112 83.5993 53.3899 83.08C53.6608 82.7015 53.8201 82.2546 53.8499 81.79C53.8499 81.28 53.8499 80.79 53.8499 80.17C53.8499 79.01 53.8499 77.7 53.8499 76.25C53.8499 73.33 53.8499 69.87 53.8499 66.03C53.8499 64.11 53.8499 62.09 53.8499 60.03V57.58C53.8576 57.2978 53.8307 57.0157 53.7699 56.74C53.6276 56.1707 53.2997 55.6649 52.8379 55.3027C52.3761 54.9405 51.8068 54.7425 51.2199 54.74C50.634 54.709 50.0544 54.874 49.5727 55.209C49.091 55.544 48.7346 56.0299 48.5599 56.59C48.4753 56.8618 48.4348 57.1454 48.4399 57.43V59.81C48.4399 61.9 48.4399 63.92 48.4399 65.81C48.4399 69.64 48.4399 73.1 48.4399 76.02C48.4399 77.47 48.4399 78.78 48.4399 79.94C48.4399 80.52 48.4399 81.06 48.4399 81.55C48.4866 82.0491 48.6816 82.5228 48.9999 82.91C49.3401 83.458 49.8827 83.8496 50.5099 84C50.721 84.0597 50.9414 84.08 51.1599 84.06Z" fill="#263238"/>
<path d="M60.1298 36H59.5798H57.9598C57.5998 36 57.1998 36 56.7598 36L55.3298 36.2L53.6698 36.44L51.7998 37C48.6065 37.818 45.567 39.1486 42.7998 40.94C39.1027 43.3059 35.9251 46.3985 33.4598 50.03C30.4985 54.4814 28.672 59.5901 28.1398 64.91C28.0143 66.3598 27.9843 67.8163 28.0498 69.27C28.0998 70.01 28.0498 70.76 28.1998 71.51C28.3498 72.26 28.4198 73 28.5398 73.76C29.0985 76.8512 30.1094 79.8433 31.5398 82.64C33.0784 85.5717 35.0319 88.2661 37.3398 90.64C39.8029 93.0562 42.6224 95.0798 45.6998 96.64C48.8855 98.2758 52.3352 99.3354 55.8898 99.77C56.7898 99.9115 57.6988 99.9884 58.6098 100C59.5249 100.067 60.4429 100.083 61.3598 100.05C63.2092 99.9742 65.049 99.7434 66.8598 99.36C70.782 98.5178 74.5125 96.9509 77.8598 94.74H77.5298L88.6898 99.22L89.3498 99.48L89.1598 98.8C88.0331 94.7 86.9398 90.7233 85.8798 86.87L85.8198 87.16C88.8619 83.1506 90.9174 78.4813 91.8198 73.53C92.2449 71.2225 92.3893 68.8721 92.2498 66.53C92.2284 65.4073 92.1248 64.2876 91.9398 63.18C91.8498 62.63 91.7698 62.08 91.6798 61.54C91.5898 61 91.4198 60.54 91.2898 59.96C89.4014 52.6325 84.9713 46.2142 78.7898 41.85C76.5102 40.2139 74.017 38.8984 71.3798 37.94L69.7098 37.35L68.1298 36.94L66.6798 36.58C66.2098 36.49 65.7598 36.45 65.3398 36.38C64.4998 36.27 63.7598 36.13 63.1098 36.1L61.4698 36H60.4698H60.1298C60.2426 36.0154 60.357 36.0154 60.4698 36L61.4698 36.08L63.0998 36.19C63.7498 36.19 64.4798 36.4 65.3198 36.52C70.0999 37.3554 74.6274 39.2669 78.5598 42.11C84.6016 46.4896 88.8986 52.866 90.6898 60.11C90.8198 60.63 90.9698 61.11 91.0698 61.67L91.3098 63.27C91.4879 64.3613 91.5848 65.4643 91.5998 66.57C91.7315 68.8598 91.5804 71.1572 91.1498 73.41C90.269 78.2563 88.2579 82.8266 85.2798 86.75L85.1798 86.88V87.05L88.4698 99L88.9398 98.58L77.7898 94.1L77.6098 94L77.4498 94.1C74.1901 96.2539 70.5584 97.7832 66.7398 98.61C64.9684 98.9851 63.1689 99.2126 61.3598 99.29C60.4638 99.34 59.5658 99.34 58.6698 99.29C57.7738 99.26 56.8813 99.163 55.9998 99C52.5156 98.5977 49.1301 97.582 45.9998 96C42.9874 94.475 40.2256 92.4989 37.8098 90.14C35.5456 87.8231 33.6259 85.1929 32.1098 82.33C30.6914 79.5951 29.6807 76.6675 29.1098 73.64C28.9998 72.9 28.8798 72.17 28.7698 71.44C28.6598 70.71 28.7298 70 28.6698 69.25C28.3982 63.7438 29.5793 58.263 32.0944 53.3573C34.6096 48.4516 38.3704 44.2935 42.9998 41.3C45.7214 39.4905 48.7211 38.1392 51.8798 37.3L53.7198 36.81L55.3698 36.53L56.7798 36.3C57.2198 36.3 57.6098 36.24 57.9698 36.21L59.5798 36.1C59.7658 36.0835 59.9499 36.05 60.1298 36Z" fill="#263238"/>
</g>
<defs>
<clipPath id="clip0">
<rect width="161.76" height="213.76" fill="white" transform="translate(28 4)"/>
</clipPath>
</defs>
</svg>
