<svg width="12" height="13" viewBox="0 0 12 13" fill="none" xmlns="http://www.w3.org/2000/svg">
<path d="M6.43111 5.60564V7.5851H9.70503C9.57274 8.43413 8.71602 10.074 6.43111 10.074C4.46127 10.074 2.85269 8.44375 2.85269 6.43062C2.85269 4.41749 4.46175 2.78726 6.43111 2.78726C7.55192 2.78726 8.30281 3.263 8.73286 3.67669L10.2981 2.16721C9.29278 1.22871 7.98918 0.658203 6.43111 0.658203C3.23944 0.658203 0.658691 3.23895 0.658691 6.43062C0.658691 9.62228 3.23944 12.203 6.43111 12.203C9.76275 12.203 11.9726 9.86087 11.9726 6.56242C11.9726 6.18337 11.9317 5.89378 11.8817 5.60564H6.43111V5.60564Z" fill="#9469E2"/>
</svg>
