<svg width="14" height="9" viewBox="0 0 14 9" fill="none" xmlns="http://www.w3.org/2000/svg">
<path d="M13.6268 1.10519C13.7174 0.804496 13.6268 0.583984 13.1986 0.583984H11.78C11.419 0.583984 11.254 0.774749 11.1635 0.984267C11.1635 0.984267 10.4422 2.74254 9.42012 3.8826C9.09021 4.21434 8.93949 4.31909 8.75965 4.31909C8.66973 4.31909 8.53906 4.21434 8.53906 3.91364V1.10519C8.53906 0.744356 8.43491 0.583984 8.13411 0.583984H5.90494C5.67982 0.583984 5.54397 0.750823 5.54397 0.909901C5.54397 1.25134 6.05502 1.33023 6.10741 2.29246V4.37988C6.10741 4.83707 6.02526 4.92049 5.84413 4.92049C5.36349 4.92049 4.19392 3.15575 3.49981 1.13559C3.36461 0.743063 3.22812 0.584631 2.86586 0.584631H1.44789C1.04229 0.584631 0.961426 0.775396 0.961426 0.984914C0.961426 1.36127 1.44206 3.22365 3.2003 5.68678C4.37246 7.36874 6.02267 8.28054 7.52604 8.28054C8.42715 8.28054 8.53842 8.07813 8.53842 7.72893V6.4576C8.53842 6.05279 8.62445 5.97131 8.90973 5.97131C9.11932 5.97131 9.48028 6.07736 10.3219 6.88763C11.2832 7.84857 11.4423 8.27989 11.9824 8.27989H13.4004C13.8054 8.27989 14.0078 8.07748 13.8914 7.67785C13.764 7.28015 13.3047 6.70139 12.6953 6.01658C12.3641 5.626 11.8692 5.20567 11.7185 4.9955C11.5083 4.72455 11.5691 4.60492 11.7185 4.36436C11.7192 4.36501 13.447 1.93227 13.6268 1.10519Z" fill="white"/>
</svg>
