<svg width="489" height="646" viewBox="0 0 489 646" fill="none" xmlns="http://www.w3.org/2000/svg">
<path fill-rule="evenodd" clip-rule="evenodd" d="M243.911 104.076C194.075 105.388 151.04 133.059 109.787 160.622C67.1388 189.117 15.9311 216.178 2.71295 265.23C-10.3594 313.74 27.1842 358.969 43.527 406.509C59.602 453.269 56.5131 512.394 97.4692 540.868C138.37 569.302 193.995 549.654 243.911 545.818C289.361 542.326 334.269 540.426 374.638 519.57C420.351 495.952 474.932 469.601 487.065 420.193C499.152 370.977 451.389 329.187 433.004 281.9C415.949 238.032 417.846 185.863 383.348 153.421C346.735 118.99 294.521 102.743 243.911 104.076Z" fill="#272727"/>
<path d="M335.55 593.536L349.479 625.463C349.479 625.463 330.427 640.063 331.868 645.999L392.866 627.709L378.457 578.455L335.55 593.536Z" fill="#263238"/>
<path d="M351.88 623.538C351.88 623.859 353.321 624.019 354.762 624.982C356.203 625.944 356.843 627.228 357.164 627.067C357.484 627.067 357.164 625.142 355.403 624.019C353.641 622.736 351.88 623.217 351.88 623.538Z" fill="#263238"/>
<path d="M350.599 632.202C350.919 632.202 350.919 630.598 349.639 629.154C348.358 627.71 346.757 627.549 346.757 627.87C346.597 628.191 347.878 628.833 348.838 629.956C349.799 631.079 350.279 632.363 350.599 632.202Z" fill="#263238"/>
<path d="M364.688 593.698L365.969 626.587C365.969 626.587 332.988 638.941 332.668 645.037L396.388 644.877L396.548 593.537L364.688 593.698Z" fill="#455A64"/>
<path d="M358.124 628.994C358.124 629.315 359.405 629.796 360.526 631.08C361.646 632.363 361.966 633.807 362.127 633.807C362.447 633.807 362.607 632.042 361.326 630.438C360.045 628.834 358.124 628.673 358.124 628.994Z" fill="#263238"/>
<path d="M354.442 637.016C354.762 637.016 355.082 635.572 354.282 633.807C353.481 632.042 352.04 631.4 351.88 631.721C351.72 632.042 352.681 632.844 353.321 634.288C353.961 635.572 354.121 636.855 354.442 637.016Z" fill="#263238"/>
<path d="M310.254 120.088C310.254 120.088 298.727 127.949 295.685 141.907C293.283 152.977 286.719 211.376 286.719 211.376L275.192 233.837L282.717 251.646C289.121 252.127 295.525 250.202 300.808 246.512L305.931 242.822L315.217 229.024L310.254 120.088Z" fill="#EBEBEB"/>
<path d="M428.408 183.782L437.854 182.177C437.854 182.177 418.001 126.987 406.154 121.693C401.991 119.767 399.269 118.644 397.508 117.842V117.682L383.259 111.906L366.609 105.809L365.328 105.328L365.808 105.809L332.508 107.895L329.946 109.82L312.815 118.805C312.815 118.805 305.29 121.372 298.246 130.356C291.362 139.341 281.275 185.386 281.275 185.386L303.689 194.531L309.293 231.592L295.044 302.505L416.72 300.259L390.464 226.618L394.627 189.878L428.408 183.782Z" fill="#963EEE"/>
<g opacity="0.3">
<g opacity="0.3">
<path opacity="0.3" d="M307.212 245.069C319.54 250.845 333.149 254.214 346.917 254.855C351.72 255.016 357.004 254.855 361.006 252.128C362.767 251.005 364.208 249.561 366.129 248.759C368.691 247.796 371.573 248.278 374.455 248.598C380.859 249.24 387.423 248.919 393.827 247.315C394.787 247.154 395.748 246.834 396.388 246.031C397.029 245.39 397.189 244.106 396.549 243.464C396.068 243.144 395.428 242.983 394.948 242.983C365.969 241.539 336.991 240.095 308.173 238.651L307.212 245.069Z" fill="black"/>
</g>
</g>
<path d="M299.367 157.149C299.528 157.149 301.289 168.54 303.21 182.659C305.131 196.777 306.412 208.329 306.252 208.329C306.092 208.329 304.331 196.938 302.409 182.819C300.488 168.701 299.047 157.31 299.367 157.149Z" fill="#263238"/>
<path d="M344.996 147.523C344.996 147.523 344.516 147.202 343.715 146.4C342.915 145.598 341.954 144.475 340.513 143.031C339.232 141.587 337.631 139.822 335.87 137.897C334.109 135.971 332.188 133.886 330.427 131.319C328.666 128.912 327.225 126.345 326.264 123.778C325.464 121.211 325.143 118.805 325.464 116.88C325.624 114.954 326.264 113.35 326.744 112.387C327.225 111.425 327.705 110.943 327.705 110.943C327.865 110.943 326.264 113.029 326.104 116.88C325.944 118.805 326.264 121.051 327.065 123.457C327.865 125.864 329.306 128.271 331.067 130.677C332.828 133.084 334.749 135.169 336.35 137.255C337.951 139.18 339.552 140.945 340.833 142.549C342.114 143.993 343.075 145.277 343.715 146.079C344.676 147.042 344.996 147.523 344.996 147.523Z" fill="#263238"/>
<path d="M373.974 108.376C373.974 108.376 373.974 109.018 373.814 110.301C373.494 111.585 373.173 113.35 372.373 115.435C370.772 119.767 367.089 124.901 362.447 129.874C357.804 134.848 353.481 139.18 350.279 142.389C348.838 143.832 347.557 145.116 346.437 146.079C345.476 146.881 344.996 147.362 344.996 147.362C344.996 147.362 345.316 146.72 346.276 145.918C347.237 144.795 348.358 143.512 349.799 142.068C353.001 138.699 357.163 134.206 361.806 129.393C366.449 124.42 370.131 119.446 371.892 115.275C373.654 111.103 373.814 108.376 373.974 108.376Z" fill="#263238"/>
<path d="M393.667 189.879L397.509 211.537L346.117 219.078L349.159 242.823C349.159 242.823 412.558 246.352 419.603 244.748C428.408 242.823 435.293 232.234 434.973 216.671C434.812 210.575 432.091 198.221 428.408 183.942L393.667 189.879Z" fill="#EBEBEB"/>
<path d="M399.911 119.446C399.911 119.607 398.79 119.607 396.869 120.088C394.948 120.73 392.386 122.013 389.824 124.58C387.263 127.147 385.181 130.998 384.541 135.65C384.061 137.896 384.061 140.463 384.221 143.03C384.381 145.597 384.861 148.164 385.502 150.892C387.903 161.641 389.984 171.267 391.585 178.487C392.386 182.017 392.866 184.904 393.186 186.83C393.347 187.792 393.507 188.594 393.507 189.076C393.507 189.557 393.667 189.878 393.507 189.878C393.507 189.878 393.186 188.755 392.706 186.83C392.226 184.744 391.585 181.856 390.785 178.487C389.184 171.428 386.782 161.802 384.541 151.052C383.901 148.325 383.42 145.758 383.26 143.03C383.1 140.463 383.26 137.897 383.741 135.49C384.541 130.677 386.782 126.666 389.504 124.099C392.066 121.532 394.948 120.248 396.869 119.767C397.829 119.446 398.63 119.446 399.11 119.446C399.59 119.446 399.911 119.446 399.911 119.446Z" fill="#263238"/>
<path d="M416.721 300.259C416.721 300.419 389.344 301.061 355.723 301.703C322.102 302.184 294.725 302.505 294.725 302.344C294.725 302.184 321.942 301.542 355.723 300.9C389.504 300.259 416.721 299.938 416.721 300.259Z" fill="#263238"/>
<path d="M303.049 290.472L275.992 433.902C272.95 450.267 274.712 467.112 280.955 482.514L338.432 622.094L383.74 593.055L337.311 455.08L366.769 332.827L357.163 281.487L303.049 290.472Z" fill="#963EEE"/>
<path d="M325.304 326.891L345.957 491.82L349.479 625.624L401.031 626.426C401.031 626.426 399.11 491.017 399.11 482.835C399.11 474.653 399.11 396.039 399.11 396.039V349.352C399.11 349.352 406.475 338.924 409.516 332.987C412.398 327.051 409.516 297.37 409.516 297.37C409.516 297.37 398.47 274.749 357.004 281.648C315.537 288.386 325.304 326.891 325.304 326.891Z" fill="#963EEE"/>
<path d="M349.639 625.464C349.639 625.464 349.639 625.143 349.639 624.661C349.639 624.02 349.639 623.217 349.479 622.255C349.319 620.009 349.319 616.96 349.158 612.949C348.838 604.767 348.518 593.055 347.878 578.616C347.397 564.016 346.757 546.85 346.117 527.597C345.796 517.971 345.476 507.863 344.996 497.435C344.516 487.007 343.875 476.257 342.594 465.187C341.954 459.732 341.153 454.278 340.193 448.983C339.232 443.689 338.272 438.394 337.471 433.26C335.71 422.993 334.429 412.885 333.148 403.419C330.747 384.327 328.986 367.161 327.385 352.721C325.784 338.282 324.343 326.57 323.382 318.548C322.902 314.537 322.422 311.489 322.101 309.243C321.941 308.28 321.941 307.478 321.781 306.836C321.781 306.355 321.781 306.034 321.781 306.034C321.781 306.034 321.781 306.355 321.941 306.836C322.101 307.478 322.101 308.28 322.262 309.243C322.582 311.329 323.062 314.537 323.702 318.548C324.823 326.57 326.424 338.282 328.025 352.721C329.626 367.161 331.547 384.327 333.949 403.419C335.23 412.885 336.671 422.993 338.272 433.26C339.232 438.394 340.033 443.689 340.993 448.983C341.954 454.278 342.754 459.732 343.395 465.187C344.676 476.257 345.316 487.007 345.796 497.435C346.277 507.863 346.597 517.971 346.917 527.597C347.557 546.85 348.038 564.016 348.518 578.616C348.998 593.055 349.319 604.928 349.479 612.949C349.639 616.96 349.639 620.169 349.639 622.255C349.639 623.378 349.639 624.18 349.639 624.661C349.639 625.143 349.639 625.464 349.639 625.464Z" fill="#263238"/>
<path d="M365.809 625.464C365.649 625.464 361.806 556.957 357.324 472.407C352.841 387.857 349.479 319.351 349.639 319.351C349.799 319.351 353.641 387.857 358.124 472.407C362.607 556.957 365.969 625.464 365.809 625.464Z" fill="#263238"/>
<path d="M383.42 308.602C383.42 308.602 383.1 309.083 382.299 310.046C381.499 310.848 380.378 311.971 378.777 313.094C375.575 315.34 370.132 317.746 363.888 317.426C357.644 317.105 352.521 314.377 349.639 311.65C348.198 310.366 347.077 309.083 346.437 308.281C345.796 307.318 345.476 306.837 345.476 306.837C345.636 306.676 346.917 308.762 349.959 311.329C353.001 313.736 357.964 316.463 363.888 316.623C369.811 316.944 375.095 314.859 378.297 312.613C381.819 310.366 383.42 308.441 383.42 308.602Z" fill="#263238"/>
<path d="M349.158 614.072C349.158 614.072 348.998 613.751 348.838 613.27C348.678 612.789 348.198 611.986 347.878 611.024C347.077 608.938 345.796 606.05 344.035 602.36C340.833 594.82 336.03 583.91 330.266 570.433C324.503 556.957 317.619 540.753 310.094 522.944C302.569 504.975 294.244 485.402 286.079 464.545C285.598 463.262 285.118 461.978 284.638 460.534C284.318 459.09 283.837 457.807 283.837 456.363C283.517 453.635 283.517 450.748 283.517 448.02C283.677 442.565 284.318 437.11 284.958 431.976C286.399 421.548 288.32 411.441 290.241 401.975C294.244 382.883 298.406 365.877 302.089 351.758C305.771 337.479 308.813 326.088 311.054 318.067C312.175 314.216 313.136 311.007 313.616 308.922C313.936 307.959 314.096 307.157 314.256 306.515C314.416 306.034 314.577 305.713 314.577 305.713C314.577 305.713 314.577 306.034 314.417 306.515C314.256 307.157 314.096 307.799 313.776 308.922C313.136 311.007 312.335 314.056 311.375 318.067C309.293 325.928 306.251 337.479 302.569 351.758C299.047 366.037 294.884 383.043 291.042 401.975C289.121 411.441 287.199 421.548 285.759 431.976C285.118 437.271 284.478 442.565 284.318 448.02C284.318 450.748 284.157 453.475 284.638 456.202C284.798 457.646 285.118 458.93 285.438 460.213C285.919 461.497 286.399 462.78 286.879 464.064C295.044 484.921 303.37 504.654 310.734 522.463C318.259 540.432 324.983 556.475 330.747 570.112C336.51 583.589 340.993 594.499 344.195 602.2C345.796 605.89 346.917 608.938 347.878 610.863C348.198 611.826 348.518 612.628 348.838 613.109C349.158 613.751 349.158 614.072 349.158 614.072Z" fill="#263238"/>
<path d="M337.311 454.919C337.151 455.24 334.109 451.549 330.747 447.057C327.385 442.565 324.663 438.715 324.983 438.554C325.143 438.394 328.025 441.923 331.547 446.576C333.308 448.822 334.749 450.908 335.87 452.512C336.67 453.956 337.311 455.079 337.311 454.919Z" fill="#263238"/>
<g opacity="0.3">
<path opacity="0.3" d="M323.062 315.659L330.587 443.848L337.311 454.918L339.712 444.811L323.062 315.659Z" fill="black"/>
</g>
<g opacity="0.3">
<path opacity="0.3" d="M300.808 302.344L299.847 307.799H410.477L409.996 300.419L300.808 302.344Z" fill="black"/>
</g>
<path d="M221.238 211.538L295.525 238.973L357.964 248.599L283.677 212.34L221.238 211.538Z" fill="#263238"/>
<path d="M253.098 241.219C252.458 237.209 251.177 233.358 249.096 229.989C248.776 229.347 248.295 228.705 248.135 227.903C247.975 227.101 247.975 226.299 248.616 225.657C249.576 224.694 251.337 225.015 252.458 225.818C254.86 227.422 256.461 229.989 257.421 232.877C258.382 235.604 258.702 238.492 259.022 241.54" fill="#FFBE9D"/>
<path d="M281.916 234.159H278.234C277.433 233.357 276.312 232.715 275.032 232.234C274.231 231.913 273.27 232.394 272.63 233.196C274.231 230.469 275.992 227.421 276.472 226.618C277.113 225.014 275.672 223.891 273.27 223.891C270.869 223.891 260.462 238.812 260.462 238.812C260.462 238.812 267.026 226.779 267.667 225.014C269.268 220.361 264.305 220.041 262.384 222.287C260.142 225.014 251.016 238.812 251.016 238.812C251.016 238.812 249.255 241.539 250.536 244.266C251.657 246.994 255.179 245.871 255.179 245.871C255.179 245.871 255.179 248.277 257.581 249.561C260.302 251.005 263.824 249.4 263.824 249.4L277.433 252.449C277.433 252.449 279.514 252.288 282.396 251.967C289.28 251.326 294.724 246.031 295.845 239.133L281.916 234.159Z" fill="#FFBE9D"/>
<path d="M272.79 233.037C272.951 233.198 271.189 235.925 268.788 239.455C267.667 241.219 266.547 242.663 265.746 243.786C264.946 244.909 264.465 245.551 264.305 245.551C264.305 245.551 264.625 244.749 265.426 243.626C266.226 242.503 267.187 240.898 268.308 239.294C269.428 237.529 270.549 236.085 271.35 234.962C271.67 234.481 271.99 234 272.31 233.679C272.63 233.198 272.79 233.037 272.79 233.037Z" fill="#EB996E"/>
<path d="M271.99 248.117C271.99 248.117 272.31 247.154 273.271 245.871C274.071 244.587 275.192 242.662 276.473 240.737C277.113 239.774 277.753 238.812 278.234 237.849C278.714 237.047 278.714 236.084 278.554 235.282C278.234 233.838 277.273 233.196 277.433 233.196C277.433 233.196 277.593 233.357 277.913 233.678C278.234 233.998 278.554 234.48 278.874 235.282C279.034 236.084 279.194 237.047 278.554 238.009C278.074 238.972 277.433 239.935 276.793 240.897C275.512 242.983 274.391 244.748 273.431 246.031C272.63 247.475 271.99 248.277 271.99 248.117Z" fill="#EB996E"/>
<path d="M279.035 249.562C279.035 249.562 279.195 248.76 279.835 247.477C280.155 246.835 280.476 246.033 280.796 245.231C281.116 244.428 281.596 243.466 281.756 242.503C282.077 241.54 281.756 240.578 281.276 239.776C280.956 239.455 280.636 239.294 280.315 239.134C279.995 238.974 279.675 238.813 279.355 238.813C278.714 238.813 278.234 239.134 277.914 239.294C277.594 239.455 277.434 239.615 277.434 239.455C277.434 239.455 277.594 239.294 277.914 239.134C278.074 238.974 278.234 238.973 278.554 238.813C278.875 238.653 279.035 238.492 279.515 238.492C279.835 238.492 280.315 238.653 280.636 238.813C280.956 238.973 281.436 239.134 281.756 239.615C282.397 240.417 282.557 241.54 282.237 242.664C281.916 243.787 281.596 244.589 281.116 245.551C280.796 246.354 280.315 247.156 279.995 247.798C279.515 248.76 279.195 249.562 279.035 249.562Z" fill="#EB996E"/>
<path d="M281.596 236.726C281.596 236.726 281.756 236.726 282.236 236.886C282.556 237.046 283.037 237.367 283.677 237.688C284.798 238.49 286.079 240.095 286.559 242.18C287.039 244.266 286.559 246.352 285.758 247.475C285.438 248.117 285.118 248.598 284.798 248.758C284.478 249.079 284.317 249.24 284.317 249.24C284.317 249.24 284.798 248.598 285.438 247.314C286.079 246.031 286.399 244.266 286.079 242.18C285.598 240.255 284.478 238.651 283.357 237.849C282.396 237.046 281.596 236.726 281.596 236.726Z" fill="#EB996E"/>
<path d="M257.741 228.865C257.901 228.865 256.461 231.111 254.699 233.838C252.938 236.566 251.337 238.651 251.337 238.491C251.177 238.491 252.618 236.245 254.379 233.517C256.14 230.95 257.581 228.704 257.741 228.865Z" fill="#EB996E"/>
<path d="M346.117 220.04L337.632 218.115L329.466 210.414C328.506 209.451 327.225 208.97 325.784 208.809L310.895 208.007C309.454 207.847 308.013 208.488 306.892 209.291L296.326 218.275L342.595 240.897L348.999 241.538L346.117 220.04Z" fill="#FFBE9D"/>
<path d="M320.661 216.191C320.661 216.191 319.541 216.03 317.779 215.87C316.018 215.71 313.457 215.389 311.055 216.512C309.774 216.993 308.814 217.795 307.853 218.437C306.893 219.079 306.092 219.72 305.292 220.362C304.491 220.844 303.851 221.164 303.53 221.485C303.05 221.646 302.73 221.806 302.73 221.806C302.73 221.806 303.691 221.325 305.131 220.202C305.772 219.72 306.732 219.079 307.533 218.277C308.494 217.635 309.454 216.833 310.735 216.191C312.016 215.549 313.297 215.389 314.577 215.389C315.698 215.389 316.819 215.549 317.779 215.549C318.74 215.71 319.38 215.87 319.861 216.03C320.341 216.03 320.661 216.03 320.661 216.191Z" fill="#EB996E"/>
<path d="M323.702 224.371C323.702 224.371 323.062 224.211 322.101 224.05C321.141 223.89 319.7 224.05 318.259 224.532C316.818 225.013 315.697 225.815 314.737 226.296C313.936 226.778 313.296 227.099 313.296 227.099C313.296 227.099 313.776 226.617 314.577 225.975C315.377 225.334 316.658 224.532 318.099 224.05C319.54 223.569 321.141 223.409 322.101 223.569C323.062 224.05 323.702 224.371 323.702 224.371Z" fill="#EB996E"/>
<path d="M342.755 225.816C342.595 225.816 341.474 224.051 339.873 221.966C338.272 219.88 336.991 218.115 336.991 218.115C337.151 218.115 338.592 219.559 340.193 221.645C341.794 223.891 342.755 225.656 342.755 225.816Z" fill="#EB996E"/>
<path d="M319.38 208.97L338.112 191.483C338.912 190.68 338.912 189.397 337.952 188.755C337.311 188.274 336.351 188.274 335.71 188.916L313.776 208.489" fill="#963EEE"/>
<g opacity="0.3">
<g opacity="0.3">
<path opacity="0.3" d="M319.38 208.97L338.112 191.483C338.912 190.68 338.912 189.397 337.952 188.755C337.311 188.274 336.351 188.274 335.71 188.916L313.776 208.489" fill="black"/>
</g>
</g>
<path d="M315.858 41.795C314.097 34.8963 316.018 27.1953 320.821 21.9009C324.343 17.89 329.306 15.323 334.43 13.7186C341.314 11.6329 348.999 11.4725 355.563 14.1999C362.127 16.9273 367.57 23.1844 368.371 30.404C368.691 33.6128 368.051 36.9819 369.171 40.1907C369.652 41.4742 370.452 42.9181 369.972 44.362C369.652 45.6455 368.371 46.4477 367.09 46.6081C365.809 46.7686 364.529 46.2873 363.248 45.8059C359.245 44.0411 355.723 40.9928 352.521 38.105" fill="#263238"/>
<path d="M315.698 45.3249C316.338 35.2174 323.062 22.7033 333.149 23.8264L364.688 31.8482C367.73 32.1691 370.132 34.7361 369.972 37.9448L366.449 114.152L345.796 138.699C345.796 138.699 332.668 123.297 331.708 118.644C331.548 118.003 331.547 117.682 331.547 117.04C330.907 111.585 331.387 106.612 331.387 106.612C331.387 100.515 331.387 97.9481 331.387 97.9481C331.387 97.9481 318.419 95.702 315.858 78.8562C314.577 70.353 315.057 56.5555 315.698 45.3249Z" fill="#FFBE9D"/>
<path d="M320.662 57.52C320.662 58.643 321.622 59.6056 322.743 59.7661C323.864 59.7661 324.984 58.9639 324.984 57.8408C324.984 56.7178 324.024 55.7552 322.903 55.5947C321.782 55.5947 320.822 56.3969 320.662 57.52Z" fill="#263238"/>
<path d="M318.74 52.3858C319.06 52.7066 320.661 51.4231 323.063 51.4231C325.464 51.4231 327.065 52.5462 327.386 52.3858C327.546 52.2253 327.226 51.744 326.425 51.2627C325.625 50.7814 324.504 50.1396 323.063 50.1396C321.622 50.1396 320.341 50.621 319.701 51.2627C318.9 51.744 318.58 52.3858 318.74 52.3858Z" fill="#263238"/>
<path d="M343.716 57.52C343.716 58.643 344.677 59.6056 345.798 59.7661C346.918 59.7661 348.039 58.9639 348.039 57.8408C348.039 56.7178 347.078 55.7552 345.958 55.5947C344.677 55.5947 343.716 56.3969 343.716 57.52Z" fill="#263238"/>
<path d="M341.634 52.8662C341.954 53.1871 343.555 51.9036 345.957 51.9036C348.358 51.9036 349.959 53.0267 350.28 52.8662C350.44 52.7058 350.12 52.2245 349.319 51.7432C348.519 51.2619 347.398 50.6201 345.957 50.6201C344.516 50.6201 343.235 51.1014 342.595 51.7432C341.794 52.2245 341.474 52.8662 341.634 52.8662Z" fill="#263238"/>
<path d="M333.149 70.1928C333.149 70.0323 331.708 69.8719 329.306 69.551C328.666 69.551 328.186 69.3906 328.025 68.9093C327.865 68.4279 328.186 67.7862 328.506 67.1445C329.146 65.7005 329.626 64.2566 330.267 62.6522C332.668 56.2348 334.59 50.9404 334.269 50.7799C333.949 50.6195 331.868 55.9139 329.306 62.3314C328.666 63.9357 328.186 65.3797 327.545 66.8236C327.385 67.4653 326.905 68.2675 327.225 69.2301C327.385 69.7114 327.865 70.0323 328.186 70.0323C328.506 70.1928 328.826 70.1928 329.146 70.1928C331.708 70.3532 333.149 70.3532 333.149 70.1928Z" fill="#263238"/>
<path d="M331.388 97.9488C331.388 97.9488 342.755 98.751 354.122 92.0127C354.122 92.0127 348.358 103.725 331.548 102.12L331.388 97.9488Z" fill="#EB996E"/>
<path d="M334.11 75.9686C334.91 74.8456 336.351 74.2038 337.952 74.3642C338.913 74.5247 340.033 75.006 340.674 75.8082C341.314 76.6104 341.474 77.7334 340.834 78.5356C340.194 79.4982 338.913 79.6587 337.792 79.3378C336.671 79.0169 335.711 78.2147 334.75 77.573C334.43 77.4125 334.27 77.0917 334.11 76.9312C333.79 76.6104 333.79 76.129 334.11 75.9686Z" fill="#EB996E"/>
<path d="M340.034 71.959C339.713 71.959 339.713 74.5259 337.472 76.2908C335.23 78.0556 332.669 77.7347 332.509 78.216C332.509 78.3764 333.149 78.6973 334.27 78.6973C335.391 78.6973 336.992 78.3764 338.272 77.2534C339.553 76.1303 340.194 74.6864 340.194 73.5633C340.514 72.4403 340.194 71.7985 340.034 71.959Z" fill="#263238"/>
<path d="M340.674 48.8562C340.834 49.498 343.236 49.1771 345.957 49.498C348.679 49.8188 350.92 50.621 351.241 49.9793C351.401 49.6584 351.08 49.1771 350.12 48.5353C349.159 47.8936 347.878 47.2519 346.117 47.0914C344.516 46.931 342.915 47.0914 341.955 47.5727C340.994 48.054 340.514 48.5353 340.674 48.8562Z" fill="#263238"/>
<path d="M319.54 45.6477C320.021 46.129 321.622 45.6477 323.543 45.6477C325.464 45.4873 327.065 45.9686 327.545 45.4873C327.705 45.1664 327.385 44.6851 326.745 44.2038C326.104 43.7225 324.824 43.2412 323.543 43.4016C322.262 43.4016 321.141 43.8829 320.341 44.5246C319.7 44.8455 319.38 45.4873 319.54 45.6477Z" fill="#263238"/>
<path d="M384.701 77.0927C380.379 78.8575 376.376 65.3808 372.374 62.8138C368.371 60.2468 364.369 68.9104 364.049 64.0973C363.728 59.926 365.169 55.2733 362.928 51.7437C360.046 46.9306 352.681 46.7702 349.8 42.1175C348.199 39.3901 348.519 35.7 346.598 32.9726C344.836 30.4056 341.795 29.443 338.753 28.9617C335.711 28.4804 332.669 28.3199 329.947 27.0364C327.225 25.5925 325.144 22.5442 326.105 19.6564C338.753 18.6937 351.561 19.3355 364.049 21.4212C366.93 21.9025 369.972 22.5442 372.054 24.6299C374.295 26.876 374.775 30.2452 375.256 33.2935C377.497 48.535 382.46 62.0116 384.701 77.0927Z" fill="#263238"/>
<path d="M315.538 47.571C316.338 37.6239 322.422 25.1099 331.388 20.7781C340.353 16.4463 351.08 16.1254 359.245 21.7407C368.051 27.8373 370.452 38.1052 371.573 48.8545C372.693 59.6037 370.932 63.4542 368.531 73.8826L367.41 96.9855C373.654 104.045 381.659 96.0229 382.94 95.5415C384.221 95.0602 388.543 87.5197 389.184 86.3967C395.588 74.3639 385.662 72.4387 387.423 65.7003C389.184 58.962 388.864 51.5819 386.142 45.004C384.861 41.9557 383.1 39.0678 381.979 36.0196C380.859 32.6504 380.699 28.7999 379.258 25.5912C377.657 21.9011 374.615 18.8528 371.092 16.9276C367.57 14.8419 363.728 13.7189 359.725 12.7562C350.6 10.6706 344.516 7.14095 335.71 10.3497C326.905 13.5584 320.821 18.2111 316.658 29.7625C314.897 34.2548 314.577 42.9183 315.538 47.571Z" fill="#963EEE"/>
<path d="M319.061 27.8381C319.061 27.8381 319.221 27.5172 319.541 26.8755C319.861 26.2337 320.501 25.4315 321.462 24.3085C323.223 22.2228 326.105 19.4954 330.588 17.2493C334.911 15.0032 340.834 13.5592 347.398 14.5219C353.802 15.4845 360.687 18.6932 365.65 24.4689C370.613 30.2446 372.854 37.3039 373.815 43.7213C374.936 50.1388 374.936 55.9145 374.455 60.8881C373.975 65.7011 372.694 69.5516 371.574 72.1186C370.933 73.4021 370.453 74.3647 370.133 74.846C369.812 75.4878 369.492 75.8087 369.492 75.8087C369.492 75.8087 370.293 74.5252 371.253 71.9582C372.374 69.3912 373.495 65.7011 373.815 60.8881C374.295 56.075 374.135 50.2992 373.014 43.8818C371.894 37.6247 369.652 30.726 364.849 25.1107C360.046 19.4954 353.322 16.2867 347.078 15.4845C340.834 14.5219 334.91 15.9658 330.748 18.0515C326.425 20.1371 323.383 22.8646 321.622 24.7898C319.861 26.5546 319.061 27.8381 319.061 27.8381Z" fill="#263238"/>
<path d="M384.381 92.9745C384.381 92.9745 383.741 93.7767 382.3 94.5789C380.859 95.3811 378.618 96.0228 376.216 95.8624C373.655 95.5415 371.573 94.4184 370.452 93.4558C369.172 92.3328 368.691 91.5306 368.851 91.3702C369.012 91.2097 369.652 92.0119 370.933 92.9745C372.214 93.9371 374.135 94.8998 376.376 95.0602C378.618 95.2206 380.859 94.7393 382.14 94.0976C383.581 93.4558 384.221 92.8141 384.381 92.9745Z" fill="#263238"/>
<path d="M377.337 83.6687C377.177 83.8291 375.736 82.2248 373.654 80.46C371.573 78.6952 369.652 77.7325 369.812 77.4117C369.972 77.2512 372.053 78.0534 374.135 79.8182C376.216 81.583 377.497 83.5083 377.337 83.6687Z" fill="#263238"/>
<path d="M378.778 70.8347C378.618 70.8347 378.618 68.749 377.177 66.8238C375.736 64.8985 373.495 64.5776 373.655 64.4172C373.655 64.2568 374.135 64.2568 375.096 64.4172C375.896 64.5776 377.017 65.2194 377.977 66.3424C378.778 67.4655 379.258 68.5886 379.258 69.5512C378.938 70.3534 378.778 70.8347 378.778 70.8347Z" fill="#263238"/>
<path d="M378.297 64.2559C378.137 64.4164 377.497 63.6142 376.536 62.812C375.575 62.1703 374.615 61.8494 374.615 61.5285C374.615 61.3681 375.896 61.2076 377.016 62.1702C378.137 62.9724 378.457 64.2559 378.297 64.2559Z" fill="#263238"/>
<path d="M368.531 22.3821C368.531 22.5425 367.891 23.0238 367.091 23.6656C366.29 24.3073 365.65 24.7886 365.49 24.6282C365.329 24.4678 365.65 23.6656 366.61 23.0238C367.571 22.3821 368.531 22.2216 368.531 22.3821Z" fill="#263238"/>
<path d="M366.13 21.7408C366.29 21.9013 365.97 22.3826 365.489 22.8639C365.009 23.3452 364.369 23.5056 364.209 23.3452C364.049 23.1848 364.369 22.7034 364.849 22.2221C365.329 21.7408 365.97 21.5804 366.13 21.7408Z" fill="#263238"/>
<path d="M365.169 66.1815C365.169 64.898 366.61 62.0102 367.891 61.6893C371.253 61.208 377.176 61.5288 377.176 69.8715C377.176 81.423 365.649 79.0164 365.649 78.6956C365.649 78.6956 365.169 70.5133 365.169 66.1815Z" fill="#FFBE9D"/>
<path d="M369.172 74.5241C369.172 74.5241 369.332 74.6845 369.652 74.8449C369.972 75.0054 370.613 75.1658 371.093 74.8449C372.374 74.3636 373.335 72.4384 373.335 70.3527C373.335 69.2297 373.174 68.267 372.694 67.4649C372.374 66.6627 371.734 66.0209 371.253 65.8605C370.613 65.7001 370.132 66.0209 370.132 66.3418C369.972 66.6627 370.132 66.8231 369.972 66.9836C369.972 66.9836 369.652 66.8231 369.812 66.3418C369.812 66.1814 369.972 65.8605 370.293 65.5396C370.613 65.3792 370.933 65.2188 371.413 65.2188C372.374 65.2188 373.174 66.0209 373.495 66.9836C373.975 67.9462 374.295 69.0692 374.135 70.1923C374.135 72.5988 372.854 74.6845 371.253 75.1658C370.453 75.3263 369.812 75.1658 369.492 74.8449C369.332 74.8449 369.172 74.5241 369.172 74.5241Z" fill="#EB996E"/>
<path d="M359.085 73.2412C359.085 73.2412 345.637 85.4344 332.508 83.6696C319.38 81.9048 314.897 73.2412 314.897 73.2412C314.897 73.2412 312.816 85.7553 318.58 92.0123C324.984 98.9111 327.865 100.836 341.474 98.4298C355.082 96.0232 362.447 80.6213 362.447 80.6213L359.085 73.2412Z" fill="#F5F5F5"/>
<path d="M366.13 63.2932C366.29 63.4537 364.849 65.8602 362.928 68.7481C361.007 71.636 359.245 73.8821 359.085 73.7216C358.925 73.5612 360.366 71.1546 362.287 68.2668C364.209 65.3789 365.81 63.1328 366.13 63.2932Z" fill="#F5F5F5"/>
<path d="M368.211 79.337C368.211 79.4974 366.93 79.8183 365.489 80.1392C363.888 80.46 362.767 80.7809 362.607 80.6205C362.447 80.46 363.728 79.6578 365.329 79.337C366.77 78.8557 368.211 79.0161 368.211 79.337Z" fill="#F5F5F5"/>
<path d="M356.043 79.1767C356.043 79.1767 355.723 79.8184 354.762 80.6206C353.961 81.5832 352.521 82.7063 350.92 84.1502C347.397 86.8776 341.954 90.0863 335.07 90.7281C328.185 91.2094 322.101 88.3215 318.899 85.2732C317.298 83.6689 316.178 82.2249 315.697 81.1019C315.057 79.9788 314.897 79.3371 314.897 79.3371C315.057 79.1767 316.018 81.9041 319.22 84.7919C322.422 87.6798 328.185 90.2468 334.91 89.7655C341.474 89.2842 346.917 86.0754 350.439 83.5084C353.961 81.1019 355.883 79.0162 356.043 79.1767Z" fill="#263238"/>
<path d="M348.999 87.6797C348.999 87.6797 347.878 88.8027 345.797 89.9258C343.716 91.0489 340.354 92.3323 336.671 92.6532C332.989 93.1345 329.467 92.6532 327.225 92.0115C324.824 91.3697 323.543 90.5675 323.543 90.5675C323.543 90.4071 324.984 91.0489 327.385 91.5302C329.787 92.0115 332.989 92.3324 336.671 92.0115C340.354 91.5302 343.395 90.5675 345.637 89.4445C347.718 88.4819 348.999 87.6797 348.999 87.6797Z" fill="#263238"/>
<path d="M145.511 11.7941C146.632 6.17886 150.634 3.291 155.918 1.20532C161.201 -0.880357 167.605 -0.23861 172.248 2.97012C175.45 5.0558 178.012 8.26453 181.694 9.38759C187.778 11.1524 194.342 6.33929 200.266 8.58541C203.788 10.0293 205.869 14.0403 205.229 17.5699C204.588 21.2599 201.066 24.1478 197.384 24.1478C201.386 25.2708 202.827 30.7257 200.746 34.4157C198.665 37.9453 194.182 39.5497 190.019 39.0684C185.857 38.5871 182.334 36.341 179.132 33.6135C175.93 31.0465 173.049 27.9982 169.686 25.7521C166.324 23.506 162.162 21.7412 158.159 22.2225C152.556 22.8643 148.073 27.3565 145.831 32.4905C143.43 37.6244 143.11 43.2397 143.11 48.855C143.11 54.4703 143.27 60.0856 141.989 65.5404C141.829 66.1822 141.509 66.8239 141.028 67.1448C140.068 67.4657 139.267 66.503 138.787 65.7009C133.183 56.556 129.501 46.288 127.74 35.8596C126.779 29.763 126.619 23.8269 129.661 18.5325C132.863 13.0776 141.189 8.74584 145.511 11.7941Z" fill="#263238"/>
<path d="M137.186 48.3733C136.866 48.2129 125.979 45.325 126.619 56.5556C127.26 67.6257 138.307 64.7379 138.307 64.417C138.307 64.0961 137.186 48.3733 137.186 48.3733Z" fill="#FFBE9D"/>
<path d="M134.624 60.4048C134.624 60.4048 134.464 60.5653 134.144 60.7257C133.824 60.8862 133.343 61.0466 132.703 60.8862C131.582 60.5653 130.462 58.64 130.302 56.7148C130.141 55.7522 130.302 54.7896 130.622 53.8269C130.942 53.0248 131.422 52.383 132.063 52.2226C132.703 52.0621 133.023 52.383 133.183 52.7039C133.343 53.0248 133.344 53.1852 133.344 53.1852C133.344 53.1852 133.504 53.0248 133.504 52.5434C133.504 52.383 133.344 52.0621 133.023 51.9017C132.703 51.7413 132.383 51.5808 131.903 51.7413C131.102 51.9017 130.302 52.7039 129.981 53.6665C129.661 54.6291 129.341 55.7522 129.501 56.8752C129.661 59.1213 130.942 61.207 132.543 61.5279C133.344 61.6883 133.984 61.3675 134.304 61.207C134.624 60.7257 134.624 60.4048 134.624 60.4048Z" fill="#EFA077"/>
<path d="M162.642 9.54774C179.293 8.42468 193.702 21.0992 194.662 37.945C195.463 51.903 196.103 66.9841 195.943 74.5246C195.623 90.8891 179.293 93.2957 179.293 93.2957C179.293 93.2957 179.613 98.1088 180.093 104.205C180.894 116.238 171.608 126.666 159.6 127.148C147.753 127.629 137.827 118.324 137.346 106.451L134.945 40.6724C134.304 24.4683 146.632 10.6708 162.642 9.54774Z" fill="#FFBE9D"/>
<path d="M179.293 93.2964C179.293 93.2964 169.366 93.7777 158.479 86.8789C158.479 86.8789 163.443 98.7512 179.613 97.4677L179.293 93.2964Z" fill="#EFA077"/>
<path d="M189.219 49.3357C189.219 50.6192 188.258 51.5818 186.977 51.7422C185.696 51.7422 184.576 50.7796 184.576 49.6565C184.576 48.3731 185.536 47.4104 186.817 47.25C188.098 47.25 189.219 48.2126 189.219 49.3357Z" fill="#263238"/>
<path d="M190.82 43.721C190.499 44.0419 188.738 42.7584 186.337 42.7584C183.775 42.7584 182.014 44.0419 181.694 43.721C181.534 43.5606 181.854 43.0793 182.654 42.4375C183.455 41.7958 184.736 41.3145 186.337 41.3145C187.938 41.3145 189.219 41.9562 190.019 42.4375C190.659 42.9188 190.82 43.5606 190.82 43.721Z" fill="#263238"/>
<path d="M165.043 49.0153C165.043 50.2988 164.082 51.2614 162.801 51.4218C161.521 51.4218 160.4 50.4592 160.4 49.3361C160.4 48.0527 161.361 47.09 162.641 46.9296C164.082 46.7692 165.043 47.7318 165.043 49.0153Z" fill="#263238"/>
<path d="M166.164 43.8812C165.844 44.202 164.083 42.9185 161.681 42.9185C159.119 42.9185 157.358 44.202 157.038 43.8812C156.878 43.7207 157.198 43.2394 157.999 42.5977C158.799 41.9559 160.08 41.4746 161.681 41.4746C163.282 41.4746 164.563 42.1164 165.363 42.5977C166.004 43.2394 166.324 43.8812 166.164 43.8812Z" fill="#263238"/>
<path d="M175.13 62.6521C175.13 62.4917 176.731 62.3312 179.132 62.0104C179.773 62.0104 180.413 61.8499 180.413 61.3686C180.573 60.8873 180.253 60.2456 179.933 59.4434C179.292 57.839 178.652 56.2346 178.011 54.6303C175.45 47.7315 173.529 41.9558 173.849 41.7953C174.169 41.6349 176.41 47.2502 178.972 54.149C179.612 55.9138 180.253 57.5181 180.733 59.1225C180.893 59.9247 181.374 60.7269 181.053 61.6895C180.893 62.1708 180.413 62.4917 179.933 62.6521C179.452 62.8125 179.132 62.8125 178.812 62.8125C176.731 62.8125 175.13 62.8125 175.13 62.6521Z" fill="#263238"/>
<path d="M167.765 64.2559C168.245 64.2559 168.085 66.9833 170.486 68.9085C172.728 70.8338 175.61 70.5129 175.77 70.9942C175.77 71.1546 175.129 71.4755 173.849 71.4755C172.728 71.4755 170.967 71.1546 169.526 69.8711C168.085 68.7481 167.445 67.1437 167.445 66.0207C167.284 64.8976 167.605 64.2559 167.765 64.2559Z" fill="#263238"/>
<path d="M166.645 35.8605C166.324 36.5022 163.923 36.1814 161.041 36.5022C158.159 36.8231 155.758 37.6253 155.277 36.9835C155.117 36.6627 155.598 36.0209 156.558 35.3792C157.519 34.7374 158.96 34.0957 160.721 33.9353C162.482 33.7748 164.083 34.0957 165.204 34.4166C166.164 34.8979 166.645 35.5396 166.645 35.8605Z" fill="#263238"/>
<path d="M190.34 36.1808C189.859 36.8226 188.098 36.1808 186.177 36.0204C184.096 35.86 182.335 36.3413 182.014 35.6995C181.854 35.3786 182.175 34.8973 182.815 34.2556C183.615 33.7743 184.896 33.293 186.337 33.293C187.778 33.293 189.059 33.9347 189.699 34.416C190.34 35.3786 190.66 35.86 190.34 36.1808Z" fill="#263238"/>
<path d="M197.544 30.4049C194.342 35.0576 181.854 33.1323 175.61 28.4797C171.288 25.1105 167.285 22.704 162.002 21.4205C158.48 20.6183 154.477 21.5809 151.435 23.5061C148.393 25.4314 145.832 28.3192 143.75 31.3675C147.593 39.8707 145.992 49.8178 144.231 58.9626C144.07 59.9253 143.75 61.0483 142.95 61.6901C141.669 62.8131 139.428 62.1714 138.147 60.8879C136.065 58.9626 135.105 56.0748 134.464 53.3474C133.024 47.0903 132.383 40.6729 133.504 34.2554C134.464 27.9984 137.186 21.7413 141.509 17.0887C146.952 11.1525 154.797 7.94379 162.802 7.46248C170.807 7.14161 178.812 9.7086 185.376 14.0404C188.418 16.1261 191.3 18.693 193.061 21.9018" fill="#263238"/>
<path d="M133.023 592.415L133.824 625.305C133.824 625.305 100.843 637.177 100.363 643.113L163.923 643.915L164.883 592.736L133.023 592.415Z" fill="#963EEE"/>
<g opacity="0.6">
<g opacity="0.6">
<g opacity="0.6">
<path opacity="0.6" d="M153.516 622.737C154.797 623.058 155.597 624.502 155.277 625.785C154.957 627.069 153.516 627.871 152.395 627.55C151.115 627.229 150.154 625.625 150.474 624.341C150.954 623.218 152.555 622.256 153.676 622.897" fill="white"/>
</g>
</g>
</g>
<g opacity="0.6">
<g opacity="0.6">
<path opacity="0.6" d="M163.762 643.915L163.602 638.781L102.764 639.904C102.764 639.904 99.8824 641.027 100.203 643.113L163.762 643.915Z" fill="white"/>
</g>
</g>
<path d="M132.703 624.823C132.703 625.144 134.304 625.304 135.745 626.267C137.346 627.229 137.986 628.673 138.307 628.513C138.627 628.513 138.147 626.588 136.225 625.464C134.464 624.341 132.703 624.662 132.703 624.823Z" fill="#263238"/>
<path d="M125.979 627.55C125.979 627.871 127.26 628.352 128.22 629.796C129.341 631.08 129.501 632.523 129.821 632.523C130.142 632.523 130.302 630.759 129.021 629.154C127.9 627.39 125.979 627.229 125.979 627.55Z" fill="#263238"/>
<path d="M122.136 635.572C122.456 635.572 122.937 634.128 122.136 632.363C121.336 630.599 119.895 629.957 119.735 630.278C119.574 630.599 120.535 631.401 121.175 632.845C121.816 634.128 121.816 635.412 122.136 635.572Z" fill="#263238"/>
<path d="M133.343 617.443C133.503 617.764 134.944 617.282 136.705 617.443C138.466 617.603 139.747 618.084 139.907 617.924C140.067 617.764 138.787 616.48 136.705 616.32C134.624 616.159 133.183 617.122 133.343 617.443Z" fill="#263238"/>
<path d="M133.343 610.705C133.343 610.866 134.624 611.026 136.545 610.705C137.506 610.545 138.627 610.224 139.907 609.743C140.548 609.422 141.188 609.101 141.668 608.78C141.989 608.62 142.309 608.459 142.629 607.978C142.949 607.657 143.109 606.855 142.789 606.373C142.469 605.892 141.829 605.732 141.508 605.571C141.028 605.571 140.708 605.571 140.388 605.732C139.747 605.892 138.947 606.053 138.466 606.373C137.186 606.855 136.225 607.657 135.585 608.299C134.144 609.582 133.503 610.866 133.663 610.866C133.824 611.026 134.464 610.064 136.065 608.941C136.865 608.459 137.826 607.817 138.947 607.336C139.587 607.176 140.067 606.855 140.708 606.855C141.348 606.694 141.989 606.694 142.149 607.015C142.149 607.176 142.149 607.176 142.149 607.336C141.989 607.497 141.668 607.657 141.508 607.817C140.868 608.138 140.388 608.459 139.747 608.78C138.627 609.261 137.506 609.743 136.705 609.903C134.464 610.545 133.343 610.545 133.343 610.705Z" fill="#263238"/>
<path d="M133.824 611.186C133.984 611.186 134.624 610.063 134.624 608.137C134.624 607.175 134.624 605.891 134.304 604.608C134.144 603.966 133.824 603.324 133.504 602.682C133.183 602.041 132.703 601.239 131.422 601.078C130.782 601.078 130.302 601.559 130.141 601.88C129.981 602.362 129.821 602.682 129.821 603.003C129.661 603.806 129.661 604.447 129.821 605.089C129.981 606.373 130.622 607.656 131.102 608.458C132.383 610.063 133.664 610.544 133.664 610.383C133.824 610.223 132.703 609.581 131.742 607.977C131.262 607.175 130.942 606.212 130.782 604.929C130.782 604.287 130.782 603.645 130.942 603.164C131.102 602.522 131.262 601.88 131.582 602.041C131.903 602.041 132.383 602.522 132.703 603.164C133.023 603.806 133.343 604.287 133.504 604.929C133.824 606.052 133.984 607.175 134.144 608.137C133.984 610.063 133.504 611.186 133.824 611.186Z" fill="#263238"/>
<path d="M248.615 593.698L247.335 626.587C247.335 626.587 280.155 638.941 280.636 644.877L217.076 644.716L216.916 593.537L248.615 593.698Z" fill="#963EEE"/>
<g opacity="0.6">
<g opacity="0.6">
<g opacity="0.6">
<path opacity="0.6" d="M227.803 623.699C226.522 624.02 225.722 625.464 226.042 626.587C226.362 627.87 227.803 628.673 228.924 628.352C230.204 628.031 231.165 626.426 230.845 625.143C230.365 623.86 228.764 623.057 227.643 623.539" fill="white"/>
</g>
</g>
</g>
<g opacity="0.6">
<g opacity="0.6">
<path opacity="0.6" d="M217.075 644.717L217.235 639.583L278.074 641.669C278.074 641.669 280.955 642.952 280.635 644.877L217.075 644.717Z" fill="white"/>
</g>
</g>
<path d="M248.456 626.266C248.456 626.587 246.855 626.747 245.414 627.71C243.813 628.673 243.012 629.956 242.852 629.956C242.532 629.956 243.012 628.031 244.934 626.908C246.695 625.464 248.456 625.945 248.456 626.266Z" fill="#263238"/>
<path d="M255.18 628.994C255.18 629.315 253.899 629.796 252.778 631.08C251.658 632.363 251.337 633.807 251.177 633.807C250.857 633.807 250.697 632.042 251.978 630.438C253.259 628.834 255.18 628.673 255.18 628.994Z" fill="#263238"/>
<path d="M258.862 637.016C258.542 637.016 258.222 635.572 259.022 633.807C259.823 632.042 261.264 631.4 261.424 631.721C261.584 632.042 260.623 632.844 259.983 634.288C259.343 635.572 259.183 637.016 258.862 637.016Z" fill="#263238"/>
<path d="M247.975 618.726C247.815 619.047 246.374 618.566 244.613 618.726C242.852 618.887 241.411 619.368 241.251 619.208C241.091 619.047 242.372 617.764 244.453 617.764C246.535 617.443 248.136 618.406 247.975 618.726Z" fill="#263238"/>
<path d="M247.975 611.988C247.975 612.149 246.694 612.309 244.773 611.988C243.812 611.828 242.692 611.507 241.411 611.026C240.77 610.705 240.13 610.384 239.65 610.063C239.33 609.903 239.009 609.742 238.689 609.261C238.369 608.94 238.209 608.138 238.529 607.656C238.849 607.175 239.49 607.015 239.97 607.015C240.45 607.015 240.77 607.175 241.091 607.175C241.731 607.336 242.532 607.656 243.012 607.817C244.293 608.298 245.253 609.1 245.894 609.742C247.335 611.186 247.815 612.309 247.815 612.309C247.655 612.47 247.014 611.507 245.413 610.384C244.613 609.742 243.652 609.261 242.532 608.779C241.891 608.619 241.411 608.298 240.77 608.138C240.13 607.977 239.49 607.977 239.33 608.298C239.33 608.459 239.33 608.459 239.33 608.619C239.49 608.779 239.81 608.94 239.97 609.1C240.61 609.421 241.091 609.742 241.571 610.063C242.692 610.544 243.812 611.026 244.613 611.186C246.854 611.828 247.975 611.828 247.975 611.988Z" fill="#263238"/>
<path d="M247.655 612.469C247.495 612.469 246.854 611.346 246.854 609.421C246.854 608.458 246.854 607.174 247.335 605.891C247.495 605.249 247.815 604.607 248.135 603.966C248.455 603.324 248.936 602.522 250.217 602.361C250.857 602.361 251.337 602.843 251.497 603.324C251.657 603.805 251.818 604.126 251.818 604.447C251.978 605.249 251.978 605.891 251.818 606.533C251.658 607.816 251.017 608.939 250.377 609.902C249.096 611.506 247.815 611.988 247.815 611.827C247.655 611.667 248.776 611.025 249.736 609.421C250.217 608.618 250.697 607.656 250.697 606.372C250.697 605.73 250.697 605.089 250.697 604.607C250.537 603.966 250.377 603.324 250.057 603.484C249.736 603.484 249.256 603.966 248.936 604.607C248.616 605.249 248.295 605.73 248.135 606.372C247.655 607.495 247.495 608.618 247.495 609.581C247.495 611.346 247.815 612.469 247.655 612.469Z" fill="#263238"/>
<path d="M211.152 276.996L259.182 622.897L212.593 622.095L160.88 332.186L172.247 623.379L121.175 620.33L103.084 274.91L211.152 276.996Z" fill="#263238"/>
<path d="M137.666 116.719L137.025 97.3066C137.025 97.3066 140.868 114.955 160.88 114.794C180.092 114.634 179.772 99.2319 179.772 99.2319L180.413 107.093V138.539L167.925 189.879L151.915 191.964L134.304 121.853L137.666 116.719Z" fill="#963EEE"/>
<path d="M178.011 110.623C178.011 110.623 178.011 110.783 177.851 111.104C177.691 111.425 177.531 111.746 177.051 112.227C176.41 113.189 175.13 114.473 173.529 115.756C171.767 117.04 169.526 118.163 166.804 118.965C164.083 119.767 161.041 119.928 157.839 119.607C154.637 119.126 151.755 118.163 149.193 117.04C146.632 115.917 144.55 114.473 142.949 113.189C141.188 111.906 139.907 110.783 139.107 109.981C138.627 109.66 138.306 109.179 138.146 109.018C137.986 108.858 137.826 108.697 137.826 108.697C137.826 108.697 137.986 108.858 138.146 109.018C138.467 109.179 138.787 109.499 139.107 109.981C140.068 110.783 141.348 111.906 142.949 113.029C144.71 114.313 146.792 115.596 149.193 116.719C151.755 117.842 154.637 118.805 157.679 119.286C160.881 119.607 163.923 119.447 166.484 118.644C169.206 118.003 171.447 116.88 173.048 115.596C174.809 114.473 175.93 113.189 176.731 112.227C177.531 111.104 177.851 110.623 178.011 110.623Z" fill="#263238"/>
<path d="M165.043 375.985L165.364 292.879L165.043 184.424L137.826 117.843L137.026 97.7881L121.336 109.66C121.336 109.66 98.4415 188.916 97.9612 186.028C97.641 183.301 103.565 256.299 103.565 256.299L94.439 379.515L165.043 375.985Z" fill="#EBEBEB"/>
<path d="M186.817 106.292C182.174 98.1094 179.773 99.072 179.773 99.072L180.093 101.96V108.056L177.851 134.047L163.122 182.82L165.363 290.954L170.807 376.467L238.85 370.852L215.155 253.091L223.64 171.75L223.16 126.988L186.817 106.292Z" fill="#EBEBEB"/>
<path d="M148.073 284.857C148.073 284.857 147.753 285.499 147.112 286.462C146.472 287.424 145.351 288.868 143.75 290.472C140.708 293.681 135.585 297.532 129.021 299.457C122.457 301.543 116.213 301.382 111.89 300.58C109.649 300.099 108.048 299.617 106.767 299.136C105.646 298.655 105.006 298.334 105.006 298.334C105.006 298.173 107.567 299.296 111.89 299.938C116.213 300.58 122.457 300.74 128.701 298.655C135.105 296.569 140.068 293.039 143.27 289.991C146.472 287.103 147.913 284.697 148.073 284.857Z" fill="#263238"/>
<path d="M133.984 300.419C133.823 299.296 133.503 298.173 133.183 297.211L140.388 293.039C140.388 293.039 134.624 288.707 126.459 289.189C121.976 289.51 117.333 291.916 114.131 294.002C113.17 294.483 112.37 294.964 111.73 295.606C111.569 295.767 111.249 295.927 111.089 296.087C110.769 296.408 110.449 296.729 110.129 297.05C108.688 298.815 108.047 301.061 107.567 303.307C106.766 308.12 106.606 313.094 107.247 317.907C107.567 319.832 108.207 321.918 109.968 322.399C111.089 322.56 112.05 321.918 112.85 321.116C112.85 323.201 113.17 325.287 113.491 327.373C113.811 328.977 114.611 330.902 116.212 330.902C117.813 330.902 118.774 328.977 119.094 327.212C119.735 323.683 119.895 320.153 119.574 316.623C120.535 318.388 120.055 320.474 120.375 322.56C120.695 324.485 122.136 326.731 124.217 326.41C126.139 326.089 126.779 323.522 126.939 321.597C127.419 316.463 128.06 311.329 128.54 306.195C129.661 307.96 129.501 310.045 130.301 311.971C131.102 313.896 133.663 315.34 135.104 313.896C136.065 312.933 135.905 311.489 135.745 310.206C135.264 306.676 134.624 303.628 133.984 300.419Z" fill="#963EEE"/>
<path d="M138.627 342.775C138.627 342.775 138.146 343.416 137.186 344.379C136.225 345.342 134.624 346.625 132.543 348.069C130.462 349.353 127.58 350.797 124.378 351.438C121.016 352.08 117.173 351.759 113.651 350.155C110.129 348.39 107.727 345.181 106.447 342.133C105.166 338.924 104.846 335.876 104.685 333.469C104.525 330.902 104.685 328.977 104.846 327.533C105.006 326.089 105.006 325.287 105.166 325.287C105.326 325.287 105.166 328.335 105.486 333.309C105.646 335.716 106.126 338.764 107.407 341.812C108.688 344.86 110.929 347.748 114.291 349.353C117.654 350.957 121.336 351.278 124.538 350.636C127.74 350.155 130.462 348.871 132.543 347.588C136.385 345.021 138.627 342.775 138.627 342.775Z" fill="#263238"/>
<path d="M215.475 285.82C215.475 285.82 215.154 286.141 214.514 286.622C213.874 287.104 212.753 287.585 211.472 288.227C208.75 289.35 204.748 290.473 200.265 290.633C195.782 290.794 191.78 289.831 189.058 288.708C187.617 288.227 186.657 287.585 185.856 287.264C185.216 286.783 184.735 286.622 184.735 286.462C184.735 286.302 186.336 287.264 189.058 288.066C191.78 289.029 195.782 289.831 200.105 289.831C204.428 289.671 208.43 288.708 211.152 287.746C213.874 286.622 215.315 285.66 215.475 285.82Z" fill="#263238"/>
<path d="M165.363 297.853C165.363 297.853 165.363 297.372 165.203 296.73C165.203 295.928 165.203 294.805 165.203 293.361C165.203 290.313 165.043 285.981 165.043 280.847C164.883 270.258 164.723 255.658 164.403 239.615C164.082 223.571 163.922 208.971 163.762 198.222C163.762 192.928 163.602 188.756 163.602 185.708C163.602 184.264 163.602 183.141 163.602 182.339C163.602 181.537 163.602 181.216 163.602 181.216C163.602 181.216 163.602 181.697 163.762 182.339C163.762 183.141 163.922 184.264 163.922 185.708C164.082 188.756 164.242 193.088 164.403 198.222C164.723 208.811 165.043 223.411 165.363 239.615C165.683 255.819 165.843 270.419 165.843 281.007C165.843 286.302 165.843 290.634 165.683 293.521C165.683 294.965 165.683 296.088 165.523 296.891C165.363 297.372 165.363 297.853 165.363 297.853Z" fill="#263238"/>
<path d="M121.496 122.655L124.698 125.222L122.456 139.982L160.24 179.61L125.818 134.367L128.86 122.655H121.496Z" fill="#E0E0E0"/>
<path d="M165.364 229.025L107.407 212.018L105.486 167.898L121.336 109.82C121.336 109.82 83.3922 128.752 80.8306 140.785C78.269 152.817 72.025 182.177 71.3846 203.355C70.7442 222.286 70.7442 234.961 75.0669 241.058C82.2715 251.165 113.331 257.743 144.39 256.299C166.164 255.176 187.938 249.4 201.386 241.058" fill="#EBEBEB"/>
<path d="M160.881 180.573C160.881 180.573 160.881 180.573 160.721 180.413C160.561 180.252 160.4 180.092 160.24 179.771C159.76 179.129 159.12 178.327 158.319 177.204C156.558 174.958 154.157 171.749 151.115 167.899C145.031 160.037 136.706 148.967 127.58 136.934C126.939 136.132 126.459 135.33 125.819 134.528V134.367C126.779 130.356 127.74 126.346 128.701 122.655L128.861 122.976C126.299 122.976 123.898 122.976 121.496 122.976H121.336V122.816C121.336 118.003 121.336 113.671 121.336 109.821C126.139 106.131 129.981 103.243 132.703 101.157C133.984 100.194 135.105 99.3922 135.905 98.7504C136.225 98.4296 136.545 98.2691 136.706 98.1087C136.866 97.9482 137.026 97.9482 137.026 97.9482C137.026 97.9482 136.866 98.1087 136.706 98.1087C136.545 98.2691 136.225 98.4296 135.905 98.7504C135.105 99.3922 134.144 100.194 132.863 101.157C130.141 103.243 126.299 106.291 121.496 109.981V109.821C121.496 113.671 121.496 118.163 121.496 122.816L121.336 122.655C123.737 122.655 126.139 122.655 128.701 122.655H129.021V122.976C128.06 126.666 127.1 130.677 126.139 134.688V134.528C126.779 135.33 127.26 136.132 127.9 136.934C137.026 148.967 145.351 160.037 151.435 167.899C154.477 171.91 156.878 175.118 158.479 177.364C159.28 178.487 159.92 179.29 160.4 179.931C160.561 180.252 160.721 180.413 160.881 180.573C160.881 180.573 160.881 180.413 160.881 180.573Z" fill="#263238"/>
<path d="M223.16 126.988C223.16 126.988 236.929 137.096 238.049 153.46C239.01 166.777 241.251 203.196 241.572 211.057C242.212 223.411 232.606 252.289 207.63 244.107C192.741 239.133 137.346 220.362 137.346 220.362L141.029 196.778L206.67 200.629L208.111 145.92L223.16 126.988Z" fill="#EBEBEB"/>
<path d="M140.388 199.505C140.388 199.505 121.816 197.419 117.494 198.542C113.331 199.505 107.407 204.639 107.407 204.639L107.567 212.019L137.506 220.361L140.388 199.505Z" fill="#FFBE9D"/>
<path d="M163.763 182.017C163.763 182.017 163.763 181.856 163.923 181.696C163.923 181.535 164.083 181.214 164.243 180.894C164.563 180.252 164.883 179.289 165.364 178.166C166.324 175.76 167.765 172.23 169.526 167.898C171.287 163.566 173.369 158.432 175.77 152.817C176.411 151.373 176.891 149.929 177.691 148.485C178.332 147.041 179.292 145.598 180.093 144.154C181.854 141.266 183.775 138.378 186.017 135.65C187.137 134.207 188.098 132.923 189.219 131.64V131.8C188.418 129.714 187.618 127.789 186.977 125.864V125.703H187.137C190.499 124.58 193.701 123.457 196.743 122.334L196.583 122.655C192.1 115.115 188.258 108.858 185.536 104.365C184.256 102.119 183.135 100.354 181.854 99.5522C181.214 99.2313 180.733 99.0709 180.413 98.9104C180.093 98.75 179.933 98.75 179.933 98.75C179.933 98.75 180.093 98.75 180.413 98.75C180.733 98.75 181.374 98.9104 181.854 99.2313C182.494 99.5522 183.135 100.194 183.775 100.996C184.416 101.798 185.056 102.761 185.696 103.884C188.418 108.376 192.261 114.633 196.743 122.174L196.904 122.334H196.743C193.701 123.457 190.499 124.42 187.137 125.703L187.297 125.382C188.098 127.308 188.898 129.233 189.539 131.319V131.479L189.379 131.64C188.258 132.923 187.137 134.207 186.177 135.65C183.935 138.378 182.014 141.266 180.253 144.154C179.453 145.598 178.652 147.041 177.852 148.485C177.051 149.929 176.571 151.373 175.93 152.817C173.529 158.432 171.448 163.566 169.686 167.898C167.925 172.23 166.484 175.599 165.364 178.006C164.883 179.129 164.403 180.091 164.243 180.733C164.083 181.054 164.083 181.214 163.923 181.375C163.763 182.017 163.763 182.017 163.763 182.017Z" fill="#263238"/>
<path d="M230.684 239.454C230.684 239.454 230.684 239.614 230.524 239.775C230.364 239.935 230.044 240.096 229.884 240.416C229.244 241.058 228.283 241.86 226.842 242.663C225.401 243.465 223.64 244.427 221.399 244.909C219.157 245.55 216.435 245.711 213.554 245.39C212.113 245.23 210.512 244.909 209.071 244.427C207.47 243.946 206.029 243.304 204.428 242.823C201.226 241.7 197.704 240.416 194.021 239.133C186.657 236.566 178.652 233.839 170.166 230.951C153.196 225.335 137.666 220.683 126.459 217.314C120.855 215.709 116.373 214.265 113.171 213.303C111.57 212.821 110.449 212.5 109.488 212.18C109.168 212.019 108.848 212.019 108.528 211.859C108.368 211.859 108.208 211.698 108.208 211.698C108.208 211.698 108.368 211.698 108.528 211.698C108.688 211.698 109.008 211.859 109.488 212.019C110.289 212.18 111.57 212.661 113.171 212.982C116.373 213.944 120.855 215.228 126.459 216.832C137.666 220.201 153.196 224.854 170.327 230.469C178.812 233.197 186.977 236.085 194.182 238.652C197.864 239.935 201.386 241.219 204.588 242.342C206.189 242.983 207.79 243.465 209.231 244.106C210.672 244.588 212.273 244.909 213.714 245.069C216.596 245.39 219.317 245.23 221.559 244.588C223.8 244.106 225.721 243.144 227.002 242.342C228.443 241.539 229.404 240.737 230.044 240.096C230.364 239.775 230.524 239.614 230.845 239.454C230.524 239.614 230.684 239.454 230.684 239.454Z" fill="#263238"/>
<path d="M107.567 212.179C107.567 212.34 106.446 212.019 104.845 212.179C104.045 212.179 103.084 212.34 101.964 212.66C100.843 212.981 99.8824 213.463 98.7617 214.104C96.6804 215.548 95.0794 217.313 94.2789 218.757C93.3182 220.201 92.998 221.164 92.998 221.164C92.998 221.164 92.998 220.843 93.1581 220.522C93.3182 220.041 93.6384 219.399 93.9587 218.757C94.7592 217.313 96.2001 215.388 98.4415 213.944C99.5622 213.302 100.683 212.821 101.804 212.5C102.924 212.179 103.885 212.179 104.845 212.179C105.646 212.179 106.446 212.179 106.927 212.34C107.407 212.019 107.567 212.179 107.567 212.179Z" fill="#263238"/>
<path d="M89.3154 206.403C89.3154 206.403 89.3154 206.403 89.3154 206.243C89.3154 206.083 89.4755 205.922 89.6356 205.762C89.9558 205.28 90.7563 204.959 91.7169 204.799C92.6775 204.639 93.7982 204.639 95.0791 204.799C96.3599 204.959 97.8008 205.28 99.0816 205.762C101.803 206.724 104.045 208.329 105.486 209.612C106.126 210.254 106.606 210.896 106.926 211.377C107.247 211.858 107.407 212.019 107.407 212.019C107.407 212.019 106.766 211.056 105.325 209.773C103.885 208.489 101.643 207.045 98.9215 206.083C97.4806 205.601 96.1998 205.28 94.9189 205.12C93.6381 204.959 92.5174 204.799 91.5568 204.959C90.5962 205.12 89.9558 205.441 89.6356 205.762C89.4755 206.083 89.3154 206.403 89.3154 206.403Z" fill="#263238"/>
<path d="M110.929 155.706C110.929 155.706 110.769 155.225 110.609 154.583C110.449 154.262 110.289 153.781 110.129 153.3C109.809 152.818 109.649 152.176 109.328 151.535C108.688 150.251 107.567 148.968 106.446 147.524C105.166 146.24 103.725 144.796 101.964 143.513C98.4415 140.946 94.7592 139.502 92.0374 139.021C90.5965 138.7 89.4758 138.539 88.6753 138.539C87.8748 138.539 87.3945 138.539 87.3945 138.379C87.3945 138.379 87.8748 138.379 88.6753 138.379C89.4758 138.379 90.5965 138.539 92.0374 138.7C94.7592 139.181 98.6016 140.625 102.124 143.192C103.885 144.475 105.326 145.919 106.767 147.203C108.048 148.647 109.008 149.93 109.649 151.214C109.969 151.856 110.289 152.497 110.449 152.979C110.609 153.46 110.769 153.941 110.929 154.423C110.929 155.225 111.089 155.706 110.929 155.706Z" fill="#263238"/>
<path d="M221.078 223.089C221.078 223.089 221.078 222.929 221.078 222.768C221.078 222.608 221.078 222.287 221.078 221.966C221.078 221.164 221.078 220.201 220.918 218.757C220.758 216.03 220.278 212.019 218.517 207.366C218.037 206.243 217.716 204.96 216.916 203.837C216.275 202.714 215.155 201.751 213.874 201.27C211.312 200.147 208.11 200.307 204.908 200.147C198.344 199.826 191.3 199.505 183.775 199.184C166.324 198.382 150.794 197.74 141.028 197.259L141.188 197.098C140.548 200.628 140.068 203.516 139.747 205.441C139.587 206.404 139.427 207.206 139.427 207.687C139.427 207.847 139.427 208.168 139.267 208.329C139.267 208.489 139.267 208.489 139.267 208.489C139.267 208.489 139.267 208.489 139.267 208.329C139.267 208.168 139.267 208.008 139.267 207.687C139.267 207.206 139.427 206.404 139.587 205.441C139.907 203.516 140.388 200.628 140.868 196.938V196.777H141.028C150.794 197.259 166.324 197.9 183.775 198.542C191.3 198.863 198.344 199.184 204.908 199.505C206.509 199.665 208.11 199.665 209.711 199.826C211.312 199.986 212.753 200.147 214.194 200.788C215.475 201.43 216.596 202.393 217.396 203.516C218.197 204.639 218.517 205.922 218.997 207.045C220.598 211.698 221.078 215.709 221.239 218.436C221.399 219.88 221.399 220.843 221.239 221.645C221.239 221.966 221.239 222.287 221.239 222.447C221.078 223.089 221.078 223.089 221.078 223.089Z" fill="#263238"/>
<path d="M208.591 171.749C208.751 171.749 208.751 178.166 208.751 186.028C208.751 193.889 208.591 200.307 208.591 200.307C208.431 200.307 208.431 193.889 208.431 186.028C208.27 178.006 208.431 171.749 208.591 171.749Z" fill="#263238"/>
<path d="M81.4708 139.341C81.4708 139.341 81.4708 139.501 81.3107 139.822C81.1506 140.143 80.9905 140.624 80.8304 141.426C80.5102 142.87 80.0299 144.796 79.3895 147.523C78.2688 152.817 76.988 160.679 75.387 170.305C74.5865 175.118 73.786 180.573 72.9855 186.349C72.5052 189.237 72.3451 192.285 72.185 195.333C72.0249 198.382 71.8648 201.751 71.7047 204.959C71.5446 211.537 71.3845 218.597 71.5446 225.977C71.5446 227.741 71.7047 229.667 71.8648 231.431C71.8648 232.394 72.0249 233.357 72.185 234.159C72.3451 235.122 72.5052 235.924 72.8254 236.886C73.4658 238.651 74.2663 240.416 75.387 241.86C76.5077 243.304 78.1087 244.587 79.8698 245.389C83.5521 247.315 87.5546 248.598 91.5571 249.882C95.5596 251.165 99.8824 252.128 104.045 252.93C113.651 254.855 123.097 255.978 132.223 256.299C136.866 256.46 141.348 256.299 145.671 255.978C149.994 255.657 154.317 255.176 158.479 254.534C166.804 253.411 174.489 251.486 181.374 249.24C188.418 246.994 194.502 244.106 199.945 241.218V241.539C189.058 237.689 180.413 234.64 174.489 232.555C171.447 231.431 169.206 230.629 167.605 230.148C166.804 229.827 166.164 229.667 165.844 229.506C165.524 229.346 165.203 229.346 165.203 229.346C165.203 229.346 165.363 229.346 165.844 229.506C166.324 229.667 166.804 229.827 167.605 230.148C169.206 230.629 171.447 231.431 174.489 232.555C180.413 234.64 189.218 237.689 199.945 241.539L200.265 241.699L199.945 241.86C194.502 244.748 188.258 247.636 181.374 249.882C174.329 252.288 166.644 254.053 158.319 255.337C154.156 255.978 149.834 256.46 145.511 256.78C141.188 257.101 136.545 257.262 132.063 257.101C122.937 256.78 113.331 255.657 103.725 253.732C99.402 252.77 95.2394 251.807 91.0768 250.684C87.0743 249.4 83.0718 248.117 79.3895 246.192C77.4683 245.389 76.0274 244.106 74.7466 242.662C73.4658 241.058 72.6653 239.293 72.0249 237.528C71.7047 236.565 71.5446 235.603 71.3845 234.801C71.2244 233.838 71.0643 232.875 71.0643 231.913C70.9042 229.988 70.9042 228.223 70.7441 226.298C70.5839 218.917 70.7441 212.019 70.9042 205.28C71.0643 201.911 71.2244 198.702 71.3845 195.654C71.5446 192.606 71.8648 189.557 72.3451 186.67C73.1456 180.894 73.9461 175.439 74.7466 170.626C76.3476 160.839 77.6284 153.138 78.9092 147.844C79.8698 144.796 80.3501 142.71 80.6703 141.266C80.8304 140.624 80.9905 140.143 81.1506 139.662C81.3107 139.501 81.4708 139.341 81.4708 139.341Z" fill="#263238"/>
<path d="M107.567 206.724C117.333 195.975 116.853 176.883 111.249 163.246C110.769 178.006 109.008 191.002 107.727 205.28" fill="#E0E0E0"/>
<path d="M111.25 165.974C111.25 165.974 111.25 166.134 111.25 166.455C111.25 166.776 111.25 167.257 111.09 167.738C110.93 169.022 110.93 170.626 110.769 172.712C110.449 176.883 109.969 182.659 109.489 188.916C109.008 195.173 108.528 200.949 108.208 205.12C108.048 207.206 107.888 208.81 107.888 210.094C107.888 210.575 107.728 211.056 107.728 211.377C107.728 211.698 107.728 211.859 107.728 211.859C107.728 211.859 107.728 211.698 107.728 211.377C107.728 211.056 107.728 210.575 107.728 210.094C107.728 208.971 107.888 207.206 108.048 205.12C108.208 200.949 108.688 195.173 109.168 188.756C109.649 182.338 110.289 176.723 110.609 172.552C110.769 170.466 110.93 168.861 111.09 167.578C111.09 167.097 111.25 166.615 111.25 166.295C111.25 166.134 111.25 165.974 111.25 165.974Z" fill="#263238"/>
<path d="M135.104 146.562C135.265 146.562 135.265 150.252 135.265 154.904C135.265 159.557 135.104 163.247 135.104 163.247C134.944 163.247 134.944 159.557 134.944 154.904C134.944 150.252 135.104 146.562 135.104 146.562Z" fill="#263238"/>
<path d="M128.86 174.318C129.02 176.083 129.661 177.527 130.621 178.81C131.582 179.933 133.343 181.217 134.944 181.056C134.944 181.056 138.626 181.377 140.708 178.168C142.469 175.28 142.949 169.184 141.508 165.654C140.548 163.248 138.306 161.002 135.585 160.841C132.062 160.681 129.981 163.248 129.181 165.815" fill="#E0E0E0"/>
<path d="M129.181 165.814C129.181 165.814 129.181 165.172 129.821 164.049C130.142 163.568 130.462 162.926 131.102 162.284C131.743 161.643 132.543 161.161 133.504 160.84C133.984 160.68 134.624 160.52 135.105 160.52C135.745 160.52 136.386 160.52 136.866 160.68C138.147 161.001 139.267 161.963 140.068 162.926C141.028 164.049 141.669 165.333 141.989 166.937C142.309 168.381 142.469 169.985 142.309 171.59C142.149 173.996 141.669 176.563 140.228 178.328C139.588 179.291 138.627 179.932 137.666 180.253C136.706 180.574 135.745 180.735 134.785 180.735C133.984 180.735 133.344 180.574 132.703 180.253C132.063 179.932 131.583 179.611 131.102 179.13C130.142 178.328 129.661 177.365 129.341 176.563C129.021 175.761 128.861 175.119 128.861 174.638C128.861 174.478 128.861 174.157 128.861 174.157C128.861 173.996 128.861 173.996 128.861 173.996C128.861 173.996 128.861 174.959 129.661 176.563C129.982 177.365 130.622 178.168 131.422 178.97C131.903 179.291 132.383 179.772 133.023 179.932C133.664 180.253 134.304 180.414 134.945 180.414C136.706 180.414 138.947 179.772 140.228 178.007C141.509 176.242 141.989 173.836 142.149 171.429C142.309 168.381 141.829 165.172 140.068 163.087C139.267 161.963 138.147 161.161 137.026 160.84C136.386 160.68 135.905 160.52 135.265 160.52C134.785 160.52 134.144 160.68 133.664 160.68C132.703 161.001 131.903 161.482 131.262 161.963C130.622 162.445 130.302 163.087 129.982 163.568C129.341 165.172 129.181 165.814 129.181 165.814Z" fill="#263238"/>
<path d="M126.939 174.476C127.1 176.241 127.74 177.685 128.701 178.968C129.661 180.091 131.422 181.375 133.023 181.214C133.023 181.214 136.706 181.535 138.787 178.326C140.548 175.439 141.028 169.342 139.587 165.812C138.627 163.406 136.385 161.16 133.664 160.999C130.141 160.839 128.06 163.406 127.26 165.973" fill="#E0E0E0"/>
<path d="M127.26 165.974C127.26 165.974 127.26 165.332 127.901 164.209C128.221 163.728 128.541 163.086 129.181 162.445C129.822 161.803 130.622 161.321 131.583 161.001C132.063 160.84 132.704 160.68 133.184 160.68C133.824 160.68 134.465 160.68 134.945 160.84C136.226 161.161 137.346 162.124 138.147 163.086C139.108 164.209 139.748 165.493 140.068 167.097C140.388 168.541 140.548 170.145 140.388 171.75C140.228 174.156 139.748 176.723 138.307 178.488C137.667 179.451 136.706 180.093 135.745 180.413C134.785 180.734 133.824 180.895 132.864 180.895C132.063 180.895 131.423 180.734 130.782 180.413C130.142 180.093 129.662 179.772 129.181 179.29C128.221 178.488 127.74 177.526 127.42 176.723C127.1 175.921 126.94 175.279 126.94 174.798C126.94 174.638 126.94 174.317 126.94 174.317C126.94 174.156 126.94 174.156 126.94 174.156C126.94 174.156 126.94 175.119 127.74 176.723C128.061 177.526 128.701 178.328 129.502 179.13C129.982 179.451 130.462 179.932 131.103 180.093C131.743 180.413 132.383 180.574 133.024 180.574C134.785 180.574 137.026 179.932 138.307 178.167C139.588 176.402 140.068 173.996 140.228 171.589C140.388 168.541 139.908 165.332 138.147 163.247C137.346 162.124 136.226 161.321 135.105 161.001C134.465 160.84 133.984 160.68 133.344 160.68C132.864 160.68 132.223 160.84 131.743 160.84C130.782 161.161 129.982 161.642 129.341 162.124C128.701 162.605 128.381 163.247 128.061 163.728C127.42 165.332 127.42 165.974 127.26 165.974Z" fill="#263238"/>
<path d="M130.302 165.011C128.541 164.69 126.78 165.813 126.139 167.417C125.339 169.022 125.499 170.947 126.139 172.551C126.459 173.354 126.78 174.156 127.42 174.798C128.06 175.439 128.861 175.921 129.821 175.921C131.102 175.921 132.383 175.118 133.023 173.995C134.304 172.231 134.624 169.984 134.144 167.899C133.824 166.455 132.703 165.171 131.422 165.011" fill="#E0E0E0"/>
<path d="M131.422 165.332C131.422 165.332 131.583 165.332 131.743 165.332C131.903 165.332 132.223 165.492 132.543 165.652C133.184 165.973 133.984 166.936 134.304 168.38C134.624 169.663 134.624 171.428 133.824 173.193C133.504 173.995 132.863 174.797 132.063 175.439C131.262 176.081 130.142 176.562 129.021 176.241C127.9 175.92 127.1 175.118 126.619 174.316C126.139 173.353 125.819 172.551 125.659 171.589C125.339 169.824 125.659 167.899 126.459 166.776C127.26 165.652 128.381 165.171 129.181 165.011C129.501 165.011 129.821 165.011 130.142 165.011C130.302 165.011 130.462 165.011 130.462 165.171C130.462 165.171 129.982 165.011 129.341 165.171C128.541 165.332 127.58 165.813 126.78 166.936C125.979 168.059 125.819 169.663 126.139 171.428C126.299 172.23 126.619 173.193 127.1 173.995C127.58 174.797 128.381 175.6 129.341 175.76C130.302 176.081 131.262 175.76 132.063 175.118C132.863 174.477 133.344 173.674 133.664 173.033C134.464 171.428 134.464 169.663 134.144 168.38C133.824 167.096 133.184 166.134 132.543 165.813C131.743 165.332 131.422 165.332 131.422 165.332Z" fill="#263238"/>
<path d="M134.304 178.007C134.304 178.007 134.144 177.686 133.824 177.365C133.504 177.044 133.023 176.723 132.543 176.563C131.903 176.402 131.262 176.402 130.942 176.242C130.462 176.242 130.302 176.242 130.302 176.081C130.302 176.081 130.622 175.921 130.942 175.921C131.422 175.921 132.063 175.921 132.703 176.081C133.344 176.242 133.984 176.723 134.144 177.204C134.304 177.686 134.304 178.007 134.304 178.007Z" fill="#263238"/>
<path d="M134.945 163.888C134.945 163.888 134.785 164.209 134.464 164.529C134.144 164.85 133.504 165.171 132.863 165.332C132.223 165.492 131.423 165.332 131.102 165.171C130.622 165.011 130.462 164.85 130.462 164.85C130.462 164.69 131.583 165.171 132.863 164.85C133.984 164.69 134.785 163.888 134.945 163.888Z" fill="#263238"/>
<path d="M189.059 107.413C189.059 107.413 189.219 107.413 189.379 107.574C189.539 107.574 189.859 107.734 190.019 107.894C190.66 108.215 191.46 108.697 192.421 109.659C194.342 111.264 196.423 113.991 197.544 117.681C198.665 121.211 199.145 124.58 199.465 126.986C199.625 128.27 199.625 129.232 199.785 129.874C199.785 130.516 199.785 130.997 199.785 130.997C199.785 130.997 199.625 130.676 199.625 129.874C199.465 129.072 199.465 128.109 199.305 126.986C198.985 124.58 198.344 121.211 197.224 117.681C196.263 114.151 194.182 111.424 192.421 109.82C190.339 108.215 189.059 107.413 189.059 107.413Z" fill="#263238"/>
<path d="M179.293 194.37C181.534 194.209 183.456 191.963 185.697 192.123C187.458 192.284 188.899 193.888 188.739 195.493C188.579 197.257 186.818 198.541 185.217 198.38C182.815 198.06 181.374 195.332 179.133 194.69" fill="#263238"/>
<path d="M198.665 196.294C198.025 196.294 197.224 196.294 196.584 196.134L196.744 195.332C199.626 195.813 201.867 195.332 203.788 193.888C206.19 192.123 207.631 189.075 208.271 184.743V184.583C208.431 182.818 208.751 149.126 208.751 142.709C208.751 132.761 199.946 131.318 199.626 131.318C199.305 131.318 191.3 129.874 187.138 140.783C182.655 152.174 175.61 174.315 175.13 176.882C175.13 177.202 174.97 177.523 174.81 178.005C174.009 181.374 172.569 188.273 177.051 192.123C182.175 196.615 186.177 194.85 186.337 194.69L186.657 195.332C186.497 195.492 182.014 197.417 176.571 192.604C171.608 188.273 173.209 181.053 174.009 177.684C174.17 177.202 174.17 176.882 174.17 176.561C174.65 173.994 181.694 151.853 186.177 140.302C190.66 128.751 199.465 130.194 199.626 130.194C199.786 130.194 209.392 131.638 209.392 142.388C209.392 147.682 209.071 182.497 208.751 184.422V184.583C208.111 189.075 206.51 192.444 203.948 194.209C202.507 195.653 200.746 196.294 198.665 196.294Z" fill="#263238"/>
<path d="M209.072 149.127C208.911 149.127 208.911 147.522 207.471 145.116C206.83 143.993 205.709 142.87 204.429 141.747C202.988 140.623 201.387 139.821 199.305 139.34C195.303 138.377 191.621 139.34 189.379 140.623C186.978 141.907 186.017 143.19 185.857 143.19C185.857 143.19 185.857 143.03 186.017 142.87C186.177 142.709 186.337 142.549 186.657 142.228C187.138 141.747 188.098 140.944 189.219 140.303C190.34 139.661 191.941 139.019 193.702 138.698C195.463 138.377 197.384 138.377 199.465 138.859C201.547 139.34 203.308 140.303 204.589 141.426C206.03 142.549 206.99 143.832 207.791 144.955C208.431 146.078 208.911 147.201 209.072 147.843C209.232 148.164 209.232 148.485 209.232 148.645C209.072 149.127 209.072 149.127 209.072 149.127Z" fill="#263238"/>
<path d="M229.244 212.34C229.084 212.34 229.084 211.057 228.123 208.971C227.322 207.046 225.561 204.319 222.84 202.554C221.399 201.591 219.958 201.27 218.517 200.949C217.076 200.789 215.795 200.628 214.675 200.628C213.714 200.628 212.753 200.468 212.113 200.468C211.473 200.468 211.152 200.308 211.152 200.308C211.152 200.308 211.473 200.308 212.113 200.308C212.753 200.308 213.714 200.308 214.675 200.308C215.795 200.308 217.076 200.468 218.517 200.628C219.958 200.789 221.559 201.27 223 202.233C225.882 204.158 227.643 206.886 228.443 208.971C228.924 209.934 229.084 210.896 229.084 211.538C229.244 212.019 229.244 212.34 229.244 212.34Z" fill="#263238"/>
<path d="M189.378 199.184C189.378 199.184 197.063 187.472 199.145 185.868C201.226 184.263 218.036 176.723 219.958 177.846C221.879 179.129 220.758 181.696 220.758 181.696C220.758 181.696 227.963 179.129 228.603 180.252C229.243 181.376 229.564 182.98 228.603 184.263C228.603 184.263 232.606 183.622 232.606 184.905C232.606 186.189 232.125 187.633 230.364 189.077C228.603 190.52 216.596 198.382 215.635 200.628L211.792 200.468L189.378 199.184Z" fill="#FFBE9D"/>
<path d="M211.792 195.815C211.792 195.815 211.953 195.494 212.113 195.013C212.433 194.532 212.753 193.89 213.393 193.248C214.514 191.804 216.595 190.039 218.997 188.435C221.399 186.991 223.96 186.029 225.561 185.226C226.362 184.905 227.162 184.585 227.642 184.424C228.123 184.264 228.443 184.103 228.443 184.264C228.443 184.264 228.123 184.424 227.642 184.585C227.002 184.905 226.362 185.066 225.561 185.387C223.8 186.189 221.399 187.152 218.997 188.596C216.595 190.039 214.674 191.804 213.393 193.248C212.433 194.692 211.792 195.815 211.792 195.815Z" fill="#EFA077"/>
<path d="M201.866 195.494C201.866 195.494 202.026 195.173 202.186 194.692C202.507 194.211 202.827 193.408 203.307 192.446C203.787 191.483 204.588 190.36 205.388 189.237C205.869 188.756 206.349 188.114 206.989 187.633C207.63 187.151 208.27 186.831 209.071 186.349C211.953 184.745 214.674 183.301 216.595 182.499C217.556 182.017 218.517 181.857 218.997 181.697C219.637 181.536 219.958 181.536 219.958 181.536C219.958 181.536 218.677 181.857 216.756 182.82C214.834 183.622 212.113 185.066 209.231 186.67C208.59 187.151 207.79 187.472 207.15 187.954C206.509 188.435 206.029 188.916 205.549 189.398C204.588 190.521 203.948 191.483 203.307 192.446C202.827 193.248 202.347 194.05 202.026 194.692C202.186 195.334 201.866 195.655 201.866 195.494Z" fill="#EFA077"/>
</svg>
