<svg width="663" height="449" viewBox="0 0 663 449" fill="none" xmlns="http://www.w3.org/2000/svg">
<path opacity="0.1" fill-rule="evenodd" clip-rule="evenodd" d="M346.325 0.469233C405.637 -3.90047 461.638 22.9222 507.412 52.8983C551.001 81.4438 571.1 123.287 595.407 163.587C623.898 210.823 673.444 256.256 661.046 307.617C648.288 360.467 592.963 403.9 531.638 427.755C474.876 449.833 409.605 428.086 346.325 430.036C279.217 432.104 209.202 464.657 150.148 439.51C89.8061 413.815 72.145 353.955 48.6287 303.268C24.2057 250.626 -21.9031 191.094 12.0359 141.82C46.4497 91.8576 142.126 102.033 205.773 75.1207C256.817 53.5373 288.62 4.72047 346.325 0.469233Z" fill="#853DCD"/>
<g clip-path="url(#clip0)">
<path d="M416.2 55.3003C417.6 43.5003 430.1 35.0003 441.9 35.9003C453.7 36.9003 463.9 45.9003 468.3 56.9003C470.5 62.3003 471.4 68.5003 469.5 74.0003C467.5 79.8003 462.4 84.1003 456.8 86.6003C446.7 90.9003 434.4 89.4003 425.7 82.8003C417 76.2003 412.3 64.6003 413.8 53.8003" fill="#263238"/>
<path d="M460.2 44.7004C460.3 44.7004 460.1 45.3004 459.8 46.3004C459.5 47.3004 458.9 48.7004 458 50.4004C456.2 53.8004 452.9 58.1004 448 61.4004C443.1 64.7004 437.9 66.2004 434.1 66.7004C432.2 66.9004 430.7 67.0004 429.6 66.9004C428.5 66.8004 428 66.7004 428 66.7004C428 66.5004 430.4 66.6004 434 66.0004C437.7 65.4004 442.7 63.8004 447.4 60.6004C452.1 57.4004 455.4 53.3004 457.3 50.1004C459.3 46.9004 460.1 44.6004 460.2 44.7004Z" fill="#455B64"/>
<path d="M468.1 55.5001C468.2 55.5001 467.8 56.1001 467.2 56.9001C466.6 57.8001 465.6 59.0001 464.3 60.4001C461.7 63.3001 457.8 67.0001 452.5 69.7001C449.9 71.0001 447.2 72.0001 444.7 72.5001C442.2 73.0001 439.9 73.2001 437.9 73.2001C436 73.2001 434.4 73.0001 433.3 72.8001C432.2 72.6001 431.7 72.5001 431.7 72.4001C431.7 72.2001 434.1 72.6001 437.9 72.4001C439.8 72.3001 442 72.1001 444.5 71.5001C446.9 70.9001 449.5 70.0001 452.1 68.7001C457.2 66.1001 461.2 62.5001 463.9 59.9001C466.5 57.2001 468 55.4001 468.1 55.5001Z" fill="#455B64"/>
<path d="M313.9 117.2C273.2 68.2995 325.9 23.6996 361.4 23.9996C394.8 24.2996 412.2 36.0996 423 55.3996C433.8 74.6996 439.7 97.1995 437 119.2C435.7 130 431.2 141.9 421 146" fill="#263238"/>
<path d="M406.8 58.5002L404.6 48.2002L340.2 50.7002C320.7 53.1002 304.5 76.9002 307.7 96.2002C311.3 117.7 316.4 143.8 322.6 159.1C335 189.8 360.3 188.2 360.3 188.2L367.7 219.8L438.3 204.5L406.8 58.5002Z" fill="#FFBE9D"/>
<path d="M321.1 118.4C321.5 120.6 323.7 122 326 121.6C328.3 121.2 329.8 119.1 329.4 117C329 114.8 326.8 113.4 324.5 113.8C322.1 114.2 320.6 116.3 321.1 118.4Z" fill="#263238"/>
<path d="M317 108.5C317.5 108.9 320.7 108.1 325.2 108.7C329.7 109.3 332.8 111 333.3 110.8C333.5 110.7 333.1 110.1 331.7 109.3C330.3 108.5 328 107.6 325.2 107.2C322.4 106.8 320 107 318.6 107.4C317.3 107.9 316.8 108.4 317 108.5Z" fill="#263238"/>
<path d="M362 109.7C362.4 111.9 364.6 113.3 366.9 112.9C369.2 112.5 370.7 110.4 370.3 108.3C369.9 106.1 367.7 104.7 365.4 105.1C363 105.5 361.5 107.6 362 109.7Z" fill="#263238"/>
<path d="M360 103.2C360.6 103.2 362.8 100.7 366.7 98.4999C370.6 96.2999 374.2 95.6999 374.4 95.2999C374.5 95.0999 373.8 94.8999 372.3 95.1999C370.8 95.3999 368.4 96.1999 365.9 97.4999C363.4 98.8999 361.7 100.4 360.7 101.5C359.8 102.6 359.7 103.2 360 103.2Z" fill="#263238"/>
<path d="M352.5 135.3C352.5 135 349.6 135.2 345.1 135.7C344 135.8 342.8 135.9 342.5 135.1C342 134.4 342.2 133 342.5 131.6C342.9 128.6 343.4 125.5 343.8 122.3C345.6 109.1 346.6 98.2999 346.1 98.1999C345.6 98.0999 343.7 108.8 341.9 122C341.5 125.3 341.1 128.4 340.7 131.3C340.6 132.7 340.2 134.3 341.1 135.8C341.6 136.6 342.6 137 343.3 137C344.1 137.1 344.7 136.9 345.3 136.8C349.8 136.2 352.6 135.6 352.5 135.3Z" fill="#263238"/>
<path d="M360.4 188.3C360.4 188.3 383.2 184.4 401.5 166.8C401.5 166.8 395.9 191.6 362.3 196.2L360.4 188.3Z" fill="#EFA077"/>
<path d="M356.8 145.5C357.9 143 360.4 141.3 363.2 140.9C365.2 140.7 367.3 141.1 368.8 142.4C370.3 143.7 371.1 145.8 370.4 147.6C369.6 149.5 367.2 150.5 365 150.4C362.8 150.3 360.6 149.3 358.6 148.3C358 148 357.5 147.7 357 147.3C356.6 146.8 356.4 146.2 356.6 145.7" fill="#EFA077"/>
<path d="M355.9 82.1002C356.6 83.2002 360.9 81.6002 366.2 81.1002C371.5 80.4002 376 81.0002 376.4 79.7002C376.6 79.1002 375.6 78.2002 373.7 77.4002C371.8 76.6002 368.9 76.1002 365.7 76.5002C362.5 76.9002 359.8 78.0002 358.1 79.2002C356.3 80.4002 355.5 81.6002 355.9 82.1002Z" fill="#263238"/>
<path d="M316.3 95.1001C317.3 95.9001 320.1 94.2001 323.7 93.3001C327.3 92.3001 330.6 92.4001 331 91.2001C331.2 90.6001 330.5 89.7001 328.9 89.1001C327.4 88.5001 325 88.2001 322.5 88.9001C320 89.6001 318.1 91.0001 317 92.3001C316 93.6001 315.8 94.7001 316.3 95.1001Z" fill="#263238"/>
<path d="M371 140.6C371.3 141.3 369.5 144.5 366 147.5C362.4 150.5 358.3 152.1 357.7 151.6C357.1 151.2 361.2 148.6 365 145.5C368.8 142.3 370.7 140 371 140.6Z" fill="#263238"/>
<path d="M407.6 98.4002C408 98.1002 421.7 86.9002 426.8 104.8C431.9 122.7 412.9 124.1 412.7 123.6C412.6 123 407.6 98.4002 407.6 98.4002Z" fill="#FFBE9D"/>
<path d="M416.3 115.2C416.4 115.1 416.7 115.3 417.3 115.4C417.9 115.5 418.8 115.4 419.6 114.8C421.3 113.6 422 110.1 421.2 106.9C420.8 105.3 420 103.8 419.1 102.7C418.2 101.5 417.1 100.9 416.1 101C415.1 101.1 414.6 101.8 414.5 102.4C414.4 103 414.6 103.3 414.5 103.3C414.5 103.4 414 103.1 414 102.3C414 101.9 414.1 101.4 414.4 101C414.7 100.5 415.3 100.2 416 100.1C417.4 99.8001 419 100.7 420 101.9C421.1 103.1 422 104.7 422.5 106.6C423.4 110.2 422.5 114.1 420.2 115.6C419 116.3 417.9 116.2 417.2 115.9C416.4 115.6 416.2 115.2 416.3 115.2Z" fill="#EFA077"/>
<path d="M369.7 39.1997C368.9 38.6997 368 38.4997 367.1 38.2997C355.7 36.2997 343.6 37.2997 333 41.9997C322.4 46.6997 313.4 55.1997 308.8 65.7997C304.3 76.4997 300.1 93.0997 305.8 103.2L310.3 110.9C309.2 103.1 310.9 88.2997 314 80.9997C317.1 73.7997 322.8 67.4997 330 64.2997C337.2 61.0997 345.4 61.0997 353.2 59.3997C360.9 57.6997 369.1 53.4997 371.3 45.8997C372 43.5997 371.8 40.5997 369.7 39.1997Z" fill="#263238"/>
<path d="M303.6 94.1996C303.6 94.1996 303.4 93.8996 303 93.2996C302.6 92.6996 302.1 91.7996 301.6 90.5996C300.6 88.0996 299.5 84.2996 299.6 79.3996C299.8 74.5996 301.3 68.7996 304.9 63.4996C308.5 58.1996 314 53.4996 320.7 50.3996C327.4 47.2996 334.4 46.0996 340.8 45.8996C344 45.7996 347 45.8996 349.8 46.0996C352.6 46.2996 355.2 46.6996 357.5 46.6996C362.2 46.3996 366.1 45.8996 368.4 44.6996C370.8 43.4996 371.3 41.8996 371.4 41.9996C371.4 41.9996 371.3 42.3996 370.9 42.9996C370.5 43.5996 369.8 44.3996 368.6 45.0996C366.2 46.4996 362.3 47.0996 357.5 47.4996C355.1 47.5996 352.5 47.1996 349.7 46.9996C346.9 46.7996 343.9 46.6996 340.8 46.8996C334.6 47.1996 327.7 48.3996 321.2 51.3996C314.7 54.3996 309.3 58.8996 305.7 63.9996C302.1 69.0996 300.6 74.6996 300.3 79.2996C300 83.9996 301 87.7996 301.9 90.2996C302.9 92.8996 303.7 94.1996 303.6 94.1996Z" fill="#455B64"/>
<path d="M323.8 38.1001C323.8 38.0001 324.4 37.7001 325.6 37.2001C326.8 36.7001 328.6 36.2001 330.8 35.8001C335.3 35.0001 341.9 35.0001 348.5 37.8001C351.7 39.2001 354.6 40.9001 357.4 41.8001C360.1 42.8001 362.9 42.8001 365.1 42.7001C367.3 42.6001 369.1 42.1001 370.2 41.7001C371.3 41.2001 371.9 40.7001 371.9 40.8001C371.9 40.8001 371.5 41.4001 370.4 42.1001C369.3 42.7001 367.4 43.3001 365.1 43.5001C362.8 43.7001 360 43.8001 357 42.8001C354.1 41.9001 351.2 40.2001 348 38.8001C341.7 36.1001 335.3 35.9001 330.9 36.5001C326.5 37.2001 323.9 38.3001 323.8 38.1001Z" fill="#455B64"/>
<path d="M372.4 39.2004C370.5 45.0004 368.6 50.8004 368.4 56.9004C368.3 63.0004 370.2 69.4004 374.8 73.3004C379.2 77.1004 385.3 78.0004 390.9 79.4004C396.6 80.7004 402.6 83.0004 405.3 88.2004C406.2 89.8004 407.1 96.0004 408.7 96.8004C410.9 98.0004 413.7 96.1004 414.5 93.7004C415.3 91.3004 414.4 84.5004 413.7 82.1004C411.8 74.6004 411.2 63.3004 409.2 55.8004C407.6 49.5004 404.4 46.8004 400.1 41.8004C394.1 34.9004 385.5 34.5004 374.1 38.2004" fill="#263238"/>
<path d="M429.5 68.2003C429.4 68.3003 428.9 67.6003 427.7 66.7003C426.5 65.8003 424.6 64.8003 421.9 64.3003C419.3 63.9003 416 64.0003 412.7 64.9003C409.3 65.9003 405.8 67.7003 402.1 69.5003C398.4 71.3003 394.6 72.8003 391 73.5003C387.4 74.1003 384.1 74.1003 381.4 73.8003C378.7 73.5003 376.5 72.9003 375.1 72.3003C373.7 71.8003 372.9 71.4003 372.9 71.3003C373 71.1003 376.1 72.5003 381.5 72.9003C384.2 73.1003 387.4 73.1003 390.9 72.4003C394.4 71.7003 398 70.3003 401.7 68.4003C405.4 66.6003 409 64.8003 412.5 63.9003C416 62.9003 419.4 62.9003 422.1 63.5003C424.8 64.0003 426.8 65.3003 428 66.3003C428.6 66.8003 429 67.3003 429.2 67.6003C429.4 68.0003 429.5 68.2003 429.5 68.2003Z" fill="#455B64"/>
<path d="M422.3 54.7998C422.2 54.8998 421.7 54.1998 420.5 53.3998C419.3 52.5998 417.4 51.5998 414.8 51.2998C412.2 50.9998 409.1 51.4998 405.9 52.6998C402.7 53.8998 399.4 55.8998 395.7 57.6998C392 59.4998 388.2 60.6998 384.5 60.5998C380.9 60.4998 377.7 59.2998 375.4 57.8998C373.1 56.4998 371.5 54.8998 370.6 53.6998C370.1 53.0998 369.8 52.5998 369.6 52.2998C369.4 51.9998 369.3 51.7998 369.3 51.6998C369.5 51.4998 371.1 54.5998 375.7 57.1998C378 58.3998 381 59.4998 384.4 59.4998C387.8 59.5998 391.5 58.3998 395.1 56.5998C398.7 54.8998 402.1 52.8998 405.4 51.5998C408.7 50.2998 412.1 49.8998 414.8 50.2998C417.5 50.6998 419.5 51.7998 420.7 52.7998C421.9 53.9998 422.3 54.6998 422.3 54.7998Z" fill="#455B64"/>
<path d="M302.9 107.1C302.9 107.1 302.9 107.2 303 107.3C303 107.4 303.1 107.6 303.1 107.8C303.2 108.3 303.4 108.9 303.6 109.8C304 111.5 304.7 114.1 305.6 117.4C306.5 120.7 307.6 124.7 309.1 129.2C309.9 131.5 310.7 134 312 136.3C312.2 136.6 312.4 136.9 312.6 137.1C312.8 137.3 313 137.6 313.3 137.9C313.8 138.4 314.3 138.8 314.9 139.2C316.1 140 317.4 140.6 318.9 141C321.8 141.8 325 141.8 328.2 141C329.8 140.6 331.4 140 332.8 139.1C334.2 138.2 335.5 137 336.5 135.5C338.6 132.7 340 129.2 340.7 125.5C340.9 124.6 341.1 123.6 341.5 122.7C341.9 121.8 342.6 120.9 343.5 120.5C344.5 120 345.6 120.1 346.5 120.6C347.4 121 348.2 121.7 348.9 122.5C349.6 123.2 350.2 124.1 350.8 124.9C351.4 125.7 352.2 126.3 353 127C354.6 128.2 356.5 129.1 358.4 129.8C362.3 131.2 366.6 131.9 370.9 132C373.1 132 375.3 131.9 377.4 131.5C377.9 131.4 378.5 131.3 379 131.2C379.5 131.1 380.1 131 380.6 130.8L382.2 130.3C382.7 130.1 383.2 129.9 383.7 129.6C387.6 127.5 391.2 124.6 394.8 121.7C397.5 119.5 400.2 117.2 402.8 114.9L402.7 115.2C400 105.5 397.4 96.0998 394.9 87.2998L395.2 87.4998C368.5 93.1998 345.4 98.1998 329 101.7C320.8 103.4 314.3 104.8 309.8 105.8C307.6 106.3 305.8 106.6 304.7 106.9C304.1 107 303.7 107.1 303.4 107.2C303 107.1 302.9 107.1 302.9 107.1C302.9 107.1 303 107.1 303.3 107C303.6 106.9 304 106.8 304.6 106.7C305.8 106.4 307.5 106.1 309.7 105.6C314.2 104.6 320.7 103.2 328.8 101.4C345.2 97.7998 368.3 92.7998 395.1 86.8998L395.3 86.7998L395.4 86.9998C397.9 95.7998 400.5 105.2 403.2 114.9V115.1L403.1 115.2C400.5 117.5 397.8 119.8 395.1 122.1C391.5 125 387.9 127.9 383.9 130.1C383.4 130.4 382.9 130.6 382.3 130.8L380.7 131.3C380.2 131.5 379.6 131.6 379.1 131.7C378.6 131.8 378 131.9 377.5 132C375.3 132.4 373.1 132.5 370.9 132.5C366.5 132.4 362.2 131.7 358.2 130.3C356.2 129.5 354.3 128.7 352.6 127.4C351.8 126.8 351 126.1 350.4 125.2C349.7 124.4 349.2 123.6 348.5 122.9C347.8 122.2 347.1 121.5 346.2 121.1C345.4 120.7 344.4 120.6 343.6 121C342.8 121.4 342.2 122.2 341.8 123C341.4 123.8 341.2 124.7 341 125.7C340.2 129.4 338.8 133 336.7 135.9C335.6 137.3 334.3 138.6 332.9 139.5C331.4 140.5 329.8 141.1 328.2 141.4C325 142.1 321.7 142.2 318.7 141.3C317.2 140.9 315.8 140.3 314.6 139.4C314 139 313.4 138.5 312.9 138C312.6 137.8 312.4 137.5 312.2 137.2C312 136.9 311.8 136.6 311.6 136.3C310.3 133.9 309.5 131.4 308.7 129.1C307.2 124.5 306.2 120.5 305.3 117.2C304.5 113.9 303.8 111.4 303.4 109.6C303.2 108.7 303.1 108.1 303 107.6C303 107.4 302.9 107.2 302.9 107.1C302.9 107.1 302.9 107.2 302.9 107.1Z" fill="#263238"/>
<path d="M312.8 136.5C312.7 136.5 311 130.6 309.1 123.2C307.2 115.8 305.7 109.8 305.9 109.8C306 109.8 307.7 115.7 309.6 123.1C311.5 130.5 312.9 136.5 312.8 136.5Z" fill="#FAFBFB"/>
<path d="M336.9 113.4C337 113.5 335.2 118 332.8 123.6C330.4 129.2 328.4 133.6 328.2 133.5C328.1 133.4 329.9 128.9 332.3 123.3C334.7 117.8 336.8 113.3 336.9 113.4Z" fill="#FAFBFB"/>
<path d="M342.1 106.8C342.2 106.8 341.8 107.9 341.2 109.7C340.6 111.5 339.7 113.9 338.6 116.5C337.5 119.1 336.4 121.5 335.6 123.1C334.8 124.8 334.2 125.8 334.1 125.7C334 125.7 334.5 124.6 335.2 122.9C336 121 337 118.8 338.1 116.2C339.1 113.7 340.1 111.4 340.9 109.5C341.6 107.8 342.1 106.7 342.1 106.8Z" fill="#FAFBFB"/>
<path d="M387.3 96.5C387.3 96.5 387.2 96.9 386.9 97.5C386.6 98.1 386.3 99 385.8 100.1C384.8 102.3 383.4 105.2 381.9 108.5C379.4 113.8 377.2 118.2 376.4 119.6L376.1 120.1L376.2 119.6C376.3 119.1 376.4 118.9 376.4 118.9C376.4 118.9 376.4 119.1 376.4 119.6H376.2C376.8 118.1 378.9 113.6 381.4 108.3C383 105 384.4 102.1 385.5 99.9C386 98.8 386.5 98 386.8 97.4C387.1 96.8 387.3 96.5 387.3 96.5Z" fill="#FAFBFB"/>
<path d="M389.3 100.4C389.4 100.5 387.6 104.6 385.2 109.5C382.8 114.5 380.8 118.5 380.6 118.4C380.5 118.3 382.3 114.2 384.7 109.3C387.1 104.4 389.1 100.4 389.3 100.4Z" fill="#FAFBFB"/>
<path d="M384.8 127.1C384.8 127.1 384.4 127.4 383.7 127.8C383.3 128 382.9 128.2 382.4 128.5C381.9 128.7 381.3 129 380.6 129.3C379.9 129.6 379.2 129.8 378.3 130C377.5 130.3 376.6 130.4 375.6 130.6C373.7 130.9 371.5 131.1 369.3 131C367.1 130.9 364.9 130.5 363.1 130C362.2 129.7 361.3 129.5 360.5 129.1C359.7 128.8 359 128.5 358.3 128.1C357.6 127.8 357.1 127.4 356.6 127.2C356.1 126.9 355.7 126.6 355.3 126.4C354.6 125.9 354.3 125.6 354.3 125.6C354.4 125.5 355.8 126.6 358.4 127.8C359.1 128.1 359.8 128.4 360.6 128.7C361.4 129 362.3 129.2 363.2 129.5C365.1 130 367.1 130.3 369.3 130.5C371.5 130.6 373.6 130.5 375.5 130.2C376.4 130 377.3 129.9 378.2 129.7C379 129.5 379.8 129.3 380.5 129C383.2 127.9 384.8 127 384.8 127.1Z" fill="#FAFBFB"/>
<path d="M402.9 115.1C402.9 115.1 402.8 114.9 402.7 114.6C402.6 114.2 402.4 113.7 402.3 113.1C401.9 111.7 401.3 109.8 400.7 107.5C399.3 102.6 397.3 95.8 395.1 87.9L395 87.5L395.4 87.6C398.8 88.6 402.5 89.7 406.3 90.8C409.1 91.6 411.9 92.5 414.5 93.2H414.6V93.3C415.8 98.7 416.8 103.7 417.7 107.9V108.1L417.6 108.2C413.1 110.3 409.5 112 406.9 113.2C405.7 113.8 404.7 114.2 404 114.6C403.7 114.7 403.4 114.8 403.2 114.9C403 115 402.9 115.1 402.9 115.1C402.9 115.1 403 115 403.2 114.9C403.4 114.8 403.7 114.7 404 114.5C404.7 114.1 405.7 113.6 406.9 113C409.5 111.7 413.1 110 417.4 107.8L417.3 108C416.4 103.7 415.3 98.8 414.1 93.4L414.3 93.6C411.7 92.8 408.9 92 406.1 91.2C402.3 90.1 398.6 89 395.2 88L395.5 87.7C397.6 95.6 399.5 102.3 400.8 107.2C401.4 109.6 402 111.5 402.3 112.9C402.5 113.5 402.6 114.1 402.7 114.5C402.9 114.9 402.9 115 402.9 115.1Z" fill="#263238"/>
<path d="M302.9 108.1L301.6 102.9L394.4 82.4004L395.8 88.3004L302.9 108.1Z" fill="#7C57A4"/>
<path d="M394.4 82.4004L413.6 88.9004L414.8 94.0004L395.8 88.3004L394.4 82.4004Z" fill="#7C57A4"/>
<path d="M329 234.18L351 205.43L436.5 183L508.8 205.42V341.59L497.1 430H319.5L315.5 374.54L329 234.18Z" fill="#E0E0E0"/>
<path d="M368.2 433C368.2 433 368.2 432.8 368.2 432.31C368.2 431.82 368.3 431.22 368.4 430.43C368.6 428.75 368.8 426.28 369.1 423.12C369.8 416.8 370.7 407.61 371.9 396.26C374.3 373.54 377.6 342.23 381.5 307.57C382.1 302.04 382.8 296.61 383.4 291.27C384 285.93 384.7 280.7 385.5 275.66C387.2 265.59 389.5 256.1 391.6 247.22C395.9 229.64 399.8 214.82 402.8 204.06V204.16C400.6 198.04 398.8 193.3 397.6 189.94C397 188.26 396.6 187.08 396.3 186.19C396.2 185.79 396.1 185.5 396 185.2C395.9 185 395.9 184.9 395.9 184.9C396.3 185.89 398.6 192.11 403.1 204.06C400.2 214.83 396.3 229.64 392.1 247.32C390 256.11 387.8 265.59 386.1 275.67C385.3 280.71 384.7 285.94 384.1 291.28C383.5 296.62 382.9 302.05 382.2 307.58C378.3 342.15 374.9 373.56 372.5 396.27C371.3 407.63 370.3 416.81 369.6 423.13C369.2 426.29 369 428.76 368.8 430.44C368.7 431.23 368.6 431.92 368.6 432.32C368.3 432.71 368.2 433 368.2 433Z" fill="#263238"/>
<path d="M352.5 304.2L343.2 377.1L386.7 386.8L397.4 307.8L352.5 304.2Z" fill="#263238"/>
<path d="M355 307.4C354.8 308 346.5 373.7 347.1 373.9C347.7 374.1 382.6 381.3 382.6 381.3L393.2 310.7L355 307.4Z" fill="white"/>
<path d="M383 381.9L382.5 381.8C378.9 381.1 347.5 374.6 346.9 374.4L346.7 374.3L346.6 374.1C346.5 373.8 346.2 373.4 350.3 340.4C352.1 326.1 354.4 307.6 354.5 307.2L354.6 306.8L393.7 310.2L393.6 310.7L383 381.9ZM347.5 373.5C350.3 374.1 370.7 378.4 382.2 380.7L392.6 311.2L355.4 307.9C354.7 313.3 347.6 368.7 347.5 373.5Z" fill="#263238"/>
<path d="M352.5 304.2C352.5 304.2 359.9 302.7 360.9 298.2L387.8 299.4C387.8 299.4 390.4 305.9 397.4 307.8L352.5 304.2Z" fill="#263238"/>
<path d="M373.3 274.4V292.9H379.5L380.5 274.4H373.3Z" fill="#455B64"/>
<path d="M437.4 184.9L434.1 174.4L358 195.6L360.8 206L372.3 237.9L446.7 202.8L437.4 184.9Z" fill="#E0E0E0"/>
<path d="M351 206C351 207.1 373.3 274.4 373.3 274.4H380.5L451.3 187.4L443 184.9L377.7 267.1L358.9 204.6L351 206Z" fill="#263238"/>
<path d="M382.6 285.5L380.5 301.9L371.4 301.2L371.1 285.5H382.6Z" fill="#263238"/>
<path d="M394.6 214.1C394.6 214.1 394.5 214.2 394.2 214.3C394 214.4 393.6 214.6 393.1 214.8C392.2 215.3 390.8 215.9 389.1 216.5C387.4 217.1 385.2 217.7 382.8 218C380.4 218.3 377.6 218.4 374.8 217.8C372 217.2 369.5 216.1 367.4 214.7C365.4 213.3 363.8 211.7 362.8 210.1C361.8 208.5 361.2 207.1 360.9 206.1C360.7 205.6 360.7 205.2 360.6 204.9C360.6 204.6 360.5 204.5 360.6 204.5C360.7 204.4 361 206.8 363.1 209.8C364.1 211.3 365.7 212.9 367.7 214.2C369.7 215.5 372.2 216.6 374.9 217.2C380.4 218.2 385.5 217.1 389 216C390.7 215.4 392.1 214.9 393.1 214.5C394 214.3 394.6 214.1 394.6 214.1Z" fill="#263238"/>
<path d="M437.1 193.2C437.1 193.2 436.8 193.5 436.3 193.8C435.8 194.2 435 194.7 434 195.3C432 196.6 429.1 198.2 425.8 199.7C422.5 201.2 419.4 202.3 417.2 203.1C416.1 203.5 415.2 203.7 414.5 203.9C413.9 204.1 413.5 204.1 413.5 204.1C413.5 204 414.9 203.6 417.1 202.8C419.3 202 422.4 200.8 425.6 199.3C428.9 197.8 431.7 196.3 433.8 195.1C435.8 193.8 437.1 193.1 437.1 193.2Z" fill="#263238"/>
<path d="M396.3 198.6C396.3 200.6 394.7 202.2 392.7 202.2C390.7 202.2 389.1 200.6 389.1 198.6C389.1 196.6 390.7 195 392.7 195C394.7 195 396.3 196.6 396.3 198.6Z" fill="#263238"/>
<path d="M389.1 237.5C391.09 237.5 392.7 235.89 392.7 233.9C392.7 231.91 391.09 230.3 389.1 230.3C387.11 230.3 385.5 231.91 385.5 233.9C385.5 235.89 387.11 237.5 389.1 237.5Z" fill="#263238"/>
<path d="M351 398.6C352.99 398.6 354.6 396.99 354.6 395C354.6 393.01 352.99 391.4 351 391.4C349.01 391.4 347.4 393.01 347.4 395C347.4 396.99 349.01 398.6 351 398.6Z" fill="#263238"/>
<path d="M392.7 402C394.69 402 396.3 400.39 396.3 398.4C396.3 396.41 394.69 394.8 392.7 394.8C390.71 394.8 389.1 396.41 389.1 398.4C389.1 400.39 390.71 402 392.7 402Z" fill="#263238"/>
<path d="M484.5 391.9C484.4 391.9 484.1 390 483.1 387.1C482.6 385.6 481.9 383.9 481.1 382.1C480.2 380.3 479.1 378.3 477.8 376.4C476.5 374.5 475 372.7 473.7 371.3C472.3 369.8 471 368.6 469.8 367.6C467.4 365.6 465.8 364.6 465.9 364.5C465.9 364.5 466.3 364.7 467.1 365.2C467.5 365.4 467.9 365.7 468.4 366.1C468.9 366.5 469.5 366.8 470.1 367.3C471.3 368.2 472.7 369.5 474.1 371C475.5 372.5 477 374.2 478.3 376.2C479.6 378.2 480.7 380.1 481.6 382C482.5 383.9 483.1 385.6 483.6 387.1C483.8 387.8 484 388.5 484.2 389.1C484.4 389.7 484.5 390.2 484.5 390.6C484.4 391.4 484.5 391.9 484.5 391.9Z" fill="#263238"/>
<path d="M504.1 203.9C504.1 203.9 503.9 204 503.6 204.2C503.2 204.4 502.7 204.7 502.1 205C501.8 205.2 501.4 205.4 501 205.6C500.6 205.8 500.2 206.1 499.8 206.3C498.9 206.8 497.9 207.4 496.9 208.2C496.4 208.6 495.8 209 495.3 209.4C494.7 209.8 494.2 210.3 493.6 210.8C492.4 211.7 491.3 212.8 490 214C487.6 216.4 485.2 219.2 483 222.4C480.8 225.7 479.1 229 477.8 232.1C477.2 233.7 476.6 235.2 476.2 236.6C476 237.3 475.7 238 475.6 238.7C475.4 239.4 475.3 240 475.1 240.7C474.8 241.9 474.6 243.1 474.4 244.1C474.3 244.6 474.2 245.1 474.2 245.5C474.2 245.9 474.1 246.3 474.1 246.7C474 247.4 474 247.9 473.9 248.3C473.9 248.7 473.8 248.9 473.8 248.9C473.8 248.9 473.8 248.7 473.8 248.3C473.8 247.9 473.9 247.3 473.9 246.6C473.9 246.2 473.9 245.8 474 245.4C474 245 474.1 244.5 474.2 244C474.4 243 474.5 241.8 474.8 240.6C474.9 240 475.1 239.3 475.2 238.6C475.4 237.9 475.6 237.2 475.8 236.5C476.2 235 476.8 233.5 477.4 231.9C478.7 228.8 480.4 225.4 482.6 222.1C484.8 218.8 487.3 216 489.7 213.6C491 212.4 492.1 211.3 493.3 210.4C493.9 209.9 494.5 209.5 495 209C495.6 208.6 496.1 208.2 496.7 207.9C497.7 207.1 498.8 206.6 499.7 206.1C500.1 205.8 500.5 205.6 500.9 205.4C501.3 205.2 501.6 205 502 204.9C502.6 204.6 503.1 204.4 503.5 204.2C503.9 203.9 504.1 203.9 504.1 203.9Z" fill="#263238"/>
<path d="M257.1 277.2L250.9 243.7L214.8 238C215.4 238 214.7 279.6 214.7 279.6L257.1 277.2Z" fill="#FFBE9D"/>
<path d="M240.3 197.5C240.2 197.5 240.5 195.3 239.1 192.1C238.4 190.5 237.2 188.8 235.5 187.3C233.8 185.8 231.6 184.6 229 183.9C226.5 183.2 223.9 183.1 221.7 183.3C219.4 183.5 217.4 184 215.8 184.5C214.2 185 212.8 185.5 212 185.9C211.1 186.3 210.6 186.5 210.6 186.4C210.6 186.4 211 186.1 211.9 185.7C212.8 185.3 214.1 184.7 215.7 184.1C217.4 183.6 219.4 183 221.7 182.8C224 182.6 226.6 182.7 229.2 183.4C231.8 184.1 234.1 185.4 235.8 186.9C237.5 188.5 238.7 190.3 239.4 191.9C240.1 193.5 240.3 194.9 240.4 195.9C240.4 196.4 240.4 196.8 240.4 197C240.3 197.4 240.3 197.5 240.3 197.5Z" fill="#263238"/>
<path d="M228.2 192.2C228.2 192.2 228 192.9 227.3 193.9C226.6 194.9 225.4 196.1 223.7 196.9C222 197.7 220.3 198 219.1 198C217.9 198 217.2 197.7 217.2 197.7C217.2 197.6 217.9 197.7 219.1 197.6C220.3 197.5 221.9 197.2 223.4 196.4C225 195.6 226.2 194.5 226.9 193.6C227.8 192.8 228.1 192.1 228.2 192.2Z" fill="#263238"/>
<path d="M240.3 198.9C240.3 199 240 199.3 239.2 199.5C238.5 199.7 237.3 199.7 236.3 199.1C235.2 198.5 234.6 197.6 234.4 196.8C234.2 196.1 234.2 195.6 234.3 195.6C234.4 195.6 234.4 196 234.8 196.7C235.1 197.3 235.7 198.1 236.6 198.6C237.5 199.1 238.5 199.1 239.2 199.1C239.9 199 240.3 198.8 240.3 198.9Z" fill="#263238"/>
<path d="M240.7 187.1C240.7 187.1 240.3 186.7 239.7 186C239.1 185.3 238.2 184.2 237 183C234.7 180.5 231.2 177.3 227 174.3C226 173.6 224.8 173.1 223.6 173.4C222.5 173.7 221.4 174.3 220.4 174.7C218.3 175.6 216.5 176.4 214.9 177C213.4 177.6 212.1 178.1 211.2 178.5C210.3 178.9 209.8 179 209.8 179C209.8 179 210.3 178.7 211.1 178.3C212.1 177.9 213.3 177.3 214.8 176.6C216.4 175.9 218.2 175.1 220.3 174.2C220.8 174 221.3 173.7 221.9 173.5C222.4 173.3 223 173 223.6 172.9C224.2 172.7 224.9 172.8 225.6 173C226.2 173.2 226.8 173.5 227.4 173.9C231.7 176.9 235.1 180.2 237.4 182.8C238.5 184.1 239.4 185.2 240 185.9C240.4 186.6 240.7 187 240.7 187.1Z" fill="#263238"/>
<path d="M240.8 179.9C240.8 179.9 240.3 179.6 239.6 178.9C238.8 178.2 237.7 177.3 236.3 176.2C233.5 173.9 229.7 170.7 225.1 167.7C223.9 167 222.7 166.4 221.5 166.2C220.3 165.9 219 166.1 217.9 166.4C215.7 167.1 213.9 168.4 212.5 169.4C211 170.4 209.8 171.2 208.9 171.7C208.4 171.9 208.1 172.1 207.8 172.2C207.5 172.3 207.4 172.3 207.4 172.3C207.4 172.3 207.9 172 208.8 171.5C209.7 171 210.9 170.2 212.3 169.1C213.7 168.1 215.5 166.7 217.8 165.9C218.9 165.5 220.3 165.4 221.6 165.6C222.9 165.9 224.2 166.5 225.4 167.2C230 170.2 233.8 173.5 236.5 175.8C237.9 177 238.9 178 239.7 178.7C240.4 179.5 240.8 179.9 240.8 179.9Z" fill="#263238"/>
<path d="M220.3 202.8C220.4 202.9 219.7 204.3 218 205.2C216.3 206.1 214.7 206 214.7 205.8C214.7 205.6 216.2 205.6 217.7 204.7C219.3 203.9 220.2 202.7 220.3 202.8Z" fill="#263238"/>
<path d="M221 214.9C221 215 220.2 214.9 218.9 214.7C217.6 214.4 215.8 213.9 214 213C212.2 212.1 210.7 211.1 209.6 210.2C208.6 209.4 208 208.7 208.1 208.7C208.2 208.6 210.6 210.8 214.2 212.5C217.8 214.2 221 214.7 221 214.9Z" fill="#263238"/>
<path d="M329 234C329 234 306.9 247.88 301.07 260.36C295.82 271.59 282.47 340.78 282.47 340.78L266.11 265.4L215 266.34C215 266.34 215.63 383.66 219.74 402.83C224.03 422.73 228.78 432.92 257.46 433C280.69 432.97 303.12 424.48 320.55 409.11L329 234Z" fill="#E1E1E1"/>
<path d="M265.74 266.01C265.74 266.01 260.97 241.12 262.22 237.23C263.48 233.35 270.28 220.25 269.99 205.8C269.62 195.06 268.7 184.34 267.25 173.69L264.97 160.39L255.41 156.67C255.41 156.67 251.83 147.69 250.19 146.06C248.88 144.88 247.22 144.15 245.46 144.01C243.7 143.87 241.94 144.3 240.46 145.26C238.38 146.62 236.91 148.74 236.35 151.16C235.48 150.57 234.49 150.19 233.45 150.05C232.41 149.91 231.35 150.01 230.36 150.34C229.37 150.67 228.46 151.23 227.72 151.97C226.98 152.71 226.41 153.61 226.07 154.6C226.07 154.6 221.01 152.18 217.56 154.39C216.51 155.08 215.64 156.01 215.04 157.11C214.44 158.21 214.11 159.44 214.09 160.7C214.09 160.7 209.57 158.19 206.42 160.7C205.46 161.42 204.73 162.42 204.34 163.56C203.95 164.7 203.91 165.93 204.22 167.09C204.36 167.89 209.85 209.64 209.92 213.19C209.98 216.75 215.68 230.81 217.32 234.09C218.97 237.38 221.02 266.98 221.02 266.98L265.74 266.01Z" fill="#FFBE9D"/>
<path d="M256.11 171C256.11 171 255.82 171.48 255.53 172.41C255.09 173.76 254.84 175.16 254.79 176.57C254.65 181.51 255.35 186.44 256.86 191.14L257.01 191.6L256.55 191.79C252.78 193.27 249.35 195.51 246.48 198.37C243.61 201.23 241.35 204.66 239.85 208.44C238.6 211.65 237.9 215.05 237.78 218.49C237.79 221.68 238.13 224.87 238.81 227.98C238.41 227.21 238.11 226.39 237.92 225.54C237.32 223.24 237.01 220.87 237.01 218.48C237 214.93 237.62 211.41 238.83 208.07C240.33 204.12 242.65 200.53 245.63 197.54C248.61 194.55 252.18 192.23 256.12 190.73L255.83 191.35C254.34 186.5 253.79 181.4 254.19 176.34C254.31 174.91 254.66 173.5 255.22 172.18C255.37 171.83 255.58 171.5 255.82 171.2C256.01 171.09 256.09 170.98 256.11 171Z" fill="#EFA077"/>
<path d="M301.77 434L350.5 432.55V390.5C350.5 390.5 274.98 381.08 271.51 382.09L257 432.56C257 432.56 300.48 434 301.77 434Z" fill="#FFBE9D"/>
<path d="M260.96 433.64C260.96 433.64 261.37 433.81 261.95 433.87C266.9 434.42 289.71 432.98 289.71 432.98C290.77 429.9 288.78 420.63 285.94 420.1C283.1 419.57 258.83 421.27 258.83 421.27C258.83 421.27 254.99 421.8 254.04 428.53C253.43 432.67 260.96 433.64 260.96 433.64Z" fill="#FFBE9D"/>
<path d="M252.82 420.55C252.82 420.65 253.22 420.71 253.8 420.78C258.66 421.29 279.82 421.07 280.74 418.53C281.66 415.99 280.12 408.58 277.34 408.09C274.55 407.6 250.74 409.16 250.74 409.16C250.74 409.16 246.98 409.65 246.04 415.83C245.46 419.67 252.82 420.55 252.82 420.55Z" fill="#FFBE9D"/>
<path d="M249.01 407.52C249.01 407.52 249.4 407.69 250.01 407.75C254.98 408.32 276.74 408.06 277.68 405.35C278.74 402.28 277.07 394.65 274.2 394.1C271.33 393.55 246.84 395.26 246.84 395.26C246.84 395.26 242.99 395.79 242.03 402.45C241.49 406.58 249.01 407.52 249.01 407.52Z" fill="#FFBE9D"/>
<path d="M245.18 394.56C245.51 394.71 245.87 394.78 246.23 394.77C251.34 395.3 273.7 395.06 274.66 392.52C275.75 389.69 274.03 382.58 271.08 382.09C268.14 381.6 242.96 383.16 242.96 383.16C242.96 383.16 238.99 383.65 238.02 389.84C237.42 393.66 245.18 394.56 245.18 394.56Z" fill="#FFBE9D"/>
<path d="M279 420.31C279 420.56 274.46 420.86 268.94 420.96C263.43 421.07 258.96 420.96 259 420.7C259.04 420.44 263.52 420.17 269.06 420.05C274.59 419.92 279.02 420.06 279 420.31Z" fill="#EFA077"/>
<path d="M280 408.2C280 408.42 273.08 408.75 264.52 408.91C255.96 409.07 249.02 409.01 249 408.79C248.98 408.57 255.92 408.24 264.48 408.08C273.04 407.92 280 408.03 280 408.2Z" fill="#EFA077"/>
<g opacity="0.78">
<path opacity="0.78" d="M278.56 394.74C278.56 395.11 271.82 395.64 263.47 395.91C255.12 396.18 248.36 396.07 248.34 395.71C248.32 395.34 255.08 394.81 263.43 394.54C271.77 394.27 278.54 394.35 278.56 394.74Z" fill="#EFA077"/>
</g>
<path d="M313 386C313 386 272.06 367.62 269.51 370.26C266.96 372.9 263 381.47 263 381.47L313 386Z" fill="#FFBE9D"/>
<path d="M344.5 385V434L518.25 429.91C523.06 429.81 527.79 428.7 532.15 426.67C536.51 424.63 540.39 421.71 543.54 418.08C546.7 414.45 549.06 410.21 550.47 405.61C551.89 401.02 552.33 396.18 551.76 391.41C550.31 379.65 548.61 366 546.85 351.8C544.09 329.72 538.76 268.84 532.77 234.24C531.42 226.12 527.42 218.68 521.4 213.06C515.38 207.44 507.68 203.97 499.48 203.18C497.66 202.95 495.83 202.95 494.01 203.18C473.15 206.49 465.35 227.06 466.06 250.87C466.65 270.41 469.54 362.89 469.54 362.89L344.5 385Z" fill="#E0E0E0"/>
<path d="M211.74 234.13L229.32 236.11L232.1 239.68L230.65 250.65L226.95 253.43L210.03 250.39L211.74 234.13Z" fill="#263238"/>
<path d="M229.06 235.98C229.19 235.98 228.93 239.81 228.27 244.44C227.61 249.07 226.95 252.9 226.68 252.77C226.55 252.77 226.81 248.94 227.47 244.31C228.26 239.68 228.93 235.98 229.06 235.98Z" fill="#455B64"/>
<path d="M224.03 252.9C223.9 252.9 224.29 249.07 225.09 244.31C225.88 239.55 226.55 235.85 226.81 235.85C226.94 235.85 226.55 239.68 225.75 244.44C224.96 249.2 224.17 252.9 224.03 252.9Z" fill="#455B64"/>
<path d="M194.82 261.63C194.82 262.69 206.06 278.68 206.06 278.68H216.37L220.34 275.77L222.06 265.85L209.77 249.85L194.82 261.63Z" fill="#263238"/>
<path d="M222.05 265.86C222.05 265.99 221.13 266.65 219.67 267.71C218.22 268.77 216.1 270.35 213.85 272.07C209.49 275.64 206.05 278.95 205.92 278.68C205.92 278.68 206.58 277.75 207.9 276.43C209.22 275.11 211.07 273.39 213.32 271.54C215.57 269.69 217.68 268.23 219.27 267.18C220.86 266.26 221.92 265.86 222.05 265.86Z" fill="#455B64"/>
<path d="M220.86 264.27C220.99 264.4 216.76 266.39 212.4 269.95C207.91 273.52 205.26 277.22 205.13 277.09C205 277.09 205.66 276.03 206.85 274.58C208.04 273.12 209.76 271.27 212.01 269.42C214.26 267.57 216.5 266.25 218.09 265.45C219.67 264.67 220.73 264.27 220.86 264.27Z" fill="#455B64"/>
<path d="M193.76 260.17H174.85V285.95H193.76V260.17Z" fill="#263238"/>
<path d="M194.02 283.05C194.02 283.18 189.79 283.45 184.63 283.45C179.47 283.45 175.24 283.32 175.24 283.05C175.24 282.92 179.47 282.65 184.63 282.65C189.79 282.65 194.02 282.78 194.02 283.05Z" fill="#455B64"/>
<path d="M194.02 280.67C194.02 280.8 189.79 281.07 184.63 281.07C179.47 281.07 175.24 280.94 175.24 280.67C175.24 280.41 179.47 280.27 184.63 280.27C189.93 280.4 194.02 280.53 194.02 280.67Z" fill="#455B64"/>
<path d="M165.47 252.9C171.95 262.68 185.7 266.91 196.67 262.68C207.64 258.32 214.65 245.76 212.67 234.26L202.75 240.74L165.47 252.9Z" fill="#EBEBEB"/>
<path d="M117.61 357.35H142.99V332.5H196.4C199.84 332.5 202.75 329.72 202.75 326.15C202.75 322.71 199.97 319.8 196.4 319.8H165.33V311.21H221.52C224.96 311.21 227.6 308.43 227.6 305.13C227.6 301.69 224.82 299.05 221.52 299.05H128.58V308.7H118.14L117.61 357.35Z" fill="#263238"/>
<path d="M128.45 357.35C128.32 357.35 128.19 344.26 128.19 328.26C128.19 312.13 128.32 299.18 128.59 299.18C128.72 299.18 128.85 312.27 128.85 328.26C128.85 344.25 128.71 357.35 128.45 357.35Z" fill="#455B64"/>
<path d="M142.99 299.97C143.12 299.97 143.39 307.37 143.39 316.36C143.39 325.48 143.26 332.75 142.99 332.75C142.86 332.75 142.59 325.35 142.59 316.36C142.6 307.24 142.73 299.97 142.99 299.97Z" fill="#455B64"/>
<path d="M227.6 406.66C227.6 406.66 223.1 388.15 201.82 384.45H158.32H117.34L115.49 408.25L227.6 406.66Z" fill="#EBEBEB"/>
<path d="M73.0596 350.74V254.89C73.0596 251.85 75.1796 249.07 78.2196 248.41L157.68 225.8L158.47 194.34L205.93 193.55L220.61 180.06L243.75 206.5L212.95 240.08L118.67 269.3L117.08 406.79H227.34C229.98 406.79 232.23 408.91 232.23 411.68V429.66H73.0596V350.74Z" fill="#455B64"/>
<path d="M213.99 299.04H170.76C168.51 299.04 166.66 297.19 166.66 294.94V294.67C166.66 292.42 168.51 290.57 170.76 290.57H213.99C216.24 290.57 218.09 292.42 218.09 294.67V294.94C217.95 297.33 216.24 299.04 213.99 299.04Z" fill="#E0E0E0"/>
<path d="M213.99 299.04C213.99 299.04 214.39 299.04 215.05 298.78C215.71 298.51 216.77 297.99 217.43 296.8C217.69 296.14 217.83 295.48 217.83 294.55C217.83 293.76 217.43 292.83 216.77 292.17C216.11 291.51 215.18 290.98 213.99 290.98C212.8 290.98 211.61 290.98 210.42 290.98C200.24 290.98 186.23 290.98 170.76 291.11C168.91 291.11 167.32 292.56 167.06 294.28C166.93 295.21 167.06 296 167.46 296.79C167.86 297.58 168.52 298.11 169.31 298.51C170.1 298.91 170.9 298.78 171.82 298.78C172.74 298.78 173.67 298.78 174.46 298.78C176.18 298.78 177.9 298.78 179.62 298.78C186.36 298.78 192.31 298.78 197.47 298.91C202.49 298.91 206.59 299.04 209.5 299.04C210.82 299.04 212.01 299.04 212.8 299.04C213.59 299.04 213.99 299.04 213.99 299.04C213.99 299.04 213.59 299.04 212.8 299.17C212.01 299.17 210.95 299.17 209.5 299.17C206.59 299.17 202.49 299.17 197.47 299.3C192.31 299.3 186.37 299.3 179.62 299.43C177.9 299.43 176.18 299.43 174.46 299.43C173.53 299.43 172.74 299.43 171.82 299.43C171.03 299.43 169.97 299.56 169.04 299.03C168.11 298.63 167.32 297.97 166.92 297.05C166.39 296.12 166.39 295.07 166.52 294.14C166.78 292.03 168.77 290.31 170.88 290.44C186.35 290.44 200.36 290.57 210.54 290.57C211.86 290.57 213.05 290.57 214.11 290.57C215.3 290.57 216.36 291.23 217.15 292.02C217.81 292.81 218.21 293.74 218.21 294.66C218.21 295.59 218.08 296.38 217.68 297.04C217.02 298.36 215.83 298.89 215.17 299.02C214.38 299.18 213.99 299.04 213.99 299.04Z" fill="#263238"/>
<path d="M95.0002 374.4C108.58 374.4 119.59 363.39 119.59 349.81C119.59 336.23 108.58 325.22 95.0002 325.22C81.4202 325.22 70.4102 336.23 70.4102 349.81C70.4102 363.39 81.4202 374.4 95.0002 374.4Z" fill="#263238"/>
<path d="M108.75 350.6C108.62 350.6 108.75 349.41 108.22 347.3C107.69 345.32 106.37 342.28 103.2 339.9C101.61 338.71 99.7601 337.78 97.5201 337.39C95.2701 336.99 92.8901 337.13 90.5101 338.05C89.3201 338.45 88.1301 339.11 87.0701 339.9C86.0101 340.69 85.0901 341.62 84.2901 342.68C82.7001 344.93 81.7801 347.7 81.6501 350.61C81.6501 353.52 82.5801 356.29 84.2901 358.54C85.0801 359.6 86.0101 360.65 87.0701 361.32C88.1301 362.11 89.3201 362.77 90.5101 363.17C92.8901 364.1 95.4001 364.1 97.5201 363.83C99.7701 363.43 101.62 362.51 103.2 361.32C106.24 358.94 107.69 356.03 108.22 353.92C108.75 351.93 108.62 350.6 108.75 350.6C108.75 350.6 108.88 351.79 108.49 353.91C107.96 356.02 106.64 359.2 103.6 361.58C102.01 362.77 100.03 363.83 97.7801 364.23C95.5301 364.63 92.8901 364.63 90.3801 363.7C89.1901 363.3 88.0001 362.64 86.8101 361.85C85.7501 361.06 84.6901 360 83.9001 358.94C82.1801 356.69 81.2601 353.65 81.1201 350.61C81.1201 347.57 82.1801 344.66 83.9001 342.28C84.6901 341.09 85.7501 340.17 86.8101 339.37C87.8701 338.58 89.0601 337.92 90.3801 337.52C92.8901 336.59 95.4001 336.59 97.7801 336.99C100.03 337.39 102.01 338.44 103.6 339.63C106.77 342.14 108.09 345.18 108.49 347.3C108.88 349.42 108.75 350.6 108.75 350.6Z" fill="#455B64"/>
<path d="M212.93 183.63L241.22 214.3L251 204.12L222.97 174.24L212.93 183.63Z" fill="#263238"/>
<path d="M256.03 156.26L243.21 168.55C242.28 169.34 242.28 170.8 243.08 171.59L254.05 183.22C254.84 184.15 256.3 184.15 257.22 183.22L270.31 170.4C271.24 169.47 271.24 168.15 270.31 167.23L259.21 156.26C258.14 155.47 256.82 155.47 256.03 156.26Z" fill="#263238"/>
<path d="M244.13 171.2C243.87 171.73 229.72 185.35 229.72 185.35L240.96 196.85L255.11 182.7L244.13 171.2Z" fill="#263238"/>
<path d="M246.51 429.53H56V436.8H246.51V429.53Z" fill="#263238"/>
<path d="M201.82 364.35H158.32V384.45H201.82V364.35Z" fill="#455B64"/>
<path d="M163.09 384.45C162.96 384.45 162.69 379.95 162.69 374.53C162.69 369.11 162.82 364.61 163.09 364.61C163.36 364.61 163.49 369.1 163.49 374.53C163.35 379.95 163.22 384.45 163.09 384.45Z" fill="#263238"/>
<path d="M170.36 384.45C170.23 384.45 169.96 379.95 169.96 374.53C169.96 369.11 170.09 364.61 170.36 364.61C170.62 364.61 170.76 369.1 170.76 374.53C170.62 379.95 170.49 384.45 170.36 384.45Z" fill="#263238"/>
<path d="M177.63 384.45C177.5 384.45 177.23 379.95 177.23 374.53C177.23 369.11 177.36 364.61 177.63 364.61C177.76 364.61 178.03 369.1 178.03 374.53C177.89 379.95 177.76 384.45 177.63 384.45Z" fill="#263238"/>
<path d="M184.9 384.45C184.77 384.45 184.5 379.95 184.5 374.53C184.5 369.11 184.63 364.61 184.9 364.61C185.16 364.61 185.3 369.1 185.3 374.53C185.17 379.95 185.03 384.45 184.9 384.45Z" fill="#263238"/>
<path d="M192.17 384.45C192.04 384.45 191.77 379.95 191.77 374.53C191.77 369.11 191.9 364.61 192.17 364.61C192.3 364.61 192.57 369.1 192.57 374.53C192.57 379.95 192.3 384.45 192.17 384.45Z" fill="#263238"/>
<path d="M199.44 384.45C199.31 384.45 199.04 379.95 199.04 374.53C199.04 369.11 199.17 364.61 199.44 364.61C199.57 364.61 199.84 369.1 199.84 374.53C199.84 379.95 199.58 384.45 199.44 384.45Z" fill="#263238"/>
<path d="M344.5 385.63C363.88 382.2 383.26 378.77 402.64 375.35C409.61 374.12 416.58 372.88 423.55 371.65C428.25 370.82 432.97 370.33 437.7 369.71C446.5 368.55 455.45 367.45 464.08 365.33C465.21 365.05 466.39 364.78 467.46 364.29C468.53 363.8 468.82 362.77 469.16 361.68C470.36 357.83 470.19 353.5 470.01 349.51C469.77 343.98 469.01 338.5 468.66 332.98C468.29 327.14 468.17 321.28 467.76 315.44C466.96 304.06 465.76 292.72 464.94 281.35C464.49 275.03 464.15 268.7 463.97 262.37C463.81 256.66 463.58 250.9 464.08 245.2C464.48 240.66 465.21 236.13 466.41 231.73C467.7 227 469.55 222.21 472.67 218.36C474.22 216.45 475.7 214.47 477.38 212.68C479.98 209.91 483.06 207.6 486.54 206.04C495.41 202.07 506.52 202.81 514.75 207.97C522.38 212.76 527.37 220.77 530.57 229C533.88 237.52 535.5 246.65 535.91 255.77C536.29 264.1 537.34 272.41 538.33 280.68C539.57 290.95 540.93 301.21 542.23 311.48C543.17 318.94 543.86 326.42 544.77 333.87C545.68 341.37 547.01 348.82 548.13 356.29C549.52 365.59 550.77 374.92 551.31 384.31C551.78 392.36 552.03 401.12 549.31 408.85C548.44 411.32 547.17 413.72 545.14 415.44C544.93 415.62 545.34 416.52 545.14 416.69C549.98 412.59 550.9 405.03 551.34 399.12C551.94 390.98 551.44 382.74 550.64 374.63C549.08 358.79 545.81 343.18 544.24 327.34C542.33 308.06 539.29 288.89 537.2 269.63C536.75 265.44 536.32 261.24 536.04 257.03C535.78 252.98 535.6 248.96 535 244.95C533.63 235.72 530.92 226.42 525.98 218.44C521.21 210.75 514.08 204.64 505.03 202.88C495.63 201.05 485.72 203.42 478.72 210.05C476.79 211.88 475.23 213.99 473.55 216.04C470.62 219.62 468.58 223.52 467.15 227.93C464.65 235.63 463.78 243.76 463.79 251.81C463.8 264.37 464.43 276.89 465.46 289.4C466.42 301.03 467.61 312.64 468.22 324.3C468.51 329.84 468.69 335.34 469.22 340.87C469.79 346.82 470.78 353.19 469.49 359.1C469.24 360.24 468.92 362.14 467.86 362.82C467.01 363.37 465.86 363.6 464.9 363.85C461.11 364.85 457.22 365.5 453.36 366.14C448.45 366.95 443.53 367.66 438.6 368.32C434.91 368.81 431.18 369.13 427.49 369.68C423.41 370.28 419.35 371.12 415.29 371.84C396.03 375.25 376.78 378.65 357.52 382.06C353.17 382.83 348.82 383.6 344.48 384.37C344.42 384.39 344.56 385.62 344.5 385.63Z" fill="#263238"/>
<path d="M344.58 394.24C344.76 400.35 344.85 406.46 344.89 412.58C344.92 417.87 344.9 423.17 344.73 428.46C344.67 430.25 344.52 432.05 344.5 433.84C344.49 434.82 344.59 434.93 345.6 434.95C347.32 434.99 349.06 434.74 350.76 434.57C353.54 434.31 356.33 434.05 359.12 433.88C362.97 433.64 366.82 433.64 370.68 433.6C377.9 433.52 385.11 433.38 392.33 433.25C408.35 432.96 424.37 432.56 440.39 432.39C457.76 432.21 475.13 432.38 492.48 431.55C501.29 431.13 510.13 430.51 518.86 429.19C525.06 428.26 531.83 427.17 537.39 424.07C538.31 423.56 539.18 422.96 539.96 422.25C540.17 422.06 539.76 421.19 539.96 421C538.2 422.61 535.96 423.64 533.74 424.47C530.66 425.62 527.43 426.39 524.21 427.03C515.86 428.67 507.34 429.41 498.86 429.95C480.84 431.09 462.78 431.02 444.73 431.11C429.05 431.19 413.36 431.61 397.68 431.9C389.65 432.05 381.63 432.2 373.6 432.31C371.41 432.34 369.23 432.37 367.04 432.37C360.99 432.39 354.99 432.94 348.98 433.48C347.6 433.6 346.22 433.55 344.85 433.63C344.78 433.63 344.56 433.48 344.54 433.49C344.51 433.5 344.46 434.78 344.53 434.22C344.56 434.01 344.56 433.79 344.57 433.57C344.63 432.46 344.68 431.35 344.72 430.24C344.88 425.78 344.92 421.32 344.92 416.86C344.93 409.38 344.82 401.89 344.63 394.41C344.62 393.95 344.61 393.49 344.59 393.02C344.6 393.33 344.57 393.86 344.58 394.24Z" fill="#263238"/>
<path d="M322.63 278.24C327.67 304.99 325.08 332.29 326.38 359.31C326.74 366.67 327.39 374.02 328.55 381.31C328.49 380.91 328.61 380.47 328.55 380.06C324.27 353.2 327.03 325.93 325.29 298.91C324.82 291.56 323.99 284.24 322.63 277C322.7 277.39 322.55 277.84 322.63 278.24Z" fill="#263238"/>
<path d="M225.77 268.41C233.15 267.98 240.52 267.55 247.9 267.11C252.42 266.85 257.03 265.78 261.56 266.11C266.62 266.48 267.37 271.82 268.16 275.87C268.87 279.54 270.19 283.09 271.08 286.72C275.75 305.69 278.3 325.14 282.25 344.27C284.25 353.95 286.34 363.8 289.99 373.01C289.85 372.65 290.13 372.12 289.99 371.76C286.79 363.69 284.84 355.12 283.01 346.65C280.81 336.44 278.98 326.15 277.12 315.87C275.45 306.65 273.83 297.41 271.74 288.28C270.95 284.84 270.06 281.42 268.98 278.05C267.73 274.13 268.11 267.76 263.98 265.49C262.07 264.44 259.46 264.8 257.38 264.96C254.99 265.15 252.62 265.53 250.23 265.72C242.09 266.37 233.91 266.68 225.77 267.16C225.74 267.16 225.79 268.41 225.77 268.41Z" fill="#263238"/>
</g>
<defs>
<clipPath id="clip0">
<rect width="496" height="412.8" fill="white" transform="translate(56 24)"/>
</clipPath>
</defs>
</svg>
