<svg width="679" height="523" viewBox="0 0 679 523" fill="none" xmlns="http://www.w3.org/2000/svg">
    <path opacity="0.1" fill-rule="evenodd" clip-rule="evenodd" d="M340.318 0.0875922C409.518 1.60558 469.274 33.6241 526.556 65.5166C585.774 98.4874 656.879 129.799 675.233 186.555C693.385 242.686 641.253 295.019 618.561 350.027C596.24 404.132 600.529 472.545 543.659 505.491C486.867 538.392 409.629 515.657 340.318 511.219C277.209 507.178 214.852 504.98 158.798 480.847C95.3224 453.52 19.5346 423.03 2.68643 365.86C-14.0959 308.914 52.225 260.559 77.7529 205.844C101.435 155.086 98.8005 94.722 146.703 57.184C197.542 17.3441 270.043 -1.454 340.318 0.0875922Z" fill="#853DCD"/>
    <path d="M447.044 108.58H445.737C443.253 108.58 441.292 106.62 441.292 104.137V54.4747C441.292 51.9916 443.253 50.0312 445.737 50.0312H447.044C449.527 50.0312 451.488 51.9916 451.488 54.4747V104.137C451.619 106.62 449.527 108.58 447.044 108.58Z" fill="#E0E0E0"/>
    <path d="M447.044 108.58H445.737C443.253 108.58 441.292 106.619 441.292 104.136V71.9864C441.292 69.5033 443.253 67.543 445.737 67.543H447.044C449.527 67.543 451.488 69.5033 451.488 71.9864V104.136C451.619 106.619 449.527 108.58 447.044 108.58Z" fill="#963EEE"/>
    <path d="M463.906 108.58H462.599C460.115 108.58 458.155 106.62 458.155 104.137V54.4747C458.155 51.9916 460.115 50.0312 462.599 50.0312H463.906C466.39 50.0312 468.35 51.9916 468.35 54.4747V104.137C468.35 106.62 466.39 108.58 463.906 108.58Z" fill="#E0E0E0"/>
    <path d="M463.906 108.58H462.599C460.115 108.58 458.155 106.619 458.155 104.136V81.1349C458.155 78.6518 460.115 76.6914 462.599 76.6914H463.906C466.39 76.6914 468.35 78.6518 468.35 81.1349V104.136C468.35 106.619 466.39 108.58 463.906 108.58Z" fill="#963EEE"/>
    <path d="M482.859 108.58H481.552C479.069 108.58 477.108 106.62 477.108 104.137V54.4747C477.108 51.9916 479.069 50.0312 481.552 50.0312H482.859C485.343 50.0312 487.303 51.9916 487.303 54.4747V104.137C487.303 106.62 485.343 108.58 482.859 108.58Z" fill="#E0E0E0"/>
    <path d="M482.859 108.58H481.552C479.069 108.58 477.108 106.62 477.108 104.137V65.0606C477.108 62.5775 479.069 60.6172 481.552 60.6172H482.859C485.343 60.6172 487.303 62.5775 487.303 65.0606V104.137C487.303 106.62 485.343 108.58 482.859 108.58Z" fill="#963EEE"/>
    <path d="M446.652 108.58C446.652 108.58 447.175 108.58 447.959 108.319C448.743 108.057 449.92 107.534 450.835 106.097C451.227 105.443 451.488 104.529 451.488 103.614C451.488 102.568 451.488 101.523 451.488 100.346C451.488 97.994 451.488 95.3802 451.488 92.5051C451.488 86.624 451.488 79.6975 451.358 71.9868C451.358 68.0661 451.358 64.0147 451.358 59.8326C451.358 58.7871 451.358 57.7416 451.358 56.6961C451.358 55.6506 451.488 54.4744 451.096 53.5595C450.443 51.5992 448.482 50.1616 446.391 50.2923C444.299 50.2923 442.339 51.8606 441.816 53.8209C441.554 54.7357 441.685 55.912 441.685 56.9575C441.685 58.003 441.685 59.0485 441.685 60.094C441.685 64.2761 441.685 68.3275 441.685 72.2482C441.685 79.9589 441.685 86.8854 441.554 92.7665C441.554 95.6416 441.554 98.3861 441.554 100.608C441.554 101.784 441.554 102.83 441.554 103.875C441.554 104.79 441.946 105.705 442.339 106.358C443.253 107.665 444.561 108.188 445.345 108.449C446.129 108.58 446.652 108.58 446.652 108.58C446.652 108.58 446.26 108.711 445.345 108.58C444.561 108.449 443.253 107.926 442.208 106.62C441.685 105.966 441.293 105.051 441.293 104.006C441.293 102.96 441.293 101.915 441.293 100.739C441.293 98.3861 441.293 95.7723 441.293 92.8971C441.293 87.0161 441.293 80.0896 441.162 72.3789C441.162 68.4582 441.162 64.4068 441.162 60.2247C441.162 59.1792 441.162 58.1337 441.162 57.0882C441.162 56.5654 441.162 56.0426 441.162 55.5199C441.162 54.9971 441.162 54.3437 441.293 53.8209C441.816 51.5992 444.038 49.7695 446.391 49.7695C447.567 49.7695 448.743 50.0309 449.658 50.6844C450.573 51.3378 451.358 52.3833 451.75 53.4288C451.88 53.9516 452.011 54.6051 452.011 55.1278C452.011 55.6506 452.011 56.1733 452.011 56.6961C452.011 57.7416 452.011 58.7871 452.011 59.8326C452.011 64.0147 452.011 68.0661 452.011 71.9868C452.011 79.6975 452.011 86.624 451.88 92.5051C451.88 95.3802 451.88 98.1247 451.88 100.346C451.88 101.523 451.88 102.568 451.88 103.614C451.88 104.659 451.488 105.574 451.096 106.227C450.181 107.665 448.874 108.188 448.09 108.449C447.044 108.711 446.652 108.58 446.652 108.58Z" fill="#263238"/>
    <path d="M463.383 108.58C463.383 108.58 463.906 108.58 464.69 108.319C465.474 108.057 466.651 107.534 467.566 106.097C467.958 105.443 468.219 104.529 468.219 103.614C468.219 102.568 468.219 101.523 468.219 100.346C468.219 97.994 468.219 95.3802 468.219 92.5051C468.219 86.624 468.219 79.6975 468.089 71.9868C468.089 68.0661 468.089 64.0147 468.089 59.8326C468.089 58.7871 468.089 57.7416 468.089 56.6961C468.089 55.6506 468.219 54.4744 467.827 53.5595C467.174 51.5992 465.213 50.1616 463.122 50.2923C461.03 50.2923 459.069 51.8606 458.547 53.8209C458.285 54.7357 458.416 55.912 458.416 56.9575C458.416 58.003 458.416 59.0485 458.416 60.094C458.416 64.2761 458.416 68.3275 458.416 72.2482C458.416 79.9589 458.416 86.8854 458.285 92.7665C458.285 95.6416 458.285 98.3861 458.285 100.608C458.285 101.784 458.285 102.83 458.285 103.875C458.285 104.79 458.677 105.705 459.069 106.358C459.984 107.665 461.292 108.188 462.076 108.449C462.991 108.58 463.383 108.58 463.383 108.58C463.383 108.58 462.991 108.711 462.076 108.58C461.292 108.449 459.984 107.926 458.939 106.62C458.416 105.966 458.024 105.051 458.024 104.006C458.024 102.96 458.024 101.915 458.024 100.739C458.024 98.3861 458.024 95.7723 458.024 92.8971C458.024 87.0161 458.024 80.0896 457.893 72.3789C457.893 68.4582 457.893 64.4068 457.893 60.2247C457.893 59.1792 457.893 58.1337 457.893 57.0882C457.893 56.5654 457.893 56.0426 457.893 55.5199C457.893 54.9971 457.893 54.3437 458.024 53.8209C458.547 51.5992 460.769 49.7695 463.122 49.7695C464.298 49.7695 465.474 50.0309 466.389 50.6844C467.304 51.3378 468.089 52.3833 468.481 53.4288C468.611 53.9516 468.742 54.6051 468.742 55.1278C468.742 55.6506 468.742 56.1733 468.742 56.6961C468.742 57.7416 468.742 58.7871 468.742 59.8326C468.742 64.0147 468.742 68.0661 468.742 71.9868C468.742 79.6975 468.742 86.624 468.611 92.5051C468.611 95.3802 468.611 98.1247 468.611 100.346C468.611 101.523 468.611 102.568 468.611 103.614C468.611 104.659 468.219 105.574 467.827 106.227C466.912 107.665 465.605 108.188 464.821 108.449C463.906 108.711 463.383 108.58 463.383 108.58Z" fill="#263238"/>
    <path d="M482.336 108.58C482.336 108.58 482.859 108.58 483.643 108.319C484.427 108.057 485.604 107.534 486.519 106.097C486.911 105.443 487.172 104.529 487.172 103.614C487.172 102.568 487.172 101.523 487.172 100.346C487.172 97.994 487.172 95.3802 487.172 92.5051C487.172 86.624 487.172 79.6975 487.042 71.9868C487.042 68.0661 487.042 64.0147 487.042 59.8326C487.042 58.7871 487.042 57.7416 487.042 56.6961C487.042 55.6506 487.172 54.4744 486.78 53.5595C486.127 51.5992 484.166 50.1616 482.075 50.2923C479.983 50.2923 478.023 51.8606 477.5 53.8209C477.238 54.7357 477.369 55.912 477.369 56.9575C477.369 58.003 477.369 59.0485 477.369 60.094C477.369 64.2761 477.369 68.3275 477.369 72.2482C477.369 79.9589 477.369 86.8854 477.238 92.7665C477.238 95.6416 477.238 98.3861 477.238 100.608C477.238 101.784 477.238 102.83 477.238 103.875C477.238 104.79 477.63 105.705 478.023 106.358C478.938 107.665 480.245 108.188 481.029 108.449C481.944 108.58 482.336 108.58 482.336 108.58C482.336 108.58 481.944 108.711 481.029 108.58C480.245 108.449 478.938 107.926 477.892 106.62C477.369 105.966 476.977 105.051 476.977 104.006C476.977 102.96 476.977 101.915 476.977 100.739C476.977 98.3861 476.977 95.7723 476.977 92.8971C476.977 87.0161 476.977 80.0896 476.846 72.3789C476.846 68.4582 476.846 64.4068 476.846 60.2247C476.846 59.1792 476.846 58.1337 476.846 57.0882C476.846 56.5654 476.846 56.0426 476.846 55.5199C476.846 54.9971 476.846 54.3437 476.977 53.8209C477.5 51.5992 479.722 49.7695 482.075 49.7695C483.251 49.7695 484.427 50.0309 485.342 50.6844C486.257 51.3378 487.042 52.3833 487.434 53.4288C487.565 53.9516 487.695 54.6051 487.695 55.1278C487.695 55.6506 487.695 56.1733 487.695 56.6961C487.695 57.7416 487.695 58.7871 487.695 59.8326C487.695 64.0147 487.695 68.0661 487.695 71.9868C487.695 79.6975 487.695 86.624 487.565 92.5051C487.565 95.3802 487.565 98.1247 487.565 100.346C487.565 101.523 487.565 102.568 487.565 103.614C487.565 104.659 487.172 105.574 486.78 106.227C485.865 107.665 484.558 108.188 483.774 108.449C482.859 108.711 482.336 108.58 482.336 108.58Z" fill="#263238"/>
    <path d="M464.298 12C464.298 12 464.69 12 465.344 12C466.128 12 467.174 12 468.612 12.1307C469.265 12.1307 470.18 12.1307 470.964 12.2614C471.879 12.3921 472.794 12.5228 473.84 12.6534C474.886 12.7841 476.062 12.9148 477.238 13.1762C478.415 13.4376 479.722 13.8297 481.029 14.091C486.258 15.3979 492.662 17.7503 499.198 22.0631C505.734 26.2452 512.531 32.2569 518.021 40.3597C523.38 48.4624 527.562 58.7869 528.739 70.2876C528.87 73.1628 529.131 76.038 528.87 79.0438C528.739 80.4814 528.739 82.0497 528.608 83.4873C528.347 84.9249 528.216 86.4932 527.955 88.0614C526.778 94.0732 524.948 100.216 521.811 105.966C518.805 111.716 514.883 117.205 510.178 122.041C505.341 126.746 499.721 130.928 493.316 134.064C487.042 137.331 480.114 139.553 472.794 140.337C470.964 140.729 469.134 140.729 467.304 140.86C465.474 140.991 463.644 140.991 461.815 140.991C458.155 140.86 454.364 140.337 450.704 139.553C442.731 137.854 435.28 134.587 428.614 130.274L429.267 130.405C421.686 133.411 414.105 136.417 406.785 139.423L405.478 139.945L405.87 138.508C408.092 130.274 410.314 122.302 412.406 114.461L412.536 115.114C406.262 106.75 402.21 97.2097 400.511 87.6694C399.726 82.9645 399.334 78.129 399.596 73.6856C399.727 71.3331 399.857 69.1114 400.249 66.8897C400.38 65.8442 400.641 64.668 400.772 63.6225C401.034 62.5769 401.295 61.5314 401.556 60.4859C406.131 43.3655 416.458 30.8193 426.784 23.7621C431.882 20.1028 436.979 17.489 441.685 15.9207C442.861 15.5286 443.907 15.1366 445.083 14.7445C446.129 14.4831 447.306 14.2217 448.221 13.9603C449.266 13.699 450.181 13.4376 451.096 13.1762C452.011 13.0455 452.926 12.9148 453.841 12.7841C455.54 12.5228 456.978 12.2614 458.285 12.2614C459.592 12.2614 460.638 12.1307 461.553 12.1307C462.337 12.1307 462.991 12.1307 463.514 12.1307C464.167 12 464.298 12 464.298 12C464.298 12 464.037 12 463.644 12.1307C463.122 12.1307 462.468 12.2614 461.684 12.2614C460.769 12.2614 459.723 12.3921 458.416 12.5228C457.109 12.6534 455.671 12.9148 453.972 13.1762C447.306 14.3524 437.502 16.9662 427.307 24.4155C417.242 31.6035 407.046 43.8883 402.864 60.4859C402.602 61.5314 402.341 62.5769 402.079 63.6225C401.949 64.668 401.818 65.7135 401.556 66.8897C401.164 69.1114 401.034 71.2025 400.903 73.5549C400.641 77.9983 401.034 82.7032 401.818 87.2773C403.517 96.5563 407.438 105.966 413.582 114.069L413.843 114.33L413.713 114.591C411.621 122.302 409.399 130.405 407.177 138.638L406.262 137.854C413.582 134.848 421.032 131.843 428.744 128.837L429.137 128.706L429.398 128.967C435.803 133.149 443.123 136.417 450.965 137.985C454.495 138.769 458.155 139.161 461.815 139.292C463.644 139.423 465.474 139.292 467.174 139.161C469.004 139.03 470.703 139.03 472.533 138.769C479.591 137.985 486.388 135.763 492.532 132.627C498.675 129.49 504.296 125.439 509.001 120.865C513.707 116.16 517.498 110.801 520.504 105.182C523.51 99.5621 525.34 93.5504 526.517 87.6694C526.778 86.2318 527.04 84.6635 527.17 83.2259C527.432 81.7883 527.301 80.22 527.432 78.7825C527.693 75.9073 527.432 73.0321 527.301 70.1569C526.255 58.9176 522.203 48.7238 516.975 40.7517C511.616 32.7797 504.949 26.7679 498.544 22.5859C492.14 18.2731 485.865 15.9207 480.637 14.4831C479.33 14.091 478.153 13.8297 476.977 13.4376C475.801 13.3069 474.755 13.0455 473.709 12.9148C472.664 12.7841 471.749 12.6534 470.834 12.3921C469.919 12.2614 469.134 12.2614 468.481 12.2614C467.174 12.1307 465.997 12.1307 465.213 12C464.69 12.1307 464.298 12 464.298 12Z" fill="white"/>
    <path d="M465.866 215.876C463.644 209.08 467.696 184.772 462.337 184.772C455.54 184.772 457.501 212.217 457.501 214.7C457.501 217.052 453.971 217.183 454.102 214.961C454.233 211.825 455.409 180.328 448.612 180.851C444.822 181.113 445.344 188.039 445.344 188.039C445.344 188.039 447.436 219.535 444.168 219.666C440.9 219.797 439.855 201.5 439.593 194.966C439.332 188.823 436.717 186.34 433.842 188.431C430.835 190.653 431.62 209.08 431.75 215.353C431.881 221.496 432.665 238.616 425.476 230.252C418.287 222.018 409.791 218.228 406.785 218.882C403.778 219.405 403.647 223.848 406.785 225.286C409.268 226.462 412.797 229.598 415.411 232.082C417.503 234.173 419.071 236.656 420.64 239.139C421.816 240.968 423.777 244.497 424.953 249.594C426.391 255.475 430.313 260.441 435.672 263.316L435.28 274.817L468.48 271.942L469.134 250.117C469.526 233.519 472.402 222.28 474.101 212.347C476.846 196.534 474.885 196.011 472.925 196.142C468.611 196.403 468.088 222.541 465.866 215.876Z" fill="#FFBE9D"/>
    <path d="M465.866 237.31C465.866 237.44 464.036 237.44 461.291 238.486C458.546 239.401 455.017 241.622 452.664 245.412C452.011 246.458 451.488 247.503 451.096 248.418L450.834 248.941L450.573 248.549C447.828 246.196 444.952 244.89 442.861 243.975C440.77 243.191 439.462 242.929 439.462 242.799C439.462 242.668 440.9 242.799 442.992 243.583C445.214 244.236 448.089 245.674 450.965 248.026L450.311 248.157C450.704 247.111 451.226 245.935 451.88 244.89C453.056 242.929 454.756 241.361 456.324 240.315C457.893 239.139 459.592 238.486 461.03 237.963C462.468 237.44 463.644 237.44 464.428 237.31C465.343 237.31 465.866 237.31 465.866 237.31Z" fill="#EFA077"/>
    <path d="M461.291 260.572C461.422 260.702 457.892 262.271 453.187 262.793C448.612 263.447 444.821 262.793 444.821 262.532C444.821 262.271 448.612 262.532 453.056 262.009C457.631 261.487 461.16 260.441 461.291 260.572Z" fill="#EFA077"/>
    <path d="M372.277 261.617C372.277 261.617 389.531 270.373 398.681 283.181C407.83 295.858 435.149 335.326 435.149 335.326L431.228 275.601L473.578 270.112C473.578 270.112 485.865 330.36 488.741 351.14C491.486 370.612 490.309 389.824 471.226 400.279C448.743 412.564 423.254 395.966 414.758 389.693C404.17 381.852 384.825 369.044 384.825 369.044L372.277 261.617Z" fill="#E0E0E0"/>
    <path d="M350.971 254.167L338.945 240.706L286.007 236.654L279.21 247.632L297.771 363.293L289.405 479.999H358.29L350.971 254.167Z" fill="#963EEE"/>
    <g opacity="0.3">
        <g opacity="0.3">
            <path opacity="0.3" d="M292.543 452.292C294.373 450.332 297.379 447.718 299.993 447.587C319.077 447.195 338.422 445.235 357.506 444.843L358.291 479.998L349.01 475.686C348.487 471.634 347.834 466.929 344.174 465.23C342.082 464.316 339.73 464.577 337.507 465.1C330.58 466.407 323.783 468.236 316.855 468.628C309.927 469.02 302.607 468.106 296.725 464.185C294.765 462.878 292.804 461.179 291.889 458.957C290.843 456.736 290.974 453.991 292.543 452.292Z" fill="black"/>
        </g>
    </g>
    <path d="M338.945 240.706L372.8 262.531L379.858 286.055L386.786 359.372L379.204 434.258L392.276 479.999H358.291L358.16 461.964L354.5 335.064L350.971 254.167L338.945 240.706Z" fill="#E0E0E0"/>
    <path d="M357.114 352.576C357.114 352.576 357.376 352.315 357.637 351.661C358.029 351.008 358.552 350.093 359.206 348.917C359.859 347.741 360.382 346.173 361.166 344.343C361.559 343.428 361.82 342.383 362.212 341.337C362.604 340.291 362.996 339.246 363.258 337.939C366.133 328.529 367.963 314.938 367.571 299.908C367.571 298.732 367.441 297.556 367.441 296.51V296.249L367.31 296.118C365.48 295.334 363.781 294.681 361.951 293.897L362.081 294.419C363.911 292.982 365.611 291.544 367.441 290.107L367.571 289.976V289.845C367.833 284.226 366.395 279.129 365.218 274.685C363.911 270.242 362.473 266.452 361.166 263.315C359.859 260.179 358.814 257.696 358.029 255.997C357.637 255.212 357.376 254.559 357.114 254.036C356.853 253.644 356.722 253.383 356.722 253.383C356.722 253.383 356.853 253.644 356.984 254.036C357.245 254.559 357.506 255.212 357.768 255.997C358.552 257.696 359.598 260.179 360.774 263.315C361.951 266.452 363.388 270.242 364.696 274.685C366.003 279.129 367.31 284.226 367.048 289.584L367.179 289.322C365.48 290.629 363.65 292.067 361.82 293.505L361.428 293.897L361.951 294.158C363.65 294.942 365.48 295.596 367.31 296.38L367.048 296.118C367.179 297.295 367.179 298.34 367.179 299.516C367.571 314.415 365.741 328.007 362.996 337.286C362.735 338.462 362.343 339.507 361.951 340.553C361.558 341.598 361.297 342.644 360.905 343.559C360.121 345.388 359.598 346.957 358.944 348.133C358.421 349.309 357.899 350.224 357.506 351.008C357.245 352.184 357.114 352.576 357.114 352.576Z" fill="#263238"/>
    <path d="M380.904 400.278C380.904 400.278 381.035 399.886 381.165 399.233C381.296 398.579 381.558 397.534 381.819 396.358C382.08 395.181 382.473 393.613 382.865 391.783C383.257 389.954 383.649 387.993 384.041 385.772C384.433 383.55 384.825 381.067 385.217 378.322C385.61 375.709 385.871 372.833 386.263 369.828C386.786 363.816 387.178 357.151 387.178 350.224C387.178 343.298 386.786 336.632 386.132 330.621C385.74 327.615 385.479 324.74 385.087 322.126C384.695 319.512 384.303 317.029 383.91 314.676C383.518 312.455 383.126 310.364 382.734 308.665C382.342 306.835 381.95 305.398 381.688 304.091C381.427 302.914 381.165 302 380.904 301.215C380.773 300.562 380.643 300.17 380.643 300.17C380.643 300.17 380.643 300.562 380.773 301.215C380.904 301.869 381.165 302.914 381.427 304.091C381.688 305.398 382.08 306.835 382.342 308.665C382.734 310.494 383.126 312.455 383.388 314.676C383.78 316.898 384.172 319.381 384.433 322.126C384.825 324.74 385.087 327.615 385.348 330.621C385.871 336.632 386.263 343.298 386.263 350.224C386.263 357.151 385.871 363.816 385.348 369.828C385.087 372.833 384.825 375.709 384.433 378.322C384.172 380.936 383.78 383.419 383.388 385.772C382.995 387.993 382.603 390.084 382.342 391.783C382.08 393.613 381.688 395.051 381.427 396.358C381.165 397.534 381.035 398.579 380.773 399.233C380.904 399.886 380.904 400.278 380.904 400.278Z" fill="#263238"/>
    <g opacity="0.3">
        <path opacity="0.3" d="M355.807 400.148C352.278 398.318 347.834 399.233 344.043 400.671C340.252 402.108 336.592 404.069 332.54 404.069C327.051 404.069 319.339 401.978 316.463 397.403C313.587 392.699 310.712 385.641 309.535 380.283C305.222 360.157 304.176 342.514 299.862 322.518C297.51 311.54 294.503 298.863 290.451 288.539C286.53 278.476 282.87 268.021 279.733 257.565C280.256 281.09 280.779 304.744 284.439 328.138C286.791 343.167 290.451 357.935 292.412 372.965C294.111 385.903 294.634 398.841 295.026 411.779L307.313 426.809L341.037 427.462L358.683 404.722L355.807 400.148Z" fill="black"/>
    </g>
    <path d="M233.461 260.571C220.52 265.537 210.848 276.646 207.841 290.237C197.907 333.888 180.915 392.045 180.653 410.864C180.261 434.78 190.718 451.116 204.443 454.122C215.161 456.475 312.933 451.116 312.933 451.116L317.508 410.341L238.297 403.023L249.146 342.513L238.428 258.61L233.461 260.571Z" fill="#E0E0E0"/>
    <path d="M238.428 258.611L260.257 249.724L285.223 236.263L285.484 237.047C282.608 241.882 279.602 250.769 280.778 256.258L299.993 356.367L295.679 429.553L289.405 480.13H226.402L249.277 426.286L238.036 325.262L238.428 258.611Z" fill="#E0E0E0"/>
    <path d="M249.8 336.371C249.8 336.371 249.669 336.632 249.669 337.025C249.538 337.547 249.408 338.201 249.277 338.985C249.016 340.815 248.493 343.167 247.97 346.173C246.924 352.315 245.486 360.679 243.918 369.828C242.349 378.976 241.042 387.34 239.996 393.483C239.474 396.488 239.212 398.841 238.82 400.67C238.689 401.455 238.559 402.108 238.559 402.631C238.559 403.023 238.428 403.284 238.559 403.284C238.559 403.284 238.689 403.023 238.689 402.631C238.82 402.108 238.951 401.455 239.081 400.67C239.474 398.841 239.866 396.488 240.389 393.483C241.434 387.471 243.003 379.107 244.571 369.828C246.14 360.549 247.578 352.185 248.493 346.173C248.885 343.167 249.277 340.815 249.538 338.985C249.669 338.201 249.669 337.547 249.8 337.025C249.8 336.632 249.8 336.371 249.8 336.371Z" fill="#263238"/>
    <path d="M273.328 243.32C273.328 243.32 273.328 243.451 273.197 243.582C273.197 243.843 273.066 243.974 272.936 244.366C272.805 245.019 272.544 245.934 272.282 247.241C271.759 249.724 271.106 253.383 270.583 257.958C270.06 262.532 269.929 268.151 270.191 274.424C270.452 280.698 271.106 287.624 272.021 294.943V295.204H272.282C274.504 295.596 276.988 296.119 279.471 296.511L279.21 296.119C278.818 297.164 278.426 298.341 278.033 299.648C275.681 308.142 276.726 316.768 278.818 323.956C281.04 331.144 284.308 337.156 287.183 342.122C290.19 346.957 292.935 350.747 294.765 353.23C295.68 354.537 296.464 355.452 296.987 356.236C297.248 356.498 297.379 356.759 297.51 357.02C297.64 357.151 297.771 357.282 297.771 357.282C297.771 357.282 297.771 357.151 297.64 357.02C297.509 356.759 297.379 356.498 297.117 356.236C296.595 355.452 295.941 354.537 295.026 353.23C293.196 350.617 290.582 346.827 287.706 341.991C284.83 337.156 281.563 331.144 279.471 323.956C277.38 316.768 276.465 308.404 278.687 300.04C278.948 298.863 279.471 297.687 279.863 296.642L279.994 296.25L279.602 296.119C277.118 295.727 274.766 295.204 272.413 294.812L272.674 295.073C271.759 287.755 270.975 280.828 270.844 274.686C270.583 268.413 270.714 262.924 271.106 258.35C271.498 253.775 272.151 250.116 272.544 247.633C272.805 246.326 273.066 245.411 273.197 244.758C273.197 244.497 273.328 244.235 273.328 243.974C273.328 243.32 273.328 243.32 273.328 243.32Z" fill="#263238"/>
    <path d="M273.328 346.042V330.098C273.328 330.098 273.066 326.177 276.465 326.961C279.733 327.745 279.21 334.018 279.21 334.018C279.21 334.018 279.863 358.327 278.426 358.065C276.988 357.804 276.465 355.974 276.465 355.974V346.565L273.328 346.042Z" fill="#963EEE"/>
    <path d="M259.603 346.957C259.603 347.088 263.394 347.35 268.099 347.35C272.805 347.35 276.596 347.219 276.596 346.957C276.596 346.696 272.805 346.565 268.099 346.565C263.394 346.696 259.603 346.827 259.603 346.957Z" fill="#263238"/>
    <path d="M227.971 270.111C227.971 270.111 228.624 270.373 229.801 270.765C230.977 271.157 232.546 271.81 234.506 272.856C238.428 274.816 243.395 278.345 247.316 283.834C248.362 285.141 249.146 286.578 249.8 287.885C250.453 289.323 250.976 290.76 251.368 292.067C252.152 294.812 252.414 297.425 252.675 299.647C252.806 301.869 252.937 303.568 252.937 304.875C252.937 306.051 252.937 306.835 252.937 306.835C252.937 306.835 253.067 306.182 253.198 304.875C253.198 303.699 253.329 301.869 253.198 299.647C253.067 297.425 252.806 294.812 252.022 291.937C251.63 290.499 251.107 289.061 250.453 287.624C249.8 286.186 248.885 284.749 247.839 283.442C243.787 277.953 238.689 274.293 234.637 272.464C232.676 271.549 230.977 270.895 229.801 270.634C228.624 270.242 227.971 270.111 227.971 270.111Z" fill="#263238"/>
    <path d="M312.934 451.117C312.934 451.117 312.934 450.856 312.934 450.333C312.934 449.81 313.065 449.026 313.195 448.111C313.457 446.151 313.718 443.276 314.11 439.747C314.895 432.559 316.071 422.365 317.378 410.342L317.64 410.734C308.751 409.95 298.817 409.166 288.229 408.251C268.884 406.552 251.238 404.984 238.559 403.938C232.154 403.285 227.187 405.245 224.05 406.813C222.481 407.597 221.305 408.382 220.521 409.035C220.129 409.296 219.867 409.558 219.737 409.688C219.606 409.819 219.475 409.95 219.475 409.95C219.475 409.95 220.782 408.512 223.919 406.683C227.056 404.984 232.154 403.023 238.559 403.546C251.369 404.592 268.884 406.029 288.229 407.728C298.817 408.643 308.751 409.558 317.64 410.342H317.901V410.603C316.463 422.627 315.287 432.821 314.502 440.008C314.11 443.537 313.718 446.412 313.457 448.373C313.326 449.287 313.195 450.072 313.195 450.594C313.065 450.856 312.934 451.117 312.934 451.117Z" fill="#263238"/>
    <path d="M291.628 452.162C291.628 452.162 291.497 451.509 291.366 450.463C291.236 449.287 291.105 447.719 291.105 445.758C290.974 441.707 290.974 436.218 291.497 430.206C292.02 424.064 292.935 418.706 293.85 414.785C294.242 412.825 294.634 411.256 295.026 410.211C295.288 409.165 295.549 408.512 295.549 408.512C295.549 408.512 295.549 409.165 295.288 410.211C295.026 411.387 294.765 412.955 294.373 414.785C293.588 418.706 292.804 424.194 292.281 430.206C291.758 436.218 291.628 441.707 291.628 445.758C291.628 447.588 291.628 449.287 291.758 450.463C291.758 451.639 291.758 452.162 291.628 452.162Z" fill="#263238"/>
    <path d="M302.869 439.486C302.869 439.486 303.261 439.355 303.784 439.355C304.437 439.355 305.352 439.617 306.267 440.27C307.182 440.924 308.097 442.231 307.967 443.93C307.836 445.498 306.921 447.197 305.222 447.981C303.392 448.634 301.562 447.981 300.516 446.805C299.34 445.629 299.209 444.06 299.601 442.884C299.862 441.708 300.647 441.054 301.17 440.662C301.692 440.27 302.085 440.27 302.085 440.27C302.085 440.27 301.823 440.532 301.3 440.924C300.908 441.316 300.385 442.1 300.124 443.015C299.862 444.06 299.993 445.367 301.039 446.282C301.954 447.197 303.653 447.72 305.091 447.197C306.529 446.674 307.444 445.106 307.444 443.799C307.574 442.361 306.79 441.316 306.006 440.662C305.222 440.009 304.307 439.748 303.784 439.617C303.261 439.486 302.869 439.486 302.869 439.486Z" fill="#263238"/>
    <path d="M285.615 235.871C285.615 235.871 285.484 236.002 285.223 236.132C284.961 236.263 284.569 236.525 283.916 236.786C282.739 237.439 281.171 238.354 278.949 239.53C274.635 241.883 268.361 245.411 260.257 249.855C251.63 253.514 241.042 257.958 228.886 263.055C222.743 265.407 217.122 269.981 213.07 276.124C210.979 279.129 209.41 282.527 208.103 286.187C206.796 289.846 205.881 293.636 205.358 297.687C199.607 322.518 192.94 351.009 186.536 381.329C185.228 387.863 183.921 394.267 182.614 400.671C182.353 402.239 182.091 403.807 181.699 405.376C181.438 406.944 181.046 408.512 180.915 410.081C180.523 413.217 180.261 416.354 180.392 419.49C180.654 425.763 182.091 431.775 184.575 437.264C185.882 440.008 187.32 442.492 189.28 444.713C191.11 446.935 193.333 448.895 195.816 450.333C200.652 453.339 206.404 454.515 211.763 454.254C217.253 454.123 222.481 453.992 227.71 453.992C237.905 453.731 247.578 453.47 256.205 453.208C273.589 452.555 287.706 452.032 297.51 451.64C302.346 451.509 306.137 451.248 308.751 451.248C310.058 451.248 310.973 451.117 311.627 451.117C312.28 451.117 312.672 451.117 312.672 451.117C312.672 451.117 312.28 451.117 311.627 451.248C310.973 451.248 309.927 451.379 308.751 451.379C306.137 451.509 302.346 451.64 297.51 451.901C287.706 452.293 273.589 452.947 256.205 453.6C247.447 453.862 237.905 454.254 227.71 454.515C222.612 454.646 217.253 454.776 211.763 454.907C206.273 455.169 200.522 453.992 195.424 450.986C192.94 449.418 190.588 447.589 188.758 445.236C186.797 442.884 185.228 440.401 183.921 437.525C181.307 432.036 180 425.894 179.739 419.49C179.608 416.354 179.739 413.086 180.261 409.95C180.523 408.382 180.784 406.813 181.046 405.245C181.307 403.677 181.569 402.108 181.961 400.54C183.137 394.136 184.444 387.733 185.882 381.198C192.287 350.878 198.822 322.388 204.704 297.557C205.227 293.505 206.142 289.585 207.449 285.925C208.757 282.266 210.456 278.737 212.547 275.731C216.599 269.589 222.481 264.884 228.625 262.532C240.781 257.435 251.369 253.122 260.126 249.463C268.23 245.15 274.504 241.621 278.818 239.269C280.909 238.093 282.609 237.178 283.785 236.655C284.308 236.394 284.7 236.132 285.092 236.002C285.484 235.871 285.615 235.871 285.615 235.871Z" fill="#263238"/>
    <path d="M395.412 340.814H365.479V350.093H395.412V340.814Z" fill="#263238"/>
    <path d="M505.864 358.066L406.393 464.056L309.405 464.579L307.183 460.266L402.733 356.629L505.864 358.066Z" fill="#263238"/>
    <path d="M411.882 356.629C411.882 356.629 418.287 356.629 420.248 358.85C422.47 361.595 426.784 367.606 417.372 383.028C413.582 389.17 395.282 410.473 387.701 432.298C380.642 452.685 383.91 459.351 383.91 459.351L453.841 457.129L455.148 454.646C455.148 454.646 485.604 372.311 477.5 356.629C473.97 349.441 411.36 354.015 411.882 356.629Z" fill="#E0E0E0"/>
    <path d="M465.605 455.038L390.315 455.692C389.4 436.611 396.067 422.758 405.87 406.422C409.661 400.149 414.758 394.79 418.549 388.517C422.47 381.983 424.823 374.403 425.346 366.823C425.477 363.817 425.346 360.419 423.516 358.067C421.686 355.714 414.889 355.453 412.013 356.76C412.013 356.76 416.327 353.231 423.124 352.708C429.267 352.186 478.938 352.578 488.218 352.578C489.264 352.578 493.839 353.1 494.754 353.623C501.551 357.152 502.858 366.3 501.943 372.965C501.028 379.238 497.107 385.119 492.27 391.785C490.833 393.745 489.525 395.705 488.349 397.666C483.251 406.553 469.004 431.514 466.52 440.14C464.298 447.197 465.605 455.038 465.605 455.038Z" fill="#FAFAFA"/>
    <path d="M465.605 454.907C459.593 454.907 453.58 455.038 447.436 455.038C435.934 455.169 424.301 455.169 412.798 455.3C407.962 455.3 403.125 455.43 398.289 455.43C396.72 455.43 395.021 455.43 393.453 455.43C392.668 455.43 391.492 455.692 390.708 455.43C390.577 455.43 390.315 455.43 390.315 455.43C390.315 455.43 390.446 453.993 390.446 453.862C390.446 453.209 390.446 452.555 390.446 451.902C390.446 450.595 390.446 449.288 390.577 448.112C390.838 443.276 391.753 438.31 393.06 433.605C395.805 424.065 400.642 415.309 405.739 406.944C408.484 402.37 412.014 398.188 415.151 393.875C418.157 389.693 420.771 385.381 422.601 380.545C424.3 375.84 425.477 370.743 425.608 365.777C425.738 362.51 425.215 358.066 421.817 356.629C420.248 355.975 418.549 355.845 416.85 355.714C415.674 355.714 413.19 355.583 412.144 356.367C411.883 356.629 412.014 356.629 412.275 356.629C412.406 356.629 412.667 356.367 412.667 356.367C413.19 355.975 413.713 355.714 414.236 355.453C416.066 354.407 418.026 353.754 419.987 353.231C424.039 352.316 428.483 352.577 432.535 352.577C445.476 352.447 458.286 352.577 471.226 352.577C476.193 352.577 481.16 352.577 486.127 352.708C488.48 352.708 490.833 352.839 493.055 353.362C496.976 354.146 499.59 358.197 500.767 361.726C502.074 365.516 502.205 369.828 501.42 373.88C500.375 378.977 497.63 383.551 494.754 387.733C492.14 391.523 489.395 395.182 487.042 399.234C485.474 401.978 483.905 404.853 482.206 407.598C478.415 414.394 474.755 421.19 471.226 428.116C468.22 434.128 465.344 440.009 464.952 446.674C464.821 449.419 464.821 452.294 465.213 455.038C465.213 455.3 465.605 455.169 465.475 454.907C464.429 447.981 465.475 441.185 468.22 434.912C471.226 428.116 474.624 421.712 478.154 415.178C481.291 409.297 484.689 403.416 487.957 397.665C492.793 389.301 500.636 381.852 501.812 371.789C502.466 365.516 501.028 356.106 494.362 353.231C492.271 352.316 489.395 352.185 487.173 352.185C485.343 352.185 483.513 352.185 481.683 352.185C469.004 352.055 456.325 352.055 443.646 352.055C438.156 352.055 432.666 352.055 427.307 352.185C422.34 352.316 417.634 352.708 413.19 355.322C412.536 355.714 412.014 356.106 411.491 356.498C411.36 356.629 411.491 356.89 411.621 356.759C414.366 355.714 417.896 355.714 420.51 356.629C424.431 357.936 424.954 362.641 424.693 366.169C424.3 374.795 421.425 383.159 416.719 390.347C414.366 393.875 411.752 397.143 409.138 400.541C406.785 403.808 404.694 407.206 402.602 410.604C398.942 417.007 395.544 423.542 393.191 430.599C390.446 438.702 389.27 447.066 389.662 455.561C389.662 455.692 389.793 455.692 389.793 455.692C398.289 455.561 406.785 455.561 415.281 455.43C428.745 455.3 442.339 455.169 455.802 455.038C458.939 455.038 461.945 455.038 465.083 454.907C465.736 455.3 465.736 454.907 465.605 454.907Z" fill="#263238"/>
    <path d="M461.031 439.355C461.031 439.486 447.698 439.747 431.359 439.747C415.02 439.747 401.688 439.616 401.688 439.355C401.688 439.224 415.02 438.963 431.359 438.963C447.829 439.094 461.031 439.224 461.031 439.355Z" fill="#263238"/>
    <path d="M462.73 429.423C462.73 429.554 449.397 429.815 433.058 429.815C416.719 429.815 403.387 429.685 403.387 429.423C403.387 429.293 416.719 429.031 433.058 429.031C449.528 429.162 462.73 429.293 462.73 429.423Z" fill="#263238"/>
    <path d="M470.703 418.837C470.703 418.968 457.37 419.229 441.031 419.229C424.692 419.229 411.36 419.099 411.36 418.837C411.36 418.707 424.692 418.445 441.031 418.445C457.501 418.445 470.703 418.707 470.703 418.837Z" fill="#263238"/>
    <path d="M475.67 409.166C475.67 409.297 462.338 409.559 445.999 409.559C429.66 409.559 416.327 409.428 416.327 409.166C416.327 408.905 429.66 408.774 445.999 408.774C462.338 408.774 475.67 408.905 475.67 409.166Z" fill="#263238"/>
    <path d="M478.938 400.279C478.938 400.41 465.605 400.671 449.266 400.671C432.927 400.671 419.595 400.54 419.595 400.279C419.595 400.017 432.927 399.887 449.266 399.887C465.605 399.887 478.938 400.017 478.938 400.279Z" fill="#263238"/>
    <path d="M486.911 388.517C486.911 388.648 473.579 388.909 457.24 388.909C440.901 388.909 427.568 388.778 427.568 388.517C427.568 388.386 440.901 388.125 457.24 388.125C473.579 388.256 486.911 388.386 486.911 388.517Z" fill="#263238"/>
    <path d="M494.493 377.409C494.493 377.539 481.16 377.801 464.821 377.801C448.482 377.801 435.149 377.67 435.149 377.409C435.149 377.278 448.482 377.017 464.821 377.017C481.291 377.017 494.493 377.147 494.493 377.409Z" fill="#263238"/>
    <path d="M493.97 366.692C493.97 366.823 480.637 367.084 464.298 367.084C447.959 367.084 434.626 366.953 434.626 366.692C434.626 366.561 447.959 366.3 464.298 366.3C480.768 366.43 493.97 366.561 493.97 366.692Z" fill="#263238"/>
    <path d="M402.733 356.629C402.733 356.629 402.864 356.76 403.125 356.89C403.386 357.152 403.779 357.413 404.301 357.805C405.347 358.72 406.916 359.896 408.746 361.464L408.876 361.595L408.746 361.726C400.642 370.613 383.126 389.432 362.735 411.257C348.749 426.679 335.155 439.878 325.352 449.288C320.515 453.993 316.463 457.913 313.718 460.527C312.411 461.834 311.235 462.749 310.45 463.533C310.058 463.794 309.797 464.056 309.666 464.317C309.535 464.448 309.405 464.579 309.405 464.579C309.405 464.579 309.535 464.448 309.666 464.317C309.928 464.056 310.189 463.794 310.45 463.533C311.235 462.749 312.28 461.703 313.588 460.397C316.332 457.652 320.254 453.862 325.09 449.027C334.763 439.486 348.226 426.156 362.343 410.865C382.734 389.04 400.38 370.221 408.615 361.595V361.856C406.654 360.288 405.216 358.981 404.171 358.066C403.648 357.674 403.386 357.282 402.994 357.021C402.864 356.76 402.733 356.76 402.733 356.629Z" fill="#455A64"/>
    <path d="M317.509 415.047H331.756C331.756 415.047 341.298 406.683 343.52 406.03C348.095 404.723 359.859 403.285 359.859 403.285L351.755 412.041C351.755 412.041 352.016 411.649 351.755 412.041C349.925 414.002 346.527 415.831 348.487 415.831C350.579 415.831 363.258 415.831 363.258 415.831C363.258 415.831 378.42 408.643 380.642 409.95C382.472 411.127 383.126 413.087 381.296 415.831C379.335 418.576 366.133 425.241 364.565 425.764L360.251 427.071L364.303 428.378L383.518 421.712C384.825 421.451 386.524 421.32 387.047 421.974C387.831 423.019 388.354 424.326 386.916 425.633C384.564 428.116 378.159 432.429 378.159 432.429C378.159 432.429 381.296 437.003 378.682 439.225C376.198 441.577 368.748 448.373 368.748 448.373C368.748 448.373 367.963 452.163 365.741 453.993C363.388 455.822 338.292 455.822 336.462 455.822C334.632 455.822 324.567 449.941 324.567 449.941L313.457 449.157L317.509 415.047Z" fill="#FFBE9D"/>
    <path d="M361.297 439.617C361.297 439.617 362.343 440.009 364.042 440.009C364.957 440.009 366.003 439.878 367.048 439.486C368.094 439.094 369.27 438.441 370.316 437.787C372.538 436.35 374.499 435.043 375.806 434.128C377.244 433.213 378.028 432.56 378.028 432.429C378.028 432.298 377.113 432.821 375.544 433.736C374.107 434.651 372.146 435.827 369.924 437.265C368.878 437.918 367.832 438.571 366.787 438.964C365.741 439.356 364.826 439.486 363.911 439.617C362.473 439.748 361.428 439.617 361.297 439.617Z" fill="#EFA077"/>
    <path d="M360.251 449.027C360.251 449.027 360.774 449.811 362.212 450.072C363.519 450.464 365.611 450.334 367.441 449.157C369.271 448.112 370.708 446.936 371.623 446.021C372.538 445.106 373.061 444.452 373.061 444.452C372.93 444.322 370.578 446.674 367.179 448.765C365.48 449.811 363.65 449.941 362.343 449.811C360.905 449.549 360.251 449.027 360.251 449.027Z" fill="#EFA077"/>
    <path d="M353.062 428.247C353.062 428.378 354.892 428.378 357.114 427.986C359.336 427.594 360.905 426.81 360.905 426.679C360.905 426.548 359.075 426.94 356.983 427.332C354.761 427.855 353.062 428.117 353.062 428.247Z" fill="#EFA077"/>
    <path d="M256.728 145.173C253.068 138.639 246.663 133.542 239.343 131.581C232.023 129.621 223.919 130.667 217.384 134.457C211.763 137.724 207.057 143.605 207.45 150.139C207.842 156.282 212.417 161.248 216.73 165.561C209.802 168.436 206.404 177.061 208.626 184.249C210.848 191.307 217.907 196.273 225.357 197.057C232.808 197.71 240.258 194.574 245.617 189.346C250.977 184.119 254.375 177.192 256.205 170.004" fill="#263238"/>
    <path d="M233.331 160.986C233.331 160.986 232.024 161.64 229.54 161.901C227.057 162.163 223.266 161.901 219.214 159.81C217.253 158.765 215.162 157.196 213.593 155.105C211.894 153.014 210.718 150.401 210.195 147.395C209.149 141.514 210.718 134.456 215.554 129.36C220.39 124.393 227.318 122.302 233.2 122.564C239.213 122.825 244.441 125.177 247.578 128.445C250.846 131.712 251.761 135.502 251.761 137.985C251.761 139.292 251.63 140.207 251.5 140.86C251.5 141.122 251.369 141.383 251.238 141.644C251.238 141.775 251.108 141.906 251.108 141.906C250.977 141.906 251.5 140.599 251.369 138.116C251.238 135.633 250.193 131.973 247.056 128.837C243.918 125.7 238.821 123.348 233.069 123.217C227.318 122.956 220.652 125.047 215.946 129.882C211.241 134.718 209.672 141.644 210.718 147.264C211.241 150.139 212.417 152.753 213.986 154.713C215.554 156.804 217.515 158.242 219.475 159.287C223.397 161.379 227.057 161.771 229.54 161.64C232.024 161.509 233.331 160.986 233.331 160.986Z" fill="#263238"/>
    <path d="M241.696 166.737C241.696 166.737 241.435 166.999 240.781 167.26C240.127 167.652 239.343 168.044 238.167 168.436C236.99 168.828 235.552 169.22 233.984 169.482C232.415 169.743 230.585 169.743 228.755 169.612C226.926 169.482 225.096 169.09 223.527 168.567C221.958 168.044 220.651 167.521 219.606 166.868C218.56 166.345 217.645 165.692 217.122 165.3C216.599 164.908 216.338 164.646 216.338 164.646C216.469 164.516 217.645 165.43 219.736 166.476C220.782 166.999 222.22 167.521 223.658 167.914C225.226 168.306 226.926 168.698 228.755 168.828C230.585 168.959 232.285 168.828 233.853 168.698C235.422 168.436 236.86 168.175 238.036 167.783C240.389 167.391 241.696 166.607 241.696 166.737Z" fill="#455A64"/>
    <path d="M207.45 151.185C207.45 151.185 207.58 150.662 207.973 149.616C208.365 148.702 209.149 147.264 210.717 146.088C212.286 144.912 214.508 144.258 217.122 143.997C219.606 143.735 222.482 143.997 225.357 144.389C231.109 145.304 236.076 147.395 239.343 149.224C241.043 150.139 242.219 151.054 243.134 151.577C244.049 152.23 244.441 152.622 244.441 152.622C244.441 152.622 243.918 152.361 243.003 151.838C242.088 151.315 240.781 150.531 239.082 149.616C235.683 147.918 230.847 145.957 225.226 145.042C222.351 144.65 219.606 144.389 217.253 144.65C214.77 144.912 212.547 145.434 211.11 146.611C209.541 147.656 208.757 148.963 208.234 149.878C207.711 150.662 207.45 151.185 207.45 151.185Z" fill="#455A64"/>
    <path d="M247.317 177.454C247.317 177.454 247.317 177.585 247.186 177.846C247.055 178.107 246.794 178.499 246.532 179.022C245.879 180.068 244.833 181.375 243.264 182.812C241.696 184.25 239.605 185.818 236.99 186.864C234.376 188.04 231.239 188.693 227.971 188.693C224.703 188.693 221.566 187.909 218.952 186.733C216.338 185.557 214.377 183.858 213.07 182.159C211.763 180.46 211.109 178.761 210.848 177.585C210.717 176.931 210.717 176.539 210.717 176.278C210.717 176.016 210.717 175.755 210.717 175.755C210.848 175.755 210.848 176.408 211.109 177.585C211.371 178.761 212.024 180.329 213.462 181.897C214.769 183.466 216.73 185.165 219.214 186.21C221.697 187.386 224.703 188.04 227.971 188.04C231.108 188.04 234.245 187.386 236.729 186.341C239.343 185.295 241.435 183.858 243.003 182.42C246.009 179.806 247.186 177.323 247.317 177.454Z" fill="#455A64"/>
    <path d="M249.8 184.25C249.8 184.25 249.408 184.903 248.362 185.949C247.447 186.994 246.01 188.562 244.049 190.261C243.134 191.176 241.957 192.091 240.781 193.006C239.605 193.921 238.298 194.966 236.729 195.75C233.592 197.319 229.801 198.103 225.749 197.841C221.828 197.58 217.907 196.404 215.162 194.182C212.417 191.96 210.717 189.347 209.672 186.994C208.626 184.642 208.234 182.42 208.234 180.982C208.234 180.198 208.234 179.676 208.234 179.284C208.234 178.891 208.365 178.761 208.365 178.761C208.365 178.761 208.365 179.022 208.365 179.284C208.365 179.676 208.365 180.198 208.495 180.982C208.626 182.42 209.018 184.511 210.064 186.733C211.11 189.085 212.94 191.568 215.554 193.659C218.168 195.75 221.828 196.927 225.749 197.057C229.671 197.319 233.331 196.535 236.337 195.097C237.905 194.444 239.213 193.398 240.389 192.483C241.565 191.568 242.611 190.654 243.657 189.869C245.617 188.17 247.055 186.733 248.101 185.687C249.277 184.772 249.8 184.25 249.8 184.25Z" fill="#455A64"/>
    <path d="M260.78 144.388L262.741 145.826C261.956 142.559 258.296 140.468 255.029 140.86C251.761 141.252 248.885 143.473 247.055 146.349C245.225 149.224 244.441 152.491 243.918 155.758C242.872 161.247 242.35 167.128 244.572 172.225C246.794 177.322 252.414 181.373 257.774 180.067C263.133 178.76 266.139 172.879 266.923 167.39C268.1 159.418 265.878 150.923 260.78 144.388Z" fill="#963EEE"/>
    <path d="M253.329 169.219C253.46 169.349 251.238 170.526 248.101 170.395C246.663 170.264 245.356 170.003 244.441 169.611C243.526 169.219 243.265 168.565 243.265 168.435C243.395 168.435 243.657 168.827 244.572 169.088C245.487 169.349 246.663 169.611 248.101 169.611C250.977 169.872 253.199 169.088 253.329 169.219Z" fill="#263238"/>
    <path d="M255.944 159.549C255.944 159.679 253.068 159.81 249.67 159.679C246.271 159.549 243.396 159.287 243.396 159.157C243.396 159.026 246.271 158.895 249.67 159.026C253.199 159.157 255.944 159.418 255.944 159.549Z" fill="#263238"/>
    <path d="M253.853 149.224C253.853 149.485 251.892 149.224 249.67 148.963C248.493 148.832 247.578 148.963 246.794 149.093C246.01 149.224 245.618 149.485 245.618 149.355C245.618 149.224 245.879 148.963 246.663 148.701C247.448 148.44 248.493 148.178 249.67 148.309C252.153 148.44 253.853 149.093 253.853 149.224Z" fill="#263238"/>
    <path d="M267.185 122.955C267.054 117.466 272.152 113.284 277.249 111.193C282.347 109.233 287.968 108.449 292.543 105.312C296.595 102.568 299.209 98.3857 302.738 94.9878C311.104 86.493 324.175 82.9644 335.677 86.1009C347.18 89.2375 356.591 98.9085 359.467 110.409C361.428 118.251 360.121 127.399 353.977 132.626C346.788 138.638 336.2 137.331 327.181 135.371C318.031 133.541 307.705 131.712 299.993 137.07C295.418 140.337 292.804 145.565 289.928 150.4C287.053 155.236 283.524 160.202 278.295 162.032C272.936 163.861 265.747 160.725 265.485 155.105" fill="#263238"/>
    <path d="M267.577 125.961C268.23 130.535 264.832 134.717 261.564 137.854C258.296 141.121 254.506 144.519 253.983 149.093C253.329 154.451 257.251 159.679 256.074 165.037C255.29 168.435 252.806 170.918 251.107 174.055C248.885 178.368 248.754 183.464 250.192 188.169C251.499 192.743 253.721 203.068 256.989 206.727C265.878 216.66 279.994 225.285 293.066 228.16C306.006 231.166 319.6 231.166 332.802 230.382C343.651 229.729 356.199 230.251 365.349 215.222C370.055 207.511 372.408 197.187 374.891 188.431C376.982 180.981 378.943 172.879 376.721 165.429C375.414 161.117 372.8 157.196 371.493 152.883C369.924 147.394 370.447 141.644 369.793 135.893C368.356 123.609 360.774 112.369 350.056 106.358C339.338 100.346 325.613 99.9537 314.502 105.181" fill="#263238"/>
    <path d="M286.007 250.64C286.007 250.64 286.007 251.032 286.138 251.162C286.138 251.032 286.138 250.901 286.007 250.64Z" fill="#FFBE9D"/>
    <path d="M364.303 144.781C363.258 129.098 352.931 110.017 337.377 111.716L288.752 124.132C284.046 124.655 280.517 128.706 280.517 133.411L285.876 248.026C286.007 249.986 286.399 251.946 287.183 253.645C290.843 261.617 302.738 281.874 328.88 273.641C335.285 271.68 338.161 264.623 339.468 257.435C339.468 256.52 339.86 255.867 339.86 255.083C340.906 246.849 339.991 239.008 339.991 239.008C340.122 229.598 340.122 225.678 340.122 225.808C340.122 225.808 360.12 222.41 364.173 196.403C366.133 183.465 365.48 162.162 364.303 144.781Z" fill="#FFBE9D"/>
    <path d="M356.591 161.77C356.722 163.469 355.154 165.037 353.324 165.168C351.494 165.298 349.925 163.991 349.925 162.162C349.794 160.463 351.363 158.895 353.193 158.764C354.892 158.633 356.461 159.94 356.591 161.77Z" fill="#263238"/>
    <path d="M359.728 155.889C359.336 156.281 356.722 154.451 353.193 154.451C349.664 154.451 346.919 156.281 346.526 155.889C346.396 155.758 346.788 154.843 347.964 154.059C349.141 153.275 350.971 152.36 353.323 152.36C355.546 152.36 357.506 153.144 358.552 154.059C359.598 154.843 359.99 155.628 359.728 155.889Z" fill="#263238"/>
    <path d="M320.907 161.77C321.038 163.469 319.469 165.037 317.64 165.168C315.81 165.298 314.241 163.991 314.241 162.162C314.11 160.463 315.679 158.895 317.509 158.764C319.339 158.633 320.777 159.94 320.907 161.77Z" fill="#263238"/>
    <path d="M324.436 156.673C324.044 157.065 321.43 155.236 317.901 155.236C314.372 155.236 311.627 157.065 311.234 156.673C311.104 156.542 311.496 155.628 312.672 154.844C313.849 154.059 315.679 153.145 318.031 153.145C320.254 153.145 322.214 153.929 323.26 154.844C324.306 155.628 324.698 156.412 324.436 156.673Z" fill="#263238"/>
    <path d="M337.508 183.203C337.508 182.942 339.73 182.55 343.39 182.157C344.305 182.027 345.22 181.896 345.35 181.243C345.612 180.589 345.22 179.544 344.697 178.498C343.782 176.276 342.867 173.924 341.952 171.572C338.161 161.639 335.416 153.406 335.808 153.275C336.2 153.144 339.599 161.116 343.39 171.049C344.305 173.532 345.22 175.884 346.004 178.106C346.396 179.152 346.919 180.328 346.527 181.765C346.265 182.419 345.612 182.942 344.958 183.072C344.435 183.203 343.912 183.203 343.39 183.334C339.86 183.464 337.508 183.464 337.508 183.203Z" fill="#263238"/>
    <path d="M340.122 225.808C340.122 225.808 322.606 226.984 305.222 216.529C305.222 216.529 313.979 234.564 340.122 232.081V225.808Z" fill="#EFA077"/>
    <path d="M336.07 191.959C334.763 190.26 332.54 189.345 330.318 189.607C328.75 189.737 327.181 190.521 326.266 191.828C325.351 193.135 325.09 194.965 326.005 196.141C326.92 197.448 329.011 197.84 330.711 197.317C332.41 196.795 333.848 195.749 335.285 194.573C335.678 194.311 336.07 193.919 336.331 193.527C336.593 193.135 336.593 192.482 336.331 192.22" fill="#EFA077"/>
    <path d="M326.92 185.816C327.443 185.816 327.573 189.737 330.841 192.482C334.24 195.226 338.292 194.834 338.423 195.357C338.423 195.618 337.508 196.141 335.678 196.141C333.978 196.141 331.495 195.618 329.403 193.919C327.312 192.22 326.528 189.998 326.397 188.3C326.266 186.731 326.658 185.816 326.92 185.816Z" fill="#263238"/>
    <path d="M326.005 150.401C325.613 151.316 322.083 150.923 317.901 151.446C313.718 151.838 310.319 153.145 309.666 152.23C309.404 151.838 310.058 150.923 311.365 149.878C312.672 148.963 314.894 148.048 317.378 147.787C319.861 147.526 322.214 147.918 323.783 148.571C325.351 149.094 326.135 149.878 326.005 150.401Z" fill="#263238"/>
    <path d="M358.421 145.434C357.768 146.218 355.284 145.434 352.278 145.434C349.272 145.303 346.788 145.957 346.135 145.173C345.873 144.781 346.265 143.996 347.311 143.212C348.357 142.428 350.187 141.775 352.278 141.905C354.369 141.905 356.069 142.69 357.114 143.474C358.421 144.258 358.683 145.042 358.421 145.434Z" fill="#263238"/>
    <path d="M270.583 209.864C277.772 211.302 285.615 209.08 290.843 204.114C296.202 199.148 298.947 191.568 298.032 184.249C297.248 177.845 293.719 171.311 295.941 165.299C298.817 157.327 310.058 154.844 313.064 146.872C314.764 142.167 313.195 136.809 315.156 132.235C316.986 127.922 321.561 125.439 325.874 123.87C330.318 122.302 334.893 121.257 338.684 118.382C342.344 115.506 344.696 110.148 342.344 106.097C322.868 108.449 303.784 113.023 285.353 119.95C281.04 121.518 276.596 123.478 274.112 127.268C271.498 131.32 271.629 136.417 271.759 141.252C272.805 164.646 273.982 188.039 275.027 211.433" fill="#263238"/>
    <path d="M272.152 218.751C272.152 218.751 272.021 218.621 271.759 218.49C271.498 218.229 271.106 217.967 270.583 217.575C269.537 216.791 268.099 215.615 266.27 214.047C264.44 212.478 262.217 210.387 260.126 207.643C258.035 204.898 255.943 201.37 255.29 196.926C254.505 192.613 255.028 187.255 258.688 183.204C260.387 181.243 262.74 179.675 264.701 177.976C266.792 176.277 268.492 174.186 269.407 171.572C271.367 166.214 270.452 160.072 271.237 153.799C272.021 147.525 274.243 141.122 278.687 135.894C280.909 133.28 283.393 131.059 286.399 129.621C289.405 128.053 292.543 127.399 295.549 126.484C298.555 125.7 301.3 124.393 303.522 122.564C305.875 120.734 307.705 118.512 309.274 116.16C312.541 111.455 315.025 106.62 318.031 102.437C319.6 100.346 321.299 98.5168 323.129 96.9485C325.09 95.3802 327.05 94.3347 329.272 93.6813C333.455 92.2437 337.899 92.7664 340.906 94.8575C343.781 97.0792 344.827 100.216 344.958 102.699C345.089 105.182 344.174 107.142 343.389 108.057C342.997 108.58 342.605 108.841 342.344 109.103C342.082 109.364 341.952 109.364 341.952 109.364C341.952 109.364 342.082 109.233 342.344 108.972C342.605 108.711 342.867 108.449 343.259 107.926C344.043 106.881 344.696 105.182 344.566 102.699C344.304 100.346 343.259 97.3406 340.514 95.3802C337.769 93.4199 333.586 93.0278 329.534 94.4654C327.573 95.1189 325.482 96.2951 323.783 97.7326C321.953 99.1702 320.384 101 318.816 103.091C315.809 107.142 313.456 112.109 310.058 116.813C308.359 119.166 306.529 121.518 304.045 123.479C301.692 125.439 298.686 126.746 295.68 127.661C292.673 128.575 289.536 129.229 286.791 130.666C283.916 132.104 281.563 134.195 279.471 136.678C275.289 141.644 273.067 147.918 272.282 154.06C271.498 160.072 272.413 166.345 270.322 171.964C269.407 174.84 267.446 177.192 265.224 178.891C263.132 180.59 260.91 182.028 259.211 183.988C255.813 187.647 255.29 192.744 255.943 196.926C256.597 201.108 258.558 204.637 260.518 207.381C262.61 210.126 264.701 212.217 266.4 213.916C268.23 215.615 269.668 216.791 270.583 217.706C271.759 218.359 272.282 218.751 272.152 218.751Z" fill="#455A64"/>
    <path d="M377.898 178.107C377.767 178.107 378.813 177.453 379.466 175.623C379.989 173.794 379.858 170.788 378.028 167.913C377.113 166.475 375.937 165.038 374.63 163.339C373.454 161.77 372.146 159.81 371.624 157.458C371.101 155.236 371.101 152.753 371.362 150.27C371.624 147.786 372.146 145.303 372.408 142.69C373.061 137.462 372.277 132.496 370.709 128.183C369.14 124.001 366.787 120.472 364.434 117.989C362.082 115.506 359.86 113.807 358.291 112.762C356.722 111.716 355.677 111.324 355.677 111.193C355.677 111.193 355.938 111.324 356.33 111.455C356.722 111.716 357.507 111.977 358.291 112.5C359.99 113.415 362.343 115.114 364.696 117.597C367.049 120.08 369.532 123.609 371.101 127.922C372.8 132.234 373.584 137.331 372.931 142.69C372.539 145.303 372.146 147.786 371.754 150.27C371.493 152.753 371.493 155.105 372.016 157.327C372.539 159.549 373.715 161.378 374.891 162.946C376.068 164.515 377.244 166.083 378.159 167.521C379.989 170.527 380.12 173.663 379.466 175.493C379.074 176.408 378.682 177.061 378.29 177.453C378.159 177.976 378.028 178.107 377.898 178.107Z" fill="#263238"/>
</svg>
