<svg width="644" height="523" viewBox="0 0 644 523" fill="none" xmlns="http://www.w3.org/2000/svg">
<path opacity="0.1" fill-rule="evenodd" clip-rule="evenodd" d="M305.318 0.0875923C374.518 1.60558 434.274 33.6241 491.556 65.5166C550.775 98.4874 621.879 129.799 640.233 186.555C658.385 242.686 606.254 295.019 583.561 350.027C561.24 404.132 565.529 472.545 508.66 505.491C451.867 538.392 374.629 515.657 305.318 511.219C242.209 507.178 179.852 504.98 123.798 480.847C60.3226 453.52 21.8483 407.196 5.00012 350.027C-11.7822 293.08 17.2253 260.559 42.7532 205.844C66.435 155.086 63.8008 94.722 111.703 57.184C162.543 17.3441 235.043 -1.454 305.318 0.0875923Z" fill="#853DCD"/>
<g opacity="0.1">
<path d="M330.749 210.834H288.341C282.088 210.834 277 205.87 277 199.77V158.398C277 152.298 282.088 147.334 288.341 147.334H330.749C337.001 147.334 342.09 152.298 342.09 158.398V199.77C342.09 205.87 337.001 210.834 330.749 210.834ZM288.334 154.045C285.876 154.045 283.879 155.993 283.879 158.391V199.764C283.879 202.162 285.876 204.11 288.334 204.11H330.742C333.201 204.11 335.197 202.162 335.197 199.764V158.391C335.197 155.993 333.201 154.045 330.742 154.045H288.334Z" fill="white"/>
<path d="M330.749 303.392H288.341C282.088 303.392 277 298.427 277 292.328V250.955C277 244.856 282.088 239.892 288.341 239.892H330.749C337.001 239.892 342.09 244.856 342.09 250.955V292.328C342.09 298.427 337.001 303.392 330.749 303.392ZM288.334 246.602C285.876 246.602 283.879 248.55 283.879 250.948V292.321C283.879 294.719 285.876 296.667 288.334 296.667H330.742C333.201 296.667 335.197 294.719 335.197 292.321V250.948C335.197 248.55 333.201 246.602 330.742 246.602H288.334Z" fill="white"/>
<path d="M309.541 194.37C309.479 194.37 309.417 194.37 309.355 194.363C308.377 194.309 307.468 193.859 306.856 193.114L288.43 170.724C287.238 169.28 287.473 167.164 288.96 166.002C290.447 164.84 292.609 165.075 293.8 166.519L309.823 185.987L345.284 151.392C346.627 150.082 348.81 150.082 350.152 151.392C351.495 152.702 351.495 154.831 350.152 156.141L311.972 193.389C311.324 194.021 310.45 194.37 309.541 194.37Z" fill="#963EEE"/>
<path d="M309.541 284.677C309.479 284.677 309.417 284.677 309.355 284.671C308.377 284.617 307.468 284.167 306.855 283.421L288.429 261.032C287.238 259.588 287.479 257.472 288.96 256.31C290.447 255.148 292.609 255.383 293.8 256.827L309.823 276.301L345.284 241.706C346.627 240.396 348.809 240.396 350.152 241.706C351.495 243.016 351.495 245.145 350.152 246.455L311.971 283.69C311.324 284.321 310.45 284.677 309.541 284.677Z" fill="#963EEE"/>
<path d="M508.061 183.832H391.494C388.271 183.832 385.634 181.259 385.634 178.115C385.634 174.971 388.271 172.398 391.494 172.398H508.061C511.284 172.398 513.921 174.971 513.921 178.115C513.921 181.259 511.284 183.832 508.061 183.832Z" fill="white"/>
<path d="M508.061 206.089H391.494C388.271 206.089 385.634 203.517 385.634 200.373C385.634 197.229 388.271 194.656 391.494 194.656H508.061C511.284 194.656 513.921 197.229 513.921 200.373C513.921 203.517 511.284 206.089 508.061 206.089Z" fill="white"/>
<path d="M508.061 277.358H391.494C388.271 277.358 385.634 274.785 385.634 271.641C385.634 268.498 388.271 265.925 391.494 265.925H508.061C511.284 265.925 513.921 268.498 513.921 271.641C513.921 274.785 511.284 277.358 508.061 277.358Z" fill="white"/>
<path d="M462.305 299.472H391.5C388.278 299.472 385.641 296.899 385.641 293.756C385.641 290.612 388.278 288.039 391.5 288.039H462.305C465.528 288.039 468.165 290.612 468.165 293.756C468.165 296.899 465.528 299.472 462.305 299.472Z" fill="white"/>
</g>
<path d="M168.925 154.504C169.448 151.884 171.316 150.536 173.782 149.563C176.248 148.589 179.237 148.889 181.404 150.386C182.898 151.36 184.094 152.857 185.812 153.381C188.652 154.205 191.715 151.959 194.48 153.007C196.124 153.681 197.095 155.553 196.796 157.2C196.497 158.922 194.853 160.27 193.135 160.27C195.003 160.794 195.675 163.34 194.704 165.062C193.732 166.709 191.64 167.458 189.698 167.233C187.755 167.009 186.111 165.961 184.617 164.688C183.122 163.49 181.777 162.067 180.208 161.019C178.639 159.97 176.696 159.147 174.828 159.371C172.213 159.671 170.121 161.767 169.075 164.164C167.954 166.56 167.805 169.18 167.805 171.801C167.805 174.422 167.879 177.042 167.282 179.588C167.207 179.888 167.057 180.187 166.833 180.337C166.385 180.487 166.011 180.037 165.787 179.663C163.172 175.395 161.453 170.603 160.631 165.736C160.183 162.891 160.108 160.12 161.528 157.649C163.023 155.103 166.908 153.082 168.925 154.504Z" fill="#263238"/>
<path d="M165.04 171.577C164.89 171.502 159.81 170.154 160.108 175.395C160.407 180.562 165.563 179.214 165.563 179.064C165.563 178.914 165.04 171.577 165.04 171.577Z" fill="#FFBE9D"/>
<path d="M163.844 177.192C163.844 177.192 163.769 177.266 163.62 177.341C163.47 177.416 163.246 177.491 162.947 177.416C162.424 177.266 161.901 176.368 161.827 175.469C161.752 175.02 161.827 174.571 161.976 174.122C162.125 173.747 162.35 173.448 162.649 173.373C162.947 173.298 163.097 173.448 163.172 173.597C163.246 173.747 163.246 173.822 163.246 173.822C163.246 173.822 163.321 173.747 163.321 173.523C163.321 173.448 163.246 173.298 163.097 173.223C162.947 173.148 162.798 173.073 162.574 173.148C162.2 173.223 161.827 173.597 161.677 174.047C161.528 174.496 161.378 175.02 161.453 175.544C161.528 176.593 162.125 177.566 162.873 177.716C163.246 177.791 163.545 177.641 163.695 177.566C163.844 177.341 163.844 177.192 163.844 177.192Z" fill="#EFA077"/>
<path d="M176.921 153.456C184.692 152.932 191.416 158.847 191.865 166.709C192.238 173.224 192.537 180.262 192.462 183.781C192.313 191.419 184.692 192.542 184.692 192.542C184.692 192.542 184.841 194.788 185.065 197.634C185.439 203.249 181.105 208.116 175.501 208.341C169.972 208.566 165.339 204.223 165.115 198.682L163.994 167.982C163.695 160.42 169.449 153.98 176.921 153.456Z" fill="#FFBE9D"/>
<path d="M184.692 192.542C184.692 192.542 180.059 192.767 174.979 189.547C174.979 189.547 177.295 195.088 184.842 194.489L184.692 192.542Z" fill="#EFA077"/>
<path d="M189.323 172.025C189.323 172.624 188.875 173.073 188.277 173.148C187.679 173.148 187.156 172.699 187.156 172.175C187.156 171.576 187.605 171.127 188.202 171.052C188.8 171.052 189.323 171.501 189.323 172.025Z" fill="#263238"/>
<path d="M190.071 169.404C189.921 169.554 189.099 168.955 187.979 168.955C186.783 168.955 185.961 169.554 185.812 169.404C185.737 169.33 185.886 169.105 186.26 168.805C186.634 168.506 187.231 168.281 187.979 168.281C188.726 168.281 189.323 168.581 189.697 168.805C189.996 169.03 190.071 169.33 190.071 169.404Z" fill="#263238"/>
<path d="M178.04 171.876C178.04 172.475 177.592 172.924 176.994 172.999C176.397 172.999 175.874 172.55 175.874 172.026C175.874 171.427 176.322 170.978 176.92 170.903C177.592 170.828 178.04 171.277 178.04 171.876Z" fill="#263238"/>
<path d="M178.564 169.48C178.414 169.629 177.592 169.03 176.472 169.03C175.276 169.03 174.454 169.629 174.305 169.48C174.23 169.405 174.38 169.18 174.753 168.881C175.127 168.581 175.724 168.356 176.472 168.356C177.219 168.356 177.817 168.656 178.19 168.881C178.489 169.18 178.639 169.48 178.564 169.48Z" fill="#263238"/>
<path d="M182.748 178.239C182.748 178.165 183.496 178.09 184.616 177.94C184.915 177.94 185.214 177.865 185.214 177.64C185.289 177.416 185.139 177.116 184.99 176.742C184.691 175.993 184.392 175.244 184.093 174.496C182.898 171.276 182.001 168.58 182.151 168.505C182.3 168.431 183.346 171.051 184.542 174.271C184.84 175.095 185.139 175.843 185.364 176.592C185.438 176.967 185.662 177.341 185.513 177.79C185.438 178.015 185.214 178.165 184.99 178.239C184.766 178.314 184.616 178.314 184.467 178.314C183.496 178.314 182.748 178.314 182.748 178.239Z" fill="#263238"/>
<path d="M179.311 178.988C179.535 178.988 179.46 180.261 180.581 181.16C181.627 182.058 182.972 181.908 183.047 182.133C183.047 182.208 182.748 182.358 182.15 182.358C181.627 182.358 180.805 182.208 180.133 181.609C179.46 181.085 179.161 180.336 179.161 179.812C179.087 179.288 179.236 178.988 179.311 178.988Z" fill="#263238"/>
<path d="M178.789 165.735C178.639 166.034 177.518 165.885 176.173 166.034C174.828 166.184 173.708 166.558 173.483 166.259C173.409 166.109 173.633 165.81 174.081 165.51C174.529 165.211 175.202 164.911 176.024 164.836C176.846 164.761 177.593 164.911 178.116 165.061C178.564 165.286 178.789 165.585 178.789 165.735Z" fill="#263238"/>
<path d="M189.847 165.885C189.623 166.184 188.801 165.885 187.905 165.81C186.933 165.735 186.111 165.96 185.962 165.66C185.887 165.511 186.037 165.286 186.336 164.986C186.709 164.762 187.307 164.537 187.979 164.537C188.652 164.537 189.25 164.837 189.548 165.061C189.847 165.511 189.997 165.735 189.847 165.885Z" fill="#263238"/>
<path d="M193.21 163.191C191.716 165.362 185.887 164.464 182.973 162.292C180.956 160.72 179.088 159.597 176.622 158.998C174.978 158.623 173.11 159.072 171.691 159.971C170.271 160.869 169.075 162.217 168.104 163.64C169.897 167.608 169.15 172.251 168.328 176.519C168.254 176.968 168.104 177.492 167.731 177.792C167.133 178.316 166.087 178.016 165.489 177.417C164.518 176.519 164.069 175.171 163.77 173.898C163.098 170.978 162.799 167.983 163.322 164.988C163.77 162.068 165.041 159.147 167.058 156.976C169.599 154.205 173.26 152.708 176.996 152.483C180.732 152.334 184.468 153.532 187.531 155.553C188.951 156.527 190.296 157.725 191.118 159.222" fill="#263238"/>
<path d="M163.097 425.483L163.47 440.833C163.47 440.833 148.078 446.374 147.854 449.145L177.518 449.519L177.966 425.633L163.097 425.483Z" fill="#963EEE"/>
<path d="M163.246 434.019C163.246 434.094 163.844 434.169 164.74 434.019C165.189 433.944 165.712 433.795 166.31 433.57C166.608 433.42 166.907 433.27 167.132 433.121C167.281 433.046 167.43 432.971 167.58 432.746C167.729 432.596 167.804 432.222 167.655 431.997C167.505 431.773 167.206 431.698 167.057 431.623C166.833 431.623 166.683 431.623 166.534 431.698C166.235 431.773 165.861 431.848 165.637 431.997C165.039 432.222 164.591 432.596 164.292 432.896C163.62 433.495 163.321 434.094 163.396 434.094C163.47 434.169 163.769 433.72 164.516 433.195C164.89 432.971 165.338 432.671 165.861 432.447C166.16 432.372 166.384 432.222 166.683 432.222C166.982 432.147 167.281 432.147 167.356 432.297C167.356 432.372 167.356 432.372 167.356 432.447C167.281 432.522 167.132 432.596 167.057 432.671C166.758 432.821 166.534 432.971 166.235 433.121C165.712 433.345 165.189 433.57 164.815 433.645C163.769 433.944 163.246 433.944 163.246 434.019Z" fill="#263238"/>
<path d="M163.47 434.244C163.545 434.244 163.844 433.719 163.844 432.821C163.844 432.372 163.844 431.773 163.695 431.174C163.62 430.874 163.47 430.575 163.321 430.275C163.172 429.976 162.947 429.601 162.35 429.526C162.051 429.526 161.827 429.751 161.752 429.901C161.677 430.125 161.602 430.275 161.602 430.425C161.528 430.799 161.528 431.099 161.602 431.398C161.677 431.997 161.976 432.596 162.2 432.971C162.798 433.719 163.396 433.944 163.396 433.869C163.47 433.794 162.947 433.495 162.499 432.746C162.275 432.372 162.125 431.922 162.051 431.323C162.051 431.024 162.051 430.724 162.125 430.5C162.2 430.2 162.275 429.901 162.424 429.976C162.574 429.976 162.798 430.2 162.947 430.5C163.097 430.799 163.246 431.024 163.321 431.323C163.47 431.848 163.545 432.372 163.62 432.821C163.545 433.719 163.321 434.244 163.47 434.244Z" fill="#263238"/>
<path d="M217.045 426.084L216.447 441.433C216.447 441.433 231.764 447.199 231.989 449.969L202.325 449.895L202.25 426.009L217.045 426.084Z" fill="#963EEE"/>
<path d="M216.596 434.844C216.522 434.844 216.223 434.32 216.223 433.422C216.223 432.972 216.223 432.373 216.447 431.774C216.522 431.475 216.671 431.175 216.82 430.876C216.97 430.576 217.194 430.202 217.792 430.127C218.091 430.127 218.315 430.352 218.39 430.576C218.464 430.801 218.539 430.951 218.539 431.1C218.614 431.475 218.614 431.774 218.539 432.074C218.464 432.673 218.165 433.197 217.866 433.646C217.269 434.395 216.671 434.62 216.671 434.545C216.596 434.47 217.119 434.17 217.568 433.422C217.792 433.047 218.016 432.598 218.016 431.999C218.016 431.699 218.016 431.4 218.016 431.175C217.941 430.876 217.866 430.576 217.717 430.651C217.568 430.651 217.343 430.876 217.194 431.175C217.045 431.475 216.895 431.699 216.82 431.999C216.596 432.523 216.522 433.047 216.522 433.496C216.522 434.32 216.671 434.844 216.596 434.844Z" fill="#263238"/>
<path d="M199.56 278.276L221.976 439.711L200.233 439.336L176.098 304.034L181.403 439.935L157.567 438.513L149.124 277.303L199.56 278.276Z" fill="#263238"/>
<path d="M165.264 203.474L164.965 194.414C164.965 194.414 166.758 202.651 176.098 202.576C185.065 202.501 184.915 195.313 184.915 195.313L185.214 198.982V213.657L179.386 237.618L171.914 238.591L163.695 205.87L165.264 203.474Z" fill="#963EEE"/>
<path d="M184.094 200.629C184.094 200.629 184.094 200.704 184.019 200.854C183.944 201.003 183.869 201.153 183.645 201.378C183.346 201.827 182.749 202.426 182.001 203.025C181.18 203.624 180.133 204.148 178.863 204.523C177.593 204.897 176.173 204.972 174.679 204.822C173.184 204.597 171.84 204.148 170.644 203.624C169.448 203.1 168.477 202.426 167.73 201.827C166.908 201.228 166.31 200.704 165.937 200.329C165.712 200.18 165.563 199.955 165.488 199.88C165.414 199.805 165.339 199.73 165.339 199.73C165.339 199.73 165.414 199.805 165.488 199.88C165.638 199.955 165.787 200.105 165.937 200.329C166.385 200.704 166.983 201.228 167.73 201.752C168.552 202.351 169.523 202.95 170.644 203.474C171.84 203.998 173.184 204.448 174.604 204.672C176.099 204.822 177.518 204.747 178.714 204.373C179.984 204.073 181.03 203.549 181.777 202.95C182.599 202.426 183.122 201.827 183.496 201.378C183.869 200.854 184.019 200.629 184.094 200.629Z" fill="#263238"/>
<path d="M178.041 324.475L178.19 285.689L178.041 235.072L165.338 203.998L164.965 194.639L157.642 200.18C157.642 200.18 146.957 237.169 146.733 235.821C146.584 234.548 149.348 268.617 149.348 268.617L145.089 326.123L178.041 324.475Z" fill="#EBEBEB"/>
<path d="M188.203 198.607C186.036 194.789 184.915 195.238 184.915 195.238L185.065 196.586V199.431L184.019 211.561L177.145 234.324L178.191 284.791L180.731 324.7L212.487 322.08L201.429 267.12L205.389 229.157L205.165 208.267L188.203 198.607Z" fill="#EBEBEB"/>
<path d="M170.121 281.945C170.121 281.945 169.971 282.244 169.672 282.694C169.373 283.143 168.85 283.817 168.103 284.566C166.684 286.063 164.293 287.86 161.229 288.759C158.165 289.732 155.251 289.657 153.234 289.283C152.188 289.058 151.441 288.834 150.843 288.609C150.32 288.384 150.021 288.235 150.021 288.235C150.021 288.16 151.217 288.684 153.234 288.983C155.251 289.283 158.165 289.358 161.08 288.384C164.068 287.411 166.385 285.764 167.879 284.341C169.373 282.993 170.046 281.87 170.121 281.945Z" fill="#263238"/>
<path d="M163.545 289.208C163.47 288.684 163.321 288.16 163.171 287.71L166.534 285.764C166.534 285.764 163.844 283.742 160.033 283.967C157.941 284.116 155.774 285.24 154.28 286.213C153.831 286.438 153.458 286.662 153.159 286.962C153.084 287.037 152.935 287.111 152.86 287.186C152.711 287.336 152.561 287.486 152.412 287.636C151.739 288.459 151.44 289.508 151.216 290.556C150.843 292.802 150.768 295.123 151.067 297.37C151.216 298.268 151.515 299.242 152.337 299.466C152.86 299.541 153.308 299.242 153.682 298.867C153.682 299.841 153.831 300.814 153.981 301.787C154.13 302.536 154.504 303.435 155.251 303.435C155.998 303.435 156.447 302.536 156.596 301.712C156.895 300.065 156.97 298.418 156.82 296.771C157.269 297.594 157.044 298.568 157.194 299.541C157.343 300.44 158.016 301.488 158.987 301.338C159.884 301.188 160.183 299.99 160.257 299.092C160.481 296.696 160.78 294.3 161.005 291.904C161.528 292.727 161.453 293.701 161.826 294.599C162.2 295.498 163.396 296.172 164.068 295.498C164.516 295.048 164.442 294.375 164.367 293.776C164.143 292.128 163.844 290.706 163.545 289.208Z" fill="#963EEE"/>
<path d="M165.712 308.976C165.712 308.976 165.488 309.276 165.04 309.725C164.592 310.174 163.844 310.773 162.873 311.447C161.902 312.046 160.557 312.72 159.062 313.019C157.493 313.319 155.7 313.169 154.056 312.42C152.412 311.597 151.291 310.099 150.694 308.677C150.096 307.179 149.946 305.756 149.872 304.633C149.797 303.435 149.872 302.537 149.946 301.863C150.021 301.189 150.021 300.814 150.096 300.814C150.171 300.814 150.096 302.237 150.245 304.558C150.32 305.681 150.544 307.104 151.142 308.527C151.74 309.949 152.786 311.297 154.355 312.046C155.924 312.795 157.643 312.945 159.137 312.645C160.631 312.42 161.902 311.821 162.873 311.222C164.666 310.024 165.712 308.976 165.712 308.976Z" fill="#263238"/>
<path d="M201.578 282.395C201.578 282.395 201.429 282.545 201.13 282.769C200.831 282.994 200.308 283.219 199.71 283.518C198.44 284.042 196.572 284.566 194.48 284.641C192.388 284.716 190.52 284.267 189.249 283.743C188.577 283.518 188.129 283.219 187.755 283.069C187.456 282.844 187.232 282.769 187.232 282.694C187.232 282.62 187.979 283.069 189.249 283.443C190.52 283.892 192.388 284.267 194.405 284.267C196.423 284.192 198.291 283.743 199.561 283.293C200.831 282.769 201.503 282.32 201.578 282.395Z" fill="#263238"/>
<path d="M178.19 288.011C178.19 288.011 178.19 287.786 178.115 287.487C178.115 287.112 178.115 286.588 178.115 285.914C178.115 284.492 178.041 282.47 178.041 280.074C177.966 275.132 177.891 268.318 177.742 260.83C177.592 253.343 177.518 246.529 177.443 241.512C177.443 239.041 177.368 237.094 177.368 235.672C177.368 234.998 177.368 234.474 177.368 234.099C177.368 233.725 177.368 233.575 177.368 233.575C177.368 233.575 177.368 233.8 177.443 234.099C177.443 234.474 177.518 234.998 177.518 235.672C177.592 237.094 177.667 239.116 177.742 241.512C177.891 246.454 178.041 253.268 178.19 260.83C178.34 268.393 178.414 275.207 178.414 280.149C178.414 282.62 178.414 284.641 178.34 285.989C178.34 286.663 178.34 287.187 178.265 287.561C178.19 287.786 178.19 288.011 178.19 288.011Z" fill="#263238"/>
<path d="M157.717 206.244L159.212 207.442L158.166 214.331L175.8 232.825L159.735 211.71L161.154 206.244H157.717Z" fill="#E0E0E0"/>
<path d="M178.19 255.888L151.142 247.951L150.245 227.36L157.642 200.255C157.642 200.255 139.934 209.09 138.738 214.706C137.543 220.322 134.628 234.024 134.33 243.908C134.031 252.744 134.031 258.659 136.048 261.504C139.411 266.221 153.906 269.291 168.402 268.618C178.564 268.093 188.726 265.398 195.002 261.504" fill="#EBEBEB"/>
<path d="M176.098 233.275C176.098 233.275 176.098 233.275 176.024 233.2C175.949 233.125 175.874 233.05 175.8 232.9C175.575 232.601 175.277 232.226 174.903 231.702C174.081 230.654 172.96 229.156 171.541 227.359C168.701 223.69 164.816 218.524 160.557 212.908C160.258 212.534 160.034 212.159 159.735 211.785V211.71C160.183 209.838 160.631 207.966 161.08 206.244L161.154 206.394C159.959 206.394 158.838 206.394 157.717 206.394H157.643V206.319C157.643 204.073 157.643 202.051 157.643 200.254C159.884 198.532 161.677 197.184 162.948 196.21C163.545 195.761 164.069 195.387 164.442 195.087C164.592 194.938 164.741 194.863 164.816 194.788C164.89 194.713 164.965 194.713 164.965 194.713C164.965 194.713 164.89 194.788 164.816 194.788C164.741 194.863 164.592 194.938 164.442 195.087C164.069 195.387 163.62 195.761 163.022 196.21C161.752 197.184 159.959 198.606 157.717 200.329V200.254C157.717 202.051 157.717 204.147 157.717 206.319L157.643 206.244C158.763 206.244 159.884 206.244 161.08 206.244H161.229V206.394C160.781 208.116 160.333 209.988 159.884 211.86V211.785C160.183 212.159 160.407 212.534 160.706 212.908C164.965 218.524 168.851 223.69 171.69 227.359C173.11 229.231 174.23 230.729 174.978 231.777C175.351 232.301 175.65 232.675 175.874 232.975C175.949 233.125 176.024 233.2 176.098 233.275C176.098 233.275 176.098 233.2 176.098 233.275Z" fill="#263238"/>
<path d="M205.165 208.268C205.165 208.268 211.591 212.985 212.114 220.622C212.562 226.837 213.608 243.834 213.758 247.503C214.056 253.269 209.573 266.746 197.917 262.928C190.968 260.607 165.115 251.846 165.115 251.846L166.833 240.839L197.469 242.636L198.141 217.103L205.165 208.268Z" fill="#EBEBEB"/>
<path d="M166.534 242.111C166.534 242.111 157.866 241.138 155.849 241.662C153.906 242.111 151.142 244.507 151.142 244.507L151.216 247.951L165.189 251.845L166.534 242.111Z" fill="#FFBE9D"/>
<path d="M177.443 233.948C177.443 233.948 177.443 233.873 177.518 233.798C177.518 233.723 177.593 233.574 177.668 233.424C177.817 233.124 177.966 232.675 178.191 232.151C178.639 231.028 179.311 229.381 180.133 227.359C180.955 225.337 181.927 222.941 183.047 220.32C183.346 219.647 183.57 218.973 183.944 218.299C184.243 217.625 184.691 216.951 185.065 216.277C185.887 214.929 186.783 213.582 187.829 212.309C188.352 211.635 188.801 211.036 189.324 210.437V210.512C188.95 209.538 188.577 208.64 188.278 207.741V207.666H188.352C189.922 207.142 191.416 206.618 192.836 206.094L192.761 206.244C190.669 202.724 188.876 199.804 187.605 197.708C187.008 196.659 186.484 195.836 185.887 195.461C185.588 195.312 185.364 195.237 185.214 195.162C185.065 195.087 184.99 195.087 184.99 195.087C184.99 195.087 185.065 195.087 185.214 195.087C185.364 195.087 185.663 195.162 185.887 195.312C186.186 195.461 186.484 195.761 186.783 196.135C187.082 196.51 187.381 196.959 187.68 197.483C188.95 199.58 190.744 202.5 192.836 206.019L192.91 206.094H192.836C191.416 206.618 189.922 207.067 188.352 207.666L188.427 207.516C188.801 208.415 189.174 209.314 189.473 210.287V210.362L189.399 210.437C188.876 211.036 188.352 211.635 187.904 212.309C186.858 213.582 185.961 214.929 185.14 216.277C184.766 216.951 184.392 217.625 184.019 218.299C183.645 218.973 183.421 219.647 183.122 220.32C182.001 222.941 181.03 225.337 180.208 227.359C179.386 229.381 178.714 230.953 178.191 232.076C177.966 232.6 177.742 233.05 177.668 233.349C177.593 233.499 177.593 233.574 177.518 233.649C177.443 233.948 177.443 233.948 177.443 233.948Z" fill="#263238"/>
<path d="M208.676 260.754C208.676 260.754 208.676 260.829 208.602 260.904C208.527 260.979 208.378 261.054 208.303 261.204C208.004 261.503 207.556 261.878 206.883 262.252C206.211 262.626 205.389 263.076 204.343 263.3C203.297 263.6 202.026 263.675 200.681 263.525C200.009 263.45 199.262 263.3 198.589 263.076C197.842 262.851 197.17 262.552 196.422 262.327C194.928 261.803 193.284 261.204 191.566 260.605C188.128 259.407 184.392 258.134 180.432 256.786C172.512 254.165 165.264 251.994 160.034 250.421C157.419 249.673 155.326 248.999 153.832 248.55C153.085 248.325 152.562 248.175 152.113 248.025C151.964 247.951 151.815 247.951 151.665 247.876C151.59 247.876 151.516 247.801 151.516 247.801C151.516 247.801 151.59 247.801 151.665 247.801C151.74 247.801 151.889 247.876 152.113 247.951C152.487 248.025 153.085 248.25 153.832 248.4C155.326 248.849 157.419 249.448 160.034 250.197C165.264 251.769 172.512 253.941 180.507 256.561C184.467 257.834 188.278 259.182 191.64 260.38C193.359 260.979 195.003 261.578 196.497 262.102C197.244 262.402 197.992 262.626 198.664 262.926C199.336 263.151 200.084 263.3 200.756 263.375C202.101 263.525 203.371 263.45 204.417 263.151C205.464 262.926 206.36 262.477 206.958 262.102C207.63 261.728 208.079 261.354 208.378 261.054C208.527 260.904 208.602 260.829 208.751 260.754C208.602 260.829 208.676 260.754 208.676 260.754Z" fill="#263238"/>
<path d="M151.217 248.026C151.217 248.1 150.693 247.951 149.946 248.026C149.573 248.026 149.124 248.1 148.601 248.25C148.078 248.4 147.63 248.625 147.107 248.924C146.136 249.598 145.388 250.422 145.015 251.095C144.566 251.769 144.417 252.219 144.417 252.219C144.417 252.219 144.417 252.069 144.492 251.919C144.566 251.694 144.716 251.395 144.865 251.095C145.239 250.422 145.911 249.523 146.957 248.849C147.481 248.55 148.004 248.325 148.527 248.175C149.05 248.026 149.498 248.026 149.946 248.026C150.32 248.026 150.693 248.026 150.918 248.1C151.142 247.951 151.217 248.026 151.217 248.026Z" fill="#263238"/>
<path d="M142.698 245.33C142.698 245.33 142.698 245.33 142.698 245.255C142.698 245.181 142.773 245.106 142.848 245.031C142.997 244.806 143.371 244.656 143.819 244.582C144.267 244.507 144.79 244.507 145.388 244.582C145.986 244.656 146.658 244.806 147.256 245.031C148.526 245.48 149.572 246.229 150.245 246.828C150.544 247.127 150.768 247.427 150.917 247.651C151.067 247.876 151.142 247.951 151.142 247.951C151.142 247.951 150.843 247.502 150.17 246.903C149.498 246.304 148.452 245.63 147.181 245.181C146.509 244.956 145.911 244.806 145.313 244.731C144.716 244.656 144.193 244.582 143.744 244.656C143.296 244.731 142.997 244.881 142.848 245.031C142.773 245.181 142.698 245.33 142.698 245.33Z" fill="#263238"/>
<path d="M152.786 221.67C152.786 221.67 152.711 221.445 152.636 221.146C152.561 220.996 152.487 220.771 152.412 220.547C152.263 220.322 152.188 220.022 152.038 219.723C151.74 219.124 151.216 218.525 150.693 217.851C150.096 217.252 149.423 216.578 148.601 215.979C146.957 214.781 145.239 214.107 143.969 213.883C143.296 213.733 142.773 213.658 142.4 213.658C142.026 213.658 141.802 213.658 141.802 213.583C141.802 213.583 142.026 213.583 142.4 213.583C142.773 213.583 143.296 213.658 143.969 213.733C145.239 213.957 147.032 214.631 148.676 215.829C149.498 216.428 150.17 217.102 150.843 217.701C151.441 218.375 151.889 218.974 152.188 219.573C152.337 219.873 152.487 220.172 152.561 220.397C152.636 220.621 152.711 220.846 152.786 221.071C152.786 221.445 152.86 221.67 152.786 221.67Z" fill="#263238"/>
<path d="M204.193 253.118C204.193 253.118 204.193 253.043 204.193 252.968C204.193 252.893 204.193 252.743 204.193 252.594C204.193 252.219 204.193 251.77 204.118 251.096C204.043 249.823 203.819 247.951 202.997 245.78C202.773 245.256 202.624 244.657 202.25 244.132C201.951 243.608 201.428 243.159 200.83 242.934C199.635 242.41 198.14 242.485 196.646 242.41C193.582 242.261 190.295 242.111 186.783 241.961C178.638 241.587 171.391 241.287 166.833 241.063L166.907 240.988C166.609 242.635 166.384 243.983 166.235 244.881C166.16 245.331 166.085 245.705 166.085 245.93C166.085 246.004 166.085 246.154 166.011 246.229C166.011 246.304 166.011 246.304 166.011 246.304C166.011 246.304 166.011 246.304 166.011 246.229C166.011 246.154 166.011 246.079 166.011 245.93C166.011 245.705 166.085 245.331 166.16 244.881C166.31 243.983 166.534 242.635 166.758 240.913V240.838H166.833C171.391 241.063 178.638 241.362 186.783 241.662C190.295 241.811 193.582 241.961 196.646 242.111C197.393 242.186 198.14 242.186 198.888 242.261C199.635 242.335 200.307 242.41 200.98 242.71C201.577 243.009 202.101 243.459 202.474 243.983C202.848 244.507 202.997 245.106 203.221 245.63C203.969 247.801 204.193 249.673 204.267 250.946C204.342 251.62 204.342 252.069 204.267 252.444C204.267 252.594 204.267 252.743 204.267 252.818C204.193 253.118 204.193 253.118 204.193 253.118Z" fill="#263238"/>
<path d="M198.364 229.157C198.439 229.157 198.439 232.152 198.439 235.821C198.439 239.49 198.364 242.485 198.364 242.485C198.29 242.485 198.29 239.49 198.29 235.821C198.215 232.077 198.29 229.157 198.364 229.157Z" fill="#263238"/>
<path d="M139.037 214.031C139.037 214.031 139.037 214.106 138.962 214.256C138.888 214.406 138.813 214.63 138.738 215.005C138.589 215.679 138.365 216.577 138.066 217.85C137.543 220.321 136.945 223.99 136.198 228.482C135.824 230.729 135.451 233.275 135.077 235.97C134.853 237.318 134.778 238.741 134.703 240.163C134.629 241.586 134.554 243.158 134.479 244.656C134.405 247.726 134.33 251.02 134.405 254.465C134.405 255.288 134.479 256.187 134.554 257.011C134.554 257.46 134.629 257.909 134.703 258.284C134.778 258.733 134.853 259.107 135.002 259.556C135.301 260.38 135.675 261.204 136.198 261.878C136.721 262.552 137.468 263.151 138.29 263.525C140.009 264.423 141.877 265.022 143.745 265.621C145.613 266.22 147.63 266.67 149.573 267.044C154.056 267.943 158.464 268.467 162.723 268.617C164.89 268.691 166.983 268.617 169 268.467C171.017 268.317 173.035 268.092 174.978 267.793C178.863 267.269 182.45 266.37 185.663 265.322C188.95 264.274 191.79 262.926 194.33 261.578V261.728C189.249 259.931 185.214 258.508 182.45 257.535C181.03 257.011 179.984 256.636 179.237 256.412C178.863 256.262 178.564 256.187 178.415 256.112C178.265 256.037 178.116 256.037 178.116 256.037C178.116 256.037 178.191 256.037 178.415 256.112C178.639 256.187 178.863 256.262 179.237 256.412C179.984 256.636 181.03 257.011 182.45 257.535C185.214 258.508 189.324 259.931 194.33 261.728L194.479 261.803L194.33 261.878C191.79 263.225 188.875 264.573 185.663 265.621C182.375 266.745 178.788 267.568 174.903 268.167C172.96 268.467 170.943 268.691 168.925 268.841C166.908 268.991 164.741 269.066 162.649 268.991C158.39 268.841 153.906 268.317 149.423 267.419C147.406 266.969 145.463 266.52 143.52 265.996C141.652 265.397 139.784 264.798 138.066 263.899C137.169 263.525 136.497 262.926 135.899 262.252C135.301 261.503 134.928 260.68 134.629 259.856C134.479 259.407 134.405 258.957 134.33 258.583C134.255 258.134 134.18 257.685 134.18 257.235C134.106 256.337 134.106 255.513 134.031 254.615C133.956 251.17 134.031 247.951 134.106 244.806C134.18 243.233 134.255 241.736 134.33 240.313C134.405 238.89 134.554 237.468 134.778 236.12C135.152 233.424 135.525 230.879 135.899 228.632C136.646 224.065 137.244 220.471 137.842 218C138.29 216.577 138.514 215.604 138.664 214.93C138.738 214.63 138.813 214.406 138.888 214.181C138.962 214.106 139.037 214.031 139.037 214.031Z" fill="#263238"/>
<path d="M151.217 245.48C155.775 240.463 155.551 231.553 152.935 225.188C152.711 232.077 151.889 238.142 151.292 244.806" fill="#E0E0E0"/>
<path d="M152.935 226.462C152.935 226.462 152.935 226.537 152.935 226.687C152.935 226.836 152.935 227.061 152.86 227.286C152.785 227.885 152.785 228.633 152.711 229.607C152.561 231.554 152.337 234.249 152.113 237.169C151.889 240.09 151.665 242.785 151.515 244.732C151.44 245.705 151.366 246.454 151.366 247.053C151.366 247.278 151.291 247.502 151.291 247.652C151.291 247.802 151.291 247.877 151.291 247.877C151.291 247.877 151.291 247.802 151.291 247.652C151.291 247.502 151.291 247.278 151.291 247.053C151.291 246.529 151.366 245.705 151.44 244.732C151.515 242.785 151.739 240.09 151.963 237.094C152.188 234.099 152.487 231.479 152.636 229.532C152.711 228.558 152.785 227.81 152.86 227.211C152.86 226.986 152.935 226.761 152.935 226.612C152.935 226.537 152.935 226.462 152.935 226.462Z" fill="#263238"/>
<path d="M164.069 217.4C164.144 217.4 164.144 219.123 164.144 221.294C164.144 223.465 164.069 225.188 164.069 225.188C163.994 225.188 163.994 223.465 163.994 221.294C163.994 219.123 164.069 217.4 164.069 217.4Z" fill="#263238"/>
<path d="M161.155 230.355C161.23 231.179 161.528 231.853 161.977 232.452C162.425 232.976 163.247 233.575 163.994 233.5C163.994 233.5 165.713 233.65 166.684 232.153C167.506 230.805 167.73 227.959 167.058 226.312C166.609 225.189 165.563 224.141 164.293 224.066C162.649 223.991 161.678 225.189 161.304 226.387" fill="#E0E0E0"/>
<path d="M161.304 226.386C161.304 226.386 161.304 226.086 161.603 225.562C161.753 225.338 161.902 225.038 162.201 224.739C162.5 224.439 162.873 224.215 163.322 224.065C163.546 223.99 163.845 223.915 164.069 223.915C164.368 223.915 164.667 223.915 164.891 223.99C165.489 224.14 166.012 224.589 166.385 225.038C166.834 225.562 167.132 226.161 167.282 226.91C167.431 227.584 167.506 228.333 167.431 229.082C167.357 230.205 167.132 231.403 166.46 232.226C166.161 232.676 165.713 232.975 165.264 233.125C164.816 233.275 164.368 233.35 163.919 233.35C163.546 233.35 163.247 233.275 162.948 233.125C162.649 232.975 162.425 232.825 162.201 232.601C161.753 232.226 161.528 231.777 161.379 231.403C161.23 231.028 161.155 230.729 161.155 230.504C161.155 230.429 161.155 230.28 161.155 230.28C161.155 230.205 161.155 230.205 161.155 230.205C161.155 230.205 161.155 230.654 161.528 231.403C161.678 231.777 161.977 232.151 162.35 232.526C162.574 232.676 162.799 232.9 163.098 232.975C163.396 233.125 163.695 233.2 163.994 233.2C164.816 233.2 165.862 232.9 166.46 232.077C167.058 231.253 167.282 230.13 167.357 229.007C167.431 227.584 167.207 226.086 166.385 225.113C166.012 224.589 165.489 224.215 164.966 224.065C164.667 223.99 164.442 223.915 164.144 223.915C163.919 223.915 163.621 223.99 163.396 223.99C162.948 224.14 162.574 224.364 162.276 224.589C161.977 224.814 161.827 225.113 161.678 225.338C161.379 226.086 161.304 226.386 161.304 226.386Z" fill="#263238"/>
<path d="M160.258 230.429C160.333 231.252 160.632 231.926 161.08 232.525C161.529 233.049 162.35 233.648 163.098 233.574C163.098 233.574 164.816 233.723 165.788 232.226C166.61 230.878 166.834 228.033 166.161 226.385C165.713 225.262 164.667 224.214 163.397 224.139C161.753 224.064 160.781 225.262 160.408 226.46" fill="#E0E0E0"/>
<path d="M160.408 226.46C160.408 226.46 160.408 226.161 160.707 225.637C160.857 225.412 161.006 225.112 161.305 224.813C161.604 224.513 161.977 224.289 162.426 224.139C162.65 224.064 162.949 223.989 163.173 223.989C163.472 223.989 163.771 223.989 163.995 224.064C164.593 224.214 165.116 224.663 165.489 225.112C165.938 225.637 166.236 226.236 166.386 226.984C166.535 227.658 166.61 228.407 166.535 229.156C166.461 230.279 166.236 231.477 165.564 232.301C165.265 232.75 164.817 233.049 164.368 233.199C163.92 233.349 163.472 233.424 163.023 233.424C162.65 233.424 162.351 233.349 162.052 233.199C161.753 233.049 161.529 232.9 161.305 232.675C160.857 232.301 160.632 231.851 160.483 231.477C160.334 231.103 160.259 230.803 160.259 230.578C160.259 230.504 160.259 230.354 160.259 230.354C160.259 230.279 160.259 230.279 160.259 230.279C160.259 230.279 160.259 230.728 160.632 231.477C160.782 231.851 161.081 232.226 161.454 232.6C161.678 232.75 161.903 232.974 162.202 233.049C162.5 233.199 162.799 233.274 163.098 233.274C163.92 233.274 164.966 232.974 165.564 232.151C166.162 231.327 166.386 230.204 166.461 229.081C166.535 227.658 166.311 226.161 165.489 225.187C165.116 224.663 164.593 224.289 164.07 224.139C163.771 224.064 163.546 223.989 163.248 223.989C163.023 223.989 162.725 224.064 162.5 224.064C162.052 224.214 161.678 224.439 161.38 224.663C161.081 224.888 160.931 225.187 160.782 225.412C160.483 226.161 160.483 226.46 160.408 226.46Z" fill="#263238"/>
<path d="M161.828 226.012C161.006 225.862 160.184 226.386 159.885 227.135C159.512 227.884 159.586 228.782 159.885 229.531C160.035 229.906 160.184 230.28 160.483 230.579C160.782 230.879 161.156 231.104 161.604 231.104C162.202 231.104 162.799 230.729 163.098 230.205C163.696 229.381 163.845 228.333 163.621 227.36C163.472 226.686 162.949 226.087 162.351 226.012" fill="#E0E0E0"/>
<path d="M162.351 226.161C162.351 226.161 162.425 226.161 162.5 226.161C162.575 226.161 162.724 226.236 162.874 226.311C163.173 226.461 163.546 226.91 163.696 227.584C163.845 228.183 163.845 229.007 163.472 229.83C163.322 230.205 163.023 230.579 162.65 230.879C162.276 231.178 161.753 231.403 161.23 231.253C160.707 231.103 160.333 230.729 160.109 230.355C159.885 229.905 159.736 229.531 159.661 229.082C159.511 228.258 159.661 227.36 160.034 226.835C160.408 226.311 160.931 226.087 161.305 226.012C161.454 226.012 161.604 226.012 161.753 226.012C161.828 226.012 161.902 226.012 161.902 226.087C161.902 226.087 161.678 226.012 161.379 226.087C161.006 226.161 160.557 226.386 160.184 226.91C159.81 227.434 159.736 228.183 159.885 229.007C159.96 229.381 160.109 229.83 160.333 230.205C160.557 230.579 160.931 230.954 161.379 231.028C161.828 231.178 162.276 231.028 162.65 230.729C163.023 230.429 163.247 230.055 163.397 229.756C163.77 229.007 163.77 228.183 163.621 227.584C163.472 226.985 163.173 226.536 162.874 226.386C162.5 226.161 162.351 226.161 162.351 226.161Z" fill="#263238"/>
<path d="M163.695 232.077C163.695 232.077 163.62 231.927 163.471 231.777C163.322 231.628 163.097 231.478 162.873 231.403C162.574 231.328 162.275 231.328 162.126 231.253C161.902 231.253 161.827 231.253 161.827 231.178C161.827 231.178 161.977 231.104 162.126 231.104C162.35 231.104 162.649 231.104 162.948 231.178C163.247 231.253 163.546 231.478 163.62 231.703C163.695 231.927 163.695 232.077 163.695 232.077Z" fill="#263238"/>
<path d="M163.995 225.487C163.995 225.487 163.92 225.637 163.77 225.787C163.621 225.937 163.322 226.086 163.023 226.161C162.724 226.236 162.351 226.161 162.201 226.086C161.977 226.011 161.902 225.937 161.902 225.937C161.902 225.862 162.425 226.086 163.023 225.937C163.546 225.862 163.92 225.487 163.995 225.487Z" fill="#263238"/>
<path d="M189.249 199.131C189.249 199.131 189.324 199.131 189.398 199.206C189.473 199.206 189.623 199.281 189.697 199.355C189.996 199.505 190.37 199.73 190.818 200.179C191.715 200.928 192.686 202.201 193.209 203.923C193.732 205.57 193.956 207.143 194.106 208.266C194.181 208.865 194.181 209.314 194.255 209.614C194.255 209.913 194.255 210.138 194.255 210.138C194.255 210.138 194.181 209.988 194.181 209.614C194.106 209.239 194.106 208.79 194.031 208.266C193.882 207.143 193.583 205.57 193.06 203.923C192.611 202.276 191.64 201.003 190.818 200.254C189.847 199.505 189.249 199.131 189.249 199.131Z" fill="#263238"/>
<path d="M184.691 239.714C185.737 239.639 186.634 238.591 187.68 238.666C188.502 238.741 189.174 239.49 189.099 240.238C189.025 241.062 188.203 241.661 187.456 241.586C186.335 241.436 185.662 240.163 184.616 239.864" fill="#263238"/>
<path d="M193.732 240.613C193.433 240.613 193.06 240.613 192.761 240.538L192.836 240.163C194.181 240.388 195.227 240.163 196.123 239.489C197.244 238.666 197.917 237.243 198.215 235.221V235.147C198.29 234.323 198.44 218.599 198.44 215.604C198.44 210.961 194.33 210.287 194.181 210.287C194.031 210.287 190.295 209.614 188.352 214.705C186.26 220.021 182.973 230.354 182.748 231.552C182.748 231.702 182.674 231.852 182.599 232.077C182.225 233.649 181.553 236.869 183.645 238.666C186.036 240.762 187.904 239.939 187.979 239.864L188.128 240.163C188.054 240.238 185.961 241.137 183.421 238.89C181.105 236.869 181.852 233.499 182.225 231.927C182.3 231.702 182.3 231.552 182.3 231.403C182.524 230.205 185.812 219.872 187.904 214.481C189.996 209.089 194.106 209.763 194.181 209.763C194.255 209.763 198.739 210.437 198.739 215.454C198.739 217.925 198.589 234.173 198.44 235.072V235.147C198.141 237.243 197.394 238.816 196.198 239.639C195.526 240.313 194.704 240.613 193.732 240.613Z" fill="#263238"/>
<path d="M198.589 218.598C198.515 218.598 198.515 217.85 197.842 216.726C197.543 216.202 197.02 215.678 196.422 215.154C195.75 214.63 195.003 214.255 194.031 214.031C192.163 213.582 190.445 214.031 189.399 214.63C188.278 215.229 187.83 215.828 187.755 215.828C187.755 215.828 187.755 215.753 187.83 215.678C187.904 215.603 187.979 215.528 188.128 215.379C188.353 215.154 188.801 214.78 189.324 214.48C189.847 214.181 190.594 213.881 191.416 213.731C192.238 213.582 193.135 213.582 194.106 213.806C195.077 214.031 195.899 214.48 196.497 215.004C197.17 215.528 197.618 216.127 197.992 216.652C198.29 217.176 198.515 217.7 198.589 217.999C198.664 218.149 198.664 218.299 198.664 218.374C198.589 218.598 198.589 218.598 198.589 218.598Z" fill="#263238"/>
<path d="M208.004 248.101C207.929 248.101 207.929 247.502 207.481 246.529C207.107 245.63 206.285 244.357 205.015 243.534C204.343 243.084 203.67 242.935 202.998 242.785C202.325 242.71 201.727 242.635 201.204 242.635C200.756 242.635 200.308 242.56 200.009 242.56C199.71 242.56 199.561 242.485 199.561 242.485C199.561 242.485 199.71 242.485 200.009 242.485C200.308 242.485 200.756 242.485 201.204 242.485C201.727 242.485 202.325 242.56 202.998 242.635C203.67 242.71 204.417 242.935 205.09 243.384C206.435 244.282 207.257 245.555 207.63 246.529C207.854 246.978 207.929 247.427 207.929 247.727C208.004 247.951 208.004 248.101 208.004 248.101Z" fill="#263238"/>
<path d="M189.398 241.96C189.398 241.96 192.985 236.494 193.956 235.745C194.928 234.996 202.773 231.477 203.67 232.001C204.567 232.6 204.044 233.798 204.044 233.798C204.044 233.798 207.406 232.6 207.705 233.124C208.004 233.649 208.153 234.397 207.705 234.996C207.705 234.996 209.573 234.697 209.573 235.296C209.573 235.895 209.349 236.569 208.527 237.243C207.705 237.917 202.101 241.585 201.653 242.634L199.859 242.559L189.398 241.96Z" fill="#FFBE9D"/>
<path d="M199.859 240.388C199.859 240.388 199.934 240.238 200.009 240.014C200.158 239.789 200.308 239.489 200.607 239.19C201.13 238.516 202.101 237.692 203.222 236.944C204.343 236.27 205.538 235.82 206.285 235.446C206.659 235.296 207.033 235.147 207.257 235.072C207.481 234.997 207.63 234.922 207.63 234.997C207.63 234.997 207.481 235.072 207.257 235.147C206.958 235.296 206.659 235.371 206.285 235.521C205.463 235.895 204.343 236.345 203.222 237.019C202.101 237.692 201.204 238.516 200.607 239.19C200.158 239.864 199.859 240.388 199.859 240.388Z" fill="#EFA077"/>
<path d="M195.227 240.239C195.227 240.239 195.302 240.089 195.376 239.865C195.526 239.64 195.675 239.266 195.9 238.816C196.124 238.367 196.497 237.843 196.871 237.319C197.095 237.094 197.319 236.795 197.618 236.57C197.917 236.345 198.216 236.196 198.589 235.971C199.934 235.222 201.205 234.548 202.101 234.174C202.55 233.949 202.998 233.874 203.222 233.799C203.521 233.725 203.67 233.725 203.67 233.725C203.67 233.725 203.073 233.874 202.176 234.324C201.279 234.698 200.009 235.372 198.664 236.121C198.365 236.345 197.992 236.495 197.693 236.72C197.394 236.944 197.17 237.169 196.946 237.394C196.497 237.918 196.198 238.367 195.9 238.816C195.675 239.191 195.451 239.565 195.302 239.865C195.376 240.164 195.227 240.314 195.227 240.239Z" fill="#EFA077"/>
<path d="M353.124 420.177L349.719 448.869L356.093 448.643L359.07 420.177H353.124Z" fill="#455A64"/>
<path d="M379.635 420.064L378.425 448.982L384.807 448.757L385.581 420.064H379.635Z" fill="#455A64"/>
<path d="M408.721 420.177L412.118 448.869L405.744 448.643L402.767 420.177H408.721Z" fill="#455A64"/>
<path d="M359.642 410.333L360.215 425.196C360.215 425.196 345.37 430.457 345.208 433.216L373.996 433.458L374.06 410.261L359.642 410.333Z" fill="#963EEE"/>
<path d="M368.945 423.978C369.51 424.131 369.897 424.76 369.768 425.333C369.639 425.898 369.001 426.301 368.436 426.164C367.872 426.019 367.38 425.277 367.573 424.728C367.767 424.179 368.541 423.744 369.058 424.018" fill="#E0E0E0"/>
<path d="M373.996 433.45L374.004 431.603L346.064 431.933C346.064 431.933 345.144 432.498 345.071 433.37L373.996 433.45Z" fill="#263238"/>
<path d="M359.957 425.293C359.965 425.438 360.675 425.495 361.369 425.955C362.079 426.39 362.442 427.004 362.571 426.947C362.7 426.923 362.49 426.068 361.635 425.535C360.78 424.987 359.925 425.156 359.957 425.293Z" fill="#263238"/>
<path d="M356.907 426.559C356.875 426.696 357.488 426.938 357.972 427.535C358.473 428.116 358.594 428.77 358.739 428.762C358.876 428.786 358.965 427.955 358.352 427.221C357.747 426.478 356.907 426.422 356.907 426.559Z" fill="#263238"/>
<path d="M355.189 430.214C355.318 430.246 355.511 429.536 355.148 428.762C354.785 427.979 354.116 427.681 354.059 427.794C353.978 427.907 354.414 428.326 354.705 428.972C355.003 429.601 355.043 430.198 355.189 430.214Z" fill="#263238"/>
<path d="M360.199 421.864C360.256 421.993 360.909 421.799 361.716 421.848C362.523 421.88 363.144 422.154 363.217 422.033C363.297 421.928 362.684 421.404 361.74 421.355C360.796 421.299 360.135 421.751 360.199 421.864Z" fill="#263238"/>
<path d="M359.675 418.66C359.675 418.717 360.232 418.806 361.127 418.652C361.571 418.572 362.095 418.426 362.652 418.184C362.926 418.063 363.209 417.91 363.483 417.741C363.62 417.652 363.773 417.563 363.919 417.394C364.072 417.248 364.161 416.869 363.983 416.635C363.83 416.409 363.572 416.32 363.362 416.312C363.144 416.304 362.975 416.353 362.813 416.393C362.491 416.474 362.184 416.579 361.91 416.708C361.353 416.958 360.901 417.281 360.57 417.595C359.901 418.225 359.667 418.749 359.715 418.781C359.78 418.83 360.11 418.386 360.788 417.87C361.127 417.611 361.563 417.345 362.087 417.135C362.345 417.031 362.628 416.942 362.926 416.877C363.233 416.797 363.499 416.797 363.572 416.926C363.604 416.974 363.604 416.998 363.539 417.087C363.475 417.168 363.346 417.248 363.217 417.337C362.959 417.507 362.7 417.652 362.45 417.781C361.942 418.031 361.458 418.209 361.046 418.322C360.223 418.547 359.675 418.588 359.675 418.66Z" fill="#263238"/>
<g opacity="0.3">
<g opacity="0.3">
<g opacity="0.3">
<g opacity="0.3">
<g opacity="0.3">
<g opacity="0.3">
<path opacity="0.3" d="M374.068 419.169L374.028 422.461L360.11 422.396L360.126 419.403L374.068 419.169Z" fill="black"/>
</g>
</g>
</g>
</g>
</g>
</g>
<path d="M415.055 426.576L414.482 441.438C414.482 441.438 429.328 446.699 429.489 449.458L400.702 449.7L400.637 426.503L415.055 426.576Z" fill="#963EEE"/>
<path d="M396.352 436.516H417.789V420.177L395.634 420.064L396.352 436.516Z" fill="#263238"/>
<path d="M253.263 420.807H245.018V449.692H253.263V420.807Z" fill="#263238"/>
<path d="M444.051 420.807H435.806V449.692H444.051V420.807Z" fill="#263238"/>
<path d="M452.264 306.998H239.136V420.806H452.264V306.998Z" fill="#455A64"/>
<path d="M228.164 306.231C308.022 306.231 389.018 306.231 468.869 306.231V312.694C387.921 312.694 309.103 312.694 228.164 312.694V306.231Z" fill="#EBEBEB"/>
<path d="M228.163 306.232C228.163 306.232 228.171 306.764 228.18 307.837C228.188 308.91 228.196 310.516 228.204 312.695L228.155 312.646C252.683 312.63 351.154 312.565 468.853 312.485C468.861 312.485 468.861 312.485 468.861 312.485L468.651 312.695C468.651 310.484 468.651 308.273 468.651 306.232L468.861 306.441C402.081 306.409 341.932 306.377 298.477 306.353C276.734 306.328 259.169 306.304 247.027 306.288C240.959 306.272 236.248 306.264 233.045 306.256C231.447 306.248 230.229 306.248 229.406 306.24C228.591 306.24 228.163 306.232 228.163 306.232C228.163 306.232 228.575 306.223 229.382 306.215C230.205 306.215 231.407 306.207 232.996 306.199C236.183 306.191 240.879 306.183 246.93 306.167C259.056 306.151 276.605 306.127 298.332 306.102C341.828 306.078 402.032 306.054 468.877 306.014H469.087V306.223C469.087 308.265 469.087 310.468 469.087 312.686V312.896H468.877H468.869C351.171 312.816 252.699 312.751 228.171 312.735H228.123V312.686C228.131 310.5 228.147 308.886 228.147 307.805C228.147 306.74 228.163 306.232 228.163 306.232Z" fill="#263238"/>
<path d="M289.554 373.202C289.546 373.194 289.635 373.032 289.812 372.734C290.022 372.403 290.288 371.975 290.619 371.443C291.329 370.329 292.37 368.724 293.677 366.747C296.283 362.793 299.938 357.371 304.069 351.449C308.2 345.518 312.016 340.209 314.824 336.392C316.228 334.488 317.365 332.947 318.172 331.898C318.551 331.398 318.866 331.003 319.1 330.688C319.318 330.414 319.439 330.276 319.447 330.285C319.455 330.293 319.358 330.446 319.164 330.736C318.938 331.059 318.656 331.479 318.301 331.987C317.51 333.109 316.405 334.658 315.066 336.562C312.323 340.419 308.547 345.752 304.416 351.683C300.293 357.605 296.598 363.003 293.927 366.908C292.612 368.828 291.539 370.394 290.756 371.531C290.393 372.048 290.103 372.459 289.877 372.782C289.683 373.064 289.57 373.21 289.554 373.202Z" fill="#263238"/>
<path d="M286.27 393.575C286.173 393.51 296.291 379.261 308.853 361.76C321.423 344.251 331.686 330.123 331.783 330.188C331.88 330.252 321.762 344.493 309.192 362.002C296.63 379.511 286.359 393.64 286.27 393.575Z" fill="#263238"/>
<path d="M304.101 384.925C304.077 384.909 304.246 384.602 304.577 384.062C304.908 383.521 305.4 382.747 306.021 381.802C307.272 379.914 309.047 377.349 311.112 374.581C313.178 371.813 315.138 369.377 316.59 367.642C317.317 366.779 317.914 366.085 318.341 365.617C318.769 365.149 319.011 364.899 319.035 364.915C319.059 364.931 318.858 365.221 318.47 365.722C318.027 366.286 317.478 366.996 316.824 367.828C315.429 369.603 313.516 372.072 311.451 374.831C309.394 377.591 307.57 380.132 306.263 381.972C305.65 382.835 305.126 383.561 304.706 384.15C304.343 384.659 304.125 384.941 304.101 384.925Z" fill="#263238"/>
<path d="M330.758 246.678L327.878 253.488L336.156 254.198L337.624 249.582L330.758 246.678Z" fill="#FFBE9D"/>
<path d="M337.213 232.848C337.213 232.848 342.449 230.742 342.925 231.121C343.401 231.5 343.7 232.581 343.409 233.372C343.119 234.163 342.481 234.518 342.481 234.518L337.213 232.848Z" fill="#455A64"/>
<path d="M340.537 230.936C340.537 230.936 342.683 228.782 347.943 229.613C352.486 230.331 354.277 232.937 354.244 233.905C354.212 234.873 353.664 236.689 353.664 236.689C353.664 236.689 350.525 238.165 346.515 237.705C342.513 237.237 340.214 233.55 340.149 233.316C340.077 233.082 340.537 230.936 340.537 230.936Z" fill="#E0E0E0"/>
<path d="M340.537 230.936C340.569 230.944 340.48 231.428 340.343 232.307C340.311 232.525 340.27 232.775 340.246 233.041C340.238 233.106 340.238 233.171 340.238 233.235C340.238 233.284 340.254 233.316 340.295 233.38C340.367 233.501 340.456 233.622 340.545 233.752C340.916 234.252 341.384 234.8 341.973 235.325C343.127 236.374 344.813 237.399 346.911 237.536C348.984 237.705 351.356 237.415 353.567 236.487L353.454 236.616C353.494 236.471 353.534 236.317 353.583 236.164C353.744 235.567 353.889 234.962 353.978 234.373C354.002 234.228 354.019 234.082 354.027 233.937C354.035 233.8 354.01 233.695 353.978 233.558C353.889 233.3 353.768 233.05 353.599 232.816C352.945 231.888 352.002 231.218 351.058 230.75C349.137 229.814 347.144 229.588 345.531 229.556C343.901 229.54 342.602 229.879 341.771 230.234C340.94 230.613 340.561 230.96 340.537 230.936C340.529 230.927 340.609 230.823 340.803 230.669C340.997 230.516 341.295 230.306 341.715 230.104C342.546 229.693 343.869 229.298 345.539 229.281C347.193 229.273 349.218 229.467 351.235 230.419C352.227 230.903 353.228 231.581 353.946 232.598C354.123 232.848 354.277 233.13 354.382 233.445C354.43 233.598 354.462 233.792 354.454 233.961C354.446 234.123 354.43 234.276 354.406 234.437C354.317 235.059 354.164 235.664 354.002 236.277C353.954 236.438 353.914 236.592 353.873 236.745L353.849 236.842L353.76 236.874C351.437 237.842 349.032 238.117 346.886 237.923C344.7 237.762 342.941 236.648 341.787 235.543C341.198 234.986 340.73 234.413 340.367 233.881C340.278 233.743 340.19 233.614 340.117 233.485C340.085 233.429 340.028 233.324 340.036 233.235C340.036 233.154 340.044 233.082 340.061 233.017C340.101 232.743 340.149 232.501 340.198 232.283C340.287 231.847 340.375 231.508 340.432 231.283C340.488 231.049 340.521 230.936 340.537 230.936Z" fill="#263238"/>
<path d="M345.668 237.826C345.668 237.826 346.781 236.923 346.709 236.366C346.636 235.809 342.562 233.76 342.562 233.76C342.562 233.76 335.575 232.033 334.84 231.928C334.381 231.864 332.557 232.549 332 232.832C331.444 233.106 331.444 234.776 331.444 234.776L329.983 236.858C329.983 236.858 330.467 239.561 330.605 240.739C330.742 241.917 331.436 243.724 331.436 243.724L330.605 246.847C330.605 246.847 331.524 249.865 333.937 250.438C336.059 250.946 337.818 249.703 337.818 249.703L340.391 244.281C341.642 243.797 341.013 242.474 341.013 242.474L343.134 242.377C343.134 242.377 343.925 242.563 344.345 241.731C344.764 240.9 344.579 240.263 344.579 240.263C344.579 240.263 345.942 239.981 346.426 239.367C346.918 238.762 345.668 237.826 345.668 237.826Z" fill="#455A64"/>
<path d="M345.458 237.875C345.418 237.98 343.28 237.375 340.682 236.479C340.028 236.245 339.423 236.043 338.85 235.793C338.657 235.688 338.358 235.688 338.1 235.672C337.85 235.664 337.608 235.664 337.374 235.656C336.478 235.648 335.922 235.648 335.914 235.583C335.906 235.527 336.462 235.422 337.366 235.357C337.592 235.341 337.842 235.325 338.108 235.325C338.374 235.333 338.673 235.293 339.02 235.446C339.544 235.648 340.182 235.858 340.827 236.084C343.409 236.979 345.491 237.762 345.458 237.875Z" fill="#263238"/>
<path d="M344.587 240.263C344.587 240.319 344.103 240.384 343.321 240.328C342.538 240.271 341.473 240.061 340.319 239.86C339.158 239.666 338.093 239.496 337.334 239.303C336.576 239.109 336.124 238.916 336.14 238.867C336.156 238.811 336.624 238.899 337.391 239.012C338.149 239.133 339.214 239.254 340.384 239.448C341.562 239.65 342.595 239.908 343.353 240.037C344.111 240.166 344.587 240.198 344.587 240.263Z" fill="#263238"/>
<path d="M341.255 242.627C341.287 242.724 340.053 243.151 338.471 242.966C336.898 242.796 335.777 242.111 335.833 242.022C335.882 241.909 337.027 242.393 338.52 242.546C340.004 242.732 341.231 242.506 341.255 242.627Z" fill="#263238"/>
<path d="M340.4 244.274C340.465 244.362 339.295 245.185 337.592 245.484C336.753 245.645 335.954 245.621 335.398 245.476C334.833 245.331 334.559 245.08 334.591 245.04C334.623 244.984 334.93 245.129 335.454 245.185C335.979 245.242 336.713 245.218 337.52 245.064C339.133 244.79 340.344 244.169 340.4 244.274Z" fill="#263238"/>
<path d="M353.664 236.689C353.591 236.729 353.284 235.874 352.316 234.873C351.364 233.865 349.662 232.848 347.588 232.34C345.523 231.807 343.546 231.896 342.215 232.283C340.867 232.655 340.174 233.227 340.125 233.155C340.109 233.139 340.262 232.977 340.593 232.743C340.924 232.509 341.44 232.227 342.126 232.001C343.49 231.525 345.555 231.38 347.693 231.928C349.831 232.453 351.598 233.566 352.534 234.672C353.01 235.22 353.309 235.729 353.47 236.092C353.631 236.463 353.68 236.681 353.664 236.689Z" fill="#263238"/>
<path d="M327.208 252.253L323.997 260.071C323.997 260.071 320.326 269.261 322.174 271.755C324.021 274.256 325.966 277.677 329.855 277.395C333.735 277.12 350.202 271.472 350.202 271.472L360.836 264.727L360.861 293.863L359.602 305.869L411.908 306.53L411.722 283.026L412.263 273.417L417.168 287.658L420.274 291.466L420.75 293.056L418.54 294.072L422.074 305.869C422.074 305.869 434.837 306.062 437.242 302.916C437.266 302.883 437.29 302.851 437.314 302.819C439.904 299.414 440.622 294.944 439.283 290.885L438.597 288.796L429.367 269.229L429.101 266.276L421.977 251.381C421.977 251.381 418.645 248.234 417.257 247.403C415.869 246.572 404.308 240.093 404.308 240.093L398.16 234.574L377.675 235.841L376.174 237.995C376.174 237.995 363.709 238.802 361.861 239.536C360.013 240.279 351.042 247.032 351.042 247.032L349.315 250.308L346.217 251.333L336.39 257.247L336.664 253.527L327.208 252.253Z" fill="#E0E0E0"/>
<path d="M380.918 236.607C380.724 236.704 378.005 238.56 378.489 241.803C378.973 245.039 382.894 262.83 382.894 262.83L386.566 273.328L390.688 260.337C390.688 260.337 397.062 249.219 397.627 247.072C398.192 244.934 399.926 238.398 398.773 237.156C397.635 235.913 380.918 236.607 380.918 236.607Z" fill="#963EEE"/>
<path d="M435.838 289.118C435.798 289.191 434.975 288.667 433.482 288.263C432.014 287.86 429.811 287.674 427.592 288.416C425.366 289.159 423.72 290.627 422.784 291.829C421.832 293.04 421.485 293.96 421.412 293.919C421.388 293.911 421.452 293.677 421.622 293.266C421.791 292.862 422.09 292.289 422.55 291.644C423.445 290.361 425.132 288.788 427.463 288.013C429.787 287.238 432.078 287.489 433.571 287.973C434.321 288.215 434.902 288.489 435.281 288.715C435.66 288.949 435.854 289.094 435.838 289.118Z" fill="#263238"/>
<path d="M430.117 285.439C430.101 285.512 429.311 285.318 428.028 285.439C426.769 285.552 424.986 286.093 423.566 287.424C422.162 288.763 421.654 290.579 421.509 291.83C421.355 293.104 421.484 293.911 421.412 293.919C421.388 293.919 421.323 293.726 421.267 293.363C421.21 293 421.17 292.459 421.21 291.797C421.283 290.498 421.759 288.562 423.276 287.109C424.792 285.689 426.688 285.173 428.004 285.133C428.665 285.108 429.206 285.165 429.569 285.246C429.932 285.334 430.117 285.407 430.117 285.439Z" fill="#263238"/>
<path d="M412.682 265.889C412.803 265.889 412.851 267.615 412.674 269.729C412.504 271.835 412.359 273.538 412.246 273.538C412.125 273.538 412.085 271.811 412.254 269.697C412.424 267.591 412.569 265.889 412.682 265.889Z" fill="#263238"/>
<path d="M415.926 267.906C416.022 267.97 415.28 269.253 414.264 270.778C413.247 272.303 412.351 273.481 412.255 273.417C412.158 273.352 412.9 272.069 413.917 270.544C414.925 269.027 415.829 267.841 415.926 267.906Z" fill="#263238"/>
<path d="M413.457 260.007C413.408 259.999 413.465 259.321 413.715 258.256C413.965 257.191 414.457 255.747 415.224 254.262C415.998 252.777 416.902 251.551 417.62 250.728C418.346 249.905 418.862 249.477 418.903 249.51C419.008 249.598 417.104 251.527 415.595 254.456C414.07 257.376 413.586 260.039 413.457 260.007Z" fill="#263238"/>
<path d="M359.594 246.976C359.65 246.968 359.812 247.968 360.005 249.59C360.207 251.212 360.441 253.463 360.635 255.948C360.828 258.441 360.917 260.7 360.933 262.338C360.949 263.976 360.901 264.985 360.844 264.985C360.78 264.985 360.723 263.976 360.635 262.346C360.546 260.717 360.401 258.465 360.215 255.98C360.022 253.56 359.844 251.365 359.707 249.622C359.594 247.992 359.537 246.976 359.594 246.976Z" fill="#263238"/>
<path d="M380.515 236.898C380.523 236.906 380.378 237.027 380.119 237.285C379.869 237.543 379.482 237.923 379.167 238.536C378.869 239.149 378.627 239.972 378.619 240.957C378.611 241.449 378.691 241.965 378.78 242.522C378.869 243.079 378.966 243.676 379.063 244.297C379.885 249.275 381.346 256.174 383.484 263.928L383.653 264.541L383.161 264.146C381.499 262.823 379.853 261.338 378.24 259.765C376.126 257.707 374.173 255.617 372.374 253.576L372.261 253.447L372.374 253.31C373.318 252.188 374.23 251.107 375.117 250.05L375.254 250.373C373.181 250.244 371.22 250.122 369.381 250.001L369.139 249.985L369.227 249.759C370.131 247.468 371.269 245.548 372.277 243.853C373.294 242.167 374.238 240.731 375.02 239.553C375.811 238.383 376.448 237.479 376.892 236.866C377.102 236.583 377.271 236.357 377.409 236.172C377.53 236.018 377.594 235.938 377.602 235.946C377.61 235.954 377.562 236.035 377.457 236.204C377.336 236.39 377.183 236.632 376.989 236.922C376.553 237.584 375.956 238.504 375.206 239.666C374.448 240.852 373.528 242.304 372.535 243.998C371.551 245.701 370.438 247.629 369.566 249.88L369.413 249.646C371.253 249.751 373.221 249.864 375.287 249.977L375.674 250.001L375.424 250.3C374.544 251.357 373.633 252.446 372.697 253.568V253.302C374.504 255.335 376.448 257.417 378.554 259.466C380.168 261.031 381.798 262.508 383.444 263.823L383.113 264.041C380.991 256.271 379.579 249.34 378.829 244.345C378.74 243.724 378.651 243.127 378.57 242.562C378.49 242.005 378.409 241.465 378.433 240.957C378.457 239.94 378.732 239.093 379.063 238.471C379.409 237.85 379.821 237.479 380.087 237.237C380.224 237.116 380.337 237.035 380.41 236.979C380.466 236.922 380.515 236.89 380.515 236.898Z" fill="#263238"/>
<path d="M396.022 250.405C396.03 250.413 395.997 250.493 395.933 250.655C395.844 250.848 395.739 251.082 395.61 251.365C395.32 251.978 394.868 252.866 394.279 253.979C393.117 256.214 391.237 259.28 389.599 263.185L389.349 262.943C392.391 261.515 395.739 259.555 398.95 257.045C399.66 256.472 400.411 255.907 401.024 255.302C401.314 254.996 401.556 254.641 401.597 254.27C401.645 253.898 401.468 253.527 401.242 253.18C400.298 251.72 399.394 250.316 398.531 248.985L398.273 248.589L398.741 248.702C400.411 249.106 401.984 249.493 403.428 249.84L403.227 249.961C404.09 246.911 404.106 244.264 403.969 242.473C403.904 241.569 403.791 240.868 403.719 240.391C403.638 239.915 403.598 239.665 403.614 239.657C403.63 239.657 403.703 239.899 403.816 240.367C403.92 240.843 404.058 241.537 404.154 242.449C404.348 244.256 404.38 246.943 403.541 250.05L403.501 250.203L403.34 250.163C401.887 249.824 400.322 249.461 398.644 249.073L398.854 248.791C399.717 250.114 400.629 251.502 401.573 252.954C401.815 253.317 402.065 253.794 402 254.318C401.936 254.834 401.629 255.254 401.314 255.593C400.645 256.254 399.927 256.787 399.192 257.376C395.957 259.91 392.577 261.87 389.495 263.282L389.051 263.484L389.244 263.04C390.931 259.103 392.859 256.069 394.069 253.866C394.666 252.801 395.142 251.946 395.497 251.308C395.82 250.711 395.997 250.397 396.022 250.405Z" fill="#263238"/>
<path d="M336.228 256.537C336.253 256.529 336.333 256.787 336.454 257.247C336.575 257.715 336.729 258.385 336.89 259.224C337.213 260.902 337.584 263.258 337.584 265.889C337.584 268.543 336.721 270.908 335.664 272.287C335.147 272.989 334.623 273.465 334.227 273.748C333.832 274.03 333.59 274.143 333.582 274.127C333.526 274.054 334.478 273.522 335.422 272.118C336.382 270.738 337.164 268.463 337.164 265.889C337.172 263.299 336.85 260.959 336.599 259.273C336.341 257.594 336.164 256.553 336.228 256.537Z" fill="#263238"/>
<path d="M337.648 262.234C337.689 262.218 338.028 262.807 338.342 263.872C338.657 264.929 338.883 266.454 338.746 268.14C338.601 269.826 338.108 271.295 337.616 272.279C337.132 273.272 336.696 273.796 336.656 273.772C336.527 273.715 338.068 271.408 338.326 268.108C338.633 264.808 337.511 262.258 337.648 262.234Z" fill="#263238"/>
<path d="M360.828 264.735C360.812 264.783 360.126 264.606 359.085 264.146C358.044 263.686 356.673 262.895 355.309 261.822C353.946 260.749 352.848 259.619 352.114 258.756C351.38 257.892 350.993 257.303 351.033 257.271C351.138 257.182 352.881 259.377 355.567 261.483C358.246 263.637 360.876 264.622 360.828 264.735Z" fill="#263238"/>
<path d="M423.486 285.181C423.583 285.269 422.082 286.577 421.323 288.82C420.525 291.047 420.888 293.007 420.759 293.015C420.71 293.023 420.549 292.555 420.492 291.757C420.436 290.966 420.525 289.844 420.928 288.683C421.332 287.529 421.961 286.593 422.501 286.004C423.042 285.407 423.453 285.14 423.486 285.181Z" fill="#263238"/>
<path d="M407.874 263.097H395.545V266.51H407.874V263.097Z" fill="#FAFAFA"/>
<path d="M406.663 264.985C406.663 265.098 404.574 265.195 401.992 265.195C399.41 265.195 397.32 265.098 397.32 264.985C397.32 264.872 399.41 264.775 401.992 264.775C404.566 264.775 406.663 264.872 406.663 264.985Z" fill="#263238"/>
<path d="M398.014 222.439C398.982 219.575 399.942 216.678 400.41 213.693C400.87 210.699 400.822 207.576 399.797 204.72C399.644 204.284 398.313 201.388 397.861 201.428C397.53 201.46 398.337 204.155 398.176 204.438C396.57 207.125 396.102 210.368 396.312 213.499C396.522 216.621 397.135 219.429 398.014 222.439Z" fill="#263238"/>
<path d="M389.535 247.661C394.23 247.621 398.03 243.837 398.087 239.141L398.45 210.892C398.789 203.308 394.658 196.788 387.066 196.659L386.364 196.691C379.296 196.982 373.632 202.654 373.358 209.722C373.1 216.298 372.898 223.568 373.092 227.086C373.479 234.364 380.813 235.195 380.813 235.195C380.829 235.195 380.829 236.881 380.829 239.02C380.821 243.812 384.734 247.701 389.535 247.661Z" fill="#FFBE9D"/>
<path d="M380.813 235.18C380.813 235.18 385.412 235.26 390.172 231.984C390.172 231.984 388.115 237.552 380.829 237.197L380.813 235.18Z" fill="#995037"/>
<path d="M375.698 215.226C375.698 215.774 376.166 216.226 376.747 216.234C377.32 216.242 377.779 215.799 377.779 215.25C377.779 214.701 377.312 214.249 376.739 214.241C376.158 214.233 375.69 214.677 375.698 215.226Z" fill="#263238"/>
<path d="M375.044 212.861C375.182 212.991 375.94 212.377 377.061 212.337C378.175 212.281 379.022 212.821 379.135 212.676C379.192 212.611 379.054 212.377 378.683 212.127C378.32 211.885 377.707 211.659 377.013 211.683C376.319 211.716 375.738 211.998 375.416 212.272C375.085 212.555 374.98 212.805 375.044 212.861Z" fill="#263238"/>
<path d="M385.985 215.226C385.985 215.774 386.453 216.226 387.034 216.234C387.607 216.242 388.066 215.807 388.066 215.25C388.066 214.701 387.599 214.249 387.026 214.241C386.445 214.233 385.985 214.677 385.985 215.226Z" fill="#263238"/>
<path d="M386.025 212.668C386.162 212.797 386.921 212.184 388.042 212.144C389.155 212.087 390.003 212.628 390.116 212.483C390.172 212.418 390.035 212.184 389.664 211.934C389.301 211.692 388.687 211.466 387.994 211.49C387.3 211.522 386.719 211.805 386.396 212.079C386.065 212.361 385.952 212.612 386.025 212.668Z" fill="#263238"/>
<path d="M382.362 221.43C382.362 221.365 381.668 221.277 380.531 221.18C380.24 221.164 379.974 221.115 379.917 220.922C379.845 220.72 379.95 220.405 380.071 220.066C380.313 219.364 380.563 218.63 380.829 217.856C381.878 214.709 382.62 212.127 382.491 212.086C382.362 212.046 381.41 214.563 380.369 217.71C380.119 218.485 379.877 219.227 379.651 219.929C379.554 220.26 379.385 220.631 379.546 221.059C379.635 221.269 379.845 221.414 380.03 221.454C380.216 221.503 380.377 221.503 380.514 221.503C381.66 221.519 382.362 221.494 382.362 221.43Z" fill="#263238"/>
<path d="M385.952 208.48C386.114 208.763 387.187 208.416 388.51 208.335C389.825 208.222 390.939 208.408 391.06 208.109C391.116 207.964 390.882 207.722 390.406 207.504C389.938 207.294 389.22 207.141 388.429 207.197C387.639 207.254 386.953 207.512 386.517 207.786C386.073 208.069 385.872 208.351 385.952 208.48Z" fill="#263238"/>
<path d="M375.197 210.24C375.439 210.49 376.343 210.199 377.44 210.159C378.537 210.086 379.465 210.28 379.675 210.006C379.764 209.876 379.611 209.626 379.199 209.392C378.796 209.166 378.118 208.981 377.368 209.021C376.617 209.062 375.972 209.312 375.593 209.578C375.213 209.852 375.092 210.119 375.197 210.24Z" fill="#263238"/>
<path d="M398.087 216.307C398.208 216.25 403.025 214.62 403.073 219.607C403.121 224.593 398.103 223.609 398.095 223.464C398.087 223.318 398.087 216.307 398.087 216.307Z" fill="#FFBE9D"/>
<path d="M399.604 221.56C399.628 221.543 399.693 221.616 399.838 221.689C399.983 221.753 400.225 221.794 400.483 221.697C401.008 221.495 401.444 220.656 401.46 219.76C401.468 219.308 401.371 218.873 401.201 218.518C401.048 218.155 400.806 217.904 400.54 217.856C400.274 217.8 400.088 217.961 400.032 218.098C399.967 218.235 399.999 218.34 399.975 218.348C399.959 218.364 399.87 218.268 399.902 218.058C399.919 217.961 399.983 217.84 400.096 217.743C400.217 217.646 400.387 217.59 400.572 217.614C400.959 217.638 401.306 217.985 401.484 218.381C401.686 218.776 401.807 219.26 401.799 219.768C401.774 220.777 401.274 221.721 400.556 221.931C400.209 222.028 399.911 221.923 399.757 221.81C399.612 221.681 399.58 221.568 399.604 221.56Z" fill="#995037"/>
<path d="M376.585 201.452C375.778 201.009 378.199 198.394 380.175 197.491C383.169 196.127 387.743 195.288 390.511 196.07C393.835 197.015 396.602 198.669 398.272 201.694C399.942 204.72 400.572 208.246 400.475 211.699C400.443 212.756 400.338 213.854 399.773 214.741C399.079 215.847 397.74 216.541 397.804 218.058C397.829 218.614 397.667 219.171 397.288 219.583C396.376 220.551 395.263 219.639 394.747 218.727C393.649 216.775 393.528 214.443 393.431 212.208C393.359 210.618 393.294 208.996 393.746 207.471C393.988 206.64 394.383 205.858 394.577 205.011C394.771 204.171 394.747 203.211 394.222 202.525C394.133 202.412 393.996 202.275 393.819 202.114C392.407 200.879 390.43 200.508 388.663 201.138C385.855 202.13 381.063 203.615 379.812 202.663C378.013 201.291 377.577 200.403 377.577 200.403L376.585 201.452Z" fill="#263238"/>
<path d="M385.436 222.035C385.5 222.043 385.541 222.318 385.452 222.745C385.363 223.173 385.073 223.762 384.556 224.206C384.048 224.658 383.499 224.9 383.104 225.045C382.709 225.19 382.443 225.23 382.418 225.166C382.386 225.101 382.596 224.932 382.943 224.714C383.29 224.488 383.774 224.206 384.218 223.81C385.113 223.052 385.283 221.995 385.436 222.035Z" fill="#263238"/>
<path d="M399.007 273.819H366.944V276.547H399.007V273.819Z" fill="#263238"/>
<path d="M381.991 239.35H378.376V236.405C378.376 235.639 378.998 235.018 379.764 235.018H380.611C381.378 235.018 381.999 235.639 381.999 236.405V239.35H381.991Z" fill="#455A64"/>
<path d="M391.568 239.35H387.953V236.236C387.953 235.566 388.502 235.018 389.171 235.018H390.349C391.019 235.018 391.568 235.566 391.568 236.236V239.35Z" fill="#455A64"/>
<path d="M392.915 257.263C392.915 259.03 389.632 260.458 385.59 260.458C381.547 260.458 378.264 259.03 378.264 257.263C378.264 255.496 381.547 254.067 385.59 254.067C389.632 254.067 392.915 255.496 392.915 257.263Z" fill="#455A64"/>
<path d="M389.962 254.003H380.861V294.919H389.962V254.003Z" fill="#263238"/>
<path d="M380.861 254.003L374.786 248.961L374.601 240.698L395.868 240.763L395.941 248.985L389.954 254.003H380.861Z" fill="#455A64"/>
<path d="M383.096 240.714H377.279C377.279 239.891 377.949 239.222 378.772 239.222H381.604C382.427 239.222 383.096 239.891 383.096 240.714Z" fill="#263238"/>
<path d="M392.819 240.747H386.88C386.88 239.908 387.566 239.222 388.405 239.222H391.294C392.141 239.222 392.819 239.899 392.819 240.747Z" fill="#263238"/>
<path d="M395.772 244.223C395.772 244.336 391.06 244.433 385.243 244.433C379.426 244.433 374.714 244.336 374.714 244.223C374.714 244.11 379.426 244.014 385.243 244.014C391.06 244.014 395.772 244.11 395.772 244.223Z" fill="#263238"/>
<path d="M395.941 248.984C395.941 249.097 391.221 249.194 385.396 249.194C379.57 249.194 374.851 249.097 374.851 248.984C374.851 248.871 379.57 248.774 385.396 248.774C391.221 248.774 395.941 248.871 395.941 248.984Z" fill="#263238"/>
<path d="M377.884 280.129H373.568V290.15H377.884V280.129Z" fill="#263238"/>
<path d="M380.854 281.388H377.885V289.029H380.854V281.388Z" fill="#455A64"/>
<path d="M373.568 282.728H369.485V287.972H373.568V282.728Z" fill="#455A64"/>
<path d="M392.927 290.225H397.243V280.203H392.927V290.225Z" fill="#263238"/>
<path d="M389.964 289.102H392.933V281.461H389.964V289.102Z" fill="#455A64"/>
<path d="M397.244 288.044H401.327V282.799H397.244V288.044Z" fill="#455A64"/>
<path d="M402.234 303.383H369.485V297.654L380.861 294.911H389.954L402.234 297.654V303.383Z" fill="#263238"/>
<path d="M402.234 303.383H369.485V306.175H402.234V303.383Z" fill="#455A64"/>
<path d="M401.322 294.92L404.719 292.346L408.172 292.475L414.231 294.92L418.636 294.137C418.636 294.137 419.943 298.542 420.557 300.535C421.283 302.891 421.977 305.288 421.977 305.288L411.585 309.266L405.243 309.863C405.243 309.863 400.919 309.032 400.685 308.354C400.443 307.676 400.878 306.958 400.878 306.958C400.878 306.958 399.886 306.434 400.08 305.377C400.273 304.32 400.661 303.827 400.854 303.803C401.04 303.771 402.669 303.634 402.669 303.634L399.83 302.964C399.83 302.964 398.45 302.553 398.716 301.415C398.982 300.277 399.37 300.269 399.797 300.132C400.201 300.003 401.976 299.785 401.976 299.785L399.652 299.64C398.7 299.72 398.022 298.623 398.619 297.881C398.66 297.832 398.708 297.776 398.765 297.727C399.636 296.945 403.057 295.751 403.057 295.751C401.903 295.848 401.25 295.63 401.322 294.92Z" fill="#455A64"/>
<path d="M407.147 294.717C407.164 294.838 405.276 295.161 403.057 295.928C400.838 296.686 399.152 297.59 399.087 297.485C399.031 297.396 400.653 296.307 402.92 295.532C405.195 294.75 407.139 294.604 407.147 294.717Z" fill="#263238"/>
<path d="M404.791 299.607C404.799 299.72 404.113 299.849 403.258 299.89C402.403 299.93 401.709 299.865 401.709 299.752C401.701 299.64 402.387 299.51 403.242 299.47C404.089 299.43 404.783 299.494 404.791 299.607Z" fill="#263238"/>
<path d="M406.639 303.916C406.663 304.013 404.953 304.409 402.847 304.062C400.733 303.739 399.241 302.787 399.305 302.698C399.362 302.585 400.879 303.335 402.92 303.642C404.945 303.981 406.631 303.787 406.639 303.916Z" fill="#263238"/>
<path d="M401.508 303.553C401.508 303.585 401.387 303.593 401.169 303.626C400.967 303.666 400.629 303.714 400.435 303.997C400.241 304.271 400.29 304.747 400.411 305.255C400.532 305.756 400.742 306.32 401.048 306.837L400.967 306.764C401.274 306.91 401.589 307.063 401.919 307.192C403.315 307.749 404.695 307.862 405.679 307.829C406.672 307.797 407.285 307.668 407.293 307.741C407.309 307.789 406.712 308.015 405.695 308.128C404.687 308.241 403.227 308.168 401.758 307.587C401.411 307.458 401.08 307.297 400.766 307.135L400.709 307.111L400.685 307.063C400.346 306.474 400.153 305.893 400.048 305.336C399.951 304.804 399.902 304.231 400.217 303.843C400.54 303.472 400.943 303.488 401.153 303.488C401.387 303.496 401.508 303.537 401.508 303.553Z" fill="#263238"/>
<path d="M408.753 306.724C408.672 306.643 409.043 306.184 408.987 305.546C408.938 304.909 408.487 304.521 408.559 304.425C408.591 304.376 408.753 304.408 408.955 304.586C409.156 304.755 409.366 305.086 409.406 305.506C409.439 305.925 409.285 306.288 409.116 306.49C408.954 306.7 408.793 306.764 408.753 306.724Z" fill="#263238"/>
<path d="M408.124 302.198C408.011 302.165 408.156 301.48 407.906 300.697C407.672 299.906 407.172 299.422 407.244 299.325C407.293 299.22 408.027 299.64 408.309 300.568C408.592 301.496 408.221 302.254 408.124 302.198Z" fill="#263238"/>
<path d="M408.341 298.123C408.261 298.042 408.535 297.663 408.446 297.195C408.365 296.727 407.978 296.469 408.027 296.364C408.043 296.316 408.188 296.3 408.382 296.412C408.567 296.517 408.793 296.768 408.858 297.123C408.922 297.478 408.793 297.784 408.656 297.954C408.519 298.123 408.374 298.163 408.341 298.123Z" fill="#263238"/>
<path d="M98.152 147.286H87.775C86.2451 147.286 85 146.071 85 144.579V134.455C85 132.963 86.2451 131.748 87.775 131.748H98.152C99.6819 131.748 100.927 132.963 100.927 134.455V144.579C100.927 146.071 99.6819 147.286 98.152 147.286ZM87.7733 133.39C87.1718 133.39 86.6832 133.867 86.6832 134.454V144.577C86.6832 145.164 87.1718 145.641 87.7733 145.641H98.1504C98.7518 145.641 99.2405 145.164 99.2405 144.577V134.454C99.2405 133.867 98.7518 133.39 98.1504 133.39H87.7733Z" fill="white"/>
<path d="M98.152 169.934H87.775C86.2451 169.934 85 168.72 85 167.227V157.104C85 155.611 86.2451 154.396 87.775 154.396H98.152C99.6819 154.396 100.927 155.611 100.927 157.104V167.227C100.927 168.72 99.6819 169.934 98.152 169.934ZM87.7733 156.039C87.1718 156.039 86.6832 156.515 86.6832 157.102V167.226C86.6832 167.812 87.1718 168.289 87.7733 168.289H98.1504C98.7518 168.289 99.2405 167.812 99.2405 167.226V157.102C99.2405 156.515 98.7518 156.039 98.1504 156.039H87.7733Z" fill="white"/>
<path d="M92.9625 143.258C92.9473 143.258 92.9322 143.258 92.917 143.256C92.6777 143.243 92.4554 143.133 92.3054 142.95L87.7967 137.472C87.5053 137.119 87.5625 136.601 87.9265 136.316C88.2904 136.032 88.8195 136.09 89.1109 136.443L93.0316 141.206L101.709 132.741C102.037 132.421 102.571 132.421 102.9 132.741C103.228 133.062 103.228 133.583 102.9 133.903L93.5573 143.018C93.3989 143.172 93.1849 143.258 92.9625 143.258Z" fill="#963EEE"/>
<path d="M92.9624 165.356C92.9473 165.356 92.9321 165.356 92.9169 165.354C92.6777 165.341 92.4553 165.231 92.3054 165.048L87.7967 159.57C87.5052 159.217 87.5642 158.699 87.9264 158.414C88.2904 158.13 88.8194 158.188 89.1109 158.541L93.0315 163.306L101.709 154.841C102.037 154.52 102.571 154.52 102.9 154.841C103.228 155.161 103.228 155.683 102.9 156.003L93.5572 165.114C93.3988 165.269 93.1848 165.356 92.9624 165.356Z" fill="#963EEE"/>
<path d="M141.539 140.678H113.016C112.227 140.678 111.582 140.049 111.582 139.28C111.582 138.51 112.227 137.881 113.016 137.881H141.539C142.327 137.881 142.973 138.51 142.973 139.28C142.973 140.049 142.327 140.678 141.539 140.678Z" fill="white"/>
<path d="M141.539 146.126H113.016C112.227 146.126 111.582 145.496 111.582 144.727C111.582 143.958 112.227 143.328 113.016 143.328H141.539C142.327 143.328 142.973 143.958 142.973 144.727C142.973 145.496 142.327 146.126 141.539 146.126Z" fill="white"/>
<path d="M141.539 163.563H113.016C112.227 163.563 111.582 162.934 111.582 162.164C111.582 161.395 112.227 160.766 113.016 160.766H141.539C142.327 160.766 142.973 161.395 142.973 162.164C142.973 162.934 142.327 163.563 141.539 163.563Z" fill="white"/>
<path d="M130.343 168.974H113.017C112.229 168.974 111.583 168.345 111.583 167.576C111.583 166.806 112.229 166.177 113.017 166.177H130.343C131.131 166.177 131.777 166.806 131.777 167.576C131.777 168.345 131.131 168.974 130.343 168.974Z" fill="white"/>
</svg>
