<svg width="38" height="61" viewBox="0 0 38 61" fill="none" xmlns="http://www.w3.org/2000/svg">
<path d="M36.5 20.1739C36.5 27.8144 32.8528 36.1996 28.5967 43.5323C25.669 48.5765 22.6126 52.8818 20.3316 56.0948C19.8603 56.7586 19.4221 57.3759 19.025 57.9433C18.6628 57.4177 18.2489 56.827 17.7983 56.1839C17.36 55.5584 16.887 54.8833 16.393 54.1702C14.5238 51.4724 12.2372 48.0738 10.0187 44.2996C5.54141 36.6832 1.5 27.7951 1.5 20.1739C1.5 12.5624 4.39835 8.06265 7.92174 5.42011C11.5193 2.72192 15.9256 1.84782 19 1.84782C22.0744 1.84782 26.4807 2.72192 30.0783 5.42011C33.6017 8.06265 36.5 12.5624 36.5 20.1739Z" stroke="white" stroke-width="3"/>
<circle cx="19" cy="19.3478" r="7.76087" stroke="white"/>
</svg>
