<svg width="102" height="97" viewBox="0 0 102 97" fill="none" xmlns="http://www.w3.org/2000/svg">
<rect x="60" y="73" width="18" height="1" fill="white"/>
<path fill-rule="evenodd" clip-rule="evenodd" d="M31 67V34H32V67H32.0245C32.0083 67.1647 32 67.3315 32 67.5C32 70.5376 34.6863 73 38 73H55V74H24V73V72.924C24.3252 72.974 24.6593 73 25 73C28.3137 73 31 70.5376 31 67.5C31 67.3315 30.9917 67.1647 30.9755 67H31Z" fill="white"/>
<circle cx="33.5" cy="31.5" r="1.5" fill="white"/>
<path fill-rule="evenodd" clip-rule="evenodd" d="M29 23.5L32.5 14L38 27.5H30.5L29 23.5ZM26 28.5V30C27.3333 29.8333 30.7 29.9 31.5 31.5C31.5437 31.3907 31.5845 31.2946 31.627 31.2111C31.9574 30.2169 32.895 29.5 34 29.5C35.3807 29.5 36.5 30.6193 36.5 32C36.5 33.3807 35.3807 34.5 34 34.5C33.8623 34.5 33.7272 34.4889 33.5955 34.4674C33.5644 34.4783 33.5325 34.4892 33.5 34.5L45.5 63.5L52 60.5L39 28.5H26ZM47 64L48.5 68L53 66L51.5 62L47 64ZM55 60.5L55.5 61.5L66 34V70.5C66 71.3333 65.4 73.1 63 73.5H69.5H75.3125C74.5417 73.1667 73 72.1 73 70.5V34C73 32.5 74 29.5 78 29.5V29H67L55 60.5Z" fill="white"/>
<path fill-rule="evenodd" clip-rule="evenodd" d="M51 97C79.1665 97 102 75.2858 102 48.5C102 21.7142 79.1665 0 51 0C22.8335 0 0 21.7142 0 48.5C0 75.2858 22.8335 97 51 97ZM51 97C25.0426 97 4 75.2858 4 48.5C4 21.7142 25.0426 0 51 0C76.9574 0 98 21.7142 98 48.5C98 75.2858 76.9574 97 51 97Z" fill="white"/>
</svg>
