<svg width="464" height="348" viewBox="0 0 464 348" fill="none" xmlns="http://www.w3.org/2000/svg">
<path opacity="0.1" fill-rule="evenodd" clip-rule="evenodd" d="M214.513 17.9504C155.334 13.8983 83.9779 -17.7667 40.7289 13.9952C-3.91745 46.7832 37.2922 106.243 29.6699 153.698C24.0648 188.595 -8.52448 220.182 2.12219 254.357C13.1109 289.63 46.1214 320.029 86.9271 337.49C125.263 353.894 170.817 346.527 214.513 345.24C256.274 344.009 297.152 343.513 335.282 330.173C381.503 314.003 438.175 298.751 454.385 261.321C470.602 223.872 427.852 188.029 413.227 150.184C398.147 111.159 407.213 62.8226 367.456 36.3667C327.23 9.59859 267.19 21.5572 214.513 17.9504Z" fill="#853DCD"/>
<g clip-path="url(#clip0)">
<path d="M181.699 144L202.999 139.9L243.899 149.3L264.599 153.6L264.899 181.9L218.699 190.4L187.499 181.2L175.699 163.8L181.699 144Z" fill="#FFBE9D"/>
<path d="M166.499 146.801L186.599 142.101C186.599 142.101 200.799 186.101 235.899 184.201C264.499 182.701 264.499 153.601 264.499 153.601L285.399 157.301C285.399 157.301 294.199 210.401 284.599 247.601C276.599 278.601 269.499 321.101 269.499 321.101H130.699L166.499 146.801Z" fill="#963EEE"/>
<path d="M370.3 282.801C370.3 282.801 313 182.401 302.7 169.601C291.4 155.501 282.4 157.101 282.4 157.101L276.3 224.701L325 293.801L336.6 298.001L370.3 282.801Z" fill="#963EEE"/>
<path d="M168.9 146.2C168.9 146.2 136.3 148.8 124.7 202.2C119.4 226.3 112.7 254.6 110.8 273.6C109.4 287.4 117.9 301.7 131.7 303.5L149 306.7C158.5 308.5 167.7 302.5 169.9 293.1L175.7 269L160.2 263.8L163.8 191.9L168.9 146.2Z" fill="#963EEE"/>
<path d="M288.2 194.601C288.2 194.601 288.3 194.901 288.3 195.301C288.4 195.801 288.5 196.601 288.6 197.401C288.7 197.901 288.7 198.401 288.8 199.001C288.9 199.601 288.9 200.201 289 200.901C289.1 202.201 289.3 203.801 289.4 205.401C289.6 208.801 289.6 212.801 289.5 217.301C289.3 221.801 288.8 226.701 288.1 231.801C287.4 236.901 286.4 241.701 285.5 246.101C284.6 250.501 283.6 254.401 282.8 257.601C282 260.901 281.3 263.501 280.8 265.301C280.6 266.201 280.4 266.901 280.2 267.401C280.1 267.901 280 268.101 280 268.101C280 268.101 280 267.801 280.1 267.401C280.2 266.901 280.4 266.201 280.6 265.301C281.1 263.401 281.7 260.801 282.5 257.501C283.3 254.201 284.2 250.301 285.1 245.901C286 241.501 287 236.701 287.7 231.601C288.4 226.501 289 221.601 289.2 217.201C289.4 212.801 289.4 208.701 289.2 205.401C289.2 203.701 289 202.201 288.9 200.901C288.8 200.201 288.8 199.601 288.8 199.001C288.7 198.401 288.7 197.901 288.6 197.401C288.5 196.501 288.4 195.801 288.4 195.201C288.2 194.901 288.2 194.601 288.2 194.601Z" fill="#263238"/>
<path d="M177.199 271.6C177.199 271.6 177.099 271.5 176.999 271.2C176.899 270.9 176.799 270.4 176.599 269.9C176.399 269.3 176.199 268.6 175.999 267.8C175.699 267 175.599 266 174.799 265.2C174.099 264.4 172.999 263.8 171.799 263.4C170.599 262.9 169.199 262.6 167.699 262.3C164.699 261.7 161.299 261.4 157.699 261.3H157.399V261C158.299 255.3 159.299 248.7 160.299 241.8C162.199 229.7 163.899 218.8 165.199 210.8C165.799 206.9 166.399 203.7 166.699 201.4C166.899 200.3 166.999 199.5 167.099 198.9C167.199 198.6 167.199 198.4 167.199 198.2C167.199 198.1 167.299 198 167.299 198C167.299 198 167.299 198.1 167.299 198.2C167.299 198.4 167.299 198.6 167.199 198.9C167.099 199.5 166.999 200.4 166.899 201.5C166.599 203.8 166.099 207 165.499 210.9C164.299 218.9 162.599 229.8 160.799 241.9C159.699 248.8 158.699 255.3 157.799 261.1L157.599 260.8C161.299 260.9 164.699 261.3 167.699 261.9C169.199 262.2 170.599 262.6 171.799 263.1C172.999 263.6 174.099 264.2 174.899 265.1C175.299 265.5 175.499 266 175.699 266.5C175.799 267 175.999 267.4 176.099 267.8C176.299 268.6 176.499 269.3 176.699 269.9C176.799 270.4 176.999 270.9 176.999 271.2C177.199 271.5 177.199 271.6 177.199 271.6Z" fill="#263238"/>
<path d="M132.399 279.8C132.399 279.8 132.399 279.3 132.699 278.5C132.899 277.6 133.299 276.4 133.999 275C135.299 272.1 137.799 268.4 141.699 265.5C145.599 262.6 149.999 261.4 153.099 261.1C154.699 260.9 155.899 260.9 156.799 261C157.699 261.1 158.199 261.1 158.199 261.2C158.199 261.3 156.299 261.1 153.199 261.5C150.099 261.9 145.899 263.2 142.099 266C138.299 268.8 135.699 272.4 134.399 275.2C132.799 277.9 132.499 279.8 132.399 279.8Z" fill="#263238"/>
<path d="M139.899 253.201C139.899 253.201 140.199 253.101 140.699 253.101C141.199 253.101 141.899 253.101 142.799 253.201C144.599 253.401 147.099 253.901 149.699 254.901C152.299 256.001 154.399 257.401 155.799 258.501C156.499 259.101 156.999 259.601 157.399 259.901C157.799 260.301 157.899 260.501 157.899 260.501C157.799 260.601 156.999 259.801 155.599 258.701C154.199 257.601 151.999 256.301 149.499 255.301C146.999 254.301 144.599 253.701 142.799 253.501C140.999 253.301 139.899 253.301 139.899 253.201Z" fill="#263238"/>
<path d="M173.6 184.101C173.6 184.101 173.5 183.601 173.5 182.701C173.5 181.801 173.4 180.501 173.3 178.801C173.1 175.501 172.5 171.001 171.1 166.201C169.7 161.401 167.9 157.201 166.4 154.301C165.6 152.801 165 151.701 164.5 150.901C164 150.101 163.8 149.701 163.8 149.601C163.8 149.601 164.1 150.001 164.6 150.801C165.1 151.601 165.8 152.701 166.6 154.101C168.2 157.001 170.1 161.101 171.5 166.001C172.9 170.801 173.4 175.401 173.5 178.701C173.6 180.301 173.6 181.701 173.5 182.601C173.7 183.601 173.6 184.101 173.6 184.101Z" fill="#263238"/>
<g opacity="0.3">
<path opacity="0.3" d="M286.699 239.4C294.999 225.3 295.199 207 287.899 192.4C290.099 208 289.899 224 286.399 239.3" fill="black"/>
</g>
<g opacity="0.3">
<path opacity="0.3" d="M212.8 255.301C206.5 257.201 197.8 257.601 191.6 255.301C196.4 262.101 205.7 264.601 213.7 262.401C221.7 260.201 229.2 252.101 229.8 243.801C225.9 249.001 219.1 253.401 212.8 255.301Z" fill="black"/>
</g>
<path d="M236 232.601C236 232.601 236 232.801 235.9 233.201C235.8 233.601 235.6 234.101 235.4 234.801C234.9 236.201 234 238.101 232.7 240.301C231.4 242.501 229.5 245.001 227 247.401C224.5 249.801 221.4 252.001 217.9 253.801C214.3 255.501 210.6 256.501 207.2 256.901C203.8 257.301 200.7 257.301 198.1 256.901C195.5 256.601 193.5 256.001 192.1 255.601C191.4 255.401 190.9 255.201 190.5 255.001C190.1 254.901 190 254.801 190 254.801C190 254.801 190.8 255.001 192.2 255.401C193.6 255.801 195.6 256.301 198.2 256.501C203.3 257.101 210.6 256.601 217.7 253.201C224.8 249.801 229.7 244.301 232.4 240.001C233.8 237.801 234.7 236.001 235.2 234.601C235.6 233.301 235.9 232.601 236 232.601Z" fill="#263238"/>
<path d="M165.7 302.6C165.7 302.6 165.6 302.7 165.4 302.9C165.2 303.1 165 303.3 164.6 303.6C163.9 304.2 162.7 304.9 161.2 305.4C159.6 306 157.7 306.3 155.5 306.4C153.3 306.5 150.9 306.4 148.5 306.2C143.5 305.8 139.1 305 135.8 304.5C134.2 304.2 132.9 304 132 303.8C131.1 303.6 130.6 303.5 130.6 303.5C130.6 303.5 131.1 303.5 132 303.6C133 303.7 134.3 303.9 135.8 304.2C139 304.7 143.5 305.3 148.4 305.8C150.9 306 153.2 306.2 155.4 306.1C157.5 306 159.5 305.7 161 305.2C164.2 304 165.6 302.5 165.7 302.6Z" fill="#263238"/>
<path d="M278.699 39.5L282.799 35.5C288.299 37.9 290.799 44.2 291.699 50.1C292.599 56 292.499 62.2 294.999 67.6C296.899 71.8 300.399 75.6 299.999 80.2C299.599 84.6 295.699 88.1 295.599 92.4C295.599 96.6 299.099 99.8 301.099 103.5C305.199 111 307.899 141.4 305.699 149.7C287.499 148.1 255.399 146.2 237.199 142C242.099 110.8 262.299 66.6 278.699 39.5Z" fill="#263238"/>
<path d="M253 162.3C253 162.3 252.9 162.6 253 162.3V162.3Z" fill="#FFBE9D"/>
<path d="M286.799 67.3997C288.099 46.0997 272.599 26.5997 250.999 24.0997C228.099 21.3997 207.899 37.7997 205.999 59.9997L200.599 149.9C200.499 151.6 200.999 153.4 201.999 154.8C207.299 162.5 216.799 168.6 225.399 169.7C233.699 170.8 242.099 168.7 249.099 164.8C251.499 163.5 252.899 160.9 252.999 158.2L253.399 138.1C253.399 138 253.499 138 253.499 138C254.699 138.1 257.899 138.1 259.099 137.8C264.399 136.5 277.999 131.3 282.599 111.4C284.099 104.8 285.699 86.0997 286.799 67.3997Z" fill="#FFBE9D"/>
<path d="M257.199 96.7996C257.199 96.5996 259.399 96.3996 262.999 96.1996C263.899 96.1996 264.799 96.0996 264.999 95.4996C265.299 94.8996 264.899 93.8996 264.599 92.7996C263.899 90.5996 263.099 88.2996 262.399 85.7996C259.299 75.8996 257.099 67.7996 257.499 67.5996C257.899 67.4996 260.699 75.3996 263.799 85.2996C264.499 87.6996 265.299 90.0996 265.899 92.2996C266.199 93.2996 266.699 94.4996 266.099 95.7996C265.799 96.3996 265.099 96.8996 264.499 96.9996C263.899 97.0996 263.399 97.0996 262.899 97.0996C259.399 97.0996 257.199 96.9996 257.199 96.7996Z" fill="#263238"/>
<path d="M280.899 74.8999C280.499 75.2999 278.099 73.2999 274.799 73.2999C271.399 73.1999 268.899 74.9999 268.499 74.4999C268.299 74.2999 268.699 73.4999 269.799 72.6999C270.899 71.8999 272.699 71.0999 274.799 71.1999C276.899 71.2999 278.699 72.1999 279.699 73.0999C280.799 73.8999 281.099 74.6999 280.899 74.8999Z" fill="#263238"/>
<path d="M246.599 75.8003C246.099 76.2003 243.699 74.0003 239.999 73.7003C236.299 73.3003 233.399 75.1003 233.099 74.6003C232.899 74.4003 233.399 73.6003 234.699 72.8003C235.899 72.0003 237.999 71.3003 240.299 71.5003C242.599 71.7003 244.499 72.8003 245.499 73.8003C246.499 74.7003 246.799 75.6003 246.599 75.8003Z" fill="#263238"/>
<path d="M253.4 138C253.4 138 239.6 138.2 223.1 126.8C223.1 126.8 227.4 145 253.3 144.4L253.4 138Z" fill="#EFA077"/>
<path d="M255.199 105.1C253.999 103.4 251.899 102.3 249.599 102.4C247.999 102.5 246.399 103.1 245.399 104.2C244.399 105.4 244.099 107.1 244.899 108.3C245.799 109.7 247.799 110.1 249.499 109.8C251.199 109.4 252.799 108.5 254.199 107.5C254.599 107.2 254.999 106.9 255.299 106.5C255.599 106.1 255.699 105.6 255.399 105.2" fill="#EFA077"/>
<path d="M246.599 98.5C247.199 98.5 246.899 102.3 250.099 105.2C253.199 108.1 257.399 108 257.299 108.5C257.299 108.7 256.299 109.2 254.599 109.1C252.899 109 250.399 108.3 248.499 106.5C246.599 104.7 245.899 102.5 245.799 100.9C245.899 99.4 246.299 98.4 246.599 98.5Z" fill="#263238"/>
<path d="M247.099 61.7998C246.699 62.6998 243.199 61.9998 238.999 62.1998C234.799 62.2998 231.399 63.1998 230.899 62.2998C230.699 61.8998 231.299 60.9998 232.799 60.1998C234.199 59.3998 236.399 58.6998 238.899 58.5998C241.399 58.4998 243.699 59.0998 245.199 59.7998C246.599 60.5998 247.299 61.3998 247.099 61.7998Z" fill="#263238"/>
<path d="M281.599 62.6002C280.899 63.4002 277.999 62.6002 274.599 62.6002C271.199 62.5002 268.299 63.2002 267.599 62.3002C267.299 61.9002 267.799 61.1002 268.999 60.3002C270.199 59.5002 272.299 58.9002 274.699 59.0002C276.999 59.1002 279.099 59.8002 280.299 60.6002C281.499 61.4002 281.999 62.2002 281.599 62.6002Z" fill="#263238"/>
<path d="M254.199 19.6001C252.299 16.4001 248.899 15.0001 244.999 14.4001C229.199 12.0001 211.699 21.5001 202.799 34.8001C193.999 48.0001 193.599 67.8001 199.999 82.3001L209.799 76.2001C229.499 68.1001 243.499 49.1001 256.199 29.4001C257.899 26.7001 255.799 22.3001 254.199 19.6001Z" fill="#263238"/>
<path d="M278.399 28.2C271.799 20.7 266.999 13.2 253.299 18.4C251.299 22.2 255.299 27.2 258.699 30.1C263.699 34.4 267.999 37.1999 271.299 40.2999C277.899 46.5 285.399 67.1 285.999 78.4C285.999 79.1 287.299 68.6999 287.999 68.5999C288.899 68.5 292.599 63.9 292.099 57.7C290.399 36.6 284.999 35.7 278.399 28.2Z" fill="#263238"/>
<path d="M244.999 14.4C244.999 14.3 246.199 14.2 248.099 14.7C249.899 15.2 252.399 16.5 254.299 18.8C254.799 19.4 255.199 20 255.499 20.6C255.899 21.2 255.999 21.9 256.199 22.5C256.599 23.7 256.899 24.8 256.999 25.7C257.299 27.6 256.799 28.8 256.699 28.8C256.499 28.8 256.699 27.6 256.299 25.8C256.099 24.9 255.699 23.9 255.299 22.7C255.099 22.1 254.899 21.5 254.599 21C254.299 20.4 253.899 19.9 253.399 19.4C251.599 17.3 249.399 16 247.699 15.3C246.199 14.6 244.999 14.5 244.999 14.4Z" fill="#455A64"/>
<path d="M277.799 81.4002C277.899 83.0002 276.599 84.4002 274.999 84.5002C273.399 84.6002 271.999 83.4002 271.899 81.9002C271.799 80.3002 273.099 78.9002 274.699 78.8002C276.299 78.7002 277.699 79.8002 277.799 81.4002Z" fill="#263238"/>
<path d="M244.9 81.6C245 83.2 243.7 84.6 242.1 84.7C240.5 84.8 239 83.6 239 82.1C238.9 80.5 240.2 79.1 241.8 79C243.4 78.9 244.8 80.1 244.9 81.6Z" fill="#263238"/>
<path d="M154.199 106.7C156.099 103.6 158.199 100.8 161.599 99.5C164.999 98.2 168.899 97.5 171.499 95C175.699 91.2 175.499 84.8 175.099 79.2C174.699 73.6 174.599 67.2 178.899 63.4C182.499 60.3 188.199 60 191.299 56.4C193.399 54 193.799 50.7 194.499 47.7C196.499 39.5 200.999 25.3 225.099 17L203.799 98C205.399 98.4 209.199 102.1 209.399 104.5C209.599 106.8 208.599 109.1 208.599 111.4C208.599 114.2 211.699 115.9 213.599 118C216.099 120.6 216.799 124.5 216.399 128C215.999 131.5 213.899 138.8 212.599 142.1C192.799 140.1 163.999 139.5 148.899 126.9C146.099 124.5 150.099 113.5 154.199 106.7Z" fill="#263238"/>
<path d="M209.8 76.1998C209.4 75.9998 194.9 70.1998 194 85.5998C193.1 100.9 208.6 98.6998 208.7 98.1998C208.7 97.7998 209.8 76.1998 209.8 76.1998Z" fill="#FFBE9D"/>
<path d="M204.4 92.1002C204.3 92.0002 204.1 92.3002 203.7 92.4002C203.2 92.6002 202.5 92.7002 201.7 92.3002C200.1 91.6002 198.9 89.0002 199 86.2002C199 84.8002 199.4 83.5002 200 82.4002C200.5 81.3002 201.3 80.6002 202.1 80.5002C202.9 80.4002 203.5 80.9002 203.6 81.3002C203.8 81.7002 203.7 82.0002 203.7 82.1002C203.7 82.1002 204 81.9002 204 81.2002C204 80.9002 203.8 80.5002 203.5 80.2002C203.2 79.9002 202.6 79.7002 202 79.7002C200.8 79.7002 199.7 80.7002 199.1 81.9002C198.4 83.1002 198 84.5002 197.9 86.1002C197.8 89.2002 199.2 92.2002 201.4 92.9002C202.5 93.2002 203.4 93.0002 203.9 92.6002C204.3 92.5002 204.4 92.1002 204.4 92.1002Z" fill="#EFA077"/>
<path d="M264.299 80.2005C264.399 80.2005 264.299 78.9005 264.799 76.8005C265.299 74.7005 266.699 71.5005 269.799 69.1005C271.399 67.9005 273.299 66.9005 275.599 66.4005C277.899 66.0005 280.399 66.0005 282.899 66.9005C284.099 67.3005 285.299 67.9005 286.399 68.7005C287.499 69.5005 288.499 70.5005 289.399 71.6005C291.099 73.8005 292.199 76.7005 292.199 79.8005C292.199 82.8005 291.299 85.7005 289.599 88.0005C288.799 89.2005 287.799 90.2005 286.699 91.0005C285.599 91.8005 284.399 92.5005 283.199 93.0005C280.799 94.0005 278.199 94.1005 275.899 93.7005C273.599 93.3005 271.599 92.4005 269.999 91.2005C266.799 88.8005 265.299 85.7005 264.699 83.6005C264.299 81.5005 264.399 80.2005 264.299 80.2005C264.299 80.2005 264.299 80.3005 264.299 80.4005C264.299 80.6005 264.299 80.8005 264.299 81.1005C264.299 81.4005 264.299 81.8005 264.399 82.2005C264.499 82.6005 264.499 83.1005 264.699 83.7005C265.199 85.9005 266.699 89.1005 269.999 91.5005C271.599 92.7005 273.699 93.7005 276.099 94.1005C278.499 94.5005 281.099 94.4005 283.599 93.4005C284.899 92.9005 286.099 92.3005 287.199 91.4005C288.299 90.6005 289.399 89.5005 290.199 88.3005C291.899 85.9005 292.899 82.9005 292.899 79.8005C292.799 76.7005 291.799 73.7005 289.999 71.3005C289.099 70.1005 288.099 69.1005 286.899 68.3005C285.799 67.5005 284.499 66.8005 283.199 66.4005C280.599 65.5005 277.999 65.5005 275.699 65.9005C273.299 66.4005 271.299 67.5005 269.699 68.7005C266.499 71.3005 265.199 74.5005 264.699 76.7005C264.599 77.2005 264.499 77.7005 264.499 78.2005C264.399 78.6005 264.399 79.0005 264.399 79.3005C264.399 79.6005 264.399 79.8005 264.399 80.0005C264.299 80.1005 264.299 80.2005 264.299 80.2005Z" fill="#455A64"/>
<path d="M225.698 80.8001C225.798 80.8001 225.698 79.5001 226.198 77.4001C226.698 75.3001 228.098 72.1001 231.198 69.7001C232.798 68.5001 234.698 67.5001 236.998 67.0001C239.298 66.6001 241.799 66.6001 244.299 67.5001C245.499 67.9001 246.699 68.5001 247.799 69.3001C248.899 70.1001 249.899 71.1001 250.799 72.2001C252.499 74.4001 253.599 77.3001 253.599 80.4001C253.599 83.4001 252.698 86.3001 250.998 88.6001C250.198 89.8001 249.199 90.8001 248.099 91.6001C246.999 92.4001 245.799 93.1001 244.599 93.6001C242.199 94.6001 239.599 94.7001 237.299 94.3001C234.999 93.9001 232.998 93.0001 231.398 91.8001C228.198 89.4001 226.699 86.3001 226.099 84.2001C225.699 82.1001 225.698 80.8001 225.698 80.8001C225.698 80.8001 225.698 80.9001 225.698 81.0001C225.698 81.2001 225.698 81.4001 225.698 81.7001C225.698 82.0001 225.699 82.4001 225.799 82.8001C225.899 83.2001 225.899 83.7001 226.099 84.3001C226.599 86.5001 228.098 89.7001 231.398 92.1001C232.998 93.3001 235.098 94.3001 237.498 94.7001C239.898 95.1001 242.498 95.0001 244.998 94.0001C246.298 93.5001 247.499 92.9001 248.599 92.0001C249.699 91.2001 250.799 90.1001 251.599 88.9001C253.299 86.5001 254.299 83.5001 254.299 80.4001C254.199 77.3001 253.198 74.3001 251.398 71.9001C250.498 70.7001 249.499 69.7001 248.299 68.9001C247.199 68.1001 245.899 67.4001 244.599 67.0001C241.999 66.1001 239.399 66.1001 237.099 66.5001C234.699 67.0001 232.699 68.1001 231.099 69.3001C227.899 71.9001 226.599 75.1001 226.099 77.3001C225.999 77.8001 225.898 78.3001 225.898 78.8001C225.798 79.2001 225.799 79.6001 225.799 79.9001C225.799 80.2001 225.799 80.4001 225.799 80.6001C225.599 80.8001 225.598 80.8001 225.698 80.8001Z" fill="#455A64"/>
<path d="M253.298 79.8008C253.398 79.9008 253.798 79.2008 254.698 78.5008C255.598 77.8008 257.098 77.0008 258.898 76.9008C260.698 76.9008 262.298 77.6008 263.198 78.3008C264.198 79.0008 264.598 79.6008 264.698 79.6008C264.698 79.6008 264.398 78.8008 263.498 78.0008C262.598 77.2008 260.898 76.3008 258.998 76.3008C256.998 76.3008 255.398 77.3008 254.498 78.1008C253.498 79.0008 253.198 79.8008 253.298 79.8008Z" fill="#455A64"/>
<path d="M206.299 75.2001C206.299 75.3001 207.399 75.5001 209.099 75.8001C210.899 76.1001 213.299 76.3001 215.999 76.6001C218.599 76.8001 220.999 77.0001 222.899 77.2001C224.699 77.4001 225.799 77.5001 225.799 77.4001C225.799 77.3001 224.699 77.1001 222.999 76.8001C221.199 76.5001 218.799 76.3001 216.099 76.0001C213.499 75.8001 211.099 75.6001 209.199 75.4001C207.399 75.3001 206.299 75.1001 206.299 75.2001Z" fill="#455A64"/>
<path d="M286.599 88.9C286.499 88.8 288.499 87.1 289.599 84.1C290.699 81.1 290.299 78.5 290.499 78.5C290.599 78.5 290.799 79.1 290.799 80.2C290.799 81.3 290.699 82.8 290.099 84.3C289.499 85.8 288.699 87.1 287.899 87.9C287.199 88.6 286.699 88.9 286.599 88.9Z" fill="white"/>
<path d="M288.999 73.1C289.099 73 289.599 73.3 289.999 73.9C290.299 74.6 290.199 75.2 290.099 75.2C289.999 75.2 289.799 74.7 289.599 74.1C289.299 73.6 288.899 73.2 288.999 73.1Z" fill="white"/>
<path d="M251.299 85.8006C251.199 85.8006 251.499 85.0006 251.699 83.7006C251.899 82.4006 251.999 80.6006 251.699 78.6006C251.299 76.6006 250.599 75.0006 249.899 73.9006C249.199 72.8006 248.699 72.2006 248.699 72.1006C248.699 72.1006 249.399 72.6006 250.199 73.7006C250.999 74.8006 251.799 76.5006 252.199 78.5006C252.599 80.5006 252.399 82.4006 252.099 83.7006C251.799 85.1006 251.399 85.9006 251.299 85.8006Z" fill="white"/>
<path d="M198.099 98.0004C198.099 98.0004 197.899 98.3004 197.599 98.9004C197.299 99.4004 196.999 100.3 196.899 101.4C196.899 102.5 197.299 103.9 198.299 104.9C199.299 105.9 200.999 106.6 202.599 106.3C204.199 106 205.599 104.8 206.199 103.5C206.799 102.2 206.699 100.8 206.299 99.7004C205.899 98.7004 205.299 98.0004 204.799 97.5004C204.299 97.1004 203.999 96.9004 203.999 96.9004C203.999 96.9004 204.399 97.0004 204.899 97.4004C205.399 97.8004 206.099 98.5004 206.599 99.6004C207.099 100.7 207.299 102.2 206.599 103.7C205.999 105.1 204.499 106.5 202.699 106.8C200.799 107.1 199.099 106.4 197.899 105.2C196.699 104.1 196.399 102.5 196.499 101.4C196.599 100.2 196.999 99.3004 197.399 98.8004C197.799 98.2004 198.099 98.0004 198.099 98.0004Z" fill="#E0E0E0"/>
<path d="M282.6 109.8C282.6 109.7 283.6 110.4 285.3 110C286.1 109.8 287 109.3 287.7 108.5C288.4 107.7 289.1 106.6 289.3 105.4C289.5 104.2 289.3 102.9 288.9 101.9C288.4 100.9 287.8 100.1 287.1 99.5998C285.8 98.4998 284.7 98.3998 284.7 98.2998C284.7 98.2998 285 98.2998 285.5 98.3998C286 98.4998 286.7 98.7998 287.4 99.2998C288.1 99.7998 288.9 100.6 289.4 101.7C289.9 102.8 290.2 104.1 289.9 105.5C289.6 106.9 289 108 288.1 108.9C287.3 109.8 286.3 110.3 285.4 110.4C284.5 110.6 283.8 110.5 283.3 110.3C282.8 110 282.6 109.8 282.6 109.8Z" fill="#E0E0E0"/>
<path d="M227.099 308.3L241.899 312.7C241.899 312.7 250.099 316.2 254.099 317.1C258.999 318.2 262.399 316.7 262.599 314C262.799 311.3 258.899 310.9 258.899 310.9C258.899 310.9 252.699 308.5 249.399 306.5C246.099 304.5 244.099 300.5 244.099 300.5L249.399 301.2C249.399 301.2 260.499 309.2 264.799 311.6C268.999 314 269.899 309.8 270.299 308.5C270.699 307.2 257.899 294.2 257.899 294.2C257.899 294.2 270.099 302.1 272.299 304C274.499 306 277.799 306.6 278.499 305.3C279.199 304 281.199 304 278.499 298.6C275.799 293.2 253.799 278.6 253.799 278.6L259.799 277.3L266.399 280.2C266.399 280.2 266.799 282.9 269.099 286.5C271.499 290 275.699 286.5 275.699 286.5L273.099 273L260.099 264.9C260.099 264.9 246.599 266.5 244.599 267.5C242.599 268.4 240.399 272.2 240.399 272.2L236.699 273.7C230.999 275.3 231.199 281 229.399 281.2C227.599 281.4 174.199 271 174.199 271L169.399 269.7C161.399 275.8 158.199 285.8 156.799 294.7C156.799 294.7 155.299 299.1 156.799 301.5L227.099 308.3Z" fill="#FFBE9D"/>
<path d="M217.4 298.9C217.4 298.9 217.3 298.6 217.3 298C217.3 297.7 217.3 297.4 217.4 297C217.4 296.6 217.5 296.2 217.7 295.7C218.2 293.7 219.5 291.2 221.4 288.8C223.3 286.4 225.4 284.6 226.9 283.3C228.4 282 229.5 281.3 229.5 281.4C229.5 281.5 228.6 282.3 227.2 283.6C225.7 284.9 223.7 286.8 221.8 289.2C219.9 291.5 218.6 294 218 295.8C217.4 297.6 217.5 298.9 217.4 298.9Z" fill="#EFA077"/>
<path d="M240.5 272.301C240.5 272.301 240.1 272.501 239.4 273.101C238.7 273.601 237.8 274.601 237 275.901C236.6 276.601 236.1 277.301 235.8 278.101C235.4 278.901 235.4 279.901 235.2 281.001C235 282.001 234.7 283.201 234 284.201C233.3 285.201 232.6 286.101 232.2 287.201C231.5 289.101 231.5 291.201 232.2 292.801L232.3 293.001L232.1 293.101C229.3 294.901 227.9 297.601 227.4 299.601C226.9 301.601 227 302.801 226.9 302.801C226.9 302.801 226.8 302.501 226.8 301.901C226.8 301.301 226.8 300.501 227.1 299.501C227.5 297.501 228.9 294.601 231.8 292.701L231.7 293.001C231 291.201 230.9 289.001 231.7 287.001C232.1 285.801 232.9 284.801 233.5 283.901C234.2 283.001 234.4 282.001 234.6 280.901C234.8 279.901 234.8 278.801 235.3 277.901C235.7 277.001 236.2 276.301 236.6 275.601C237.5 274.301 238.5 273.401 239.2 272.901C239.6 272.601 239.9 272.501 240.1 272.401C240.3 272.301 240.5 272.301 240.5 272.301Z" fill="#EFA077"/>
<path d="M253.299 278.3C253.299 278.4 251.499 278.6 249.499 277.9C247.499 277.2 246.199 275.9 246.299 275.8C246.399 275.7 247.699 276.7 249.699 277.4C251.599 278.1 253.299 278.1 253.299 278.3Z" fill="#EFA077"/>
<path d="M256.699 293.1C256.599 293.2 254.099 292.3 251.099 291C248.099 289.7 245.599 288.5 245.699 288.4C245.799 288.3 248.299 289.2 251.299 290.5C254.399 291.8 256.799 292.9 256.699 293.1Z" fill="#EFA077"/>
<path d="M244.699 300.401C244.599 300.501 243.399 300.001 241.799 299.301C240.199 298.701 238.999 298.201 238.999 298.001C238.999 297.901 240.399 298.101 241.999 298.801C243.599 299.501 244.799 300.301 244.699 300.401Z" fill="#EFA077"/>
<path d="M254.899 294C254.999 294.1 253.699 294.6 252.699 295.9C251.699 297.2 251.499 298.5 251.399 298.5C251.299 298.5 251.299 298.1 251.399 297.6C251.499 297 251.799 296.3 252.299 295.6C252.799 294.9 253.499 294.5 253.999 294.2C254.499 294 254.899 294 254.899 294Z" fill="#EFA077"/>
<path d="M260.2 285.901C260.3 286.001 259.3 286.501 258.6 287.701C257.9 288.801 257.9 289.901 257.8 289.901C257.7 289.901 257.4 288.701 258.2 287.401C259 286.101 260.2 285.801 260.2 285.901Z" fill="#EFA077"/>
<path d="M258.699 271.2C258.599 271.2 258.399 271 258.299 270.5C258.199 270 258.099 269.3 258.299 268.5C258.499 267.7 258.899 267.1 259.299 266.8C259.699 266.4 259.999 266.3 259.999 266.4C260.099 266.5 259.199 267.3 258.799 268.7C258.499 270 258.899 271.2 258.699 271.2Z" fill="#EFA077"/>
<path d="M366.899 275.8C366.899 275.8 366.199 262.7 352.599 260C338.999 257.3 315.199 268.8 315.199 268.8L248.499 315.3L250.499 321.1L318.199 311.7L324.399 314.1L371.999 282.8L416.899 250.3L411.899 246.4C411.899 246.4 399.299 255.1 390.999 258.8C382.699 262.5 370.599 269.1 366.899 275.8Z" fill="#F5F5F5"/>
<path d="M247.399 323.001L303.899 287.901L363.599 278.301C363.599 278.301 366.599 282.601 371.699 281.601L420.799 247.601L421.699 249.701L326.499 316.601C322.999 317.701 320.399 316.901 318.199 315.001L247.399 323.001Z" fill="#455A64"/>
<path d="M363.599 278.301C363.599 278.301 363.499 278.401 363.099 278.701C362.699 279.001 362.299 279.301 361.699 279.701C360.499 280.601 358.799 281.801 356.699 283.401C352.499 286.501 346.699 291.001 340.499 296.101C334.299 301.201 328.699 305.901 324.699 309.401C322.699 311.101 321.099 312.501 319.999 313.501C319.499 313.901 318.999 314.301 318.699 314.601C318.399 314.801 318.199 315.001 318.199 315.001C318.199 315.001 318.299 314.801 318.599 314.601C318.899 314.301 319.299 313.901 319.799 313.401C320.899 312.401 322.499 310.901 324.399 309.201C328.299 305.701 333.899 300.901 340.099 295.801C346.299 290.701 352.099 286.301 356.399 283.201C358.499 281.701 360.299 280.401 361.499 279.601C362.099 279.201 362.599 278.901 362.899 278.701C363.399 278.401 363.599 278.301 363.599 278.301Z" fill="#263238"/>
<path d="M363 271C357.6 265.2 349.1 263.1 341.2 263.7C333.3 264.3 325.8 267.3 318.4 270.2L249.3 317.5L249.9 319.3L319.4 272.3C319.4 272.3 334.9 267.3 341.8 266.4C353.2 265 363 271 363 271Z" fill="#E0E0E0"/>
<path d="M373.8 277.201L407 254.801C407 254.801 379.8 269.001 373.8 277.201Z" fill="#E0E0E0"/>
<path d="M249.199 317.501C249.199 317.501 249.299 317.401 249.499 317.301C249.699 317.101 249.999 316.901 250.399 316.701C251.199 316.101 252.299 315.401 253.699 314.401C256.599 312.401 260.799 309.501 265.899 305.901C276.299 298.801 290.599 288.901 306.399 278.101C310.399 275.301 314.399 272.701 318.199 270.101C325.499 267.001 332.599 264.701 339.199 263.801C345.899 263.001 351.899 264.101 356.399 266.201C358.599 267.301 360.499 268.601 361.899 269.901C363.299 271.201 364.299 272.601 364.999 273.801C365.699 275.001 365.999 276.001 366.199 276.701C366.299 277.001 366.299 277.301 366.399 277.501C366.399 277.701 366.499 277.801 366.399 277.801C366.299 277.801 366.199 276.301 364.799 273.901C364.099 272.701 363.099 271.401 361.699 270.101C360.299 268.801 358.399 267.501 356.199 266.501C351.799 264.401 345.799 263.401 339.199 264.201C332.599 265.101 325.499 267.401 318.299 270.501C314.499 273.101 310.599 275.801 306.499 278.601C290.699 289.401 276.299 299.201 265.899 306.301C260.699 309.801 256.499 312.701 253.599 314.601C252.199 315.601 250.999 316.301 250.199 316.801C249.799 317.001 249.499 317.201 249.299 317.401C249.299 317.501 249.199 317.501 249.199 317.501Z" fill="#263238"/>
<path d="M309.699 281.801C309.699 281.801 309.899 281.701 310.199 281.501C310.599 281.301 311.099 281.001 311.699 280.701C312.999 280.001 314.999 279.001 317.499 277.901C322.399 275.701 329.499 272.901 337.799 271.701C346.099 270.501 353.699 271.701 358.799 273.601C361.399 274.501 363.299 275.601 364.599 276.401C365.299 276.801 365.699 277.101 366.099 277.401C366.399 277.601 366.599 277.801 366.599 277.801C366.599 277.801 365.899 277.401 364.599 276.601C363.299 275.801 361.299 274.901 358.799 274.001C353.699 272.201 346.199 271.101 337.999 272.201C329.799 273.401 322.799 276.101 317.799 278.201C315.299 279.301 313.299 280.201 311.899 280.801C311.299 281.101 310.699 281.301 310.299 281.501C309.899 281.701 309.699 281.801 309.699 281.801Z" fill="#263238"/>
<path d="M415.099 248.9C415.099 248.9 414.999 249 414.699 249.2C414.399 249.4 413.899 249.7 413.399 250.1C412.199 250.9 410.599 251.9 408.599 253.2C404.499 255.8 398.999 259.4 392.799 263.4C386.699 267.4 381.199 271.2 377.199 273.8C375.299 275.1 373.599 276.2 372.499 277C371.999 277.3 371.499 277.6 371.199 277.8C370.899 278 370.699 278.1 370.699 278.1C370.699 278.1 370.799 278 371.099 277.7C371.399 277.5 371.799 277.1 372.299 276.8C373.399 276 374.999 274.9 376.899 273.5C380.799 270.7 386.299 267 392.499 262.9C398.599 258.9 404.299 255.3 408.399 252.8C410.499 251.5 412.099 250.5 413.299 249.9C413.799 249.6 414.299 249.3 414.599 249.1C414.899 249 415.099 248.9 415.099 248.9Z" fill="#263238"/>
<path d="M384.799 284.901C384.799 284.901 383.499 288.001 382.199 289.501C380.899 291.001 376.699 293.101 376.399 296.001C376.099 298.901 376.799 305.701 372.199 310.801C367.699 316.001 361.499 317.801 361.499 317.801L343.699 316.101L315.199 304.901C315.199 304.901 312.899 304.301 313.399 301.901C313.699 300.501 314.899 299.401 316.399 299.201L317.099 299.101C317.099 299.101 315.499 297.801 317.799 295.401C319.799 293.401 324.099 294.501 326.299 295.301C328.499 296.001 341.399 301.401 343.699 302.201C345.699 302.901 347.299 303.601 347.299 303.601C347.299 303.601 330.799 292.501 330.599 291.001C330.299 289.201 330.499 288.501 332.199 287.201C334.199 285.801 337.499 287.301 340.699 288.601C343.099 289.601 358.199 297.101 358.199 297.101C358.199 297.101 358.899 296.401 358.199 295.101C357.599 293.801 352.499 287.301 351.699 286.101C350.899 284.901 350.699 284.201 351.499 283.201C352.599 281.801 355.499 281.101 358.199 283.501C359.899 285.101 365.899 289.101 365.899 289.101L393.599 268.901C393.599 268.901 397.099 268.801 395.899 273.601C394.599 278.401 384.799 284.901 384.799 284.901Z" fill="#FFBE9D"/>
<path d="M364.199 301.701C364.199 301.801 362.599 301.401 361.199 300.201C359.699 299.001 359.099 297.601 359.199 297.501C359.299 297.401 360.099 298.701 361.499 299.801C362.899 301.001 364.199 301.601 364.199 301.701Z" fill="#EFA077"/>
<path d="M366.399 289.6C366.399 289.5 366.799 289.4 367.399 289.5C367.999 289.6 368.799 289.9 369.499 290.5C370.199 291.1 370.699 291.8 370.799 292.4C370.999 293 370.999 293.4 370.899 293.4C370.799 293.4 370.499 292 369.099 290.9C367.899 289.8 366.399 289.8 366.399 289.6Z" fill="#EFA077"/>
<path d="M367.799 295.201C367.599 295.201 367.599 293.701 366.999 292.001C366.399 290.301 365.599 289.101 365.699 289.001C365.799 288.901 366.899 290.101 367.499 291.901C367.999 293.701 367.899 295.201 367.799 295.201Z" fill="#EFA077"/>
<path d="M384.199 283.401C384.199 283.401 383.799 283.201 383.499 282.801C383.099 282.301 382.799 281.601 382.699 280.601C382.599 279.701 382.799 278.901 382.999 278.301C383.199 277.801 383.499 277.501 383.599 277.501C383.699 277.601 382.999 278.801 383.199 280.501C383.299 282.201 384.299 283.301 384.199 283.401Z" fill="#EFA077"/>
<path d="M359.1 308.7C359.1 308.8 358.4 308.9 357.2 308.7C356 308.5 354.4 308 352.8 307.1C351.2 306.2 349.9 305.1 349 304.3C348.1 303.5 347.6 303 347.6 302.9C347.6 302.8 348.3 303.3 349.2 304C350.2 304.7 351.5 305.7 353 306.6C354.6 307.5 356.1 308.1 357.2 308.3C358.3 308.6 359.1 308.6 359.1 308.7Z" fill="#EFA077"/>
<path d="M363.7 305.801C363.8 305.801 363.9 306.801 363 307.601C362.2 308.401 361.1 308.401 361.2 308.301C361.2 308.201 362 308.001 362.7 307.301C363.4 306.601 363.6 305.801 363.7 305.801Z" fill="#EFA077"/>
<path d="M370.499 300.801C370.599 300.801 370.599 301.101 370.399 301.401C370.199 301.801 369.799 302.201 369.299 302.401C368.699 302.701 368.199 302.701 367.799 302.601C367.399 302.501 367.199 302.401 367.199 302.301C367.199 302.201 368.099 302.401 369.099 301.901C369.999 301.601 370.399 300.801 370.499 300.801Z" fill="#EFA077"/>
<path d="M346.499 312.201C346.399 312.301 339.799 309.601 331.699 306.001C323.599 302.501 316.999 299.501 317.099 299.301C317.199 299.201 323.799 301.901 331.899 305.501C339.999 309.101 346.599 312.101 346.499 312.201Z" fill="#EFA077"/>
<path d="M463.3 321.1C463.3 321.2 362.5 321.4 238.2 321.4C113.8 321.4 13 321.3 13 321.1C13 321 113.8 320.8 238.2 320.8C362.5 320.9 463.3 321 463.3 321.1Z" fill="#263238"/>
<path d="M25.9005 214.6L47.6005 321.1H198H235.9C238 321.1 239.7 319.4 239.7 317.3C239.7 315.2 238 313.5 235.9 313.5H198L177.9 214.4C177.5 212.5 175.9 211.1 173.9 211.1L29.9005 209.5C27.3005 209.6 25.4005 212 25.9005 214.6Z" fill="#E0E0E0"/>
<path d="M25.9003 214.6C25.9003 214.6 25.9003 214.5 25.8003 214.3C25.8003 214.1 25.7003 213.8 25.8003 213.3C25.9003 212.5 26.3003 211.1 27.8003 210.2C28.2003 210 28.6003 209.8 29.0003 209.7C29.5003 209.6 30.0003 209.6 30.5003 209.6C31.5003 209.6 32.7003 209.6 33.9003 209.6C36.4003 209.6 39.2003 209.6 42.4003 209.7C55.2003 209.8 73.7003 210 96.8003 210.2C108.4 210.3 121.1 210.4 134.7 210.6C141.5 210.7 148.6 210.7 156 210.8C159.7 210.8 163.4 210.9 167.1 210.9C169 210.9 170.9 210.9 172.8 211C173.3 211 173.7 211 174.3 211C174.8 211.1 175.3 211.2 175.8 211.4C176.7 211.8 177.5 212.6 177.9 213.6C178.1 214.1 178.2 214.6 178.3 215L178.6 216.4C178.8 217.4 179 218.3 179.2 219.3C179.6 221.2 180 223.2 180.4 225.1C181.2 229 182 233 182.8 237C184.4 245 186.1 253.2 187.8 261.5C191.2 278.2 194.7 295.6 198.4 313.5L198.1 313.3C205.2 313.3 212.5 313.3 219.9 313.3C223.6 313.3 227.3 313.3 231.1 313.3H233.9H235.3C235.8 313.3 236.3 313.3 236.8 313.4C237.8 313.6 238.7 314.2 239.3 315C239.9 315.8 240.1 316.9 240 317.9C239.8 319.1 239 320.2 237.9 320.8C237.4 321.1 236.7 321.3 236.1 321.3H234.4C232.1 321.3 229.8 321.3 227.5 321.3C222.9 321.3 218.4 321.3 213.8 321.3C204.7 321.3 195.8 321.3 187 321.3C169.4 321.3 152.4 321.3 136 321.3C103.3 321.3 73.4003 321.3 47.6003 321.3H47.4003V321.1C40.8003 288.4 35.4003 261.7 31.6003 243.3C29.7003 234.1 28.3003 226.9 27.3003 222C26.8003 219.6 26.4003 217.7 26.2003 216.4C26.0003 215.2 25.9003 214.6 25.9003 214.6C25.9003 214.6 26.1003 215.2 26.3003 216.5C26.6003 217.8 27.0003 219.6 27.5003 222C28.5003 226.9 30.0003 234 31.9003 243.3C35.7003 261.8 41.1003 288.4 47.8003 321.1L47.6003 320.9C73.4003 320.9 103.3 320.9 136 320.9C152.3 320.9 169.4 320.9 187 320.9C195.8 320.9 204.7 320.9 213.8 320.9C218.3 320.9 222.9 320.9 227.5 320.9C229.8 320.9 232.1 320.9 234.4 320.9H236.1C236.6 320.9 237.2 320.7 237.6 320.5C238.5 320 239.2 319 239.4 317.9C239.5 317 239.3 316.1 238.8 315.4C238.3 314.7 237.5 314.1 236.7 314C236.3 313.9 235.8 313.9 235.3 313.9H233.9H231.1C227.3 313.9 223.6 313.9 219.9 313.9C212.5 313.9 205.2 313.9 198.1 313.9H197.9V313.7C194.3 295.8 190.7 278.4 187.4 261.7C185.7 253.3 184 245.2 182.4 237.2C181.6 233.2 180.8 229.3 180 225.3C179.6 223.3 179.2 221.4 178.8 219.5C178.6 218.5 178.4 217.6 178.2 216.6L177.9 215.2C177.8 214.7 177.7 214.3 177.5 213.8C177.1 213 176.5 212.3 175.7 211.9C175.3 211.7 174.8 211.6 174.4 211.5C174 211.5 173.5 211.5 173 211.5C171.1 211.5 169.2 211.5 167.3 211.4C163.5 211.4 159.8 211.3 156.2 211.3C148.9 211.2 141.8 211.1 134.9 211.1C121.2 210.9 108.5 210.8 97.0003 210.7C73.9003 210.4 55.3003 210.2 42.6003 210C39.4003 210 36.6003 209.9 34.1003 209.9C32.9003 209.9 31.7003 209.9 30.7003 209.9C30.2003 209.9 29.7003 209.9 29.2003 210C28.8003 210.1 28.3003 210.3 28.0003 210.5C26.6003 211.4 26.1003 212.7 26.0003 213.5C25.8003 214.1 25.9003 214.6 25.9003 214.6Z" fill="#263238"/>
<path d="M106.4 269.5C109.824 269.5 112.6 266.724 112.6 263.3C112.6 259.875 109.824 257.1 106.4 257.1C102.976 257.1 100.2 259.875 100.2 263.3C100.2 266.724 102.976 269.5 106.4 269.5Z" fill="white"/>
<path d="M26.1006 215.4C26.1006 215.4 26.3006 215.4 26.7006 215.4C27.1006 215.4 27.8006 215.4 28.6006 215.4C30.3006 215.4 32.8006 215.4 35.9006 215.4C42.3006 215.4 51.5006 215.5 62.8006 215.5C85.6006 215.7 117.001 215.9 151.601 216.1C155.901 216.1 160.201 216.2 164.501 216.2C165.601 216.2 166.601 216.2 167.701 216.2C168.201 216.2 168.801 216.2 169.301 216.3C169.801 216.4 170.401 216.6 170.801 216.9C171.701 217.5 172.401 218.4 172.701 219.5C172.901 220.5 173.101 221.5 173.301 222.5C174.901 230.5 176.401 238.3 177.901 245.6C180.801 260.3 183.401 273.6 185.601 284.8C187.801 295.9 189.601 305 190.801 311.2C191.401 314.3 191.901 316.7 192.201 318.4C192.301 319.2 192.501 319.8 192.501 320.3C192.601 320.7 192.601 320.9 192.601 320.9C192.601 320.9 192.501 320.7 192.401 320.3C192.301 319.9 192.201 319.2 192.001 318.4C191.701 316.7 191.201 314.3 190.501 311.2C189.201 305 187.401 295.9 185.201 284.8C183.001 273.6 180.301 260.4 177.301 245.6C175.801 238.2 174.301 230.5 172.701 222.5C172.501 221.5 172.301 220.5 172.101 219.5C171.901 218.6 171.201 217.7 170.401 217.2C170.001 216.9 169.501 216.7 169.001 216.7C168.501 216.6 168.001 216.6 167.501 216.6C166.501 216.6 165.401 216.6 164.301 216.6C160.101 216.6 155.801 216.5 151.401 216.5C116.701 216.2 85.3006 215.9 62.6006 215.7C51.2006 215.6 42.0006 215.5 35.7006 215.4C32.5006 215.4 30.1006 215.3 28.4006 215.3C27.6006 215.3 26.9006 215.3 26.5006 215.3C26.3006 215.5 26.1006 215.4 26.1006 215.4Z" fill="#263238"/>
</g>
<defs>
<clipPath id="clip0">
<rect width="450.3" height="309" fill="white" transform="translate(13 14)"/>
</clipPath>
</defs>
</svg>
