<svg width="436" height="348" viewBox="0 0 436 348" fill="none" xmlns="http://www.w3.org/2000/svg">
<ellipse cx="202" cy="174" rx="172" ry="173" fill="#2E2E2E"/>
<g clip-path="url(#clip0)">
<path d="M361.61 42.3604C363.64 40.5704 365.88 39.0904 368.26 37.9304L368.47 30.5204L380.5 28.1504L383.5 34.9204C386.14 35.0904 388.77 35.6104 391.33 36.4904L396.71 31.4004L406.89 38.2304L404.23 45.1404C406.02 47.1704 407.5 49.4204 408.66 51.7904L416.06 52.0004L418.43 64.0204L411.66 67.0204C411.49 69.6604 410.97 72.2904 410.09 74.8504L415.18 80.2304L408.35 90.4104L401.44 87.7504C399.41 89.5404 397.16 91.0204 394.79 92.1804L394.58 99.5904L382.56 101.96L379.56 95.1904C376.92 95.0204 374.29 94.5004 371.73 93.6204L366.35 98.7104L356.17 91.8804L358.83 84.9704C357.04 82.9404 355.56 80.6904 354.4 78.3204L346.99 78.1104L344.62 66.0904L351.39 63.0904C351.56 60.4504 352.08 57.8204 352.96 55.2604L347.87 49.8804L354.7 39.7004L361.61 42.3604ZM370.91 57.2804C366.87 63.3104 368.48 71.4804 374.51 75.5204C380.54 79.5604 388.71 77.9504 392.75 71.9204C396.79 65.8904 395.18 57.7204 389.15 53.6804C383.13 49.6304 374.96 51.2404 370.91 57.2804Z" fill="#963EEE"/>
<path d="M306.35 37.5696C307.49 36.8796 308.71 36.3496 309.97 35.9996L310.72 32.4196L316.77 32.3096L317.64 35.8596C318.91 36.1696 320.14 36.6496 321.31 37.2996L324.37 35.2996L328.72 39.4996L326.82 42.6296C327.51 43.7696 328.04 44.9896 328.39 46.2496L331.97 46.9996L332.08 53.0496L328.53 53.9196C328.22 55.1896 327.74 56.4196 327.09 57.5896L329.09 60.6496L324.89 64.9996L321.76 63.0996C320.62 63.7896 319.4 64.3196 318.14 64.6696L317.39 68.2496L311.34 68.3596L310.47 64.8096C309.2 64.4996 307.97 64.0196 306.8 63.3696L303.74 65.3696L299.39 61.1696L301.29 58.0396C300.6 56.8996 300.07 55.6796 299.72 54.4196L296.14 53.6696L296.03 47.6196L299.58 46.7496C299.89 45.4796 300.37 44.2496 301.02 43.0796L299.02 40.0196L303.22 35.6696L306.35 37.5696ZM309.58 45.6296C307.09 48.2096 307.16 52.3196 309.74 54.8096C312.32 57.2996 316.43 57.2296 318.92 54.6496C321.41 52.0696 321.34 47.9596 318.76 45.4696C316.18 42.9696 312.07 43.0496 309.58 45.6296Z" fill="#455A64"/>
<path d="M309.58 45.6301C309.58 45.6301 309.92 45.1501 310.79 44.5701C311.64 44.0001 313.13 43.3701 315.02 43.5701C315.95 43.6701 316.97 43.9801 317.9 44.5901C318.82 45.2001 319.69 46.0801 320.23 47.2101C320.52 47.7701 320.71 48.3901 320.82 49.0301C320.94 49.6701 320.95 50.3501 320.86 51.0301C320.7 52.3901 320.05 53.7201 319.06 54.7701C318.05 55.8001 316.73 56.4901 315.38 56.7001C314.71 56.8201 314.03 56.8301 313.38 56.7301C312.73 56.6501 312.1 56.4701 311.54 56.2001C310.39 55.7001 309.48 54.8601 308.84 53.9701C308.19 53.0601 307.85 52.0601 307.72 51.1301C307.45 49.2501 308.03 47.7301 308.57 46.8601C309.11 45.9801 309.58 45.6301 309.58 45.6301C309.62 45.6601 309.19 46.0601 308.69 46.9501C308.2 47.8301 307.68 49.3001 307.97 51.1101C308.12 52.0001 308.46 52.9601 309.08 53.8101C309.71 54.6601 310.57 55.4401 311.67 55.9101C312.21 56.1601 312.8 56.3201 313.42 56.4001C314.03 56.4901 314.68 56.4801 315.31 56.3601C316.59 56.1501 317.82 55.5001 318.78 54.5301C319.72 53.5401 320.33 52.2801 320.49 51.0001C320.58 50.3601 320.57 49.7201 320.46 49.1101C320.36 48.5001 320.18 47.9101 319.91 47.3801C319.41 46.3001 318.59 45.4601 317.72 44.8601C316.84 44.2601 315.87 43.9601 314.98 43.8401C313.17 43.6101 311.71 44.1801 310.85 44.7001C309.99 45.2201 309.61 45.6601 309.58 45.6301Z" fill="#455A64"/>
<path d="M306.35 37.57C306.35 37.58 306.28 37.54 306.15 37.46C306 37.38 305.81 37.26 305.55 37.11C305 36.79 304.22 36.32 303.19 35.72L303.26 35.71C302.19 36.83 300.78 38.3 299.08 40.09L299.09 39.97C299.7 40.89 300.38 41.92 301.11 43.02L301.15 43.07L301.12 43.13C300.53 44.21 300.03 45.43 299.7 46.78L299.68 46.85L299.61 46.87C298.5 47.14 297.31 47.44 296.06 47.75L296.16 47.62C296.2 49.52 296.24 51.55 296.28 53.67L296.16 53.53C297.27 53.76 298.49 54.01 299.74 54.27L299.83 54.29L299.86 54.38C300.19 55.55 300.71 56.79 301.42 57.96L301.47 58.04L301.42 58.12C300.83 59.09 300.19 60.16 299.53 61.25L299.5 61.04C300.87 62.36 302.35 63.78 303.86 65.24L303.64 65.22C304.59 64.59 305.64 63.91 306.7 63.21L306.79 63.15L306.88 63.2C307.95 63.8 309.19 64.3 310.51 64.62L310.62 64.65L310.65 64.76C310.92 65.87 311.22 67.09 311.52 68.31L311.34 68.17C313.26 68.14 315.31 68.1 317.39 68.06L317.21 68.21C317.45 67.08 317.7 65.86 317.95 64.63L317.97 64.52L318.08 64.49C319.27 64.15 320.51 63.63 321.65 62.94L321.75 62.88L321.85 62.94C322.9 63.58 323.94 64.21 324.98 64.84L324.75 64.87C326.17 63.4 327.57 61.95 328.95 60.52L328.93 60.75C328.26 59.72 327.59 58.7 326.93 57.69L326.87 57.6L326.92 57.5C327.56 56.35 328.04 55.12 328.35 53.87L328.38 53.76L328.49 53.73C329.69 53.44 330.87 53.15 332.04 52.86L331.9 53.04C331.87 50.97 331.83 48.96 331.8 46.99L331.94 47.15C330.73 46.9 329.53 46.65 328.36 46.4L328.26 46.38L328.23 46.28C327.87 45 327.34 43.79 326.68 42.7L326.63 42.62L326.68 42.54C327.33 41.47 327.96 40.43 328.58 39.42L328.6 39.61C327.07 38.13 325.63 36.73 324.26 35.4L324.44 35.42C323.36 36.12 322.35 36.78 321.38 37.42L321.31 37.46L321.24 37.42C320.02 36.74 318.8 36.28 317.6 35.98L317.53 35.96L317.51 35.89C317.2 34.6 316.92 33.43 316.65 32.33L316.76 32.41C314.42 32.44 312.42 32.47 310.71 32.49L310.79 32.42C310.48 33.85 310.23 35.02 310.02 36L310.01 36.04L309.98 36.05C308.7 36.41 307.8 36.83 307.21 37.11C306.93 37.26 306.72 37.37 306.56 37.45C306.42 37.54 306.35 37.57 306.35 37.57C306.35 37.57 306.42 37.52 306.55 37.43C306.69 37.35 306.9 37.22 307.19 37.06C307.77 36.75 308.67 36.31 309.95 35.94L309.91 35.99C310.11 35.01 310.34 33.84 310.63 32.4L310.64 32.34H310.71C312.42 32.3 314.42 32.26 316.76 32.21H316.85L316.87 32.3C317.14 33.4 317.43 34.56 317.75 35.85L317.66 35.76C318.88 36.06 320.12 36.52 321.37 37.21H321.23C322.2 36.57 323.21 35.91 324.28 35.2L324.37 35.14L324.45 35.22C325.83 36.55 327.28 37.94 328.81 39.41L328.9 39.5L328.84 39.61C328.23 40.63 327.6 41.67 326.95 42.74V42.57C327.63 43.68 328.17 44.92 328.54 46.23L328.41 46.11C329.58 46.35 330.78 46.6 331.99 46.85L332.12 46.88V47.02C332.16 48.99 332.19 51 332.23 53.07V53.21L332.09 53.24C330.92 53.53 329.74 53.82 328.54 54.11L328.67 53.98C328.36 55.26 327.87 56.52 327.21 57.7L327.2 57.51C327.86 58.52 328.53 59.54 329.21 60.57L329.29 60.69L329.19 60.8C327.81 62.23 326.41 63.68 324.99 65.15L324.89 65.26L324.76 65.18C323.73 64.55 322.68 63.92 321.63 63.29H321.82C320.65 64 319.38 64.53 318.16 64.88L318.29 64.74C318.03 65.97 317.78 67.19 317.54 68.32L317.51 68.46H317.36C315.28 68.5 313.23 68.53 311.31 68.56H311.16L311.13 68.42C310.83 67.19 310.53 65.98 310.26 64.87L310.39 65C309.04 64.67 307.77 64.15 306.68 63.54L306.86 63.53C305.8 64.22 304.75 64.91 303.8 65.53L303.68 65.61L303.58 65.51C302.07 64.05 300.6 62.62 299.23 61.3L299.13 61.21L299.2 61.1C299.86 60.01 300.51 58.95 301.1 57.98V58.15C300.38 56.95 299.85 55.68 299.52 54.49L299.64 54.6C298.39 54.34 297.17 54.08 296.06 53.85L295.95 53.83V53.71C295.92 51.59 295.89 49.56 295.86 47.66V47.55L295.96 47.53C297.21 47.23 298.41 46.94 299.51 46.67L299.42 46.76C299.76 45.39 300.28 44.15 300.89 43.07V43.18C300.17 42.08 299.5 41.04 298.9 40.11L298.86 40.05L298.91 40C300.63 38.24 302.06 36.78 303.14 35.67L303.17 35.64L303.21 35.66C304.21 36.28 304.98 36.76 305.51 37.09C305.76 37.25 305.96 37.37 306.1 37.47C306.29 37.51 306.35 37.56 306.35 37.57Z" fill="#455A64"/>
<path d="M327.35 218.56H327.33L306.69 215.39V215.37L305.8 202.81C301.63 200.99 297.72 198.62 294.19 195.77L282.63 200.8L282.62 200.78L270.27 183.94L270.28 183.92L278.53 174.42C276.87 170.19 275.79 165.75 275.3 161.23L263.56 156.61V156.59L266.73 135.95H266.75L279.31 135.06C281.13 130.89 283.5 126.99 286.34 123.45L281.31 111.89L281.33 111.88L298.16 99.5303L298.18 99.5403L307.69 107.79C311.91 106.14 316.35 105.05 320.88 104.56L325.5 92.8203H325.52L346.17 96.0003V96.0203L347.05 108.58C351.22 110.4 355.13 112.77 358.66 115.62L370.22 110.59L370.23 110.61L382.58 127.45L382.57 127.47L374.32 136.97C375.98 141.2 377.06 145.63 377.55 150.16L389.29 154.78V154.8L386.12 175.44H386.1L373.54 176.33C371.72 180.5 369.35 184.41 366.5 187.94L371.53 199.5L371.51 199.51L354.68 211.86L354.66 211.85L345.16 203.6C340.94 205.26 336.5 206.34 331.97 206.83L327.35 218.56ZM306.73 215.34L327.31 218.5L331.93 206.77H331.94C336.47 206.28 340.92 205.2 345.15 203.54H345.16L345.17 203.55L354.67 211.8L371.46 199.48L366.44 187.93L366.45 187.92C369.3 184.38 371.67 180.47 373.49 176.3L373.5 176.29H373.51L386.07 175.4L389.23 154.82L377.5 150.2V150.19C377.01 145.66 375.93 141.21 374.27 136.98V136.97L374.28 136.96L382.53 127.46L370.21 110.67L358.66 115.7L358.65 115.69C355.11 112.84 351.2 110.47 347.02 108.65L347.01 108.64V108.62L346.13 96.0603L325.55 92.9003L320.93 104.63H320.92C316.38 105.12 311.94 106.2 307.72 107.86L307.71 107.87L307.7 107.86L298.2 99.6103L281.41 111.93L286.43 123.49L286.42 123.5C283.57 127.04 281.2 130.95 279.38 135.13L279.37 135.14H279.36L266.78 136L263.62 156.58L275.35 161.2V161.21C275.84 165.74 276.92 170.18 278.58 174.42V174.43L278.57 174.44L270.32 183.94L282.64 200.73L294.19 195.7L294.2 195.71C297.74 198.56 301.65 200.93 305.82 202.75L305.83 202.76V202.77L306.73 215.34ZM327.22 177.54C326.08 177.54 324.94 177.45 323.79 177.28C320.91 176.84 318.19 175.86 315.71 174.38C313.13 172.84 310.92 170.83 309.13 168.39C307.34 165.95 306.08 163.24 305.39 160.32C304.72 157.5 304.61 154.61 305.05 151.74C305.49 148.86 306.47 146.14 307.95 143.66C309.49 141.08 311.5 138.87 313.94 137.08C316.38 135.29 319.09 134.03 322.01 133.34C324.83 132.67 327.72 132.56 330.59 133C333.47 133.44 336.19 134.42 338.67 135.9C341.25 137.44 343.46 139.45 345.25 141.89C347.04 144.33 348.3 147.04 348.99 149.96C349.66 152.78 349.77 155.67 349.33 158.54C348.89 161.42 347.91 164.14 346.43 166.62C344.89 169.2 342.88 171.41 340.44 173.2C338 174.99 335.29 176.25 332.37 176.94C330.67 177.33 328.95 177.54 327.22 177.54ZM313.95 137.08L313.96 137.1C311.53 138.89 309.52 141.09 307.98 143.66C306.5 146.14 305.53 148.86 305.09 151.73C304.65 154.6 304.76 157.48 305.43 160.29C306.12 163.2 307.38 165.91 309.16 168.34C310.95 170.77 313.15 172.78 315.72 174.32C318.2 175.8 320.92 176.77 323.79 177.21C326.66 177.65 329.54 177.54 332.35 176.87C335.26 176.18 337.97 174.92 340.4 173.14C342.83 171.35 344.84 169.15 346.38 166.58C347.86 164.1 348.83 161.38 349.27 158.51C349.71 155.64 349.6 152.76 348.93 149.95C348.24 147.04 346.98 144.33 345.2 141.9C343.41 139.47 341.21 137.46 338.64 135.92C336.16 134.44 333.44 133.47 330.57 133.03C327.7 132.59 324.82 132.7 322.01 133.37C319.1 134.06 316.39 135.32 313.96 137.1L313.95 137.08Z" fill="#E0E0E0"/>
<path d="M313.95 137.08C313.95 137.08 315.38 135.65 318.68 134.18C321.91 132.75 327.35 131.47 333.65 133.25C336.75 134.15 340.04 135.77 342.83 138.4C345.59 141.02 348.03 144.5 349.21 148.67C349.85 150.73 350.17 152.95 350.15 155.21C350.17 157.47 349.83 159.78 349.11 162.02C347.76 166.53 344.8 170.7 340.8 173.69C336.75 176.61 331.89 178.18 327.18 178.12C324.83 178.14 322.52 177.77 320.37 177.07C318.21 176.4 316.19 175.44 314.42 174.21C310.79 171.83 308.21 168.46 306.54 165.04C304.87 161.58 304.31 157.96 304.38 154.73C304.58 148.18 307.43 143.38 309.76 140.73C312.16 138.02 313.95 137.08 313.95 137.08C314.05 137.2 312.37 138.3 310.15 141.04C307.98 143.73 305.36 148.45 305.29 154.74C305.28 157.84 305.87 161.29 307.5 164.57C309.14 167.81 311.63 170.99 315.08 173.22C316.77 174.38 318.69 175.28 320.74 175.89C322.78 176.54 324.97 176.88 327.19 176.85C331.65 176.9 336.22 175.4 340.05 172.65C343.83 169.82 346.62 165.91 347.92 161.64C348.61 159.53 348.94 157.34 348.94 155.2C348.96 153.06 348.68 150.96 348.09 149C347.01 145.04 344.72 141.71 342.12 139.17C339.49 136.63 336.37 135.03 333.41 134.11C327.39 132.29 322.1 133.37 318.88 134.64C315.59 135.94 314.04 137.22 313.95 137.08Z" fill="white"/>
<path d="M307.69 107.82C307.69 107.84 307.48 107.68 307.07 107.34C306.62 106.97 306.02 106.46 305.24 105.81C303.57 104.39 301.17 102.35 298.05 99.71L298.31 99.72C294.02 102.9 288.38 107.09 281.56 112.16L281.67 111.77C283.21 115.27 284.92 119.15 286.74 123.31L286.83 123.52L286.69 123.7C284.04 127.01 281.63 130.88 279.74 135.26L279.64 135.49L279.38 135.51C275.46 135.8 271.22 136.11 266.8 136.43L267.22 136.04C266.24 142.54 265.2 149.43 264.1 156.67L263.79 156.12C267.42 157.54 271.43 159.11 275.53 160.72L275.83 160.84L275.86 161.16C276.31 165.32 277.35 169.85 279.08 174.23L279.2 174.54L278.98 174.79C276.42 177.74 273.6 181 270.73 184.32L270.76 183.61C274.64 188.89 278.83 194.58 283.12 200.42L282.4 200.23C286 198.66 289.95 196.94 293.95 195.19L294.29 195.04L294.58 195.27C297.86 197.91 301.8 200.37 306.08 202.22L306.42 202.37L306.45 202.75C306.73 206.69 307.04 210.99 307.35 215.33L306.82 214.75C313.35 215.75 320.35 216.82 327.44 217.91L326.75 218.31C328.21 214.6 329.78 210.6 331.37 206.58L331.51 206.22L331.9 206.18C336.14 205.73 340.64 204.68 344.93 202.99H344.94L345.3 202.85L345.59 203.1C348.79 205.87 351.96 208.63 355.11 211.36L354.31 211.33C359.99 207.16 365.6 203.05 371.13 198.99L370.92 199.76C369.23 195.87 367.56 192.01 365.9 188.2L365.75 187.85L365.99 187.55C368.84 184.01 371.18 180.13 372.96 176.07L373.11 175.72L373.48 175.69C377.73 175.39 381.92 175.1 386.06 174.81L385.5 175.33C386.59 168.29 387.65 161.42 388.69 154.71L389.06 155.35C385.08 153.78 381.17 152.23 377.33 150.72L377.01 150.59L376.97 150.24C376.49 145.67 375.39 141.27 373.79 137.17L373.67 136.86L373.89 136.61C376.73 133.35 379.48 130.19 382.17 127.11L382.14 127.77C377.81 121.84 373.72 116.25 369.83 110.92L370.42 111.08C366.35 112.84 362.53 114.49 358.85 116.08L358.59 116.19L358.37 116.02C354.63 112.99 350.74 110.71 346.86 109L346.62 108.9L346.6 108.65C346.29 104.08 346.02 99.96 345.75 96.07L346.07 96.42C338.09 95.16 331.29 94.08 325.46 93.16L325.77 92.98C323.89 97.65 322.36 101.49 321.07 104.68L321.02 104.8L320.9 104.81C316.34 105.28 313.04 106.17 310.88 106.81C309.84 107.14 309.05 107.4 308.47 107.59C307.95 107.76 307.69 107.83 307.69 107.82C307.69 107.8 307.96 107.68 308.46 107.47C308.98 107.26 309.77 106.95 310.84 106.59C312.99 105.88 316.29 104.91 320.88 104.38L320.71 104.51C321.95 101.3 323.44 97.45 325.25 92.75L325.33 92.54L325.56 92.57C331.39 93.44 338.2 94.46 346.19 95.65L346.49 95.69L346.51 95.99C346.8 99.88 347.1 104 347.44 108.56L347.19 108.2C351.15 109.92 355.12 112.21 358.94 115.28L358.47 115.22C362.15 113.61 365.96 111.94 370.02 110.16L370.38 110L370.61 110.32C374.52 115.63 378.63 121.21 382.99 127.12L383.24 127.46L382.96 127.78C380.28 130.87 377.54 134.04 374.71 137.31L374.81 136.74C376.46 140.92 377.59 145.42 378.1 150.09L377.74 149.62C381.58 151.13 385.5 152.66 389.48 154.23L389.92 154.4L389.85 154.87C388.83 161.58 387.78 168.45 386.7 175.49L386.63 175.97L386.14 176C382 176.3 377.82 176.59 373.56 176.9L374.08 176.53C372.26 180.7 369.88 184.68 366.95 188.31L367.04 187.66C368.7 191.47 370.38 195.33 372.07 199.22L372.27 199.69L371.86 199.99C366.33 204.05 360.73 208.16 355.04 212.34L354.63 212.64L354.24 212.3C351.09 209.57 347.92 206.81 344.72 204.04L345.37 204.15H345.36C340.96 205.88 336.35 206.96 332 207.42L332.53 207.02C330.94 211.05 329.37 215.05 327.91 218.75L327.72 219.22L327.22 219.14C320.13 218.05 313.13 216.97 306.6 215.96L306.1 215.88L306.07 215.38C305.77 211.04 305.47 206.74 305.19 202.8L305.56 203.32C301.18 201.41 297.15 198.89 293.8 196.18L294.43 196.26C290.42 198 286.47 199.71 282.87 201.28L282.43 201.47L282.15 201.09C277.87 195.25 273.7 189.54 269.83 184.25L269.56 183.88L269.86 183.54C272.74 180.23 275.57 176.98 278.14 174.04L278.04 174.6C276.28 170.12 275.24 165.49 274.8 161.24L275.13 161.68C271.03 160.06 267.04 158.47 263.41 157.04L263.03 156.89L263.09 156.49C264.22 149.26 265.29 142.37 266.3 135.88L266.36 135.52L266.72 135.49C271.14 135.19 275.38 134.9 279.3 134.64L278.94 134.89C280.89 130.45 283.37 126.53 286.08 123.19L286.03 123.58C284.24 119.41 282.56 115.51 281.05 112L280.95 111.76L281.16 111.61C288.04 106.62 293.73 102.5 298.05 99.37L298.18 99.27L298.3 99.38C301.33 102.07 303.67 104.15 305.29 105.59C306.05 106.28 306.64 106.81 307.08 107.21C307.49 107.6 307.7 107.8 307.69 107.82Z" fill="white"/>
<path d="M363.09 346.71L375.77 212.56C376.77 202 368.58 192.82 357.98 192.6L216.89 189.75C207.24 189.56 199.11 196.91 198.34 206.52L187.53 346.64L363.09 346.71Z" fill="#455A64"/>
<path d="M343.08 346.68C343.09 346.68 343.11 346.52 343.15 346.21C343.19 345.87 343.24 345.41 343.31 344.82C343.44 343.57 343.63 341.77 343.88 339.46C344.35 334.77 345.03 328.04 345.87 319.73C347.5 303.05 349.75 280.04 352.23 254.63C354.12 234.83 355.87 216.5 357.3 201.58V201.57V201.56C357.28 200.81 357.26 200.07 357.24 199.35C357.23 198.63 357.2 197.88 357.01 197.17C356.64 195.75 355.78 194.51 354.68 193.66C353.58 192.81 352.24 192.34 350.93 192.29C349.65 192.27 348.42 192.24 347.22 192.22C342.44 192.14 338.28 192.08 334.85 192.02C331.46 191.98 328.79 191.95 326.94 191.92C326.05 191.92 325.36 191.91 324.87 191.91C324.4 191.91 324.16 191.93 324.16 191.93C324.16 191.93 324.4 191.96 324.87 191.98C325.37 192 326.06 192.02 326.94 192.06C328.79 192.11 331.45 192.19 334.85 192.28C338.27 192.36 342.43 192.47 347.21 192.58C348.41 192.61 349.64 192.64 350.91 192.67C352.14 192.72 353.4 193.17 354.42 193.98C355.44 194.79 356.24 195.95 356.58 197.28C356.76 197.94 356.78 198.64 356.79 199.37C356.81 200.09 356.82 200.82 356.84 201.56V201.54C355.39 216.46 353.6 234.79 351.67 254.58C349.25 280 347.06 303.01 345.47 319.69C344.71 328 344.09 334.74 343.66 339.43C343.46 341.74 343.3 343.54 343.2 344.8C343.15 345.39 343.12 345.86 343.09 346.2C343.07 346.51 343.07 346.68 343.08 346.68Z" fill="#263238"/>
<path d="M173.79 175.36L198.57 161.05L247.22 156.25L247.54 163.39L234.4 262.8L245.11 346.68H167.13L173.79 175.36Z" fill="#963EEE"/>
<path d="M196.74 171.21L195.22 156.9C194.95 154.38 196.8 152.13 199.32 151.9L244.7 147.8C245.93 147.69 247 148.64 247.03 149.87L247.54 166.89L234.4 189.19L220.89 193.49H204.37L194.87 183.35L196.74 171.21Z" fill="#963EEE"/>
<path d="M240.84 161.439C240.83 161.489 240.19 161.369 239.03 161.249C237.87 161.139 236.17 161.039 234.08 161.169C231.99 161.289 229.52 161.639 226.81 162.219C224.1 162.789 221.15 163.589 218.03 164.349C214.91 165.109 211.89 165.729 209.1 165.939C206.31 166.169 203.75 165.959 201.69 165.439C199.62 164.929 198.07 164.149 197.07 163.519C196.57 163.199 196.2 162.919 195.97 162.719C195.73 162.519 195.62 162.399 195.63 162.389C195.66 162.349 196.17 162.749 197.19 163.329C198.21 163.889 199.76 164.609 201.79 165.049C203.82 165.509 206.32 165.669 209.06 165.419C211.81 165.179 214.79 164.549 217.9 163.799C221.01 163.039 223.97 162.259 226.7 161.709C229.43 161.149 231.94 160.839 234.05 160.779C236.16 160.709 237.88 160.859 239.04 161.049C239.62 161.149 240.07 161.229 240.37 161.309C240.69 161.369 240.85 161.419 240.84 161.439Z" fill="#455A64"/>
<g opacity="0.3">
<g opacity="0.3">
<g opacity="0.3">
<g opacity="0.3">
<path opacity="0.3" d="M197.82 163.69C196.61 167.03 196.57 171.17 199.04 173.73C201.05 175.82 204.28 176.34 207.12 175.77C209.96 175.2 212.52 173.71 215.01 172.23C221.26 168.51 227.6 164.66 234.7 163.09C235.16 162.99 235.64 162.88 235.97 162.56C236.3 162.23 236.39 161.61 236.01 161.33C235.84 161.21 235.63 161.18 235.42 161.16C229.14 160.53 223.11 163.02 216.95 164.4C210.8 165.78 203.73 167.22 198.1 163.91" fill="black"/>
</g>
</g>
</g>
</g>
<path d="M206.49 151.449C206.54 151.529 205.61 151.749 204.94 152.929C204.22 154.079 204.32 156.029 204.32 158.139C204.44 162.369 205.14 165.759 204.97 165.789C204.9 165.809 204.63 164.979 204.36 163.599C204.08 162.219 203.82 160.299 203.76 158.149C203.74 157.079 203.73 156.059 203.82 155.119C203.92 154.179 204.19 153.319 204.6 152.709C205.01 152.099 205.51 151.729 205.88 151.569C206.25 151.419 206.48 151.419 206.49 151.449Z" fill="#455A64"/>
<path d="M218.48 163.89C218.3 163.87 218.71 160.75 218.15 156.96C217.63 153.16 216.37 150.28 216.54 150.22C216.6 150.19 217 150.87 217.47 152.06C217.94 153.25 218.44 154.95 218.72 156.88C218.99 158.81 218.98 160.59 218.86 161.86C218.74 163.13 218.55 163.9 218.48 163.89Z" fill="#455A64"/>
<path d="M233.09 149.02C233.15 148.99 233.56 149.59 233.96 150.7C234.36 151.8 234.67 153.43 234.55 155.24C234.43 157.04 233.9 158.62 233.36 159.66C232.82 160.71 232.33 161.25 232.28 161.21C232.11 161.13 233.78 158.69 233.98 155.2C234.25 151.71 232.92 149.07 233.09 149.02Z" fill="#455A64"/>
<path d="M140.62 297.839C140.62 297.839 151.64 216.859 154.83 202.149C158.9 183.439 173.79 175.359 173.79 175.359L176.84 322.129L163.44 339.009L148.5 344.749C145.07 346.069 141.27 346.129 137.8 344.919L123.43 339.909L122.21 312.539L134.35 309.019L140.62 297.839Z" fill="#963EEE"/>
<path d="M290.11 173.98C301.3 178.31 309.56 187.95 312.21 199.65C320.79 237.47 335.47 287.77 335.7 304C335.99 324.67 326.95 338.83 315.15 341.43C308.4 342.92 262.49 342.17 237.56 341.64C228.35 341.44 220.68 334.53 219.54 325.38C218.28 315.36 225.27 306.16 235.26 304.69L285.77 297.25L276.39 244.84L285.67 172.25L290.11 173.98Z" fill="#963EEE"/>
<path d="M246.24 157.76L266.44 166.03L285.68 172.27L286.13 229.84L274.72 346.53L234.57 346.68L234.65 294.6C233.16 269.51 234.79 244.33 239.53 219.64L245.64 170.13" fill="#963EEE"/>
<path d="M275.85 239.56C275.87 239.56 275.92 239.76 276 240.14C276.09 240.59 276.2 241.14 276.33 241.82C276.61 243.36 277 245.46 277.46 248.01C278.38 253.32 279.64 260.51 281.02 268.47C282.35 276.43 283.55 283.64 284.43 288.96C284.83 291.53 285.16 293.63 285.4 295.18C285.5 295.86 285.57 296.42 285.64 296.88C285.69 297.27 285.7 297.47 285.68 297.48C285.66 297.48 285.61 297.28 285.52 296.9C285.43 296.45 285.32 295.9 285.18 295.22C284.89 293.68 284.5 291.58 284.03 289.03C283.08 283.8 281.82 276.57 280.45 268.57C279.09 260.58 277.89 253.33 277.05 248.08C276.66 245.51 276.33 243.41 276.09 241.86C276 241.17 275.92 240.61 275.86 240.16C275.84 239.76 275.83 239.56 275.85 239.56Z" fill="#963EEE"/>
<path d="M294.8 182.15C294.81 182.19 294.25 182.38 293.25 182.72C292.26 183.09 290.82 183.64 289.14 184.5C285.79 186.2 281.42 189.3 278.03 193.97C277.17 195.12 276.44 196.33 275.84 197.53C275.29 198.76 274.83 199.98 274.53 201.19C273.87 203.59 273.59 205.84 273.43 207.72C273.27 209.61 273.24 211.14 273.23 212.2C273.22 213.26 273.23 213.85 273.19 213.85C273.15 213.85 273.07 213.27 273.01 212.2C272.95 211.14 272.92 209.59 273.04 207.68C273.16 205.78 273.4 203.5 274.04 201.04C274.34 199.81 274.79 198.54 275.36 197.28C275.98 196.03 276.71 194.8 277.59 193.62C281.05 188.86 285.55 185.76 288.98 184.12C290.71 183.29 292.18 182.8 293.2 182.49C294.21 182.24 294.79 182.12 294.8 182.15Z" fill="#963EEE"/>
<path d="M234.12 304.91C234.12 304.93 234.37 304.91 234.83 304.86C235.35 304.8 236.01 304.71 236.84 304.61C238.65 304.36 241.16 304.01 244.22 303.58C250.5 302.65 259.07 301.38 268.53 299.97C275.02 298.97 281.08 298.04 286.21 297.24H286.14C288.6 297.59 290.72 298.66 292.28 299.95C293.87 301.21 294.93 302.69 295.63 303.95C297.02 306.54 297.02 308.31 297.13 308.28C297.14 308.28 297.14 308.17 297.12 307.97C297.1 307.77 297.08 307.46 297 307.07C296.85 306.29 296.55 305.15 295.87 303.82C295.18 302.51 294.14 300.97 292.52 299.64C290.94 298.29 288.77 297.15 286.2 296.76L286.17 296.75L286.13 296.76C281 297.53 274.93 298.44 268.44 299.41C258.99 300.88 250.43 302.21 244.15 303.18C241.1 303.68 238.6 304.09 236.8 304.39C235.98 304.54 235.32 304.65 234.81 304.75C234.36 304.83 234.12 304.89 234.12 304.91Z" fill="#263238"/>
<path d="M238.19 341.649C238.2 341.669 238.36 341.609 238.67 341.489C238.97 341.349 239.45 341.219 239.99 340.889C241.12 340.329 242.65 339.249 244.16 337.559C245.68 335.869 247.05 333.479 247.95 330.609C248.82 327.739 249.18 324.389 248.69 320.949C248.15 317.499 246.61 314.439 244.71 312.119C242.81 309.779 240.61 308.119 238.6 307.079C236.59 306.029 234.81 305.519 233.56 305.309C232.94 305.169 232.45 305.169 232.12 305.129C231.79 305.099 231.62 305.099 231.61 305.119C231.56 305.279 234.48 305.269 238.4 307.429C240.35 308.489 242.47 310.139 244.29 312.439C246.12 314.719 247.59 317.689 248.11 321.019C248.59 324.369 248.26 327.639 247.43 330.449C246.57 333.249 245.28 335.609 243.83 337.289C242.39 338.979 240.94 340.079 239.86 340.689C238.81 341.329 238.17 341.599 238.19 341.649Z" fill="#263238"/>
<g opacity="0.2">
<g opacity="0.2">
<path opacity="0.2" d="M276.59 243.3L269.05 299.61L278.6 297.46L281.57 272.9L276.59 243.3Z" fill="black"/>
</g>
</g>
<g opacity="0.3">
<g opacity="0.3">
<g opacity="0.3">
<path opacity="0.3" d="M122.41 312.549C126.39 311.779 132.17 311.679 136.13 312.569C140.09 313.449 143.36 315.999 145.28 319.559C147.07 322.879 147.6 326.669 146.84 330.369C146.19 333.539 145.51 336.819 143.19 339.079C139.77 342.399 136.4 343.469 131.98 342.689L123.43 339.899L122.41 312.549Z" fill="black"/>
</g>
</g>
</g>
<path d="M129.73 342.1C129.72 342.12 129.92 342.2 130.3 342.34C130.68 342.48 131.25 342.66 132 342.8C133.49 343.1 135.8 343.3 138.46 342.45C139.77 342.01 141.16 341.31 142.38 340.21C143.61 339.13 144.68 337.72 145.51 336.09C146.35 334.46 146.94 332.62 147.3 330.66C147.63 328.72 147.89 326.62 147.44 324.52C147.02 322.43 146.16 320.53 145.16 318.82C144.15 317.09 142.81 315.64 141.31 314.58C139.81 313.51 138.16 312.84 136.58 312.47C134.99 312.12 133.48 312 132.11 311.97C129.36 311.92 127.16 312.21 125.65 312.39C124.95 312.49 124.37 312.57 123.91 312.64C123.51 312.71 123.31 312.75 123.31 312.77C123.31 312.79 123.52 312.78 123.92 312.75C124.38 312.71 124.96 312.66 125.67 312.61C127.19 312.49 129.39 312.27 132.1 312.37C133.45 312.42 134.94 312.57 136.47 312.93C138 313.31 139.57 313.98 141.01 315.01C143.9 317.06 145.97 320.68 146.88 324.64C147.31 326.63 147.07 328.66 146.75 330.57C146.41 332.48 145.84 334.28 145.04 335.86C144.25 337.45 143.22 338.82 142.06 339.87C140.91 340.94 139.58 341.63 138.32 342.08C135.77 342.95 133.5 342.83 132.03 342.59C130.54 342.34 129.75 342.05 129.73 342.1Z" fill="#263238"/>
<g opacity="0.3">
<g opacity="0.3">
<g opacity="0.3">
<path opacity="0.3" d="M232.88 305.229C236.89 306.329 241.14 307.569 243.89 310.689C245.79 312.839 247.58 316.589 248.1 319.409C249.22 325.439 248.39 330.139 245.19 335.369C244.15 337.079 242 339.539 240.24 340.509C238.24 341.609 235.85 341.799 233.6 341.439C227.56 340.479 222.48 335.589 220.7 329.739C218.92 323.889 219.9 316.419 223.29 311.329C224.91 308.899 230.1 306.119 232.88 305.229Z" fill="black"/>
</g>
</g>
</g>
<path d="M306.19 319.18C306.15 319.19 306.01 318.76 305.76 317.98C305.51 317.2 305.15 316.07 304.66 314.69C303.68 311.95 302.15 308.14 299.43 304.62C296.7 301.11 293.2 298.86 290.46 297.92C287.71 296.94 285.84 297.05 285.86 296.93C285.86 296.9 286.32 296.86 287.14 296.9C287.97 296.94 289.16 297.12 290.58 297.57C293.41 298.44 297.05 300.7 299.84 304.29C302.62 307.89 304.11 311.77 305.01 314.56C305.46 315.96 305.76 317.12 305.95 317.92C306.14 318.72 306.22 319.17 306.19 319.18Z" fill="#455A64"/>
<path d="M271.43 215.72C271.45 215.72 271.53 215.99 271.66 216.53C271.8 217.11 271.98 217.89 272.21 218.86C272.68 220.89 273.32 223.83 274.09 227.47C275.63 234.75 277.62 244.84 279.57 256.03C281.52 267.22 283.06 277.4 284.07 284.77C284.58 288.46 284.97 291.44 285.21 293.51C285.32 294.51 285.41 295.3 285.48 295.89C285.54 296.44 285.56 296.72 285.54 296.73C285.52 296.73 285.47 296.45 285.38 295.91C285.29 295.32 285.17 294.53 285.01 293.54C284.69 291.43 284.25 288.47 283.71 284.82C282.6 277.46 281.01 267.3 279.06 256.12C277.11 244.94 275.17 234.84 273.73 227.54C273.01 223.93 272.43 220.99 272.01 218.9C271.82 217.91 271.67 217.13 271.56 216.55C271.45 216.01 271.41 215.73 271.43 215.72Z" fill="#455A64"/>
<path d="M288.55 175.24C288.59 175.32 287.44 175.95 285.73 177.17C284.02 178.39 281.78 180.27 279.71 182.71C277.64 185.16 276.15 187.67 275.22 189.55C274.29 191.44 273.85 192.67 273.77 192.64C273.74 192.63 273.82 192.31 273.99 191.74C274.16 191.17 274.46 190.36 274.89 189.39C275.74 187.44 277.21 184.85 279.32 182.37C281.43 179.89 283.75 178.02 285.53 176.86C286.42 176.28 287.17 175.85 287.71 175.59C288.24 175.34 288.54 175.21 288.55 175.24Z" fill="#455A64"/>
<path d="M168.06 308.89C168.05 308.89 168.04 308.8 168.03 308.64C168.02 308.44 168.01 308.2 168 307.9C167.99 307.2 167.97 306.25 167.95 305.04C167.9 302.56 167.89 298.97 167.61 294.54C167.46 292.33 167.23 289.91 166.84 287.34C166.46 284.77 165.85 282.05 165.13 279.21C163.73 273.54 161.73 267.32 161.31 260.49C160.92 253.66 162.23 247.21 163.73 241.55C165.25 235.87 166.93 230.85 168.13 226.59C169.36 222.33 170.15 218.83 170.55 216.38C170.79 215.16 170.88 214.2 170.99 213.56C171.04 213.26 171.07 213.02 171.1 212.83C171.13 212.66 171.15 212.58 171.16 212.58C171.17 212.58 171.17 212.67 171.16 212.83C171.14 213.03 171.12 213.27 171.1 213.57C171.03 214.22 170.97 215.19 170.76 216.41C170.41 218.87 169.69 222.4 168.49 226.68C167.33 230.97 165.69 236 164.2 241.67C162.72 247.32 161.45 253.71 161.83 260.45C162.24 267.19 164.21 273.39 165.59 279.09C166.29 281.94 166.9 284.68 167.26 287.27C167.63 289.86 167.84 292.29 167.97 294.51C168.21 298.95 168.16 302.55 168.15 305.03C168.13 306.24 168.11 307.19 168.1 307.89C168.09 308.19 168.08 308.44 168.07 308.63C168.08 308.81 168.07 308.89 168.06 308.89Z" fill="#455A64"/>
<path d="M272.1 193.029C272.1 193.039 271.99 193.009 271.79 192.949C271.56 192.879 271.26 192.789 270.89 192.669C270.09 192.459 268.9 192.139 267.34 191.969C264.23 191.589 259.57 191.849 254.26 193.759C251.61 194.699 248.82 196.039 245.95 197.689C243.07 199.329 240.1 201.269 236.95 203.279C233.8 205.279 230.44 207.349 226.72 209.039C223.01 210.729 218.91 212.049 214.56 212.359C210.2 212.689 205.93 211.659 202.2 209.999C198.45 208.339 195.13 206.199 192.03 204.119C188.93 202.039 186 200.029 183.1 198.439C180.21 196.839 177.35 195.629 174.62 194.979C171.89 194.329 169.32 194.239 167.11 194.479C164.9 194.739 163.04 195.319 161.63 195.999C158.79 197.389 157.7 198.859 157.64 198.779C157.63 198.769 157.71 198.689 157.85 198.539C158 198.389 158.22 198.149 158.52 197.869C159.15 197.329 160.11 196.539 161.54 195.819C162.96 195.109 164.83 194.489 167.08 194.199C169.32 193.929 171.93 193.999 174.71 194.629C177.49 195.269 180.39 196.479 183.31 198.079C186.24 199.679 189.19 201.669 192.3 203.739C195.41 205.799 198.71 207.929 202.41 209.549C206.09 211.179 210.25 212.179 214.53 211.859C218.8 211.559 222.84 210.269 226.51 208.599C230.2 206.929 233.54 204.879 236.7 202.899C239.86 200.909 242.84 198.969 245.74 197.339C248.64 195.699 251.46 194.369 254.14 193.439C259.51 191.559 264.23 191.349 267.36 191.799C268.94 191.999 270.12 192.349 270.92 192.599C271.29 192.739 271.58 192.849 271.81 192.929C272 192.979 272.1 193.019 272.1 193.029Z" fill="#FAFAFA"/>
<path d="M310.32 203.67C310.35 203.69 309.99 204.1 309.32 204.8C308.99 205.16 308.57 205.59 308.04 206.03C307.51 206.48 306.94 207.03 306.22 207.53C305.52 208.06 304.75 208.62 303.86 209.14C303 209.71 302.02 210.2 300.99 210.73C298.9 211.72 296.51 212.61 293.91 213.23C291.3 213.81 288.76 214.05 286.44 214.07C285.28 214.03 284.18 214.03 283.16 213.89C282.13 213.81 281.19 213.63 280.34 213.46C279.48 213.33 278.72 213.08 278.05 212.9C277.38 212.73 276.81 212.53 276.36 212.35C275.45 212 274.95 211.8 274.96 211.77C275 211.66 277 212.49 280.4 213.1C281.25 213.25 282.18 213.4 283.2 213.46C284.21 213.58 285.29 213.57 286.43 213.59C288.71 213.54 291.21 213.3 293.78 212.72C296.34 212.12 298.7 211.25 300.77 210.3C301.79 209.78 302.77 209.32 303.62 208.77C304.51 208.27 305.28 207.73 305.98 207.23C308.8 205.21 310.24 203.58 310.32 203.67Z" fill="#FAFAFA"/>
<path d="M167.59 222.76C167.59 222.82 166.69 222.92 165.23 222.83C163.77 222.74 161.76 222.43 159.63 221.71C157.51 220.99 155.71 220.03 154.5 219.21C153.28 218.4 152.62 217.78 152.66 217.73C152.75 217.59 155.62 219.83 159.8 221.21C163.96 222.65 167.6 222.59 167.59 222.76Z" fill="#FAFAFA"/>
<path d="M273.64 229.01C273.59 229.08 272.5 228 270.06 226.81C267.65 225.59 263.74 224.63 258.9 224.77C254.04 224.84 248.37 226.12 242.17 227.77C235.95 229.39 229.17 231.46 221.85 232.83C218.19 233.51 214.57 233.97 211.06 234.07C207.55 234.19 204.15 233.99 200.95 233.6C194.54 232.8 188.9 231.35 184.23 229.98C179.56 228.59 175.84 227.3 173.27 226.4C172.02 225.95 171.03 225.6 170.32 225.34C170.01 225.22 169.76 225.13 169.56 225.05C169.39 224.98 169.3 224.94 169.31 224.93C169.31 224.92 169.4 224.94 169.58 225C169.78 225.06 170.04 225.14 170.36 225.24C171.08 225.47 172.07 225.8 173.34 226.21C175.93 227.05 179.66 228.29 184.34 229.63C189.01 230.95 194.64 232.36 201.01 233.13C204.19 233.51 207.56 233.69 211.05 233.57C214.53 233.46 218.13 233 221.77 232.33C229.05 230.97 235.83 228.92 242.06 227.32C248.28 225.7 254 224.44 258.91 224.42C263.81 224.32 267.75 225.36 270.17 226.65C270.47 226.81 270.76 226.96 271.03 227.1C271.28 227.26 271.52 227.42 271.75 227.56C272.2 227.84 272.56 228.09 272.83 228.33C273.09 228.54 273.3 228.71 273.46 228.85C273.58 228.94 273.65 229 273.64 229.01Z" fill="#FAFAFA"/>
<path d="M242.744 37.439C241.546 28.4826 233.582 20.9094 224.589 20.1672C222.227 19.9648 219.78 20.1841 217.553 19.3745C215.731 18.7167 214.212 17.4179 212.508 16.4902C207.025 13.5385 199.516 15.1071 195.669 19.9985C192.059 24.6201 190.591 18.1938 182.07 23.2539C175.001 27.4537 178.696 33.2897 178.696 33.2897C171.407 32.9861 164.337 38.6197 163.004 45.7882C162.161 50.3422 163.089 55.8915 159.546 58.8601C157.825 60.2938 155.429 60.6986 153.657 62.0648C150.35 64.6117 150.232 69.5369 150.991 73.6355C151.734 77.7342 153.016 82.069 151.497 85.9484C149 92.3073 139.94 94.8373 138.809 101.584C138.286 104.772 139.619 108.584 137.409 110.928C136.515 111.873 135.232 112.312 134.068 112.885C129.344 115.196 126.104 120.273 126.003 125.518C125.885 130.781 128.905 135.976 133.528 138.489C134.811 139.197 136.346 139.838 136.835 141.221C137.392 142.756 136.363 144.359 135.637 145.826C132.955 151.173 134.271 158.24 138.691 162.271C143.112 166.303 150.266 166.96 155.344 163.806C158.061 168.664 162.734 172.375 168.083 173.927C170.546 174.635 173.212 174.905 175.659 174.129C177.616 173.505 179.32 172.274 180.855 170.924C188.229 164.498 198.572 154.664 199.263 144.915" fill="#263238"/>
<path d="M174.916 73.0945C174.916 73.1957 173.6 73.3644 171.508 73.0439C169.416 72.7403 166.547 71.8463 163.797 70.0753C161.064 68.3043 159.056 66.061 157.925 64.2731C156.778 62.4852 156.39 61.2202 156.491 61.1864C156.626 61.119 157.234 62.2659 158.465 63.902C159.697 65.5381 161.671 67.6127 164.303 69.3163C166.935 71.003 169.635 71.9644 171.626 72.4198C173.617 72.8584 174.916 72.9258 174.916 73.0945Z" fill="#455A64"/>
<path d="M179.843 50.6783C179.91 50.7457 179.168 51.7072 177.633 52.8878C176.097 54.0685 173.701 55.401 170.799 56.1432C167.897 56.8685 165.164 56.8685 163.24 56.5649C161.317 56.2612 160.203 55.789 160.237 55.6878C160.271 55.3842 164.961 56.7335 170.563 55.2661C176.198 53.8661 179.674 50.4253 179.843 50.6783Z" fill="#455A64"/>
<path d="M143.618 161.663C143.618 161.68 143.516 161.663 143.314 161.613C143.111 161.562 142.825 161.495 142.437 161.36C141.694 161.09 140.581 160.618 139.383 159.673C138.168 158.745 136.852 157.345 135.907 155.372C134.962 153.415 134.506 150.818 135.063 148.102C135.333 146.753 135.839 145.37 136.649 144.088C137.425 142.772 138.59 141.676 139.771 140.613C140.935 139.551 142.2 138.488 142.993 137.122C143.803 135.756 143.888 134.035 143.145 132.534C142.42 131.016 141.171 129.684 139.99 128.233C139.399 127.508 138.809 126.732 138.32 125.855C137.847 124.961 137.527 123.999 137.375 122.987C136.818 118.99 138.86 114.436 142.875 112.58C144.9 111.687 146.992 111.653 148.865 111.197C149.81 110.978 150.687 110.641 151.413 110.118C152.121 109.578 152.644 108.836 152.881 107.993C153.37 106.272 152.931 104.383 152.29 102.73C151.615 101.06 150.653 99.4749 150.029 97.7544C149.371 96.0677 149.084 94.128 149.675 92.4076C150.232 90.6872 151.43 89.3378 152.712 88.3595C155.327 86.3524 158.347 85.6608 160.895 84.9018C163.46 84.1765 165.737 83.2994 167.357 81.9669C168.943 80.6344 169.77 78.914 170.057 77.4803C170.344 76.0298 170.074 74.8659 169.736 74.1744C169.399 73.466 169.078 73.1792 169.129 73.1455C169.129 73.1455 169.5 73.3816 169.905 74.0901C170.31 74.7816 170.664 76.0129 170.411 77.5309C170.158 79.049 169.348 80.8706 167.695 82.338C166.024 83.7886 163.662 84.7331 161.097 85.509C158.533 86.3018 155.631 87.027 153.201 88.933C152.003 89.8775 150.94 91.1088 150.468 92.6269C149.979 94.1449 150.232 95.8316 150.856 97.434C151.463 99.0532 152.408 100.605 153.151 102.376C153.842 104.13 154.365 106.171 153.792 108.229C153.505 109.258 152.847 110.169 152.003 110.826C151.143 111.467 150.113 111.838 149.118 112.074C147.127 112.564 145.052 112.614 143.297 113.407C139.72 115.026 137.797 119.226 138.32 122.836C138.455 123.746 138.741 124.607 139.163 125.399C139.602 126.192 140.159 126.934 140.732 127.643C141.88 129.076 143.179 130.426 143.989 132.146C144.832 133.85 144.731 135.975 143.769 137.51C142.841 139.062 141.525 140.124 140.361 141.17C139.18 142.216 138.083 143.228 137.341 144.442C136.565 145.64 136.076 146.939 135.789 148.22C135.232 150.784 135.603 153.247 136.464 155.136C137.324 157.042 138.556 158.442 139.703 159.369C141.913 161.275 143.668 161.545 143.618 161.663Z" fill="#455A64"/>
<path d="M244.009 52.4664L243.857 45.5341L201.878 39.3102C188.971 38.4668 175.608 51.9098 175.321 64.8299C175.001 79.1837 175.169 96.7254 177.312 107.335C181.581 128.655 198.166 130.712 198.166 130.712L199.128 152.032L246.675 150.7L244.009 52.4664Z" fill="#FFBE9D"/>
<path d="M180.754 80.5665C180.754 82.0171 182.003 83.2146 183.521 83.2315C185.04 83.2484 186.272 82.0846 186.255 80.634C186.255 79.1834 185.006 77.9859 183.488 77.9521C181.969 77.9521 180.737 79.116 180.754 80.5665Z" fill="#263238"/>
<path d="M180.231 73.753C180.585 74.0903 182.61 72.4711 185.58 72.353C188.532 72.2012 190.776 73.6349 191.08 73.2639C191.232 73.0952 190.861 72.4711 189.882 71.8133C188.92 71.1723 187.301 70.5651 185.461 70.6495C183.622 70.7338 182.087 71.476 181.226 72.2012C180.349 72.9265 180.062 73.6012 180.231 73.753Z" fill="#263238"/>
<path d="M208.172 79.4874C208.172 80.938 209.42 82.1355 210.939 82.1524C212.457 82.1693 213.689 81.0055 213.672 79.5549C213.672 78.1043 212.424 76.9068 210.905 76.873C209.403 76.873 208.172 78.0369 208.172 79.4874Z" fill="#263238"/>
<path d="M209.403 73.1116C209.758 73.4489 211.782 71.8297 214.752 71.7116C217.705 71.5598 219.949 72.9935 220.252 72.6224C220.404 72.4538 220.033 71.8297 219.054 71.1719C218.093 70.5141 216.473 69.9237 214.634 70.0081C212.795 70.0924 211.259 70.8345 210.399 71.5598C209.521 72.302 209.235 72.9598 209.403 73.1116Z" fill="#263238"/>
<path d="M199.533 95.5448C199.533 95.3761 197.677 95.14 194.674 94.8701C193.915 94.8195 193.189 94.7014 193.038 94.1954C192.835 93.6557 193.122 92.8292 193.459 91.9353C194.1 90.0799 194.758 88.1233 195.467 86.0824C198.251 77.7501 200.225 70.9021 199.888 70.8009C199.55 70.6997 197.019 77.3622 194.252 85.6945C193.594 87.7522 192.953 89.7088 192.346 91.5811C192.093 92.4581 191.637 93.4533 192.076 94.5665C192.295 95.1231 192.869 95.5111 193.358 95.6291C193.847 95.7641 194.269 95.7472 194.657 95.7472C197.661 95.7641 199.533 95.7135 199.533 95.5448Z" fill="#263238"/>
<path d="M198.184 130.78C198.184 130.78 213.403 131.05 227.39 121.857C227.39 121.857 220.742 137.19 198.42 136.127L198.184 130.78Z" fill="#EB996E"/>
<path d="M201.085 102.629C202.098 101.179 203.937 100.318 205.793 100.453C207.092 100.538 208.408 101.111 209.235 102.123C210.061 103.135 210.281 104.619 209.606 105.648C208.847 106.812 207.193 107.133 205.759 106.795C204.325 106.458 203.076 105.564 201.878 104.687C201.541 104.451 201.203 104.181 201.001 103.844C200.782 103.506 200.731 103.034 200.967 102.747" fill="#EB996E"/>
<path d="M208.341 97.2317C207.852 97.2148 207.987 100.436 205.321 102.832C202.672 105.227 199.213 105.007 199.213 105.463C199.179 105.665 200.006 106.053 201.457 106.036C202.874 106.019 204.933 105.48 206.569 104.029C208.189 102.562 208.847 100.656 208.898 99.3401C208.965 97.9907 208.56 97.2148 208.341 97.2317Z" fill="#263238"/>
<path d="M208.172 61.5245C208.492 62.3173 211.445 61.8113 214.938 62.098C218.447 62.3004 221.282 63.2112 221.72 62.4691C221.906 62.1149 221.4 61.3727 220.219 60.6475C219.071 59.9053 217.232 59.2475 215.14 59.0957C213.048 58.9439 211.141 59.3656 209.893 59.9222C208.644 60.4956 208.02 61.1535 208.172 61.5245Z" fill="#263238"/>
<path d="M180.974 65.1164C181.53 65.7742 183.538 64.9814 185.985 64.8465C188.431 64.6272 190.54 65.1164 190.996 64.3911C191.198 64.0369 190.844 63.3791 189.899 62.7719C188.971 62.1647 187.453 61.7092 185.765 61.8273C184.078 61.9454 182.644 62.6201 181.817 63.3453C180.99 64.1044 180.737 64.7959 180.974 65.1164Z" fill="#263238"/>
<path d="M169.804 38.77C173.263 46.2927 181.024 57.4755 189.258 58.2851C197.491 59.0948 206.029 55.2491 210.888 48.5529C212.272 54.6419 219.139 57.7454 225.331 58.6056C229.701 59.2128 234.307 59.1622 238.373 57.4249C242.44 55.6876 245.865 52.0444 246.438 47.6589C246.995 43.2735 240.533 32.6979 236.18 31.9727" fill="#263238"/>
<path d="M236.855 148.575C237.243 155.507 242.524 161.9 249.256 163.603C249.037 169.237 253.356 174.719 258.89 175.832C264.425 176.945 270.516 173.555 272.49 168.275C273.013 166.892 273.299 165.374 274.211 164.21C276.32 161.545 280.42 162.068 283.642 161.023C289.463 159.133 291.977 152.016 291.319 145.927C291.184 144.729 290.965 143.515 291.151 142.317C291.505 139.871 293.428 138.016 294.846 135.992C300.7 127.693 298.254 115.65 291.775 107.858C289.615 105.26 286.882 102.528 287.084 99.1545C287.202 97.2654 288.232 95.5787 288.923 93.8246C291.151 88.1235 289.413 81.09 284.79 77.0925C284.081 76.4853 283.271 75.8612 283.018 74.9504C282.866 74.3769 282.967 73.7697 283.035 73.1794C284.081 64.1893 276.86 55.0642 267.867 54.0185C267.327 53.951 266.77 53.9173 266.281 53.6643C264.897 52.939 264.863 51.0499 264.678 49.4981C264.205 45.4163 261.033 37.7756 257.912 35.1106C249.239 27.706 240.837 33.7275 237.834 36.5443C237.834 36.5443 231.894 65.9772 233.042 71.4589C234.189 76.9407 238.222 90.603 236.619 96.81C235.016 103.017 232.401 115.735 234.915 121.318C237.412 126.918 236.855 148.575 236.855 148.575Z" fill="#263238"/>
<path d="M269.301 53.8996C269.335 53.9502 268.93 54.2876 268.153 54.8273C267.394 55.3839 266.213 56.1092 264.711 56.9019C261.725 58.4874 257.288 60.2247 252.158 61.0681C247.029 61.8946 242.271 61.6922 238.93 61.1356C237.26 60.8657 235.91 60.5621 235.016 60.2753C234.105 60.0055 233.616 59.8199 233.632 59.7693C233.666 59.6175 235.691 60.1235 239.015 60.4946C242.339 60.8825 246.979 60.9838 252.007 60.1741C257.035 59.3477 261.404 57.7622 264.425 56.3285C267.462 54.8948 269.216 53.7647 269.301 53.8996Z" fill="#455A64"/>
<path d="M272.119 55.9914C272.169 56.0082 271.95 56.6323 271.495 57.7455C271.275 58.3021 270.972 58.9768 270.55 59.719C270.145 60.4611 269.723 61.3382 269.099 62.2321C267.968 64.0538 266.399 66.0947 264.459 68.1693C262.485 70.2102 260.106 72.268 257.372 74.0896C254.622 75.8775 251.788 77.2437 249.139 78.2726C246.456 79.2341 243.976 79.8919 241.85 80.1955C240.804 80.4147 239.825 80.4485 238.981 80.5328C238.138 80.634 237.395 80.634 236.805 80.6171C235.607 80.6003 234.949 80.5665 234.949 80.4991C234.949 80.3135 237.598 80.3473 241.748 79.5377C243.824 79.1497 246.236 78.4413 248.852 77.463C251.433 76.4173 254.183 75.051 256.883 73.3137C259.549 71.5258 261.894 69.5355 263.868 67.579C265.809 65.5718 267.395 63.6321 268.576 61.8779C270.955 58.3696 271.95 55.907 272.119 55.9914Z" fill="#455A64"/>
<path d="M256.731 165.306C256.731 165.256 257.102 165.323 257.76 165.188C258.418 165.053 259.38 164.665 260.24 163.704C261.101 162.776 261.826 161.309 261.843 159.487C261.911 157.665 261.371 155.625 260.729 153.381C260.139 151.155 259.346 148.456 260.274 145.656C261.185 142.873 263.429 140.714 265.437 138.42C266.432 137.273 267.428 136.042 268.001 134.625C268.626 133.225 268.541 131.589 267.866 130.189C267.192 128.772 265.909 127.642 264.526 126.647C263.142 125.635 261.607 124.758 260.139 123.662C258.688 122.582 257.271 121.267 256.613 119.462C255.938 117.674 256.326 115.667 257.169 114.149C258.84 111.096 261.438 108.869 262.045 105.934C262.737 103.016 261.387 100.2 259.852 98.0407C258.283 95.8311 256.41 94.0938 254.672 92.5083C252.951 90.906 251.466 89.3542 250.336 87.8531C249.222 86.335 248.463 84.8676 248.092 83.5857C247.704 82.3038 247.704 81.2581 247.738 80.5497C247.822 79.8581 247.906 79.5039 247.94 79.5039C248.075 79.5039 247.62 80.9882 248.429 83.4676C249.222 85.9471 251.601 88.9663 255.111 92.0192C256.866 93.5541 258.806 95.3251 260.459 97.5853C261.286 98.7154 262.029 99.9973 262.535 101.431C263.041 102.865 263.21 104.501 262.855 106.103C262.147 109.392 259.447 111.686 257.945 114.553C257.186 115.97 256.883 117.623 257.456 119.141C257.996 120.659 259.262 121.874 260.662 122.903C262.062 123.948 263.598 124.842 265.032 125.871C266.449 126.9 267.85 128.115 268.643 129.767C269.436 131.387 269.486 133.343 268.778 134.929C268.12 136.514 267.057 137.796 266.027 138.96C263.969 141.271 261.809 143.345 260.966 145.875C260.088 148.389 260.78 150.969 261.337 153.196C261.944 155.439 262.45 157.581 262.332 159.504C262.265 161.427 261.421 163.012 260.459 163.94C259.498 164.918 258.452 165.272 257.76 165.357C257.085 165.441 256.731 165.306 256.731 165.306Z" fill="#455A64"/>
<path d="M96.3498 341.189C96.3498 341.189 106.79 342.729 110.79 344.349C115.13 346.109 120.49 345.079 124.13 342.729C127.77 340.369 129.91 338.219 129.91 338.219L143.27 338.289C143.27 338.289 149.82 331.779 146.22 321.789C145.59 320.049 144.9 318.669 143.27 316.509C141.72 314.759 139.24 313.319 134.93 312.479L118.99 315.569C118.99 315.569 98.7798 315.229 90.6298 314.859C88.6698 314.769 86.7398 315.299 85.0998 316.379C83.1898 317.649 81.0298 319.349 81.1898 320.449C81.3098 321.259 79.9898 326.459 83.9198 329.799C83.9198 329.799 80.3798 332.499 82.2098 335.019L83.0898 336.139C83.0898 336.139 80.6798 339.119 81.8598 340.469C83.0298 341.809 93.4298 348.199 97.2198 346.809C101.03 345.409 97.9898 341.859 96.3498 341.189Z" fill="#B78876"/>
<path d="M86.6798 324.44C86.6898 324.41 87.1498 324.6 87.9698 324.93C88.7898 325.26 89.9898 325.74 91.4898 326.25C92.2398 326.51 93.0698 326.77 93.9598 327.02C94.8498 327.28 95.8298 327.5 96.8398 327.85C97.8398 328.2 98.9098 328.7 99.6898 329.65C100.42 330.56 100.91 331.92 100.39 333.18C100.14 333.8 99.6198 334.26 99.0598 334.55C98.4898 334.83 97.8898 334.95 97.2998 335C96.1198 335.09 95.0098 334.91 93.9698 334.75C91.8798 334.39 90.0598 333.79 88.5698 333.22C87.0798 332.66 85.8998 332.13 85.0898 331.76C84.2798 331.39 83.8398 331.17 83.8498 331.14C83.8598 331.11 84.3198 331.28 85.1498 331.6C85.9798 331.92 87.1698 332.4 88.6698 332.92C90.1598 333.44 91.9698 334.01 94.0298 334.34C95.0598 334.49 96.1598 334.65 97.2598 334.56C97.8098 334.51 98.3598 334.39 98.8598 334.15C99.3398 333.9 99.7698 333.51 99.9798 333C100.42 331.97 100.02 330.74 99.3498 329.91C98.6698 329.06 97.6598 328.57 96.6998 328.22C95.7298 327.87 94.7498 327.64 93.8498 327.36C92.9498 327.09 92.1298 326.81 91.3798 326.53C89.8798 325.98 88.6998 325.46 87.8998 325.08C87.0998 324.71 86.6698 324.47 86.6798 324.44Z" fill="#AA6550"/>
<path d="M87.7799 316.89C87.7899 316.86 88.2499 317.05 89.0599 317.39C89.8799 317.72 91.0599 318.21 92.5499 318.74C94.0399 319.27 95.8299 319.85 97.8399 320.38C98.8299 320.66 99.9899 320.89 100.92 321.7C101.38 322.1 101.72 322.69 101.8 323.33C101.89 323.96 101.76 324.61 101.49 325.19C100.94 326.37 99.8099 327.12 98.6999 327.47C97.5699 327.83 96.4099 327.83 95.3599 327.66C93.2499 327.3 91.5199 326.5 90.0199 325.99C88.5899 325.46 87.4099 325.01 86.5099 324.68C85.6799 324.36 85.2299 324.17 85.2399 324.14C85.2499 324.11 85.7199 324.25 86.5599 324.52C87.4699 324.82 88.6699 325.22 90.1199 325.7C91.6299 326.17 93.3799 326.94 95.4099 327.26C96.4199 327.41 97.5099 327.4 98.5599 327.06C99.5899 326.73 100.6 326.04 101.08 325.01C101.58 323.99 101.45 322.72 100.62 322.02C99.8199 321.3 98.7199 321.05 97.7299 320.77C95.6999 320.22 93.9099 319.6 92.4299 319.03C90.9499 318.46 89.7799 317.93 88.9799 317.55C88.1999 317.16 87.7699 316.92 87.7799 316.89Z" fill="#AA6550"/>
<path d="M129.73 320.25L120.47 316.46C120.47 316.46 94.7999 303.82 94.3499 304.46C93.8999 305.11 92.4899 305.01 92.7399 308.17C92.9799 311.34 107.95 318.03 108.41 319.13C108.86 320.24 107.95 325.75 113.45 329.84C118.95 333.92 122.97 334.09 122.97 334.09" fill="#B78876"/>
<path d="M122.96 334.09C122.96 334.1 122.88 334.1 122.74 334.09C122.59 334.08 122.38 334.06 122.1 334.01C121.54 333.92 120.71 333.73 119.69 333.38C118.67 333.03 117.44 332.49 116.1 331.73C114.78 330.95 113.27 330.03 111.86 328.66C110.45 327.31 109.32 325.38 108.79 323.14C108.51 322.03 108.43 320.82 108.31 319.64C108.29 319.49 108.26 319.36 108.23 319.24C108.2 319.16 108.11 319.08 107.99 318.99C107.76 318.81 107.5 318.65 107.24 318.48C106.72 318.16 106.17 317.85 105.62 317.53C103.4 316.29 101.03 315.02 98.6398 313.59C97.4498 312.87 96.2498 312.11 95.0898 311.24C94.5098 310.8 93.9498 310.34 93.4298 309.79C93.1698 309.52 92.9298 309.22 92.7398 308.87C92.6498 308.69 92.5698 308.5 92.5398 308.28C92.4998 308.07 92.5098 307.9 92.4998 307.7C92.4898 306.95 92.5298 306.15 92.9498 305.45C93.1598 305.1 93.4898 304.84 93.7898 304.64C93.9398 304.54 94.0698 304.44 94.1498 304.34C94.1798 304.31 94.1298 304.35 94.2398 304.25C94.3598 304.18 94.3798 304.2 94.4198 304.2C94.5098 304.2 94.5398 304.21 94.5998 304.22C94.6998 304.24 94.7898 304.26 94.8798 304.29C96.2798 304.75 97.5498 305.34 98.8298 305.9C101.37 307.03 103.79 308.18 106.1 309.27C110.71 311.46 114.84 313.49 118.3 315.2C119.17 315.62 119.99 316.06 120.77 316.41C121.57 316.74 122.33 317.06 123.03 317.36C124.43 317.95 125.65 318.46 126.65 318.88C127.62 319.3 128.38 319.62 128.93 319.86C129.17 319.97 129.36 320.05 129.52 320.13C129.65 320.19 129.72 320.23 129.72 320.23C129.72 320.24 129.65 320.22 129.51 320.17C129.35 320.11 129.15 320.04 128.9 319.94C128.34 319.72 127.56 319.42 126.58 319.04C125.57 318.64 124.34 318.15 122.92 317.58C122.21 317.29 121.45 316.99 120.64 316.66C119.83 316.31 119.02 315.89 118.15 315.48C114.66 313.81 110.51 311.83 105.91 309.64C103.6 308.56 101.17 307.42 98.6398 306.3C97.3698 305.75 96.0698 305.15 94.7398 304.71C94.6598 304.68 94.5798 304.66 94.4998 304.65C94.4698 304.65 94.4098 304.63 94.4198 304.64C94.4198 304.63 94.4198 304.67 94.4098 304.61C94.3798 304.53 94.4198 304.54 94.3998 304.5C94.3898 304.49 94.3798 304.48 94.3698 304.47C94.6598 304.68 94.4398 304.54 94.4998 304.59L94.4698 304.62C94.3298 304.8 94.1598 304.91 94.0098 305.01C93.7098 305.21 93.4598 305.41 93.2898 305.69C92.9498 306.25 92.8898 306.98 92.9098 307.69C92.9198 308.07 92.9398 308.37 93.1098 308.66C93.2798 308.95 93.4898 309.23 93.7398 309.48C94.2298 309.99 94.7798 310.45 95.3398 310.88C96.4798 311.73 97.6698 312.49 98.8498 313.21C101.22 314.65 103.58 315.91 105.8 317.17C106.36 317.49 106.9 317.8 107.44 318.13C107.71 318.3 107.97 318.47 108.22 318.67C108.34 318.77 108.5 318.89 108.58 319.09C108.64 319.26 108.67 319.42 108.68 319.58C108.8 320.81 108.87 321.95 109.13 323.05C109.63 325.23 110.7 327.11 112.06 328.44C113.41 329.78 114.9 330.73 116.2 331.52C117.51 332.3 118.71 332.85 119.72 333.22C120.73 333.6 121.54 333.81 122.09 333.93C122.37 333.99 122.58 334.02 122.72 334.05C122.89 334.07 122.96 334.08 122.96 334.09Z" fill="#AA6550"/>
<path d="M94.3496 334.71C94.3596 334.69 94.7196 334.76 95.3396 335.02C95.9496 335.28 96.8196 335.72 97.7496 336.48C98.2096 336.87 98.6996 337.31 99.1296 337.88C99.5496 338.44 99.9696 339.2 99.8396 340.08C99.7096 340.97 98.9296 341.66 98.0696 341.91C97.1796 342.19 96.2296 342.03 95.3596 341.77C91.9096 340.64 88.9096 339.3 86.8396 338.14C85.7996 337.56 84.9896 337.04 84.4496 336.66C83.9096 336.28 83.6196 336.04 83.6396 336.02C83.6596 335.99 83.9696 336.18 84.5396 336.51C85.1096 336.85 85.9296 337.32 86.9796 337.86C89.0696 338.94 92.0796 340.23 95.4796 341.34C96.3196 341.59 97.1896 341.73 97.9396 341.49C98.6896 341.27 99.3296 340.7 99.4396 340C99.5596 339.3 99.2196 338.62 98.8396 338.08C98.4496 337.54 97.9796 337.09 97.5496 336.7C95.7696 335.19 94.2996 334.79 94.3496 334.71Z" fill="#AA6550"/>
<path d="M241.41 309.18L224.93 309.52C224.93 309.52 200.22 300.59 195.14 301.45C190.56 302.22 173.81 313.35 170.53 315.55C170.16 315.8 169.89 316.15 169.74 316.56C169.07 318.37 169.95 320.39 171.74 321.12L172.09 321.26L171.94 321.76C171.75 322.38 171.65 323.07 171.69 323.76C171.81 326.11 174.97 326.83 176.18 324.8L175.55 325.92C175.29 326.38 175.17 326.9 175.2 327.42L175.26 328.44C175.32 329.57 176.07 330.55 177.15 330.9C178.17 331.23 179.3 330.94 180.03 330.15C182.15 327.81 186.74 323.13 189.85 322.61C192.61 322.15 197.21 322.09 199.99 322.1C201.4 322.11 202.66 322.98 203.18 324.3C201.34 324.43 188.5 331.13 183.96 333.52C182.56 334.26 181.5 335.6 181.32 337.18C181.15 338.6 181.87 340.09 184.69 339.44C190.73 338.03 201.59 333.04 201.59 333.04C201.59 333.04 207.19 331.44 210.82 334C215.93 337.6 218.27 338.92 222.65 337.47C227.04 336.02 230.27 333.93 230.27 333.93L245.22 335.38C245.19 335.37 254.33 320.49 241.41 309.18Z" fill="#FFBE9D"/>
<path d="M203.25 313.69C203.23 313.78 201.5 313.23 198.61 313.05C195.74 312.85 191.66 313.19 187.6 314.92C183.54 316.65 180.48 319.37 178.63 321.57C176.76 323.78 175.97 325.42 175.88 325.37C175.86 325.36 176.03 324.94 176.43 324.23C176.82 323.51 177.46 322.51 178.37 321.37C180.17 319.08 183.26 316.27 187.41 314.5C191.55 312.73 195.72 312.45 198.62 312.73C200.08 312.86 201.24 313.1 202.03 313.31C202.84 313.5 203.26 313.66 203.25 313.69Z" fill="#FFBE9D"/>
<path d="M200.64 307.69C200.61 307.8 198.85 306.94 195.81 306.85C192.79 306.72 188.54 307.63 184.57 310.03C180.6 312.44 177.63 315.5 175.51 317.69C174.51 318.76 173.67 319.64 173.03 320.33C172.44 320.95 172.11 321.29 172.08 321.27C172.06 321.25 172.35 320.87 172.89 320.21C173.44 319.55 174.24 318.61 175.27 317.47C177.33 315.22 180.29 312.09 184.33 309.63C188.38 307.18 192.74 306.3 195.82 306.52C197.36 306.61 198.59 306.89 199.41 307.18C199.82 307.3 200.12 307.45 200.33 307.54C200.54 307.62 200.64 307.67 200.64 307.69Z" fill="#FFBE9D"/>
<path d="M131.9 71.0301C118.44 39.8001 82.21 25.3901 50.97 38.8501C19.74 52.3101 5.33 88.5401 18.79 119.78C32.25 151.02 68.48 165.43 99.72 151.97C111.27 146.99 120.52 138.89 126.91 129.09L126.92 129.1L150.72 128.71L135.19 109.96C138.25 97.4101 137.41 83.8101 131.9 71.0301Z" fill="#FAFAFA"/>
<path d="M50.9002 38.7002C50.8902 38.6802 50.5602 38.8202 49.9102 39.1102C49.2102 39.4402 48.2602 39.8802 47.0602 40.4402C46.4402 40.7402 45.7202 41.0502 44.9702 41.4502C44.2402 41.9002 43.4402 42.3802 42.5802 42.9102C41.7102 43.4402 40.7802 44.0102 39.7902 44.6202C38.8602 45.3302 37.8702 46.0802 36.8202 46.8802C32.6702 50.0902 27.9002 54.5802 23.7402 60.8402C19.5602 67.0402 15.8402 74.9302 14.0802 84.2402C12.4102 93.5202 12.6302 104.19 16.0502 114.8C17.0502 117.39 17.8602 120.12 19.2502 122.65C19.9102 123.93 20.4602 125.28 21.2202 126.52C21.9902 127.76 22.7702 129.01 23.5502 130.27C26.9302 135.12 30.8602 139.89 35.7902 143.78C40.6602 147.71 46.2002 151.07 52.2802 153.56C58.4002 155.93 65.0002 157.43 71.8102 157.85C78.6102 158.3 85.6302 157.6 92.3902 155.6C94.1202 155.23 95.7502 154.53 97.4202 153.92C99.0902 153.33 100.75 152.68 102.36 151.9C105.58 150.35 108.69 148.53 111.64 146.43C118.05 141.89 123.46 136.15 127.64 129.79L127.07 130.11C135.01 129.91 142.81 129.71 150.42 129.52L151.8 129.49L150.94 128.41C145.78 121.97 140.77 115.71 135.92 109.65L136.05 110.22C138.44 100.39 138.35 90.3802 136.19 81.3302C135.12 76.8102 133.62 72.4702 131.6 68.5402C130.64 66.5502 129.68 64.5802 128.46 62.8002C127.89 61.8902 127.32 60.9802 126.75 60.0802C126.16 59.2002 125.47 58.4002 124.84 57.5602C114.54 44.2402 100.55 37.1502 88.6802 34.7602C82.7202 33.5102 77.2102 33.1402 72.4602 33.4802C71.2702 33.5602 70.1302 33.6302 69.0202 33.7002C67.9302 33.8702 66.8902 34.0402 65.8802 34.2002C64.8802 34.3602 63.9302 34.5202 63.0202 34.6702C62.1202 34.8702 61.2802 35.1302 60.4902 35.3402C58.9002 35.8002 57.4702 36.1102 56.2902 36.5502C55.1302 37.0002 54.1502 37.3902 53.3202 37.7102C52.5702 38.0102 51.9802 38.2502 51.5202 38.4402C51.1002 38.5902 50.9002 38.6802 50.9002 38.7002C50.9102 38.7202 51.1202 38.6602 51.5402 38.5202C52.0102 38.3602 52.6202 38.1502 53.3802 37.8902C54.2102 37.6002 55.2002 37.2502 56.3702 36.8302C57.5602 36.4202 58.9902 36.1502 60.5802 35.7302C66.9002 34.2802 76.6902 32.8302 88.4902 35.5302C100.18 38.0002 113.89 45.0902 123.93 58.2202C124.54 59.0402 125.22 59.8302 125.79 60.7002C126.34 61.5902 126.89 62.4802 127.45 63.3802C128.64 65.1302 129.57 67.0702 130.51 69.0302C132.48 72.9002 133.93 77.1502 134.97 81.5902C137.05 90.4702 137.1 100.27 134.74 109.89L134.66 110.2L134.86 110.45C139.7 116.52 144.7 122.79 149.84 129.24L150.36 128.13C142.75 128.31 134.96 128.5 127.01 128.69L126.64 128.7L126.44 129.01C122.35 135.23 117.06 140.83 110.8 145.27C107.92 147.32 104.88 149.11 101.73 150.62C100.16 151.39 98.5402 152.02 96.9002 152.6C95.2702 153.19 93.6802 153.88 91.9902 154.24C85.3902 156.21 78.5202 156.89 71.8702 156.46C65.2102 156.06 58.7502 154.61 52.7602 152.3C46.8102 149.87 41.3802 146.6 36.6002 142.76C31.7602 138.96 27.9002 134.3 24.5702 129.56C23.8002 128.33 23.0302 127.11 22.2702 125.89C21.5102 124.67 20.9702 123.35 20.3202 122.1C18.9502 119.62 18.1502 116.95 17.1502 114.41C13.7502 104.01 13.4702 93.5302 15.0502 84.3902C16.7302 75.2202 20.3302 67.4102 24.3902 61.2502C28.4302 55.0302 33.0902 50.5302 37.1502 47.2802C38.1702 46.4702 39.1402 45.7102 40.0502 44.9902C41.0202 44.3702 41.9302 43.7802 42.7802 43.2402C43.6202 42.7002 44.4102 42.2002 45.1202 41.7402C45.8602 41.3202 46.5602 41.0002 47.1702 40.6702C48.3402 40.0602 49.2702 39.5802 49.9502 39.2202C50.6002 38.9002 50.9102 38.7202 50.9002 38.7002Z" fill="#263238"/>
<path d="M92.9102 126.9L96.4702 126.89C98.4602 126.89 100.07 125.27 100.06 123.28L99.9602 68.8996C99.9602 66.9096 98.3402 65.2996 96.3502 65.3096L92.7902 65.3196C90.8002 65.3196 89.1902 66.9396 89.2002 68.9296L89.3002 123.31C89.3102 125.29 90.9202 126.9 92.9102 126.9Z" fill="#E0E0E0"/>
<path d="M75.2901 126.93L78.8501 126.92C80.8401 126.92 82.4501 125.3 82.4401 123.31L82.3401 68.9299C82.3401 66.9399 80.7201 65.3299 78.7301 65.3399L75.1701 65.3499C73.1801 65.3499 71.5701 66.9699 71.5801 68.9599L71.6801 123.34C71.6801 125.33 73.3001 126.94 75.2901 126.93Z" fill="#E0E0E0"/>
<path d="M55.3502 126.97L58.9102 126.96C60.9002 126.96 62.5102 125.34 62.5002 123.35L62.4002 68.9699C62.4002 66.9799 60.7802 65.3699 58.7902 65.3799L55.2302 65.3899C53.2402 65.3899 51.6302 67.0099 51.6402 68.9999L51.7402 123.38C51.7402 125.37 53.3602 126.97 55.3502 126.97Z" fill="#E0E0E0"/>
<path d="M94.5401 126.9C94.5401 126.86 94.0601 126.89 93.1901 126.65C92.3501 126.41 91.0601 125.8 90.1901 124.34C89.7501 123.63 89.4601 122.71 89.4601 121.7C89.4701 120.65 89.4701 119.52 89.4801 118.3C89.4901 115.85 89.5001 113.08 89.5101 110.01C89.5201 103.85 89.5301 96.5501 89.5401 88.4401C89.5401 84.3801 89.5401 80.1201 89.5301 75.7001C89.5301 74.6001 89.5301 73.4801 89.5301 72.3601C89.5601 71.2301 89.4201 70.0901 89.7501 69.0801C90.3701 67.0101 92.4701 65.4901 94.7301 65.6301C96.9501 65.6001 99.0101 67.2401 99.4901 69.3401C99.7501 70.3501 99.6001 71.5301 99.6501 72.6401C99.6501 73.7601 99.6601 74.8801 99.6601 75.9801C99.6801 80.4001 99.6901 84.6601 99.7001 88.7201C99.7401 96.8301 99.7801 104.13 99.8101 110.29C99.8301 113.35 99.8601 116.13 99.8701 118.58C99.8701 119.79 99.9101 120.94 99.8901 121.97C99.8501 122.98 99.4901 123.88 99.0201 124.57C98.0501 125.97 96.7401 126.51 95.8901 126.71C95.0201 126.9 94.5301 126.86 94.5401 126.9C94.5401 126.9 95.0201 127 95.9201 126.85C96.8001 126.68 98.1801 126.17 99.2301 124.73C99.7401 124.02 100.14 123.08 100.2 122C100.24 120.94 100.22 119.82 100.24 118.59C100.25 116.14 100.26 113.37 100.27 110.3C100.28 104.14 100.29 96.8401 100.3 88.7301C100.3 84.6701 100.3 80.4101 100.29 75.9901C100.29 74.8901 100.29 73.7701 100.29 72.6501C100.29 72.0901 100.29 71.5201 100.29 70.9601C100.3 70.4101 100.27 69.7701 100.12 69.1901C99.5801 66.8001 97.2401 64.9401 94.7201 64.9801C93.5101 64.9201 92.2301 65.2801 91.2401 65.9901C90.2301 66.6901 89.4901 67.7401 89.1201 68.9001C88.9401 69.4801 88.8801 70.0901 88.8701 70.6801C88.8701 71.2501 88.8701 71.8101 88.8701 72.3701C88.8701 73.4901 88.8801 74.6101 88.8801 75.7101C88.9001 80.1301 88.9101 84.3901 88.9201 88.4501C88.9601 96.5601 89.0001 103.86 89.0301 110.02C89.0501 113.08 89.0801 115.86 89.0901 118.31C89.1001 119.53 89.1101 120.66 89.1201 121.71C89.1401 122.79 89.4701 123.75 89.9501 124.49C90.9101 126 92.2701 126.59 93.1301 126.79C94.0501 126.98 94.5401 126.9 94.5401 126.9Z" fill="#263238"/>
<path d="M76.9102 126.93C76.9102 126.89 76.4302 126.92 75.5602 126.68C74.7202 126.44 73.4302 125.83 72.5602 124.37C72.1202 123.66 71.8302 122.74 71.8302 121.73C71.8402 120.68 71.8402 119.55 71.8502 118.33C71.8602 115.88 71.8702 113.11 71.8802 110.04C71.8902 103.88 71.9002 96.5804 71.9102 88.4704C71.9102 84.4104 71.9102 80.1504 71.9002 75.7304C71.9002 74.6304 71.9002 73.5104 71.9002 72.3904C71.9302 71.2604 71.7902 70.1204 72.1202 69.1104C72.7402 67.0404 74.8402 65.5204 77.1002 65.6604C79.3202 65.6304 81.3802 67.2704 81.8602 69.3704C82.1202 70.3804 81.9702 71.5604 82.0202 72.6704C82.0202 73.7904 82.0302 74.9104 82.0302 76.0104C82.0502 80.4304 82.0602 84.6904 82.0702 88.7504C82.1102 96.8604 82.1502 104.16 82.1802 110.32C82.2002 113.38 82.2302 116.16 82.2402 118.61C82.2402 119.82 82.2802 120.97 82.2602 122C82.2202 123.01 81.8602 123.91 81.3902 124.6C80.4202 126 79.1102 126.54 78.2602 126.74C77.3902 126.94 76.9102 126.89 76.9102 126.93C76.9102 126.93 77.3902 127.03 78.2902 126.88C79.1702 126.71 80.5502 126.2 81.6002 124.76C82.1102 124.05 82.5102 123.11 82.5702 122.03C82.6102 120.97 82.5902 119.85 82.6102 118.62C82.6202 116.17 82.6302 113.4 82.6402 110.33C82.6502 104.17 82.6602 96.8704 82.6702 88.7604C82.6702 84.7004 82.6702 80.4404 82.6602 76.0204C82.6602 74.9204 82.6602 73.8004 82.6602 72.6804C82.6602 72.1204 82.6602 71.5504 82.6602 70.9904C82.6702 70.4404 82.6402 69.8004 82.4902 69.2204C81.9502 66.8304 79.6102 64.9704 77.0902 65.0104C75.8802 64.9504 74.6002 65.3104 73.6102 66.0204C72.6002 66.7204 71.8602 67.7704 71.4902 68.9304C71.3102 69.5104 71.2502 70.1204 71.2402 70.7104C71.2402 71.2804 71.2402 71.8404 71.2402 72.4004C71.2402 73.5204 71.2502 74.6404 71.2502 75.7404C71.2702 80.1604 71.2802 84.4204 71.2902 88.4804C71.3302 96.5904 71.3702 103.89 71.4002 110.05C71.4202 113.11 71.4502 115.89 71.4602 118.34C71.4702 119.56 71.4802 120.69 71.4902 121.74C71.5102 122.82 71.8402 123.78 72.3202 124.52C73.2802 126.03 74.6402 126.62 75.5002 126.82C76.4302 127.01 76.9102 126.93 76.9102 126.93Z" fill="#263238"/>
<path d="M56.9701 126.97C56.9701 126.93 56.4901 126.96 55.6201 126.72C54.7801 126.48 53.4901 125.87 52.6201 124.41C52.1801 123.7 51.8901 122.78 51.8901 121.77C51.9001 120.72 51.9001 119.59 51.9101 118.37C51.9201 115.92 51.9301 113.15 51.9401 110.08C51.9501 103.92 51.9601 96.6204 51.9701 88.5104C51.9701 84.4504 51.9701 80.1904 51.9601 75.7704C51.9601 74.6704 51.9601 73.5504 51.9601 72.4304C51.9901 71.3004 51.8501 70.1604 52.1801 69.1504C52.8001 67.0804 54.9001 65.5604 57.1601 65.7004C59.3801 65.6704 61.4401 67.3104 61.9201 69.4104C62.1801 70.4204 62.0301 71.6004 62.0801 72.7104C62.0801 73.8304 62.0901 74.9504 62.0901 76.0504C62.1101 80.4704 62.1201 84.7304 62.1301 88.7904C62.1701 96.9004 62.2101 104.2 62.2401 110.36C62.2601 113.42 62.2901 116.2 62.3001 118.65C62.3001 119.86 62.3401 121.01 62.3201 122.04C62.2801 123.05 61.9201 123.95 61.4501 124.64C60.4801 126.04 59.1701 126.58 58.3201 126.78C57.4601 126.97 56.9701 126.93 56.9701 126.97C56.9701 126.97 57.4501 127.07 58.3601 126.92C59.2401 126.75 60.6201 126.24 61.6701 124.8C62.1801 124.09 62.5801 123.15 62.6401 122.07C62.6801 121.01 62.6601 119.89 62.6801 118.66C62.6901 116.21 62.7001 113.44 62.7101 110.37C62.7201 104.21 62.7301 96.9104 62.7401 88.8004C62.7401 84.7404 62.7401 80.4804 62.7301 76.0604C62.7301 74.9604 62.7301 73.8404 62.7301 72.7204C62.7301 72.1604 62.7301 71.5904 62.7301 71.0304C62.7401 70.4804 62.7101 69.8404 62.5601 69.2604C62.0201 66.8704 59.6801 65.0104 57.1601 65.0504C55.9501 64.9904 54.6701 65.3504 53.6801 66.0604C52.6701 66.7604 51.9301 67.8104 51.5601 68.9704C51.3801 69.5504 51.3201 70.1604 51.3101 70.7504C51.3101 71.3204 51.3101 71.8804 51.3101 72.4404C51.3101 73.5604 51.3201 74.6804 51.3201 75.7804C51.3401 80.2004 51.3501 84.4604 51.3601 88.5204C51.4001 96.6304 51.4401 103.93 51.4701 110.09C51.4901 113.15 51.5201 115.93 51.5301 118.38C51.5401 119.6 51.5501 120.73 51.5601 121.78C51.5801 122.86 51.9101 123.82 52.3901 124.56C53.3501 126.07 54.7101 126.66 55.5701 126.86C56.4901 127.05 56.9701 126.97 56.9701 126.97Z" fill="#263238"/>
<path d="M84.5299 77.4902C84.5399 81.6602 81.1599 85.0502 76.9899 85.0602C72.8199 85.0702 69.4299 81.6902 69.4199 77.5202C69.4099 73.3502 72.7899 69.9602 76.9599 69.9502C81.1299 69.9402 84.5199 73.3202 84.5299 77.4902Z" fill="#963EEE"/>
<path d="M64.63 96.1601C64.64 100.33 61.26 103.72 57.09 103.73C52.92 103.74 49.53 100.36 49.52 96.1901C49.51 92.0201 52.89 88.6301 57.06 88.6201C61.23 88.6101 64.62 91.9901 64.63 96.1601Z" fill="#963EEE"/>
<path d="M101.347 110.312C102.881 106.429 100.977 102.037 97.0942 100.503C93.2112 98.9684 88.8195 100.872 87.2851 104.755C85.7507 108.638 87.6546 113.03 91.5376 114.564C95.4206 116.099 99.8123 114.195 101.347 110.312Z" fill="#963EEE"/>
<path d="M39.1602 346.779H189.99L170.53 240.919C169.84 237.169 166.57 234.439 162.75 234.439H27.2102C22.2402 234.439 18.5102 238.959 19.4402 243.839L39.1602 346.779Z" fill="#455A64"/>
<path d="M189.99 346.779H247.2L246.97 346.609C241.87 342.779 235.71 340.629 229.33 340.439L188.42 339.239L189.99 346.779Z" fill="#455A64"/>
<path d="M153.76 234.58C153.77 234.62 154.18 234.5 154.98 234.5C155.77 234.49 156.97 234.66 158.33 235.33C159.68 236 161.18 237.19 162.35 238.99C163.52 240.8 164.31 243.16 164.81 245.83C165.3 248.51 165.74 251.48 166.27 254.65C166.82 257.82 167.4 261.21 168.06 264.76C169.37 271.87 170.93 279.68 172.62 287.85C176.03 304.2 179.18 318.98 181.24 329.72C182.28 335.09 183.08 339.44 183.62 342.45C183.89 343.92 184.1 345.08 184.25 345.92C184.32 346.29 184.38 346.59 184.43 346.82C184.47 347.02 184.5 347.12 184.51 347.12C184.52 347.12 184.51 347.01 184.49 346.81C184.46 346.57 184.42 346.27 184.37 345.9C184.24 345.06 184.07 343.9 183.84 342.42C183.36 339.4 182.62 335.03 181.64 329.65C179.68 318.88 176.59 304.08 173.18 287.74C171.49 279.57 169.92 271.78 168.57 264.67C167.89 261.12 167.29 257.74 166.73 254.57C166.18 251.4 165.72 248.45 165.2 245.75C164.66 243.06 163.83 240.65 162.61 238.81C161.38 236.97 159.82 235.78 158.42 235.13C157.01 234.47 155.78 234.34 154.97 234.38C154.16 234.43 153.76 234.58 153.76 234.58Z" fill="#263238"/>
<path d="M102.5 293.375C105.347 290.529 105.347 285.913 102.5 283.066C99.653 280.219 95.0373 280.219 92.1904 283.066C89.3435 285.913 89.3435 290.529 92.1904 293.375C95.0373 296.222 99.653 296.222 102.5 293.375Z" fill="#F5F5F5"/>
<path d="M435.68 346.68C435.68 346.82 338.14 346.94 217.85 346.94C97.52 346.94 0 346.82 0 346.68C0 346.54 97.52 346.42 217.85 346.42C338.14 346.42 435.68 346.53 435.68 346.68Z" fill="#263238"/>
</g>
<defs>
<clipPath id="clip0">
<rect width="435.68" height="347.13" fill="white"/>
</clipPath>
</defs>
</svg>
