<svg width="229" height="218" viewBox="0 0 229 218" fill="none" xmlns="http://www.w3.org/2000/svg">
<circle cx="114" cy="109" r="109" fill="#2E2E2E"/>
<path d="M128.786 128.253C128.786 128.253 118.307 133.636 115.664 139.287C113.28 144.373 107.224 175.707 107.224 175.707L99.8053 141.566L76.6206 141.992C76.6206 141.992 76.9081 195.125 78.7721 203.806C80.7197 212.821 82.8712 217.435 95.8825 217.472C106.421 217.458 116.595 213.611 124.502 206.651L128.786 128.253Z" fill="#EBEBEB"/>
<path d="M211.444 115.589C208.662 112.744 176.593 104.684 176.593 104.684L167.208 95.7715L157.285 133.34L146.305 179.218L147.863 217.472L224.363 215.74C224.363 215.74 217.231 121.574 211.444 115.589Z" fill="#EBEBEB"/>
<path d="M136.883 166.896C136.883 166.896 132.895 149.154 132.394 148.783C131.893 148.413 131.068 125.696 131.068 125.696C131.068 125.696 129.723 115.745 129.732 115.773C129.742 115.801 162.84 93.4824 162.84 93.4824L167.041 98.1148L146.333 179.014L147.455 209.949L145.192 203.463L136.883 166.896Z" fill="#963EEE"/>
<path d="M136.882 166.618L131.828 147.255L130.437 120.776C130.576 121.805 128.341 130.3 128.341 130.3L117.685 139.63C117.685 139.63 113.002 159.086 115.441 166.72L120.217 217.472L156.626 217.064L136.882 166.618Z" fill="#EBEBEB"/>
<path d="M140.129 180.923L122.035 152.147L129.501 130.263L130.437 120.776L132.941 148.265L140.129 180.923Z" fill="#EBEBEB"/>
<path d="M129.51 163.265C130.123 165.709 130.612 168.183 130.975 170.676C131.68 174.771 132.172 178.088 132.07 178.088C131.457 175.644 130.968 173.17 130.604 170.676C129.899 166.637 129.417 163.265 129.51 163.265Z" fill="#263238"/>
<path d="M128.128 188.891C128.508 190.318 129.294 191.606 130.391 192.597C130.944 193.107 131.6 193.493 132.315 193.728C133.031 193.963 133.788 194.041 134.536 193.959C135.54 193.833 136.495 193.451 137.307 192.849C138.119 192.247 138.762 191.445 139.173 190.521C140.342 187.668 139.822 182.248 137.977 179.302C136.716 177.282 134.36 175.596 131.995 175.948C130.685 176.159 129.485 176.806 128.591 177.786C127.697 178.765 127.161 180.018 127.071 181.34" fill="#E0E0E0"/>
<path d="M127.099 181.294C127.104 180.742 127.207 180.196 127.405 179.682C127.624 179.066 127.937 178.488 128.332 177.968C128.845 177.266 129.519 176.697 130.298 176.309C130.751 176.084 131.231 175.919 131.726 175.818C132.265 175.699 132.821 175.677 133.368 175.753C134.571 175.958 135.69 176.501 136.595 177.319C137.605 178.192 138.391 179.295 138.886 180.534C139.416 181.848 139.762 183.229 139.915 184.638C140.271 186.788 140.011 188.995 139.164 191.003C138.701 191.894 138.001 192.641 137.142 193.162C136.361 193.649 135.486 193.965 134.573 194.088C133.916 194.205 133.24 194.154 132.607 193.94C132.044 193.766 131.508 193.517 131.012 193.199C130.235 192.651 129.573 191.955 129.065 191.151C128.731 190.648 128.466 190.103 128.276 189.53C128.221 189.335 128.174 189.187 128.156 189.076C128.137 188.965 128.156 188.918 128.156 188.918C128.42 189.674 128.778 190.393 129.222 191.059C129.739 191.819 130.397 192.473 131.161 192.986C131.638 193.289 132.157 193.523 132.7 193.681C133.3 193.866 133.937 193.904 134.555 193.792C135.453 193.683 136.313 193.363 137.062 192.857C137.812 192.351 138.431 191.674 138.867 190.883C139.66 188.931 139.897 186.799 139.553 184.722C139.229 181.942 138.283 179.163 136.382 177.606C135.527 176.832 134.474 176.309 133.34 176.096C132.828 176.003 132.303 176.003 131.791 176.096C131.319 176.185 130.861 176.335 130.428 176.541C129.677 176.901 129.019 177.431 128.508 178.088C128.118 178.588 127.805 179.144 127.581 179.737C127.383 180.244 127.221 180.764 127.099 181.294Z" fill="#263238"/>
<path d="M126.505 189.307C126.895 190.717 127.68 191.987 128.768 192.967C129.321 193.476 129.978 193.862 130.693 194.097C131.408 194.331 132.165 194.411 132.913 194.329C133.917 194.203 134.872 193.821 135.684 193.219C136.496 192.617 137.139 191.815 137.55 190.891C138.728 188.038 138.199 182.618 136.363 179.681C135.093 177.652 132.737 175.975 130.372 176.327C129.063 176.539 127.864 177.187 126.97 178.166C126.076 179.145 125.539 180.397 125.448 181.719" fill="#E0E0E0"/>
<path d="M125.476 181.719C125.481 181.168 125.584 180.622 125.782 180.107C126.002 179.489 126.314 178.908 126.709 178.384C127.528 177.267 128.741 176.502 130.103 176.244C130.644 176.115 131.205 176.093 131.754 176.179C132.953 176.383 134.069 176.922 134.972 177.736C135.98 178.612 136.762 179.718 137.253 180.96C137.786 182.273 138.132 183.655 138.283 185.064C138.637 187.213 138.38 189.418 137.541 191.429C137.072 192.319 136.37 193.065 135.51 193.588C134.729 194.075 133.853 194.391 132.941 194.514C132.281 194.629 131.603 194.582 130.966 194.375C130.401 194.202 129.864 193.95 129.371 193.625C128.594 193.08 127.932 192.387 127.423 191.586C127.093 191.082 126.828 190.537 126.635 189.965C126.579 189.77 126.533 189.613 126.514 189.511C126.496 189.409 126.514 189.354 126.514 189.344C126.777 190.102 127.139 190.821 127.59 191.484C128.103 192.247 128.758 192.905 129.519 193.421C130 193.715 130.518 193.946 131.058 194.106C131.658 194.296 132.295 194.335 132.913 194.218C133.811 194.107 134.669 193.785 135.418 193.278C136.166 192.77 136.783 192.092 137.216 191.299C138.008 189.348 138.249 187.217 137.912 185.138C137.578 182.359 136.632 179.626 134.731 178.032C133.88 177.25 132.826 176.723 131.689 176.513C131.174 176.435 130.65 176.451 130.14 176.559C129.668 176.645 129.209 176.795 128.777 177.004C128.024 177.36 127.366 177.891 126.857 178.551C126.467 179.048 126.155 179.601 125.93 180.191C125.747 180.691 125.596 181.201 125.476 181.719Z" fill="#263238"/>
<path d="M128.045 180.46C127.25 180.505 126.492 180.804 125.881 181.313C125.269 181.822 124.838 182.513 124.65 183.286C124.323 184.857 124.608 186.494 125.448 187.862C125.823 188.577 126.341 189.208 126.969 189.715C127.613 190.22 128.427 190.456 129.241 190.373C129.821 190.24 130.361 189.969 130.815 189.584C131.268 189.199 131.622 188.71 131.847 188.159C132.262 187.293 132.482 186.347 132.493 185.387C132.504 184.427 132.306 183.476 131.912 182.6C131.383 181.433 130.27 180.34 129.009 180.525" fill="#E0E0E0"/>
<path d="M129.009 180.543C129.097 180.508 129.192 180.489 129.287 180.488C129.562 180.478 129.836 180.522 130.094 180.617C130.558 180.82 130.976 181.114 131.323 181.482C131.67 181.85 131.94 182.283 132.116 182.758C132.7 184.138 132.808 185.673 132.422 187.121C132.205 187.988 131.785 188.791 131.198 189.465C130.884 189.843 130.485 190.141 130.033 190.334C129.582 190.527 129.091 190.611 128.601 190.577C127.63 190.454 126.743 189.964 126.125 189.206C125.562 188.526 125.114 187.76 124.799 186.936C124.502 186.248 124.349 185.508 124.349 184.759C124.349 184.01 124.502 183.269 124.799 182.582C125.015 182.123 125.319 181.712 125.695 181.372C126.07 181.032 126.51 180.769 126.987 180.599C127.245 180.515 127.514 180.468 127.785 180.46C127.877 180.447 127.971 180.447 128.063 180.46C127.714 180.515 127.369 180.599 127.034 180.71C126.143 181.083 125.43 181.783 125.04 182.665C124.778 183.324 124.653 184.029 124.673 184.738C124.692 185.446 124.854 186.144 125.151 186.788C125.455 187.568 125.884 188.294 126.421 188.937C126.977 189.63 127.777 190.084 128.656 190.206C129.09 190.236 129.524 190.162 129.923 189.989C130.321 189.817 130.672 189.551 130.947 189.215C131.5 188.591 131.897 187.845 132.106 187.038C132.494 185.659 132.419 184.192 131.893 182.86C131.57 181.943 130.906 181.186 130.038 180.747C129.71 180.619 129.361 180.55 129.009 180.543Z" fill="#263238"/>
<path d="M133.544 191.392C133.488 191.392 133.368 191.188 133.08 190.948C132.698 190.642 132.239 190.45 131.754 190.392C131.248 190.34 130.739 190.34 130.233 190.392C129.843 190.392 129.584 190.447 129.574 190.392C129.565 190.336 129.797 190.243 130.187 190.142C130.71 189.992 131.258 189.945 131.8 190.003C132.361 190.07 132.879 190.332 133.265 190.744C133.59 191.059 133.618 191.374 133.544 191.392Z" fill="#263238"/>
<path d="M131.977 178.802C131.977 178.802 131.912 179.07 131.634 179.385C131.258 179.801 130.787 180.119 130.261 180.312C129.743 180.502 129.187 180.569 128.638 180.506C128.212 180.442 127.98 180.321 127.989 180.284C128.713 180.263 129.432 180.157 130.131 179.969C130.793 179.659 131.413 179.267 131.977 178.802Z" fill="#263238"/>
<path d="M168.441 189.771C170.38 189.475 171.715 187.362 173.672 187.251C174.029 187.241 174.384 187.302 174.717 187.429C175.051 187.557 175.356 187.748 175.615 187.994C175.874 188.239 176.082 188.533 176.228 188.858C176.374 189.184 176.454 189.535 176.463 189.891C176.473 190.248 176.412 190.603 176.285 190.936C176.157 191.269 175.965 191.574 175.72 191.833C175.474 192.092 175.18 192.3 174.854 192.445C174.528 192.591 174.177 192.67 173.82 192.68C171.752 192.68 170.287 190.42 168.256 190.179" fill="#263238"/>
<path d="M185.125 189.567C184.509 189.633 183.889 189.652 183.271 189.622V188.946C184.324 189.051 185.387 188.941 186.396 188.623C187.406 188.304 188.339 187.784 189.141 187.093C190.996 185.407 191.923 182.655 192.071 178.912V178.764C192.127 177.282 189.197 148.58 188.584 143.132C187.657 134.627 180.025 134.312 179.7 134.303C179.375 134.294 172.476 133.914 169.916 143.568C167.245 153.759 163.332 173.131 163.174 175.373C163.174 175.651 163.118 175.994 163.081 176.392C162.766 179.274 162.154 185.268 166.411 188.205C171.187 191.466 174.46 189.632 174.599 189.548L174.943 190.132C174.785 190.215 171.187 192.281 166.03 188.761C161.393 185.602 162.08 179.329 162.404 176.318C162.451 175.929 162.488 175.596 162.506 175.327C162.655 173.076 166.587 153.574 169.267 143.392C171.947 133.21 179.709 133.617 179.784 133.617C182.244 133.774 184.564 134.816 186.315 136.55C188.066 138.284 189.129 140.593 189.308 143.049C189.809 147.533 192.85 177.208 192.795 178.783V178.922C192.665 182.859 191.608 185.768 189.642 187.575C188.394 188.714 186.808 189.414 185.125 189.567Z" fill="#263238"/>
<path d="M189.586 148.589C189.157 147.445 188.56 146.371 187.815 145.402C185.937 143.113 183.245 141.638 180.303 141.289C177.366 140.982 174.414 141.71 171.956 143.345C170.959 144.052 170.047 144.873 169.239 145.791C169.272 145.711 169.316 145.637 169.369 145.569C169.471 145.439 169.601 145.217 169.814 144.976C170.397 144.273 171.071 143.65 171.817 143.123C172.922 142.345 174.147 141.753 175.443 141.372C177.037 140.887 178.713 140.732 180.368 140.918C182.012 141.119 183.594 141.672 185.005 142.539C186.161 143.249 187.179 144.163 188.01 145.235C188.566 145.955 189.01 146.755 189.326 147.607C189.414 147.84 189.485 148.078 189.54 148.321C189.574 148.406 189.59 148.497 189.586 148.589Z" fill="#263238"/>
<path d="M176.602 104.666L164.296 152.082L146.314 179.209L167.217 95.7529L176.602 104.666Z" fill="#EBEBEB"/>
<path d="M146.314 179.209C146.854 178.604 147.344 177.956 147.779 177.272L151.619 171.714L164.676 152.323L164.723 152.267V152.184C165.873 147.764 167.134 142.919 168.432 137.972C171.845 124.862 174.85 113.022 176.909 104.739L176.955 104.554L176.816 104.424L169.823 97.9945L167.913 96.2898C167.701 96.0762 167.46 95.8924 167.199 95.7432C167.36 95.9985 167.556 96.2293 167.783 96.4287L169.573 98.2817L176.371 104.897L176.278 104.582C174.052 112.809 170.927 124.621 167.523 137.731L163.814 151.952L163.879 151.822C158.75 159.669 154.336 166.442 151.109 171.399L147.482 177.096C147.033 177.766 146.642 178.472 146.314 179.209Z" fill="#263238"/>
<path d="M145.174 187.584C144.849 186.817 144.448 186.085 143.977 185.397L140.407 179.598C137.346 174.697 132.988 167.915 128.128 160.299L128.212 160.596C128.295 159.364 128.378 158.057 128.471 156.742C129.148 146.819 129.705 137.833 130.066 131.32C130.215 128.197 130.335 125.613 130.437 123.611C130.522 122.668 130.522 121.719 130.437 120.776C130.232 121.69 130.105 122.62 130.057 123.556C129.881 125.548 129.658 128.133 129.38 131.245C128.851 137.731 128.184 146.727 127.525 156.649C127.442 157.965 127.349 159.271 127.266 160.503V160.661L127.349 160.791C132.274 168.388 136.688 175.114 139.887 179.922L143.708 185.564C144.135 186.28 144.625 186.956 145.174 187.584Z" fill="#263238"/>
<path d="M175.045 103.971C176.118 104.433 177.024 105.212 177.641 106.204L177.706 106.296C179.913 109.53 180.08 114.458 180.219 118.794V119.665C180.267 124.364 179.957 129.059 179.292 133.71L183.002 134.164L181.147 133.942L183.002 134.155C183.704 129.314 184.032 124.427 183.985 119.535V118.674C183.818 113.764 183.632 108.195 180.757 104.036L180.683 103.924C179.366 102.113 177.468 100.805 175.304 100.219C174.642 100.098 173.959 100.217 173.375 100.552L172.763 100.904L175.045 103.971Z" fill="#263238"/>
<path d="M147.844 217.472C147.743 216.974 147.687 216.469 147.677 215.961C147.594 215.035 147.501 213.571 147.408 211.82C147.204 208.327 147.01 203.482 146.833 198.155C146.657 192.828 146.518 188.065 146.407 184.489C146.36 182.803 146.323 181.404 146.296 180.339C146.248 179.833 146.248 179.325 146.296 178.819C146.384 179.318 146.44 179.823 146.462 180.329C146.537 181.312 146.629 182.72 146.722 184.471C146.917 187.973 147.112 192.809 147.288 198.145C147.464 203.482 147.603 208.235 147.714 211.811C147.761 213.497 147.807 214.887 147.835 215.952C147.876 216.458 147.879 216.966 147.844 217.472Z" fill="#263238"/>
<path d="M127.979 196.033L128.777 217.759L213.707 215.906C215.885 215.86 218.03 215.36 220.003 214.437C221.976 213.514 223.734 212.189 225.163 210.547C226.593 208.905 227.663 206.982 228.305 204.902C228.946 202.822 229.145 200.631 228.889 198.47C228.23 193.143 227.46 186.963 226.663 180.534C225.411 170.537 223 142.965 220.282 127.299C219.669 123.623 217.859 120.253 215.132 117.71C212.406 115.167 208.916 113.594 205.203 113.235C204.381 113.131 203.549 113.131 202.727 113.235C193.277 114.736 189.744 124.047 190.068 134.831C190.337 143.679 191.645 185.555 191.645 185.555L127.979 196.033Z" fill="#EBEBEB"/>
<path d="M226.746 208.421C226.746 208.421 226.663 208.578 226.487 208.856C226.25 209.291 225.974 209.704 225.661 210.088C224.458 211.588 222.942 212.809 221.219 213.664C218.472 214.998 215.5 215.806 212.455 216.045C208.885 216.24 204.832 216.258 200.325 216.388L128.796 218H128.564V217.769C128.378 212.645 128.183 207.253 127.989 201.778C127.914 199.628 127.831 197.498 127.757 195.413V195.2H127.97L191.635 185.407L191.468 185.602C190.875 171.705 190.393 160.272 190.059 152.332C189.901 148.376 189.781 145.291 189.697 143.179C189.697 142.132 189.632 141.326 189.614 140.779C189.595 140.233 189.614 139.964 189.614 139.964C189.614 139.964 189.614 140.242 189.688 140.779C189.762 141.317 189.762 142.132 189.818 143.169C189.929 145.282 190.087 148.376 190.281 152.323C190.662 160.263 191.209 171.658 191.858 185.583V185.759H191.691L128.026 195.691L128.23 195.441C128.304 197.535 128.387 199.656 128.462 201.806C128.656 207.281 128.842 212.673 129.027 217.796L128.786 217.565L200.316 216.073C204.814 215.962 208.894 215.962 212.418 215.795C215.441 215.582 218.398 214.806 221.136 213.507C222.851 212.68 224.369 211.495 225.587 210.033C225.896 209.652 226.181 209.253 226.44 208.837C226.635 208.56 226.746 208.421 226.746 208.421Z" fill="#263238"/>
<path d="M199.453 197.155C199.324 197.22 197.923 194.292 195.744 190.994C194.631 189.345 193.546 187.881 192.73 186.89C192.297 186.353 191.712 185.959 191.051 185.76C191.051 185.76 191.265 185.685 191.636 185.76C192.151 185.93 192.614 186.23 192.98 186.63C194.141 187.9 195.198 189.26 196.143 190.698C197.1 192.119 197.958 193.605 198.712 195.145C199.047 195.779 199.297 196.455 199.453 197.155Z" fill="#263238"/>
<path d="M207.809 193.746C207.744 193.801 207.04 193.014 205.76 191.893C202.417 188.984 198.369 187.003 194.019 186.148C192.35 185.815 191.302 185.741 191.302 185.667C191.55 185.622 191.805 185.622 192.053 185.667C192.73 185.681 193.405 185.74 194.075 185.843C198.548 186.53 202.705 188.563 205.992 191.67C206.487 192.134 206.949 192.633 207.373 193.162C207.547 193.334 207.694 193.53 207.809 193.746Z" fill="#263238"/>
<path d="M107.41 186.917C107.129 184.767 107.005 182.599 107.039 180.432C106.915 178.27 106.949 176.103 107.141 173.946C107.435 176.095 107.562 178.263 107.522 180.432C107.645 182.593 107.608 184.761 107.41 186.917Z" fill="#263238"/>
<path d="M95.7902 75.9356C94.715 76.1336 93.6077 76.0656 92.565 75.7375C91.5222 75.4094 90.5757 74.8313 89.8082 74.0535C89.0406 73.2758 88.4754 72.3221 88.1618 71.2758C87.8483 70.2295 87.7959 69.1225 88.0094 68.0513C88.4005 66.9141 88.6406 65.7304 88.7235 64.5308C88.5658 61.9459 85.6724 60.3616 84.9212 57.888C84.2164 55.5996 85.5333 53.163 87.1469 51.4027C88.7606 49.6424 90.7266 48.1045 91.7839 45.9643C92.7762 44.0002 92.906 41.7026 93.7499 39.6644C94.3599 38.2434 95.3039 36.9904 96.5018 36.0114C97.6996 35.0324 99.1161 34.3564 100.631 34.0407C103.738 33.42 107.123 34.3742 110.063 33.2532C112.224 32.4379 113.846 30.6498 115.831 29.4732C118.116 28.2051 120.765 27.7517 123.342 28.1879C125.92 28.624 128.271 29.9236 130.011 31.8728C131.297 33.6386 132.985 35.0739 134.935 36.0604C137.662 37.2741 140.898 36.4866 143.402 38.1357C144.886 39.1085 145.517 40.9614 145.832 42.7124C146.147 44.4635 146.259 46.3071 147.093 47.8821C147.773 49.0932 148.835 50.0459 150.113 50.5921C151.391 51.1383 152.814 51.2474 154.16 50.9024C154.315 51.7524 154.293 52.625 154.097 53.4664C153.901 54.3078 153.534 55.1 153.019 55.7942C154.36 55.8471 155.69 55.5264 156.859 54.8677C157.101 56.5873 156.988 58.3383 156.527 60.0128C156.067 61.6873 155.268 63.2499 154.181 64.6046C153.093 65.9593 151.74 67.0773 150.203 67.8899C148.667 68.7025 146.981 69.1926 145.248 69.3299" fill="#E0E0E0"/>
<path d="M145.925 63.0016C146.101 62.7885 153.52 55.525 157.981 64.6415C162.442 73.7579 152.417 76.3983 152.25 76.1389C152.083 75.8795 145.925 63.0016 145.925 63.0016Z" fill="#FFBE9D"/>
<path d="M153.371 71.3124C153.371 71.3124 153.585 71.3124 153.918 71.3124C154.376 71.2864 154.805 71.0838 155.115 70.7473C155.903 69.9227 155.959 67.9678 155.189 66.328C154.83 65.532 154.294 64.8285 153.622 64.2712C153.396 64.0278 153.114 63.8432 152.8 63.7334C152.487 63.6236 152.151 63.592 151.823 63.6412C151.613 63.6883 151.427 63.8064 151.295 63.9753C151.163 64.1442 151.094 64.3536 151.099 64.5677C151.099 64.8827 151.257 65.0309 151.21 65.0773C151.164 65.1236 150.941 65.0217 150.83 64.6048C150.77 64.3534 150.797 64.0892 150.904 63.8543C151.065 63.5432 151.342 63.3072 151.674 63.1965C152.084 63.0821 152.518 63.0766 152.931 63.1806C153.344 63.2846 153.723 63.4944 154.03 63.7895C154.797 64.3898 155.405 65.1693 155.801 66.0593C156.645 67.9123 156.552 70.108 155.43 71.1364C155.221 71.331 154.971 71.4749 154.697 71.5569C154.424 71.6389 154.135 71.6566 153.853 71.6089C153.492 71.544 153.343 71.3495 153.371 71.3124Z" fill="#EB996E"/>
<path d="M109.506 104.897C106.047 98.6065 99.9725 85.0801 94.6678 72.7673C91.8911 66.3855 91.6212 59.1931 93.9119 52.6215C96.2026 46.0499 100.886 40.5807 107.03 37.3021L108.3 36.6258C122.378 30.1406 135.76 38.4788 141.853 52.7L162.998 94.8451L139.405 133.117L130.929 112.957C130.929 112.957 116.675 117.942 109.506 104.897Z" fill="#FFBE9D"/>
<path d="M130.864 112.976C136.985 109.86 142.038 104.993 145.377 98.9951C145.377 98.9951 146.527 110.687 132.821 116.487L130.864 112.976Z" fill="#EB996E"/>
<path d="M103.181 80.6884C103.437 81.1706 103.869 81.5359 104.387 81.7084C104.905 81.881 105.469 81.8475 105.963 81.6149C106.212 81.5067 106.436 81.3501 106.622 81.1542C106.809 80.9583 106.954 80.7271 107.05 80.4742C107.146 80.2213 107.191 79.9517 107.181 79.6815C107.171 79.4112 107.107 79.1456 106.993 78.9004C106.737 78.4182 106.306 78.0529 105.788 77.8804C105.269 77.7078 104.705 77.7413 104.211 77.9739C103.963 78.0821 103.739 78.2387 103.552 78.4346C103.365 78.6305 103.22 78.8617 103.124 79.1146C103.028 79.3676 102.984 79.6371 102.994 79.9073C103.003 80.1776 103.067 80.4432 103.181 80.6884Z" fill="#263238"/>
<path d="M101.085 78.3256C101.447 78.4461 102.3 76.6395 104.322 75.5462C106.343 74.453 108.356 74.6939 108.449 74.3326C108.449 74.1658 108.022 73.8508 107.132 73.7211C105.933 73.5828 104.722 73.8191 103.663 74.3974C102.614 74.9502 101.769 75.8234 101.252 76.8896C100.844 77.7234 100.872 78.2793 101.085 78.3256Z" fill="#263238"/>
<path d="M121.766 69.2375C122.128 69.3301 122.879 67.4772 124.827 66.282C126.774 65.0869 128.796 65.1795 128.861 64.809C128.861 64.6422 128.406 64.355 127.507 64.2901C126.305 64.2237 125.113 64.5312 124.094 65.1703C123.08 65.7998 122.291 66.7338 121.84 67.8385C121.488 68.6445 121.59 69.2004 121.766 69.2375Z" fill="#263238"/>
<path d="M121.553 86.3676C121.497 86.2472 120.134 86.7011 117.964 87.5257C117.417 87.7481 116.879 87.9056 116.601 87.5998C116.276 87.0915 116.112 86.4978 116.128 85.8951C115.952 84.385 115.757 82.81 115.562 81.1609C114.7 74.4532 113.772 69.0519 113.503 69.1168C113.234 69.1816 113.717 74.62 114.579 81.3276C114.811 82.9767 115.024 84.5425 115.228 86.0434C115.24 86.8387 115.529 87.6051 116.044 88.2113C116.216 88.3501 116.417 88.4487 116.632 88.5C116.847 88.5513 117.071 88.5539 117.287 88.5078C117.609 88.4325 117.921 88.3173 118.214 88.165C120.329 87.1273 121.609 86.4603 121.553 86.3676Z" fill="#263238"/>
<path d="M128.23 84.5698C127.896 84.7273 129.056 86.9138 128.017 89.4616C126.978 92.0094 124.511 93.0192 124.66 93.3342C124.66 93.4825 125.402 93.4825 126.403 92.9822C127.693 92.3152 128.707 91.2167 129.269 89.8785C129.811 88.5928 129.828 87.1462 129.315 85.8484C128.907 84.8848 128.379 84.5143 128.23 84.5698Z" fill="#263238"/>
<path d="M115.172 57.2763C115.664 57.721 117.537 56.3499 120.059 55.4234C122.582 54.4969 124.836 54.0707 124.882 53.4129C124.882 53.0979 124.288 52.7644 123.231 52.644C121.856 52.5305 120.474 52.7431 119.197 53.2647C117.904 53.7618 116.749 54.5626 115.831 55.5994C115.154 56.4054 114.996 57.0632 115.172 57.2763Z" fill="#E0E0E0"/>
<path d="M99.3328 73.8606C99.9356 74.1293 101.067 72.9342 102.727 72.0077C104.387 71.0812 105.982 70.6736 106.047 70.0158C106.047 69.7101 105.602 69.3673 104.749 69.2654C103.641 69.1916 102.537 69.447 101.575 69.9994C100.613 70.5517 99.8359 71.3762 99.3421 72.369C98.9989 73.1473 99.0638 73.7217 99.3328 73.8606Z" fill="#E0E0E0"/>
<path d="M96.708 41.2304C100.297 36.8667 105.481 35.2269 110.767 33.2164C114.791 31.5992 119.159 31.0286 123.463 31.5581C130.428 32.4845 136.113 36.8945 139.804 42.8702C143.357 48.6059 146 54.8563 147.64 61.3996L147.102 61.5571C148.234 62.8912 149.411 64.3365 149.69 66.0319C149.968 67.7274 148.938 69.8212 147.195 69.9879C145.164 70.1825 143.856 67.959 143.012 66.106C140.112 59.86 136.775 53.8261 133.025 48.0492C130.242 43.7041 124.678 39.6461 119.948 39.4701C109.432 39.118 105.722 46.7985 103.524 49.3092C97.1439 48.0214 93.4992 52.8205 92.646 57.4992C90.884 52.0886 93.1283 45.6033 96.708 41.2304Z" fill="#E0E0E0"/>
<path d="M140.453 37.2644C140.62 37.533 140.258 38.1908 139.257 38.8857C137.809 39.8151 136.176 40.4189 134.472 40.6552C132.014 41.0228 129.518 41.0539 127.052 40.7479C124.372 40.4699 121.59 39.9882 118.836 39.8214C116.401 39.6277 113.955 40.0217 111.704 40.9702C109.881 41.8179 108.254 43.0358 106.928 44.5464C104.573 47.1868 103.896 49.5771 103.219 49.4659C103.061 49.4659 102.922 49.2714 102.82 48.9471C102.69 48.4897 102.64 48.0133 102.671 47.5389C102.775 45.7987 103.286 44.1071 104.164 42.6008C105.478 40.2765 107.402 38.3545 109.729 37.042C111.103 36.2718 112.589 35.7216 114.134 35.4114C115.755 35.0977 117.409 34.9826 119.058 35.0686C121.977 35.2692 124.876 35.6936 127.729 36.3379C129.867 36.8067 132.037 37.1164 134.221 37.2644C135.669 37.3365 137.121 37.2869 138.561 37.1161C139.609 36.9864 140.277 36.9308 140.453 37.2644Z" fill="white"/>
<path d="M144.552 44.4453C144.128 44.9553 143.608 45.3771 143.022 45.6868C141.652 46.5255 140.13 47.0859 138.542 47.3359C136.955 47.5921 135.332 47.5355 133.766 47.1691C133.106 47.0667 132.474 46.8268 131.912 46.465C131.912 46.3909 132.644 46.641 133.822 46.8356C135.358 47.0855 136.923 47.0855 138.459 46.8356C139.979 46.5871 141.45 46.0992 142.818 45.3903C143.378 45.0441 143.957 44.7286 144.552 44.4453Z" fill="white"/>
<path d="M153.177 51.4671C152.93 51.5653 152.671 51.6307 152.407 51.6617C151.906 51.7543 151.174 51.847 150.265 51.9303C147.883 52.1184 145.488 52.0407 143.124 51.6987C140.761 51.3587 138.444 50.7558 136.215 49.9014C135.541 49.6468 134.882 49.3561 134.239 49.0305C133.992 48.933 133.761 48.7987 133.553 48.6321C133.553 48.558 134.62 49.0027 136.335 49.5586C138.569 50.3127 140.866 50.8646 143.198 51.2077C145.529 51.5375 147.885 51.6584 150.237 51.569C152.092 51.5227 153.167 51.3837 153.177 51.4671Z" fill="white"/>
<path d="M104.795 34.7822C104.326 35.4431 103.825 36.0801 103.292 36.6907C102.069 38.1837 101.181 39.9213 100.686 41.7863C100.241 43.6569 100.468 45.6242 101.326 47.3451C101.738 48.0463 102.22 48.7043 102.764 49.3092C102.764 49.3092 102.541 49.2166 102.207 48.9479C101.755 48.5324 101.375 48.0438 101.085 47.5026C100.089 45.7317 99.8008 43.6497 100.278 41.6751C100.776 39.7424 101.73 37.957 103.06 36.4684C103.554 35.8259 104.138 35.2579 104.795 34.7822Z" fill="white"/>
<path d="M98.4422 34.4202C98.5164 34.4202 98.0064 35.2633 97.5705 36.7086C97.0087 38.5796 96.9638 40.5676 97.4407 42.462C97.9466 44.3568 98.9523 46.0813 100.353 47.4556C101.428 48.5025 102.272 48.9565 102.207 49.0306C102.143 49.1047 101.966 48.975 101.595 48.7619C101.079 48.4564 100.597 48.0961 100.158 47.6872C98.6159 46.3373 97.5168 44.5546 97.0039 42.5714C96.4911 40.5883 96.5884 38.4967 97.283 36.5696C97.4868 35.9937 97.7511 35.4409 98.0713 34.9205C98.3031 34.587 98.4144 34.4017 98.4422 34.4202Z" fill="white"/>
<path d="M148.122 63.5205C147.047 64.0853 145.814 64.2775 144.617 64.0671C143.401 64.0181 142.235 63.5722 141.297 62.7979C142.405 63.1185 143.528 63.3813 144.663 63.5853C145.817 63.6286 146.972 63.607 148.122 63.5205Z" fill="white"/>
<path d="M149.55 64.9755C148.46 65.7133 147.155 66.0655 145.841 65.976C144.515 66.0474 143.206 65.6615 142.131 64.8828C143.348 65.1937 144.589 65.3983 145.841 65.4943C147.09 65.4309 148.332 65.2573 149.55 64.9755Z" fill="white"/>
<path d="M92.6462 60.0184C92.1983 60.2058 91.7091 60.2729 91.2273 60.2129C90.0627 60.1439 88.9354 59.777 87.9536 59.1475C86.9707 58.5198 86.1709 57.6442 85.6351 56.609C85.3743 56.202 85.233 55.7302 85.2271 55.2471C85.3012 55.2471 85.4774 55.7288 85.9319 56.4422C86.5221 57.363 87.3033 58.1465 88.2225 58.7399C89.145 59.3273 90.1818 59.7125 91.2644 59.8701C91.7282 59.8829 92.1902 59.9325 92.6462 60.0184Z" fill="white"/>
<path d="M92.6461 56.7203C91.4014 56.442 90.2292 55.9054 89.2055 55.1453C88.1167 54.5063 87.1699 53.652 86.4233 52.6345C86.5254 52.5326 87.7866 53.6259 89.5115 54.7469C91.2365 55.8679 92.7389 56.572 92.6461 56.7203Z" fill="white"/>
<path d="M99.342 141.576C99.342 141.576 97.1904 130.356 97.7561 128.605C98.3219 126.854 101.392 120.953 101.262 114.439C101.094 109.598 100.682 104.768 100.028 99.968L98.9988 93.9738L94.6865 92.2969C94.6865 92.2969 93.0728 88.2482 92.3309 87.5163C91.7414 86.9824 90.992 86.6576 90.199 86.5923C89.406 86.527 88.6135 86.7247 87.9444 87.155C87.0067 87.7699 86.3424 88.7222 86.0896 89.8139C85.6981 89.5493 85.2508 89.3782 84.7824 89.3141C84.3141 89.2499 83.8372 89.2944 83.3888 89.444C82.9404 89.5936 82.5325 89.8444 82.1968 90.1768C81.861 90.5093 81.6064 90.9145 81.4527 91.3611C81.4527 91.3611 79.1713 90.2679 77.6133 91.2685C77.1394 91.5786 76.7487 92.0001 76.4755 92.4959C76.2023 92.9917 76.0548 93.5468 76.046 94.1127C76.046 94.1127 74.0057 92.9824 72.5868 94.1127C72.1518 94.4387 71.8247 94.8875 71.6478 95.4012C71.4709 95.9149 71.4523 96.4697 71.5945 96.9941C71.6594 97.3554 74.1356 116.172 74.1634 117.775C74.1912 119.378 76.7601 125.715 77.502 127.197C78.2439 128.679 79.1713 142.02 79.1713 142.02L99.342 141.576Z" fill="#FFBE9D"/>
<path d="M95.1038 99.0783C95.1038 99.0783 94.9739 99.2914 94.8441 99.7083C94.6463 100.307 94.5339 100.931 94.5103 101.561C94.4466 103.76 94.7603 105.954 95.4376 108.047L95.5026 108.25L95.2985 108.334C93.6095 108.991 92.0736 109.988 90.7862 111.263C89.4988 112.538 88.4873 114.064 87.8145 115.745C87.2551 117.174 86.9416 118.687 86.8871 120.22C86.8899 121.641 87.0454 123.057 87.3508 124.445C87.1701 124.103 87.036 123.739 86.952 123.361C86.6831 122.336 86.5459 121.28 86.544 120.22C86.5397 118.64 86.816 117.072 87.3601 115.588C88.034 113.829 89.0721 112.233 90.4066 110.903C91.7411 109.573 93.3418 108.539 95.1038 107.871L94.974 108.148C94.3078 105.988 94.0592 103.721 94.2413 101.469C94.297 100.83 94.4535 100.205 94.705 99.6157C94.7734 99.4585 94.864 99.3118 94.974 99.1802C95.0574 99.1154 95.0945 99.0691 95.1038 99.0783Z" fill="#EB996E"/>
<path d="M117.213 94.7059C117.083 94.7059 116.851 94.2889 116.703 93.7053C116.554 93.1216 116.526 92.612 116.703 92.5842C116.879 92.5564 117.064 93.0012 117.213 93.5848C117.361 94.1685 117.333 94.641 117.213 94.7059Z" fill="white"/>
<path d="M118.233 94.289C118.103 94.289 117.936 93.8165 117.704 93.2606C117.472 92.7047 117.259 92.2415 117.37 92.1581C117.482 92.0747 117.899 92.4453 118.159 93.0846C118.418 93.7239 118.363 94.2705 118.233 94.289Z" fill="white"/>
<path d="M119.104 93.7791C118.965 93.7791 118.789 93.3807 118.576 92.8526C118.362 92.3245 118.205 91.9262 118.316 91.852C118.427 91.7779 118.789 92.1115 119.021 92.6673C119.253 93.2232 119.234 93.7791 119.104 93.7791Z" fill="white"/>
<path d="M120.217 93.02C120.106 93.0849 119.772 92.7606 119.466 92.2789C119.16 91.7971 119.003 91.3524 119.123 91.2875C119.244 91.2227 119.568 91.547 119.874 92.0195C120.18 92.492 120.329 92.9459 120.217 93.02Z" fill="white"/>
<path d="M121.618 92.1669C121.497 92.2317 121.172 91.8797 120.755 91.4905C120.338 91.1014 119.985 90.7772 120.05 90.6567C120.115 90.5363 120.625 90.6567 121.089 91.1385C121.553 91.6203 121.729 92.102 121.618 92.1669Z" fill="white"/>
<path d="M122.731 91.4449C122.638 91.5375 122.239 91.2781 121.803 90.8612C121.367 90.4443 121.173 90.0367 121.265 89.9347C121.358 89.8328 121.766 90.1015 122.193 90.5092C122.619 90.9168 122.823 91.3522 122.731 91.4449Z" fill="white"/>
<path d="M123.278 90.5087C123.194 90.6106 122.768 90.4161 122.35 90.064C121.933 89.7119 121.636 89.3506 121.72 89.2487C121.803 89.1468 122.22 89.3413 122.647 89.6934C123.074 90.0455 123.343 90.4068 123.278 90.5087Z" fill="white"/>
<path d="M123.742 89.5641C123.63 89.6382 123.343 89.3695 122.981 89.0916C122.619 88.8136 122.286 88.5913 122.332 88.4616C122.378 88.3319 122.833 88.3689 123.259 88.7117C123.686 89.0545 123.862 89.5085 123.742 89.5641Z" fill="white"/>
<path d="M124.27 88.7025C124.205 88.8136 123.779 88.7025 123.296 88.4708C122.814 88.2392 122.49 87.9335 122.545 87.8131C122.601 87.6926 123.046 87.8131 123.519 88.0447C123.992 88.2763 124.363 88.582 124.27 88.7025Z" fill="white"/>
<path d="M125.086 87.5996C125.086 87.72 124.632 87.6829 124.159 87.5069C123.686 87.3309 123.371 87.09 123.426 86.9696C123.482 86.8491 123.881 86.8862 124.354 87.0622C124.827 87.2382 125.133 87.4699 125.086 87.5996Z" fill="white"/>
<path d="M125.948 86.7382C125.948 86.8679 125.457 86.8587 124.91 86.7382C124.363 86.6178 123.982 86.4047 123.982 86.275C123.982 86.1453 124.483 86.1453 125.021 86.275C125.559 86.4047 125.986 86.6085 125.948 86.7382Z" fill="white"/>
<path d="M74.4138 120.675L82.8159 121.657L84.1513 123.343L83.4651 128.587L81.703 129.939L73.6162 128.466L74.4138 120.675Z" fill="#263238"/>
<path d="M82.7325 121.573C82.7906 122.934 82.6816 124.297 82.408 125.631C82.3004 126.988 82.0264 128.325 81.5919 129.615C81.5451 128.254 81.6572 126.892 81.9257 125.557C82.0398 124.202 82.3105 122.866 82.7325 121.573Z" fill="#455A64"/>
<path d="M80.3119 129.671C80.281 128.294 80.418 126.919 80.7199 125.576C80.8591 124.211 81.1579 122.868 81.6102 121.573C81.63 122.949 81.4931 124.323 81.2022 125.668C81.0616 127.032 80.7628 128.375 80.3119 129.671Z" fill="#455A64"/>
<path d="M66.3267 133.849C66.3267 134.321 71.6962 141.992 71.6962 141.992H76.6114L78.4662 140.621L79.3008 135.859L73.4305 128.253L66.3267 133.849Z" fill="#263238"/>
<path d="M79.338 135.859C79.4029 135.98 77.5574 137.175 75.4615 138.907C73.3656 140.64 71.7519 142.132 71.6499 142.03C72.6321 140.705 73.8002 139.529 75.1183 138.537C76.3649 137.415 77.7913 136.51 79.338 135.859Z" fill="#455A64"/>
<path d="M78.7633 135.118C78.8282 135.248 76.8529 136.221 74.7663 137.898C72.6796 139.574 71.3349 141.325 71.2144 141.251C71.9963 139.783 73.1071 138.515 74.4602 137.546C75.7061 136.441 77.1729 135.613 78.7633 135.118Z" fill="#455A64"/>
<path d="M65.8169 133.136H56.7935V145.43H65.8169V133.136Z" fill="#263238"/>
<path d="M65.9371 144.04C64.451 144.283 62.9428 144.364 61.4392 144.281C59.9387 144.364 58.4337 144.283 56.9507 144.04C58.4342 143.802 59.9387 143.722 61.4392 143.799C62.9428 143.721 64.4504 143.802 65.9371 144.04Z" fill="#455A64"/>
<path d="M66.002 142.937C64.5154 143.175 63.0078 143.256 61.5042 143.178C60.0006 143.256 58.493 143.175 57.0063 142.937C58.493 142.7 60.0006 142.619 61.5042 142.697C63.0078 142.619 64.5154 142.7 66.002 142.937Z" fill="#455A64"/>
<path d="M52.3325 129.689C53.9091 132.047 56.2478 133.793 58.958 134.636C61.6683 135.479 64.5859 135.367 67.2236 134.319C69.8613 133.272 72.0593 131.352 73.4507 128.88C74.842 126.409 75.3423 123.535 74.8681 120.739L70.1013 123.843L52.3325 129.689Z" fill="#EBEBEB"/>
<path d="M29.4629 179.533H41.6024V167.665H67.1334C67.9328 167.665 68.6994 167.347 69.2646 166.783C69.8299 166.218 70.1474 165.452 70.1474 164.654C70.145 163.856 69.8266 163.091 69.2619 162.527C68.6972 161.963 67.932 161.645 67.1334 161.643H52.2395V157.566H79.1338C79.9094 157.566 80.6534 157.259 81.2027 156.712C81.7521 156.165 82.0619 155.423 82.0644 154.648C82.0619 153.873 81.7521 153.131 81.2027 152.584C80.6534 152.037 79.9094 151.729 79.1338 151.729H34.6841V156.362H29.7226L29.4629 179.533Z" fill="#263238"/>
<path d="M34.6567 179.533C34.5176 179.533 34.4156 173.307 34.4249 165.636C34.4342 157.965 34.5547 151.739 34.6846 151.739C34.8144 151.739 34.9164 157.965 34.9071 165.636C34.8979 173.307 34.7866 179.533 34.6567 179.533Z" fill="#455A64"/>
<path d="M41.5562 152.146C41.8004 154.752 41.8809 157.369 41.7973 159.984C41.8811 162.603 41.8005 165.223 41.5562 167.832C41.3174 165.223 41.2368 162.603 41.315 159.984C41.2371 157.369 41.3176 154.752 41.5562 152.146Z" fill="#455A64"/>
<path d="M82.0274 203.102C81.1921 200.346 79.5901 197.884 77.408 196.003C75.2259 194.121 72.5536 192.898 69.7024 192.476H29.3332L28.4058 203.806L82.0274 203.102Z" fill="#EBEBEB"/>
<path d="M8.12403 176.356V130.579C8.12239 129.861 8.36462 129.165 8.81107 128.602C9.25752 128.04 9.88176 127.646 10.5816 127.485L48.5303 116.691L48.9013 101.683L71.5945 101.303L78.6148 94.8174L89.6878 107.501L74.9887 123.51L29.9362 137.463L29.1943 203.103H81.9163C82.2216 203.103 82.5238 203.163 82.8057 203.28C83.0876 203.397 83.3436 203.569 83.559 203.785C83.7744 204.001 83.945 204.257 84.061 204.539C84.1769 204.821 84.236 205.123 84.2348 205.428V214.007H8.12403V176.356Z" fill="#455A64"/>
<path d="M75.4433 147.736H54.9109C53.8148 147.736 52.9263 148.624 52.9263 149.719V149.747C52.9263 150.842 53.8148 151.729 54.9109 151.729H75.4433C76.5393 151.729 77.4279 150.842 77.4279 149.747V149.719C77.4279 148.624 76.5393 147.736 75.4433 147.736Z" fill="#E0E0E0"/>
<path d="M75.4337 151.73C75.4337 151.73 75.6285 151.73 75.9624 151.6C76.2684 151.505 76.5455 151.334 76.7685 151.104C76.9915 150.874 77.1533 150.592 77.2391 150.283C77.3248 149.974 77.3318 149.649 77.2595 149.337C77.1871 149.025 77.0377 148.736 76.8248 148.497C76.4991 148.139 76.0465 147.923 75.5636 147.895H73.8479L54.9106 147.969C54.5098 147.967 54.1206 148.103 53.8079 148.354C53.4952 148.604 53.2779 148.954 53.1922 149.345C53.1066 149.737 53.1577 150.145 53.337 150.503C53.5164 150.861 53.8132 151.147 54.178 151.313C54.5475 151.465 54.9492 151.523 55.3465 151.48H59.0561L67.5695 151.526L73.31 151.6L74.8773 151.647C75.0583 151.642 75.2391 151.66 75.4152 151.702C75.2362 151.716 75.0563 151.716 74.8773 151.702L73.31 151.749L67.5695 151.823L59.0561 151.878H55.3465C54.8792 151.922 54.4083 151.852 53.974 151.675C53.5218 151.46 53.1537 151.102 52.9271 150.656C52.7006 150.21 52.6284 149.701 52.722 149.21C52.8429 148.723 53.1247 148.291 53.5218 147.983C53.9189 147.675 54.4082 147.51 54.9106 147.515L73.8479 147.589C74.46 147.589 75.0257 147.589 75.5914 147.589C75.9479 147.617 76.2914 147.735 76.5898 147.932C76.8881 148.129 77.1316 148.399 77.2975 148.715C77.4633 149.032 77.5461 149.385 77.538 149.742C77.53 150.099 77.4314 150.449 77.2514 150.757C77.1155 150.99 76.9335 151.191 76.7166 151.351C76.4997 151.51 76.2525 151.623 75.9902 151.684C75.81 151.738 75.6204 151.754 75.4337 151.73Z" fill="#263238"/>
<path d="M18.6592 187.714C25.1537 187.714 30.4185 182.454 30.4185 175.966C30.4185 169.478 25.1537 164.219 18.6592 164.219C12.1647 164.219 6.8999 169.478 6.8999 175.966C6.8999 182.454 12.1647 187.714 18.6592 187.714Z" fill="#263238"/>
<path d="M25.1973 176.346C25.1416 176.346 25.1973 175.762 24.9005 174.78C24.5106 173.386 23.6691 172.161 22.5078 171.297C21.7194 170.701 20.8009 170.301 19.8277 170.129C18.7141 169.935 17.5691 170.037 16.5076 170.426C15.3354 170.853 14.318 171.621 13.5864 172.631C12.8009 173.707 12.3777 175.005 12.3777 176.337C12.3777 177.669 12.8009 178.966 13.5864 180.042C14.318 181.052 15.3354 181.82 16.5076 182.247C17.5691 182.636 18.7141 182.738 19.8277 182.544C20.7989 182.371 21.7164 181.974 22.5078 181.386C23.6671 180.519 24.5081 179.295 24.9005 177.902C25.1694 176.911 25.1416 176.327 25.1973 176.327C25.2208 176.465 25.2208 176.606 25.1973 176.744C25.1932 177.149 25.1466 177.553 25.0582 177.949C24.7206 179.419 23.8853 180.728 22.6933 181.654C21.985 182.201 21.1747 182.6 20.31 182.829C19.4452 183.059 18.5433 183.113 17.6571 182.99C16.7709 182.866 15.9183 182.568 15.1493 182.111C14.3802 181.654 13.7101 181.048 13.1783 180.33C12.3235 179.172 11.8623 177.771 11.8623 176.332C11.8623 174.893 12.3235 173.492 13.1783 172.334C13.9264 171.3 14.9564 170.503 16.1454 170.038C17.3345 169.572 18.6324 169.458 19.8845 169.709C21.1366 169.96 22.2901 170.565 23.2074 171.453C24.1247 172.341 24.7671 173.473 25.0582 174.715C25.147 175.108 25.1936 175.508 25.1973 175.91C25.224 176.054 25.224 176.202 25.1973 176.346Z" fill="#455A64"/>
<path d="M75.0259 96.5682L88.5101 111.216L93.2212 106.398L79.8298 92.1396L75.0259 96.5682Z" fill="#263238"/>
<path d="M95.5674 83.5883L89.4095 89.4528C89.2147 89.6504 89.1055 89.9166 89.1055 90.194C89.1055 90.4713 89.2147 90.7376 89.4095 90.9352L94.6492 96.494C94.7469 96.5943 94.8637 96.674 94.9927 96.7284C95.1217 96.7828 95.2604 96.8109 95.4004 96.8109C95.5405 96.8109 95.6791 96.7828 95.8081 96.7284C95.9372 96.674 96.054 96.5943 96.1516 96.494L102.384 90.3515C102.483 90.2533 102.562 90.1364 102.615 90.0076C102.669 89.8788 102.697 89.7406 102.697 89.601C102.697 89.4615 102.669 89.3233 102.615 89.1945C102.562 89.0657 102.483 88.9488 102.384 88.8506L97.0419 83.5883C96.8445 83.3964 96.58 83.2891 96.3046 83.2891C96.0293 83.2891 95.7647 83.3964 95.5674 83.5883Z" fill="#263238"/>
<path d="M89.9569 90.666C89.8085 90.8884 83.0664 97.42 83.0664 97.42L88.4174 102.886L95.2059 96.1507L89.9569 90.666Z" fill="#263238"/>
<path d="M91.0417 214.007H0V217.481H91.0417V214.007Z" fill="#263238"/>
<path d="M69.7027 182.878H48.9014V192.476H69.7027V182.878Z" fill="#455A64"/>
<path d="M51.1546 192.476C50.9163 190.907 50.8356 189.318 50.9135 187.733C50.8361 186.148 50.9169 184.559 51.1546 182.989C51.3978 184.558 51.4786 186.148 51.3957 187.733C51.4792 189.318 51.3984 190.908 51.1546 192.476Z" fill="#263238"/>
<path d="M54.6416 192.476C54.3978 190.908 54.317 189.318 54.4005 187.733C54.3175 186.148 54.3983 184.558 54.6416 182.989C54.8793 184.559 54.9601 186.148 54.8827 187.733C54.9606 189.318 54.8798 190.907 54.6416 192.476Z" fill="#263238"/>
<path d="M58.1196 192.476C57.8758 190.908 57.795 189.318 57.8785 187.733C57.7956 186.148 57.8764 184.558 58.1196 182.989C58.3573 184.559 58.4381 186.148 58.3608 187.733C58.4387 189.318 58.3579 190.907 58.1196 192.476Z" fill="#263238"/>
<path d="M61.597 192.476C61.3587 190.907 61.278 189.318 61.3558 187.733C61.2785 186.148 61.3593 184.559 61.597 182.989C61.8347 184.559 61.9154 186.148 61.8381 187.733C61.916 189.318 61.8352 190.907 61.597 192.476Z" fill="#263238"/>
<path d="M65.075 192.476C64.8367 190.907 64.756 189.318 64.8339 187.733C64.7565 186.148 64.8373 184.559 65.075 182.989C65.3183 184.558 65.3991 186.148 65.3161 187.733C65.3996 189.318 65.3188 190.908 65.075 192.476Z" fill="#263238"/>
<path d="M68.5525 192.476C68.3143 190.907 68.2335 189.318 68.3114 187.733C68.2341 186.148 68.3148 184.559 68.5525 182.989C68.7958 184.558 68.8766 186.148 68.7937 187.733C68.8771 189.318 68.7963 190.908 68.5525 192.476Z" fill="#263238"/>
<path d="M115.803 217.991L128.555 217.769L127.813 197.285C127.813 197.285 103.701 193.579 102.133 194.042L95.5767 217.324C95.5767 217.324 115.219 217.991 115.803 217.991Z" fill="#FFBE9D"/>
<path d="M97.1066 217.694C97.1066 217.694 97.2921 217.768 97.561 217.796C99.8239 218.037 110.248 217.407 110.248 217.407C110.73 216.063 109.821 212.015 108.523 211.783C107.224 211.551 96.1329 212.293 96.1329 212.293C96.1329 212.293 94.3801 212.524 93.9442 215.461C93.666 217.268 97.1066 217.694 97.1066 217.694Z" fill="#FFBE9D"/>
<path d="M93.5827 211.765C93.5827 211.811 93.7682 211.839 94.0371 211.876C96.2999 212.117 106.158 212.015 106.585 210.811C107.011 209.606 106.297 206.095 104.999 205.863C103.701 205.632 92.6089 206.373 92.6089 206.373C92.6089 206.373 90.8562 206.604 90.4203 209.532C90.1514 211.348 93.5827 211.765 93.5827 211.765Z" fill="#FFBE9D"/>
<path d="M91.8113 205.984C91.8113 205.984 91.9876 206.058 92.2658 206.086C94.5193 206.336 104.377 206.225 104.804 205.03C105.286 203.677 104.526 200.314 103.227 200.073C101.929 199.832 90.8283 200.583 90.8283 200.583C90.8283 200.583 89.0848 200.814 88.649 203.751C88.4078 205.567 91.8113 205.984 91.8113 205.984Z" fill="#FFBE9D"/>
<path d="M90.1887 200.23C90.3333 200.299 90.492 200.334 90.6524 200.332C92.9059 200.582 102.764 200.471 103.191 199.267C103.673 197.923 102.912 194.551 101.614 194.319C100.316 194.088 89.2149 194.829 89.2149 194.829C89.2149 194.829 87.4622 195.06 87.0356 197.997C86.7666 199.804 90.1887 200.23 90.1887 200.23Z" fill="#FFBE9D"/>
<path d="M105.648 211.728C105.648 211.894 103.478 212.098 100.844 212.172C98.2103 212.246 96.0773 212.172 96.0958 211.996C96.1144 211.82 98.2566 211.635 100.9 211.552C103.543 211.468 105.657 211.561 105.648 211.728Z" fill="#EB996E"/>
<path d="M105.722 205.881C105.722 206.048 102.671 206.289 98.8969 206.41C95.1224 206.53 92.062 206.484 92.0528 206.317C92.0435 206.15 95.1039 205.909 98.8783 205.789C102.653 205.668 105.722 205.752 105.722 205.881Z" fill="#EB996E"/>
<g opacity="0.78">
<path opacity="0.78" d="M105.231 200.017C105.231 200.184 102.18 200.425 98.4052 200.545C94.6307 200.666 91.5703 200.619 91.5611 200.453C91.5518 200.286 94.6122 200.045 98.3866 199.925C102.161 199.804 105.221 199.841 105.231 200.017Z" fill="#EB996E"/>
</g>
<path d="M121.052 196.368C121.052 196.368 102.439 188.103 101.28 189.289C100.121 190.475 98.3218 194.329 98.3218 194.329L121.052 196.368Z" fill="#FFBE9D"/>
</svg>
