<svg width="106" height="118" viewBox="0 0 106 118" fill="none" xmlns="http://www.w3.org/2000/svg">
<path d="M68.5487 10.7352C68.5843 9.16611 67.1628 7.98931 65.7059 7.41874C64.2489 6.84817 62.6498 6.63421 61.3705 5.77835C60.2333 4.99382 59.4516 3.81701 58.4921 2.81852C56.1467 0.429253 52.451 -0.569245 49.1817 0.322271C45.9479 1.21379 43.2472 3.95966 42.4299 7.20478C41.8613 9.41574 42.2522 12.019 43.9935 13.5167C46.019 15.2284 49.004 14.8362 51.5981 14.3012C54.1922 13.7663 57.1062 13.2314 59.2739 14.7648C60.5887 15.692 61.3349 17.1898 62.1167 18.5449C62.8985 19.9356 63.8935 21.3264 65.4216 21.8613C66.9141 22.3962 68.9752 21.469 69.0107 19.9" fill="#263238"/>
<path d="M68.4419 11.5911C68.2642 12.9106 69.2237 14.0517 70.1476 14.9789C71.0715 15.9061 72.1376 16.8689 72.3153 18.1884C72.493 19.7218 71.3914 21.2195 71.7112 22.7173C71.9244 23.6801 72.6351 24.3933 73.0971 25.2492C73.7367 26.4616 73.7723 27.9237 73.3814 29.2432C72.9905 30.5626 72.3864 33.4868 71.4624 34.4853C68.9394 37.3025 64.9594 39.7274 61.2636 40.5832C57.6034 41.4391 53.7656 41.4391 50.0343 41.1895C46.9427 41.0112 43.4246 41.1538 40.8661 36.8745C39.5512 34.6636 38.8761 31.7394 38.1653 29.2788C37.5612 27.1392 37.0282 24.8569 37.6678 22.7529C38.0232 21.5048 38.7695 20.3993 39.1248 19.1869C39.5868 17.6534 39.4091 15.9774 39.5868 14.3727C39.9777 10.9136 42.1098 7.66847 45.1659 5.99242C48.222 4.2807 52.0599 4.17372 55.2225 5.67147" fill="#263238"/>
<path d="M41.0796 16.938C41.3638 12.5161 44.3133 7.06002 48.7198 7.55927L62.4721 11.0897C63.8225 11.2323 64.8175 12.3735 64.782 13.7286L63.2539 46.9999C63.2895 46.9999 63.325 46.9999 63.3605 47.0356C63.3605 47.0356 60.2334 56.4144 51.1362 53.5615C49.3239 52.9909 48.5065 51.0296 48.1512 48.9969H48.0446C48.0446 48.7473 48.0446 48.5334 48.0446 48.2837C47.7603 45.9301 47.9735 43.7192 47.9735 43.7192C47.938 41.0446 47.938 39.9391 47.938 39.9748C47.938 39.9748 42.2878 39.012 41.1506 31.6302C40.5465 27.8858 40.7597 21.8592 41.0796 16.938Z" fill="#FFBE9D"/>
<path d="M43.2833 21.3952C43.2478 21.8945 43.6742 22.3224 44.2073 22.3581C44.7403 22.3937 45.1667 22.0014 45.1667 21.5022C45.2023 21.0029 44.7758 20.575 44.2428 20.5394C43.7453 20.5037 43.3189 20.896 43.2833 21.3952Z" fill="#263238"/>
<path d="M42.3591 20.0751C42.4657 20.1821 43.1764 19.6829 44.2069 19.6829C45.2375 19.6829 45.9837 20.1821 46.0903 20.0751C46.1614 20.0038 46.0193 19.7899 45.6994 19.5759C45.3796 19.3263 44.8466 19.1123 44.2069 19.1123C43.5673 19.1123 43.0343 19.3619 42.75 19.5759C42.4301 19.7899 42.3235 20.0038 42.3591 20.0751Z" fill="#263238"/>
<path d="M53.2687 21.3942C53.2331 21.8935 53.6596 22.3214 54.1926 22.3571C54.7256 22.3927 55.1521 22.0005 55.1521 21.5012C55.1876 21.002 54.7612 20.574 54.2281 20.5384C53.7306 20.5027 53.3042 20.895 53.2687 21.3942Z" fill="#263238"/>
<path d="M52.3802 20.289C52.4868 20.396 53.1975 19.8967 54.228 19.8967C55.2586 19.8967 56.0048 20.396 56.1114 20.289C56.1825 20.2177 56.0404 20.0037 55.7205 19.7898C55.4007 19.5401 54.8677 19.3262 54.228 19.3262C53.5884 19.3262 53.0553 19.5758 52.7711 19.7898C52.4157 20.0037 52.3091 20.2177 52.3802 20.289Z" fill="#263238"/>
<path d="M48.6488 27.85C48.6488 27.7786 48.0092 27.6717 47.0142 27.5647C46.7654 27.529 46.5167 27.4934 46.4811 27.315C46.4101 27.1367 46.5167 26.8515 46.6588 26.5305C46.9076 25.8886 47.1563 25.2467 47.4406 24.5335C48.5067 21.7163 49.2885 19.3984 49.1818 19.3627C49.0752 19.3271 48.1158 21.5737 47.0497 24.3909C46.8009 25.1041 46.5522 25.746 46.3034 26.3879C46.1968 26.6732 46.0192 27.0298 46.1613 27.422C46.2324 27.6003 46.4101 27.743 46.5877 27.8143C46.7654 27.85 46.9076 27.8856 47.0142 27.8856C48.0092 27.8856 48.6488 27.8856 48.6488 27.85Z" fill="#263238"/>
<path d="M47.9385 39.9021C47.9385 39.9021 52.878 40.223 57.8174 37.2988C57.8174 37.2988 55.3299 42.3983 47.974 41.6851L47.9385 39.9021Z" fill="#EB996E"/>
<path d="M49.075 30.3106C49.4303 29.8114 50.07 29.5618 50.7096 29.6331C51.136 29.6687 51.598 29.8827 51.8467 30.275C52.131 30.6316 52.1666 31.1308 51.9178 31.4874C51.6335 31.8797 51.065 31.951 50.5675 31.8084C50.07 31.6657 49.6791 31.3448 49.2526 31.0238C49.146 30.9525 49.0394 30.8455 48.9683 30.7386C48.8973 30.6316 48.8973 30.4533 48.9683 30.3463" fill="#EB996E"/>
<path d="M51.6342 28.5625C51.4565 28.5625 51.4565 29.668 50.5325 30.4525C49.5731 31.237 48.4004 31.0944 48.4004 31.2727C48.4004 31.344 48.6491 31.4867 49.1466 31.4867C49.6441 31.5223 50.3549 31.344 50.9234 30.8804C51.492 30.4169 51.7408 29.775 51.7763 29.3114C51.8474 28.8121 51.7408 28.5625 51.6342 28.5625Z" fill="#263238"/>
<path d="M51.9179 18.5075C52.0245 18.7928 53.0195 18.6502 54.2277 18.7928C55.4359 18.8998 56.3954 19.2564 56.5375 19.0068C56.6086 18.8998 56.4309 18.6145 56.04 18.3649C55.6491 18.0796 55.045 17.83 54.3343 17.7587C53.6236 17.6873 52.9484 17.7943 52.522 17.9726C52.0956 18.1509 51.8823 18.3649 51.9179 18.5075Z" fill="#263238"/>
<path d="M42.7501 17.1162C42.9278 17.3658 43.6385 17.1162 44.4558 17.1162C45.3087 17.0805 46.0194 17.2588 46.1616 17.0449C46.2326 16.9379 46.126 16.6883 45.8062 16.4743C45.4864 16.2603 44.9889 16.082 44.4203 16.082C43.8517 16.082 43.3542 16.296 43.0344 16.5456C42.7857 16.7596 42.6791 17.0092 42.7501 17.1162Z" fill="#263238"/>
<path d="M67.5891 35.3746C65.5636 35.7669 63.3603 35.1607 61.8323 33.7343C60.3043 32.3078 59.5225 30.1682 59.8068 28.0999C60.02 26.2812 61.015 24.4268 60.3753 22.7151C59.558 20.4328 56.3598 19.7553 55.5425 17.473C55.045 16.1536 55.5069 14.6201 54.9384 13.3364C54.4053 12.1239 53.1616 11.4107 51.9178 10.9828C50.6741 10.5192 49.3592 10.2339 48.2931 9.41369C47.2626 8.59349 46.5874 7.06009 47.2626 5.91895C52.7707 6.5965 58.1721 7.91594 63.3603 9.84162C64.5686 10.3052 65.8123 10.8401 66.523 11.9099C67.2693 13.0511 67.2338 14.5132 67.1627 15.8683C66.8429 22.5011 66.5586 29.134 66.2387 35.7669" fill="#263238"/>
<path d="M67.1269 37.9073C67.1269 37.9073 67.1624 37.8716 67.2335 37.836C67.3401 37.7647 67.4467 37.6933 67.5533 37.5864C67.8376 37.3724 68.264 37.0158 68.7615 36.5879C69.2591 36.1243 69.8987 35.5537 70.5028 34.7692C71.1069 33.9846 71.6755 32.9861 71.8887 31.738C72.1019 30.5255 71.9598 28.9921 70.9292 27.851C70.4317 27.2804 69.7921 26.8525 69.2235 26.3889C68.6194 25.9253 68.1574 25.3191 67.8732 24.5702C67.3401 23.0725 67.5889 21.3251 67.3757 19.5421C67.1269 17.759 66.5228 15.9403 65.279 14.4426C64.6749 13.6937 63.9287 13.0875 63.1114 12.6596C62.2585 12.2316 61.3701 12.0177 60.5172 11.8037C59.6644 11.5541 58.8826 11.2331 58.2429 10.6982C57.6033 10.1633 57.0703 9.52142 56.6083 8.87953C55.6844 7.56009 55.0092 6.16932 54.1208 4.99252C53.6944 4.42195 53.1968 3.88704 52.6638 3.45912C52.1308 3.03119 51.5267 2.71024 50.9581 2.53194C49.7854 2.13967 48.5061 2.24665 47.6888 2.85288C46.8715 3.45912 46.5872 4.38629 46.5161 5.06384C46.4806 5.77706 46.7293 6.31197 46.9425 6.59725C47.0492 6.73989 47.1558 6.84688 47.2268 6.88254C47.2979 6.95386 47.3334 6.95386 47.3334 6.95386C47.3334 6.95386 47.2979 6.9182 47.2268 6.84688C47.1558 6.77556 47.0492 6.70423 46.9425 6.56159C46.7293 6.27631 46.5161 5.77706 46.5872 5.09951C46.6583 4.45761 46.9425 3.60176 47.7243 3.03119C48.5061 2.49628 49.6788 2.35364 50.8159 2.78156C51.3845 2.95987 51.9531 3.28081 52.4506 3.70874C52.9481 4.13667 53.4101 4.63592 53.8365 5.20649C54.6894 6.34763 55.3645 7.77405 56.2885 9.12916C56.7504 9.80671 57.319 10.4486 57.9942 11.0192C58.6694 11.5897 59.4867 11.9464 60.3751 12.196C61.2279 12.4456 62.1163 12.6239 62.8981 13.0518C63.6799 13.4441 64.3906 14.0503 64.9947 14.7635C66.1674 16.19 66.7715 17.973 67.0203 19.6847C67.2335 21.3964 66.9848 23.1795 67.5533 24.7842C67.8376 25.5687 68.3707 26.2463 68.9748 26.7455C69.5789 27.2448 70.2185 27.637 70.6805 28.1719C71.64 29.2418 71.8176 30.6682 71.6044 31.845C71.4267 33.0575 70.8937 34.056 70.3251 34.8048C69.7566 35.5894 69.1524 36.1956 68.6549 36.6592C68.1574 37.1228 67.7665 37.4794 67.4823 37.729C67.269 37.8003 67.1269 37.9073 67.1269 37.9073Z" fill="#455A64"/>
<path d="M68.4778 38.8365C70.0058 37.3745 72.5644 38.6582 73.8437 40.3343C75.123 42.0103 76.0114 44.1856 77.9303 45.0415C79.8492 45.8973 82.3723 45.1485 83.9714 46.5036C86.2102 48.3579 84.9664 52.6729 87.3473 54.2776C88.3068 54.9195 89.5861 54.8838 90.5811 55.4187C92.9975 56.6669 92.962 60.0903 92.6066 62.7648C92.0736 66.5449 91.505 70.4675 89.4439 73.677C87.3473 76.8865 83.2962 79.1331 79.7071 77.885C76.2246 76.7082 74.4478 72.9281 73.0619 69.5404C71.1074 64.8332 69.153 60.1616 67.1985 55.4544C66.0613 52.7442 64.9242 49.9983 64.5688 47.0741C64.2135 44.15 64.711 41.0118 66.5588 38.7296" fill="#263238"/>
<path d="M69.4373 35.5905C70.5389 35.4478 71.3918 36.8029 71.072 37.8728C70.7877 38.9426 69.7572 39.6558 68.7266 40.0124C68.158 40.2264 67.5184 40.3333 66.9143 40.2264C66.3102 40.1194 65.7416 39.6914 65.5284 39.1209C65.3152 38.5146 65.4929 38.0867 66.0259 37.7301C66.7366 37.2665 67.163 36.9099 67.7316 36.589C68.62 36.161 68.5845 36.0897 69.4373 35.5905Z" fill="#963EEE"/>
<mask id="mask0" mask-type="alpha" maskUnits="userSpaceOnUse" x="4" y="15" width="102" height="103">
<ellipse cx="55.3327" cy="66.1414" rx="50.6667" ry="50.952" fill="#2E2E2E"/>
</mask>
<g mask="url(#mask0)">
<path d="M44.1348 47.501L48.3991 44.2558L64.4968 43.2217L65.1364 45.397L59.9127 78.1691L64.0348 117.289H41.5762L44.1348 47.501Z" fill="#963EEE"/>
<g opacity="0.3">
<g opacity="0.3">
<path opacity="0.3" d="M61.3694 103.416C60.8719 102.882 60.019 102.097 59.2728 102.097C53.9068 101.99 48.3988 101.455 43.0329 101.312L42.6064 117.288C43.8857 115.006 45.094 112.653 45.4493 110.049C45.5915 108.908 45.8047 107.553 46.8352 107.09C47.4038 106.804 48.1145 106.911 48.7186 107.054C50.6731 107.446 52.592 107.945 54.582 108.052C56.572 108.159 58.6331 107.874 60.3033 106.804C60.8719 106.448 61.4049 105.948 61.6537 105.342C61.8669 104.7 61.8313 103.916 61.3694 103.416Z" fill="black"/>
</g>
</g>
<path d="M47.6178 48.1424L47.1203 43.4709C47.0492 42.6507 47.6533 41.9018 48.4706 41.8305L63.2891 40.4754C63.68 40.4397 64.0353 40.7607 64.0353 41.1529L64.213 46.716L59.9132 54.0264L55.5067 55.4528H50.1053L47.0137 52.1364L47.6178 48.1424Z" fill="#963EEE"/>
<path d="M62.0101 44.9688C62.0101 44.9688 61.7969 44.9331 61.406 44.8975C61.0151 44.8618 60.482 44.8262 59.8068 44.8618C59.1317 44.8975 58.3143 45.0045 57.4259 45.2184C56.5376 45.3967 55.5781 45.682 54.5475 45.9316C53.517 46.1813 52.5575 46.3952 51.6336 46.4665C50.7097 46.5379 49.8923 46.4665 49.2172 46.2882C48.542 46.1099 48.0445 45.8603 47.7247 45.6464C47.547 45.5394 47.4404 45.4681 47.3693 45.3967C47.2982 45.3254 47.2627 45.2897 47.2627 45.2897C47.2627 45.2897 47.4404 45.3967 47.7602 45.6107C48.08 45.789 48.6131 46.0386 49.2527 46.1813C49.9279 46.3239 50.7452 46.3952 51.6336 46.2882C52.522 46.2169 53.517 46.003 54.512 45.7533C55.5425 45.5037 56.502 45.2541 57.3904 45.0758C58.2788 44.8975 59.0961 44.7905 59.8068 44.7548C60.482 44.7192 61.0506 44.7905 61.4415 44.8262C61.6192 44.8618 61.7613 44.8975 61.8679 44.8975C61.9745 44.9331 62.0101 44.9331 62.0101 44.9688Z" fill="#263238"/>
<g opacity="0.3">
<g opacity="0.3">
<path opacity="0.3" d="M47.9726 45.6815C47.5817 46.787 47.5817 48.1421 48.3635 48.9623C49.0031 49.6398 50.0692 49.8181 50.9931 49.6398C51.9171 49.4615 52.7699 48.9623 53.5872 48.463C55.6128 47.2506 57.7094 45.9668 60.0192 45.4675C60.1614 45.4319 60.3391 45.3962 60.4457 45.2892C60.5523 45.1823 60.5878 44.9683 60.4457 44.897C60.3746 44.8613 60.3035 44.8613 60.268 44.8256C58.2069 44.6117 56.1814 45.2179 54.1558 45.6458C52.1303 46.1094 49.9981 46.4304 48.0437 45.7172" fill="black"/>
</g>
</g>
<path d="M50.7804 41.6873C50.7804 41.723 50.4961 41.7943 50.2829 42.1866C50.0341 42.5789 50.0697 43.2208 50.0697 43.8983C50.1052 45.2891 50.3184 46.3946 50.2829 46.3946C50.2473 46.3946 50.1763 46.1449 50.0697 45.6813C49.963 45.2177 49.892 44.6115 49.8564 43.8983C49.8564 43.5417 49.8564 43.2208 49.892 42.8998C49.9275 42.5789 49.9986 42.2936 50.1407 42.1153C50.2829 41.9013 50.425 41.7943 50.5672 41.7587C50.7093 41.6517 50.7804 41.6517 50.7804 41.6873Z" fill="#263238"/>
<path d="M54.7249 45.753C54.6539 45.753 54.796 44.7189 54.6183 43.4707C54.4406 42.2226 54.0497 41.2954 54.0853 41.2598C54.1208 41.2598 54.2274 41.4737 54.4051 41.866C54.5472 42.2583 54.7249 42.8288 54.796 43.4351C54.9026 44.077 54.8671 44.6475 54.8315 45.0755C54.796 45.5034 54.7249 45.753 54.7249 45.753Z" fill="#263238"/>
<path d="M59.4867 40.8682C59.5222 40.8682 59.6288 41.0465 59.771 41.4031C59.9131 41.7597 60.0197 42.2946 59.9487 42.9008C59.9131 43.5071 59.7355 44.0063 59.5578 44.3629C59.3801 44.7195 59.238 44.8978 59.2024 44.8622C59.1314 44.8265 59.6999 44.042 59.771 42.9008C59.8776 41.7597 59.4156 40.9038 59.4867 40.8682Z" fill="#263238"/>
<path d="M38.6984 49.6055C38.6984 49.6055 33.6523 52.9932 32.3019 59.1269C31.2714 63.941 28.4285 89.4384 28.4285 89.4384L23.418 99.2094L26.6873 107.019C29.4946 107.233 32.2664 106.413 34.5407 104.772L36.7439 103.168L40.7595 97.1768L38.6984 49.6055Z" fill="#EBEBEB"/>
<path d="M47.2629 45.1113L38.6988 49.6046L36.6733 56.2731L34.8965 75.6012L38.2724 98.2457L32.3379 117.217L42.5722 117.324L42.821 106.198L43.8515 70.1808L44.8465 47.2153L47.2629 45.1113Z" fill="#EBEBEB"/>
<path d="M43.105 75.1377C43.105 75.1377 43.0339 75.0307 42.9629 74.8524C42.8562 74.6741 42.7141 74.3888 42.5364 74.0679C42.3587 73.7113 42.1811 73.2833 41.9678 72.7841C41.8612 72.5345 41.7902 72.2492 41.6836 71.9639C41.577 71.6786 41.4703 71.3577 41.3637 71.0011C40.5464 68.3265 40.0134 64.4752 40.12 60.2316C40.12 59.9106 40.1555 59.5897 40.1555 59.2687V59.1974L40.1911 59.1617C40.6886 58.9478 41.1861 58.7338 41.6836 58.5198L41.648 58.6625C41.1505 58.2346 40.6175 57.8423 40.1555 57.45L40.12 57.4144V57.3787C40.0489 55.774 40.4398 54.3475 40.7952 53.0638C41.1861 51.8156 41.577 50.7102 41.9323 49.8186C42.2877 48.9271 42.6075 48.2496 42.8207 47.7503C42.9273 47.5007 43.0339 47.3224 43.0695 47.2154C43.1405 47.1084 43.1761 47.0371 43.1761 47.0371C43.1761 47.0371 43.1405 47.1084 43.105 47.2154C43.0339 47.3581 42.9629 47.5364 42.8562 47.7503C42.643 48.2139 42.3587 48.9271 42.0034 49.8186C41.648 50.7102 41.2571 51.8156 40.9018 53.0638C40.5464 54.3119 40.1911 55.7383 40.2621 57.3074L40.2266 57.2361C40.7241 57.6283 41.2216 58.0206 41.7191 58.4485L41.8257 58.5555L41.6836 58.6268C41.1861 58.8408 40.6886 59.0547 40.1911 59.2687L40.2621 59.1974C40.2266 59.5183 40.2266 59.8393 40.2266 60.1602C40.12 64.4038 40.6175 68.2195 41.3993 70.8941C41.4703 71.215 41.577 71.536 41.6836 71.8213C41.7902 72.1065 41.8612 72.3918 41.9678 72.6415C42.1811 73.1407 42.3587 73.6043 42.5009 73.9609C42.6786 74.2818 42.7852 74.5671 42.8918 74.7454C43.0695 75.0307 43.1405 75.1377 43.105 75.1377Z" fill="#263238"/>
<path d="M36.3887 88.6535C36.3887 88.6535 36.3532 88.5465 36.3176 88.3682C36.2821 88.1542 36.211 87.9046 36.1044 87.548C36.0334 87.1914 35.9268 86.7634 35.8201 86.2642C35.7135 85.7649 35.6069 85.1944 35.5003 84.5525C35.3937 83.9106 35.2516 83.1974 35.1805 82.4485C35.0739 81.6996 35.0028 80.8794 34.8962 80.0236C34.7541 78.3119 34.6475 76.4219 34.6475 74.4605C34.6475 72.4635 34.7541 70.5735 34.9317 68.8975C35.0384 68.0416 35.1094 67.2214 35.216 66.4725C35.3226 65.7237 35.4292 65.0104 35.5359 64.3686C35.6425 63.7267 35.7846 63.1561 35.8912 62.6568C35.9978 62.1576 36.1044 61.7297 36.1755 61.3731C36.2466 61.0521 36.3176 60.7668 36.3887 60.5529C36.4243 60.3746 36.4598 60.2676 36.4598 60.2676C36.4598 60.2676 36.4598 60.3746 36.4243 60.5529C36.3887 60.7668 36.3176 61.0165 36.2466 61.3731C36.1755 61.7297 36.0689 62.1576 35.9978 62.6568C35.8912 63.1561 35.7846 63.7267 35.678 64.3686C35.5714 65.0104 35.4648 65.7237 35.3582 66.4725C35.2516 67.2214 35.1805 68.0416 35.0739 68.8975C34.9317 70.6092 34.8251 72.4992 34.8251 74.4605C34.8251 76.4219 34.9317 78.3119 35.0739 80.0236C35.145 80.8794 35.216 81.6996 35.3226 82.4485C35.4293 83.1974 35.5359 83.9106 35.6425 84.5525C35.7491 85.1944 35.8557 85.7649 35.9623 86.2642C36.0689 86.7634 36.14 87.1914 36.211 87.548C36.2821 87.9046 36.3532 88.1542 36.3887 88.3682C36.3887 88.5465 36.3887 88.6535 36.3887 88.6535Z" fill="#263238"/>
<path d="M38.698 106.056C38.7335 106.056 38.5914 106.412 38.2716 106.912C37.9873 107.411 37.5253 108.124 36.9568 108.837C36.3882 109.55 35.7841 110.121 35.3576 110.513C34.8957 110.906 34.6114 111.119 34.6114 111.084C34.5759 111.048 34.8601 110.834 35.2866 110.406C35.713 110.014 36.2816 109.408 36.8501 108.73C37.4187 108.053 37.8807 107.375 38.2005 106.876C38.5203 106.377 38.698 106.056 38.698 106.056Z" fill="#263238"/>
<path d="M78.0719 49.0691C81.7321 50.4955 84.4328 53.6337 85.3212 57.485C88.1286 69.8949 92.9259 86.3702 92.997 91.6836C93.1036 98.4591 90.1541 103.095 86.2807 103.951C83.2246 104.628 55.6133 103.095 55.6133 103.095L54.334 92.7534L76.7216 89.437L73.6655 72.2485L76.686 48.4629L78.0719 49.0691Z" fill="#EBEBEB"/>
<path d="M76.6505 48.4985L70.4672 45.9666L63.9642 42.1152L63.9286 43.2207C64.7104 44.5758 64.9947 46.2162 64.7104 47.7853L59.2734 76.2068L60.5172 96.9613L63.0402 117.288H82.656L73.6299 96.0341L76.7926 67.363L76.6505 48.4985Z" fill="#EBEBEB"/>
<path d="M82.4071 104.129C82.4071 104.129 82.3716 104.129 82.2649 104.164C82.1583 104.164 82.0517 104.2 81.874 104.2C81.5187 104.236 81.0212 104.236 80.346 104.236C79.0312 104.236 77.0767 104.2 74.6958 104.129C69.8985 103.95 63.1822 103.63 55.6486 103.202H55.5775V103.13C55.4354 101.882 55.2577 100.598 55.08 99.2789C54.7957 97.0323 54.547 94.8927 54.2627 92.7887V92.7174H54.3338C61.1566 91.7189 67.1267 90.863 71.4265 90.2211C73.5587 89.9358 75.2644 89.6862 76.4371 89.5079C77.0056 89.4366 77.4676 89.3653 77.7874 89.3296C77.9296 89.2939 78.0362 89.2939 78.1428 89.2939C78.2139 89.2939 78.2494 89.2939 78.2494 89.2939C78.2494 89.2939 78.2139 89.2939 78.1428 89.3296C78.0717 89.3296 77.9296 89.3653 77.7874 89.4009C77.4676 89.4366 77.0056 89.5079 76.4371 89.6149C75.2644 89.7932 73.5587 90.0428 71.4265 90.3994C67.1622 91.0413 61.1922 91.9328 54.3693 92.967L54.4404 92.86C54.6891 94.9283 54.9734 97.1036 55.2577 99.3502C55.4354 100.67 55.5775 101.953 55.7552 103.202L55.6841 103.13C63.2533 103.558 69.934 103.915 74.7313 104.129C77.1478 104.236 79.0667 104.271 80.3815 104.307C81.0567 104.307 81.5542 104.307 81.9096 104.271C82.0873 104.271 82.1939 104.271 82.3005 104.236C82.336 104.129 82.3715 104.129 82.4071 104.129Z" fill="#263238"/>
<path d="M73.4525 70.5732C73.4525 70.5732 73.4881 70.6446 73.4881 70.7515C73.5236 70.8942 73.5591 71.0725 73.5947 71.2865C73.7013 71.7857 73.8079 72.4633 73.95 73.3191C74.2343 75.0665 74.6607 77.4201 75.1227 80.0233C75.5491 82.6265 75.94 84.9801 76.2243 86.7275C76.3665 87.5834 76.4731 88.2609 76.5441 88.7602C76.5797 88.9741 76.6152 89.1524 76.6152 89.3307C76.6152 89.4734 76.6508 89.5091 76.6152 89.5091C76.6152 89.5091 76.5797 89.4377 76.5797 89.3307C76.5441 89.1881 76.5086 89.0098 76.4731 88.7958C76.3665 88.2966 76.2599 87.619 76.0822 86.7632C75.7624 85.0515 75.3715 82.6622 74.9095 80.059C74.4475 77.4557 74.0566 75.0665 73.8079 73.3548C73.6657 72.4989 73.5591 71.8214 73.4881 71.3221C73.4525 71.1081 73.417 70.9298 73.417 70.7515C73.4525 70.6089 73.4525 70.5732 73.4525 70.5732Z" fill="#263238"/>
<path d="M66.807 44.1475C66.807 44.1475 66.807 44.1831 66.8426 44.2188C66.8426 44.2901 66.8781 44.3258 66.9136 44.4327C66.9492 44.6111 67.0558 44.8963 67.1269 45.2529C67.269 45.9662 67.4822 47.0003 67.5888 48.3198C67.731 49.6392 67.7665 51.2083 67.6954 52.9913C67.6244 54.7743 67.4467 56.7357 67.1979 58.804V58.8753H67.1269C66.4872 58.9823 65.812 59.1249 65.1013 59.2676L65.1724 59.1249C65.279 59.4459 65.4211 59.7668 65.4922 60.1234C66.1674 62.5484 65.8476 64.9733 65.279 67.0059C64.6749 69.0743 63.751 70.7503 62.8981 72.1411C62.0452 73.5318 61.299 74.566 60.7659 75.3149C60.5172 75.6715 60.304 75.9568 60.1618 76.1351C60.0908 76.2064 60.0552 76.2777 59.9842 76.349C59.9486 76.3847 59.9131 76.4203 59.9131 76.4203C59.9131 76.4203 59.9131 76.3847 59.9486 76.349C59.9842 76.2777 60.0197 76.2064 60.0908 76.1351C60.2329 75.9211 60.4106 75.6358 60.6593 75.2792C61.1568 74.5303 61.9031 73.4605 62.7204 72.1054C63.5377 70.7146 64.4617 69.0386 65.0302 67.0059C65.5988 64.9733 65.8831 62.584 65.2435 60.2304C65.1369 59.8738 65.0302 59.5529 64.9236 59.2676L64.8881 59.1606L64.9947 59.1249C65.7054 58.9823 66.3806 58.8753 67.0203 58.7683L66.9492 58.8396C67.2335 56.7713 67.4111 54.81 67.4822 53.027C67.5533 51.2439 67.5178 49.6749 67.4111 48.3911C67.3045 47.0716 67.1269 46.0375 66.9847 45.3243C66.9136 44.9677 66.8426 44.6824 66.807 44.5041C66.807 44.4327 66.7715 44.3614 66.7715 44.2901C66.807 44.1475 66.807 44.1475 66.807 44.1475Z" fill="#263238"/>
<path d="M66.8071 73.2819V68.753C66.8071 68.753 66.8782 67.6475 65.9187 67.8615C64.9948 68.1111 65.1725 69.8585 65.1725 69.8585C65.1725 69.8585 64.9948 76.741 65.4212 76.6696C65.8476 76.5983 65.9898 76.0634 65.9898 76.0634V73.4245L66.8071 73.2819Z" fill="#963EEE"/>
<path d="M70.7157 73.5689C70.7157 73.6046 69.6496 73.6759 68.2993 73.6759C66.9489 73.6759 65.8828 73.6402 65.8828 73.5689C65.8828 73.4976 66.9489 73.4619 68.2993 73.4619C69.6141 73.4619 70.7157 73.4976 70.7157 73.5689Z" fill="#263238"/>
<path d="M79.6348 51.7441C79.6348 51.7441 79.4571 51.8155 79.1373 51.9224C78.8175 52.0294 78.3555 52.2077 77.7869 52.493C76.6853 53.0636 75.2639 54.0621 74.1623 55.5955C73.878 55.9878 73.6292 56.38 73.4516 56.7723C73.2739 57.1646 73.1317 57.5925 73.0251 57.9848C72.8119 58.7693 72.7053 59.5182 72.6698 60.1244C72.6342 60.7306 72.5987 61.2299 72.5987 61.5865C72.5987 61.9431 72.5987 62.1214 72.5987 62.1214C72.5987 62.1214 72.5632 61.9431 72.5276 61.5865C72.4921 61.2299 72.4921 60.7306 72.5276 60.0887C72.5632 59.4468 72.6342 58.7336 72.8474 57.9134C72.9541 57.5212 73.0962 57.0932 73.2739 56.6653C73.4871 56.2374 73.7003 55.8451 73.9846 55.4528C75.1217 53.8838 76.5787 52.8853 77.7159 52.3504C78.2844 52.0651 78.7464 51.9224 79.1018 51.8155C79.4571 51.7798 79.6348 51.7441 79.6348 51.7441Z" fill="#263238"/>
</g>
<path d="M0 89.4375L32.3376 101.455L59.5581 105.627L27.1849 89.7584L0 89.4375Z" fill="#263238"/>
<path d="M13.8236 102.381C13.5749 100.67 12.9708 98.9935 12.1179 97.4601C11.9402 97.1748 11.7625 96.8539 11.6915 96.5329C11.6204 96.212 11.6559 95.8197 11.8691 95.5701C12.2956 95.1065 13.0418 95.3205 13.5393 95.6771C14.6054 96.3903 15.3161 97.5314 15.707 98.7439C16.1334 99.9563 16.2756 101.24 16.4177 102.488" fill="#FFBE9D"/>
<path d="M26.4394 99.2779H24.8403C24.5205 98.9569 24.023 98.636 23.4188 98.4577C23.0635 98.3507 22.6726 98.5646 22.3528 98.8856C23.0635 97.7088 23.8453 96.3893 23.9874 96.0327C24.2717 95.3195 23.6321 94.8203 22.6015 94.8203C21.571 94.8203 16.9869 101.311 16.9869 101.311C16.9869 101.311 19.8297 96.0684 20.114 95.2839C20.7892 93.2869 18.6215 93.1442 17.8397 94.1071C16.8447 95.3195 12.9002 101.311 12.9002 101.311C12.9002 101.311 12.154 102.523 12.6515 103.7C13.1845 104.877 14.677 104.413 14.677 104.413C14.677 104.413 14.677 105.411 15.7431 106.018C16.9158 106.66 18.4438 105.911 18.4438 105.911L24.3428 107.23C24.3428 107.23 25.2667 107.123 26.4749 107.016C29.4599 106.731 31.8764 104.413 32.3028 101.417L26.4394 99.2779Z" fill="#FFBE9D"/>
<path d="M22.4594 98.8145C22.5304 98.8501 21.7486 100.098 20.7181 101.596C20.2206 102.345 19.7231 103.022 19.3677 103.486C19.0124 103.95 18.7992 104.235 18.7636 104.235C18.7281 104.235 18.9413 103.914 19.2611 103.415C19.581 102.915 20.0429 102.238 20.5404 101.489C21.0379 100.74 21.5354 100.063 21.8552 99.599C21.9974 99.385 22.1395 99.2067 22.2817 99.0284C22.3883 98.8501 22.4238 98.8145 22.4594 98.8145Z" fill="#EB996E"/>
<path d="M22.1044 105.411C22.0689 105.411 22.2821 105.019 22.6375 104.448C22.9928 103.878 23.4903 103.058 24.0234 102.202C24.3077 101.774 24.5564 101.346 24.7696 100.954C24.9828 100.597 24.9828 100.169 24.9118 99.8481C24.7341 99.2062 24.3787 98.9209 24.4143 98.9209C24.4143 98.9209 24.5209 98.9566 24.6275 99.0992C24.7696 99.2418 24.9118 99.4915 25.0184 99.8124C25.125 100.133 25.1605 100.597 24.9118 101.025C24.6985 101.417 24.4498 101.845 24.1655 102.309C23.6325 103.2 23.0994 103.985 22.7085 104.555C22.3532 105.09 22.1044 105.447 22.1044 105.411Z" fill="#EB996E"/>
<path d="M25.1955 106.018C25.1599 106.018 25.2665 105.662 25.5153 105.091C25.6574 104.806 25.7996 104.485 25.9417 104.128C26.0839 103.772 26.2615 103.379 26.3682 102.916C26.4748 102.488 26.4037 102.06 26.1905 101.739C26.0839 101.596 25.9062 101.525 25.764 101.454C25.6219 101.382 25.4442 101.347 25.3376 101.347C25.0889 101.347 24.8401 101.489 24.698 101.561C24.5558 101.632 24.4492 101.668 24.4492 101.668C24.4492 101.668 24.5203 101.596 24.6624 101.489C24.7335 101.454 24.8046 101.382 24.9112 101.347C25.0178 101.311 25.1599 101.24 25.3021 101.204C25.4798 101.204 25.6219 101.24 25.7996 101.311C25.9773 101.382 26.1549 101.489 26.2971 101.632C26.5814 101.989 26.6524 102.488 26.5458 102.951C26.4392 103.415 26.2615 103.807 26.0839 104.164C25.9062 104.521 25.764 104.841 25.6219 105.127C25.3731 105.662 25.231 106.018 25.1955 106.018Z" fill="#EB996E"/>
<path d="M26.2974 100.383C26.2974 100.383 26.404 100.383 26.5461 100.454C26.6883 100.525 26.937 100.632 27.1502 100.811C27.6477 101.167 28.2163 101.845 28.4295 102.772C28.6427 103.699 28.394 104.555 28.1097 105.09C27.9676 105.375 27.8254 105.554 27.7188 105.696C27.6122 105.839 27.5411 105.875 27.5411 105.875C27.5056 105.839 27.7899 105.589 28.0386 105.054C28.2874 104.519 28.5006 103.699 28.2874 102.808C28.0742 101.916 27.5767 101.274 27.1147 100.882C26.6172 100.561 26.2618 100.418 26.2974 100.383Z" fill="#EB996E"/>
<path d="M15.8844 96.9961C15.9199 97.0318 15.3158 97.9946 14.534 99.1358C13.7522 100.277 13.0771 101.204 13.0415 101.168C13.006 101.133 13.6101 100.17 14.3919 99.0288C15.1737 97.8876 15.8489 96.9605 15.8844 96.9961Z" fill="#EB996E"/>
<path d="M54.228 93.1815L50.5323 92.3256L46.9787 88.9735C46.5523 88.5813 45.9837 88.3316 45.3796 88.296L38.9121 87.9394C38.2724 87.9037 37.6328 88.1177 37.1353 88.5456L32.5156 92.4683L52.6644 102.311L55.4362 102.56L54.228 93.1815Z" fill="#FFBE9D"/>
<path d="M43.2829 91.4342C43.2829 91.4699 42.821 91.3629 42.0392 91.2916C41.2929 91.2203 40.1913 91.1133 39.1253 91.6125C38.5922 91.8622 38.1302 92.1831 37.7394 92.504C37.3485 92.825 36.9576 93.1103 36.6377 93.3242C36.3179 93.5382 36.0336 93.6808 35.856 93.7878C35.6427 93.8948 35.5361 93.9305 35.5361 93.8948C35.5361 93.8591 35.9626 93.6808 36.5667 93.2173C36.8865 93.0033 37.2419 92.6823 37.6327 92.3614C38.0236 92.0405 38.4856 91.7195 39.0542 91.4699C39.5872 91.2203 40.1913 91.1133 40.6888 91.1133C41.2219 91.1133 41.6838 91.1489 42.0747 91.2203C42.4656 91.2916 42.7499 91.3629 42.9631 91.3986C43.1763 91.3986 43.2829 91.4342 43.2829 91.4342Z" fill="#EB996E"/>
<path d="M44.5974 95.036C44.5974 95.0716 44.3487 94.9647 43.8867 94.8933C43.4603 94.8577 42.8562 94.8933 42.2165 95.143C41.5769 95.3569 41.0794 95.7135 40.6885 95.9275C40.2976 96.1771 40.0844 96.2841 40.0488 96.2841C40.0488 96.2484 40.2265 96.0701 40.6174 95.8205C40.9728 95.5709 41.5058 95.2143 42.1454 94.9647C42.7851 94.715 43.4603 94.6794 43.8867 94.7864C44.3842 94.8577 44.5974 95.036 44.5974 95.036Z" fill="#EB996E"/>
<path d="M52.9128 95.6425C52.8773 95.6782 52.3443 94.8936 51.6691 93.9665C50.9939 93.0393 50.3898 92.3261 50.4253 92.2904C50.4609 92.2547 51.136 92.9323 51.8112 93.8595C52.4864 94.7867 52.9484 95.6068 52.9128 95.6425Z" fill="#EB996E"/>
<path d="M42.7492 88.2965L50.9225 80.6295C51.2778 80.3085 51.2423 79.738 50.8514 79.417C50.5671 79.2031 50.1407 79.2031 49.8564 79.4527L40.2617 88.0826" fill="#963EEE"/>
<path opacity="0.3" d="M42.7492 88.2965L50.9225 80.6295C51.2778 80.3085 51.2423 79.738 50.8514 79.417C50.5671 79.2031 50.1407 79.2031 49.8564 79.4527L40.2617 88.0826" fill="#ED9C55"/>
</svg>
