<svg width="163" height="112" viewBox="0 0 163 112" fill="none" xmlns="http://www.w3.org/2000/svg">
<path d="M61.0664 47.1189L68.7766 45.6328L83.5816 49.0399L91.0746 50.5985L91.1832 60.8561L74.4597 63.937L63.1659 60.6024L58.8945 54.2956L61.0664 47.1189Z" fill="#FFBE9D"/>
<path d="M55.5644 48.1332L62.8402 46.4297C62.8402 46.4297 67.9803 62.3779 80.6859 61.6892C91.0385 61.1455 91.0385 50.598 91.0385 50.598L98.6039 51.9391C98.6039 51.9391 101.789 71.1857 98.3143 84.6692C95.4185 95.9054 92.8484 111.31 92.8484 111.31H42.6055L55.5644 48.1332Z" fill="#963EEE"/>
<path d="M129.336 97.4277C129.336 97.4277 108.594 61.0367 104.866 56.3973C100.775 51.2866 97.5177 51.8665 97.5177 51.8665L95.3096 76.3688L112.938 101.415L117.137 102.937L129.336 97.4277Z" fill="#963EEE"/>
<path d="M56.4331 47.916C56.4331 47.916 44.6325 48.8584 40.4335 68.2137C38.515 76.949 36.0898 87.2066 35.402 94.0934C34.8952 99.0953 37.9721 104.278 42.9674 104.931L49.2297 106.091C52.6685 106.743 55.9987 104.568 56.7951 101.161L58.8946 92.426L53.2839 90.5413L54.587 64.4804L56.4331 47.916Z" fill="#963EEE"/>
<path d="M99.6177 65.459C99.6177 65.459 99.6539 65.5677 99.6539 65.7127C99.6901 65.8939 99.7263 66.1839 99.7625 66.4739C99.7987 66.6551 99.7987 66.8363 99.8349 67.0538C99.8711 67.2713 99.8711 67.4888 99.9073 67.7425C99.9435 68.2137 100.016 68.7936 100.052 69.3735C100.124 70.6059 100.124 72.0557 100.088 73.6868C100.016 75.3179 99.8349 77.0939 99.5815 78.9425C99.3281 80.791 98.9661 82.5308 98.6403 84.1257C98.3145 85.7205 97.9525 87.1341 97.663 88.2939C97.3734 89.4901 97.12 90.4324 96.939 91.0849C96.8666 91.4111 96.7942 91.6648 96.7218 91.846C96.6856 92.0273 96.6494 92.0998 96.6494 92.0998C96.6494 92.0998 96.6494 91.991 96.6856 91.846C96.7218 91.6648 96.7942 91.4111 96.8666 91.0849C97.0476 90.3962 97.2648 89.4538 97.5544 88.2577C97.844 87.0616 98.1697 85.648 98.4955 84.0532C98.8213 82.4583 99.1833 80.7185 99.4367 78.87C99.6901 77.0214 99.9073 75.2454 99.9797 73.6506C100.052 72.0557 100.052 70.5697 99.9797 69.3735C99.9797 68.7574 99.9073 68.2137 99.8711 67.7425C99.8349 67.4888 99.8349 67.2713 99.8349 67.0538C99.7987 66.8363 99.7987 66.6551 99.7625 66.4739C99.7263 66.1477 99.6901 65.8939 99.6901 65.6765C99.6177 65.5677 99.6177 65.459 99.6177 65.459Z" fill="#263238"/>
<path d="M59.4377 93.3694C59.4377 93.3694 59.4015 93.3332 59.3653 93.2244C59.3291 93.1157 59.2929 92.9345 59.2205 92.7532C59.1482 92.5358 59.0758 92.282 59.0034 91.9921C58.8948 91.7021 58.8586 91.3396 58.569 91.0497C58.3156 90.7597 57.9174 90.5422 57.483 90.3972C57.0487 90.216 56.5419 90.1073 55.9989 89.9985C54.913 89.7811 53.6822 89.6723 52.3791 89.6361H52.2705V89.5273C52.5963 87.4613 52.9583 85.0691 53.3203 82.5681C54.008 78.1824 54.6234 74.2315 55.094 71.3319C55.3111 69.9183 55.5283 68.7584 55.6369 67.9247C55.7093 67.526 55.7455 67.2361 55.7817 67.0186C55.8179 66.9099 55.8179 66.8374 55.8179 66.7649C55.8179 66.7286 55.8541 66.6924 55.8541 66.6924C55.8541 66.6924 55.8541 66.7286 55.8541 66.7649C55.8541 66.8374 55.8541 66.9099 55.8179 67.0186C55.7817 67.2361 55.7455 67.5623 55.7093 67.961C55.6007 68.7946 55.4197 69.9545 55.2026 71.3681C54.7682 74.2678 54.1528 78.2186 53.5012 82.6044C53.1031 85.1053 52.7411 87.4613 52.4153 89.5636L52.3429 89.4549C53.6822 89.4911 54.913 89.6361 55.9989 89.8536C56.5419 89.9623 57.0487 90.1073 57.483 90.2885C57.9174 90.4697 58.3156 90.6872 58.6052 91.0134C58.75 91.1584 58.8224 91.3396 58.8948 91.5209C58.931 91.7021 59.0034 91.8471 59.0396 91.9921C59.112 92.282 59.1843 92.5358 59.2567 92.7532C59.2929 92.9345 59.3653 93.1157 59.3653 93.2244C59.4377 93.3332 59.4377 93.3694 59.4377 93.3694Z" fill="#263238"/>
<path d="M43.2207 96.341C43.2207 96.341 43.2207 96.1597 43.3293 95.8698C43.4017 95.5436 43.5465 95.1086 43.7999 94.6012C44.2704 93.55 45.1754 92.2089 46.5871 91.1578C47.9989 90.1067 49.5916 89.6717 50.7137 89.563C51.2929 89.4905 51.7273 89.4905 52.053 89.5267C52.3788 89.563 52.5598 89.563 52.5598 89.5992C52.5598 89.6355 51.8721 89.563 50.7499 89.708C49.6278 89.853 48.1075 90.3241 46.7319 91.339C45.3564 92.3539 44.4152 93.6588 43.9447 94.6737C43.3655 95.6523 43.2569 96.341 43.2207 96.341Z" fill="#263238"/>
<path d="M45.9355 86.6993C45.9355 86.6993 46.0441 86.6631 46.2251 86.6631C46.4061 86.6631 46.6595 86.6631 46.9853 86.6993C47.6369 86.7718 48.5418 86.9531 49.483 87.3155C50.4241 87.7142 51.1843 88.2217 51.691 88.6204C51.9444 88.8379 52.1254 89.0191 52.2702 89.1278C52.415 89.2728 52.4512 89.3453 52.4512 89.3453C52.415 89.3816 52.1254 89.0916 51.6186 88.6929C51.1119 88.2942 50.3155 87.823 49.4106 87.4605C48.5056 87.098 47.6369 86.8806 46.9853 86.8081C46.3337 86.7356 45.9355 86.7356 45.9355 86.6993Z" fill="#263238"/>
<path d="M58.1343 61.6533C58.1343 61.6533 58.0981 61.4721 58.0981 61.1458C58.0981 60.8196 58.0619 60.3484 58.0257 59.7323C57.9533 58.5361 57.7362 56.9051 57.2294 55.1653C56.7226 53.4255 56.071 51.9031 55.5281 50.852C55.2385 50.3083 55.0213 49.9096 54.8403 49.6196C54.6593 49.3297 54.5869 49.1847 54.5869 49.1484C54.5869 49.1484 54.6955 49.2934 54.8765 49.5834C55.0575 49.8734 55.3109 50.2721 55.6005 50.7795C56.1796 51.8306 56.8674 53.3167 57.3742 55.0928C57.8809 56.8326 58.0619 58.4999 58.0981 59.696C58.1343 60.2759 58.1343 60.7834 58.0981 61.1096C58.1705 61.4721 58.1343 61.6533 58.1343 61.6533Z" fill="#263238"/>
<g opacity="0.3">
<path opacity="0.3" d="M99.0744 81.6977C102.079 76.587 102.151 69.954 99.5088 64.6621C100.305 70.3165 100.233 76.1158 98.9658 81.6615" fill="black"/>
</g>
<g opacity="0.3">
<path opacity="0.3" d="M72.3244 87.4603C70.0439 88.149 66.8947 88.2939 64.6504 87.4603C66.3879 89.925 69.7543 90.8312 72.6502 90.0337C75.546 89.2363 78.2609 86.3004 78.4781 83.292C77.0663 85.1768 74.6049 86.7716 72.3244 87.4603Z" fill="black"/>
</g>
<path d="M80.7224 79.2324C80.7224 79.2324 80.7224 79.3049 80.6862 79.4499C80.65 79.5949 80.5776 79.7761 80.5052 80.0298C80.3242 80.5373 79.9985 81.2259 79.5279 82.0234C79.0573 82.8208 78.3695 83.7269 77.4646 84.5968C76.5596 85.4667 75.4375 86.2641 74.1706 86.9166C72.8674 87.5327 71.5281 87.8952 70.2974 88.0402C69.0666 88.1852 67.9445 88.1852 67.0033 88.0402C66.0622 87.9314 65.3382 87.714 64.8315 87.569C64.5781 87.4965 64.3971 87.424 64.2523 87.3515C64.1075 87.3153 64.0713 87.279 64.0713 87.279C64.0713 87.279 64.3609 87.3515 64.8676 87.4965C65.3744 87.6415 66.0984 87.8227 67.0395 87.8952C68.8856 88.1127 71.5281 87.9314 74.0982 86.6991C76.6682 85.4667 78.4419 83.4732 79.4193 81.9146C79.9261 81.1172 80.2518 80.4648 80.4328 79.9573C80.5776 79.4861 80.6862 79.2324 80.7224 79.2324Z" fill="#263238"/>
<path d="M55.2749 104.605C55.2749 104.605 55.2387 104.641 55.1663 104.714C55.0939 104.786 55.0215 104.859 54.8767 104.968C54.6233 105.185 54.1889 105.439 53.646 105.62C53.0668 105.838 52.379 105.946 51.5827 105.983C50.7863 106.019 49.9176 105.983 49.0488 105.91C47.2389 105.765 45.6462 105.475 44.4516 105.294C43.8725 105.185 43.4019 105.113 43.0761 105.04C42.7503 104.968 42.5693 104.931 42.5693 104.931C42.5693 104.931 42.7503 104.931 43.0761 104.968C43.4381 105.004 43.9087 105.076 44.4516 105.185C45.61 105.366 47.2389 105.584 49.0126 105.765C49.9176 105.838 50.7501 105.91 51.5465 105.874C52.3066 105.838 53.0306 105.729 53.5736 105.548C54.7319 105.113 55.2387 104.569 55.2749 104.605Z" fill="#263238"/>
<path d="M96.1785 9.24281L97.6626 7.79297C99.6535 8.66287 100.558 10.9464 100.884 13.0849C101.21 15.2234 101.174 17.4706 102.079 19.4279C102.767 20.9502 104.033 22.3276 103.889 23.9949C103.744 25.5897 102.332 26.8583 102.296 28.4169C102.296 29.9392 103.563 31.0991 104.287 32.4402C105.771 35.1587 106.748 46.1774 105.952 49.1858C99.3639 48.6059 87.7443 47.9172 81.1562 46.3949C82.93 35.0862 90.242 19.0655 96.1785 9.24281Z" fill="#263238"/>
<path d="M86.8755 53.752C86.8755 53.752 86.8393 53.8607 86.8755 53.752V53.752Z" fill="#FFBE9D"/>
<path d="M99.1106 19.3547C99.5812 11.6343 93.9705 4.56636 86.1517 3.66021C77.8623 2.68157 70.5503 8.62591 69.8626 16.6725L67.9079 49.2576C67.8717 49.8738 68.0527 50.5262 68.4146 51.0337C70.3331 53.8246 73.772 56.0356 76.885 56.4343C79.8894 56.833 82.9301 56.0718 85.4639 54.6583C86.3327 54.1871 86.8395 53.2447 86.8757 52.266L87.0204 44.9806C87.0204 44.9443 87.0567 44.9443 87.0567 44.9443C87.491 44.9806 88.6494 44.9806 89.0837 44.8719C91.0022 44.4007 95.9252 42.5159 97.5903 35.3029C98.1333 32.9107 98.7124 26.1327 99.1106 19.3547Z" fill="#FFBE9D"/>
<path d="M88.3955 30.0109C88.3955 29.9384 89.1919 29.8659 90.495 29.7934C90.8208 29.7934 91.1465 29.7572 91.2189 29.5397C91.3275 29.3222 91.1827 28.9598 91.0742 28.5611C90.8208 27.7637 90.5312 26.93 90.2778 26.0239C89.1557 22.4355 88.3593 19.4996 88.5041 19.4271C88.6489 19.3909 89.6624 22.2543 90.7846 25.8426C91.038 26.7125 91.3275 27.5824 91.5447 28.3798C91.6533 28.7423 91.8343 29.1773 91.6171 29.6485C91.5085 29.8659 91.2551 30.0472 91.038 30.0834C90.8208 30.1197 90.6398 30.1197 90.4588 30.1197C89.1919 30.1197 88.3955 30.0834 88.3955 30.0109Z" fill="#263238"/>
<path d="M96.9752 22.0737C96.8304 22.2187 95.9617 21.4937 94.7672 21.4937C93.5364 21.4575 92.6315 22.1099 92.4867 21.9287C92.4143 21.8562 92.5591 21.5662 92.9573 21.2763C93.3554 20.9863 94.007 20.6963 94.7672 20.7326C95.5273 20.7688 96.1789 21.095 96.5409 21.4212C96.939 21.7112 97.0476 22.0012 96.9752 22.0737Z" fill="#263238"/>
<path d="M84.5594 22.3992C84.3784 22.5442 83.5096 21.7468 82.1703 21.638C80.831 21.4931 79.7812 22.1455 79.6726 21.9643C79.6002 21.8918 79.7812 21.6018 80.2518 21.3118C80.6862 21.0219 81.4463 20.7681 82.2789 20.8406C83.1115 20.9131 83.7992 21.3118 84.1612 21.6743C84.5232 22.0005 84.6318 22.3267 84.5594 22.3992Z" fill="#263238"/>
<path d="M87.0208 44.9443C87.0208 44.9443 82.0254 45.0168 76.0527 40.8848C76.0527 40.8848 77.6093 47.4815 86.9846 47.2641L87.0208 44.9443Z" fill="#EFA077"/>
<path d="M87.6725 33.02C87.2381 32.4038 86.4779 32.0051 85.6454 32.0413C85.0662 32.0776 84.487 32.2951 84.125 32.6938C83.763 33.1287 83.6545 33.7449 83.944 34.1799C84.2698 34.6873 84.9938 34.8323 85.6092 34.7235C86.2245 34.5786 86.8037 34.2523 87.3105 33.8899C87.4553 33.7811 87.6001 33.6724 87.7087 33.5274C87.8172 33.3824 87.8534 33.2012 87.7448 33.0562" fill="#EFA077"/>
<path d="M84.5591 30.6275C84.7763 30.6275 84.6677 32.0048 85.8261 33.056C86.9482 34.1071 88.4685 34.0709 88.4323 34.2521C88.4323 34.3246 88.0704 34.5058 87.455 34.4696C86.8396 34.4333 85.9347 34.1796 85.2469 33.5272C84.5591 32.8747 84.3057 32.0773 84.2695 31.4974C84.3057 30.9537 84.4505 30.5912 84.5591 30.6275Z" fill="#263238"/>
<path d="M84.7399 17.325C84.5951 17.6512 83.3282 17.3975 81.8079 17.47C80.2875 17.5062 79.0568 17.8324 78.8758 17.5062C78.8034 17.3612 79.0206 17.035 79.5636 16.745C80.0703 16.4551 80.8667 16.2013 81.7717 16.1651C82.6766 16.1289 83.5092 16.3463 84.0521 16.6001C84.5589 16.89 84.8123 17.18 84.7399 17.325Z" fill="#263238"/>
<path d="M97.2284 17.6154C96.975 17.9054 95.9253 17.6154 94.6945 17.6154C93.4638 17.5792 92.4141 17.8329 92.1607 17.5067C92.0521 17.3617 92.2331 17.0718 92.6674 16.7818C93.1018 16.4918 93.862 16.2743 94.7307 16.3106C95.5633 16.3468 96.3234 16.6006 96.7578 16.8905C97.1922 17.1805 97.3732 17.4705 97.2284 17.6154Z" fill="#263238"/>
<path d="M87.3102 2.02931C86.6224 0.869444 85.3917 0.362 83.9799 0.144525C78.2606 -0.725378 71.926 2.71799 68.7043 7.5387C65.5189 12.3232 65.3741 19.4999 67.6908 24.7555L71.2382 22.5445C78.3692 19.6086 83.437 12.7219 88.0341 5.58142C88.6495 4.60278 87.8893 3.00796 87.3102 2.02931Z" fill="#263238"/>
<path d="M96.0697 5.14686C93.6806 2.42841 91.9431 -0.290036 86.984 1.59475C86.26 2.9721 87.7079 4.7844 88.9387 5.83553C90.7486 7.39411 92.3051 8.40899 93.4996 9.53262C95.8887 11.7799 98.6036 19.2465 98.8207 23.3423C98.8207 23.5961 99.2913 19.8265 99.5447 19.7902C99.8705 19.754 101.21 18.0867 101.029 15.8394C100.413 8.19152 98.4588 7.8653 96.0697 5.14686Z" fill="#263238"/>
<path d="M83.9805 0.144829C83.9805 0.108583 84.4149 0.0723372 85.1026 0.253567C85.7542 0.434797 86.6591 0.905994 87.3469 1.73965C87.5279 1.95713 87.6727 2.1746 87.7813 2.39208C87.9261 2.60955 87.9623 2.86328 88.0347 3.08075C88.1795 3.5157 88.2881 3.91441 88.3243 4.24062C88.4329 4.92929 88.2519 5.36425 88.2157 5.36425C88.1433 5.36425 88.2157 4.9293 88.0709 4.27687C87.9985 3.95065 87.8537 3.58819 87.7089 3.15324C87.6365 2.93577 87.5641 2.71829 87.4555 2.53706C87.3469 2.31959 87.2021 2.13836 87.0211 1.95713C86.3696 1.19596 85.5732 0.724764 84.9578 0.471043C84.4148 0.217321 83.9805 0.181075 83.9805 0.144829Z" fill="#455A64"/>
<path d="M95.8525 24.4291C95.8887 25.009 95.4181 25.5164 94.8389 25.5527C94.2598 25.5889 93.753 25.154 93.7168 24.6103C93.6806 24.0303 94.1512 23.5229 94.7303 23.4867C95.3095 23.4504 95.8163 23.8491 95.8525 24.4291Z" fill="#263238"/>
<path d="M83.9443 24.5021C83.9805 25.0821 83.5099 25.5895 82.9307 25.6257C82.3516 25.662 81.8086 25.227 81.8086 24.6834C81.7724 24.1034 82.243 23.596 82.8221 23.5597C83.4013 23.5235 83.9081 23.9584 83.9443 24.5021Z" fill="#263238"/>
<path d="M51.1122 33.5995C51.8 32.4759 52.5602 31.461 53.7909 30.9898C55.0216 30.5186 56.4333 30.2649 57.3745 29.3588C58.8948 27.9814 58.8224 25.6617 58.6776 23.6319C58.5328 21.6021 58.4966 19.2824 60.0532 17.905C61.3563 16.7814 63.4196 16.6727 64.5417 15.3678C65.3019 14.4979 65.4467 13.3018 65.7001 12.2144C66.424 9.24225 68.0529 4.09533 76.7767 1.08691L69.0665 30.4461C69.6457 30.5911 71.0212 31.9322 71.0936 32.8021C71.166 33.6358 70.804 34.4694 70.804 35.3031C70.804 36.318 71.9261 36.9342 72.6139 37.6953C73.5188 38.6377 73.7722 40.0513 73.6274 41.3199C73.4826 42.5885 72.7225 45.2345 72.2519 46.4306C65.0847 45.7057 54.6596 45.4882 49.1937 40.9212C48.1802 40.0513 49.6281 36.0643 51.1122 33.5995Z" fill="#263238"/>
<path d="M71.2378 22.5449C71.0931 22.4724 65.8443 20.3702 65.5185 25.952C65.1928 31.4977 70.8035 30.7003 70.8397 30.519C70.8397 30.3741 71.2378 22.5449 71.2378 22.5449Z" fill="#FFBE9D"/>
<path d="M69.2834 28.308C69.2472 28.2717 69.1748 28.3805 69.03 28.4167C68.849 28.4892 68.5957 28.5255 68.3061 28.3805C67.7269 28.1268 67.2925 27.1844 67.3287 26.1695C67.3287 25.662 67.4735 25.1908 67.6907 24.7921C67.8717 24.3934 68.1613 24.1397 68.4509 24.1034C68.7404 24.0672 68.9576 24.2484 68.9938 24.3934C69.0662 24.5384 69.03 24.6471 69.03 24.6834C69.03 24.6834 69.1386 24.6109 69.1386 24.3572C69.1386 24.2484 69.0662 24.1034 68.9576 23.9947C68.849 23.886 68.6319 23.8135 68.4147 23.8135C67.9803 23.8135 67.5821 24.1759 67.3649 24.6109C67.1115 25.0458 66.9667 25.5533 66.9305 26.1332C66.8943 27.2568 67.4011 28.3442 68.1975 28.5979C68.5956 28.7067 68.9214 28.6342 69.1024 28.4892C69.2472 28.453 69.2834 28.308 69.2834 28.308Z" fill="#EFA077"/>
<path d="M90.9668 23.9937C91.003 23.9937 90.9668 23.5225 91.1478 22.7614C91.3288 22.0002 91.8355 20.8403 92.9577 19.9704C93.5369 19.5355 94.2246 19.173 95.0572 18.9918C95.8897 18.8468 96.7947 18.8468 97.6996 19.173C98.134 19.318 98.5684 19.5355 98.9666 19.8254C99.3647 20.1154 99.7267 20.4779 100.053 20.8766C100.668 21.674 101.066 22.7251 101.066 23.8488C101.066 24.9361 100.74 25.9873 100.125 26.8209C99.8353 27.2559 99.4733 27.6183 99.0752 27.9083C98.677 28.1983 98.2426 28.452 97.8082 28.6332C96.9395 28.9957 95.9983 29.0319 95.1658 28.8869C94.3332 28.742 93.6093 28.4157 93.0301 27.9808C91.8717 27.1109 91.3288 25.9873 91.1116 25.2261C90.9668 24.4649 91.003 23.9937 90.9668 23.9937C90.9668 23.9937 90.9668 24.03 90.9668 24.0662C90.9668 24.1387 90.9668 24.2112 90.9668 24.3199C90.9668 24.4287 90.9668 24.5737 91.003 24.7187C91.0392 24.8636 91.0392 25.0449 91.1116 25.2623C91.2926 26.0598 91.8355 27.2196 93.0301 28.0895C93.6093 28.5245 94.3694 28.8869 95.2382 29.0319C96.1069 29.1769 97.0481 29.1407 97.953 28.7782C98.4236 28.597 98.858 28.3795 99.2562 28.0533C99.6543 27.7633 100.053 27.3646 100.342 26.9297C100.957 26.0598 101.319 24.9724 101.319 23.8488C101.283 22.7251 100.921 21.6377 100.27 20.7678C99.9439 20.3329 99.5819 19.9704 99.1476 19.6805C98.7494 19.3905 98.2788 19.1368 97.8082 18.9918C96.8671 18.6656 95.9259 18.6656 95.0934 18.8106C94.2246 18.9918 93.5007 19.3905 92.9215 19.8254C91.7632 20.7678 91.2926 21.9277 91.1116 22.7251C91.0754 22.9064 91.0392 23.0876 91.0392 23.2688C91.003 23.4138 91.003 23.5588 91.003 23.6675C91.003 23.7763 91.003 23.8488 91.003 23.9212C90.9668 23.9575 90.9668 23.9937 90.9668 23.9937Z" fill="#455A64"/>
<path d="M76.9945 24.2115C77.0307 24.2115 76.9945 23.7403 77.1755 22.9791C77.3565 22.218 77.8632 21.0581 78.9854 20.1882C79.5645 19.7533 80.2523 19.3908 81.0849 19.2096C81.9174 19.0646 82.8224 19.0646 83.7273 19.3908C84.1617 19.5358 84.5961 19.7533 84.9943 20.0432C85.3924 20.3332 85.7544 20.6957 86.0802 21.0944C86.6956 21.8918 87.0937 22.9429 87.0937 24.0665C87.0937 25.1539 86.768 26.205 86.1526 27.0387C85.863 27.4736 85.501 27.8361 85.1028 28.1261C84.7047 28.416 84.2703 28.6698 83.8359 28.851C82.9672 29.2135 82.026 29.2497 81.1935 29.1047C80.3609 28.9597 79.6369 28.6335 79.0578 28.1986C77.8994 27.3287 77.3565 26.205 77.1393 25.4439C76.9945 24.6827 76.9945 24.2115 76.9945 24.2115C76.9945 24.2115 76.9945 24.2478 76.9945 24.284C76.9945 24.3565 76.9945 24.429 76.9945 24.5377C76.9945 24.6465 76.9945 24.7914 77.0307 24.9364C77.0669 25.0814 77.0669 25.2626 77.1393 25.4801C77.3203 26.2775 77.8632 27.4374 79.0578 28.3073C79.6369 28.7423 80.3971 29.1047 81.2659 29.2497C82.1346 29.3947 83.0758 29.3584 83.9807 28.996C84.4513 28.8147 84.8857 28.5973 85.2838 28.2711C85.682 27.9811 86.0802 27.5824 86.3698 27.1474C86.9852 26.2775 87.3471 25.1902 87.3471 24.0665C87.3109 22.9429 86.9489 21.8555 86.2974 20.9856C85.9716 20.5507 85.6096 20.1882 85.1752 19.8982C84.7771 19.6083 84.3065 19.3546 83.8359 19.2096C82.8948 18.8834 81.9536 18.8834 81.1211 19.0283C80.2523 19.2096 79.5283 19.6083 78.9492 20.0432C77.7908 20.9856 77.3203 22.1455 77.1393 22.9429C77.1031 23.1241 77.0669 23.3054 77.0669 23.4866C77.0307 23.6316 77.0307 23.7766 77.0307 23.8853C77.0307 23.994 77.0307 24.0665 77.0307 24.139C76.9583 24.2115 76.9583 24.2115 76.9945 24.2115Z" fill="#455A64"/>
<path d="M86.9851 23.8487C87.0213 23.8849 87.1661 23.6312 87.4919 23.3775C87.8177 23.1238 88.3606 22.8338 89.0122 22.7976C89.6638 22.7976 90.2429 23.0513 90.5687 23.305C90.9307 23.5587 91.0755 23.7762 91.1117 23.7762C91.1117 23.7762 91.0031 23.4862 90.6773 23.1963C90.3515 22.9063 89.7361 22.5801 89.0484 22.5801C88.3244 22.5801 87.7453 22.9425 87.4195 23.2325C87.0575 23.5587 86.9489 23.8487 86.9851 23.8487Z" fill="#455A64"/>
<path d="M69.9717 22.1818C69.9717 22.218 70.3699 22.2905 70.9852 22.3992C71.6368 22.508 72.5055 22.5805 73.4829 22.6892C74.424 22.7617 75.2928 22.8342 75.9806 22.9067C76.6321 22.9792 77.0303 23.0154 77.0303 22.9792C77.0303 22.9429 76.6321 22.8704 76.0168 22.7617C75.3652 22.653 74.4964 22.5805 73.5191 22.4717C72.5779 22.3992 71.7092 22.3267 71.0214 22.2542C70.3699 22.218 69.9717 22.1455 69.9717 22.1818Z" fill="#455A64"/>
<path d="M99.0384 27.1475C99.0022 27.1113 99.7262 26.4951 100.124 25.4077C100.523 24.3203 100.378 23.3779 100.45 23.3779C100.486 23.3779 100.559 23.5954 100.559 23.9941C100.559 24.3928 100.523 24.9365 100.305 25.4802C100.088 26.0239 99.7986 26.4951 99.509 26.785C99.2556 27.0388 99.0746 27.1475 99.0384 27.1475Z" fill="white"/>
<path d="M99.907 21.4209C99.9432 21.3847 100.124 21.4934 100.269 21.7109C100.378 21.9646 100.341 22.1821 100.305 22.1821C100.269 22.1821 100.197 22.0009 100.124 21.7834C100.016 21.6022 99.8708 21.4572 99.907 21.4209Z" fill="white"/>
<path d="M86.2605 26.0243C86.2243 26.0243 86.3329 25.7343 86.4053 25.2631C86.4777 24.7919 86.5139 24.1395 86.4053 23.4146C86.2605 22.6897 86.0071 22.1097 85.7537 21.711C85.5003 21.3123 85.3193 21.0948 85.3193 21.0586C85.3193 21.0586 85.5727 21.2398 85.8623 21.6385C86.1519 22.0372 86.4415 22.6534 86.5863 23.3783C86.7311 24.1033 86.6587 24.7919 86.5501 25.2631C86.4415 25.7706 86.2967 26.0605 86.2605 26.0243Z" fill="white"/>
<path d="M67.0036 30.4456C67.0036 30.4456 66.9312 30.5543 66.8226 30.7718C66.714 30.953 66.6054 31.2792 66.5692 31.6779C66.5692 32.0767 66.714 32.5841 67.076 32.9466C67.438 33.309 68.0534 33.5627 68.6325 33.454C69.2117 33.3453 69.7185 32.9103 69.9357 32.4391C70.1528 31.9679 70.1167 31.4605 69.9719 31.0618C69.8271 30.6993 69.6099 30.4456 69.4289 30.2644C69.2479 30.1194 69.1393 30.0469 69.1393 30.0469C69.1393 30.0469 69.2841 30.0831 69.4651 30.2281C69.6461 30.3731 69.8995 30.6268 70.0805 31.0255C70.2614 31.4242 70.3338 31.9679 70.0805 32.5116C69.8633 33.019 69.3203 33.5265 68.6687 33.6352C67.981 33.744 67.3656 33.4902 66.9312 33.0553C66.4968 32.6566 66.3882 32.0767 66.4244 31.6779C66.4606 31.243 66.6054 30.9168 66.7502 30.7356C66.895 30.5181 67.0036 30.4456 67.0036 30.4456Z" fill="#E0E0E0"/>
<path d="M97.5908 34.723C97.5908 34.6867 97.9528 34.9404 98.5682 34.7955C98.8578 34.723 99.1835 34.5417 99.4369 34.2518C99.6903 33.9618 99.9437 33.5631 100.016 33.1282C100.088 32.6932 100.016 32.222 99.8713 31.8595C99.6903 31.4971 99.4731 31.2071 99.2197 31.0259C98.7492 30.6272 98.351 30.5909 98.351 30.5547C98.351 30.5547 98.4596 30.5547 98.6406 30.5909C98.8216 30.6272 99.0749 30.7359 99.3283 30.9171C99.5817 31.0984 99.8713 31.3883 100.052 31.787C100.233 32.1858 100.342 32.657 100.233 33.1644C100.125 33.6718 99.9075 34.0705 99.5817 34.3968C99.2921 34.723 98.9301 34.9042 98.6044 34.9404C98.2786 35.0129 98.0252 34.9767 97.8442 34.9042C97.6632 34.7955 97.5908 34.723 97.5908 34.723Z" fill="#E0E0E0"/>
<path d="M77.5001 106.671L82.8574 108.266C82.8574 108.266 85.8257 109.535 87.2736 109.861C89.0473 110.26 90.278 109.716 90.3504 108.737C90.4228 107.759 89.0111 107.614 89.0111 107.614C89.0111 107.614 86.7668 106.744 85.5723 106.019C84.3777 105.294 83.6538 103.844 83.6538 103.844L85.5723 104.098C85.5723 104.098 89.5903 106.997 91.1468 107.867C92.6671 108.737 92.9929 107.215 93.1377 106.744C93.2825 106.272 88.6491 101.561 88.6491 101.561C88.6491 101.561 93.0653 104.424 93.8616 105.113C94.658 105.838 95.8525 106.055 96.1059 105.584C96.3593 105.113 97.0833 105.113 96.1059 103.155C95.1286 101.198 87.165 95.9061 87.165 95.9061L89.3369 95.4349L91.7259 96.4861C91.7259 96.4861 91.8707 97.4647 92.7033 98.7696C93.572 100.038 95.0924 98.7696 95.0924 98.7696L94.1512 93.8764L89.4455 90.9404C89.4455 90.9404 84.5587 91.5204 83.8348 91.8828C83.1108 92.209 82.3144 93.5864 82.3144 93.5864L80.9751 94.1301C78.9118 94.71 78.9842 96.776 78.3326 96.8485C77.6811 96.921 58.3513 93.1514 58.3513 93.1514L56.6138 92.6802C53.718 94.8912 52.5596 98.5158 52.0528 101.742C52.0528 101.742 51.5099 103.337 52.0528 104.206L77.5001 106.671Z" fill="#FFBE9D"/>
<path d="M73.9893 103.264C73.9893 103.264 73.9531 103.156 73.9531 102.938C73.9531 102.829 73.9531 102.721 73.9893 102.576C73.9893 102.431 74.0255 102.286 74.0979 102.105C74.2789 101.38 74.7495 100.473 75.4372 99.6036C76.125 98.7337 76.8852 98.0813 77.4281 97.6101C77.9711 97.1389 78.3693 96.8851 78.3693 96.9214C78.3693 96.9576 78.0435 97.2476 77.5367 97.7188C76.9938 98.19 76.2698 98.8787 75.582 99.7486C74.8943 100.582 74.4237 101.488 74.2065 102.141C73.9893 102.793 74.0255 103.264 73.9893 103.264Z" fill="#EFA077"/>
<path d="M82.3507 93.6221C82.3507 93.6221 82.2059 93.6946 81.9526 93.912C81.6992 94.0933 81.3734 94.4557 81.0838 94.9269C80.939 95.1806 80.758 95.4344 80.6494 95.7243C80.5046 96.0143 80.5046 96.3768 80.4322 96.7755C80.3598 97.1379 80.2512 97.5729 79.9979 97.9353C79.7445 98.2978 79.4911 98.624 79.3463 99.0227C79.0929 99.7114 79.0929 100.473 79.3463 101.052L79.3825 101.125L79.3101 101.161C78.2966 101.814 77.7898 102.792 77.6088 103.517C77.4278 104.242 77.464 104.677 77.4278 104.677C77.4278 104.677 77.3916 104.568 77.3916 104.351C77.3916 104.133 77.3916 103.843 77.5002 103.481C77.645 102.756 78.1518 101.705 79.2015 101.016L79.1653 101.125C78.9119 100.473 78.8757 99.6751 79.1653 98.9502C79.3101 98.5153 79.5997 98.1528 79.8169 97.8266C80.0703 97.5004 80.1427 97.1379 80.2151 96.7392C80.2874 96.3768 80.2874 95.9781 80.4684 95.6518C80.6132 95.3256 80.7942 95.0719 80.939 94.8182C81.2648 94.347 81.6268 94.0208 81.8802 93.8395C82.025 93.7308 82.1336 93.6946 82.2059 93.6583C82.2783 93.6221 82.3507 93.6221 82.3507 93.6221Z" fill="#EFA077"/>
<path d="M86.9841 95.7973C86.9841 95.8336 86.3325 95.9061 85.6085 95.6524C84.8846 95.3986 84.414 94.9274 84.4502 94.8912C84.4864 94.8549 84.957 95.2174 85.6809 95.4711C86.3687 95.7248 86.9841 95.7248 86.9841 95.7973Z" fill="#EFA077"/>
<path d="M88.2143 101.162C88.1781 101.199 87.2731 100.872 86.1872 100.401C85.1013 99.93 84.1963 99.495 84.2325 99.4588C84.2687 99.4226 85.1736 99.7488 86.2596 100.22C87.3817 100.691 88.2505 101.09 88.2143 101.162Z" fill="#EFA077"/>
<path d="M83.8709 103.807C83.8347 103.844 83.4003 103.662 82.8212 103.409C82.242 103.191 81.8076 103.01 81.8076 102.937C81.8076 102.901 82.3144 102.974 82.8936 103.227C83.4727 103.481 83.9071 103.771 83.8709 103.807Z" fill="#EFA077"/>
<path d="M87.5636 101.488C87.5998 101.525 87.1292 101.706 86.7673 102.177C86.4053 102.648 86.3329 103.119 86.2967 103.119C86.2605 103.119 86.2605 102.974 86.2967 102.793C86.3329 102.576 86.4415 102.322 86.6225 102.068C86.8035 101.814 87.0568 101.67 87.2378 101.561C87.4188 101.488 87.5636 101.488 87.5636 101.488Z" fill="#EFA077"/>
<path d="M89.4814 98.5523C89.5176 98.5886 89.1556 98.7698 88.9022 99.2048C88.6489 99.6035 88.6489 100.002 88.6127 100.002C88.5765 100.002 88.4679 99.5672 88.7575 99.096C89.047 98.6248 89.4814 98.5161 89.4814 98.5523Z" fill="#EFA077"/>
<path d="M88.9385 93.2236C88.9023 93.2236 88.83 93.1511 88.7938 92.9699C88.7576 92.7886 88.7214 92.5349 88.7938 92.2449C88.8661 91.955 89.0109 91.7375 89.1557 91.6288C89.3005 91.4838 89.4091 91.4475 89.4091 91.4838C89.4453 91.52 89.1195 91.81 88.9747 92.3174C88.8661 92.7886 89.0109 93.2236 88.9385 93.2236Z" fill="#EFA077"/>
<path d="M128.106 94.8917C128.106 94.8917 127.852 90.1434 122.929 89.1648C118.006 88.1862 109.391 92.3544 109.391 92.3544L85.2471 109.209L85.971 111.311L110.477 107.904L112.721 108.774L129.952 97.4289L146.205 85.6489L144.395 84.2354C144.395 84.2354 139.834 87.3888 136.829 88.7299C133.825 90.071 129.445 92.4632 128.106 94.8917Z" fill="#F5F5F5"/>
<path d="M84.8486 111.999L105.301 99.277L126.911 95.7974C126.911 95.7974 127.997 97.356 129.843 96.9935L147.616 84.6699L147.942 85.4311L113.481 109.68C112.214 110.078 111.273 109.788 110.477 109.1L84.8486 111.999Z" fill="#455A64"/>
<path d="M126.91 95.7979C126.91 95.7979 126.874 95.8341 126.73 95.9428C126.585 96.0516 126.44 96.1603 126.223 96.3053C125.788 96.6315 125.173 97.0665 124.413 97.6464C122.893 98.77 120.793 100.401 118.549 102.25C116.304 104.098 114.277 105.802 112.829 107.07C112.105 107.687 111.526 108.194 111.128 108.556C110.947 108.701 110.766 108.846 110.658 108.955C110.549 109.028 110.477 109.1 110.477 109.1C110.477 109.1 110.513 109.028 110.621 108.955C110.73 108.846 110.875 108.701 111.056 108.52C111.454 108.158 112.033 107.614 112.721 106.998C114.133 105.729 116.16 103.989 118.404 102.141C120.648 100.292 122.748 98.6975 124.304 97.5739C125.064 97.0302 125.716 96.559 126.15 96.2691C126.368 96.1241 126.549 96.0153 126.657 95.9428C126.838 95.8341 126.91 95.7979 126.91 95.7979Z" fill="#263238"/>
<path d="M126.693 93.1524C124.739 91.0502 121.662 90.289 118.802 90.5065C115.943 90.7239 113.228 91.8113 110.549 92.8625L85.5361 110.007L85.7533 110.659L110.911 93.6236C110.911 93.6236 116.522 91.8113 119.019 91.4851C123.146 90.9777 126.693 93.1524 126.693 93.1524Z" fill="#E0E0E0"/>
<path d="M130.604 95.3984L142.621 87.2793C142.621 87.2793 132.775 92.4262 130.604 95.3984Z" fill="#E0E0E0"/>
<path d="M85.5 110.006C85.5 110.006 85.5362 109.97 85.6086 109.934C85.681 109.861 85.7896 109.789 85.9344 109.716C86.224 109.499 86.6221 109.245 87.1289 108.883C88.1787 108.158 89.699 107.107 91.5451 105.802C95.3097 103.228 100.486 99.6399 106.205 95.7253C107.653 94.7104 109.101 93.768 110.477 92.8256C113.119 91.702 115.689 90.8683 118.078 90.5421C120.504 90.2522 122.675 90.6509 124.304 91.412C125.101 91.8107 125.788 92.2819 126.295 92.7531C126.802 93.2243 127.164 93.7318 127.417 94.1667C127.671 94.6017 127.779 94.9641 127.852 95.2179C127.888 95.3266 127.888 95.4353 127.924 95.5078C127.924 95.5803 127.96 95.6166 127.924 95.6166C127.888 95.6166 127.852 95.0729 127.345 94.203C127.092 93.768 126.73 93.2968 126.223 92.8256C125.716 92.3544 125.028 91.8832 124.232 91.5208C122.639 90.7596 120.467 90.3971 118.078 90.6871C115.689 91.0133 113.119 91.847 110.513 92.9706C109.137 93.913 107.726 94.8916 106.241 95.9065C100.522 99.8211 95.3097 103.373 91.5451 105.947C89.6628 107.215 88.1425 108.266 87.0927 108.955C86.5859 109.318 86.1516 109.571 85.862 109.752C85.7172 109.825 85.6086 109.897 85.5362 109.97C85.5362 110.006 85.5 110.006 85.5 110.006Z" fill="#263238"/>
<path d="M107.4 97.0666C107.4 97.0666 107.473 97.0303 107.581 96.9578C107.726 96.8853 107.907 96.7766 108.124 96.6679C108.595 96.4142 109.319 96.0517 110.224 95.653C111.998 94.8556 114.568 93.8407 117.572 93.4057C120.576 92.9708 123.328 93.4057 125.174 94.0944C126.115 94.4206 126.803 94.8193 127.273 95.1093C127.527 95.2543 127.671 95.363 127.816 95.4718C127.925 95.5442 127.997 95.6167 127.997 95.6167C127.997 95.6167 127.744 95.4718 127.273 95.1818C126.803 94.8918 126.079 94.5656 125.174 94.2394C123.328 93.587 120.613 93.1883 117.644 93.587C114.676 94.0219 112.142 95.0006 110.332 95.7617C109.427 96.1604 108.704 96.4866 108.197 96.7041C107.98 96.8128 107.762 96.8853 107.618 96.9578C107.473 97.0303 107.4 97.0666 107.4 97.0666Z" fill="#263238"/>
<path d="M145.552 85.1416C145.552 85.1416 145.516 85.1778 145.408 85.2503C145.299 85.3228 145.118 85.4316 144.937 85.5766C144.503 85.8665 143.924 86.229 143.2 86.7002C141.715 87.6426 139.725 88.9474 137.48 90.3973C135.272 91.8471 133.281 93.2244 131.833 94.1668C131.146 94.638 130.53 95.0367 130.132 95.3267C129.951 95.4355 129.77 95.5442 129.661 95.6167C129.553 95.6892 129.48 95.7254 129.48 95.7254C129.48 95.7254 129.517 95.6892 129.625 95.5804C129.734 95.508 129.879 95.363 130.06 95.2542C130.458 94.9643 131.037 94.5656 131.725 94.0581C133.136 93.0432 135.127 91.7021 137.372 90.216C139.58 88.7662 141.643 87.4613 143.127 86.5552C143.887 86.084 144.466 85.7215 144.901 85.5041C145.082 85.3953 145.263 85.2866 145.371 85.2141C145.48 85.1779 145.552 85.1416 145.552 85.1416Z" fill="#263238"/>
<path d="M134.584 98.19C134.584 98.19 134.113 99.3137 133.643 99.8573C133.172 100.401 131.652 101.162 131.543 102.213C131.435 103.264 131.688 105.729 130.023 107.578C128.394 109.463 126.15 110.115 126.15 110.115L119.707 109.499L109.39 105.439C109.39 105.439 108.558 105.222 108.739 104.352C108.847 103.844 109.282 103.446 109.825 103.373L110.078 103.337C110.078 103.337 109.499 102.866 110.331 101.996C111.055 101.271 112.612 101.67 113.408 101.96C114.205 102.213 118.874 104.171 119.707 104.461C120.431 104.714 121.01 104.968 121.01 104.968C121.01 104.968 115.037 100.945 114.965 100.401C114.856 99.7486 114.929 99.4949 115.544 99.0237C116.268 98.5162 117.462 99.0599 118.621 99.5311C119.489 99.8936 124.955 102.612 124.955 102.612C124.955 102.612 125.209 102.358 124.955 101.887C124.738 101.416 122.892 99.0599 122.603 98.625C122.313 98.19 122.241 97.9363 122.53 97.5739C122.928 97.0664 123.978 96.8127 124.955 97.6826C125.571 98.2625 127.743 99.7124 127.743 99.7124L137.769 92.3907C137.769 92.3907 139.036 92.3544 138.602 94.0942C138.131 95.834 134.584 98.19 134.584 98.19Z" fill="#FFBE9D"/>
<path d="M127.127 104.279C127.127 104.315 126.548 104.17 126.041 103.736C125.498 103.301 125.281 102.793 125.317 102.757C125.354 102.721 125.643 103.192 126.15 103.591C126.657 104.025 127.127 104.243 127.127 104.279Z" fill="#EFA077"/>
<path d="M127.924 99.894C127.924 99.8578 128.069 99.8215 128.286 99.8578C128.503 99.894 128.793 100.003 129.046 100.22C129.299 100.438 129.48 100.691 129.517 100.909C129.589 101.126 129.589 101.271 129.553 101.271C129.517 101.271 129.408 100.764 128.901 100.365C128.467 99.9665 127.924 99.9665 127.924 99.894Z" fill="#EFA077"/>
<path d="M128.43 101.923C128.358 101.923 128.358 101.379 128.141 100.763C127.923 100.147 127.634 99.7122 127.67 99.6759C127.706 99.6397 128.104 100.075 128.322 100.727C128.503 101.379 128.466 101.923 128.43 101.923Z" fill="#EFA077"/>
<path d="M134.367 97.6463C134.367 97.6463 134.222 97.5738 134.114 97.4288C133.969 97.2476 133.86 96.9939 133.824 96.6314C133.788 96.3052 133.86 96.0153 133.933 95.7978C134.005 95.6165 134.114 95.5078 134.15 95.5078C134.186 95.5441 133.933 95.979 134.005 96.5952C134.041 97.2114 134.403 97.6101 134.367 97.6463Z" fill="#EFA077"/>
<path d="M125.281 106.817C125.281 106.853 125.028 106.889 124.593 106.817C124.159 106.744 123.58 106.563 123 106.237C122.421 105.911 121.951 105.512 121.625 105.222C121.299 104.932 121.118 104.751 121.118 104.715C121.118 104.678 121.372 104.86 121.697 105.113C122.059 105.367 122.53 105.729 123.073 106.056C123.652 106.382 124.195 106.599 124.593 106.672C124.991 106.781 125.281 106.781 125.281 106.817Z" fill="#EFA077"/>
<path d="M126.946 105.766C126.983 105.766 127.019 106.128 126.693 106.418C126.403 106.708 126.005 106.708 126.041 106.672C126.041 106.636 126.331 106.563 126.584 106.309C126.838 106.056 126.91 105.766 126.946 105.766Z" fill="#EFA077"/>
<path d="M129.407 103.953C129.444 103.953 129.444 104.062 129.371 104.171C129.299 104.316 129.154 104.461 128.973 104.533C128.756 104.642 128.575 104.642 128.43 104.606C128.285 104.569 128.213 104.533 128.213 104.497C128.213 104.461 128.539 104.533 128.901 104.352C129.226 104.243 129.371 103.953 129.407 103.953Z" fill="#EFA077"/>
<path d="M120.72 108.085C120.684 108.121 118.295 107.142 115.362 105.838C112.43 104.569 110.041 103.482 110.078 103.409C110.114 103.373 112.503 104.352 115.435 105.656C118.367 106.961 120.756 108.049 120.72 108.085Z" fill="#EFA077"/>
<path d="M163 111.312C163 111.348 126.512 111.421 81.5181 111.421C36.4877 111.421 0 111.384 0 111.312C0 111.276 36.4877 111.203 81.5181 111.203C126.512 111.239 163 111.276 163 111.312Z" fill="#263238"/>
<path d="M4.66867 72.7099L12.5237 111.312H66.9656H80.6847C81.4448 111.312 82.0602 110.696 82.0602 109.934C82.0602 109.173 81.4448 108.557 80.6847 108.557H66.9656L59.6898 72.6374C59.545 71.9487 58.9658 71.4413 58.2418 71.4413L6.11659 70.8613C5.17544 70.8976 4.48767 71.7675 4.66867 72.7099Z" fill="#E0E0E0"/>
<path d="M4.66947 72.7098C4.66947 72.7098 4.66947 72.6735 4.63328 72.601C4.63328 72.5285 4.59708 72.4198 4.63328 72.2386C4.66947 71.9486 4.81427 71.4411 5.35724 71.1149C5.50203 71.0424 5.64682 70.9699 5.79161 70.9337C5.9726 70.8975 6.1536 70.8975 6.33459 70.8975C6.69657 70.8975 7.13094 70.8975 7.56532 70.8975C8.47027 70.8975 9.48382 70.8975 10.6422 70.9337C15.2755 70.9699 21.9722 71.0424 30.3339 71.1149C34.5329 71.1512 39.1301 71.1874 44.053 71.2599C46.5145 71.2962 49.0845 71.2962 51.7632 71.3324C53.1025 71.3324 54.4418 71.3687 55.7812 71.3687C56.4689 71.3687 57.1567 71.3687 57.8445 71.4049C58.0255 71.4049 58.1702 71.4049 58.3874 71.4049C58.5684 71.4411 58.7494 71.4774 58.9304 71.5499C59.2562 71.6949 59.5458 71.9848 59.6906 72.3473C59.763 72.5285 59.7992 72.7098 59.8354 72.8547L59.944 73.3622C60.0164 73.7246 60.0887 74.0509 60.1611 74.4133C60.3059 75.102 60.4507 75.8269 60.5955 76.5156C60.8851 77.9292 61.1747 79.379 61.4643 80.8288C62.0434 83.7285 62.6588 86.7007 63.2742 89.7091C64.5049 95.7622 65.7718 102.069 67.1112 108.557L67.0026 108.485C69.5726 108.485 72.2151 108.485 74.8938 108.485C76.2331 108.485 77.5724 108.485 78.948 108.485H79.9615H80.4683C80.6493 108.485 80.8303 108.485 81.0112 108.521C81.3732 108.593 81.699 108.811 81.9162 109.101C82.1334 109.391 82.2058 109.789 82.1696 110.152C82.0972 110.587 81.8076 110.985 81.4094 111.203C81.2284 111.312 80.975 111.384 80.7579 111.384H80.1425C79.3099 111.384 78.4774 111.384 77.6448 111.384C75.9797 111.384 74.3508 111.384 72.6857 111.384C69.3917 111.384 66.17 111.384 62.9846 111.384C56.6137 111.384 50.4601 111.384 44.5236 111.384C32.6868 111.384 21.8636 111.384 12.5245 111.384H12.4521V111.312C10.063 99.4593 8.10829 89.7816 6.73276 83.1123C6.045 79.7777 5.53823 77.168 5.17625 75.392C4.99526 74.5221 4.85046 73.8334 4.77807 73.3622C4.70567 72.9272 4.66947 72.7098 4.66947 72.7098C4.66947 72.7098 4.74187 72.9272 4.81427 73.3984C4.92286 73.8696 5.06765 74.5221 5.24864 75.392C5.61062 77.168 6.1536 79.7415 6.84136 83.1123C8.21689 89.8178 10.1716 99.4593 12.5969 111.312L12.5245 111.239C21.8636 111.239 32.6868 111.239 44.5236 111.239C50.4239 111.239 56.6137 111.239 62.9846 111.239C66.17 111.239 69.3917 111.239 72.6857 111.239C74.3146 111.239 75.9797 111.239 77.6448 111.239C78.4774 111.239 79.3099 111.239 80.1425 111.239H80.7579C80.9389 111.239 81.156 111.167 81.3008 111.094C81.6266 110.913 81.88 110.551 81.9524 110.152C81.9886 109.826 81.9162 109.499 81.7352 109.246C81.5542 108.992 81.2646 108.774 80.975 108.738C80.8303 108.702 80.6493 108.702 80.4683 108.702H79.9615H78.948C77.5724 108.702 76.2331 108.702 74.8938 108.702C72.2151 108.702 69.5726 108.702 67.0026 108.702H66.9302V108.63C65.6271 102.141 64.3239 95.8347 63.1294 89.7816C62.514 86.7369 61.8987 83.801 61.3195 80.9013C61.0299 79.4515 60.7403 78.0379 60.4507 76.5881C60.3059 75.8632 60.1611 75.1745 60.0164 74.4858C59.944 74.1233 59.8716 73.7971 59.7992 73.4347L59.6906 72.9272C59.6544 72.746 59.6182 72.601 59.5458 72.4198C59.401 72.1298 59.1838 71.8761 58.8942 71.7311C58.7494 71.6586 58.5684 71.6224 58.4236 71.5861C58.2788 71.5861 58.0979 71.5861 57.9169 71.5861C57.2291 71.5861 56.5413 71.5861 55.8536 71.5499C54.478 71.5499 53.1387 71.5136 51.8356 71.5136C49.1931 71.4774 46.6231 71.4412 44.1254 71.4412C39.1663 71.3687 34.5691 71.3324 30.4063 71.2962C22.0446 71.1874 15.3117 71.1149 10.7146 71.0424C9.55622 71.0424 8.54267 71.0062 7.63772 71.0062C7.20334 71.0062 6.76896 71.0062 6.40698 71.0062C6.22599 71.0062 6.045 71.0062 5.86401 71.0424C5.71922 71.0787 5.53823 71.1512 5.42963 71.2237C4.92286 71.5499 4.74187 72.0211 4.70567 72.3111C4.63328 72.5285 4.66947 72.7098 4.66947 72.7098Z" fill="#263238"/>
<path d="M33.8087 92.6088C35.0482 92.6088 36.053 91.6026 36.053 90.3615C36.053 89.1204 35.0482 88.1143 33.8087 88.1143C32.5693 88.1143 31.5645 89.1204 31.5645 90.3615C31.5645 91.6026 32.5693 92.6088 33.8087 92.6088Z" fill="white"/>
<path d="M4.74219 73.0001C4.74219 73.0001 4.81458 73.0001 4.95938 73.0001C5.10417 73.0001 5.35755 73.0001 5.64714 73.0001C6.26251 73.0001 7.16746 73.0001 8.2896 73.0001C10.6063 73.0001 13.9365 73.0364 18.0269 73.0364C26.28 73.1088 37.6463 73.1813 50.1708 73.2538C51.7273 73.2538 53.2838 73.2901 54.8403 73.2901C55.2385 73.2901 55.6005 73.2901 55.9987 73.2901C56.1797 73.2901 56.3969 73.2901 56.5778 73.3263C56.7588 73.3626 56.976 73.4351 57.1208 73.5438C57.4466 73.7613 57.7 74.0875 57.8086 74.4862C57.881 74.8487 57.9534 75.2111 58.0258 75.5736C58.6049 78.4732 59.1479 81.3004 59.6909 83.9464C60.7406 89.2745 61.6818 94.0952 62.4781 98.1548C63.2745 102.178 63.9261 105.476 64.3604 107.724C64.5776 108.847 64.7586 109.717 64.8672 110.333C64.9034 110.623 64.9758 110.841 64.9758 111.022C65.012 111.167 65.012 111.24 65.012 111.24C65.012 111.24 64.9758 111.167 64.9396 111.022C64.9034 110.877 64.8672 110.623 64.7948 110.333C64.6862 109.717 64.5052 108.847 64.2518 107.724C63.7813 105.476 63.1297 102.178 62.3333 98.1548C61.537 94.0952 60.5596 89.3108 59.4737 83.9464C58.9307 81.2642 58.3877 78.4732 57.8086 75.5736C57.7362 75.2111 57.6638 74.8487 57.5914 74.4862C57.519 74.16 57.2656 73.8338 56.976 73.6525C56.8312 73.5438 56.6502 73.4713 56.4692 73.4713C56.2883 73.4351 56.1073 73.4351 55.9263 73.4351C55.5643 73.4351 55.1661 73.4351 54.7679 73.4351C53.2476 73.4351 51.6911 73.3988 50.0984 73.3988C37.5377 73.2901 26.1715 73.1813 17.9545 73.1088C13.8279 73.0726 10.4977 73.0364 8.2172 73.0001C7.05887 73.0001 6.19011 72.9639 5.57474 72.9639C5.28516 72.9639 5.03177 72.9639 4.88698 72.9639C4.81458 73.0364 4.74219 73.0001 4.74219 73.0001Z" fill="#263238"/>
</svg>
