<svg width="359" height="346" viewBox="0 0 359 346" fill="none" xmlns="http://www.w3.org/2000/svg">
<ellipse cx="187" cy="173" rx="172" ry="173" fill="#2E2E2E"/>
<g clip-path="url(#clip0)">
<path d="M196.272 185.018C196.272 185.018 180.301 193.233 176.273 201.859C172.641 209.623 163.412 257.447 163.412 257.447L152.105 205.338L116.771 205.988C116.771 205.988 117.209 287.086 120.05 300.336C123.018 314.095 126.297 321.137 146.126 321.194C162.188 321.173 177.692 315.301 189.743 304.677L196.272 185.018Z" fill="#EBEBEB"/>
<path d="M322.245 165.688C318.005 161.346 269.131 149.044 269.131 149.044L254.828 135.44L239.705 192.781L222.971 262.807L225.346 321.194L322.245 319C322.245 319 331.065 174.823 322.245 165.688Z" fill="#EBEBEB"/>
<path d="M208.611 243.999C208.611 243.999 202.534 216.919 201.771 216.354C201.008 215.788 199.75 181.115 199.75 181.115C199.75 181.115 197.7 165.928 197.714 165.97C197.729 166.013 248.171 131.947 248.171 131.947L254.574 139.018L223.013 262.495L224.724 309.712L221.275 299.813L208.611 243.999Z" fill="#963EEE"/>
<path d="M208.611 243.575L200.908 214.021L198.788 173.606C199 175.176 195.594 188.143 195.594 188.143L179.355 202.383C179.355 202.383 172.217 232.079 175.934 243.731L183.213 321.194L238.702 320.572L208.611 243.575Z" fill="#EBEBEB"/>
<path d="M213.558 265.409L185.983 221.487L197.361 188.087L198.788 173.606L202.604 215.562L213.558 265.409Z" fill="#EBEBEB"/>
<path d="M197.375 238.456C198.309 242.187 199.055 245.963 199.608 249.769C200.683 256.019 201.432 261.081 201.276 261.081C200.342 257.35 199.597 253.575 199.043 249.769C197.969 243.603 197.234 238.456 197.375 238.456Z" fill="#263238"/>
<path d="M195.269 277.569C195.849 279.748 197.047 281.713 198.718 283.226C199.561 284.004 200.561 284.593 201.651 284.952C202.741 285.31 203.895 285.431 205.036 285.304C206.566 285.113 208.02 284.53 209.258 283.611C210.496 282.691 211.476 281.468 212.102 280.058C213.883 275.703 213.092 267.43 210.279 262.934C208.357 259.851 204.767 257.277 201.163 257.815C199.167 258.136 197.338 259.124 195.975 260.619C194.612 262.114 193.795 264.026 193.658 266.044" fill="#E0E0E0"/>
<path d="M193.701 265.974C193.709 265.133 193.867 264.3 194.167 263.514C194.502 262.575 194.979 261.692 195.58 260.898C196.362 259.826 197.39 258.958 198.577 258.366C199.266 258.022 199.998 257.77 200.753 257.617C201.575 257.435 202.422 257.402 203.255 257.518C205.088 257.831 206.794 258.66 208.173 259.908C209.713 261.24 210.91 262.923 211.664 264.815C212.473 266.821 213.001 268.929 213.233 271.079C213.776 274.36 213.379 277.729 212.088 280.794C211.382 282.153 210.316 283.293 209.007 284.089C207.817 284.832 206.483 285.314 205.092 285.503C204.09 285.681 203.06 285.603 202.096 285.276C201.238 285.011 200.42 284.631 199.665 284.145C198.48 283.309 197.471 282.247 196.697 281.02C196.188 280.252 195.784 279.42 195.496 278.545C195.411 278.248 195.34 278.022 195.312 277.852C195.284 277.683 195.312 277.612 195.312 277.612C195.714 278.765 196.26 279.863 196.937 280.879C197.725 282.039 198.728 283.037 199.891 283.82C200.619 284.283 201.409 284.64 202.237 284.88C203.152 285.164 204.122 285.222 205.064 285.05C206.433 284.885 207.743 284.396 208.886 283.624C210.028 282.852 210.971 281.819 211.636 280.61C212.844 277.632 213.206 274.377 212.682 271.206C212.187 266.964 210.746 262.722 207.848 260.346C206.545 259.164 204.941 258.367 203.213 258.041C202.432 257.899 201.633 257.899 200.852 258.041C200.133 258.177 199.435 258.405 198.775 258.72C197.629 259.269 196.628 260.078 195.849 261.081C195.254 261.845 194.778 262.693 194.436 263.599C194.134 264.372 193.888 265.166 193.701 265.974Z" fill="#263238"/>
<path d="M192.796 278.205C193.39 280.358 194.587 282.296 196.244 283.791C197.088 284.569 198.088 285.157 199.178 285.516C200.268 285.874 201.422 285.995 202.562 285.87C204.092 285.678 205.547 285.095 206.785 284.176C208.023 283.257 209.003 282.033 209.629 280.623C211.424 276.268 210.618 267.996 207.82 263.513C205.883 260.416 202.294 257.857 198.689 258.394C196.694 258.718 194.867 259.707 193.504 261.201C192.142 262.695 191.324 264.606 191.185 266.624" fill="#E0E0E0"/>
<path d="M191.227 266.624C191.235 265.783 191.393 264.95 191.693 264.164C192.029 263.221 192.505 262.334 193.107 261.534C194.355 259.829 196.204 258.661 198.28 258.267C199.104 258.071 199.958 258.037 200.795 258.168C202.622 258.478 204.323 259.302 205.7 260.544C207.236 261.882 208.428 263.57 209.177 265.465C209.988 267.47 210.516 269.578 210.745 271.729C211.285 275.009 210.893 278.375 209.615 281.444C208.9 282.802 207.83 283.941 206.52 284.739C205.33 285.482 203.995 285.965 202.605 286.153C201.599 286.329 200.565 286.256 199.594 285.941C198.733 285.677 197.915 285.291 197.163 284.795C195.979 283.964 194.97 282.907 194.195 281.684C193.691 280.914 193.288 280.082 192.994 279.21C192.909 278.913 192.838 278.672 192.81 278.517C192.782 278.361 192.81 278.276 192.81 278.262C193.211 279.418 193.762 280.517 194.45 281.529C195.231 282.693 196.229 283.697 197.389 284.484C198.123 284.934 198.911 285.285 199.735 285.531C200.649 285.821 201.62 285.879 202.562 285.7C203.93 285.532 205.239 285.041 206.379 284.266C207.52 283.491 208.459 282.456 209.12 281.246C210.327 278.267 210.693 275.015 210.18 271.842C209.671 267.6 208.23 263.429 205.332 260.996C204.036 259.803 202.429 258.999 200.697 258.677C199.912 258.558 199.112 258.582 198.336 258.748C197.616 258.88 196.917 259.108 196.259 259.427C195.11 259.971 194.108 260.78 193.333 261.788C192.739 262.547 192.262 263.39 191.92 264.291C191.641 265.054 191.41 265.833 191.227 266.624Z" fill="#263238"/>
<path d="M195.142 264.701C193.932 264.77 192.775 265.226 191.844 266.003C190.913 266.78 190.255 267.835 189.969 269.014C189.47 271.413 189.905 273.911 191.185 276C191.757 277.091 192.545 278.053 193.503 278.828C194.484 279.598 195.725 279.958 196.965 279.832C197.85 279.629 198.673 279.216 199.364 278.627C200.055 278.039 200.595 277.293 200.937 276.452C201.569 275.13 201.905 273.686 201.922 272.221C201.939 270.756 201.637 269.304 201.036 267.968C200.23 266.186 198.534 264.517 196.612 264.8" fill="#E0E0E0"/>
<path d="M196.612 264.829C196.747 264.774 196.89 264.745 197.036 264.744C197.455 264.73 197.872 264.797 198.265 264.942C198.972 265.251 199.609 265.7 200.139 266.261C200.668 266.822 201.079 267.485 201.347 268.208C202.237 270.315 202.401 272.658 201.813 274.869C201.482 276.192 200.843 277.418 199.947 278.446C199.469 279.023 198.861 279.477 198.173 279.772C197.485 280.068 196.737 280.195 195.99 280.143C194.51 279.956 193.159 279.207 192.216 278.05C191.359 277.013 190.676 275.843 190.195 274.586C189.743 273.536 189.51 272.406 189.51 271.263C189.51 270.12 189.743 268.989 190.195 267.94C190.525 267.24 190.989 266.613 191.561 266.094C192.134 265.574 192.803 265.173 193.531 264.914C193.924 264.786 194.333 264.714 194.746 264.701C194.887 264.682 195.03 264.682 195.17 264.701C194.638 264.785 194.113 264.913 193.601 265.083C192.244 265.652 191.157 266.72 190.563 268.067C190.164 269.073 189.974 270.149 190.003 271.231C190.032 272.312 190.28 273.377 190.732 274.36C191.196 275.551 191.85 276.659 192.669 277.64C193.515 278.698 194.734 279.391 196.075 279.578C196.735 279.623 197.397 279.509 198.004 279.246C198.612 278.983 199.147 278.578 199.566 278.065C200.408 277.112 201.013 275.973 201.332 274.741C201.924 272.637 201.81 270.397 201.007 268.364C200.515 266.965 199.503 265.81 198.181 265.14C197.68 264.945 197.149 264.84 196.612 264.829Z" fill="#263238"/>
<path d="M203.523 281.387C203.438 281.387 203.255 281.076 202.817 280.709C202.235 280.243 201.535 279.949 200.795 279.86C200.025 279.781 199.248 279.781 198.478 279.86C197.884 279.86 197.488 279.945 197.474 279.86C197.46 279.775 197.813 279.634 198.407 279.478C199.205 279.25 200.04 279.178 200.866 279.266C201.72 279.369 202.511 279.77 203.099 280.397C203.594 280.878 203.636 281.359 203.523 281.387Z" fill="#263238"/>
<path d="M201.135 262.171C201.135 262.171 201.036 262.581 200.612 263.062C200.04 263.696 199.322 264.181 198.52 264.476C197.73 264.766 196.883 264.868 196.047 264.773C195.397 264.674 195.043 264.49 195.058 264.433C196.161 264.4 197.256 264.239 198.322 263.953C199.331 263.48 200.276 262.881 201.135 262.171Z" fill="#263238"/>
<path d="M256.707 278.913C259.661 278.461 261.697 275.237 264.679 275.067C265.223 275.052 265.764 275.145 266.272 275.339C266.78 275.534 267.245 275.826 267.64 276.201C268.035 276.575 268.353 277.023 268.575 277.52C268.796 278.017 268.918 278.553 268.933 279.097C268.948 279.641 268.855 280.183 268.661 280.691C268.467 281.2 268.174 281.665 267.8 282.06C267.426 282.455 266.978 282.773 266.481 282.995C265.984 283.217 265.449 283.339 264.905 283.353C261.753 283.353 259.52 279.903 256.425 279.535" fill="#263238"/>
<path d="M282.134 278.602C281.195 278.704 280.25 278.732 279.307 278.687V277.655C280.912 277.815 282.533 277.647 284.071 277.161C285.609 276.675 287.033 275.88 288.254 274.826C291.081 272.253 292.494 268.053 292.72 262.34V262.114C292.805 259.851 288.339 216.043 287.406 207.728C285.993 194.747 274.361 194.266 273.866 194.252C273.371 194.238 262.856 193.658 258.955 208.393C254.885 223.948 248.92 253.516 248.68 256.938C248.68 257.362 248.595 257.886 248.539 258.494C248.058 262.892 247.125 272.041 253.613 276.523C260.891 281.501 265.881 278.701 266.093 278.574L266.615 279.465C266.375 279.592 260.891 282.745 253.033 277.372C245.966 272.55 247.012 262.976 247.507 258.381C247.578 257.787 247.634 257.278 247.662 256.868C247.888 253.431 253.881 223.665 257.966 208.124C262.05 192.583 273.88 193.206 273.993 193.206C277.743 193.445 281.279 195.035 283.947 197.682C286.616 200.328 288.236 203.852 288.508 207.601C289.272 214.445 293.907 259.738 293.823 262.142V262.354C293.625 268.364 292.013 272.804 289.017 275.562C287.116 277.3 284.699 278.368 282.134 278.602Z" fill="#263238"/>
<path d="M288.932 216.057C288.278 214.311 287.368 212.672 286.233 211.193C283.371 207.698 279.268 205.448 274.785 204.914C270.309 204.447 265.81 205.557 262.064 208.054C260.544 209.133 259.154 210.385 257.923 211.787C257.973 211.665 258.04 211.551 258.121 211.447C258.277 211.25 258.475 210.91 258.8 210.542C259.688 209.469 260.715 208.518 261.852 207.714C263.536 206.527 265.403 205.624 267.379 205.042C269.807 204.301 272.361 204.065 274.884 204.349C277.39 204.656 279.8 205.5 281.95 206.823C283.713 207.907 285.264 209.301 286.53 210.938C287.377 212.037 288.054 213.257 288.537 214.558C288.67 214.913 288.779 215.277 288.862 215.647C288.914 215.777 288.939 215.917 288.932 216.057Z" fill="#263238"/>
<path d="M269.146 149.016L250.39 221.388L222.985 262.793L254.842 135.412L269.146 149.016Z" fill="#EBEBEB"/>
<path d="M222.985 262.792C223.808 261.869 224.555 260.881 225.218 259.837L231.07 251.352L250.97 221.755L251.04 221.671V221.543C252.793 214.798 254.715 207.403 256.694 199.851C261.895 179.842 266.474 161.77 269.612 149.128L269.683 148.845L269.471 148.647L258.814 138.834L255.902 136.232C255.579 135.906 255.213 135.625 254.814 135.397C255.059 135.787 255.359 136.14 255.705 136.444L258.432 139.272L268.792 149.369L268.651 148.888C265.259 161.445 260.496 179.474 255.309 199.484L249.655 221.19L249.754 220.992C241.938 232.969 235.211 243.306 230.292 250.871L224.766 259.568C224.082 260.59 223.486 261.668 222.985 262.792Z" fill="#263238"/>
<path d="M221.247 275.576C220.752 274.405 220.142 273.287 219.424 272.239L213.982 263.387C209.318 255.906 202.675 245.555 195.27 233.931L195.397 234.384C195.524 232.503 195.651 230.509 195.792 228.501C196.824 213.356 197.672 199.64 198.223 189.699C198.45 184.933 198.633 180.988 198.789 177.934C198.918 176.494 198.918 175.046 198.789 173.606C198.476 175.002 198.282 176.421 198.209 177.849C197.941 180.889 197.602 184.834 197.178 189.586C196.372 199.484 195.354 213.215 194.351 228.36C194.224 230.368 194.082 232.362 193.955 234.242V234.483L194.082 234.681C201.587 246.276 208.315 256.542 213.191 263.881L219.014 272.493C219.664 273.586 220.411 274.618 221.247 275.576Z" fill="#263238"/>
<path d="M266.771 147.955C268.407 148.66 269.788 149.849 270.728 151.363L270.827 151.504C274.191 156.44 274.445 163.962 274.657 170.58V171.91C274.73 179.081 274.258 186.247 273.244 193.347L278.897 194.04L276.071 193.701L278.897 194.026C279.968 186.637 280.468 179.177 280.396 171.712V170.397C280.141 162.902 279.858 154.403 275.477 148.054L275.364 147.884C273.356 145.119 270.464 143.123 267.167 142.228C266.157 142.045 265.116 142.225 264.227 142.737L263.294 143.274L266.771 147.955Z" fill="#263238"/>
<path d="M225.317 321.194C225.162 320.435 225.077 319.663 225.063 318.889C224.936 317.475 224.794 315.24 224.653 312.568C224.342 307.237 224.045 299.841 223.777 291.71C223.508 283.579 223.296 276.311 223.126 270.852C223.056 268.279 222.999 266.144 222.957 264.517C222.884 263.746 222.884 262.97 222.957 262.198C223.092 262.96 223.177 263.73 223.211 264.503C223.324 266.002 223.466 268.152 223.607 270.824C223.904 276.169 224.201 283.551 224.469 291.696C224.738 299.841 224.95 307.095 225.119 312.554C225.19 315.127 225.261 317.248 225.303 318.875C225.366 319.646 225.37 320.421 225.317 321.194Z" fill="#263238"/>
<path d="M195.043 288.472L196.258 321.632L325.694 318.804C329.013 318.734 332.281 317.97 335.288 316.562C338.295 315.153 340.974 313.131 343.153 310.624C345.332 308.118 346.963 305.183 347.941 302.008C348.918 298.834 349.221 295.49 348.83 292.191C347.827 284.06 346.654 274.628 345.438 264.814C343.53 249.556 339.855 207.473 335.714 183.561C334.779 177.951 332.02 172.807 327.865 168.925C323.71 165.044 318.391 162.643 312.733 162.095C311.48 161.937 310.212 161.937 308.959 162.095C294.557 164.386 289.172 178.597 289.667 195.057C290.077 208.562 292.07 272.478 292.07 272.478L195.043 288.472Z" fill="#EBEBEB"/>
<path d="M345.565 307.378C345.565 307.378 345.438 307.619 345.17 308.043C344.809 308.707 344.388 309.337 343.912 309.923C342.078 312.213 339.768 314.076 337.142 315.382C332.956 317.418 328.425 318.651 323.785 319.016C318.344 319.313 312.168 319.341 305.299 319.539L196.287 322H195.933V321.646C195.651 313.826 195.354 305.596 195.057 297.239C194.944 293.959 194.817 290.706 194.704 287.524V287.199H195.029L292.056 272.252L291.801 272.549C290.897 251.338 290.162 233.888 289.653 221.77C289.413 215.731 289.229 211.023 289.102 207.798C289.102 206.201 289.003 204.97 288.974 204.136C288.946 203.302 288.974 202.892 288.974 202.892C288.974 202.892 288.974 203.316 289.088 204.136C289.201 204.956 289.201 206.201 289.285 207.784C289.455 211.008 289.695 215.731 289.992 221.755C290.572 233.874 291.405 251.267 292.395 272.521V272.79H292.14L195.113 287.949L195.424 287.567C195.538 290.763 195.665 294.001 195.778 297.282C196.075 305.639 196.357 313.869 196.64 321.689L196.272 321.335L305.285 319.058C312.139 318.889 318.358 318.889 323.729 318.634C328.336 318.309 332.842 317.124 337.014 315.141C339.628 313.879 341.942 312.071 343.799 309.839C344.27 309.258 344.704 308.649 345.099 308.014C345.396 307.59 345.565 307.378 345.565 307.378Z" fill="#263238"/>
<path d="M303.971 290.184C303.773 290.283 301.639 285.814 298.317 280.78C296.621 278.263 294.967 276.029 293.724 274.516C293.064 273.696 292.173 273.094 291.166 272.791C291.166 272.791 291.491 272.677 292.056 272.791C292.841 273.051 293.547 273.509 294.105 274.12C295.874 276.058 297.486 278.133 298.925 280.328C300.384 282.498 301.692 284.766 302.84 287.115C303.352 288.083 303.732 289.115 303.971 290.184Z" fill="#263238"/>
<path d="M316.705 284.979C316.606 285.064 315.532 283.862 313.582 282.151C308.488 277.711 302.317 274.688 295.689 273.384C293.144 272.875 291.547 272.762 291.547 272.648C291.926 272.579 292.314 272.579 292.692 272.648C293.724 272.67 294.753 272.76 295.773 272.917C302.59 273.966 308.926 277.068 313.935 281.812C314.69 282.52 315.393 283.281 316.041 284.088C316.305 284.35 316.529 284.651 316.705 284.979Z" fill="#263238"/>
<path d="M163.695 274.557C163.266 271.276 163.078 267.967 163.13 264.658C162.941 261.359 162.993 258.051 163.285 254.76C163.733 258.039 163.927 261.349 163.865 264.658C164.053 267.958 163.996 271.266 163.695 274.557Z" fill="#263238"/>
<path d="M145.986 105.165C144.347 105.467 142.66 105.363 141.07 104.862C139.481 104.362 138.039 103.479 136.869 102.292C135.699 101.105 134.838 99.6493 134.36 98.0524C133.882 96.4554 133.802 94.7657 134.128 93.1308C134.724 91.3949 135.09 89.5883 135.216 87.7573C134.976 83.812 130.566 81.3939 129.421 77.6183C128.347 74.1255 130.354 70.4065 132.813 67.7197C135.272 65.033 138.269 62.6856 139.88 59.419C141.392 56.4212 141.59 52.9143 142.876 49.8033C143.806 47.6345 145.245 45.7219 147.07 44.2277C148.896 42.7335 151.054 41.7017 153.363 41.2198C158.098 40.2724 163.257 41.7289 167.737 40.0178C171.03 38.7734 173.504 36.0443 176.528 34.2484C180.011 32.3128 184.048 31.6209 187.976 32.2865C191.903 32.9522 195.488 34.9358 198.139 37.9109C200.099 40.6061 202.671 42.7968 205.643 44.3025C209.799 46.155 214.731 44.953 218.547 47.4701C220.809 48.9548 221.77 51.783 222.25 54.4556C222.731 57.1282 222.901 59.9423 224.173 62.3462C225.209 64.1947 226.827 65.6488 228.774 66.4825C230.722 67.3162 232.89 67.4827 234.942 66.9561C235.178 68.2534 235.145 69.5853 234.846 70.8695C234.547 72.1537 233.988 73.363 233.204 74.4225C235.248 74.5033 237.274 74.0137 239.055 73.0084C239.424 75.6331 239.252 78.3056 238.55 80.8614C237.848 83.4172 236.631 85.8023 234.974 87.87C233.316 89.9376 231.253 91.6441 228.912 92.8844C226.571 94.1247 224.001 94.8727 221.36 95.0822" fill="#263238"/>
<path d="M222.392 85.4236C222.66 85.0984 233.967 74.012 240.765 87.9266C247.563 101.841 232.285 105.871 232.031 105.475C231.776 105.079 222.392 85.4236 222.392 85.4236Z" fill="#FFBE9D"/>
<path d="M233.741 98.1079C233.741 98.1079 234.066 98.1079 234.575 98.1079C235.271 98.0683 235.925 97.7589 236.398 97.2453C237.599 95.9868 237.684 93.003 236.511 90.5001C235.964 89.2852 235.147 88.2114 234.122 87.3609C233.778 86.9893 233.348 86.7075 232.871 86.5399C232.393 86.3724 231.881 86.3241 231.38 86.3993C231.062 86.4711 230.778 86.6513 230.577 86.9091C230.376 87.1669 230.27 87.4865 230.278 87.8134C230.278 88.2942 230.518 88.5204 230.448 88.5911C230.377 88.6618 230.038 88.5063 229.868 87.8699C229.777 87.4862 229.817 87.083 229.981 86.7245C230.226 86.2497 230.647 85.8894 231.154 85.7205C231.78 85.5458 232.44 85.5374 233.069 85.6962C233.699 85.8549 234.276 86.1752 234.744 86.6255C235.914 87.5419 236.841 88.7315 237.444 90.09C238.73 92.9182 238.589 96.2696 236.878 97.8392C236.56 98.1363 236.178 98.356 235.761 98.4811C235.345 98.6061 234.905 98.6333 234.476 98.5604C233.924 98.4614 233.698 98.1644 233.741 98.1079Z" fill="#EB996E"/>
<path d="M166.889 149.369C161.617 139.767 152.36 119.121 144.275 100.328C140.043 90.5876 139.632 79.6098 143.123 69.5794C146.614 59.549 153.752 51.2013 163.115 46.1972L165.052 45.165C186.506 35.2664 206.901 47.9931 216.187 69.6993L248.411 134.026L212.456 192.442L199.537 161.671C199.537 161.671 177.814 169.279 166.889 149.369Z" fill="#FFBE9D"/>
<path d="M199.438 161.7C208.768 156.945 216.468 149.516 221.557 140.361C221.557 140.361 223.31 158.207 202.421 167.059L199.438 161.7Z" fill="#EB996E"/>
<path d="M157.25 112.419C157.64 113.155 158.297 113.713 159.087 113.976C159.877 114.239 160.737 114.188 161.49 113.833C161.868 113.668 162.21 113.429 162.494 113.13C162.779 112.831 163 112.478 163.147 112.092C163.293 111.706 163.36 111.295 163.345 110.882C163.33 110.47 163.233 110.064 163.059 109.69C162.67 108.954 162.012 108.396 161.222 108.133C160.433 107.87 159.572 107.921 158.819 108.276C158.441 108.441 158.1 108.68 157.815 108.979C157.531 109.278 157.309 109.631 157.163 110.017C157.017 110.403 156.949 110.814 156.964 111.227C156.979 111.639 157.076 112.045 157.25 112.419Z" fill="#263238"/>
<path d="M154.056 108.813C154.607 108.997 155.907 106.24 158.988 104.571C162.069 102.902 165.136 103.27 165.278 102.719C165.278 102.464 164.628 101.983 163.271 101.785C161.444 101.574 159.598 101.935 157.985 102.818C156.386 103.661 155.098 104.994 154.31 106.621C153.688 107.894 153.731 108.743 154.056 108.813Z" fill="#263238"/>
<path d="M185.574 94.9407C186.125 95.0821 187.27 92.254 190.238 90.4298C193.206 88.6056 196.287 88.747 196.386 88.1814C196.386 87.9269 195.694 87.4885 194.323 87.3895C192.492 87.2881 190.674 87.7575 189.121 88.7329C187.576 89.6938 186.374 91.1193 185.687 92.8055C185.15 94.0357 185.305 94.8842 185.574 94.9407Z" fill="#263238"/>
<path d="M185.249 121.087C185.164 120.903 183.086 121.596 179.779 122.855C178.945 123.194 178.125 123.434 177.701 122.968C177.207 122.192 176.956 121.286 176.981 120.366C176.712 118.061 176.415 115.657 176.118 113.14C174.804 102.902 173.391 94.6578 172.981 94.7567C172.571 94.8557 173.306 103.156 174.62 113.394C174.974 115.911 175.299 118.301 175.61 120.592C175.628 121.806 176.068 122.976 176.853 123.901C177.115 124.113 177.421 124.263 177.749 124.342C178.077 124.42 178.418 124.424 178.747 124.353C179.238 124.239 179.713 124.063 180.161 123.83C183.383 122.246 185.333 121.228 185.249 121.087Z" fill="#263238"/>
<path d="M195.425 118.343C194.916 118.584 196.683 121.921 195.1 125.81C193.517 129.698 189.757 131.24 189.983 131.72C189.983 131.947 191.114 131.947 192.641 131.183C194.606 130.165 196.152 128.488 197.008 126.446C197.834 124.484 197.859 122.275 197.078 120.295C196.457 118.824 195.651 118.258 195.425 118.343Z" fill="#263238"/>
<path d="M175.524 76.6851C176.274 77.3639 179.129 75.271 182.973 73.8569C186.817 72.4429 190.252 71.7924 190.322 70.7884C190.322 70.3076 189.418 69.7985 187.807 69.6147C185.711 69.4414 183.605 69.7661 181.658 70.5621C179.687 71.3208 177.927 72.5431 176.528 74.1256C175.496 75.3559 175.256 76.3599 175.524 76.6851Z" fill="#3F525C"/>
<path d="M151.384 101.998C152.303 102.408 154.027 100.584 156.557 99.1695C159.087 97.7554 161.518 97.1332 161.617 96.1292C161.617 95.6626 160.939 95.1394 159.638 94.9838C157.951 94.8713 156.268 95.2611 154.802 96.1041C153.335 96.9472 152.151 98.2057 151.399 99.721C150.876 100.909 150.975 101.786 151.384 101.998Z" fill="#3F525C"/>
<path d="M147.385 52.1935C152.855 45.5332 160.755 43.0303 168.811 39.9617C174.943 37.4934 181.601 36.6224 188.16 37.4305C198.775 38.8446 207.438 45.5756 213.064 54.6965C218.479 63.451 222.507 72.991 225.006 82.9781L224.187 83.2185C225.911 85.2548 227.706 87.4608 228.13 90.0485C228.554 92.6363 226.985 95.8321 224.328 96.0867C221.233 96.3836 219.24 92.9898 217.954 90.1617C213.534 80.6282 208.447 71.4185 202.732 62.6012C198.492 55.9691 190.012 49.7755 182.804 49.5068C166.776 48.9694 161.123 60.6922 157.773 64.5243C148.049 62.5588 142.495 69.8837 141.194 77.0248C138.509 68.7666 141.929 58.868 147.385 52.1935Z" fill="#263238"/>
<path d="M214.053 46.1406C214.307 46.5507 213.756 47.5547 212.23 48.6152C210.023 50.0338 207.535 50.9554 204.937 51.3161C201.192 51.8771 197.388 51.9247 193.63 51.4575C189.545 51.0333 185.305 50.298 181.107 50.0435C177.396 49.7478 173.669 50.3492 170.239 51.7969C167.46 53.0907 164.981 54.9497 162.96 57.2553C159.37 61.2854 158.338 64.9337 157.307 64.764C157.066 64.764 156.854 64.4671 156.699 63.9722C156.501 63.274 156.424 62.5469 156.473 61.8228C156.63 59.1667 157.41 56.5848 158.748 54.2857C160.75 50.7381 163.683 47.8046 167.228 45.8012C169.322 44.6256 171.588 43.7858 173.942 43.3124C176.413 42.8336 178.933 42.6579 181.447 42.7892C185.895 43.0954 190.313 43.7431 194.662 44.7265C197.92 45.4421 201.227 45.9147 204.555 46.1406C206.762 46.2507 208.975 46.175 211.17 45.9143C212.767 45.7164 213.784 45.6315 214.053 46.1406Z" fill="#3F525C"/>
<path d="M220.264 57C219.618 57.7784 218.826 58.4222 217.932 58.8949C215.844 60.175 213.524 61.0303 211.105 61.4119C208.686 61.803 206.213 61.7166 203.827 61.1574C202.82 61.0011 201.857 60.635 201 60.0827C201 59.9696 202.117 60.3514 203.912 60.6483C206.252 61.0297 208.638 61.0297 210.978 60.6483C213.295 60.269 215.537 59.5244 217.621 58.4424C218.475 57.9139 219.357 57.4324 220.264 57Z" fill="#3F525C"/>
<path d="M233.444 67.8189C233.068 67.9688 232.673 68.0686 232.271 68.1159C231.508 68.2573 230.391 68.3987 229.006 68.526C225.377 68.813 221.727 68.6944 218.123 68.1725C214.522 67.6534 210.991 66.7333 207.594 65.4291C206.567 65.0406 205.562 64.5968 204.583 64.0999C204.206 63.951 203.854 63.7461 203.538 63.4918C203.538 63.3787 205.163 64.0575 207.778 64.9059C211.181 66.057 214.682 66.8994 218.237 67.423C221.789 67.9264 225.379 68.1109 228.964 67.9745C231.791 67.9038 233.43 67.6917 233.444 67.8189Z" fill="#3F525C"/>
<path d="M159.709 42.3516C158.995 43.3603 158.231 44.3325 157.419 45.2646C155.555 47.5433 154.201 50.1954 153.448 53.042C152.77 55.8972 153.115 58.8999 154.423 61.5265C155.051 62.5967 155.785 63.601 156.614 64.5244C156.614 64.5244 156.275 64.383 155.766 63.9729C155.076 63.3387 154.498 62.593 154.056 61.7669C152.538 59.0639 152.098 55.8862 152.826 52.8723C153.584 49.9224 155.038 47.1972 157.066 44.9252C157.819 43.9445 158.709 43.0776 159.709 42.3516Z" fill="#3F525C"/>
<path d="M150.028 41.7998C150.141 41.7998 149.364 43.0866 148.699 45.2926C147.843 48.1483 147.775 51.1826 148.502 54.074C149.273 56.9661 150.805 59.5983 152.939 61.6959C154.579 63.2938 155.865 63.9867 155.766 64.0999C155.667 64.213 155.399 64.015 154.833 63.6898C154.046 63.2234 153.312 62.6734 152.643 62.0494C150.293 59.9891 148.618 57.268 147.836 54.2411C147.054 51.2142 147.203 48.0219 148.261 45.0805C148.572 44.2014 148.975 43.3577 149.463 42.5634C149.816 42.0543 149.986 41.7715 150.028 41.7998Z" fill="#3F525C"/>
<path d="M225.741 86.2153C224.102 87.0773 222.223 87.3707 220.399 87.0496C218.546 86.9747 216.768 86.2942 215.339 85.1123C217.027 85.6016 218.74 86.0028 220.469 86.3143C222.227 86.3803 223.987 86.3473 225.741 86.2153Z" fill="#3F525C"/>
<path d="M227.918 88.4363C226.256 89.5625 224.266 90.1001 222.264 89.9635C220.244 90.0725 218.248 89.4834 216.611 88.2949C218.465 88.7694 220.356 89.0817 222.264 89.2282C224.168 89.1315 226.06 88.8665 227.918 88.4363Z" fill="#3F525C"/>
<path d="M141.195 80.8704C140.512 81.1565 139.766 81.2589 139.032 81.1674C137.257 81.062 135.539 80.502 134.043 79.5412C132.545 78.5831 131.326 77.2466 130.51 75.6666C130.112 75.0455 129.897 74.3253 129.888 73.5879C130.001 73.5879 130.269 74.3232 130.962 75.4121C131.861 76.8174 133.052 78.0133 134.453 78.919C135.859 79.8156 137.439 80.4036 139.089 80.6442C139.796 80.6636 140.5 80.7393 141.195 80.8704Z" fill="#3F525C"/>
<path d="M141.194 75.836C139.297 75.4113 137.511 74.5923 135.951 73.4321C134.291 72.4569 132.848 71.1528 131.71 69.5999C131.866 69.4444 133.788 71.113 136.417 72.824C139.046 74.5351 141.335 75.6098 141.194 75.836Z" fill="#3F525C"/>
<path d="M151.399 205.352C151.399 205.352 148.12 188.227 148.982 185.555C149.844 182.882 154.522 173.874 154.325 163.933C154.069 156.544 153.441 149.172 152.445 141.845L150.876 132.696L144.304 130.137C144.304 130.137 141.845 123.957 140.714 122.84C139.815 122.025 138.673 121.529 137.465 121.43C136.256 121.33 135.049 121.632 134.029 122.289C132.6 123.227 131.587 124.681 131.202 126.347C130.605 125.943 129.924 125.682 129.21 125.584C128.496 125.486 127.769 125.554 127.086 125.782C126.403 126.011 125.781 126.393 125.269 126.901C124.758 127.408 124.37 128.027 124.135 128.709C124.135 128.709 120.658 127.04 118.284 128.567C117.562 129.041 116.966 129.684 116.55 130.441C116.134 131.197 115.909 132.045 115.895 132.908C115.895 132.908 112.786 131.183 110.624 132.908C109.961 133.406 109.462 134.091 109.193 134.875C108.923 135.659 108.895 136.506 109.111 137.306C109.21 137.858 112.984 166.578 113.026 169.024C113.069 171.47 116.984 181.143 118.114 183.405C119.245 185.668 120.658 206.031 120.658 206.031L151.399 205.352Z" fill="#FFBE9D"/>
<path d="M144.94 140.488C144.94 140.488 144.742 140.813 144.544 141.45C144.243 142.364 144.071 143.316 144.035 144.278C143.938 147.634 144.416 150.982 145.449 154.176L145.548 154.488L145.237 154.615C142.662 155.618 140.322 157.14 138.36 159.086C136.398 161.032 134.856 163.361 133.831 165.927C132.978 168.108 132.501 170.417 132.418 172.757C132.422 174.926 132.659 177.088 133.124 179.206C132.849 178.684 132.644 178.127 132.516 177.551C132.107 175.986 131.898 174.375 131.895 172.757C131.888 170.346 132.309 167.952 133.138 165.687C134.165 163.003 135.748 160.566 137.781 158.536C139.815 156.506 142.255 154.929 144.94 153.908L144.742 154.332C143.727 151.035 143.348 147.575 143.625 144.136C143.71 143.162 143.949 142.208 144.332 141.308C144.436 141.068 144.574 140.845 144.742 140.644C144.869 140.545 144.926 140.474 144.94 140.488Z" fill="#EB996E"/>
<path d="M113.408 173.451L126.213 174.95L128.248 177.524L127.202 185.527L124.517 187.592L112.192 185.344L113.408 173.451Z" fill="#263238"/>
<path d="M126.086 174.822C126.174 176.899 126.008 178.979 125.591 181.016C125.427 183.086 125.009 185.128 124.347 187.096C124.276 185.019 124.447 182.941 124.856 180.903C125.03 178.835 125.443 176.795 126.086 174.822Z" fill="#455A64"/>
<path d="M122.397 187.181C122.35 185.08 122.558 182.982 123.019 180.931C123.231 178.849 123.686 176.799 124.375 174.822C124.405 176.923 124.197 179.019 123.753 181.073C123.539 183.154 123.084 185.205 122.397 187.181Z" fill="#455A64"/>
<path d="M101.083 193.559C101.083 194.28 109.266 205.988 109.266 205.988H116.757L119.584 203.896L120.856 196.627L111.909 185.018L101.083 193.559Z" fill="#263238"/>
<path d="M120.913 196.627C121.011 196.811 118.199 198.635 115.005 201.279C111.811 203.924 109.351 206.2 109.196 206.045C110.693 204.023 112.473 202.227 114.482 200.714C116.382 199.001 118.555 197.619 120.913 196.627Z" fill="#455A64"/>
<path d="M120.036 195.496C120.135 195.694 117.125 197.179 113.945 199.738C110.765 202.298 108.715 204.97 108.532 204.857C109.723 202.616 111.416 200.68 113.478 199.201C115.377 197.515 117.613 196.252 120.036 195.496Z" fill="#455A64"/>
<path d="M100.306 192.47H86.5542V211.235H100.306V192.47Z" fill="#263238"/>
<path d="M100.489 209.113C98.2246 209.485 95.9261 209.608 93.6346 209.481C91.3478 209.608 89.054 209.485 86.7939 209.113C89.0549 208.751 91.3478 208.628 93.6346 208.746C95.9261 208.627 98.2237 208.75 100.489 209.113Z" fill="#455A64"/>
<path d="M100.588 207.431C98.3228 207.794 96.0252 207.917 93.7337 207.798C91.4422 207.917 89.1446 207.794 86.8789 207.431C89.1446 207.068 91.4422 206.945 93.7337 207.063C96.0252 206.945 98.3228 207.068 100.588 207.431Z" fill="#455A64"/>
<path d="M79.7559 187.21C82.1586 190.809 85.7229 193.474 89.8533 194.761C93.9837 196.047 98.4302 195.876 102.45 194.278C106.47 192.679 109.82 189.748 111.94 185.976C114.061 182.203 114.823 177.817 114.1 173.55L106.836 178.287L79.7559 187.21Z" fill="#EBEBEB"/>
<path d="M44.9023 263.287H63.4032V245.173H102.313C103.531 245.173 104.699 244.689 105.561 243.827C106.422 242.965 106.906 241.796 106.906 240.577C106.903 239.359 106.417 238.193 105.557 237.331C104.696 236.47 103.53 235.985 102.313 235.981H79.6144V229.759H120.602C121.784 229.759 122.918 229.29 123.755 228.456C124.592 227.621 125.064 226.488 125.068 225.305C125.064 224.122 124.592 222.989 123.755 222.154C122.918 221.319 121.784 220.851 120.602 220.851H52.8595V227.921H45.2981L44.9023 263.287Z" fill="#263238"/>
<path d="M52.8171 263.288C52.6051 263.288 52.4496 253.785 52.4638 242.076C52.4779 230.368 52.6617 220.865 52.8595 220.865C53.0574 220.865 53.2129 230.368 53.1987 242.076C53.1846 253.785 53.015 263.288 52.8171 263.288Z" fill="#455A64"/>
<path d="M63.3324 221.487C63.7047 225.463 63.8274 229.459 63.6999 233.45C63.8276 237.447 63.7049 241.447 63.3324 245.428C62.9685 241.446 62.8458 237.447 62.965 233.45C62.8462 229.459 62.9689 225.464 63.3324 221.487Z" fill="#455A64"/>
<path d="M125.011 299.262C123.738 295.055 121.297 291.297 117.971 288.425C114.646 285.554 110.573 283.687 106.228 283.042H44.7044L43.291 300.336L125.011 299.262Z" fill="#EBEBEB"/>
<path d="M12.3809 258.437V188.567C12.3784 187.472 12.7475 186.408 13.4279 185.55C14.1083 184.692 15.0597 184.091 16.1263 183.844L73.9608 167.37L74.5261 144.462L109.111 143.882L119.81 133.983L136.686 153.342L114.284 177.778L45.623 199.074L44.4923 299.261H124.842C125.307 299.261 125.767 299.353 126.197 299.532C126.627 299.71 127.017 299.972 127.345 300.302C127.673 300.632 127.933 301.023 128.11 301.453C128.287 301.884 128.377 302.345 128.375 302.811V315.905H12.3809V258.437Z" fill="#455A64"/>
<path d="M114.976 214.756H83.6847C82.0143 214.756 80.6602 216.111 80.6602 217.782V217.824C80.6602 219.496 82.0143 220.851 83.6847 220.851H114.976C116.647 220.851 118.001 219.496 118.001 217.824V217.782C118.001 216.111 116.647 214.756 114.976 214.756Z" fill="#E0E0E0"/>
<path d="M114.962 220.851C114.962 220.851 115.259 220.851 115.768 220.653C116.234 220.507 116.657 220.247 116.997 219.896C117.337 219.544 117.583 219.114 117.714 218.643C117.844 218.171 117.855 217.675 117.745 217.199C117.635 216.723 117.407 216.282 117.082 215.916C116.586 215.371 115.896 215.041 115.16 214.997H112.546L83.6849 215.11C83.074 215.108 82.4809 215.315 82.0043 215.698C81.5278 216.08 81.1966 216.614 81.066 217.211C80.9354 217.808 81.0133 218.432 81.2867 218.979C81.56 219.525 82.0124 219.962 82.5683 220.215C83.1314 220.447 83.7436 220.535 84.3491 220.469H90.0026L102.977 220.54L111.726 220.653L114.114 220.724C114.39 220.716 114.666 220.745 114.934 220.809C114.661 220.83 114.387 220.83 114.114 220.809L111.726 220.88L102.977 220.993L90.0026 221.077H84.3491C83.637 221.145 82.9192 221.038 82.2574 220.766C81.5683 220.439 81.0072 219.892 80.662 219.211C80.3167 218.531 80.2068 217.755 80.3494 217.005C80.5336 216.261 80.963 215.601 81.5682 215.132C82.1734 214.662 82.9191 214.411 83.6849 214.417L112.546 214.53C113.478 214.53 114.341 214.53 115.203 214.53C115.746 214.573 116.27 214.754 116.724 215.054C117.179 215.355 117.55 215.766 117.803 216.249C118.056 216.732 118.182 217.272 118.169 217.817C118.157 218.362 118.007 218.895 117.733 219.366C117.525 219.721 117.248 220.029 116.918 220.272C116.587 220.515 116.21 220.688 115.81 220.781C115.536 220.863 115.247 220.887 114.962 220.851Z" fill="#263238"/>
<path d="M28.437 275.773C38.3347 275.773 46.3583 267.745 46.3583 257.843C46.3583 247.94 38.3347 239.912 28.437 239.912C18.5393 239.912 10.5156 247.94 10.5156 257.843C10.5156 267.745 18.5393 275.773 28.437 275.773Z" fill="#263238"/>
<path d="M38.4008 258.423C38.316 258.423 38.4008 257.532 37.9486 256.033C37.3544 253.906 36.072 252.036 34.3021 250.716C33.1005 249.807 31.7007 249.197 30.2175 248.934C28.5204 248.638 26.7753 248.794 25.1577 249.387C23.3712 250.039 21.8206 251.211 20.7056 252.752C19.5086 254.395 18.8636 256.376 18.8636 258.409C18.8636 260.442 19.5086 262.422 20.7056 264.065C21.8206 265.606 23.3712 266.778 25.1577 267.431C26.7753 268.023 28.5204 268.179 30.2175 267.883C31.6976 267.619 33.096 267.014 34.3021 266.115C36.0689 264.792 37.3505 262.924 37.9486 260.798C38.3584 259.285 38.316 258.395 38.4008 258.395C38.4367 258.605 38.4367 258.82 38.4008 259.031C38.3947 259.649 38.3236 260.266 38.1888 260.869C37.6744 263.114 36.4013 265.112 34.5848 266.526C33.5053 267.359 32.2704 267.969 30.9525 268.319C29.6345 268.669 28.26 268.752 26.9095 268.564C25.559 268.375 24.2596 267.919 23.0875 267.222C21.9155 266.525 20.8942 265.601 20.0837 264.503C18.781 262.736 18.0781 260.598 18.0781 258.402C18.0781 256.206 18.781 254.067 20.0837 252.3C21.2239 250.722 22.7936 249.505 24.6057 248.795C26.4178 248.084 28.3959 247.91 30.3041 248.293C32.2123 248.676 33.9702 249.6 35.3682 250.955C36.7662 252.31 37.7453 254.038 38.1888 255.934C38.3242 256.533 38.3953 257.144 38.4008 257.758C38.4415 257.978 38.4415 258.203 38.4008 258.423Z" fill="#455A64"/>
<path d="M114.341 136.657L134.891 159.013L142.071 151.66L121.662 129.897L114.341 136.657Z" fill="#263238"/>
<path d="M145.646 116.845L136.262 125.796C135.965 126.098 135.798 126.504 135.798 126.928C135.798 127.351 135.965 127.757 136.262 128.059L144.247 136.544C144.396 136.697 144.574 136.818 144.771 136.901C144.967 136.984 145.179 137.027 145.392 137.027C145.605 137.027 145.817 136.984 146.013 136.901C146.21 136.818 146.388 136.697 146.537 136.544L156.035 127.168C156.186 127.018 156.306 126.84 156.388 126.643C156.47 126.447 156.512 126.236 156.512 126.023C156.512 125.81 156.47 125.599 156.388 125.402C156.306 125.206 156.186 125.027 156.035 124.877L147.894 116.845C147.593 116.553 147.19 116.389 146.77 116.389C146.35 116.389 145.947 116.553 145.646 116.845Z" fill="#263238"/>
<path d="M137.095 127.648C136.869 127.988 126.594 137.957 126.594 137.957L134.749 146.3L145.095 136.02L137.095 127.648Z" fill="#263238"/>
<path d="M138.749 315.905H0V321.208H138.749V315.905Z" fill="#263238"/>
<path d="M106.228 268.393H74.5264V283.042H106.228V268.393Z" fill="#455A64"/>
<path d="M77.9605 283.042C77.5974 280.647 77.4743 278.221 77.5931 275.802C77.4752 273.382 77.5983 270.957 77.9605 268.562C78.3313 270.956 78.4544 273.382 78.328 275.802C78.4552 278.221 78.3321 280.647 77.9605 283.042Z" fill="#263238"/>
<path d="M83.2749 283.042C82.9033 280.647 82.7802 278.221 82.9074 275.802C82.781 273.382 82.9041 270.956 83.2749 268.562C83.6371 270.957 83.7602 273.382 83.6423 275.802C83.7611 278.221 83.638 280.647 83.2749 283.042Z" fill="#263238"/>
<path d="M88.5752 283.042C88.2036 280.647 88.0805 278.221 88.2077 275.802C88.0813 273.382 88.2044 270.956 88.5752 268.562C88.9374 270.957 89.0605 273.382 88.9426 275.802C89.0614 278.221 88.9382 280.647 88.5752 283.042Z" fill="#263238"/>
<path d="M93.8751 283.042C93.512 280.647 93.3889 278.221 93.5076 275.802C93.3897 273.382 93.5128 270.957 93.8751 268.562C94.2373 270.957 94.3604 273.382 94.2426 275.802C94.3613 278.221 94.2382 280.647 93.8751 283.042Z" fill="#263238"/>
<path d="M99.1754 283.042C98.8123 280.647 98.6892 278.221 98.8079 275.802C98.69 273.382 98.8131 270.957 99.1754 268.562C99.5461 270.956 99.6692 273.382 99.5428 275.802C99.6701 278.221 99.5469 280.647 99.1754 283.042Z" fill="#263238"/>
<path d="M104.475 283.042C104.112 280.647 103.989 278.221 104.108 275.802C103.99 273.382 104.113 270.957 104.475 268.562C104.846 270.956 104.969 273.382 104.843 275.802C104.97 278.221 104.847 280.647 104.475 283.042Z" fill="#263238"/>
<path d="M176.486 321.986L195.92 321.647L194.789 290.382C194.789 290.382 158.042 284.725 155.653 285.432L145.661 320.968C145.661 320.968 175.596 321.986 176.486 321.986Z" fill="#FFBE9D"/>
<path d="M147.992 321.533C147.992 321.533 148.275 321.646 148.685 321.688C152.134 322.056 168.02 321.094 168.02 321.094C168.755 319.044 167.369 312.864 165.391 312.511C163.412 312.157 146.508 313.289 146.508 313.289C146.508 313.289 143.837 313.642 143.173 318.125C142.749 320.882 147.992 321.533 147.992 321.533Z" fill="#FFBE9D"/>
<path d="M142.622 312.482C142.622 312.553 142.904 312.596 143.314 312.652C146.763 313.02 161.787 312.864 162.437 311.026C163.087 309.188 161.999 303.828 160.02 303.475C158.041 303.121 141.138 304.252 141.138 304.252C141.138 304.252 138.466 304.606 137.802 309.074C137.392 311.846 142.622 312.482 142.622 312.482Z" fill="#FFBE9D"/>
<path d="M139.922 303.659C139.922 303.659 140.191 303.772 140.615 303.815C144.049 304.196 159.073 304.027 159.723 302.203C160.458 300.138 159.299 295.005 157.321 294.637C155.342 294.27 138.424 295.415 138.424 295.415C138.424 295.415 135.767 295.768 135.103 300.251C134.735 303.023 139.922 303.659 139.922 303.659Z" fill="#FFBE9D"/>
<path d="M137.449 294.877C137.669 294.983 137.911 295.036 138.156 295.033C141.59 295.415 156.614 295.245 157.264 293.407C157.999 291.356 156.84 286.209 154.862 285.856C152.883 285.502 135.965 286.633 135.965 286.633C135.965 286.633 133.294 286.987 132.644 291.469C132.234 294.227 137.449 294.877 137.449 294.877Z" fill="#FFBE9D"/>
<path d="M161.009 312.427C161.009 312.681 157.702 312.992 153.688 313.105C149.674 313.218 146.424 313.105 146.452 312.837C146.48 312.568 149.745 312.285 153.773 312.158C157.801 312.031 161.024 312.172 161.009 312.427Z" fill="#EB996E"/>
<path d="M161.123 303.503C161.123 303.757 156.473 304.125 150.721 304.309C144.968 304.493 140.304 304.422 140.29 304.168C140.276 303.913 144.94 303.545 150.692 303.362C156.445 303.178 161.123 303.305 161.123 303.503Z" fill="#EB996E"/>
<g opacity="0.78">
<path opacity="0.78" d="M160.373 294.552C160.373 294.807 155.723 295.174 149.971 295.358C144.219 295.542 139.555 295.471 139.541 295.217C139.526 294.962 144.19 294.595 149.943 294.411C155.695 294.227 160.359 294.284 160.373 294.552Z" fill="#EB996E"/>
</g>
<path d="M184.486 288.981C184.486 288.981 156.12 276.368 154.353 278.178C152.586 279.988 149.844 285.87 149.844 285.87L184.486 288.981Z" fill="#FFBE9D"/>
</g>
<defs>
<clipPath id="clip0">
<rect width="349" height="290" fill="white" transform="translate(0 32)"/>
</clipPath>
</defs>
</svg>
