<svg width="244" height="223" viewBox="0 0 244 223" fill="none" xmlns="http://www.w3.org/2000/svg">
<g clip-path="url(#clip0)">
<path d="M132.891 18.9729C105.833 14.3091 103.316 38.8848 103.5 45.9434C103.684 52.9946 106.083 59.2476 108.555 65.8479C111.028 72.4483 109.46 81.4582 107.378 88.199C104.942 96.0854 97.1861 103.321 99.9603 111.097C102.138 117.202 110.167 120.195 111.153 126.604C111.933 131.681 107.864 136.094 106.362 141.002C103.529 150.256 110.02 159.531 116.12 167.026C118.637 170.123 121.691 173.486 125.664 173.538C131.161 173.612 134.429 167.632 136.908 162.702C143.774 149.073 154.017 137.173 166.461 128.385" fill="#263238"/>
<path d="M116.252 55.7743C116.267 55.8112 115.656 56.1217 114.582 56.3804C113.515 56.6391 111.97 56.7795 110.299 56.5208C108.629 56.2547 107.201 55.6339 106.267 55.0573C105.325 54.4808 104.839 53.993 104.868 53.9634C104.905 53.9117 105.45 54.3182 106.399 54.8208C107.348 55.3234 108.739 55.8778 110.358 56.1365C111.977 56.3878 113.471 56.2991 114.53 56.1143C115.59 55.9369 116.23 55.7152 116.252 55.7743Z" fill="#455A64"/>
<path d="M108.136 118.318C108.136 118.318 107.503 117.66 106.62 116.271C105.759 114.881 104.692 112.701 104.11 109.796C103.529 106.921 103.47 103.269 104.751 99.5517C105.376 97.6965 106.355 95.8783 107.488 94.097C108.621 92.3083 109.894 90.5418 111.079 88.6571C113.449 84.895 114.869 80.815 115.354 76.9864C115.627 75.0794 115.708 73.239 115.627 71.5317C115.59 69.8169 115.34 68.2352 115.089 66.7939C114.516 63.9335 113.677 61.7014 112.985 60.2231C112.676 59.4618 112.345 58.9223 112.161 58.5305C111.969 58.1462 111.874 57.9392 111.881 57.9318C111.888 57.9245 112.014 58.1166 112.227 58.4936C112.433 58.8705 112.786 59.4101 113.117 60.164C113.853 61.6275 114.736 63.8596 115.347 66.7422C115.612 68.1908 115.877 69.7873 115.936 71.5169C116.031 73.2464 115.958 75.109 115.693 77.0381C115.215 80.9037 113.787 85.0576 111.388 88.864C110.196 90.7636 108.916 92.5301 107.79 94.304C106.664 96.0705 105.692 97.8591 105.074 99.67C103.801 103.306 103.831 106.899 104.368 109.744C104.905 112.612 105.921 114.785 106.737 116.189C107.584 117.594 108.172 118.281 108.136 118.318Z" fill="#455A64"/>
<path d="M197.567 91.4805C197.567 91.4805 211.136 91.4805 220.371 111.355C227.222 126.101 246.76 176.302 243.676 190.404C242.985 193.568 241.012 200.597 235.979 200.693C227.406 200.856 221.409 200.382 221.409 200.382L210.444 174.92L199.87 138.585C199.87 138.592 182.842 94.9174 197.567 91.4805Z" fill="white"/>
<path d="M214.537 199.584L211.137 176.56L197.567 91.4803L180.701 90.209L149 96.5359C149 96.5359 130.294 99.581 120.698 106.462C120.698 106.462 123.546 153.042 123.708 157.89C124.061 168.497 130.64 178.002 137.248 186.428L138.992 188.645L138.094 201.994L214.537 199.584Z" fill="white"/>
<path d="M135.239 99.8623C135.239 99.8623 121.905 102.774 113.325 113.906C106.4 122.886 74.1249 162.887 74.1249 162.887C74.1249 162.887 57.531 172.215 54.4477 181.846C51.3644 191.476 54.4919 200.013 61.6887 200.013C68.8855 200.013 87.4736 195.068 87.4736 195.068L123.605 153.508L124.422 160.662L132.693 124.342L135.239 99.8623Z" fill="white"/>
<path d="M196.323 128.199C196.338 128.199 196.39 128.347 196.478 128.643C196.574 128.975 196.699 129.404 196.853 129.936C197.192 131.111 197.648 132.73 198.215 134.703C199.377 138.724 201.033 144.275 202.895 150.388C204.764 156.478 206.456 161.992 207.7 166.035C208.303 168.001 208.789 169.612 209.142 170.78C209.297 171.312 209.422 171.741 209.518 172.073C209.598 172.369 209.635 172.532 209.628 172.532C209.613 172.539 209.554 172.384 209.444 172.096C209.326 171.763 209.179 171.342 208.995 170.824C208.612 169.664 208.083 168.067 207.435 166.116C206.14 162.132 204.381 156.618 202.519 150.498C200.658 144.386 199.039 138.828 197.942 134.777C197.398 132.752 196.964 131.111 196.699 129.973C196.574 129.434 196.471 128.997 196.39 128.657C196.345 128.369 196.316 128.207 196.323 128.199Z" fill="#263238"/>
<path d="M183.844 174.491C183.851 174.521 183.52 174.594 182.909 174.713C182.607 174.772 182.232 174.838 181.798 174.883C181.364 174.927 180.863 175.001 180.311 175.016C179.208 175.09 177.89 175.075 176.433 174.949C174.976 174.801 173.387 174.528 171.761 174.077C170.134 173.611 168.633 173.013 167.316 172.384C166.006 171.734 164.865 171.061 163.96 170.418C163.497 170.115 163.107 169.798 162.761 169.531C162.408 169.265 162.128 169.021 161.9 168.807C161.444 168.393 161.201 168.157 161.215 168.135C161.267 168.075 162.275 168.999 164.115 170.197C165.027 170.803 166.168 171.438 167.47 172.067C168.78 172.673 170.267 173.249 171.871 173.707C173.475 174.151 175.042 174.424 176.477 174.594C177.912 174.735 179.215 174.787 180.311 174.742C182.49 174.676 183.829 174.417 183.844 174.491Z" fill="#263238"/>
<path d="M126.269 129.752C126.283 129.759 126.254 129.9 126.195 130.173C126.121 130.484 126.026 130.883 125.908 131.363C125.776 131.873 125.621 132.509 125.467 133.241C125.312 133.98 125.106 134.808 124.944 135.746C124.576 137.609 124.245 139.841 123.98 142.332C123.745 144.823 123.583 147.572 123.597 150.462C123.634 153.352 123.833 156.102 124.113 158.592C124.422 161.076 124.79 163.308 125.187 165.156C125.364 166.087 125.577 166.915 125.746 167.654C125.908 168.386 126.077 169.014 126.217 169.524C126.342 170.004 126.445 170.396 126.526 170.707C126.592 170.98 126.622 171.121 126.607 171.128C126.592 171.135 126.541 170.995 126.453 170.729C126.357 170.426 126.232 170.034 126.077 169.561C125.915 169.058 125.724 168.43 125.54 167.698C125.349 166.967 125.113 166.139 124.922 165.208C124.488 163.352 124.09 161.12 123.759 158.629C123.458 156.131 123.244 153.367 123.215 150.462C123.2 147.557 123.369 144.793 123.627 142.287C123.914 139.789 124.274 137.55 124.679 135.687C124.856 134.748 125.077 133.921 125.253 133.189C125.422 132.45 125.606 131.829 125.761 131.319C125.908 130.846 126.026 130.454 126.114 130.151C126.202 129.885 126.254 129.752 126.269 129.752Z" fill="#263238"/>
<path d="M200.496 94.6211C200.533 94.6876 199.363 95.1902 197.766 96.4393C196.177 97.6736 194.212 99.758 192.953 102.581C191.695 105.405 191.46 108.273 191.599 110.283C191.732 112.308 192.137 113.52 192.063 113.535C192.041 113.543 191.923 113.247 191.761 112.693C191.599 112.138 191.43 111.325 191.32 110.298C191.099 108.258 191.298 105.316 192.593 102.419C193.881 99.5215 195.934 97.4076 197.597 96.2176C198.428 95.6115 199.149 95.1976 199.665 94.9463C200.187 94.7024 200.481 94.5989 200.496 94.6211Z" fill="#263238"/>
<path d="M198.752 137.926C198.752 137.926 198.657 138.199 198.37 138.672C198.09 139.138 197.582 139.803 196.751 140.439C195.927 141.082 194.771 141.695 193.329 142.05C191.887 142.42 190.157 142.471 188.318 142.154C186.471 141.843 184.535 141.178 182.504 140.38C180.473 139.589 178.332 138.665 175.97 138.096C174.792 137.815 173.556 137.63 172.29 137.645C171.032 137.667 169.744 137.874 168.486 138.273C165.962 139.057 163.6 140.528 161.289 142.131C158.978 143.75 156.786 145.465 154.438 146.773C152.113 148.089 149.626 149.064 147.138 149.22C145.902 149.301 144.673 149.175 143.54 148.88C142.399 148.577 141.347 148.126 140.376 147.631C138.426 146.618 136.77 145.428 135.217 144.415C132.156 142.338 129.33 141.193 127.27 141.008C125.209 140.786 124.098 141.252 124.091 141.178C124.091 141.171 124.157 141.148 124.289 141.111C124.422 141.075 124.621 141.008 124.893 140.964C125.43 140.86 126.24 140.772 127.284 140.86C129.382 141.001 132.274 142.131 135.364 144.194C136.924 145.191 138.587 146.367 140.523 147.35C141.487 147.837 142.524 148.266 143.628 148.554C144.739 148.835 145.917 148.954 147.124 148.872C149.537 148.717 151.966 147.764 154.262 146.455C156.58 145.154 158.75 143.455 161.076 141.828C163.394 140.21 165.785 138.724 168.376 137.926C169.663 137.519 170.988 137.312 172.283 137.29C173.585 137.283 174.851 137.475 176.051 137.763C178.45 138.355 180.598 139.293 182.622 140.092C184.638 140.897 186.552 141.57 188.362 141.895C190.172 142.228 191.857 142.198 193.27 141.851C194.69 141.525 195.831 140.941 196.655 140.328C197.487 139.722 197.994 139.086 198.296 138.635C198.612 138.177 198.738 137.918 198.752 137.926Z" fill="#FAFAFA"/>
<path d="M226.914 127.121C226.928 127.128 226.877 127.224 226.767 127.409C226.671 127.601 226.487 127.853 226.237 128.178C225.729 128.806 224.824 129.612 223.514 130.247C222.204 130.883 220.504 131.327 218.584 131.408C216.663 131.497 214.573 131.194 212.417 130.839C210.261 130.484 208.208 130.137 206.331 130.137C204.455 130.129 202.77 130.44 201.453 130.95C200.128 131.452 199.171 132.132 198.597 132.672C198.016 133.211 197.759 133.581 197.729 133.559C197.722 133.551 197.781 133.455 197.898 133.285C198.016 133.108 198.215 132.864 198.494 132.568C199.054 131.984 200.01 131.253 201.357 130.698C202.704 130.144 204.426 129.797 206.339 129.789C208.259 129.774 210.335 130.114 212.491 130.469C214.647 130.824 216.707 131.134 218.576 131.068C220.445 131.001 222.116 130.602 223.404 130.018C224.691 129.427 225.597 128.688 226.126 128.097C226.656 127.491 226.877 127.099 226.914 127.121Z" fill="#FAFAFA"/>
<path d="M232.97 145.347C232.985 145.354 232.941 145.458 232.845 145.658C232.75 145.85 232.625 146.153 232.404 146.5C231.992 147.217 231.3 148.215 230.211 149.235C229.674 149.752 229.034 150.255 228.305 150.743C227.569 151.216 226.745 151.659 225.825 152.021C224 152.738 221.793 153.1 219.533 152.834C217.274 152.598 215.214 151.992 213.323 151.585C211.439 151.157 209.702 150.95 208.253 151.009C206.796 151.053 205.648 151.356 204.89 151.652C204.132 151.947 203.749 152.199 203.727 152.169C203.72 152.154 203.808 152.088 203.992 151.97C204.168 151.844 204.455 151.689 204.831 151.519C205.581 151.171 206.751 150.817 208.238 150.743C209.717 150.654 211.49 150.831 213.396 151.245C215.302 151.637 217.363 152.221 219.578 152.457C221.785 152.716 223.912 152.376 225.7 151.696C226.59 151.349 227.407 150.927 228.136 150.477C228.85 150.011 229.49 149.53 230.027 149.035C231.116 148.06 231.83 147.106 232.279 146.419C232.728 145.739 232.934 145.332 232.97 145.347Z" fill="#FAFAFA"/>
<path d="M126.232 168.016C126.195 167.957 127.483 167.89 129.109 166.471C129.926 165.791 130.787 164.808 131.825 163.7C132.87 162.591 134.216 161.46 135.865 160.47C137.528 159.509 139.507 158.681 141.766 158.385C142.892 158.23 144.07 158.208 145.277 158.371C146.483 158.526 147.683 158.895 148.853 159.376C151.215 160.337 153.467 161.77 155.954 162.879C157.198 163.426 158.515 163.884 159.898 164.062C160.59 164.158 161.289 164.165 161.988 164.121C162.687 164.054 163.386 163.914 164.078 163.714C166.845 162.901 169.237 161.297 171.687 160.048C174.137 158.777 176.632 157.816 179.075 157.136C183.961 155.761 188.56 155.436 192.38 155.636C196.206 155.843 199.245 156.53 201.291 157.121C202.321 157.402 203.101 157.691 203.631 157.89C203.874 157.979 204.073 158.053 204.227 158.112C204.36 158.164 204.426 158.193 204.426 158.201C204.426 158.208 204.352 158.186 204.212 158.149C204.058 158.097 203.852 158.038 203.602 157.964C203.064 157.794 202.284 157.528 201.247 157.269C199.194 156.722 196.162 156.087 192.365 155.909C188.575 155.747 184.005 156.094 179.171 157.476C176.757 158.164 174.285 159.117 171.864 160.381C169.435 161.623 167.036 163.241 164.188 164.084C163.482 164.283 162.753 164.431 162.025 164.498C161.296 164.55 160.561 164.542 159.847 164.439C158.412 164.254 157.065 163.781 155.8 163.227C153.275 162.096 151.031 160.662 148.713 159.708C147.558 159.228 146.388 158.866 145.225 158.703C144.055 158.541 142.907 158.555 141.803 158.696C139.596 158.977 137.646 159.767 135.997 160.699C134.364 161.652 133.024 162.753 131.972 163.84C130.92 164.927 130.037 165.91 129.198 166.582C128.366 167.262 127.608 167.646 127.064 167.824C126.534 168.001 126.232 168.016 126.232 168.016Z" fill="#FAFAFA"/>
<path d="M117.328 160.048C117.299 160.1 117.005 159.59 116.122 159.412C115.687 159.331 115.136 159.338 114.503 159.442C113.87 159.53 113.156 159.708 112.339 159.826C111.522 159.93 110.58 159.885 109.646 159.582C108.711 159.279 107.799 158.74 106.96 158.037C106.121 157.335 105.371 156.448 104.708 155.458C104.061 154.46 103.538 153.337 103.067 152.184C102.125 149.863 101.419 147.594 100.374 145.724C99.3806 143.831 97.953 142.464 96.5769 141.644C95.8925 141.23 95.2082 140.964 94.5974 140.801C93.9793 140.661 93.4274 140.609 92.9785 140.631C92.0807 140.675 91.6024 140.875 91.5951 140.831C91.5877 140.816 91.7054 140.772 91.9336 140.69C92.1617 140.602 92.5075 140.528 92.9711 140.483C93.4274 140.439 94.0013 140.468 94.6489 140.594C95.2891 140.742 95.9955 141.001 96.7167 141.407C98.1516 142.22 99.6455 143.617 100.683 145.554C101.765 147.453 102.493 149.744 103.42 152.036C103.891 153.181 104.399 154.283 105.025 155.251C105.665 156.212 106.386 157.077 107.188 157.764C107.99 158.451 108.859 158.976 109.749 159.279C110.632 159.582 111.515 159.641 112.31 159.56C113.892 159.346 115.231 159.013 116.158 159.272C116.615 159.383 116.924 159.597 117.1 159.76C117.262 159.937 117.336 160.04 117.328 160.048Z" fill="#FAFAFA"/>
<path d="M124.319 138.259C124.326 138.274 124.238 138.311 124.076 138.37C123.914 138.444 123.664 138.51 123.332 138.577C122.678 138.71 121.669 138.71 120.514 138.355C119.359 138 118.086 137.283 116.901 136.219C115.716 135.155 114.671 133.75 113.582 132.309C112.493 130.868 111.426 129.515 110.227 128.539C109.027 127.571 107.739 126.965 106.613 126.714C105.48 126.455 104.516 126.536 103.891 126.714C103.258 126.884 102.941 127.069 102.919 127.032C102.912 127.017 102.993 126.972 103.14 126.884C103.287 126.788 103.53 126.684 103.847 126.573C104.479 126.352 105.48 126.219 106.665 126.455C107.85 126.684 109.196 127.283 110.447 128.273C111.698 129.271 112.795 130.646 113.884 132.087C114.973 133.536 115.996 134.918 117.136 135.968C118.27 137.01 119.491 137.734 120.595 138.104C121.699 138.481 122.663 138.518 123.303 138.436C123.958 138.355 124.304 138.222 124.319 138.259Z" fill="#FAFAFA"/>
<path d="M158.919 30.7992C150.368 11.4268 125.245 22.9349 125.245 22.9349C113.398 27.3031 111.72 40.6886 114.457 49.8167C117.497 59.9575 121.603 72.2269 125.503 79.182C133.347 93.1735 145.393 90.8379 145.393 90.8379L149.419 100.801C152.943 109.523 162.885 113.677 171.524 110.033C179.898 106.507 183.975 96.943 180.745 88.421L158.919 30.7992Z" fill="#FFBE9D"/>
<path d="M121.426 59.7286C121.765 60.7485 122.898 61.3029 123.965 60.9703C125.032 60.6377 125.621 59.5438 125.289 58.5238C124.951 57.5038 123.818 56.9495 122.751 57.2821C121.684 57.6147 121.095 58.7086 121.426 59.7286Z" fill="#263238"/>
<path d="M119.667 57.1711C119.991 57.3337 121.036 55.7298 123.082 54.9685C125.113 54.1851 127.004 54.6803 127.129 54.3477C127.195 54.1925 126.79 53.8377 125.959 53.6012C125.142 53.3647 123.876 53.3129 122.603 53.7933C121.33 54.2738 120.44 55.1459 119.998 55.8555C119.557 56.5724 119.505 57.1046 119.667 57.1711Z" fill="#263238"/>
<path d="M140.558 53.5723C140.897 54.5923 142.03 55.1466 143.097 54.814C144.164 54.4814 144.753 53.3875 144.422 52.3675C144.083 51.3476 142.95 50.7932 141.883 51.1258C140.809 51.451 140.22 52.5523 140.558 53.5723Z" fill="#263238"/>
<path d="M139.757 49.6838C140.088 49.8464 141.133 48.2351 143.171 47.4812C145.202 46.6978 147.093 47.193 147.218 46.8604C147.285 46.7052 146.88 46.3504 146.048 46.1139C145.232 45.8773 143.966 45.8256 142.693 46.306C141.42 46.7865 140.529 47.6586 140.088 48.3682C139.646 49.0851 139.602 49.6173 139.757 49.6838Z" fill="#263238"/>
<path d="M138.47 67.7182C138.433 67.6 137.086 67.8513 134.93 68.3539C134.386 68.4943 133.856 68.5756 133.635 68.2504C133.37 67.9178 133.385 67.2747 133.407 66.5652C133.429 65.1165 133.451 63.5939 133.473 61.9974C133.517 55.5153 133.341 50.2676 133.083 50.2676C132.826 50.2676 132.575 55.5227 132.531 61.9974C132.531 63.5939 132.531 65.1091 132.539 66.5652C132.561 67.2378 132.472 68.036 133.024 68.7234C133.311 69.0634 133.797 69.2038 134.165 69.1669C134.54 69.1447 134.835 69.0412 135.099 68.9599C137.211 68.3095 138.499 67.8365 138.47 67.7182Z" fill="#263238"/>
<path d="M145.401 90.8456C145.401 90.8456 155.601 87.7782 163.268 78.1475C163.268 78.1475 162.091 90.2025 146.755 94.3342L145.401 90.8456Z" fill="#EB996E"/>
<path d="M141.949 74.4368C141.338 73.9712 141.059 73.1138 141.272 72.3747C141.486 71.6355 142.177 71.059 142.935 70.9925C142.582 70.3273 142.832 69.433 143.414 68.9525C143.995 68.4721 144.826 68.3686 145.555 68.5608C146.968 68.9304 147.991 70.3864 147.939 71.8499C147.888 73.3133 146.813 74.6659 145.422 75.1094C144.032 75.5529 142.42 75.102 141.397 74.0525" fill="#EB996E"/>
<path d="M145.003 66.8979C144.665 67.0014 145.482 69.2336 144.172 71.5174C142.862 73.8087 140.404 74.437 140.507 74.7548C140.529 74.9026 141.191 74.9913 142.2 74.6439C143.193 74.3113 144.503 73.4613 145.305 72.0644C146.107 70.6601 146.122 69.1818 145.864 68.2431C145.599 67.2897 145.15 66.8314 145.003 66.8979Z" fill="#263238"/>
<path d="M136.645 46.7576C137.049 47.238 138.992 46.218 141.501 45.6119C143.996 44.9615 146.189 44.9393 146.321 44.3259C146.373 44.0302 145.843 43.6311 144.864 43.3872C143.893 43.1359 142.465 43.0841 140.964 43.4611C139.47 43.8381 138.234 44.5624 137.491 45.2424C136.74 45.9224 136.461 46.5211 136.645 46.7576Z" fill="#263238"/>
<path d="M116.857 50.6812C117.387 51.0138 118.615 50.0086 120.301 49.3507C121.964 48.6412 123.538 48.5008 123.693 47.8873C123.752 47.599 123.354 47.2147 122.56 47.0077C121.78 46.8008 120.617 46.8229 119.462 47.2886C118.314 47.7616 117.46 48.5599 117.048 49.2547C116.636 49.9568 116.614 50.5112 116.857 50.6812Z" fill="#263238"/>
<path d="M148.462 54.9093C148.455 55.168 148.249 55.375 147.998 55.3676C147.748 55.3602 147.549 55.1459 147.557 54.8872C147.564 54.6285 147.77 54.4215 148.028 54.4289C148.271 54.4363 148.469 54.6506 148.462 54.9093Z" fill="#263238"/>
<path d="M197.566 91.4807C197.566 91.4438 196.08 75.7005 183.982 64.8502C171.877 53.9851 188.279 49.7869 177.756 35.4554C174.283 30.725 170.42 26.4233 165.445 23.3338C164.562 22.7869 163.738 22.1364 162.965 21.4564C160.912 19.6382 159.124 17.5095 156.895 15.913C155.217 14.7157 153.186 13.8435 151.169 13.8139C149.948 13.3113 148.668 12.927 147.321 12.7274C141.419 11.8331 135.569 14.2205 130.065 16.5487C124.744 18.803 110.439 18.2634 114.965 32.9498C115.907 30.5033 119.564 28.4855 122.434 30.8876C124.435 32.5654 125.451 34.0437 125.929 36.6158C126.569 40.0379 127.57 43.8296 131.698 44.7092C132.699 44.9235 133.751 44.894 134.76 44.6648C138.203 43.8888 140.97 38.6558 147.549 39.8975C147.549 39.8975 153.951 41.8931 154.326 45.9361C154.702 49.9791 152.472 57.4886 156.416 61.0659C160.361 64.6433 161.023 64.5398 160.912 67.6293C160.89 68.3389 160.883 68.8267 160.846 69.1814C160.346 74.067 159.507 95.3094 181.083 91.7025L188.338 91.259L197.566 91.4807Z" fill="#263238"/>
<path d="M152.281 15.965C153.231 11.5081 155.335 7.2286 158.698 4.17603C162.061 1.12346 166.756 -0.569122 171.23 0.17739C175.704 0.923901 179.766 4.31646 180.818 8.75119C181.871 13.1785 179.486 18.3228 175.248 19.9341C172.039 21.1536 168.47 20.3554 165.041 20.2741C161.612 20.1928 157.594 21.3015 156.387 24.524" fill="#263238"/>
<path d="M165.998 19.1579C165.909 18.2562 165.144 17.5614 164.313 17.2067C163.488 16.8519 162.576 16.7484 161.715 16.4823C160.457 16.098 159.309 15.3662 158.433 14.3906C157.697 13.5776 157.153 12.6019 156.431 11.7741C155.71 10.9463 154.732 10.2441 153.635 10.2441C152.767 10.2441 151.913 10.7246 151.457 11.4637C151.001 12.2028 150.964 13.1858 151.354 13.9693C154.121 16.2384 156.924 18.6775 160.074 20.3775C161.178 20.9688 162.355 21.5749 163.599 21.5009C164.842 21.427 166.123 20.407 165.998 19.1579Z" fill="white"/>
<path d="M205.941 93.8913C205.926 93.8913 205.948 93.677 205.992 93.2779C206.051 92.8787 206.088 92.2874 206.132 91.5261C206.198 90.0109 206.117 87.7788 205.448 85.1475C204.785 82.5237 203.476 79.4785 201.172 76.729C198.891 73.9499 195.594 71.6955 192.092 69.4782C188.582 67.2682 185.219 65.0582 182.776 62.3457C181.547 61.0079 180.553 59.5592 179.869 58.0883C179.177 56.6175 178.831 55.1171 178.721 53.7423C178.478 50.9706 179.258 48.7459 180.06 47.4524C180.472 46.802 180.862 46.3437 181.149 46.0628C181.444 45.782 181.598 45.6415 181.605 45.6563C181.65 45.6933 180.965 46.2255 180.185 47.5337C179.427 48.8272 178.714 51.0076 178.986 53.7201C179.111 55.0653 179.464 56.5214 180.148 57.9553C180.825 59.3892 181.812 60.8009 183.026 62.1091C185.447 64.7626 188.78 66.9504 192.29 69.1604C195.793 71.3703 199.127 73.6616 201.437 76.5072C203.763 79.3159 205.065 82.4202 205.705 85.0884C206.353 87.764 206.39 90.0183 206.279 91.5409C206.213 92.3022 206.147 92.8935 206.066 93.2926C205.992 93.6918 205.955 93.8987 205.941 93.8913Z" fill="#263238"/>
<path d="M159.331 19.8459C159.345 19.8533 159.257 20.0455 159.08 20.4003C158.911 20.7624 158.639 21.2798 158.256 21.9376C157.491 23.2459 156.291 25.1011 154.459 27.1041C152.649 29.1219 150.206 31.2875 147.123 33.1353C145.577 34.0444 143.899 34.924 142.03 35.5301C140.176 36.1214 138.101 36.4983 136.018 36.0918C134.988 35.8848 134.002 35.4709 133.163 34.8722C132.324 34.2809 131.632 33.5197 131.051 32.7214C129.903 31.1101 129.145 29.3732 128.284 27.821C127.857 27.045 127.401 26.3058 126.901 25.6332C126.408 24.9532 125.819 24.3989 125.223 23.8963C123.994 22.9281 122.633 22.322 121.352 21.982C118.762 21.302 116.525 21.6642 115.127 22.1446C113.707 22.6324 113.03 23.1424 113 23.0981C112.993 23.0833 113.162 22.9724 113.501 22.7581C113.663 22.6472 113.883 22.5215 114.148 22.4033C114.406 22.2702 114.715 22.1224 115.075 22.0042C116.481 21.472 118.755 21.0581 121.419 21.7159C122.736 22.0485 124.141 22.6546 125.422 23.645C126.04 24.1624 126.658 24.7389 127.166 25.4263C127.688 26.1063 128.152 26.8602 128.586 27.6436C129.469 29.2106 130.227 30.9327 131.353 32.4923C131.912 33.2683 132.574 33.9927 133.376 34.5544C134.171 35.1235 135.098 35.5153 136.084 35.7148C138.064 36.1066 140.088 35.7518 141.905 35.1753C143.73 34.584 145.401 33.7266 146.931 32.8323C149.992 31.0288 152.428 28.9001 154.246 26.9267C156.085 24.9606 157.307 23.135 158.109 21.8637C158.506 21.2207 158.801 20.7181 158.992 20.3707C159.213 20.0159 159.323 19.8385 159.331 19.8459Z" fill="#455A64"/>
<path d="M161.465 21.3164C161.494 21.3164 161.546 21.6786 161.619 22.3438C161.649 22.6764 161.649 23.0829 161.663 23.5633C161.641 24.0364 161.634 24.5833 161.546 25.1746C161.296 27.5398 160.243 30.8363 157.896 33.6819C156.733 35.101 155.394 36.2466 154.04 37.0818C152.693 37.9244 151.376 38.4566 150.287 38.9296C149.198 39.3879 148.322 39.7722 147.726 40.0605C147.13 40.3488 146.806 40.5188 146.792 40.4892C146.777 40.467 147.079 40.2527 147.66 39.9275C148.241 39.6022 149.102 39.1736 150.177 38.6783C151.244 38.1757 152.546 37.6214 153.849 36.7788C155.158 35.951 156.461 34.8201 157.594 33.438C159.89 30.6663 160.957 27.4585 161.273 25.1451C161.634 22.802 161.376 21.3238 161.465 21.3164Z" fill="#455A64"/>
<path d="M185.587 90.1803C185.572 90.1803 185.579 89.9659 185.594 89.552C185.616 89.1455 185.646 88.5394 185.631 87.7633C185.609 86.2112 185.432 83.9495 184.704 81.2738C184.314 79.9434 183.806 78.5095 183.107 77.0387C182.393 75.5752 181.495 74.0748 180.384 72.6261C179.273 71.1775 177.934 69.7879 176.396 68.5388C174.85 67.2897 173.099 66.1662 171.451 64.8136C170.627 64.1337 169.847 63.4019 169.177 62.5963C168.5 61.7906 167.948 60.9037 167.521 59.9724C166.682 58.1098 166.329 56.1585 166.108 54.3255C165.895 52.4851 165.799 50.7334 165.63 49.1073C165.475 47.4813 165.174 45.9882 164.769 44.6652C163.967 42.0044 162.598 40.1344 161.399 39.1736C160.185 38.2201 159.316 38.0057 159.338 37.954C159.346 37.9392 159.544 38.0131 159.934 38.1536C160.317 38.3088 160.862 38.5897 161.494 39.0553C162.745 40.0014 164.188 41.8935 165.034 44.5839C165.461 45.9217 165.785 47.4369 165.954 49.0704C166.138 50.7038 166.241 52.4556 166.462 54.2812C166.697 56.0994 167.043 58.0063 167.867 59.8098C168.677 61.6206 170.067 63.1802 171.701 64.5032C173.327 65.841 175.071 66.9645 176.639 68.2358C178.199 69.5071 179.56 70.9262 180.679 72.4044C181.797 73.8826 182.695 75.4052 183.409 76.8909C184.1 78.3913 184.601 79.84 184.983 81.1925C185.69 83.9125 185.83 86.1964 185.8 87.7559C185.8 88.5394 185.741 89.1455 185.697 89.552C185.624 89.9659 185.594 90.1803 185.587 90.1803Z" fill="#455A64"/>
<path d="M180.001 6.15025C179.957 6.23894 178.801 5.21896 176.498 4.64984C174.239 4.06593 170.78 4.15463 167.594 5.86199C164.408 7.58414 162.318 10.2598 161.089 12.2702C160.471 13.2828 160.029 14.1401 159.742 14.7462C159.455 15.3449 159.301 15.6849 159.271 15.6701C159.249 15.6627 159.36 15.308 159.602 14.6797C159.853 14.0588 160.257 13.1719 160.853 12.1297C162.031 10.0676 164.135 7.30328 167.41 5.52939C170.692 3.76289 174.261 3.72594 176.557 4.39114C177.72 4.71636 178.603 5.15244 179.162 5.522C179.456 5.692 179.648 5.86938 179.795 5.97286C179.942 6.07634 180.008 6.14286 180.001 6.15025Z" fill="#455A64"/>
<path d="M178.765 15.2047C178.728 15.2638 177.896 14.6429 176.373 13.9925C174.872 13.3421 172.62 12.7286 170.111 12.869C167.601 13.0095 165.431 13.8595 164.01 14.6799C162.575 15.4929 161.817 16.2099 161.773 16.1507C161.759 16.136 161.928 15.9364 162.281 15.626C162.627 15.3081 163.164 14.8868 163.878 14.4434C165.291 13.549 167.513 12.6251 170.096 12.4847C172.679 12.3443 174.982 13.0095 176.491 13.7412C177.249 14.1034 177.83 14.4655 178.205 14.739C178.588 15.0125 178.779 15.1899 178.765 15.2047Z" fill="#455A64"/>
<path d="M130.926 223L65.8086 217.479L121.83 201.056L180.759 201.152L130.926 223Z" fill="white"/>
<path d="M130.926 222.999C130.926 222.999 131.235 222.844 131.831 222.578C132.442 222.305 133.325 221.913 134.473 221.396C136.805 220.361 140.205 218.853 144.539 216.931C153.237 213.095 165.674 207.618 180.693 201.003L180.759 201.314C163.804 201.292 143.583 201.277 121.83 201.247L121.882 201.24C120.307 201.705 118.607 202.201 116.9 202.703C98.4444 208.106 81.019 213.214 65.8601 217.648L65.8233 217.316C85.1767 218.986 101.447 220.39 112.882 221.381C118.593 221.883 123.096 222.283 126.187 222.556C127.717 222.696 128.902 222.807 129.704 222.881C130.094 222.918 130.396 222.948 130.609 222.97C130.823 222.985 130.926 222.999 130.926 222.999C130.926 222.999 130.823 223 130.624 222.985C130.411 222.97 130.116 222.948 129.726 222.918C128.917 222.859 127.739 222.763 126.209 222.645C123.118 222.393 118.615 222.031 112.904 221.566C101.454 220.612 85.1693 219.252 65.7939 217.641L64.874 217.567L65.7571 217.308C80.916 212.859 98.3341 207.744 116.782 202.326C118.49 201.824 120.189 201.329 121.764 200.863L121.794 200.855H121.823C143.575 200.9 163.804 200.944 180.752 200.981H181.524L180.818 201.292C165.762 207.862 153.296 213.302 144.576 217.109C140.227 218.993 136.82 220.472 134.48 221.484C133.325 221.98 132.434 222.364 131.824 222.623C131.235 222.881 130.926 222.999 130.926 222.999Z" fill="#263238"/>
<path d="M65.8082 217.478L3.1709 212.837L62.9089 201.491H119.519L65.8082 217.478Z" fill="#E0E0E0"/>
<path d="M65.8085 217.478C65.8085 217.478 66.1396 217.36 66.7872 217.16C67.4421 216.961 68.3988 216.665 69.6424 216.281C72.1591 215.519 75.8311 214.411 80.5112 212.999C89.8935 210.19 103.308 206.17 119.468 201.328L119.512 201.646C103.132 201.654 83.727 201.661 62.9018 201.676H62.9386C61.2314 202.001 59.3991 202.348 57.5594 202.696C37.8013 206.443 19.2058 209.969 3.20061 212.999L3.17854 212.667C21.8623 214.078 37.5143 215.268 48.5008 216.096C53.9831 216.525 58.31 216.857 61.2682 217.086C62.7399 217.205 63.8658 217.301 64.6385 217.36C65.0138 217.397 65.3007 217.419 65.5068 217.434C65.7128 217.463 65.8085 217.478 65.8085 217.478C65.8085 217.478 65.7128 217.478 65.5141 217.471C65.3081 217.456 65.0211 217.441 64.6532 217.419C63.8805 217.367 62.7546 217.293 61.2829 217.197C58.3247 216.99 54.0051 216.687 48.5155 216.296C37.5143 215.497 21.8549 214.359 3.15646 213.006L1.86133 212.91L3.13438 212.667C19.1322 209.621 37.7277 206.081 57.4858 202.319C59.3328 201.971 61.1651 201.624 62.865 201.299H62.8797H62.8944C83.7196 201.306 103.124 201.321 119.505 201.328H120.631L119.549 201.646C103.36 206.436 89.9303 210.412 80.5259 213.191C75.8384 214.566 72.1591 215.645 69.6424 216.384C68.3914 216.746 67.4348 217.02 66.7798 217.212C66.147 217.397 65.8085 217.478 65.8085 217.478Z" fill="#263238"/>
<path d="M65.8085 217.479C65.8085 217.479 64.3442 203.813 53.0485 204.936C41.7529 206.059 26.7706 213.672 14.4521 213.672L1.22852 212.638L29.4271 206.806C29.4271 206.806 99.4158 191.957 99.4158 192.423C99.4158 192.888 122.956 187.197 122.117 201.211L65.8085 217.479Z" fill="white"/>
<path d="M65.8089 217.478C65.8089 217.478 66.1695 217.36 66.8465 217.161C67.5382 216.954 68.5464 216.658 69.8562 216.274C72.4906 215.505 76.3466 214.374 81.2622 212.933C91.0861 210.072 105.134 205.985 122.066 201.055L121.948 201.203C122.015 199.946 121.912 198.638 121.448 197.441C120.999 196.236 120.19 195.164 119.145 194.374C117.026 192.777 114.251 192.186 111.506 191.949C108.74 191.727 105.884 191.89 103.015 192.215C102.293 192.304 101.572 192.4 100.851 192.489C100.491 192.533 100.13 192.592 99.7546 192.622C99.659 192.629 99.578 192.644 99.4382 192.629L99.372 192.614C99.3573 192.614 99.2837 192.57 99.2616 192.511C99.2469 192.43 99.2101 192.407 99.2763 192.541C99.3867 192.622 99.372 192.585 99.3646 192.592C99.372 192.592 99.3499 192.592 99.3425 192.592L99.2175 192.6L98.6803 192.681C97.2306 192.925 95.7736 193.213 94.3018 193.494C82.5426 195.83 70.0696 198.453 57.1477 201.151C47.1031 203.265 37.3381 205.32 27.9778 207.286C18.6102 209.215 9.66198 211.063 1.25834 212.8L1.23626 212.46C5.8281 212.822 10.236 213.169 14.4599 213.502H14.4451C18.9192 213.443 23.1652 212.6 27.1095 211.573C31.0611 210.545 34.7552 209.378 38.2358 208.321C41.7165 207.264 44.9911 206.31 48.0744 205.645C49.6124 205.313 51.1062 205.054 52.5412 204.891C53.9761 204.706 55.3816 204.736 56.662 205.017C59.267 205.556 61.1877 207.168 62.4239 208.757C63.6749 210.375 64.3593 211.987 64.8302 213.302C65.2938 214.625 65.5219 215.675 65.6544 216.385C65.7942 217.109 65.8089 217.478 65.8089 217.478C65.8089 217.478 65.7868 217.382 65.7574 217.205C65.728 217.028 65.6838 216.754 65.6029 216.399C65.4557 215.697 65.2129 214.648 64.7346 213.339C64.2489 212.039 63.5498 210.442 62.3062 208.853C61.0773 207.286 59.1787 205.719 56.6179 205.202C55.3522 204.928 53.9761 204.906 52.5559 205.098C51.1283 205.268 49.6492 205.527 48.1186 205.867C45.05 206.539 41.7901 207.508 38.3094 208.572C34.8288 209.636 31.1347 210.826 27.1757 211.861C23.2241 212.903 18.9634 213.761 14.4378 213.835H14.4304H14.4231C10.1992 213.509 5.7913 213.169 1.19947 212.815L0 212.718L1.19211 212.467C9.59575 210.723 18.5439 208.868 27.9116 206.931C37.2719 204.958 47.0369 202.903 57.0741 200.782C69.996 198.084 82.4617 195.467 94.2356 193.139C95.7073 192.851 97.1644 192.57 98.6288 192.326C100.108 192.289 101.528 191.994 102.985 191.853C105.87 191.528 108.74 191.365 111.543 191.594C114.318 191.838 117.143 192.437 119.351 194.1C120.447 194.92 121.294 196.059 121.757 197.315C122.235 198.579 122.339 199.924 122.272 201.218L122.265 201.329L122.155 201.358C105.156 206.229 91.0566 210.272 81.196 213.103C76.2877 214.5 72.4391 215.601 69.8047 216.348C68.5022 216.717 67.5014 216.998 66.8171 217.19C66.1474 217.39 65.8089 217.478 65.8089 217.478Z" fill="#263238"/>
<path d="M129.543 218.433C128.358 218.433 86.4941 215.137 86.4941 215.137L129.543 218.433Z" fill="white"/>
<path d="M86.4941 215.135C86.4941 215.121 86.6487 215.121 86.9357 215.128C87.2668 215.143 87.6789 215.165 88.194 215.187C89.3346 215.261 90.902 215.357 92.8079 215.483C96.7522 215.771 102.109 216.163 108.026 216.591C113.949 217.064 119.299 217.5 123.244 217.811C125.149 217.981 126.717 218.121 127.857 218.225C128.365 218.277 128.785 218.321 129.108 218.358C129.395 218.395 129.543 218.417 129.543 218.432C129.543 218.447 129.395 218.447 129.108 218.439C128.777 218.424 128.365 218.402 127.857 218.38C126.717 218.306 125.157 218.21 123.244 218.084C119.299 217.796 113.942 217.404 108.018 216.976C102.095 216.503 96.7375 216.067 92.8006 215.756C90.8946 215.586 89.3272 215.446 88.194 215.342C87.6862 215.291 87.2668 215.246 86.943 215.209C86.6413 215.172 86.4941 215.15 86.4941 215.135Z" fill="#263238"/>
<path d="M136.461 215.579C135.276 215.579 93.4121 212.282 93.4121 212.282L136.461 215.579Z" fill="white"/>
<path d="M93.4043 212.275C93.4043 212.26 93.5588 212.26 93.8458 212.268C94.177 212.282 94.5891 212.304 95.1042 212.327C96.2448 212.401 97.8122 212.497 99.7181 212.622C103.662 212.911 109.019 213.302 114.936 213.731C120.86 214.204 126.209 214.64 130.154 214.951C132.06 215.121 133.627 215.261 134.768 215.364C135.275 215.416 135.695 215.461 136.019 215.498C136.306 215.534 136.453 215.557 136.453 215.571C136.453 215.586 136.306 215.586 136.019 215.579C135.687 215.564 135.275 215.542 134.768 215.52C133.627 215.446 132.067 215.35 130.154 215.224C126.209 214.936 120.852 214.544 114.928 214.115C109.005 213.642 103.648 213.206 99.7107 212.896C97.8048 212.726 96.2374 212.585 95.1042 212.482C94.5964 212.43 94.177 212.386 93.8532 212.349C93.5588 212.312 93.4043 212.29 93.4043 212.275Z" fill="#263238"/>
<path d="M147.432 212.276C146.248 212.276 102.39 209.645 102.39 209.645L147.432 212.276Z" fill="white"/>
<path d="M102.39 209.651C102.39 209.637 102.552 209.637 102.846 209.637C103.184 209.644 103.626 209.659 104.163 209.674C105.355 209.725 106.989 209.799 108.99 209.895C113.111 210.125 118.719 210.428 124.915 210.768C131.111 211.152 136.718 211.499 140.839 211.751C142.84 211.891 144.474 212.009 145.666 212.091C146.203 212.135 146.638 212.172 146.976 212.201C147.278 212.231 147.432 212.253 147.432 212.268C147.432 212.283 147.278 212.283 146.976 212.283C146.638 212.275 146.203 212.261 145.666 212.246C144.474 212.194 142.84 212.12 140.839 212.024C136.718 211.795 131.111 211.492 124.907 211.152C118.711 210.768 113.104 210.42 108.983 210.169C106.981 210.028 105.348 209.91 104.156 209.829C103.619 209.785 103.184 209.748 102.846 209.718C102.552 209.681 102.39 209.659 102.39 209.651Z" fill="#263238"/>
<path d="M156.873 208.668C155.688 208.668 111.374 207.02 111.374 207.02L156.873 208.668Z" fill="white"/>
<path d="M111.374 207.019C111.374 207.004 111.536 206.997 111.838 206.997C112.183 206.997 112.625 207.004 113.162 207.012C114.362 207.041 116.017 207.078 118.041 207.13C122.199 207.263 127.865 207.455 134.127 207.655C140.389 207.906 146.048 208.128 150.213 208.298C152.237 208.394 153.885 208.475 155.085 208.534C155.629 208.571 156.063 208.594 156.409 208.616C156.711 208.638 156.873 208.66 156.873 208.675C156.873 208.69 156.711 208.697 156.409 208.697C156.063 208.697 155.629 208.69 155.085 208.682C153.885 208.653 152.23 208.616 150.206 208.564C146.048 208.431 140.382 208.239 134.12 208.039C127.858 207.788 122.199 207.566 118.034 207.396C116.01 207.3 114.362 207.219 113.162 207.16C112.618 207.123 112.183 207.101 111.838 207.078C111.536 207.049 111.374 207.034 111.374 207.019Z" fill="#263238"/>
<path d="M165.284 204.573C164.1 204.573 120.359 204.389 120.359 204.389L165.284 204.573Z" fill="white"/>
<path d="M120.367 204.388C120.367 204.285 130.427 204.24 142.826 204.285C155.233 204.336 165.292 204.462 165.292 204.566C165.292 204.669 155.233 204.713 142.826 204.669C130.419 204.625 120.36 204.499 120.367 204.388Z" fill="#263238"/>
<path d="M55.3527 201.521C55.3453 201.499 55.6544 201.388 56.2357 201.255C56.8097 201.122 57.6633 200.989 58.7303 200.967C60.8423 200.9 63.874 201.403 66.6483 203.169C69.4225 204.936 71.1665 207.478 72.0054 209.43C72.4322 210.405 72.6824 211.24 72.8075 211.817C72.9326 212.401 72.9694 212.726 72.9473 212.733C72.8664 212.756 72.6677 211.44 71.7626 209.548C70.8795 207.663 69.1429 205.224 66.4496 203.502C63.7563 201.787 60.8128 201.248 58.745 201.248C56.6404 201.218 55.3674 201.595 55.3527 201.521Z" fill="#263238"/>
<path d="M62.2316 199.688C62.2242 199.666 62.5333 199.555 63.1146 199.422C63.6886 199.289 64.5422 199.156 65.6092 199.134C67.7212 199.067 70.753 199.57 73.5272 201.336C76.3014 203.103 78.0454 205.645 78.8843 207.597C79.3111 208.572 79.5613 209.407 79.6864 209.984C79.8115 210.568 79.8483 210.893 79.8263 210.9C79.7453 210.923 79.5466 209.607 78.6415 207.715C77.7585 205.83 76.0218 203.391 73.3285 201.669C70.6352 199.954 67.6917 199.414 65.6239 199.414C63.5193 199.392 62.2463 199.769 62.2316 199.688Z" fill="#263238"/>
<path d="M69.3634 198.417C69.3561 198.394 69.6651 198.283 70.2317 198.143C70.7984 198.003 71.6299 197.84 72.6748 197.744C73.7198 197.655 74.9781 197.663 76.3542 197.914C77.7229 198.173 79.1946 198.705 80.5413 199.592C83.2566 201.366 84.9639 203.879 85.7807 205.8C86.2001 206.769 86.443 207.589 86.5681 208.158C86.6932 208.735 86.7226 209.052 86.7005 209.06C86.6269 209.082 86.4282 207.781 85.5378 205.911C84.6695 204.049 82.9697 201.632 80.3352 199.91C77.7082 198.15 74.7205 197.892 72.6969 198.003C70.6291 198.128 69.3781 198.49 69.3634 198.417Z" fill="#263238"/>
<path d="M76.965 196.835C76.9576 196.813 77.252 196.709 77.7965 196.561C78.3411 196.414 79.1432 196.229 80.1513 196.111C81.1594 195.992 82.3883 195.955 83.7203 196.221C85.0522 196.473 86.4504 197.079 87.7234 197.973C90.3063 199.754 91.9179 202.208 92.7053 204.078C93.1026 205.017 93.3307 205.815 93.4558 206.37C93.5736 206.924 93.603 207.242 93.5809 207.242C93.5073 207.264 93.3087 206.007 92.4624 204.189C91.6309 202.386 90.0267 200.021 87.51 198.291C86.2664 197.419 84.9271 196.835 83.6467 196.569C82.3663 196.295 81.1668 196.295 80.1807 196.384C78.1939 196.569 76.9797 196.909 76.965 196.835Z" fill="#263238"/>
<path d="M84.7872 195.607C84.7799 195.585 85.0669 195.482 85.582 195.327C86.0971 195.171 86.8477 194.95 87.797 194.75C88.7389 194.551 89.9236 194.381 91.2188 194.617C92.5065 194.861 93.8164 195.534 95.0011 196.421C97.4148 198.209 98.9086 200.574 99.6445 202.37C100.02 203.272 100.226 204.033 100.344 204.566C100.454 205.098 100.483 205.401 100.461 205.401C100.388 205.416 100.196 204.226 99.4016 202.474C98.6143 200.737 97.1278 198.461 94.773 196.724C93.6103 195.851 92.3667 195.201 91.1525 194.957C89.931 194.713 88.7904 194.846 87.8485 195.009C85.9646 195.378 84.802 195.674 84.7872 195.607Z" fill="#263238"/>
<path d="M81.2119 174.787C83.1988 175.134 85.2151 174.617 87.2313 174.521C89.2403 174.425 91.5288 174.935 92.5664 176.672C93.3464 177.98 93.1992 179.68 92.5664 181.062C91.9336 182.444 90.8665 183.583 89.829 184.691" fill="#FFBE9D"/>
<path d="M95.3176 190.323L64.0946 150.151C63.8518 149.841 63.4029 149.782 63.0938 150.026L60.5477 152.021C60.2386 152.265 60.1798 152.716 60.4226 153.027L91.6456 193.198C91.8884 193.508 92.3373 193.567 92.6464 193.323L95.1925 191.328C95.5015 191.084 95.5604 190.633 95.3176 190.323Z" fill="#263238"/>
<path d="M63.3662 151.061L60.9967 148.009C60.8863 147.868 60.6876 147.846 60.5478 147.957L59.4072 148.851C59.2674 148.962 59.2453 149.162 59.3483 149.302L61.7178 152.355C61.8282 152.495 62.0269 152.518 62.1667 152.407L63.3073 151.512C63.4545 151.409 63.4766 151.202 63.3662 151.061Z" fill="#263238"/>
<path d="M90.9463 192.231L96.0753 196.193L96.6051 195.779L95.104 190.324L90.9463 192.231Z" fill="#263238"/>
<path d="M71.0637 168.763C71.0343 168.763 71.0122 168.748 70.9901 168.726L61.1 156.006C59.8932 154.454 59.9815 152.355 61.2914 151.327L61.7697 150.958C61.8065 150.928 61.8653 150.936 61.9021 150.972C61.9316 151.009 61.9242 151.069 61.8874 151.106L61.4164 151.475C60.1875 152.443 60.114 154.424 61.2619 155.895L71.152 168.615C71.1814 168.652 71.1741 168.711 71.1373 168.748C71.1005 168.756 71.0784 168.763 71.0637 168.763Z" fill="#263238"/>
<path d="M76.7006 170.795C76.7006 170.795 73.4922 168.053 71.0785 168.378C68.6649 168.704 60.6439 177.41 60.3201 182.569C59.9963 187.729 57.9138 190.796 61.6079 192.888C65.3019 194.987 71.0785 198.372 74.9345 197.241C74.9345 197.241 81.7266 198.017 82.4919 196.191C82.4919 196.191 88.4524 198.106 88.9013 194.018C88.9013 194.018 93.1767 193.338 92.9118 190.715C92.6543 188.083 76.7006 170.795 76.7006 170.795Z" fill="#FFBE9D"/>
<path d="M88.9009 194.018C88.8273 194.092 85.1112 190.611 80.6003 186.228C76.0894 181.852 72.491 178.238 72.5646 178.164C72.6382 178.09 76.3543 181.572 80.8726 185.955C85.3761 190.33 88.9745 193.937 88.9009 194.018Z" fill="#EB996E"/>
<path d="M82.4918 196.191C82.4771 196.214 82.2343 196.117 81.7928 195.918C81.3512 195.726 80.7405 195.4 79.9972 194.964C78.5108 194.1 76.5755 192.71 74.5886 191.003C72.6018 189.295 70.9019 187.647 69.673 186.45C69.1137 185.895 68.6354 185.415 68.238 185.016C67.8995 184.676 67.7229 184.476 67.745 184.454C67.7597 184.432 67.9731 184.595 68.3411 184.905C68.709 185.215 69.2241 185.674 69.8643 186.25C71.1374 187.396 72.8667 189.007 74.8462 190.707C76.8256 192.4 78.7095 193.811 80.1518 194.728C81.5794 195.659 82.5213 196.132 82.4918 196.191Z" fill="#EB996E"/>
<path d="M75.118 196.968C75.0959 197.012 74.3895 196.753 73.3004 196.199C72.2113 195.645 70.7616 194.787 69.231 193.723C67.7004 192.658 66.3832 191.602 65.4781 190.789C64.5656 189.975 64.0578 189.414 64.0946 189.377C64.1314 189.332 64.7054 189.828 65.6547 190.582C66.604 191.335 67.9359 192.348 69.4518 193.405C70.9677 194.462 72.3879 195.349 73.4328 195.955C74.4778 196.568 75.1474 196.908 75.118 196.968Z" fill="#EB996E"/>
<path d="M227.23 173.212C227.23 173.212 220.71 169.628 211.953 171.342C203.196 173.057 184.851 177.448 178.508 178.187C172.165 178.918 145.364 184.935 145.364 184.935L148.183 200.922L235.611 200.73C237.216 191.092 240.166 179.14 227.23 173.212Z" fill="#FFBE9D"/>
<path d="M142.317 200.922H148.182L157.638 182.245C156.424 182.038 131.176 178.29 129.689 178.697L123.641 200.301C123.641 200.301 141.78 200.915 142.317 200.922Z" fill="#FFBE9D"/>
<path d="M125.054 200.641C125.076 200.678 125.223 200.708 125.473 200.737C127.556 200.966 137.188 200.375 137.188 200.375C137.63 199.126 136.798 195.371 135.599 195.157C134.399 194.935 124.149 195.63 124.149 195.63C124.149 195.63 122.537 195.844 122.132 198.564C121.89 200.257 125.054 200.641 125.054 200.641Z" fill="#FFBE9D"/>
<path d="M121.802 195.149C121.824 195.186 121.971 195.216 122.221 195.245C124.304 195.474 133.407 195.371 133.804 194.262C134.245 193.013 133.546 189.887 132.347 189.665C131.147 189.443 120.897 190.138 120.897 190.138C120.897 190.138 119.285 190.352 118.88 193.072C118.638 194.757 121.802 195.149 121.802 195.149Z" fill="#FFBE9D"/>
<path d="M120.19 189.776C120.212 189.813 120.36 189.843 120.61 189.872C122.692 190.101 131.795 189.998 132.192 188.889C132.634 187.64 131.935 184.513 130.735 184.292C129.536 184.07 119.285 184.765 119.285 184.765C119.285 184.765 117.674 184.979 117.269 187.699C117.019 189.384 120.19 189.776 120.19 189.776Z" fill="#FFBE9D"/>
<path d="M118.674 184.432C118.696 184.469 118.843 184.499 119.093 184.528C121.176 184.757 130.278 184.654 130.676 183.545C131.117 182.296 130.418 179.17 129.219 178.948C128.019 178.726 117.769 179.421 117.769 179.421C117.769 179.421 116.157 179.635 115.752 182.355C115.502 184.041 118.674 184.432 118.674 184.432Z" fill="#FFBE9D"/>
<path d="M132.935 195.105C132.92 195.26 130.933 195.445 128.505 195.519C126.069 195.585 124.105 195.519 124.119 195.364C124.134 195.208 126.113 195.024 128.549 194.95C130.985 194.876 132.95 194.95 132.935 195.105Z" fill="#EB996E"/>
<path d="M132.986 189.717C132.994 189.872 130.168 190.094 126.687 190.205C123.199 190.315 120.374 190.278 120.366 190.116C120.359 189.961 123.185 189.739 126.665 189.628C130.153 189.517 132.979 189.554 132.986 189.717Z" fill="#EB996E"/>
<path d="M132.552 184.24C132.559 184.403 129.733 184.617 126.253 184.728C122.765 184.839 119.939 184.802 119.932 184.639C119.924 184.477 122.75 184.262 126.231 184.151C129.719 184.041 132.552 184.078 132.552 184.24Z" fill="#EB996E"/>
<path d="M147.167 180.848C147.167 180.848 129.984 173.176 128.91 174.284C127.835 175.393 126.18 178.956 126.18 178.956L147.167 180.848Z" fill="#FFBE9D"/>
</g>
<defs>
<clipPath id="clip0">
<rect width="244" height="223" fill="white"/>
</clipPath>
</defs>
</svg>
