<svg width="252" height="209" viewBox="0 0 252 209" fill="none" xmlns="http://www.w3.org/2000/svg">
<g clip-path="url(#clip0)">
<path d="M183.005 15.8474C183.716 9.87312 190.067 5.56959 196.062 6.02526C202.058 6.53155 207.24 11.0882 209.475 16.6575C210.593 19.3915 211.05 22.5306 210.085 25.3152C209.069 28.2518 206.478 30.4288 203.633 31.6946C198.501 33.8717 192.252 33.1122 187.832 29.7707C183.412 26.4291 181.024 20.556 181.786 15.088" fill="#263238"/>
<path d="M205.36 10.4801C205.41 10.4801 205.309 10.7839 205.156 11.2902C205.004 11.7965 204.699 12.5053 204.242 13.366C203.327 15.0874 201.651 17.2645 199.161 18.9353C196.672 20.6061 194.03 21.3655 192.099 21.6187C191.134 21.7199 190.372 21.7706 189.813 21.7199C189.254 21.6693 189 21.6187 189 21.6187C189 21.5174 190.219 21.568 192.048 21.2643C193.928 20.9605 196.469 20.1504 198.856 18.5302C201.244 16.9101 202.921 14.8343 203.886 13.2141C204.902 11.594 205.309 10.4295 205.36 10.4801Z" fill="#455B64"/>
<path d="M209.373 15.9483C209.424 15.9483 209.221 16.2521 208.916 16.6571C208.611 17.1128 208.103 17.7203 207.443 18.4292C206.122 19.8974 204.14 21.7707 201.448 23.1377C200.127 23.7959 198.755 24.3022 197.485 24.5554C196.215 24.8085 195.046 24.9098 194.03 24.9098C193.065 24.9098 192.252 24.8085 191.693 24.7073C191.134 24.606 190.88 24.5554 190.88 24.5047C190.88 24.4035 192.099 24.606 194.03 24.5047C194.995 24.4541 196.113 24.3529 197.383 24.0491C198.602 23.7453 199.923 23.2896 201.244 22.6314C203.836 21.3151 205.868 19.4924 207.24 18.176C208.561 16.809 209.323 15.8977 209.373 15.9483Z" fill="#455B64"/>
<path d="M131.03 47.1868C110.352 22.4288 137.127 -0.152104 155.163 -0.000214655C172.133 0.151675 180.973 6.126 186.46 15.8976C191.947 25.6691 194.945 37.0608 193.573 48.1994C192.912 53.6674 190.626 59.6924 185.444 61.7682" fill="#263238"/>
<path d="M178.229 17.4668L177.111 12.252L144.392 13.5177C134.485 14.7328 126.254 26.7827 127.88 36.5543C129.709 47.4397 132.3 60.6541 135.45 68.4005C141.75 83.9438 154.604 83.1337 154.604 83.1337L158.364 99.1328L194.233 91.3864L178.229 17.4668Z" fill="#FFBE9D"/>
<path d="M134.688 47.7951C134.892 48.909 136.009 49.6178 137.178 49.4153C138.346 49.2127 139.109 48.1495 138.905 47.0863C138.702 45.9724 137.584 45.2636 136.416 45.4661C135.196 45.6686 134.434 46.7319 134.688 47.7951Z" fill="#263238"/>
<path d="M132.605 42.7823C132.859 42.9848 134.484 42.5797 136.771 42.8835C139.057 43.1873 140.632 44.048 140.886 43.9467C140.988 43.8961 140.784 43.5923 140.073 43.1873C139.362 42.7823 138.193 42.3266 136.771 42.1241C135.348 41.9215 134.129 42.0228 133.418 42.2253C132.757 42.4785 132.503 42.7316 132.605 42.7823Z" fill="#263238"/>
<path d="M155.468 43.3898C155.671 44.5037 156.789 45.2125 157.957 45.01C159.126 44.8075 159.888 43.7442 159.685 42.681C159.481 41.5671 158.364 40.8583 157.195 41.0608C155.976 41.2634 155.214 42.3266 155.468 43.3898Z" fill="#263238"/>
<path d="M154.452 40.0985C154.757 40.0985 155.875 38.8328 157.856 37.7189C159.838 36.6051 161.667 36.3013 161.768 36.0988C161.819 35.9975 161.464 35.8963 160.701 36.0482C159.939 36.1494 158.72 36.5545 157.45 37.2126C156.18 37.9215 155.316 38.6809 154.808 39.2378C154.351 39.7948 154.3 40.0985 154.452 40.0985Z" fill="#263238"/>
<path d="M150.641 56.3514C150.641 56.1995 149.167 56.3008 146.881 56.5539C146.322 56.6046 145.712 56.6552 145.56 56.2501C145.306 55.8957 145.408 55.1869 145.56 54.4781C145.763 52.9592 146.017 51.3897 146.221 49.7695C147.135 43.0864 147.643 37.6184 147.389 37.5677C147.135 37.5171 146.17 42.9345 145.255 49.6176C145.052 51.2884 144.849 52.8579 144.646 54.3262C144.595 55.035 144.392 55.8451 144.849 56.6046C145.103 57.0096 145.611 57.2121 145.967 57.2121C146.373 57.2627 146.678 57.1615 146.983 57.1109C149.269 56.8071 150.691 56.5033 150.641 56.3514Z" fill="#263238"/>
<path d="M154.654 83.1852C154.654 83.1852 166.238 81.2107 175.536 72.2998C175.536 72.2998 172.691 84.856 155.62 87.185L154.654 83.1852Z" fill="#EFA077"/>
<path d="M152.826 61.5148C153.385 60.249 154.655 59.3883 156.078 59.1858C157.094 59.0845 158.161 59.287 158.923 59.9452C159.685 60.6034 160.091 61.6666 159.736 62.578C159.329 63.5399 158.11 64.0462 156.992 63.9956C155.874 63.945 154.757 63.4387 153.741 62.9324C153.436 62.7805 153.182 62.6286 152.928 62.4261C152.724 62.1729 152.623 61.8692 152.724 61.616" fill="#EFA077"/>
<path d="M152.369 29.4163C152.724 29.9732 154.909 29.1632 157.602 28.91C160.295 28.5556 162.581 28.8594 162.784 28.2012C162.886 27.8974 162.378 27.4418 161.412 27.0367C160.447 26.6317 158.974 26.3785 157.348 26.581C155.722 26.7836 154.35 27.3405 153.486 27.948C152.572 28.5556 152.165 29.1632 152.369 29.4163Z" fill="#263238"/>
<path d="M132.249 35.9974C132.757 36.4024 134.18 35.5417 136.009 35.0861C137.838 34.5798 139.514 34.6304 139.718 34.0228C139.819 33.7191 139.464 33.2634 138.651 32.9596C137.889 32.6558 136.669 32.5039 135.399 32.8583C134.129 33.2128 133.164 33.9216 132.605 34.5798C132.097 35.238 131.995 35.7949 132.249 35.9974Z" fill="#263238"/>
<path d="M160.04 59.0347C160.192 59.3891 159.278 61.0092 157.5 62.5281C155.671 64.047 153.588 64.8571 153.283 64.6039C152.978 64.4014 155.061 63.085 156.992 61.5155C158.922 59.8954 159.888 58.7309 160.04 59.0347Z" fill="#263238"/>
<path d="M178.636 37.6689C178.839 37.517 185.799 31.8465 188.391 40.9092C190.982 49.972 181.328 50.6808 181.227 50.4276C181.176 50.1239 178.636 37.6689 178.636 37.6689Z" fill="#FFBE9D"/>
<path d="M183.055 46.1745C183.106 46.1239 183.258 46.2252 183.563 46.2758C183.868 46.3264 184.325 46.2758 184.732 45.972C185.596 45.3645 185.951 43.5924 185.545 41.9723C185.342 41.1622 184.935 40.4027 184.478 39.8458C184.021 39.2383 183.462 38.9345 182.954 38.9851C182.446 39.0357 182.192 39.3901 182.141 39.6939C182.09 39.9977 182.192 40.1496 182.141 40.1496C182.141 40.2002 181.887 40.0483 181.887 39.6433C181.887 39.4408 181.938 39.1876 182.09 38.9851C182.242 38.732 182.547 38.5801 182.903 38.5294C183.614 38.3775 184.427 38.8332 184.935 39.4408C185.494 40.0483 185.951 40.8584 186.205 41.8204C186.663 43.6431 186.205 45.6176 185.037 46.3771C184.427 46.7315 183.868 46.6808 183.513 46.529C183.106 46.3771 183.004 46.1745 183.055 46.1745Z" fill="#EFA077"/>
<path d="M159.38 7.69565C158.973 7.4425 158.516 7.34124 158.059 7.23998C152.267 6.22738 146.119 6.73368 140.734 9.11328C135.348 11.4929 130.776 15.7964 128.438 21.1632C126.152 26.5806 124.018 34.9851 126.914 40.0987L129.201 43.9972C128.642 40.0481 129.505 32.5549 131.08 28.8589C132.655 25.2136 135.551 22.0239 139.209 20.4037C142.868 18.7836 147.034 18.7836 150.997 17.9229C154.909 17.0622 159.075 14.9357 160.193 11.0878C160.548 9.92336 160.447 8.40446 159.38 7.69565Z" fill="#263238"/>
<path d="M125.797 35.5424C125.797 35.5424 125.696 35.3905 125.492 35.0867C125.289 34.7829 125.035 34.3272 124.781 33.7197C124.273 32.4539 123.714 30.53 123.765 28.0492C123.867 25.6189 124.629 22.6824 126.458 19.999C128.287 17.3156 131.081 14.936 134.485 13.3665C137.889 11.797 141.446 11.1894 144.697 11.0882C146.323 11.0375 147.847 11.0882 149.27 11.1894C150.692 11.2907 152.013 11.4932 153.182 11.4932C155.57 11.3413 157.551 11.0882 158.72 10.4806C159.939 9.87304 160.193 9.06296 160.244 9.11359C160.244 9.11359 160.193 9.31611 159.99 9.61989C159.787 9.92367 159.431 10.3287 158.821 10.6831C157.602 11.3919 155.621 11.6957 153.182 11.8982C151.963 11.9489 150.642 11.7463 149.219 11.6451C147.796 11.5438 146.272 11.4932 144.697 11.5945C141.547 11.7463 138.042 12.3539 134.739 13.8728C131.437 15.3917 128.693 17.67 126.864 20.2522C125.035 22.8343 124.273 25.6695 124.121 27.9985C123.968 30.3781 124.476 32.3021 124.933 33.5678C125.442 34.8842 125.848 35.5424 125.797 35.5424Z" fill="#455B64"/>
<path d="M136.06 7.13873C136.06 7.0881 136.364 6.93621 136.974 6.68306C137.584 6.42991 138.498 6.17676 139.616 5.97424C141.902 5.5692 145.256 5.5692 148.609 6.98684C150.235 7.69566 151.708 8.55636 153.131 9.01203C154.502 9.51833 155.925 9.51833 157.043 9.4677C158.16 9.41707 159.075 9.16392 159.634 8.9614C160.193 8.70825 160.497 8.4551 160.497 8.50573C160.497 8.50573 160.294 8.80951 159.735 9.16392C159.177 9.4677 158.211 9.77148 157.043 9.87274C155.874 9.974 154.452 10.0246 152.927 9.51833C151.454 9.06266 149.981 8.20196 148.355 7.49314C145.154 6.12613 141.902 6.02487 139.667 6.32865C137.431 6.68306 136.11 7.23999 136.06 7.13873Z" fill="#455B64"/>
<path d="M160.752 7.69582C159.787 10.6324 158.821 13.5689 158.72 16.6573C158.669 19.7457 159.634 22.986 161.971 24.9606C164.207 26.8845 167.306 27.3402 170.151 28.049C173.047 28.7072 176.095 29.8717 177.467 32.5044C177.925 33.3145 178.382 36.4536 179.195 36.8586C180.312 37.4662 181.735 36.5042 182.141 35.2891C182.548 34.074 182.091 30.6311 181.735 29.416C180.77 25.6188 180.465 19.8976 179.449 16.1004C178.636 12.9107 177.01 11.5437 174.825 9.0122C171.777 5.51874 167.408 5.31622 161.616 7.18952" fill="#263238"/>
<path d="M189.762 22.3779C189.712 22.4286 189.457 22.0742 188.848 21.6185C188.238 21.1628 187.273 20.6565 185.901 20.4034C184.58 20.2009 182.903 20.2515 181.227 20.7072C179.499 21.2134 177.721 22.1248 175.841 23.0361C173.962 23.9475 172.031 24.7069 170.202 25.0613C168.373 25.3651 166.696 25.3651 165.324 25.2132C163.953 25.0613 162.835 24.7575 162.124 24.4538C161.412 24.2006 161.006 23.9981 161.006 23.9475C161.057 23.8462 162.632 24.555 165.375 24.7575C166.747 24.8588 168.373 24.8588 170.151 24.5044C171.929 24.15 173.758 23.4412 175.638 22.4792C177.518 21.5679 179.347 20.6565 181.125 20.2009C182.903 19.6946 184.631 19.6946 186.003 19.9983C187.374 20.2515 188.391 20.9097 189 21.416C189.305 21.6691 189.508 21.9223 189.61 22.0742C189.712 22.2767 189.762 22.3779 189.762 22.3779Z" fill="#455B64"/>
<path d="M186.104 15.5937C186.053 15.6444 185.799 15.29 185.19 14.8849C184.58 14.4799 183.615 13.9736 182.294 13.8217C180.973 13.6698 179.398 13.923 177.772 14.5305C176.146 15.1381 174.47 16.1507 172.59 17.062C170.71 17.9734 168.779 18.5809 166.899 18.5303C165.07 18.4797 163.445 17.8721 162.276 17.1633C161.107 16.4545 160.295 15.6444 159.837 15.0368C159.583 14.733 159.431 14.4799 159.329 14.328C159.228 14.1761 159.177 14.0749 159.177 14.0242C159.278 13.923 160.091 15.4925 162.428 16.8089C163.597 17.4164 165.121 17.9734 166.849 17.9734C168.576 18.024 170.456 17.4164 172.285 16.5051C174.114 15.6444 175.841 14.6318 177.518 13.9736C179.195 13.3154 180.922 13.1129 182.294 13.3154C183.665 13.5179 184.682 14.0749 185.291 14.5812C185.901 15.1887 186.104 15.5431 186.104 15.5937Z" fill="#455B64"/>
<path d="M125.441 42.0738C125.441 42.0738 125.441 42.1244 125.492 42.175C125.492 42.2257 125.543 42.3269 125.543 42.4282C125.594 42.6813 125.695 42.9851 125.797 43.4408C126 44.3015 126.356 45.6178 126.813 47.2886C127.27 48.9594 127.829 50.9846 128.591 53.263C128.998 54.4274 129.404 55.6932 130.065 56.8577C130.166 57.0096 130.268 57.1615 130.37 57.2627C130.471 57.364 130.573 57.5159 130.725 57.6678C130.979 57.9209 131.233 58.1234 131.538 58.3259C132.148 58.731 132.808 59.0348 133.57 59.2373C135.044 59.6423 136.67 59.6423 138.295 59.2373C139.108 59.0348 139.921 58.731 140.633 58.2753C141.344 57.8196 142.004 57.2121 142.512 56.4526C143.579 55.035 144.291 53.263 144.646 51.3897C144.748 50.934 144.849 50.4277 145.053 49.972C145.256 49.5163 145.612 49.0607 146.069 48.8582C146.577 48.605 147.136 48.6556 147.593 48.9088C148.05 49.1113 148.457 49.4657 148.812 49.8708C149.168 50.2252 149.473 50.6808 149.778 51.0859C150.083 51.4909 150.489 51.7947 150.895 52.1491C151.708 52.7567 152.674 53.2123 153.639 53.5667C155.62 54.2756 157.805 54.63 159.99 54.6806C161.108 54.6806 162.225 54.63 163.292 54.4274C163.546 54.3768 163.851 54.3262 164.105 54.2756C164.359 54.2249 164.664 54.1743 164.918 54.073L165.731 53.8199C165.985 53.7186 166.239 53.6174 166.493 53.4655C168.474 52.4022 170.304 50.934 172.133 49.4657C173.504 48.3519 174.876 47.1874 176.197 46.0229L176.146 46.1748C174.774 41.2637 173.454 36.5045 172.183 32.049L172.336 32.1503C158.77 35.0362 147.034 37.5677 138.702 39.3397C134.536 40.2005 131.233 40.9093 128.947 41.4156C127.829 41.6687 126.915 41.8206 126.356 41.9725C126.051 42.0231 125.848 42.0738 125.695 42.1244C125.492 42.0738 125.441 42.0738 125.441 42.0738C125.441 42.0738 125.492 42.0738 125.645 42.0231C125.797 41.9725 126 41.9219 126.305 41.8712C126.915 41.7193 127.779 41.5675 128.896 41.3143C131.183 40.808 134.485 40.0992 138.6 39.1879C146.933 37.3652 158.669 34.8337 172.285 31.8465L172.387 31.7959L172.437 31.8972C173.708 36.3526 175.029 41.1118 176.4 46.0229V46.1241L176.349 46.1748C175.029 47.3393 173.657 48.5037 172.285 49.6682C170.456 51.1365 168.627 52.6048 166.595 53.7186C166.341 53.8705 166.087 53.9718 165.782 54.073L164.969 54.3262C164.715 54.4274 164.41 54.4781 164.156 54.5287C163.902 54.5793 163.597 54.63 163.343 54.6806C162.225 54.8831 161.108 54.9337 159.99 54.9337C157.754 54.8831 155.57 54.5287 153.537 53.8199C152.521 53.4148 151.556 53.0098 150.692 52.3516C150.286 52.0478 149.879 51.6934 149.574 51.2378C149.219 50.8327 148.965 50.4277 148.609 50.0733C148.254 49.7189 147.898 49.3645 147.441 49.1619C147.034 48.9594 146.526 48.9088 146.12 49.1113C145.713 49.3138 145.408 49.7189 145.205 50.1239C145.002 50.5289 144.9 50.9846 144.799 51.4909C144.392 53.3642 143.681 55.1869 142.614 56.6552C142.055 57.364 141.395 58.0222 140.683 58.4778C139.921 58.9841 139.108 59.2879 138.295 59.4398C136.67 59.7942 134.993 59.8448 133.469 59.3892C132.707 59.1867 131.995 58.8829 131.386 58.4272C131.081 58.2247 130.776 57.9715 130.522 57.7184C130.37 57.6171 130.268 57.4652 130.166 57.3133C130.065 57.1615 129.963 57.0096 129.862 56.8577C129.201 55.6426 128.795 54.3768 128.388 53.2123C127.626 50.8834 127.118 48.8582 126.661 47.1874C126.254 45.5166 125.899 44.2508 125.695 43.3395C125.594 42.8838 125.543 42.5801 125.492 42.3269C125.492 42.2256 125.441 42.1244 125.441 42.0738C125.441 42.0738 125.441 42.1244 125.441 42.0738Z" fill="#263238"/>
<path d="M130.471 56.9586C130.42 56.9586 129.556 53.9714 128.591 50.2248C127.626 46.4782 126.864 43.4404 126.965 43.4404C127.016 43.4404 127.88 46.4276 128.845 50.1742C129.81 53.9208 130.522 56.9586 130.471 56.9586Z" fill="#FAFBFB"/>
<path d="M142.715 45.2635C142.766 45.3142 141.851 47.5925 140.632 50.4278C139.413 53.263 138.397 55.4908 138.295 55.4401C138.244 55.3895 139.159 53.1112 140.378 50.2759C141.597 47.4912 142.664 45.2129 142.715 45.2635Z" fill="#FAFBFB"/>
<path d="M145.357 41.9212C145.408 41.9212 145.205 42.4781 144.9 43.3894C144.595 44.3008 144.138 45.5159 143.579 46.8322C143.02 48.1486 142.461 49.3637 142.055 50.1738C141.648 51.0345 141.343 51.5408 141.293 51.4902C141.242 51.4902 141.496 50.9333 141.851 50.0726C142.258 49.1106 142.766 47.9967 143.325 46.6804C143.833 45.4146 144.341 44.2501 144.747 43.2882C145.103 42.4275 145.357 41.8705 145.357 41.9212Z" fill="#FAFBFB"/>
<path d="M168.322 36.707C168.322 36.707 168.271 36.9096 168.119 37.2133C167.967 37.5171 167.814 37.9728 167.56 38.5297C167.052 39.6436 166.341 41.1118 165.579 42.7826C164.308 45.466 163.191 47.6937 162.784 48.4025L162.632 48.6557L162.683 48.4025C162.733 48.1494 162.784 48.0481 162.784 48.0481C162.784 48.0481 162.784 48.1494 162.784 48.4025H162.683C162.987 47.6431 164.054 45.3647 165.325 42.6814C166.137 41.0106 166.849 39.5423 167.408 38.4284C167.662 37.8715 167.916 37.4665 168.068 37.1627C168.221 36.8589 168.322 36.707 168.322 36.707Z" fill="#FAFBFB"/>
<path d="M169.338 38.6807C169.389 38.7313 168.475 40.8071 167.255 43.288C166.036 45.8195 165.02 47.8447 164.918 47.794C164.867 47.7434 165.782 45.6676 167.001 43.1867C168.22 40.7059 169.237 38.6807 169.338 38.6807Z" fill="#FAFBFB"/>
<path d="M167.052 52.1992C167.052 52.1992 166.848 52.3511 166.493 52.5536C166.29 52.6548 166.086 52.7561 165.832 52.908C165.578 53.0093 165.273 53.1611 164.918 53.313C164.562 53.4649 164.206 53.5662 163.749 53.6674C163.343 53.8193 162.886 53.87 162.377 53.9712C161.412 54.1231 160.294 54.2244 159.177 54.1737C158.059 54.1231 156.941 53.9206 156.027 53.6674C155.569 53.5156 155.112 53.4143 154.706 53.2118C154.299 53.0599 153.944 52.908 153.588 52.7055C153.232 52.5536 152.978 52.3511 152.724 52.2498C152.47 52.0979 152.267 51.946 152.064 51.8448C151.708 51.5916 151.556 51.4397 151.556 51.4397C151.606 51.3891 152.318 51.946 153.639 52.5536C153.994 52.7055 154.35 52.8574 154.756 53.0093C155.163 53.1611 155.62 53.2624 156.077 53.4143C157.043 53.6674 158.059 53.8193 159.177 53.9206C160.294 53.9712 161.361 53.9206 162.327 53.7687C162.784 53.6674 163.241 53.6168 163.698 53.5156C164.105 53.4143 164.511 53.313 164.867 53.1611C166.239 52.6042 167.052 52.1485 167.052 52.1992Z" fill="#FAFBFB"/>
<path d="M176.247 46.1242C176.247 46.1242 176.196 46.023 176.146 45.8711C176.095 45.6686 175.993 45.4154 175.942 45.1116C175.739 44.4028 175.434 43.4408 175.129 42.2764C174.418 39.7955 173.402 36.3527 172.284 32.3529L172.233 32.1504L172.437 32.201C174.164 32.7073 176.044 33.2642 177.975 33.8212C179.397 34.2262 180.82 34.6819 182.141 35.0363H182.191V35.0869C182.801 37.8209 183.309 40.3524 183.766 42.4789V42.5801L183.716 42.6308C181.429 43.694 179.6 44.5547 178.279 45.1623C177.67 45.466 177.162 45.6686 176.806 45.8711C176.654 45.9217 176.501 45.9723 176.4 46.023C176.298 46.0736 176.247 46.1242 176.247 46.1242C176.247 46.1242 176.298 46.0736 176.4 46.023C176.501 45.9723 176.654 45.9217 176.806 45.8204C177.162 45.6179 177.67 45.3648 178.279 45.061C179.6 44.4028 181.429 43.5421 183.614 42.4283L183.563 42.5295C183.106 40.3524 182.547 37.8716 181.937 35.1376L182.039 35.2388C180.718 34.8338 179.296 34.4287 177.873 34.0237C175.942 33.4668 174.062 32.9098 172.335 32.4035L172.487 32.2517C173.554 36.2514 174.52 39.6436 175.18 42.1245C175.485 43.3396 175.79 44.3016 175.942 45.0104C176.044 45.3142 176.095 45.6179 176.146 45.8204C176.247 46.023 176.247 46.0736 176.247 46.1242Z" fill="#263238"/>
<path d="M125.442 42.5793L124.781 39.9465L171.93 29.5674L172.641 32.5545L125.442 42.5793Z" fill="#7C57A4"/>
<path d="M171.929 29.5674L181.684 32.8583L182.293 35.4404L172.64 32.5545L171.929 29.5674Z" fill="#7C57A4"/>
<path d="M138.702 106.413L149.879 91.8572L193.319 80.501L230.052 91.8522V160.795L224.107 205.557H133.875L131.843 177.477L138.702 106.413Z" fill="#E0E0E0"/>
<path d="M158.617 207.076C158.617 207.076 158.617 206.974 158.617 206.726C158.617 206.478 158.668 206.174 158.719 205.774C158.82 204.924 158.922 203.673 159.074 202.073C159.43 198.873 159.887 194.221 160.497 188.474C161.716 176.971 163.393 161.119 165.374 143.571C165.679 140.771 166.035 138.021 166.34 135.318C166.645 132.614 167 129.966 167.407 127.415C168.27 122.316 169.439 117.511 170.506 113.015C172.691 104.115 174.672 96.6113 176.196 91.1636V91.2142C175.078 88.1157 174.164 85.7158 173.554 84.0146C173.249 83.1641 173.046 82.5666 172.894 82.116C172.843 81.9135 172.792 81.7667 172.741 81.6148C172.691 81.5135 172.691 81.4629 172.691 81.4629C172.894 81.9641 174.062 85.1133 176.349 91.1636C174.875 96.6164 172.894 104.115 170.76 113.066C169.693 117.516 168.575 122.316 167.712 127.42C167.305 129.971 167 132.619 166.695 135.323C166.391 138.027 166.086 140.776 165.73 143.576C163.749 161.078 162.021 176.981 160.802 188.479C160.192 194.231 159.684 198.879 159.328 202.078C159.125 203.678 159.024 204.929 158.922 205.779C158.871 206.179 158.82 206.529 158.82 206.731C158.668 206.929 158.617 207.076 158.617 207.076Z" fill="#263238"/>
<path d="M150.641 141.865L145.916 178.774L168.017 183.685L173.453 143.688L150.641 141.865Z" fill="#263238"/>
<path d="M151.911 143.484C151.81 143.788 147.593 177.052 147.898 177.153C148.202 177.254 165.934 180.9 165.934 180.9L171.319 145.155L151.911 143.484Z" fill="white"/>
<path d="M166.137 181.205L165.883 181.154C164.054 180.8 148.1 177.509 147.796 177.407L147.694 177.357L147.643 177.256C147.592 177.104 147.44 176.901 149.523 160.193C150.437 152.953 151.606 143.587 151.657 143.384L151.708 143.182L171.573 144.903L171.522 145.156L166.137 181.205ZM148.1 176.952C149.523 177.256 159.887 179.433 165.73 180.597L171.014 145.409L152.114 143.739C151.758 146.473 148.151 174.522 148.1 176.952Z" fill="#263238"/>
<path d="M150.642 141.865C150.642 141.865 154.401 141.105 154.909 138.827L168.576 139.435C168.576 139.435 169.897 142.726 173.454 143.688L150.642 141.865Z" fill="#263238"/>
<path d="M161.209 126.777V136.144H164.359L164.867 126.777H161.209Z" fill="#455B64"/>
<path d="M193.776 81.4636L192.099 76.1475L153.436 86.881L154.858 92.1465L160.701 108.297L198.501 90.5263L193.776 81.4636Z" fill="#E0E0E0"/>
<path d="M149.879 92.1458C149.879 92.7027 161.209 126.777 161.209 126.777H164.867L200.838 82.7286L196.621 81.4629L163.444 123.081L153.893 91.437L149.879 92.1458Z" fill="#263238"/>
<path d="M165.935 132.397L164.868 140.701L160.244 140.346L160.092 132.397H165.935Z" fill="#263238"/>
<path d="M172.03 96.2477C172.03 96.2477 171.979 96.2984 171.827 96.349C171.725 96.3996 171.522 96.5009 171.268 96.6021C170.811 96.8553 170.1 97.1591 169.236 97.4628C168.372 97.7666 167.254 98.0704 166.035 98.2223C164.816 98.3742 163.393 98.4248 161.97 98.121C160.548 97.8173 159.278 97.2603 158.211 96.5515C157.195 95.8427 156.382 95.0326 155.874 94.2225C155.366 93.4125 155.061 92.7036 154.908 92.1973C154.807 91.9442 154.807 91.7417 154.756 91.5898C154.756 91.4379 154.705 91.3873 154.756 91.3873C154.807 91.3366 154.959 92.5518 156.026 94.0706C156.534 94.8301 157.347 95.6402 158.363 96.2984C159.379 96.9565 160.65 97.5135 162.021 97.8173C164.816 98.3235 167.407 97.7666 169.185 97.2097C170.049 96.9059 170.76 96.6528 171.268 96.4502C171.725 96.349 172.03 96.2477 172.03 96.2477Z" fill="#263238"/>
<path d="M193.623 85.6659C193.623 85.6659 193.471 85.8178 193.217 85.9697C192.963 86.1722 192.556 86.4254 192.048 86.7291C191.032 87.3873 189.559 88.1974 187.882 88.9568C186.205 89.7163 184.63 90.2732 183.513 90.6783C182.954 90.8808 182.497 90.982 182.141 91.0833C181.836 91.1845 181.633 91.1846 181.633 91.1846C181.633 91.1339 182.344 90.9314 183.462 90.5264C184.58 90.1213 186.155 89.5138 187.78 88.7543C189.457 87.9949 190.88 87.2354 191.947 86.6279C192.963 85.9697 193.623 85.6153 193.623 85.6659Z" fill="#263238"/>
<path d="M172.894 88.3998C172.894 89.4124 172.082 90.2225 171.065 90.2225C170.049 90.2225 169.236 89.4124 169.236 88.3998C169.236 87.3872 170.049 86.5771 171.065 86.5771C172.082 86.5771 172.894 87.3872 172.894 88.3998Z" fill="#263238"/>
<path d="M169.236 108.095C170.247 108.095 171.065 107.279 171.065 106.272C171.065 105.264 170.247 104.449 169.236 104.449C168.225 104.449 167.407 105.264 167.407 106.272C167.407 107.279 168.225 108.095 169.236 108.095Z" fill="#263238"/>
<path d="M149.879 189.659C150.89 189.659 151.708 188.844 151.708 187.836C151.708 186.829 150.89 186.014 149.879 186.014C148.868 186.014 148.05 186.829 148.05 187.836C148.05 188.844 148.868 189.659 149.879 189.659Z" fill="#263238"/>
<path d="M171.065 191.381C172.076 191.381 172.894 190.566 172.894 189.558C172.894 188.55 172.076 187.735 171.065 187.735C170.054 187.735 169.236 188.55 169.236 189.558C169.236 190.566 170.054 191.381 171.065 191.381Z" fill="#263238"/>
<path d="M217.706 186.267C217.655 186.267 217.503 185.305 216.995 183.837C216.741 183.077 216.385 182.217 215.979 181.305C215.521 180.394 214.963 179.381 214.302 178.419C213.642 177.458 212.88 176.546 212.219 175.837C211.508 175.078 210.847 174.47 210.238 173.964C209.018 172.951 208.205 172.445 208.256 172.395C208.256 172.395 208.459 172.496 208.866 172.749C209.069 172.85 209.272 173.002 209.526 173.205C209.78 173.407 210.085 173.559 210.39 173.812C211 174.268 211.711 174.926 212.422 175.685C213.134 176.445 213.896 177.306 214.556 178.318C215.217 179.331 215.776 180.293 216.233 181.255C216.69 182.217 216.995 183.077 217.249 183.837C217.351 184.191 217.452 184.546 217.554 184.849C217.655 185.153 217.706 185.406 217.706 185.609C217.655 186.014 217.706 186.267 217.706 186.267Z" fill="#263238"/>
<path d="M227.664 91.083C227.664 91.083 227.562 91.1336 227.41 91.2349C227.207 91.3362 226.953 91.488 226.648 91.6399C226.495 91.7412 226.292 91.8425 226.089 91.9437C225.886 92.045 225.682 92.1969 225.479 92.2981C225.022 92.5513 224.514 92.8551 224.006 93.2601C223.752 93.4626 223.447 93.6651 223.193 93.8676C222.888 94.0702 222.634 94.3233 222.329 94.5765C221.72 95.0321 221.161 95.5891 220.5 96.1966C219.281 97.4117 218.061 98.8294 216.944 100.45C215.826 102.12 214.962 103.791 214.302 105.361C213.997 106.171 213.692 106.93 213.489 107.639C213.387 107.993 213.235 108.348 213.184 108.702C213.082 109.057 213.032 109.36 212.93 109.715C212.778 110.322 212.676 110.93 212.574 111.436C212.524 111.689 212.473 111.943 212.473 112.145C212.473 112.348 212.422 112.55 212.422 112.753C212.371 113.107 212.371 113.36 212.32 113.563C212.32 113.765 212.27 113.866 212.27 113.866C212.27 113.866 212.27 113.765 212.27 113.563C212.27 113.36 212.32 113.056 212.32 112.702C212.32 112.499 212.32 112.297 212.371 112.094C212.371 111.892 212.422 111.639 212.473 111.386C212.574 110.879 212.625 110.272 212.778 109.664C212.828 109.36 212.93 109.006 212.981 108.652C213.082 108.297 213.184 107.943 213.286 107.588C213.489 106.829 213.794 106.069 214.099 105.259C214.759 103.69 215.623 101.968 216.741 100.298C217.858 98.6269 219.128 97.2092 220.348 95.9941C221.008 95.3866 221.567 94.8296 222.177 94.3739C222.482 94.1208 222.786 93.9183 223.041 93.6651C223.345 93.4626 223.599 93.2601 223.904 93.1082C224.412 92.7032 224.971 92.45 225.428 92.1969C225.632 92.045 225.835 91.9437 226.038 91.8425C226.241 91.7412 226.394 91.6399 226.597 91.5893C226.902 91.4374 227.156 91.3362 227.359 91.2349C227.562 91.083 227.664 91.083 227.664 91.083Z" fill="#263238"/>
<path d="M102.172 128.195L99.0218 111.234L80.6807 108.348C80.9855 108.348 80.6299 129.41 80.6299 129.41L102.172 128.195Z" fill="#FFBE9D"/>
<path d="M93.6364 87.8432C93.5856 87.8432 93.738 86.7293 93.0267 85.1091C92.6711 84.2991 92.0614 83.4384 91.1977 82.6789C90.334 81.9195 89.2162 81.3119 87.8953 80.9575C86.6251 80.6031 85.3041 80.5525 84.1864 80.6537C83.0178 80.755 82.0017 81.0081 81.1888 81.2613C80.3759 81.5144 79.6646 81.7676 79.2582 81.9701C78.8009 82.1726 78.5469 82.2739 78.5469 82.2232C78.5469 82.2232 78.7501 82.0713 79.2074 81.8688C79.6646 81.6663 80.3251 81.3625 81.138 81.0588C82.0017 80.8056 83.0178 80.5018 84.1864 80.4006C85.3549 80.2993 86.6759 80.3499 87.9969 80.7043C89.3178 81.0587 90.4864 81.7169 91.3501 82.4764C92.2138 83.2865 92.8235 84.1978 93.1791 85.0079C93.5348 85.818 93.6364 86.5268 93.6872 87.0331C93.6872 87.2862 93.6872 87.4887 93.6872 87.59C93.6364 87.7925 93.6364 87.8432 93.6364 87.8432Z" fill="#263238"/>
<path d="M87.4891 85.1591C87.4891 85.1591 87.3875 85.5135 87.0318 86.0198C86.6762 86.5261 86.0665 87.1337 85.2028 87.5387C84.3391 87.9438 83.4754 88.0957 82.8657 88.0957C82.256 88.0957 81.9004 87.9438 81.9004 87.9438C81.9004 87.8932 82.256 87.9438 82.8657 87.8932C83.4754 87.8425 84.2883 87.6906 85.0504 87.2856C85.8633 86.8806 86.473 86.3236 86.8286 85.868C87.2859 85.4629 87.4383 85.1085 87.4891 85.1591Z" fill="#263238"/>
<path d="M93.6364 88.5516C93.6364 88.6023 93.484 88.7542 93.0776 88.8554C92.7219 88.9567 92.1123 88.9567 91.6042 88.6529C91.0453 88.3491 90.7405 87.8935 90.6389 87.4884C90.5373 87.134 90.5373 86.8809 90.5881 86.8809C90.6389 86.8809 90.6389 87.0834 90.8421 87.4378C90.9945 87.7416 91.2994 88.1466 91.7566 88.3998C92.2139 88.6529 92.7219 88.6529 93.0776 88.6529C93.4332 88.6023 93.6364 88.501 93.6364 88.5516Z" fill="#263238"/>
<path d="M93.8398 82.5777C93.8398 82.5777 93.6366 82.3751 93.3317 82.0207C93.0269 81.6663 92.5696 81.1094 91.96 80.5018C90.7914 79.2361 89.0132 77.6159 86.8793 76.097C86.3713 75.7426 85.7616 75.4895 85.1519 75.6414C84.593 75.7932 84.0342 76.097 83.5261 76.2995C82.4592 76.7552 81.5447 77.1603 80.7317 77.464C79.9697 77.7678 79.3092 78.021 78.8519 78.2235C78.3947 78.426 78.1406 78.4766 78.1406 78.4766C78.1406 78.4766 78.3947 78.3247 78.8011 78.1222C79.3092 77.9197 79.9188 77.6159 80.6809 77.2615C81.4938 76.9071 82.4084 76.5021 83.4753 76.0464C83.7293 75.9451 83.9834 75.7932 84.2882 75.692C84.5422 75.5907 84.8471 75.4388 85.1519 75.3882C85.4568 75.2869 85.8124 75.3376 86.168 75.4388C86.4729 75.5401 86.7777 75.692 87.0826 75.8945C89.2672 77.4134 90.9946 79.0842 92.1632 80.4006C92.7221 81.0588 93.1793 81.6157 93.4842 81.9701C93.6874 82.3245 93.8398 82.527 93.8398 82.5777Z" fill="#263238"/>
<path d="M93.8903 78.9323C93.8903 78.9323 93.6362 78.7804 93.2806 78.426C92.8741 78.0716 92.3153 77.6159 91.604 77.059C90.1814 75.8945 88.2507 74.2744 85.9136 72.7555C85.304 72.401 84.6943 72.0973 84.0846 71.996C83.4749 71.8441 82.8144 71.9454 82.2556 72.0973C81.1378 72.4517 80.2233 73.1099 79.512 73.6162C78.7499 74.1225 78.1403 74.5275 77.683 74.7806C77.429 74.8819 77.2765 74.9832 77.1241 75.0338C76.9717 75.0844 76.9209 75.0844 76.9209 75.0844C76.9209 75.0844 77.1749 74.9325 77.6322 74.6794C78.0895 74.4262 78.6991 74.0212 79.4104 73.4643C80.1217 72.958 81.0362 72.2492 82.2048 71.8441C82.7636 71.6416 83.4749 71.591 84.1354 71.6922C84.7959 71.8441 85.4564 72.1479 86.0661 72.5023C88.4032 74.0212 90.3338 75.692 91.7056 76.8565C92.4169 77.464 92.9249 77.9703 93.3314 78.3247C93.687 78.7298 93.8903 78.9323 93.8903 78.9323Z" fill="#263238"/>
<path d="M83.4751 90.5264C83.5259 90.577 83.1702 91.2859 82.3065 91.7415C81.4428 92.1972 80.6299 92.1466 80.6299 92.0453C80.6299 91.944 81.392 91.944 82.1541 91.4884C82.967 91.0833 83.4242 90.4758 83.4751 90.5264Z" fill="#263238"/>
<path d="M83.831 96.6524C83.831 96.7031 83.4246 96.6524 82.7641 96.5512C82.1036 96.3993 81.1891 96.1461 80.2746 95.6905C79.36 95.2348 78.598 94.7285 78.0391 94.2728C77.531 93.8678 77.2262 93.5134 77.277 93.5134C77.3278 93.4628 78.5471 94.5766 80.3762 95.4373C82.2052 96.298 83.831 96.5512 83.831 96.6524Z" fill="#263238"/>
<path d="M138.702 106.322C138.702 106.322 127.473 113.35 124.511 119.668C121.844 125.354 115.061 160.385 115.061 160.385L106.749 122.22L80.7822 122.696C80.7822 122.696 81.1023 182.095 83.1905 191.801C85.3701 201.876 87.7834 207.035 102.355 207.076C114.157 207.06 125.553 202.762 134.408 194.98L138.702 106.322Z" fill="#E1E1E1"/>
<path d="M106.562 122.53C106.562 122.53 104.138 109.928 104.774 107.958C105.414 105.994 108.869 99.3613 108.721 92.0453C108.533 86.6077 108.066 81.1802 107.329 75.7881L106.171 69.0543L101.314 67.1709C101.314 67.1709 99.4948 62.6243 98.6615 61.7991C97.996 61.2016 97.1526 60.832 96.2584 60.7611C95.3642 60.6903 94.47 60.908 93.7181 61.394C92.6613 62.0826 91.9144 63.1559 91.6299 64.3812C91.1879 64.0825 90.6849 63.8901 90.1565 63.8192C89.6281 63.7483 89.0896 63.7989 88.5866 63.966C88.0836 64.1331 87.6213 64.4166 87.2453 64.7913C86.8693 65.1659 86.5798 65.6216 86.407 66.1228C86.407 66.1228 83.8362 64.8976 82.0834 66.0165C81.5499 66.3659 81.1079 66.8367 80.8031 67.3937C80.4982 67.9506 80.3306 68.5733 80.3204 69.2113C80.3204 69.2113 78.0239 67.9405 76.4235 69.2113C75.9358 69.5758 75.5649 70.0821 75.3668 70.6593C75.1686 71.2365 75.1483 71.8592 75.3058 72.4465C75.3769 72.8515 78.1662 93.9895 78.2018 95.7869C78.2322 97.5893 81.1282 104.708 81.9614 106.369C82.7998 108.034 83.8413 123.021 83.8413 123.021L106.562 122.53Z" fill="#FFBE9D"/>
<path d="M101.669 74.426C101.669 74.426 101.522 74.669 101.374 75.1399C101.151 75.8234 101.024 76.5322 100.998 77.2461C100.927 79.7472 101.283 82.2433 102.05 84.6229L102.126 84.8558L101.892 84.9519C99.9771 85.7013 98.2344 86.8354 96.7763 88.2834C95.3181 89.7314 94.1699 91.468 93.4078 93.3818C92.7727 95.007 92.4171 96.7284 92.3561 98.4701C92.3612 100.085 92.5339 101.7 92.8794 103.275C92.6762 102.885 92.5238 102.47 92.4272 102.04C92.1224 100.875 91.9649 99.6751 91.9649 98.465C91.9598 96.6677 92.2748 94.8855 92.8896 93.1945C93.6517 91.1946 94.8304 89.377 96.3444 87.8632C97.8585 86.3493 99.6722 85.1747 101.674 84.4153L101.527 84.7292C100.77 82.2736 100.49 79.6915 100.693 77.1296C100.754 76.4056 100.932 75.6917 101.217 75.0234C101.293 74.8462 101.4 74.6792 101.522 74.5273C101.618 74.4716 101.659 74.4159 101.669 74.426Z" fill="#EFA077"/>
<path d="M124.867 207.582L149.625 206.848V185.558C149.625 185.558 111.256 180.789 109.493 181.3L102.121 206.853C102.121 206.853 124.212 207.582 124.867 207.582Z" fill="#FFBE9D"/>
<path d="M104.133 207.4C104.133 207.4 104.342 207.486 104.636 207.517C107.151 207.795 118.74 207.066 118.74 207.066C119.279 205.507 118.268 200.813 116.825 200.545C115.382 200.277 103.051 201.137 103.051 201.137C103.051 201.137 101.1 201.406 100.617 204.813C100.308 206.909 104.133 207.4 104.133 207.4Z" fill="#FFBE9D"/>
<path d="M99.9974 200.773C99.9974 200.823 100.201 200.854 100.495 200.889C102.964 201.147 113.715 201.036 114.183 199.75C114.65 198.464 113.868 194.712 112.455 194.464C111.038 194.216 98.9406 195.006 98.9406 195.006C98.9406 195.006 97.0303 195.254 96.5527 198.383C96.258 200.327 99.9974 200.773 99.9974 200.773Z" fill="#FFBE9D"/>
<path d="M98.0614 194.176C98.0614 194.176 98.2595 194.262 98.5694 194.292C101.095 194.581 112.15 194.449 112.628 193.077C113.166 191.523 112.318 187.66 110.86 187.381C109.401 187.103 96.9589 187.969 96.9589 187.969C96.9589 187.969 95.0028 188.237 94.5151 191.609C94.2407 193.7 98.0614 194.176 98.0614 194.176Z" fill="#FFBE9D"/>
<path d="M96.1155 187.614C96.2831 187.69 96.466 187.725 96.649 187.72C99.2452 187.988 110.605 187.867 111.093 186.581C111.647 185.148 110.773 181.548 109.274 181.3C107.781 181.052 94.9876 181.842 94.9876 181.842C94.9876 181.842 92.9706 182.09 92.4777 185.224C92.1729 187.158 96.1155 187.614 96.1155 187.614Z" fill="#FFBE9D"/>
<path d="M113.298 200.651C113.298 200.777 110.992 200.929 108.187 200.98C105.388 201.036 103.117 200.98 103.137 200.848C103.157 200.717 105.433 200.58 108.248 200.519C111.058 200.453 113.308 200.524 113.298 200.651Z" fill="#EFA077"/>
<path d="M113.807 194.52C113.807 194.631 110.291 194.799 105.942 194.88C101.593 194.961 98.0668 194.93 98.0567 194.819C98.0465 194.707 101.572 194.54 105.922 194.459C110.271 194.378 113.807 194.434 113.807 194.52Z" fill="#EFA077"/>
<g opacity="0.78">
<path opacity="0.78" d="M113.074 187.705C113.074 187.892 109.65 188.161 105.408 188.297C101.165 188.434 97.7309 188.378 97.7207 188.196C97.7106 188.009 101.145 187.74 105.387 187.604C109.625 187.467 113.064 187.508 113.074 187.705Z" fill="#EFA077"/>
</g>
<path d="M130.572 183.28C130.572 183.28 109.772 173.974 108.476 175.311C107.181 176.648 105.169 180.987 105.169 180.987L130.572 183.28Z" fill="#FFBE9D"/>
<path d="M146.576 182.773V207.582L234.852 205.511C237.296 205.461 239.699 204.899 241.914 203.871C244.13 202.838 246.101 201.36 247.701 199.522C249.307 197.684 250.506 195.537 251.222 193.208C251.944 190.884 252.167 188.434 251.878 186.019C251.141 180.065 250.277 173.154 249.383 165.964C247.981 154.785 245.273 123.962 242.229 106.444C241.544 102.333 239.511 98.5658 236.453 95.7204C233.394 92.875 229.482 91.1182 225.316 90.7182C224.391 90.6017 223.462 90.6017 222.537 90.7182C211.939 92.394 207.976 102.809 208.336 114.864C208.636 124.757 210.105 171.579 210.105 171.579L146.576 182.773Z" fill="#E0E0E0"/>
<path d="M79.1256 106.389L88.0574 107.391L89.4698 109.199L88.7331 114.753L86.8533 116.16L78.2568 114.621L79.1256 106.389Z" fill="#263238"/>
<path d="M87.9259 107.325C87.9919 107.325 87.8598 109.264 87.5245 111.608C87.1892 113.953 86.8539 115.892 86.7167 115.826C86.6506 115.826 86.7827 113.887 87.1181 111.543C87.5194 109.198 87.8598 107.325 87.9259 107.325Z" fill="#455B64"/>
<path d="M85.3699 115.892C85.3039 115.892 85.502 113.953 85.9085 111.543C86.3098 109.133 86.6502 107.26 86.7823 107.26C86.8484 107.26 86.6502 109.199 86.2438 111.609C85.8424 114.019 85.441 115.892 85.3699 115.892Z" fill="#455B64"/>
<path d="M70.5293 120.312C70.5293 120.849 76.2399 128.944 76.2399 128.944H81.4781L83.4951 127.471L84.369 122.448L78.1249 114.348L70.5293 120.312Z" fill="#263238"/>
<path d="M84.364 122.453C84.364 122.519 83.8966 122.853 83.1548 123.39C82.4181 123.926 81.341 124.726 80.1979 125.597C77.9827 127.405 76.235 129.081 76.1689 128.944C76.1689 128.944 76.5043 128.473 77.1749 127.805C77.8456 127.136 78.7855 126.266 79.9286 125.329C81.0718 124.392 82.1438 123.653 82.9516 123.121C83.7594 122.656 84.298 122.453 84.364 122.453Z" fill="#455B64"/>
<path d="M83.7589 121.648C83.8249 121.714 81.6758 122.722 79.4606 124.524C77.1794 126.332 75.8331 128.205 75.767 128.139C75.701 128.139 76.0363 127.603 76.6409 126.868C77.2455 126.129 78.1194 125.193 79.2625 124.256C80.4056 123.319 81.5437 122.651 82.3515 122.246C83.1543 121.851 83.6928 121.648 83.7589 121.648Z" fill="#455B64"/>
<path d="M69.9913 119.572H60.3838V132.625H69.9913V119.572Z" fill="#263238"/>
<path d="M70.1225 131.157C70.1225 131.222 67.9734 131.359 65.3518 131.359C62.7302 131.359 60.5811 131.293 60.5811 131.157C60.5811 131.091 62.7302 130.954 65.3518 130.954C67.9734 130.954 70.1225 131.02 70.1225 131.157Z" fill="#455B64"/>
<path d="M70.1225 129.952C70.1225 130.017 67.9734 130.154 65.3518 130.154C62.7302 130.154 60.5811 130.088 60.5811 129.952C60.5811 129.82 62.7302 129.749 65.3518 129.749C68.0445 129.815 70.1225 129.881 70.1225 129.952Z" fill="#455B64"/>
<path d="M55.6182 115.892C58.9104 120.843 65.8963 122.985 71.4698 120.843C77.0432 118.636 80.6048 112.277 79.5988 106.454L74.5588 109.735L55.6182 115.892Z" fill="#EBEBEB"/>
<path d="M31.3018 168.775H44.1964V156.194H71.3322C73.0799 156.194 74.5584 154.786 74.5584 152.979C74.5584 151.237 73.1459 149.764 71.3322 149.764H55.5466V145.414H84.0947C85.8425 145.414 87.1838 144.007 87.1838 142.336C87.1838 140.594 85.7714 139.258 84.0947 139.258H36.8752V144.144H31.571L31.3018 168.775Z" fill="#263238"/>
<path d="M36.8089 168.775C36.7428 168.775 36.6768 162.147 36.6768 154.046C36.6768 145.88 36.7428 139.323 36.88 139.323C36.946 139.323 37.0121 145.951 37.0121 154.046C37.0121 162.142 36.941 168.775 36.8089 168.775Z" fill="#455B64"/>
<path d="M44.1964 139.724C44.2624 139.724 44.3996 143.47 44.3996 148.022C44.3996 152.639 44.3336 156.32 44.1964 156.32C44.1303 156.32 43.9932 152.573 43.9932 148.022C43.9982 143.404 44.0643 139.724 44.1964 139.724Z" fill="#455B64"/>
<path d="M87.1837 193.74C87.1837 193.74 84.8974 184.368 74.0858 182.495H51.985H31.1645L30.2246 194.545L87.1837 193.74Z" fill="#EBEBEB"/>
<path d="M8.66797 165.428V116.899C8.66797 115.36 9.74507 113.952 11.2896 113.618L51.6604 102.171L52.0618 86.2426L76.1745 85.8427L83.6329 79.0127L95.3895 92.3992L79.7411 109.401L31.8408 124.195L31.033 193.806H87.0522C88.3934 193.806 89.5366 194.879 89.5366 196.282V205.385H8.66797V165.428Z" fill="#455B64"/>
<path d="M80.2694 139.252H58.3057C57.1626 139.252 56.2227 138.316 56.2227 137.176V137.04C56.2227 135.901 57.1626 134.964 58.3057 134.964H80.2694C81.4125 134.964 82.3524 135.901 82.3524 137.04V137.176C82.2813 138.386 81.4125 139.252 80.2694 139.252Z" fill="#E0E0E0"/>
<path d="M80.2686 139.252C80.2686 139.252 80.4718 139.252 80.8071 139.121C81.1425 138.984 81.681 138.721 82.0163 138.118C82.1484 137.784 82.2196 137.45 82.2196 136.979C82.2196 136.579 82.0163 136.108 81.681 135.774C81.3457 135.44 80.8732 135.171 80.2686 135.171C79.664 135.171 79.0594 135.171 78.4548 135.171C73.2827 135.171 66.1647 135.171 58.305 135.237C57.365 135.237 56.5572 135.971 56.4251 136.842C56.3591 137.313 56.4251 137.713 56.6283 138.113C56.8316 138.513 57.1669 138.781 57.5683 138.984C57.9696 139.186 58.3761 139.121 58.8435 139.121C59.3109 139.121 59.7834 139.121 60.1848 139.121C61.0587 139.121 61.9325 139.121 62.8064 139.121C66.2308 139.121 69.2538 139.121 71.8754 139.186C74.4259 139.186 76.5089 139.252 77.9874 139.252C78.658 139.252 79.2626 139.252 79.664 139.252C80.0654 139.252 80.2686 139.252 80.2686 139.252C80.2686 139.252 80.0654 139.252 79.664 139.318C79.2626 139.318 78.7241 139.318 77.9874 139.318C76.5089 139.318 74.4259 139.318 71.8754 139.384C69.2538 139.384 66.2359 139.384 62.8064 139.45C61.9325 139.45 61.0587 139.45 60.1848 139.45C59.7123 139.45 59.3109 139.45 58.8435 139.45C58.4421 139.45 57.9036 139.515 57.4311 139.247C56.9586 139.045 56.5572 138.71 56.354 138.245C56.0847 137.774 56.0847 137.242 56.1508 136.771C56.2829 135.703 57.2939 134.832 58.3659 134.898C66.2257 134.898 73.3437 134.964 78.5158 134.964C79.1864 134.964 79.791 134.964 80.3296 134.964C80.9342 134.964 81.4727 135.298 81.8741 135.698C82.2094 136.098 82.4126 136.569 82.4126 137.035C82.4126 137.505 82.3466 137.905 82.1434 138.24C81.808 138.908 81.2034 139.176 80.8681 139.242C80.4667 139.323 80.2686 139.252 80.2686 139.252Z" fill="#263238"/>
<path d="M19.8146 177.408C26.7141 177.408 32.3079 171.833 32.3079 164.958C32.3079 158.082 26.7141 152.508 19.8146 152.508C12.9151 152.508 7.32129 158.082 7.32129 164.958C7.32129 171.833 12.9151 177.408 19.8146 177.408Z" fill="#263238"/>
<path d="M26.8005 165.357C26.7345 165.357 26.8005 164.755 26.5312 163.686C26.262 162.684 25.5913 161.145 23.9808 159.94C23.1729 159.337 22.233 158.867 21.095 158.669C19.9518 158.467 18.7426 158.537 17.5334 159.003C16.9288 159.206 16.3242 159.54 15.7857 159.94C15.2471 160.34 14.7797 160.811 14.3733 161.347C13.5654 162.487 13.098 163.889 13.032 165.362C13.032 166.836 13.5045 168.238 14.3733 169.377C14.7746 169.914 15.2471 170.446 15.7857 170.785C16.3242 171.185 16.9288 171.519 17.5334 171.721C18.7426 172.192 20.0179 172.192 21.095 172.056C22.2381 171.853 23.178 171.387 23.9808 170.785C25.5253 169.58 26.262 168.106 26.5312 167.038C26.8005 166.031 26.7345 165.357 26.8005 165.357C26.8005 165.357 26.8666 165.96 26.6684 167.033C26.3991 168.101 25.7285 169.711 24.184 170.916C23.3762 171.519 22.3702 172.056 21.227 172.258C20.0839 172.461 18.7426 172.461 17.4674 171.99C16.8628 171.787 16.2582 171.453 15.6536 171.053C15.115 170.653 14.5765 170.116 14.1751 169.58C13.3012 168.441 12.8338 166.901 12.7627 165.362C12.7627 163.823 13.3012 162.35 14.1751 161.145C14.5765 160.542 15.115 160.077 15.6536 159.672C16.1921 159.272 16.7967 158.937 17.4674 158.735C18.7426 158.264 20.0179 158.264 21.227 158.467C22.3702 158.669 23.3762 159.201 24.184 159.803C25.7945 161.074 26.4652 162.613 26.6684 163.686C26.8666 164.76 26.8005 165.357 26.8005 165.357Z" fill="#455B64"/>
<path d="M79.7305 80.8205L94.1036 96.3487L99.0725 91.1946L84.8314 76.0664L79.7305 80.8205Z" fill="#263238"/>
<path d="M101.628 66.9631L95.1151 73.1855C94.6426 73.5855 94.6425 74.3246 95.049 74.7246L100.622 80.6129C101.024 81.0837 101.766 81.0837 102.233 80.6129L108.884 74.1221C109.356 73.6513 109.356 72.983 108.884 72.5172L103.244 66.9631C102.7 66.5631 102.03 66.5631 101.628 66.9631Z" fill="#263238"/>
<path d="M95.582 74.5273C95.4499 74.7957 88.2607 81.6915 88.2607 81.6915L93.9714 87.5139L101.16 80.3498L95.582 74.5273Z" fill="#263238"/>
<path d="M96.7914 205.319H0V209H96.7914V205.319Z" fill="#263238"/>
<path d="M74.0862 172.319H51.9854V182.496H74.0862V172.319Z" fill="#455B64"/>
<path d="M54.4083 182.495C54.3423 182.495 54.2051 180.217 54.2051 177.473C54.2051 174.729 54.2711 172.45 54.4083 172.45C54.5455 172.45 54.6115 174.723 54.6115 177.473C54.5404 180.217 54.4743 182.495 54.4083 182.495Z" fill="#263238"/>
<path d="M58.1026 182.495C58.0366 182.495 57.8994 180.217 57.8994 177.473C57.8994 174.729 57.9655 172.45 58.1026 172.45C58.2347 172.45 58.3059 174.723 58.3059 177.473C58.2347 180.217 58.1687 182.495 58.1026 182.495Z" fill="#263238"/>
<path d="M61.796 182.495C61.7299 182.495 61.5928 180.217 61.5928 177.473C61.5928 174.729 61.6588 172.45 61.796 172.45C61.862 172.45 61.9992 174.723 61.9992 177.473C61.9281 180.217 61.862 182.495 61.796 182.495Z" fill="#263238"/>
<path d="M65.4894 182.495C65.4233 182.495 65.2861 180.217 65.2861 177.473C65.2861 174.729 65.3522 172.45 65.4894 172.45C65.6215 172.45 65.6926 174.723 65.6926 177.473C65.6265 180.217 65.5554 182.495 65.4894 182.495Z" fill="#263238"/>
<path d="M69.1837 182.495C69.1176 182.495 68.9805 180.217 68.9805 177.473C68.9805 174.729 69.0465 172.45 69.1837 172.45C69.2497 172.45 69.3869 174.723 69.3869 177.473C69.3869 180.217 69.2497 182.495 69.1837 182.495Z" fill="#263238"/>
<path d="M72.8771 182.495C72.811 182.495 72.6738 180.217 72.6738 177.473C72.6738 174.729 72.7399 172.45 72.8771 172.45C72.9431 172.45 73.0803 174.723 73.0803 177.473C73.0803 180.217 72.9482 182.495 72.8771 182.495Z" fill="#263238"/>
<path d="M146.577 183.093C156.423 181.357 166.269 179.62 176.115 177.888C179.657 177.266 183.198 176.638 186.739 176.015C189.127 175.595 191.525 175.347 193.928 175.033C198.399 174.446 202.946 173.889 207.331 172.815C207.905 172.674 208.505 172.537 209.048 172.289C209.592 172.041 209.739 171.519 209.912 170.967C210.522 169.018 210.435 166.826 210.344 164.806C210.222 162.006 209.836 159.231 209.658 156.437C209.47 153.48 209.409 150.513 209.201 147.556C208.794 141.794 208.184 136.053 207.768 130.296C207.539 127.097 207.366 123.892 207.275 120.687C207.194 117.796 207.077 114.88 207.331 111.994C207.534 109.695 207.905 107.402 208.515 105.174C209.17 102.779 210.11 100.354 211.695 98.4046C212.483 97.4376 213.235 96.4351 214.088 95.5288C215.409 94.1264 216.974 92.9568 218.742 92.167C223.249 90.157 228.893 90.5317 233.075 93.1442C236.951 95.5693 239.486 99.6248 241.112 103.792C242.794 108.105 243.617 112.728 243.825 117.345C244.018 121.563 244.552 125.77 245.055 129.957C245.685 135.157 246.376 140.351 247.036 145.551C247.514 149.328 247.864 153.115 248.327 156.887C248.789 160.684 249.465 164.456 250.034 168.238C250.74 172.947 251.375 177.671 251.649 182.425C251.888 186.501 252.015 190.936 250.633 194.849C250.191 196.1 249.546 197.315 248.515 198.186C248.408 198.277 248.616 198.733 248.515 198.819C250.974 196.743 251.441 192.915 251.665 189.923C251.969 185.802 251.715 181.63 251.309 177.524C250.516 169.504 248.855 161.601 248.057 153.581C247.087 143.82 245.542 134.114 244.481 124.363C244.252 122.241 244.033 120.115 243.891 117.983C243.759 115.933 243.668 113.897 243.363 111.867C242.667 107.194 241.29 102.485 238.78 98.4451C236.357 94.5517 232.734 91.4582 228.136 90.5671C223.36 89.6406 218.325 90.8405 214.769 94.1973C213.788 95.1238 212.996 96.1921 212.142 97.23C210.654 99.0425 209.617 101.017 208.891 103.25C207.62 107.148 207.178 111.265 207.184 115.34C207.189 121.699 207.509 128.038 208.032 134.372C208.52 140.26 209.124 146.138 209.434 152.042C209.582 154.847 209.673 157.631 209.942 160.431C210.232 163.444 210.735 166.669 210.08 169.661C209.952 170.238 209.79 171.2 209.251 171.544C208.82 171.823 208.235 171.939 207.747 172.066C205.822 172.572 203.846 172.901 201.884 173.225C199.39 173.635 196.89 173.995 194.385 174.329C192.511 174.577 190.616 174.739 188.741 175.018C186.668 175.321 184.605 175.747 182.542 176.111C172.757 177.838 162.977 179.559 153.192 181.286C150.981 181.676 148.771 182.065 146.566 182.455C146.536 182.465 146.607 183.088 146.577 183.093Z" fill="#263238"/>
<path d="M146.618 187.453C146.709 190.546 146.755 193.64 146.775 196.738C146.79 199.416 146.78 202.1 146.694 204.778C146.663 205.684 146.587 206.596 146.577 207.502C146.572 207.998 146.623 208.054 147.136 208.064C148.01 208.084 148.894 207.958 149.758 207.872C151.17 207.74 152.587 207.608 154.005 207.522C155.961 207.401 157.917 207.401 159.878 207.381C163.546 207.34 167.21 207.269 170.878 207.203C179.017 207.057 187.156 206.854 195.295 206.768C204.12 206.677 212.945 206.763 221.76 206.343C226.236 206.13 230.728 205.816 235.163 205.148C238.313 204.677 241.753 204.125 244.578 202.556C245.045 202.297 245.487 201.994 245.883 201.634C245.99 201.538 245.782 201.097 245.883 201.001C244.989 201.816 243.851 202.338 242.723 202.758C241.158 203.34 239.517 203.73 237.881 204.054C233.639 204.885 229.31 205.259 225.002 205.533C215.847 206.11 206.671 206.074 197.5 206.12C189.534 206.16 181.562 206.373 173.596 206.52C169.516 206.596 165.441 206.672 161.362 206.727C160.249 206.743 159.141 206.758 158.029 206.758C154.955 206.768 151.907 207.046 148.853 207.32C148.152 207.381 147.451 207.355 146.755 207.396C146.719 207.396 146.608 207.32 146.597 207.325C146.582 207.33 146.557 207.978 146.592 207.694C146.607 207.588 146.608 207.477 146.613 207.365C146.643 206.803 146.668 206.241 146.689 205.679C146.77 203.421 146.79 201.163 146.79 198.905C146.795 195.118 146.74 191.326 146.643 187.539C146.638 187.306 146.633 187.073 146.623 186.835C146.628 186.992 146.613 187.26 146.618 187.453Z" fill="#263238"/>
<path d="M135.465 128.722C138.026 142.265 136.71 156.087 137.371 169.767C137.554 173.494 137.884 177.215 138.473 180.906C138.443 180.703 138.504 180.48 138.473 180.273C136.299 166.674 137.701 152.867 136.817 139.187C136.578 135.465 136.156 131.759 135.465 128.094C135.501 128.291 135.425 128.519 135.465 128.722Z" fill="#263238"/>
<path d="M86.254 123.745C90.0035 123.527 93.748 123.309 97.4975 123.087C99.7939 122.955 102.136 122.413 104.438 122.58C107.008 122.768 107.39 125.471 107.791 127.522C108.152 129.38 108.822 131.177 109.274 133.015C111.647 142.62 112.943 152.467 114.95 162.153C115.966 167.054 117.028 172.041 118.882 176.704C118.811 176.521 118.953 176.253 118.882 176.071C117.256 171.985 116.265 167.646 115.336 163.358C114.218 158.188 113.288 152.979 112.343 147.774C111.495 143.106 110.672 138.427 109.61 133.805C109.208 132.063 108.756 130.332 108.207 128.626C107.572 126.641 107.765 123.416 105.667 122.266C104.697 121.735 103.371 121.917 102.314 121.998C101.1 122.094 99.8956 122.287 98.6813 122.383C94.5456 122.712 90.3897 122.869 86.254 123.112C86.2388 123.112 86.2642 123.745 86.254 123.745Z" fill="#263238"/>
</g>
<defs>
<clipPath id="clip0">
<rect width="252" height="209" fill="white"/>
</clipPath>
</defs>
</svg>
