<svg width="162" height="214" viewBox="0 0 162 214" fill="none" xmlns="http://www.w3.org/2000/svg">
<g clip-path="url(#clip0)">
<path d="M78.1201 98.6599L88.0001 95.1599L115.46 92.8398L128.95 100.28C128.95 100.28 104.45 138.28 103.51 138.28C102.57 138.28 78.1201 98.6599 78.1201 98.6599Z" fill="#FFBE9D"/>
<path d="M139.68 145.33L148.43 111L123.83 97.4502L100.07 134.06L78.55 98.4802L56.38 108.48C54.9226 109.138 53.7511 110.299 53.08 111.75L33 166L60.1 174.75L63.21 162.18L66.78 183.89L64.78 205.53C75.3712 210.867 87.0555 213.675 98.915 213.734C110.775 213.793 122.486 211.101 133.13 205.87L129.33 182.05L131.5 169L139.68 145.33Z" fill="#963EEE"/>
<path d="M130.39 140.149H112.08V143.179H130.39V140.149Z" fill="#263238"/>
<path d="M131.63 177.17C139.02 179.8 147.14 179.41 154.9 178.26C156.768 178.136 158.569 177.519 160.12 176.47C160.61 176.08 161.78 175.09 161.76 174.86C161.76 174.15 160.42 173.21 159.67 172.62C156.85 170.445 153.597 168.901 150.129 168.09C146.662 167.279 143.061 167.221 139.57 167.92C137.707 168.243 135.925 168.922 134.32 169.92C132.74 170.98 131.76 171.56 131.22 173.37" fill="#963EEE"/>
<g opacity="0.3">
<path opacity="0.3" d="M131.63 177.17C139.02 179.8 147.14 179.41 154.9 178.26C156.768 178.136 158.569 177.519 160.12 176.47C160.61 176.08 161.78 175.09 161.76 174.86C161.76 174.15 160.42 173.21 159.67 172.62C156.85 170.445 153.597 168.901 150.129 168.09C146.662 167.279 143.061 167.221 139.57 167.92C137.707 168.243 135.925 168.922 134.32 169.92C132.74 170.98 131.76 171.56 131.22 173.37" fill="black"/>
</g>
<path d="M161.76 174.86C161.76 174.86 153.99 128.49 153.5 124.35C152.3 114.1 148.43 110.82 148.43 110.82L130.43 166.04L131.68 177.17C131.68 177.17 137.34 168.59 161.76 174.86Z" fill="#963EEE"/>
<path d="M151.81 137.62C151.725 138.011 151.611 138.396 151.47 138.77C151.24 139.5 150.86 140.55 150.36 141.83C149.031 145.167 147.446 148.397 145.62 151.49C143.796 154.585 141.726 157.528 139.43 160.29C138.54 161.35 137.8 162.18 137.27 162.73C137.008 163.034 136.72 163.315 136.41 163.57C136.64 163.244 136.891 162.934 137.16 162.64C137.67 162.06 138.38 161.21 139.24 160.13C141.468 157.334 143.499 154.387 145.32 151.31C147.132 148.229 148.739 145.032 150.13 141.74C150.66 140.47 151.07 139.44 151.35 138.74C151.474 138.355 151.628 137.981 151.81 137.62Z" fill="#263238"/>
<path d="M66.7003 182.799C66.7003 182.799 66.7003 182.749 66.7003 182.649L66.6204 182.199C66.5604 181.779 66.4703 181.199 66.3503 180.469C66.1003 178.939 65.7304 176.779 65.2904 174.129C64.3604 168.769 63.0304 161.379 61.5404 153.229L57.7404 132.329C57.2704 129.679 56.9004 127.519 56.6304 125.989C56.5104 125.259 56.4204 124.689 56.3604 124.259C56.3604 124.079 56.3604 123.929 56.3604 123.809C56.3604 123.689 56.3604 123.649 56.3604 123.649C56.3604 123.649 56.3604 123.649 56.3604 123.799C56.3604 123.949 56.4104 124.069 56.4504 124.249L56.7803 125.969C57.0803 127.489 57.4904 129.639 58.0004 132.289C59.0004 137.619 60.4204 144.999 61.9104 153.159C63.4004 161.319 64.6904 168.719 65.5504 174.089C65.9904 176.769 66.3004 178.949 66.5504 180.449C66.6304 181.179 66.7004 181.759 66.7504 182.189C66.7504 182.369 66.7504 182.519 66.7504 182.649C66.7504 182.779 66.7103 182.799 66.7003 182.799Z" fill="#263238"/>
<path d="M141 126.899C140.985 127.075 140.955 127.249 140.91 127.419C140.82 127.789 140.71 128.289 140.58 128.899C140.27 130.219 139.84 132.069 139.32 134.329C138.25 138.909 136.76 145.239 135.19 152.239C133.62 159.239 132.25 165.599 131.34 170.239C130.89 172.549 130.53 174.419 130.34 175.709C130.23 176.339 130.14 176.829 130.07 177.199C130.054 177.377 130.013 177.552 129.95 177.719C129.956 177.542 129.972 177.365 130 177.189C130.047 176.816 130.117 176.316 130.21 175.689C130.38 174.389 130.71 172.509 131.13 170.199C131.97 165.559 133.3 159.199 134.87 152.199C136.44 145.199 137.97 138.879 139.1 134.309C139.68 132.059 140.1 130.219 140.47 128.909C140.64 128.299 140.77 127.809 140.87 127.449C140.895 127.262 140.939 127.078 141 126.899Z" fill="#263238"/>
<path d="M72.8604 100.85C72.9217 100.917 72.9753 100.991 73.0203 101.07L73.4304 101.71L75.0004 104.2L80.7304 113.41C85.5504 121.24 92.2204 132 99.6204 144H99.3204L100.22 142.73L103.02 138.8V139L85.5704 110.1L80.4004 101.45L79.0004 99.1103L78.6404 98.4903L78.5303 98.2803C78.5873 98.3354 78.6346 98.3996 78.6703 98.4703L79.0504 99.0703L80.4903 101.39L85.7803 110L103.31 138.86L103.37 138.96L103.3 139.05L100.51 143L99.6104 144.26L99.4604 144.48L99.3204 144.25L80.5203 113.57C78.1503 109.67 76.2204 106.5 74.8904 104.3L73.3704 101.78L72.9903 101.12C72.9386 101.035 72.895 100.944 72.8604 100.85Z" fill="#263238"/>
<path d="M123.83 97.2696L123.72 97.4596L123.38 98.0196C123.06 98.5196 122.62 99.2296 122.04 100.13L117.04 107.93L100.21 133.93V133.74L102.55 137.55L103.3 138.79H103C106.6 133.4 109.92 128.22 113 123.53C116.08 118.84 118.82 114.65 121.24 111.19C123.66 107.73 125.67 105 127.09 103.13L128.74 100.98L129.18 100.43C129.227 100.364 129.281 100.304 129.34 100.25L129.21 100.45L128.8 101.03L127.2 103.21C125.82 105.1 123.82 107.86 121.44 111.33C119.06 114.8 116.29 119 113.27 123.7C110.25 128.4 106.93 133.59 103.33 138.99L103.17 139.21L103 139C102.76 138.61 102.5 138.19 102.25 137.77L99.9199 134V133.91L99.9799 133.82L116.9 107.82L121.99 100.08L123.32 97.9996C123.48 97.7796 123.6 97.5996 123.69 97.4596C123.78 97.3196 123.82 97.2596 123.83 97.2696Z" fill="#263238"/>
<path d="M76.8199 162.18C75.4797 161.604 73.9735 161.544 72.5921 162.014C71.2107 162.483 70.052 163.447 69.3399 164.72C68.7964 165.8 68.5833 167.017 68.7274 168.217C68.8715 169.418 69.3663 170.549 70.1499 171.47C71.7499 173.18 75.6199 174.33 77.4199 172.28L76.8199 162.18Z" fill="#EBEBEB"/>
<path d="M76.82 162.179C76.8626 162.414 76.8893 162.651 76.9 162.89L77.07 164.95C77.2 166.8 77.38 169.32 77.58 172.27V172.34C77.1785 172.757 76.6867 173.077 76.1424 173.274C75.5981 173.472 75.0157 173.542 74.44 173.48C73.215 173.414 72.0287 173.028 71 172.36C70.0029 171.7 69.2617 170.719 68.9 169.58C68.5605 168.534 68.4849 167.421 68.68 166.34C68.8458 165.357 69.2742 164.438 69.92 163.679C70.4893 163.031 71.192 162.512 71.98 162.16C73.1083 161.628 74.3786 161.477 75.6 161.73C76.0435 161.815 76.4716 161.967 76.87 162.179C76.87 162.179 76.42 162.01 75.58 161.86C74.3876 161.67 73.1658 161.852 72.08 162.38C71.2806 162.746 70.5825 163.302 70.0459 163.999C69.5093 164.696 69.1503 165.513 69 166.38C68.8182 167.406 68.8973 168.462 69.23 169.45C69.5782 170.52 70.2845 171.438 71.23 172.05C72.2087 172.699 73.3385 173.085 74.51 173.17C75.0345 173.233 75.5666 173.176 76.0657 173.003C76.5648 172.829 77.0178 172.544 77.39 172.17V172.28C77.25 169.35 77.12 166.86 77.03 165.03C77.03 164.17 76.97 163.47 76.95 162.94C76.8815 162.691 76.838 162.437 76.82 162.179Z" fill="#263238"/>
<path d="M73.0996 161.75C73.0996 161.75 74.9996 122.11 75.9996 116.42C76.9996 110.73 79.5596 101.55 83.5696 95.9996C87.4096 90.6896 87.7896 90.3096 87.7896 90.3096L87.5396 95.3096C83.8931 101.71 81.2905 108.65 79.8296 115.87C77.6896 127.1 76.2196 161.8 76.2196 161.8L73.0996 161.75Z" fill="#263238"/>
<path d="M126.44 169.28C125.314 169.266 124.201 169.039 123.16 168.61L123.67 167.36C125.047 167.959 126.585 168.082 128.04 167.71C128.756 167.494 129.413 167.121 129.965 166.617C130.518 166.114 130.95 165.493 131.23 164.8C131.671 163.432 131.696 161.963 131.3 160.58C131.028 159.561 130.694 158.559 130.3 157.58C130.13 157.14 129.96 156.7 129.81 156.26C126.97 148.26 127.46 139.37 127.89 131.49L129.24 131.57C128.81 139.31 128.33 148.09 131.08 155.81C131.23 156.24 131.4 156.67 131.56 157.1C131.981 158.137 132.335 159.199 132.62 160.28C133.085 161.921 133.043 163.664 132.5 165.28C132.153 166.171 131.606 166.971 130.9 167.616C130.194 168.261 129.349 168.735 128.43 169C127.784 169.19 127.114 169.284 126.44 169.28Z" fill="#E0E0E0"/>
<path d="M126.31 169.88C125.141 169.849 123.995 169.545 122.964 168.993C121.933 168.441 121.045 167.656 120.37 166.7C118.14 163.96 117.79 157.16 117.48 151.16C117.37 149.01 117.26 146.99 117.07 145.52C116.41 140.33 113.43 133.38 113.4 133.31L114.64 132.78C114.77 133.07 117.72 139.97 118.41 145.35C118.61 146.87 118.71 148.92 118.83 151.09C119.11 156.6 119.47 163.45 121.42 165.85C124.36 169.47 127.93 169.44 132.99 165.73L133.79 166.82C131 168.86 128.52 169.88 126.31 169.88Z" fill="#EBEBEB"/>
<path d="M131.07 166.9C131.313 166.211 131.65 165.558 132.07 164.96C132.482 164.378 133.108 163.983 133.81 163.86C134.162 163.817 134.518 163.886 134.828 164.056C135.139 164.227 135.388 164.49 135.54 164.81C135.671 165.141 135.711 165.501 135.657 165.852C135.602 166.204 135.455 166.534 135.23 166.81C134.798 167.341 134.186 167.697 133.51 167.81C132.846 167.894 132.174 167.894 131.51 167.81" fill="#263238"/>
<path d="M117.6 108.079C122.88 114.863 126.048 123.049 126.71 131.619H129.52C128.925 121.785 125.053 112.434 118.52 105.059C119.23 102.821 119.749 100.526 120.07 98.1995C120.69 92.9195 115.07 89.7295 115.07 89.7295L114.91 93.7295C115.64 94.1433 116.244 94.7464 116.659 95.475C117.075 96.2037 117.286 97.0309 117.27 97.8695C117.15 100.709 115.01 106.749 112.92 111.959C111.166 116.238 110.384 120.852 110.63 125.469C110.82 131.379 113.13 134.049 113.13 134.049L115.91 132.869C115.91 132.869 114.25 130.789 113.52 125.079C112.97 120.729 114.26 117.319 115.38 114.159C116 112.599 116.8 110.449 117.6 108.079Z" fill="#263238"/>
<path d="M37.5095 167.32L34.1195 180.19C33.5567 182.239 33.5373 184.399 34.0634 186.458C34.5894 188.516 35.6427 190.402 37.1195 191.93L37.6795 192.46C39.443 194.035 41.6098 195.087 43.9374 195.501C46.2651 195.914 48.6618 195.671 50.8595 194.8L85.8595 180.91L80.6895 165.16L54.1495 172.7L37.5095 167.32Z" fill="#FFBE9D"/>
<path d="M66.2002 145.88L72.5402 179.6C72.6699 180.313 73.0533 180.955 73.6194 181.407C74.1856 181.859 74.8963 182.091 75.6202 182.06L124 180.22C124.398 180.208 124.789 180.118 125.151 179.954C125.513 179.79 125.839 179.555 126.11 179.264C126.381 178.973 126.591 178.63 126.728 178.257C126.866 177.884 126.928 177.487 126.91 177.09L125.8 145.21C125.777 144.43 125.45 143.69 124.89 143.147C124.33 142.603 123.58 142.3 122.8 142.3H69.1702C68.7248 142.296 68.2841 142.391 67.8802 142.579C67.4762 142.766 67.119 143.042 66.8347 143.384C66.5503 143.727 66.3458 144.129 66.2361 144.561C66.1263 144.992 66.114 145.443 66.2002 145.88Z" fill="#455A64"/>
<path d="M119.1 159.61C118.192 159.609 117.305 159.883 116.556 160.395C115.806 160.907 115.229 161.634 114.9 162.48C114.2 164.31 113.17 166.48 112.04 167.06C109.94 168.2 106.31 169.12 104.4 168.18C102.49 167.24 94.8603 160.38 93.5303 161.18C92.2003 161.98 91.0403 163.66 92.3803 165.18C93.7203 166.7 100.78 171.29 99.4403 172.81C98.1003 174.33 83.2203 167.62 80.9303 168.21C78.6403 168.8 77.3003 170.21 78.6403 171.13C79.9803 172.05 90.0903 175.87 90.6403 177.2C90.6403 177.2 75.3703 173.2 74.8003 174.2C74.2303 175.2 73.2803 176.68 74.8003 177.2C76.3203 177.72 89.5003 181.2 90.6403 181.78C92.5345 182.568 94.5097 183.145 96.5303 183.5C98.6122 184.045 100.665 184.696 102.68 185.45C105.769 186.52 109.142 186.431 112.17 185.2L113.72 184.57C114.898 184.092 115.895 183.255 116.57 182.178C117.245 181.101 117.563 179.839 117.48 178.57L117.17 173.36L118.84 169.07L119.1 159.61Z" fill="#FFBE9D"/>
<path d="M106.87 186.16C106.87 186.16 134.73 211.38 144.11 211.45C154 211.53 159.56 201.27 158.51 194.89C157.95 191.49 156.51 173.71 156.51 173.71C149.89 171.9 140 171.09 132.95 175.78L135.51 186.16L116.92 177.16L106.87 186.16Z" fill="#FFBE9D"/>
<path d="M161.76 174.86L161.44 174.81L160.54 174.59L157.24 173.81C153.616 172.936 149.899 172.506 146.17 172.53C144.122 172.594 142.082 172.825 140.07 173.22C138.424 173.502 136.817 173.975 135.28 174.63C134.244 175.071 133.28 175.664 132.42 176.39C131.81 176.91 131.52 177.25 131.5 177.22C131.48 177.19 131.55 177.13 131.69 176.96C131.884 176.719 132.095 176.492 132.32 176.28C133.17 175.513 134.131 174.879 135.17 174.4C136.716 173.704 138.342 173.2 140.01 172.9C142.036 172.483 144.093 172.242 146.16 172.18C149.916 172.147 153.659 172.615 157.29 173.57C158.69 173.92 159.81 174.23 160.58 174.46L161.46 174.74C161.565 174.769 161.665 174.809 161.76 174.86Z" fill="#263238"/>
<path d="M114 35.5001C115.179 35.6253 116.268 36.1896 117.05 37.0808C117.832 37.972 118.25 39.1248 118.22 40.3101L115.4 98.1701C115.28 105.73 104.24 109.97 96.1504 109.78C87.9804 107.85 87.6904 102.95 87.5904 95.7801C87.4104 83.7801 87.4704 87.9901 87.4604 88.0601C87.4504 88.1301 77.1404 86.3101 75.0004 72.84C74.0004 66.14 74.3104 55.1701 74.9004 46.2001C75.4204 38.1201 80.8004 28.2001 88.8404 29.0901L114 35.5001Z" fill="#FFBE9D"/>
<path d="M79.6398 55.8798C79.6343 56.3292 79.8049 56.7629 80.1151 57.0881C80.4254 57.4133 80.8506 57.6041 81.2998 57.6198C81.519 57.6374 81.7395 57.6111 81.9483 57.5424C82.1572 57.4737 82.3502 57.3639 82.5161 57.2194C82.6819 57.075 82.8172 56.899 82.914 56.7015C83.0108 56.5041 83.0672 56.2893 83.0798 56.0698C83.0854 55.6194 82.915 55.1845 82.6051 54.8578C82.2951 54.531 81.8698 54.3379 81.4198 54.3198C81.1998 54.3021 80.9785 54.3287 80.769 54.3981C80.5595 54.4674 80.366 54.5781 80.2001 54.7236C80.0341 54.869 79.899 55.0463 79.8028 55.2449C79.7065 55.4435 79.6511 55.6594 79.6398 55.8798Z" fill="#263238"/>
<path d="M77.3002 52.3901C77.5102 52.6201 78.8202 51.6501 80.6802 51.6601C82.5402 51.6701 83.8902 52.6001 84.1002 52.3701C84.3102 52.1401 83.9802 51.8701 83.3902 51.4301C82.5852 50.8735 81.6289 50.5769 80.6502 50.5801C79.6838 50.5764 78.7414 50.8812 77.9602 51.4501C77.3802 51.8801 77.1902 52.2901 77.3002 52.3901Z" fill="#263238"/>
<path d="M97.3995 56.6003C97.394 57.0497 97.5647 57.4834 97.8749 57.8086C98.1852 58.1338 98.6104 58.3247 99.0595 58.3403C99.279 58.3594 99.5001 58.3341 99.7095 58.2659C99.919 58.1976 100.113 58.0879 100.279 57.9433C100.445 57.7986 100.58 57.622 100.676 57.4239C100.773 57.2258 100.828 57.0103 100.84 56.7903C100.856 56.3331 100.69 55.888 100.379 55.5526C100.068 55.2171 99.6367 55.0185 99.1795 55.0003C98.9563 54.9826 98.7319 55.0105 98.5198 55.0823C98.3077 55.1541 98.1124 55.2683 97.9459 55.418C97.7794 55.5677 97.6451 55.7497 97.5511 55.953C97.4572 56.1562 97.4056 56.3765 97.3995 56.6003Z" fill="#263238"/>
<path d="M95.7197 52.3903C95.9397 52.6203 97.2497 51.6503 99.1097 51.6603C100.97 51.6703 102.32 52.6003 102.53 52.3803C102.74 52.1603 102.41 51.8703 101.81 51.3803C101.009 50.8222 100.056 50.5253 99.0797 50.5303C98.1133 50.5266 97.1709 50.8314 96.3897 51.4003C95.8097 51.8803 95.6197 52.2903 95.7197 52.3903Z" fill="#263238"/>
<path d="M88.78 66.0603C87.805 65.7598 86.7981 65.5752 85.78 65.5103C85.3 65.4603 84.85 65.3703 84.78 65.0403C84.7324 64.5513 84.8446 64.06 85.1 63.6403C85.54 62.4903 86.01 61.2903 86.51 60.0303C88.51 54.8903 89.89 50.6603 89.68 50.5803C89.47 50.5003 87.68 54.5803 85.75 59.7503L84.4 63.3803C84.1011 63.9518 84.0127 64.6101 84.15 65.2403C84.2186 65.4083 84.3244 65.5587 84.4595 65.6799C84.5947 65.8012 84.7555 65.8902 84.93 65.9403C85.194 66.0122 85.4664 66.0492 85.74 66.0503C86.7484 66.1886 87.7707 66.1919 88.78 66.0603Z" fill="#263238"/>
<path d="M87.4502 88.0503C93.7754 88.1516 100.005 86.5007 105.45 83.2803C105.45 83.2803 100.88 92.7703 87.4502 91.4803V88.0503Z" fill="#EB996E"/>
<path d="M89.0802 70.5802C89.4635 69.9472 89.9826 69.4071 90.5999 68.999C91.2173 68.5908 91.9176 68.3249 92.6502 68.2202C93.0771 68.1825 93.5056 68.2739 93.88 68.4825C94.2544 68.6911 94.5576 69.0073 94.7502 69.3902C94.9499 69.8919 95.0269 70.4341 94.9747 70.9716C94.9225 71.509 94.7427 72.0263 94.4502 72.4802C94.1632 72.9565 93.7437 73.3388 93.2428 73.5804C92.742 73.8219 92.1816 73.9122 91.6302 73.8402C90.7251 73.5707 89.9187 73.0424 89.3102 72.3202C89.0991 72.1445 88.9372 71.9171 88.8402 71.6602C88.7836 71.4942 88.7668 71.3172 88.7911 71.1435C88.8154 70.9698 88.8802 70.8043 88.9802 70.6602" fill="#EB996E"/>
<path d="M94.2495 67.3595C93.9495 67.3595 93.9395 69.3595 92.2495 70.7895C90.5595 72.2195 88.3695 71.9895 88.3595 72.2695C88.3495 72.5495 88.8395 72.6595 89.7395 72.6895C90.9258 72.7116 92.0814 72.3111 92.9995 71.5595C93.8826 70.8474 94.4501 69.8165 94.5795 68.6895C94.6095 67.8495 94.3895 67.3495 94.2495 67.3595Z" fill="#263238"/>
<path d="M94.6704 48.1297C94.9004 48.6097 96.6704 48.1897 98.9104 48.2397C101.15 48.2897 102.91 48.6997 103.17 48.2397C103.27 48.0097 102.92 47.5697 102.17 47.1497C101.169 46.6425 100.063 46.3754 98.9404 46.3697C97.8162 46.3464 96.7025 46.5897 95.6904 47.0797C94.9304 47.4597 94.5604 47.8897 94.6704 48.1297Z" fill="#263238"/>
<path d="M77.4605 49.33C77.8705 49.75 79.4605 49.33 81.3705 49.33C83.2805 49.33 84.9005 49.61 85.2705 49.17C85.4305 48.95 85.1805 48.53 84.4705 48.17C83.4864 47.6742 82.3913 47.44 81.2905 47.49C80.1972 47.4955 79.1246 47.7887 78.1805 48.34C77.5005 48.69 77.2805 49.12 77.4605 49.33Z" fill="#263238"/>
<path d="M123.53 80.9297C123.454 80.9429 123.376 80.9429 123.3 80.9297C123.15 80.9297 122.93 80.8397 122.65 80.7497C121.856 80.4966 121.124 80.0812 120.5 79.5297C120.023 79.1149 119.654 78.5907 119.424 78.0021C119.194 77.4134 119.111 76.7778 119.18 76.1497C119.22 75.7668 119.346 75.3978 119.548 75.0705C119.751 74.7432 120.025 74.466 120.35 74.2597C120.534 74.1444 120.745 74.0783 120.962 74.0678C121.179 74.0573 121.395 74.1027 121.59 74.1997C121.803 74.2977 121.975 74.4677 122.076 74.6798C122.176 74.8918 122.199 75.1325 122.14 75.3597C122.107 75.4749 122.051 75.5822 121.976 75.6751C121.9 75.7679 121.806 75.8443 121.7 75.8997C121.502 75.9918 121.288 76.0429 121.07 76.0497C120.664 76.0616 120.261 75.9831 119.89 75.8197C119.206 75.5416 118.584 75.1303 118.06 74.6097C117.163 73.724 116.613 72.5461 116.51 71.2897C116.448 70.4538 116.581 69.6149 116.9 68.8397C116.99 68.6331 117.094 68.4327 117.21 68.2397C117.29 68.1097 117.34 68.0497 117.35 68.0597C117.36 68.0697 117.21 68.3497 117.02 68.8897C116.749 69.6518 116.653 70.4654 116.74 71.2697C116.863 72.4612 117.406 73.5703 118.27 74.3997C118.767 74.8788 119.355 75.2529 120 75.4997C120.315 75.6375 120.656 75.709 121 75.7097C121.164 75.7206 121.327 75.6815 121.468 75.5976C121.609 75.5137 121.721 75.3888 121.79 75.2397C121.818 75.0812 121.793 74.9178 121.719 74.775C121.645 74.6321 121.526 74.5177 121.38 74.4497C121.233 74.378 121.07 74.3458 120.907 74.3563C120.744 74.3668 120.586 74.4197 120.45 74.5097C120.172 74.6944 119.939 74.938 119.766 75.2231C119.593 75.5083 119.485 75.8281 119.45 76.1597C119.362 76.7811 119.449 77.4146 119.7 77.9897C119.912 78.4967 120.229 78.9533 120.63 79.3297C121.213 79.8727 121.891 80.3032 122.63 80.5997C122.936 80.6935 123.236 80.8036 123.53 80.9297Z" fill="#263238"/>
<path d="M90.8796 21.1899C90.0689 20.6552 89.4755 19.8489 89.2061 18.9159C88.9366 17.983 89.0088 16.9844 89.4097 16.0999C89.3053 15.8849 89.2485 15.6499 89.2434 15.4109C89.2382 15.172 89.2846 14.9348 89.3796 14.7154C89.4745 14.4961 89.6157 14.2999 89.7935 14.1401C89.9713 13.9804 90.1815 13.8609 90.4097 13.7899C91.3666 13.5588 92.3713 13.6251 93.2897 13.9799C93.0297 13.5299 93.7097 13.1399 94.2197 13.0599L97.7796 12.4899C96.9591 12.2829 96.1971 11.8904 95.5521 11.3425C94.9072 10.7947 94.3966 10.1061 94.0596 9.32989C93.3962 7.75104 93.2186 6.01019 93.5497 4.32989C93.563 4.0851 93.6257 3.84554 93.734 3.62559C93.8423 3.40563 93.9938 3.20982 94.1797 3.04989C95.2515 4.27859 96.0918 5.69144 96.6597 7.21989C97.1506 7.24769 97.6306 7.37663 98.0694 7.59861C98.5082 7.82059 98.8964 8.13084 99.2097 8.50989C99.2715 8.38023 99.3605 8.2654 99.4707 8.17322C99.5808 8.08105 99.7096 8.01369 99.8481 7.97573C99.9866 7.93778 100.132 7.93011 100.274 7.95327C100.415 7.97642 100.55 8.02984 100.67 8.10989C101.42 6.00989 102.85 3.78989 105.07 3.52989C104.37 2.52989 105.64 1.37989 106.71 0.839892C107.482 0.404018 108.331 0.118959 109.21 -0.000108363C109.644 -0.0617176 110.086 -0.000719652 110.487 0.175993C110.888 0.352705 111.232 0.638087 111.48 0.999892C111.587 1.18827 111.65 1.3982 111.665 1.61426C111.68 1.83032 111.647 2.04702 111.567 2.24844C111.487 2.44987 111.364 2.6309 111.205 2.77825C111.046 2.92559 110.856 3.03549 110.65 3.09989C111.098 3.4161 111.427 3.87433 111.583 4.40055C111.739 4.92677 111.713 5.49023 111.51 5.99989C111.862 5.58916 112.342 5.30805 112.873 5.20116C113.404 5.09427 113.955 5.16773 114.44 5.40989C115.977 4.73985 117.665 4.49133 119.33 4.68989C119.76 4.71799 120.175 4.86321 120.53 5.10989C120.78 5.31989 120.95 5.61989 121.21 5.81989C121.612 6.05762 122.072 6.1788 122.54 6.16989C123.609 6.22412 124.638 6.6006 125.49 7.24989C125.905 7.5859 126.205 8.0428 126.348 8.55713C126.491 9.07146 126.471 9.61768 126.29 10.1199C128.75 10.9199 131.18 8.11989 133.72 8.58989C134.439 8.81907 135.096 9.20802 135.644 9.72757C136.191 10.2471 136.613 10.8838 136.88 11.5899C135.612 12.1009 134.24 12.2998 132.88 12.1699C132.794 12.5375 132.586 12.8651 132.29 13.0994C131.994 13.3337 131.627 13.4608 131.25 13.4599C131.344 13.5917 131.405 13.7446 131.427 13.9053C131.45 14.0659 131.432 14.2296 131.377 14.3822C131.322 14.5347 131.231 14.6716 131.111 14.7809C130.991 14.8903 130.847 14.9689 130.69 15.0099C132.244 14.6018 133.88 14.6294 135.42 15.0899C137.78 15.6499 140.42 16.8899 140.93 19.2599C141.075 20.1104 141.075 20.9794 140.93 21.8299C140.78 23.0999 140.13 24.7799 138.87 24.5499C138.09 24.3999 137.68 23.5499 137.27 22.8899C136.337 21.3893 134.855 20.3127 133.14 19.8899C132.54 20.4799 133.66 21.2299 134.14 21.8899C134.62 22.5499 134.43 23.4999 134.55 24.3199C134.74 25.5699 135.66 26.5699 136.21 27.7099C137.39 30.1699 136.77 33.0799 136.13 35.7099C135.95 36.4299 135.13 37.3199 134.69 36.7099C135.13 36.8233 135.518 37.0831 135.791 37.4466C136.063 37.8102 136.204 38.2557 136.19 38.7099C136.115 39.6313 135.823 40.5221 135.34 41.3099C135.16 41.6599 134.93 42.0499 134.55 42.1399C133.99 42.2699 133.55 41.7099 133.24 41.2199C132.44 39.8999 131.63 38.5799 130.83 37.2199C131.011 38.127 130.987 39.0633 130.76 39.9599C130.37 41.6999 129.34 43.4799 127.63 43.9599C126.421 44.1996 125.17 44.1063 124.01 43.6899" fill="#263238"/>
<path d="M117.38 63.0502C116.86 62.8402 114.76 63.7002 114.38 63.2502C112.62 60.9702 111.67 54.4502 111.23 51.6002C110.79 48.7502 112.57 45.6002 112.3 42.7102C112.09 40.4102 111.66 37.9902 110.14 36.2602C109.193 35.2345 108.008 34.4582 106.69 34.0002C104.67 33.2813 102.508 33.0542 100.383 33.3376C98.2576 33.6211 96.2306 34.407 94.4698 35.6302C93.0298 36.6302 91.6698 38.0202 89.9098 38.1802C88.1498 38.3402 86.5698 37.2702 85.0698 36.3702C83.5698 35.4702 81.6998 34.6802 80.0698 35.3702C79.4592 35.69 78.9213 36.1326 78.4898 36.6702C77.3998 37.9302 75.1398 43.4402 75.0998 45.6202C74.4861 42.3507 74.7624 38.9764 75.8998 35.8502C78.2198 30.1802 84.4498 23.7602 94.3898 22.1502C110.3 19.5702 117.76 28.4302 120.59 34.7602C121.8 37.4702 122.81 44.5902 121.93 50.0802C121.184 54.6365 119.644 59.0265 117.38 63.0502Z" fill="#263238"/>
<path d="M121.65 37.0001C121.41 37.0801 120.77 35.2901 119.17 32.7301C118.251 31.2395 117.2 29.8339 116.03 28.5301C114.643 26.9332 112.997 25.581 111.16 24.5301C109.282 23.5522 107.255 22.8932 105.16 22.5801C103.441 22.3125 101.695 22.252 99.9604 22.4001C96.9604 22.6601 95.1904 23.3501 95.1004 23.1101C95.0104 22.8701 95.4504 22.7201 96.2504 22.3501C97.3881 21.8449 98.5838 21.4821 99.8104 21.2701C101.643 20.9482 103.512 20.8943 105.36 21.1101C107.645 21.3689 109.862 22.0469 111.9 23.1101C113.906 24.2379 115.678 25.7381 117.12 27.5301C118.299 28.9428 119.306 30.4903 120.12 32.1401C121.57 35.0001 121.84 37.0001 121.65 37.0001Z" fill="#963EEE"/>
<path d="M106.11 23.1994C105.78 23.2646 105.446 23.3014 105.11 23.3094C104.239 23.4012 103.374 23.5448 102.52 23.7394C99.6988 24.3766 97.058 25.6428 94.7948 27.4437C92.5316 29.2445 90.7045 31.5334 89.45 34.1394C89.0671 34.9247 88.7331 35.7329 88.45 36.5594C88.3618 36.8702 88.2515 37.1743 88.12 37.4694C88.1045 37.3868 88.1045 37.302 88.12 37.2194C88.164 36.9832 88.2208 36.7495 88.29 36.5194C88.5511 35.654 88.8822 34.8112 89.28 33.9994C90.5003 31.3275 92.3349 28.9818 94.634 27.1536C96.9332 25.3254 99.6318 24.0665 102.51 23.4794C103.376 23.2994 104.256 23.189 105.14 23.1494C105.45 23.1494 105.7 23.1494 105.86 23.1494C105.946 23.1511 106.03 23.168 106.11 23.1994Z" fill="#455A64"/>
<path d="M110.35 25.1201C110.35 25.1201 109.64 25.5201 108.49 26.1201C106.989 26.9244 105.536 27.816 104.14 28.7901C102.747 29.7729 101.411 30.8347 100.14 31.9701C99.1398 32.8401 98.5798 33.4101 98.5498 33.3701C98.6455 33.2049 98.7632 33.0535 98.8998 32.9201C99.1398 32.6501 99.5098 32.2601 99.9798 31.8001C101.225 30.6068 102.563 29.5134 103.98 28.5301C105.385 27.5469 106.863 26.6711 108.4 25.9101C108.99 25.6301 109.48 25.4101 109.82 25.2801C109.987 25.2006 110.166 25.1467 110.35 25.1201Z" fill="#455A64"/>
<path d="M119 32.2598C119.028 32.4353 119.028 32.6143 119 32.7898C119 33.1398 118.88 33.6298 118.76 34.2298C118.414 35.7939 117.919 37.321 117.28 38.7898C116.611 40.2699 115.797 41.6801 114.85 42.9998C114.576 43.398 114.282 43.7818 113.97 44.1498C113.866 44.2972 113.741 44.4286 113.6 44.5398C113.6 44.5398 114.01 43.8998 114.66 42.8698C115.517 41.5385 116.266 40.1407 116.9 38.6898C117.536 37.236 118.057 35.7348 118.46 34.1998C118.603 33.5435 118.784 32.8958 119 32.2598Z" fill="#455A64"/>
<path d="M114.52 51.5103C114.52 51.5103 115.17 50.7303 116.1 49.3803C116.642 48.5964 117.133 47.778 117.57 46.9303C118.095 45.8901 118.546 44.8141 118.92 43.7103C119.278 42.5979 119.559 41.4618 119.76 40.3103C119.906 39.3663 119.999 38.4148 120.04 37.4603C120.04 35.8303 119.97 34.8203 120.04 34.8203C120.112 35.0469 120.152 35.2825 120.16 35.5203C120.242 36.1669 120.279 36.8185 120.27 37.4703C120.27 38.4342 120.2 39.3967 120.06 40.3503C119.877 41.5234 119.603 42.6803 119.24 43.8103C118.86 44.9324 118.392 46.0225 117.84 47.0703C117.385 47.9244 116.866 48.7433 116.29 49.5203C115.891 50.0402 115.46 50.5345 115 51.0003C114.856 51.1849 114.695 51.3556 114.52 51.5103Z" fill="#455A64"/>
<path d="M63.7198 37.3803C63.7198 37.3803 63.9698 37.6403 64.4498 38.0903C65.1084 38.7221 65.8825 39.2212 66.7298 39.5603C67.3507 39.8071 68.0183 39.9145 68.6854 39.8747C69.3524 39.835 70.0025 39.6491 70.5898 39.3303C71.2549 38.9263 71.7546 38.2989 71.9998 37.5603C72.1474 37.1773 72.2026 36.7649 72.1609 36.3566C72.1192 35.9483 71.9818 35.5556 71.7598 35.2103C71.6542 35.0414 71.5065 34.9028 71.3312 34.8081C71.1559 34.7135 70.959 34.666 70.7598 34.6703C70.5784 34.6789 70.4054 34.7489 70.2691 34.8688C70.1328 34.9888 70.0414 35.1515 70.0098 35.3303C69.889 36.094 70.076 36.8743 70.5298 37.5003C70.9271 38.0887 71.4912 38.545 72.1498 38.8103C72.7264 39.0344 73.3571 39.0797 73.9598 38.9403C74.8475 38.7343 75.6276 38.2071 76.1498 37.4603C76.3287 37.176 76.4859 36.8784 76.6198 36.5703C76.6156 36.6622 76.5988 36.753 76.5698 36.8403C76.495 37.0838 76.3873 37.3159 76.2498 37.5303C76.0002 37.9364 75.673 38.2894 75.2869 38.5691C74.9008 38.8488 74.4635 39.0497 73.9998 39.1603C73.3395 39.3411 72.6387 39.3061 71.9998 39.0603C71.2854 38.782 70.6695 38.2983 70.2298 37.6703C69.9747 37.3269 69.791 36.9357 69.6897 36.5201C69.5883 36.1044 69.5714 35.6726 69.6398 35.2503C69.6978 35.0134 69.8227 34.7981 69.9998 34.6303C70.1884 34.4566 70.4335 34.3571 70.6898 34.3503C70.9459 34.3349 71.2015 34.3868 71.4314 34.5008C71.6612 34.6149 71.8571 34.7871 71.9998 35.0003C72.2459 35.3894 72.3992 35.8298 72.4477 36.2876C72.4963 36.7454 72.4388 37.2083 72.2798 37.6403C72.0012 38.4465 71.4446 39.1271 70.7098 39.5603C70.0856 39.8957 69.3942 40.0868 68.6864 40.1197C67.9786 40.1526 67.2724 40.0264 66.6198 39.7503C65.7544 39.3849 64.9745 38.8434 64.3298 38.1603C64.0998 37.9203 63.9398 37.7203 63.8298 37.5903C63.7198 37.4603 63.7098 37.3903 63.7198 37.3803Z" fill="#263238"/>
<path d="M145.41 33.4203L145.05 33.4903C144.82 33.4903 144.47 33.5903 144.05 33.6403C142.765 33.8262 141.457 33.7754 140.19 33.4903C139.305 33.2688 138.483 32.8443 137.79 32.2503C137.389 31.9045 137.061 31.4825 136.824 31.0087C136.587 30.5349 136.446 30.0188 136.41 29.4903C136.371 28.9131 136.478 28.3353 136.72 27.8103C136.984 27.2585 137.414 26.8036 137.95 26.5103C138.506 26.203 139.131 26.0418 139.765 26.0418C140.4 26.0418 141.025 26.203 141.58 26.5103C141.889 26.6439 142.15 26.8663 142.332 27.1493C142.513 27.4323 142.606 27.7628 142.598 28.0988C142.591 28.4348 142.483 28.7609 142.29 29.0355C142.096 29.31 141.825 29.5206 141.51 29.6403C140.957 29.8801 140.351 29.973 139.75 29.9103C139.19 29.8723 138.634 29.7819 138.09 29.6403C136.515 29.2258 135.091 28.3722 133.982 27.1788C132.874 25.9855 132.128 24.5016 131.83 22.9003C131.771 22.5698 131.735 22.2357 131.72 21.9003C131.703 21.7776 131.703 21.653 131.72 21.5303C131.72 21.5303 131.72 22.0303 131.95 22.9203C132.222 24.1664 132.765 25.3375 133.54 26.3503C134.708 27.8314 136.332 28.8859 138.16 29.3503C138.685 29.4838 139.221 29.5708 139.76 29.6103C140.306 29.6637 140.857 29.5777 141.36 29.3603C141.609 29.2506 141.824 29.0773 141.984 28.8578C142.144 28.6382 142.242 28.3804 142.27 28.1103C142.257 27.8325 142.17 27.5633 142.019 27.3297C141.868 27.0962 141.658 26.9067 141.41 26.7803C140.901 26.5046 140.33 26.3602 139.75 26.3602C139.171 26.3602 138.6 26.5046 138.09 26.7803C137.624 27.0463 137.244 27.442 136.997 27.9194C136.75 28.3968 136.647 28.9355 136.7 29.4703C136.73 29.9606 136.857 30.4402 137.073 30.8813C137.29 31.3224 137.591 31.7163 137.96 32.0403C138.616 32.6177 139.396 33.0353 140.24 33.2603C141.48 33.5596 142.762 33.6441 144.03 33.5103L145.03 33.4203C145.157 33.4041 145.284 33.4041 145.41 33.4203Z" fill="#263238"/>
<path d="M83.18 4.32031C83.0262 4.71802 82.9123 5.13005 82.84 5.55031C82.7655 6.12141 82.8087 6.70171 82.9669 7.25548C83.1252 7.80925 83.3951 8.32478 83.76 8.77031C84.3277 9.40436 85.0598 9.8689 85.8752 10.1125C86.6907 10.356 87.5576 10.3691 88.38 10.1503C88.8614 10.0573 89.3116 9.84452 89.6891 9.53169C90.0666 9.21886 90.3592 8.81602 90.54 8.36031C90.6022 8.11896 90.6139 7.86737 90.5743 7.6213C90.5347 7.37524 90.4448 7.13999 90.31 6.93031C90.1773 6.71291 89.9788 6.5434 89.7432 6.44632C89.5077 6.34924 89.2474 6.32962 89 6.39031C88.753 6.46537 88.5255 6.59387 88.3337 6.76669C88.1418 6.93951 87.9904 7.15241 87.89 7.39031C87.7008 7.8655 87.7008 8.39513 87.89 8.87031C88.2593 9.80639 88.8957 10.6132 89.72 11.1903C91.0907 12.2208 92.722 12.8477 94.43 13.0003C95.5893 13.1109 96.759 13.0058 97.88 12.6903C98.68 12.4503 99.09 12.2403 99.1 12.2703C99.11 12.3003 99.01 12.3403 98.81 12.4403C98.5204 12.5799 98.2233 12.7034 97.92 12.8103C96.789 13.1792 95.5957 13.3186 94.41 13.2203C92.637 13.0902 90.9391 12.4513 89.52 11.3803C88.6254 10.7797 87.9293 9.92703 87.52 8.93031C87.3244 8.37302 87.3459 7.76252 87.58 7.22031C87.7148 6.93504 87.9126 6.68416 88.1586 6.48666C88.4047 6.28915 88.6924 6.1502 89 6.08031C89.3077 6.00727 89.6305 6.03265 89.9229 6.15285C90.2154 6.27306 90.4627 6.48204 90.63 6.75031C90.7892 7.00004 90.8945 7.2802 90.9392 7.57291C90.984 7.86561 90.9672 8.16444 90.89 8.45031C90.7063 8.98852 90.356 9.45431 89.89 9.78031C89.4681 10.0888 88.9887 10.3098 88.48 10.4303C87.6083 10.6603 86.6896 10.6407 85.8285 10.3737C84.9674 10.1067 84.1987 9.60309 83.61 8.92031C83.237 8.44679 82.9661 7.90105 82.8147 7.31756C82.6632 6.73407 82.6344 6.12551 82.73 5.53031C82.7934 5.21288 82.8941 4.90406 83.03 4.61031C83.07 4.50878 83.1203 4.41161 83.18 4.32031Z" fill="#263238"/>
<path d="M114.08 61.0702C114.101 60.3767 114.3 59.7003 114.656 59.1049C115.012 58.5094 115.514 58.0146 116.115 57.6673C116.716 57.3199 117.395 57.1315 118.089 57.1197C118.782 57.108 119.468 57.2734 120.08 57.6002C121.5 58.4102 122.58 60.0602 122.45 63.2302C122.11 71.6602 113.71 69.5702 113.7 69.3302C113.69 69.0902 113.91 64.5602 114.08 61.0702Z" fill="#FFBE9D"/>
<path d="M116.39 66.2402C116.39 66.2402 116.53 66.3502 116.78 66.4702C117.124 66.6363 117.519 66.6614 117.88 66.5402C118.78 66.2502 119.59 64.8702 119.69 63.3502C119.749 62.6283 119.639 61.9026 119.37 61.2302C119.303 60.9621 119.171 60.7146 118.986 60.509C118.802 60.3033 118.57 60.1459 118.31 60.0502C118.144 60 117.965 60.0096 117.804 60.0771C117.643 60.1446 117.511 60.2659 117.43 60.4202C117.3 60.6502 117.35 60.8202 117.3 60.8402C117.25 60.8602 117.13 60.6902 117.21 60.3402C117.266 60.1355 117.39 59.9558 117.56 59.8302C117.68 59.7466 117.815 59.6877 117.957 59.6568C118.1 59.6259 118.247 59.6237 118.39 59.6502C118.731 59.7315 119.046 59.8981 119.305 60.1342C119.563 60.3703 119.758 60.6683 119.87 61.0002C120.195 61.7458 120.336 62.5587 120.28 63.3702C120.16 65.0702 119.22 66.6202 117.99 66.9202C117.76 66.9762 117.521 66.9802 117.289 66.9318C117.057 66.8833 116.839 66.7837 116.65 66.6402C116.4 66.4502 116.36 66.2602 116.39 66.2402Z" fill="#EB996E"/>
<path d="M57.8103 83.1896H57.7503C62.5554 76.7549 64.7654 68.7487 63.9416 60.7602C63.1177 52.7717 59.3203 45.3851 53.303 40.0665C47.2858 34.7479 39.4887 31.8863 31.4595 32.0496C23.4304 32.2129 15.7561 35.3893 9.96016 40.9482C4.16421 46.5071 0.670327 54.0421 0.172048 62.0575C-0.326231 70.0729 2.20753 77.9826 7.27037 84.2166C12.3332 90.4505 19.555 94.5529 27.5021 95.7094C35.4492 96.8659 43.5407 94.992 50.1703 90.4596L61.1703 94.8696L57.8103 83.1896Z" fill="#FAFAFA"/>
<path d="M41 80.0604C41.6763 80.0604 42.3249 79.7917 42.8031 79.3135C43.2813 78.8353 43.55 78.1867 43.55 77.5104V53.4404C43.5473 52.7658 43.2775 52.1198 42.7996 51.6437C42.3216 51.1677 41.6745 50.9004 41 50.9004C40.3263 50.9004 39.6803 51.168 39.2039 51.6443C38.7276 52.1207 38.46 52.7667 38.46 53.4404V77.5104C38.46 78.185 38.7272 78.8321 39.2033 79.31C39.6794 79.7879 40.3254 80.0577 41 80.0604Z" fill="#E0E0E0"/>
<path d="M41 80.0603C41.6763 80.0603 42.3249 79.7917 42.8031 79.3135C43.2813 78.8353 43.55 78.1867 43.55 77.5104V62.1604C43.55 61.484 43.2813 60.8354 42.8031 60.3572C42.3249 59.879 41.6763 59.6104 41 59.6104C40.3254 59.613 39.6794 59.8828 39.2033 60.3608C38.7272 60.8387 38.46 61.4858 38.46 62.1604V77.5104C38.46 78.1849 38.7272 78.832 39.2033 79.3099C39.6794 79.7879 40.3254 80.0577 41 80.0603Z" fill="#963EEE"/>
<path d="M32.6799 80.0604C33.3562 80.0604 34.0048 79.7917 34.483 79.3135C34.9612 78.8353 35.2299 78.1867 35.2299 77.5104V53.4404C35.2272 52.7658 34.9574 52.1198 34.4795 51.6437C34.0015 51.1677 33.3545 50.9004 32.6799 50.9004C32.0053 50.9004 31.3582 51.1677 30.8803 51.6437C30.4024 52.1198 30.1325 52.7658 30.1299 53.4404V77.5104C30.1299 78.1867 30.3985 78.8353 30.8768 79.3135C31.355 79.7917 32.0036 80.0604 32.6799 80.0604Z" fill="#E0E0E0"/>
<path d="M32.6799 80.0599C33.3562 80.0599 34.0048 79.7912 34.483 79.313C34.9612 78.8348 35.2299 78.1862 35.2299 77.5099V66.6799C35.2299 66.0036 34.9612 65.355 34.483 64.8768C34.0048 64.3985 33.3562 64.1299 32.6799 64.1299C32.0036 64.1299 31.355 64.3985 30.8768 64.8768C30.3985 65.355 30.1299 66.0036 30.1299 66.6799V77.5099C30.1299 78.1862 30.3985 78.8348 30.8768 79.313C31.355 79.7912 32.0036 80.0599 32.6799 80.0599Z" fill="#963EEE"/>
<path d="M23.2304 80.0604C23.9067 80.0604 24.5553 79.7917 25.0336 79.3135C25.5118 78.8353 25.7804 78.1867 25.7804 77.5104V53.4404C25.7778 52.7658 25.508 52.1198 25.03 51.6437C24.5521 51.1677 23.905 50.9004 23.2304 50.9004C22.5568 50.9004 21.9107 51.168 21.4344 51.6443C20.958 52.1207 20.6904 52.7667 20.6904 53.4404V77.5104C20.6904 78.185 20.9577 78.8321 21.4338 79.31C21.9098 79.7879 22.5559 80.0577 23.2304 80.0604Z" fill="#E0E0E0"/>
<path d="M23.2304 80.0602C23.9067 80.0602 24.5553 79.7915 25.0336 79.3133C25.5118 78.8351 25.7804 78.1865 25.7804 77.5102V58.7102C25.7804 58.0339 25.5118 57.3853 25.0336 56.907C24.5553 56.4288 23.9067 56.1602 23.2304 56.1602C22.5559 56.1628 21.9098 56.4326 21.4338 56.9106C20.9577 57.3885 20.6904 58.0356 20.6904 58.7102V77.5102C20.6904 78.1847 20.9577 78.8318 21.4338 79.3097C21.9098 79.7877 22.5559 80.0575 23.2304 80.0602Z" fill="#963EEE"/>
<path d="M40.9999 80.06C40.7841 80.0347 40.5703 79.9946 40.3599 79.94C39.7656 79.7697 39.2581 79.3801 38.9399 78.85C38.7175 78.4674 38.6002 78.0327 38.5999 77.59C38.5999 77.1 38.5999 76.59 38.5999 75.98C38.5999 74.82 38.5999 73.51 38.5999 72.06C38.5999 69.14 38.5999 65.68 38.5999 61.85C38.5999 59.92 38.5999 57.85 38.5999 55.85V54.23C38.5596 53.7108 38.5967 53.1884 38.7099 52.68C38.8794 52.1953 39.1987 51.7771 39.6217 51.4859C40.0446 51.1947 40.5491 51.0455 41.0624 51.06C41.5757 51.0744 42.0711 51.2518 42.4769 51.5664C42.8827 51.881 43.178 52.3166 43.3199 52.81C43.3942 53.3298 43.4176 53.8557 43.3899 54.38V56C43.3899 58.09 43.3899 60.11 43.3899 62C43.3899 65.84 43.3899 69.3 43.3899 72.22C43.3899 73.67 43.3899 74.98 43.3899 76.14C43.3899 76.72 43.3899 77.26 43.3899 77.75C43.4024 78.1872 43.2952 78.6194 43.0799 79C42.7215 79.5035 42.1917 79.8591 41.5899 80C41.1799 80.08 40.9499 80.06 40.9499 80.08C41.1684 80.1166 41.3914 80.1166 41.6099 80.08C42.2406 79.9564 42.8013 79.5993 43.1799 79.08C43.4508 78.7015 43.6102 78.2546 43.6399 77.79C43.6399 77.28 43.6399 76.79 43.6399 76.17C43.6399 75.01 43.6399 73.7 43.6399 72.25C43.6399 69.33 43.6399 65.87 43.6399 62.03C43.6399 60.11 43.6399 58.09 43.6399 56.03V53.58C43.6476 53.2978 43.6207 53.0157 43.5599 52.74C43.4176 52.1707 43.0897 51.6649 42.6279 51.3027C42.1661 50.9405 41.5968 50.7425 41.0099 50.74C40.424 50.709 39.8444 50.874 39.3627 51.209C38.881 51.544 38.5247 52.0299 38.3499 52.59C38.2654 52.8618 38.2249 53.1454 38.2299 53.43V55.81C38.2299 57.9 38.2299 59.92 38.2299 61.81C38.2299 65.64 38.2299 69.1 38.2299 72.02C38.2299 73.47 38.2299 74.78 38.2299 75.94C38.2299 76.52 38.2299 77.06 38.2299 77.55C38.2344 78.0178 38.3695 78.475 38.6199 78.87C38.8032 79.1672 39.048 79.4218 39.3377 79.6167C39.6275 79.8116 39.9555 79.9423 40.2999 80C40.527 80.0661 40.7649 80.0865 40.9999 80.06Z" fill="#263238"/>
<path d="M32.6006 80.0601C32.3882 80.0341 32.1777 79.9941 31.9706 79.9401C31.374 79.7745 30.8649 79.3837 30.5506 78.8501C30.3247 78.4684 30.2039 78.0337 30.2006 77.5901C30.2006 77.1001 30.2006 76.5901 30.2006 75.9801C30.2006 74.8201 30.2006 73.5101 30.2006 72.0601C30.2006 69.1401 30.2006 65.6801 30.2006 61.8501C30.2006 59.9201 30.2006 57.8501 30.2006 55.8501V54.2301C30.17 53.7109 30.2069 53.1899 30.3106 52.6801C30.4802 52.1954 30.7995 51.7772 31.2224 51.486C31.6453 51.1948 32.1499 51.0456 32.6631 51.0601C33.1764 51.0745 33.6718 51.2519 34.0776 51.5665C34.4834 51.8811 34.7787 52.3167 34.9206 52.8101C34.9949 53.33 35.0184 53.8558 34.9906 54.3801V56.0001C34.9906 58.0901 34.9906 60.1101 34.9906 62.0001C34.9906 65.8401 34.9906 69.3001 34.9906 72.2201C34.9906 73.6701 34.9906 74.9801 34.9906 76.1401C34.9906 76.7201 34.9906 77.2601 34.9906 77.7501C35.0184 78.1826 34.9286 78.6146 34.7306 79.0001C34.3759 79.503 33.8495 79.8587 33.2506 80.0001C32.8306 80.0801 32.6006 80.0601 32.6006 80.0801C32.8191 80.1167 33.0421 80.1167 33.2606 80.0801C33.8913 79.9565 34.452 79.5994 34.8306 79.0801C35.1015 78.7016 35.2609 78.2547 35.2906 77.7901C35.2906 77.2801 35.2906 76.7901 35.2906 76.1701C35.2906 75.0101 35.2906 73.7001 35.2906 72.2501C35.2906 69.3301 35.2906 65.8701 35.2906 62.0301C35.2906 60.1101 35.2906 58.0901 35.2906 56.0301V53.5801C35.3037 53.2978 35.2767 53.015 35.2106 52.7401C35.0684 52.1708 34.7404 51.665 34.2786 51.3028C33.8168 50.9406 33.2475 50.7426 32.6606 50.7401C32.0742 50.7133 31.4949 50.8782 31.0106 51.2101C30.5386 51.5516 30.1882 52.0352 30.0106 52.5901C29.9358 52.864 29.8955 53.1462 29.8906 53.4301V54.2301C29.8906 54.7601 29.8906 55.2901 29.8906 55.8101C29.8906 57.9001 29.8906 59.9201 29.8906 61.8101C29.8906 65.6401 29.8906 69.1001 29.8906 72.0201C29.8906 73.4701 29.8906 74.7801 29.8906 75.9401C29.8906 76.5201 29.8906 77.0601 29.8906 77.5501C29.8967 78.0162 30.0279 78.4722 30.2706 78.8701C30.4603 79.1722 30.7131 79.4297 31.0118 79.6247C31.3104 79.8198 31.6478 79.9479 32.0006 80.0001C32.1958 80.0539 32.3987 80.0742 32.6006 80.0601Z" fill="#263238"/>
<path d="M23.1599 80.06C22.944 80.0347 22.7302 79.9946 22.5199 79.94C21.9255 79.7697 21.418 79.3801 21.0999 78.85C20.8774 78.4674 20.7601 78.0327 20.7599 77.59C20.7599 77.1 20.7599 76.59 20.7599 75.98C20.7599 74.82 20.7599 73.51 20.7599 72.06C20.7599 69.14 20.7599 65.68 20.7599 61.85C20.7599 59.92 20.7599 57.85 20.7599 55.85V54.23C20.762 53.7043 20.8429 53.1818 20.9999 52.68C21.1694 52.1953 21.4887 51.7771 21.9116 51.4859C22.3345 51.1947 22.8391 51.0455 23.3524 51.06C23.8657 51.0744 24.361 51.2518 24.7669 51.5664C25.1727 51.881 25.4679 52.3166 25.6099 52.81C25.6842 53.3298 25.7076 53.8557 25.6799 54.38V56C25.6799 58.09 25.6799 60.11 25.6799 62C25.6799 65.84 25.6799 69.3 25.6799 72.22C25.6799 73.67 25.6799 74.98 25.6799 76.14C25.6799 76.72 25.6799 77.26 25.6799 77.75C25.6682 78.1948 25.5332 78.6276 25.2899 79C24.9314 79.5035 24.4017 79.8591 23.7999 80C23.3899 80.08 23.1599 80.06 23.1599 80.08C23.3784 80.1166 23.6014 80.1166 23.8199 80.08C24.4505 79.9564 25.0112 79.5993 25.3899 79.08C25.6608 78.7015 25.8201 78.2546 25.8499 77.79C25.8499 77.28 25.8499 76.79 25.8499 76.17C25.8499 75.01 25.8499 73.7 25.8499 72.25C25.8499 69.33 25.8499 65.87 25.8499 62.03C25.8499 60.11 25.8499 58.09 25.8499 56.03V53.58C25.8576 53.2978 25.8307 53.0157 25.7699 52.74C25.6276 52.1707 25.2997 51.6649 24.8379 51.3027C24.3761 50.9405 23.8068 50.7425 23.2199 50.74C22.634 50.709 22.0544 50.874 21.5727 51.209C21.091 51.544 20.7346 52.0299 20.5599 52.59C20.4753 52.8618 20.4348 53.1454 20.4399 53.43V55.81C20.4399 57.9 20.4399 59.92 20.4399 61.81C20.4399 65.64 20.4399 69.1 20.4399 72.02C20.4399 73.47 20.4399 74.78 20.4399 75.94C20.4399 76.52 20.4399 77.06 20.4399 77.55C20.4866 78.0491 20.6816 78.5228 20.9999 78.91C21.3401 79.458 21.8827 79.8496 22.5099 80C22.721 80.0597 22.9414 80.08 23.1599 80.06Z" fill="#263238"/>
<path d="M32.1303 32H31.5803H29.9603C29.6003 32 29.2003 32 28.7603 32L27.3303 32.2L25.6703 32.44L23.8003 33C20.607 33.818 17.5675 35.1486 14.8003 36.94C11.1032 39.3059 7.92557 42.3985 5.4603 46.03C2.49897 50.4814 0.672467 55.5901 0.140298 60.91C0.0148353 62.3598 -0.0152294 63.8163 0.0502985 65.27C0.100298 66.01 0.0502985 66.76 0.200299 67.51C0.350299 68.26 0.420299 69 0.540299 69.76C1.09902 72.8512 2.10986 75.8433 3.5403 78.64C5.07892 81.5717 7.03237 84.2661 9.3403 86.64C11.8034 89.0562 14.6229 91.0798 17.7003 92.64C20.8859 94.2758 24.3357 95.3354 27.8903 95.77C28.7903 95.9115 29.6993 95.9884 30.6103 96C31.5254 96.0667 32.4434 96.0834 33.3603 96.05C35.2097 95.9742 37.0495 95.7434 38.8603 95.36C42.7825 94.5178 46.513 92.9509 49.8603 90.74H49.5303L60.6903 95.22L61.3503 95.48L61.1603 94.8C60.0336 90.7 58.9403 86.7233 57.8803 82.87L57.8203 83.16C60.8624 79.1506 62.9179 74.4813 63.8203 69.53C64.2454 67.2225 64.3898 64.8721 64.2503 62.53C64.2289 61.4073 64.1253 60.2876 63.9403 59.18C63.8503 58.63 63.7703 58.08 63.6803 57.54C63.5903 57 63.4203 56.54 63.2903 55.96C61.4019 48.6325 56.9718 42.2142 50.7903 37.85C48.5107 36.2139 46.0175 34.8984 43.3803 33.94L41.7103 33.35L40.1303 32.94L38.6803 32.58C38.2103 32.49 37.7603 32.45 37.3403 32.38C36.5003 32.27 35.7603 32.13 35.1103 32.1L33.4703 32H32.4703H32.1303C32.2431 32.0154 32.3575 32.0154 32.4703 32L33.4703 32.08L35.1003 32.19C35.7503 32.19 36.4803 32.4 37.3203 32.52C42.1004 33.3554 46.6279 35.2669 50.5603 38.11C56.6021 42.4896 60.8991 48.866 62.6903 56.11C62.8203 56.63 62.9703 57.11 63.0703 57.67L63.3103 59.27C63.4884 60.3613 63.5853 61.4643 63.6003 62.57C63.732 64.8598 63.5809 67.1572 63.1503 69.41C62.2695 74.2563 60.2584 78.8266 57.2803 82.75L57.1803 82.88V83.05L60.4703 95L60.9403 94.58L49.7903 90.1L49.6103 90L49.4503 90.1C46.1906 92.2539 42.5589 93.7832 38.7403 94.61C36.9689 94.9851 35.1694 95.2126 33.3603 95.29C32.4643 95.34 31.5663 95.34 30.6703 95.29C29.7743 95.26 28.8818 95.163 28.0003 95C24.5161 94.5977 21.1306 93.582 18.0003 92C14.9879 90.475 12.226 88.4989 9.8103 86.14C7.54605 83.8231 5.62644 81.1929 4.1103 78.33C2.6919 75.5951 1.6812 72.6675 1.1103 69.64C1.0003 68.9 0.880298 68.17 0.770298 67.44C0.660298 66.71 0.730299 66 0.670299 65.25C0.398732 59.7438 1.57976 54.263 4.09491 49.3573C6.61007 44.4516 10.3709 40.2935 15.0003 37.3C17.7219 35.4905 20.7216 34.1392 23.8803 33.3L25.7203 32.81L27.3703 32.53L28.7803 32.3C29.2203 32.3 29.6103 32.24 29.9703 32.21L31.5803 32.1C31.7663 32.0835 31.9504 32.05 32.1303 32Z" fill="#263238"/>
</g>
<defs>
<clipPath id="clip0">
<rect width="161.76" height="213.76" fill="white"/>
</clipPath>
</defs>
</svg>
