<svg width="344" height="357" viewBox="0 0 344 357" fill="none" xmlns="http://www.w3.org/2000/svg">
<path d="M172 356.13C266.993 356.13 344 278.675 344 183.13C344 87.5846 266.993 10.1299 172 10.1299C77.007 10.1299 0 87.5846 0 183.13C0 278.675 77.007 356.13 172 356.13Z" fill="#444545"/>
<path d="M267.39 95.7896C266.05 95.6596 264.86 94.9396 264.01 94.0996C263.09 93.1596 262.43 92.1696 261.33 91.3796C260.4 90.6096 259.02 90.0496 257.63 90.4196C256.24 90.7896 255.1 92.0196 254.8 93.3396C254.5 94.6596 254.86 96.0496 255.69 97.0596L261.86 100.3L267.39 95.7896Z" fill="#EC996F"/>
<path d="M238.76 205.57L250.56 160.5C246.9 151.14 240.87 142.96 232.58 137.25C228.81 134.67 224.72 132.51 220.31 131.12C203.52 125.41 189.74 126.38 189.74 126.38L146.04 124.01C132.48 124.76 120.85 128.75 111.49 133.59C96.74 141.12 85.33 153.93 79.09 169.33L67.71 234.02L131.51 233.33L110.84 281.27L103.41 353.93H240L239.03 238.86L238.76 205.57Z" fill="#963EEE"/>
<path d="M284.24 91.1799C284.12 90.6999 283.76 90.2299 283.41 89.6299C281.63 87.0099 278.66 85.8199 275.81 86.5399L274.19 93.7499L263.61 96.7699L257.13 103.56C256.58 104.13 256.43 104.97 256.74 105.7C257.29 106.98 258.15 108.92 258.61 109.62C259.2 110.81 262.76 111.52 262.76 111.52C262.76 111.52 265.02 115.21 266.32 116.16C267.63 117.11 269.65 117.35 269.65 117.35C269.65 117.35 270.96 120.09 272.26 122.11C273.68 124.13 282.47 123.78 282.47 123.78C282.71 126.52 288.88 133.65 288.88 133.65L306.1 125.8C306.1 125.8 293.75 105.58 293.04 103.08C292.43 100.57 284.24 91.1799 284.24 91.1799Z" fill="#FBBD9D"/>
<path d="M256.79 104.33C256.79 104.21 256.93 103.55 258.35 102.12C259.06 101.29 259.89 100.45 260.72 99.5001C261.19 99.0201 261.67 98.4301 262.14 97.9501C262.38 97.7101 262.62 97.4701 262.97 97.1201C263.09 97.0001 263.33 96.8801 263.45 96.7601C263.69 96.6401 263.81 96.6401 264.04 96.5201C267.01 95.5701 269.62 94.7401 271.64 94.2601C273.66 93.7801 274.85 93.4301 274.85 93.5501C274.85 93.6701 273.66 94.0301 271.76 94.7401C269.86 95.4501 267.25 96.2901 264.28 97.2401C263.57 97.3601 263.09 97.9501 262.62 98.4301C262.14 98.9101 261.67 99.5001 261.19 99.9801C260.24 100.93 259.41 101.88 258.7 102.48C257.17 103.9 256.79 104.45 256.79 104.33Z" fill="#EC996F"/>
<path d="M263.58 112.35C263.58 112.35 263.34 112.11 263.22 111.52C263.1 110.93 262.98 110.09 263.22 109.14C263.34 108.19 263.93 106.88 265 106.05C266.07 105.1 267.49 104.5 268.92 104.03C271.77 103.08 274.5 102.36 276.4 102.01C278.3 101.65 279.61 101.53 279.61 101.53C279.61 101.65 278.42 101.89 276.52 102.36C274.62 102.84 272.01 103.55 269.16 104.62C267.73 105.1 266.43 105.57 265.48 106.4C264.53 107.23 264.06 108.3 263.82 109.25C263.22 111.16 263.7 112.35 263.58 112.35Z" fill="#EC996F"/>
<path d="M269.87 117.94C269.87 117.94 269.39 116.99 269.99 115.56C270.35 114.85 270.94 114.13 271.77 113.54C272.6 112.95 273.67 112.59 274.74 112.23C279.01 110.92 282.58 110.09 282.58 110.21C282.58 110.33 279.14 111.52 274.86 112.83C273.79 113.19 272.84 113.54 272.01 114.02C271.18 114.49 270.7 115.09 270.35 115.69C269.75 116.99 269.99 117.94 269.87 117.94Z" fill="#EC996F"/>
<path d="M279.96 123.77C279.96 123.65 281.86 123.77 284 124.01C286.26 124.25 288.04 124.37 288.04 124.49C288.04 124.61 286.14 124.85 283.89 124.61C281.64 124.37 279.84 123.88 279.96 123.77Z" fill="#EC996F"/>
<path d="M112.55 275.29C112.31 275.17 116.11 270.41 122.88 267.92C129.65 265.3 135.58 266.25 135.58 266.49C135.58 266.85 129.88 266.61 123.35 269.11C116.95 271.49 112.79 275.65 112.55 275.29Z" fill="#263238"/>
<path d="M120.03 283.02C119.67 283.02 121.34 277.43 126.09 272.55C130.96 267.56 136.42 265.89 136.42 266.25C136.54 266.61 131.55 268.75 126.92 273.51C122.41 278.03 120.39 283.14 120.03 283.02Z" fill="#263238"/>
<path d="M306.08 125.79C306.08 125.79 320.68 161.83 321.87 171.11C322.68 177.41 325.6 195.99 327.4 207.27C328.13 211.86 324.35 215.92 319.71 215.51L252.76 209.59L251.49 164.78L293.29 176.39L288.85 133.64L306.08 125.79Z" fill="#FBBD9D"/>
<path d="M79.1099 208.93L91.2999 295.75L113.5 311.81L211.93 312.17L213.83 288.85L140.48 274.62L136.3 265.78L127.16 207.74L79.1099 208.93Z" fill="#FBBD9D"/>
<g opacity="0.3">
<g opacity="0.3">
<path opacity="0.3" d="M200.19 130.15C200.19 130.15 200.3 130.36 200.3 130.8C200.41 131.34 200.51 131.98 200.62 132.74C200.83 134.46 201.16 137.05 201.37 140.28C201.91 146.74 202.34 155.99 202.45 166.76V167.19L202.13 166.97C195.24 163.63 187.6 159.97 179.53 155.99C164.24 148.35 150.47 141.46 140.35 136.4C135.4 133.92 131.31 131.88 128.51 130.37C127.11 129.62 126.03 129.08 125.28 128.75C124.96 128.54 124.63 128.43 124.42 128.32C124.21 128.21 124.1 128.21 124.1 128.11C124.1 128.11 124.21 128.11 124.42 128.22C124.64 128.33 124.96 128.44 125.28 128.65C126.03 128.97 127.11 129.51 128.51 130.26C131.31 131.66 135.4 133.6 140.46 136.07C150.58 141.02 164.35 147.91 179.64 155.55C187.6 159.53 195.35 163.19 202.14 166.53L201.82 166.75C201.71 155.88 201.28 146.73 200.85 140.27C200.64 137.04 200.42 134.46 200.2 132.73C200.09 131.87 199.98 131.22 199.98 130.69C200.19 130.36 200.19 130.15 200.19 130.15Z" fill="white"/>
</g>
</g>
<g opacity="0.3">
<g opacity="0.3">
<path opacity="0.3" d="M117.95 223.04C117.95 223.04 117.74 223.04 117.41 222.93C116.98 222.82 116.44 222.72 115.79 222.5C114.28 222.18 112.35 221.64 109.87 220.99C104.92 219.7 98.0298 217.98 90.3898 216.15C82.7498 214.32 75.8598 212.71 70.9098 211.63C68.4298 211.09 66.4998 210.66 64.9898 210.23C64.3398 210.12 63.8098 209.91 63.3798 209.8C63.0598 209.69 62.8398 209.69 62.8398 209.58C62.8398 209.58 63.0598 209.58 63.3798 209.69C63.8098 209.8 64.3498 209.91 64.9898 210.01C66.3898 210.23 68.4298 210.66 70.9098 211.19C75.9698 212.27 82.8598 213.77 90.4998 215.6C98.1398 217.43 104.92 219.26 109.87 220.66C112.35 221.31 114.39 221.95 115.68 222.38C116.32 222.59 116.86 222.7 117.29 222.92C117.73 223.04 117.95 223.04 117.95 223.04Z" fill="white"/>
</g>
</g>
<path d="M172 282.36L219.77 214.87L299.79 239.13L239.24 317.51L211.93 312.16L213.83 288.85L172 282.36Z" fill="#EBEBEB"/>
<path d="M276.4 236.05C276.4 237.12 275.57 238.07 274.38 238.07C273.31 238.07 272.36 237.24 272.36 236.05C272.36 234.98 273.19 234.03 274.38 234.03C275.57 234.14 276.4 234.98 276.4 236.05Z" fill="#263238"/>
<path d="M244.46 227.13C244.46 228.2 243.63 229.15 242.44 229.15C241.37 229.15 240.42 228.32 240.42 227.13C240.42 226.06 241.25 225.11 242.44 225.11C243.51 225.1 244.46 226.05 244.46 227.13Z" fill="#263238"/>
<path d="M213.83 288.85L217.98 288.14C217.98 288.14 219.29 281.84 220.95 280.53C222.61 279.22 239 271.73 242.68 269.71C246.24 267.69 260.37 261.26 262.15 264.72C264.17 268.64 258.35 271.74 255.26 273.28C252.17 274.71 243.27 278.28 245.05 280.3C246.83 282.44 266.78 281.49 266.78 281.49L269.27 278.16C269.27 278.16 273.66 282.32 273.19 285.89C272.72 289.46 271.17 291.84 271.17 291.84H269.63C269.63 291.84 271.05 293.98 269.75 296.12C268.45 298.26 265.83 301 265.83 301C265.83 301 263.45 305.88 256.45 307.9C255.62 308.14 222.85 310.99 222.85 310.99L211.81 312.06L213.83 288.85Z" fill="#FBBD9D"/>
<path d="M139.86 7.32031C128.46 10.6503 119.08 18.6203 119.44 30.6303C119.56 35.9803 121.1 41.9303 118.13 46.3303C119.55 45.9703 120.74 44.7803 121.22 43.3603C123.12 50.9703 123.48 62.2703 129.77 66.7903" fill="#263238"/>
<path d="M131.79 58.7C131.43 58.58 118.61 55.01 119.21 68.22C119.92 81.3 132.86 77.97 132.86 77.62C132.86 77.14 131.79 58.7 131.79 58.7Z" fill="#FBBD9D"/>
<path d="M128.7 72.74C128.58 72.74 128.46 72.86 128.11 73.1C127.75 73.34 127.16 73.46 126.45 73.22C125.03 72.74 123.72 70.6 123.6 68.22C123.48 67.03 123.72 65.84 124.07 64.89C124.43 63.94 125.02 63.22 125.73 63.11C126.44 62.87 126.92 63.35 127.15 63.7C127.39 64.06 127.27 64.29 127.39 64.29C127.39 64.29 127.63 64.05 127.51 63.58C127.39 63.34 127.27 62.99 126.92 62.75C126.56 62.51 126.09 62.39 125.61 62.51C124.66 62.63 123.71 63.58 123.35 64.65C122.87 65.72 122.64 67.03 122.76 68.34C123 70.96 124.42 73.34 126.32 73.81C127.27 74.05 127.98 73.69 128.34 73.33C128.7 72.98 128.7 72.74 128.7 72.74Z" fill="#EC996F"/>
<path d="M199.11 83.0904C199.11 73.8104 197.33 54.7804 195.67 37.5404C193.89 18.8704 178.1 4.83036 159.46 5.19036H157.56C137.61 6.74036 127.88 24.5804 129.9 44.4404L133.7 125.65L185.47 149.53L180.12 105.57C180.11 105.57 199.22 102.24 199.11 83.0904Z" fill="#FBBD9D"/>
<path d="M180.11 105.57C180.11 105.57 168 106.76 155.06 98.9102C155.06 98.9102 161.11 112.83 180.23 110.8L180.11 105.57Z" fill="#EC996F"/>
<path d="M191.03 51.8101C191.15 53.2401 189.96 54.5501 188.42 54.6601C186.88 54.7801 185.69 53.7101 185.57 52.2801C185.45 50.8501 186.64 49.5401 188.18 49.4301C189.61 49.1901 190.91 50.2601 191.03 51.8101Z" fill="#263238"/>
<path d="M191.98 45.86C191.62 46.22 189.6 44.67 186.64 44.79C183.67 44.79 181.54 46.34 181.3 45.98C181.18 45.86 181.42 45.15 182.37 44.43C183.32 43.72 184.86 43 186.64 43C188.42 43 190.08 43.59 190.91 44.31C191.86 45.15 192.1 45.74 191.98 45.86Z" fill="#263238"/>
<path d="M163.49 51.8101C163.61 53.2401 162.42 54.5501 160.88 54.6601C159.34 54.7801 158.15 53.7101 158.03 52.2801C157.91 50.8501 159.1 49.5401 160.64 49.4301C162.06 49.1901 163.37 50.2601 163.49 51.8101Z" fill="#263238"/>
<path d="M162.66 45.6203C162.42 45.9803 160.17 44.7903 157.2 45.1403C154.23 45.5003 152.33 47.2803 151.98 46.9203C151.86 46.8003 152.1 46.0903 152.93 45.2503C153.76 44.4203 155.19 43.5803 157.08 43.3503C158.86 43.1103 160.52 43.5903 161.47 44.1803C162.42 44.7703 162.78 45.3903 162.66 45.6203Z" fill="#263238"/>
<path d="M173.94 69.6501C173.94 69.5301 175.72 69.1701 178.69 68.7001C179.4 68.5801 180.12 68.4601 180.23 67.9901C180.35 67.4001 180.11 66.6801 179.64 65.7301C178.93 63.9501 178.1 62.0401 177.26 60.0201C174.05 51.9301 171.68 45.2701 172.04 45.1501C172.4 45.0301 175.25 51.4501 178.45 59.5401C179.28 61.5601 179.99 63.4601 180.71 65.2501C181.07 66.0801 181.54 67.0301 181.18 68.2201C180.94 68.8101 180.47 69.1701 179.99 69.2901C179.52 69.4101 179.04 69.4101 178.68 69.5301C175.72 69.7701 173.94 69.8901 173.94 69.6501Z" fill="#263238"/>
<path d="M165.27 71.9102C165.74 71.9102 165.86 75.1202 168.59 77.2602C171.32 79.5202 174.76 79.0401 174.76 79.5201C174.76 79.7601 174.05 80.1102 172.62 80.2302C171.19 80.3502 169.18 79.8702 167.4 78.5602C165.74 77.2502 164.91 75.3502 164.79 74.0402C164.67 72.6202 165.03 71.9102 165.27 71.9102Z" fill="#263238"/>
<path d="M162.78 32.9003C162.54 33.7303 159.57 33.3803 156.13 33.8503C152.69 34.2103 149.96 35.2803 149.48 34.5603C149.24 34.2003 149.72 33.4903 150.91 32.6603C151.98 31.8303 153.76 31.1103 155.9 30.8803C157.92 30.6403 159.82 30.8803 161.12 31.3603C162.3 31.8303 162.89 32.5403 162.78 32.9003Z" fill="#263238"/>
<path d="M190.44 38.3696C189.97 39.0796 187.95 38.3696 185.45 38.3696C182.96 38.2496 180.94 38.8496 180.46 38.2496C180.22 37.8896 180.58 37.1797 181.41 36.5797C182.24 35.9897 183.78 35.3896 185.45 35.3896C187.11 35.3896 188.54 35.9796 189.49 36.6996C190.44 37.4196 190.68 38.0096 190.44 38.3696Z" fill="#263238"/>
<path d="M173.46 3.16032C166.69 0.540324 159.81 1.85032 152.56 2.92032C146.86 3.75032 141.88 5.54032 137.24 8.99032C130 14.3403 126.32 22.9103 125.96 32.0603C125.6 41.1003 126.55 49.1903 128.81 57.8703L129.52 57.7503C129.04 60.0103 128.69 62.2703 129.4 64.4103C130.11 66.5503 132.61 68.2203 134.74 67.2603C137.12 66.1903 137.23 62.8603 137 60.2403C136.29 51.3203 136.41 42.5203 136.88 33.6003C137.24 26.9403 141.04 18.8503 146.14 15.7603C155.52 9.46032 167.75 14.5703 171.9 15.2803C178.31 9.81032 184.25 14.0903 188.17 18.8503C186.88 11.8403 180.23 5.90032 173.46 3.16032Z" fill="#263238"/>
<path d="M140.69 15.5304C145.56 11.3704 153.63 11.7204 158.03 16.2404C159.93 18.1404 161.12 20.5204 163.13 22.3104C167.28 26.0004 173.46 26.1204 179.04 25.8804C177.38 25.2904 175.95 23.9804 175 22.4304C181.89 26.3504 190.43 27.0704 197.79 24.5704C193.87 13.9804 184.73 3.87043 173.81 1.26043C162.89 -1.35957 148.28 -0.169569 139.97 7.44043" fill="#263238"/>
<path d="M195.31 24.4497C195.31 24.4497 195.07 24.4496 194.72 24.5697C194.36 24.5697 193.65 24.6897 192.94 24.6897C191.4 24.6897 189.02 24.5697 186.29 23.8597C183.56 23.1497 180.47 21.7197 177.5 19.3397C174.53 16.9597 172.16 13.6297 169.31 10.4197C167.89 8.86965 166.46 7.44965 164.8 6.25965C163.14 5.18965 161.36 4.35965 159.58 3.99965C156.02 3.16965 152.69 3.51965 149.96 3.99965C147.23 4.47965 145.09 5.06965 143.55 5.42965C142.84 5.66965 142.24 5.78965 141.77 5.90965C141.41 6.02965 141.18 6.02965 141.18 6.02965C141.18 6.02965 141.42 5.90965 141.77 5.78965C142.13 5.66965 142.72 5.42965 143.43 5.19965C144.97 4.71965 147.11 4.12965 149.84 3.52965C152.57 3.04965 156.01 2.57965 159.69 3.40965C161.47 3.76965 163.37 4.59965 165.15 5.66965C166.81 6.73965 168.36 8.28965 169.78 9.82965C172.63 13.0396 175 16.3696 177.85 18.7497C180.7 21.1297 183.79 22.4397 186.4 23.2697C189.01 24.0997 191.27 24.3397 192.93 24.3397C194.47 24.4497 195.31 24.3297 195.31 24.4497Z" fill="#455B64"/>
<path d="M176.9 26.0002C176.9 26.0002 176.78 26.0002 176.42 26.0002C176.18 26.0002 175.71 25.8802 175.11 25.7602C174.04 25.5202 172.5 25.0502 170.72 23.9802C168.94 23.0302 167.04 21.4802 165.14 19.7002C163.24 17.9202 161.34 15.6602 159.2 13.5202C157.06 11.3802 154.93 9.48016 152.55 8.29016C150.29 7.10016 147.92 6.51016 146.02 6.39016C144 6.27016 142.46 6.75016 141.51 7.10016C140.44 7.46016 139.97 7.93016 139.97 7.81016C139.97 7.81016 140.09 7.69016 140.33 7.57016C140.57 7.33016 140.92 7.21016 141.4 6.86016C142.47 6.38016 144.01 5.91016 146.03 5.91016C148.05 5.91016 150.42 6.50016 152.8 7.69016C155.17 8.88016 157.43 10.9002 159.57 13.0402C161.71 15.1802 163.61 17.4402 165.51 19.2202C167.41 21.0002 169.19 22.5502 170.97 23.6202C174.29 25.7602 176.9 25.8802 176.9 26.0002Z" fill="#455B64"/>
<path d="M118.37 42.8901C118.25 42.7701 120.39 41.7001 122.76 38.7301C123.95 37.1801 125.02 35.2801 126.08 33.0201C127.15 30.7601 127.98 28.1401 129.05 25.4101C130 22.6701 131.19 20.1801 132.49 17.9201C133.8 15.7801 135.34 13.9901 136.76 12.8101C138.19 11.6201 139.61 10.9101 140.68 10.5501C141.16 10.4301 141.63 10.3101 141.87 10.1901C142.11 10.1901 142.34 10.0701 142.34 10.1901C142.46 10.3101 139.97 10.6701 137.12 13.1601C135.7 14.3501 134.27 16.1301 132.97 18.2701C131.67 20.4101 130.71 22.9101 129.65 25.6401C128.7 28.3801 127.75 30.9901 126.68 33.2501C125.61 35.5101 124.43 37.5301 123.24 38.9601C122.05 40.3901 120.87 41.4601 120.03 42.0501C119.56 42.4101 119.2 42.5301 118.96 42.6401C118.49 42.7701 118.37 42.8901 118.37 42.8901Z" fill="#455B64"/>
<path d="M120.86 47.4098C120.86 47.2898 121.45 47.4098 122.52 47.1698C123.59 46.9298 125.01 46.4598 126.56 45.3898C128.1 44.3198 129.77 42.6498 130.95 40.5098C132.26 38.3698 133.09 35.7498 133.8 32.8998C134.51 30.0498 134.99 27.3098 135.7 24.8098C136.29 22.3098 137.12 20.1698 138.07 18.3898C139.02 16.7198 139.97 15.4198 140.68 14.5798C141.04 14.2198 141.39 13.8698 141.63 13.7498C141.87 13.5098 141.99 13.5098 141.99 13.5098C142.11 13.6298 140.21 15.1798 138.55 18.6198C137.72 20.2898 137.01 22.5398 136.41 24.9198C135.82 27.4198 135.34 30.1498 134.63 33.0098C133.92 35.8598 132.97 38.5998 131.66 40.7398C130.35 42.9998 128.57 44.6598 127.03 45.7398C125.37 46.8098 123.82 47.2898 122.75 47.4098C121.92 47.5298 121.56 47.5298 121.21 47.5298C120.98 47.5298 120.86 47.5298 120.86 47.4098Z" fill="#455B64"/>
<path d="M261.01 96.57L256.01 77.96L216.5 86.85L221.5 105.46L261.01 96.57Z" fill="white"/>
<path d="M266.28 77.1095L282.5 88.4495L278.38 96.7695L263.26 83.1595C259.98 82.3995 253.89 81.4995 252.68 80.8895C251.75 80.4295 251.36 77.5695 251.56 75.5795C251.65 74.6795 252.54 74.2195 253.43 74.4095L266.28 77.1095Z" fill="#FBBD9D"/>
<path d="M239 96.96C242.038 96.96 244.5 94.4975 244.5 91.46C244.5 88.4224 242.038 85.96 239 85.96C235.962 85.96 233.5 88.4224 233.5 91.46C233.5 94.4975 235.962 96.96 239 96.96Z" fill="#DBB7FF"/>
<path d="M76.58 185.5L67.71 234.02L133.69 233.15L123.12 192.51L76.58 185.5Z" fill="#963EEE"/>
<path d="M232.58 137.25L274.86 162.18L279.96 218.51L235.89 206.14L232.58 137.25Z" fill="#963EEE"/>
<path d="M182.44 125.95C203.29 130.31 218.82 149.1 223.26 169.33C224.81 176.39 225.03 183.49 223.82 190.61C223.68 191.42 223.96 192.3 223.82 193.11C225.85 181.21 224.8 168.5 220.34 157.27C216.28 147.06 209.29 137.96 200.38 131.51C195.01 127.63 188.94 124.81 182.44 123.45C182.59 123.48 182.25 125.91 182.44 125.95Z" fill="#263238"/>
<path d="M232.42 200.38C232.78 202.28 232.42 204.31 231.71 205.85C231 207.52 229.33 209.3 227.55 209.66C227.55 209.66 223.39 211.09 220.31 208.11C217.46 205.37 215.09 198.71 215.8 194.31C216.16 191.22 218.06 188.01 221.02 187.17C224.94 186.1 228.14 188.24 229.69 190.86" fill="#E0E0E0"/>
<path d="M229.57 190.86C229.57 190.86 229.33 190.15 228.38 189.08C227.9 188.6 227.31 188.01 226.36 187.53C225.53 187.05 224.46 186.7 223.15 186.58C222.56 186.58 221.84 186.58 221.25 186.82C220.54 186.94 219.94 187.18 219.23 187.65C217.92 188.48 216.97 189.67 216.26 191.22C215.55 192.65 215.19 194.43 215.31 196.22C215.31 198 215.67 199.79 216.26 201.57C217.21 204.31 218.4 206.92 220.53 208.71C221.6 209.54 222.79 210.02 224.09 210.14C225.28 210.26 226.46 210.14 227.53 209.78C228.48 209.54 229.19 209.07 229.79 208.59C230.38 208.11 230.86 207.52 231.21 206.81C231.92 205.62 232.28 204.31 232.4 203.36C232.52 202.41 232.52 201.58 232.4 200.98C232.4 200.74 232.28 200.5 232.28 200.39C232.28 200.27 232.28 200.15 232.16 200.15C232.04 200.15 232.4 201.34 232.04 203.24C231.8 204.19 231.56 205.38 230.85 206.57C230.49 207.16 230.02 207.64 229.43 208.24C228.84 208.72 228.12 209.19 227.29 209.31C225.27 209.9 222.66 209.79 220.64 208.12C218.74 206.45 217.43 203.96 216.6 201.22C215.53 197.77 215.18 194.08 216.6 191.11C217.19 189.68 218.26 188.49 219.33 187.66C219.92 187.3 220.52 187.07 221.11 186.95C221.7 186.83 222.42 186.71 223.01 186.71C224.2 186.71 225.27 187.07 226.1 187.54C226.93 188.02 227.52 188.49 228.12 188.97C229.21 190.27 229.57 190.86 229.57 190.86Z" fill="#263238"/>
<path d="M234.55 200.02C234.91 201.92 234.55 203.95 233.84 205.49C233.13 207.16 231.46 208.94 229.68 209.3C229.68 209.3 225.53 210.73 222.44 207.75C219.59 205.01 217.22 198.35 217.93 193.95C218.29 190.86 220.19 187.65 223.15 186.81C227.07 185.74 230.27 187.88 231.82 190.5" fill="#E0E0E0"/>
<path d="M231.7 190.51C231.7 190.51 231.46 189.8 230.51 188.73C230.04 188.25 229.44 187.66 228.49 187.18C227.66 186.7 226.59 186.35 225.28 186.23C224.69 186.23 223.97 186.23 223.38 186.47C222.67 186.59 222.07 186.83 221.36 187.3C220.05 188.13 219.1 189.32 218.39 190.87C217.68 192.3 217.32 194.08 217.44 195.87C217.44 197.65 217.8 199.44 218.39 201.22C219.34 203.96 220.53 206.57 222.66 208.36C223.73 209.19 224.92 209.67 226.22 209.79C227.41 209.91 228.59 209.79 229.66 209.43C230.61 209.19 231.32 208.72 231.92 208.24C232.51 207.76 232.99 207.17 233.34 206.46C234.05 205.27 234.41 203.96 234.53 203.01C234.65 202.06 234.65 201.23 234.53 200.63C234.53 200.39 234.41 200.15 234.41 200.04C234.41 199.92 234.41 199.8 234.29 199.8C234.17 199.8 234.53 200.99 234.17 202.89C233.93 203.84 233.69 205.03 232.98 206.22C232.62 206.81 232.15 207.29 231.55 207.89C230.96 208.37 230.24 208.84 229.41 208.96C227.39 209.55 224.78 209.44 222.76 207.77C220.86 206.1 219.55 203.61 218.72 200.87C217.65 197.42 217.3 193.73 218.72 190.76C219.31 189.33 220.38 188.14 221.45 187.31C222.04 186.95 222.64 186.72 223.23 186.6C223.82 186.48 224.54 186.36 225.13 186.36C226.32 186.36 227.39 186.72 228.22 187.19C229.05 187.67 229.65 188.14 230.24 188.62C231.23 189.79 231.59 190.51 231.7 190.51Z" fill="#263238"/>
<path d="M228.02 190.391C229.92 189.441 232.18 190.271 233.48 191.941C234.79 193.491 235.14 195.751 235.02 197.771C234.9 198.841 234.66 199.911 234.19 200.741C233.71 201.691 232.88 202.411 231.93 202.761C230.51 203.241 228.84 202.521 227.66 201.571C225.76 200.021 224.57 197.531 224.57 195.031C224.57 193.361 225.28 191.461 226.83 190.991" fill="#E0E0E0"/>
<path d="M226.96 190.98C226.96 190.98 226.84 190.98 226.6 191.1C226.36 191.22 226.01 191.34 225.77 191.69C225.06 192.28 224.46 193.59 224.58 195.26C224.58 196.93 225.17 198.83 226.6 200.61C227.31 201.44 228.14 202.28 229.33 202.75C230.4 203.23 231.82 203.34 233.01 202.63C234.2 201.92 234.79 200.85 235.15 199.66C235.51 198.47 235.51 197.4 235.51 196.33C235.39 194.19 234.56 192.29 233.25 191.22C231.94 190.15 230.52 189.91 229.69 190.03C229.22 190.03 228.86 190.15 228.62 190.27C228.38 190.39 228.26 190.39 228.26 190.51C228.26 190.51 228.73 190.27 229.57 190.27C230.4 190.27 231.71 190.51 232.89 191.46C234.08 192.41 234.91 194.31 234.91 196.34C234.91 197.41 234.91 198.48 234.55 199.55C234.19 200.62 233.6 201.69 232.65 202.29C231.7 202.88 230.39 202.77 229.44 202.29C228.37 201.81 227.54 201.1 226.95 200.39C225.64 198.84 225.05 196.94 224.93 195.39C224.81 193.84 225.4 192.54 226 191.94C226.36 191.1 226.96 191.1 226.96 190.98Z" fill="#263238"/>
<path d="M227.31 206.21C227.43 206.21 227.43 205.85 227.67 205.5C227.91 205.02 228.26 204.55 228.98 204.07C229.57 203.71 230.29 203.48 230.76 203.24C231.23 203.12 231.59 203 231.59 202.88C231.59 202.76 231.23 202.88 230.76 202.88C230.28 203 229.57 203.12 228.74 203.59C228.03 204.07 227.55 204.66 227.43 205.26C227.19 205.85 227.31 206.21 227.31 206.21Z" fill="#263238"/>
<path d="M222.44 190.51C222.44 190.51 222.68 190.75 223.15 190.99C223.62 191.23 224.46 191.35 225.29 191.35C226.12 191.23 226.83 190.99 227.31 190.76C227.78 190.52 228.02 190.17 227.9 190.17C227.78 190.05 226.71 190.88 225.17 190.88C223.75 190.98 222.56 190.39 222.44 190.51Z" fill="#263238"/>
<path d="M185.52 222.86C183.15 223.57 180.41 221.79 178.04 222.62C176.26 223.33 175.31 225.47 176.02 227.26C176.73 229.05 178.99 229.88 180.65 229.05C183.02 227.98 183.62 224.53 185.87 223.1" fill="#263238"/>
<path d="M165.93 231.541C166.64 231.301 167.35 230.941 168.07 230.591L167.71 229.761C164.86 231.191 162.25 231.541 159.87 230.711C156.78 229.761 154.17 227.021 152.03 222.621L151.91 222.501C151.08 220.841 139.21 185.511 137.07 178.731C133.63 168.261 142.41 163.741 142.77 163.621C143.13 163.381 151.08 159.341 159.15 169.331C167.7 179.801 182.66 200.611 183.96 203.111C184.08 203.471 184.32 203.821 184.55 204.301C186.45 207.511 190.37 214.291 186.92 220.001C183 226.421 178.25 225.951 178.02 225.951L177.9 226.781C178.14 226.781 183.48 227.261 187.64 220.481C191.44 214.301 187.28 207.281 185.27 203.951C185.03 203.471 184.8 203.121 184.68 202.881C183.26 200.261 168.3 179.451 159.75 168.861C151.08 158.271 142.3 162.791 142.3 162.911C142.18 162.911 132.56 167.791 136.13 179.091C137.91 184.681 150.14 221.191 151.09 222.981L151.21 223.101C153.47 227.621 156.2 230.471 159.52 231.661C161.53 232.261 163.67 232.261 165.93 231.541Z" fill="#263238"/>
<path d="M138.86 185.63C138.98 185.63 138.5 183.73 139.22 180.99C139.58 179.56 140.29 178.02 141.36 176.35C142.43 174.8 143.97 173.26 145.87 172.07C149.67 169.81 153.94 169.57 156.79 170.05C159.64 170.53 161.18 171.6 161.3 171.48C161.3 171.48 161.18 171.36 161.06 171.24C160.82 171.12 160.59 171 160.23 170.76C159.52 170.4 158.33 169.93 156.91 169.69C155.49 169.45 153.7 169.33 151.69 169.57C149.79 169.81 147.65 170.52 145.63 171.71C143.73 172.9 142.07 174.45 141 176.11C139.93 177.78 139.22 179.44 138.86 180.87C138.5 182.3 138.5 183.49 138.62 184.32C138.62 184.68 138.74 185.03 138.74 185.27C138.74 185.51 138.86 185.63 138.86 185.63Z" fill="#263238"/>
<path d="M138.98 165.17L141 163.98L138.98 165.17C135.77 159.82 132.45 154.35 130.08 148.52L129.61 147.45C127.24 141.62 124.39 134.96 125.57 128.54V128.42C126.16 125.68 127.71 123.19 129.96 121.28L130.67 120.69H132.69V124.38L133.16 124.86C133.04 124.98 132.92 125.1 132.69 125.22V125.34H132.57C131.5 126.41 130.67 127.84 130.43 129.27V129.39C129.6 134.39 131.97 140.33 134.11 145.57L134.58 146.64C136.84 152.23 140.04 157.46 143.13 162.7L138.98 165.17Z" fill="#263238"/>
<path d="M131.69 232.83C131.85 225.48 131.19 218.25 129.65 211.06C127.94 203.07 125.4 195.29 122.86 187.54C123.1 188.29 122.61 189.28 122.86 190.04C125.01 196.6 127.15 203.16 128.79 209.87C130.45 216.61 131.82 223.71 131.67 230.68C131.66 231.25 131.66 231.82 131.67 232.39C131.67 232.49 131.68 233.27 131.69 232.83Z" fill="#263238"/>
<path d="M224.71 150.77C229.89 156.95 234.54 163.68 237.41 171.26C239.96 178.01 240.93 185.19 241.04 192.38C241.12 197.59 240.73 202.83 240.36 208.03C240.31 208.78 240.41 209.85 240.37 210.44C240.98 201.74 241.49 192.92 240.76 184.2C240.09 176.23 237.94 168.59 234.06 161.58C231.43 156.82 228.18 152.43 224.7 148.27C224.82 148.42 224.69 149.31 224.69 149.52C224.7 149.77 224.55 150.58 224.71 150.77Z" fill="#263238"/>
<path d="M189.72 61.5904C194.93 62.4604 198.99 66.1504 200.02 70.8304C201.1 75.7704 202.31 82.8904 201.22 86.1504C199.56 91.1104 194.94 99.3204 186.48 104.29C180.96 107.54 170.78 106.23 166.55 105.57C155.86 103.9 144.4 83.9904 145.16 79.8704C145.92 75.7504 159.67 62.2604 162.22 61.3404C163.99 60.7004 179.42 59.8604 189.72 61.5904Z" fill="#FAFBFB"/>
<path d="M189.72 61.5904C189.73 61.5604 189.15 61.4304 188.03 61.2404C186.91 61.0604 185.25 60.8304 183.1 60.6504C178.8 60.3104 172.53 60.0304 164.8 60.6004C163.83 60.7404 162.85 60.6704 161.77 61.1504C160.8 61.6704 160.07 62.2904 159.27 62.9404C157.71 64.2304 156.18 65.6504 154.64 67.1604C151.6 70.2004 148.36 73.4704 145.7 77.5004C145.1 78.5004 144.41 79.7404 144.68 81.0704C144.89 82.3004 145.28 83.4604 145.77 84.6004C146.73 86.8704 147.92 89.1104 149.33 91.2904C152.13 95.6204 155.53 99.9504 160.22 103.36L162.09 104.51C162.74 104.85 163.44 105.13 164.11 105.44C164.81 105.7 165.57 105.84 166.29 106.04C167.01 106.18 167.72 106.26 168.44 106.37C171.3 106.74 174.15 106.96 176.97 106.89C179.77 106.81 182.59 106.51 185.15 105.48C187.7 104.39 189.67 102.81 191.57 101.22C195.27 97.9604 197.98 94.2004 199.89 90.4604C200.35 89.5204 200.8 88.5904 201.15 87.6404C201.51 86.7204 201.87 85.7404 201.97 84.7604C202.18 82.8204 202.03 80.9904 201.85 79.2504C201.43 75.7704 200.82 72.7004 200.12 69.9804C199.27 67.2504 197.51 65.2704 195.84 64.0204C194.14 62.7704 192.53 62.1804 191.44 61.8904C190.33 61.5904 189.72 61.5904 189.72 61.5904C189.71 61.6504 190.3 61.7304 191.36 62.0804C192.41 62.4304 193.95 63.0504 195.55 64.3104C197.12 65.5704 198.76 67.5004 199.51 70.1204C200.13 72.7704 200.7 75.8904 201.05 79.3104C201.2 81.0204 201.32 82.8304 201.1 84.6604C200.85 86.4304 199.92 88.2804 199.03 90.1004C197.13 93.7404 194.45 97.4004 190.84 100.54C189.03 102.06 186.99 103.64 184.71 104.59C182.37 105.52 179.66 105.82 176.94 105.89C174.21 105.94 171.41 105.73 168.6 105.36C167.9 105.26 167.18 105.18 166.5 105.04C165.85 104.85 165.18 104.74 164.54 104.49C163.92 104.2 163.28 103.95 162.67 103.63L160.91 102.55C156.42 99.2904 153.05 95.0404 150.29 90.7904C148.9 88.6604 147.73 86.4604 146.78 84.2604C146.3 83.1604 145.93 82.0404 145.73 80.9504C145.5 79.9104 146.03 78.9404 146.61 77.9404C149.14 74.0604 152.35 70.7404 155.33 67.7204C156.84 66.2104 158.35 64.7904 159.86 63.5104C160.61 62.8804 161.4 62.2304 162.16 61.8204C162.88 61.4604 163.98 61.4404 164.89 61.3204C172.53 60.6704 178.79 60.8304 183.07 61.0504C185.22 61.1704 186.88 61.3304 188 61.4504C189.12 61.5704 189.71 61.6204 189.72 61.5904Z" fill="#263238"/>
<path d="M156.77 82.8605C156.72 82.9205 157.15 83.2605 157.98 83.8205C158.79 84.4005 160.06 85.1305 161.7 85.9205C164.96 87.5005 169.91 89.0905 175.59 89.5205C181.28 89.9305 186.45 89.0905 189.95 88.0105C191.71 87.4705 193.09 86.9405 194 86.4805C194.91 86.0405 195.4 85.7705 195.36 85.7105C195.27 85.5505 193.22 86.4505 189.72 87.3305C186.23 88.2205 181.21 88.9205 175.68 88.5205C170.16 88.1005 165.33 86.6805 162.05 85.2905C158.75 83.9005 156.88 82.7105 156.77 82.8605Z" fill="#263238"/>
<path d="M162.43 90.9103C162.27 91.1203 165.75 93.2303 170.73 94.2003C175.71 95.2003 179.85 94.6003 179.8 94.3503C179.78 94.0503 175.75 94.1803 170.97 93.2103C166.18 92.2903 162.59 90.6403 162.43 90.9103Z" fill="#263238"/>
<path d="M167.88 67.3406C167.92 67.6506 173.48 67.0206 180.24 67.8306C187.01 68.5906 192.21 70.4806 192.33 70.1906C192.47 69.9806 187.34 67.6206 180.38 66.8306C173.44 66.0006 167.81 67.1006 167.88 67.3406Z" fill="#263238"/>
<path d="M137.37 47.8305C137.2 48.0605 142.41 51.5105 149.02 55.5305C155.63 59.5505 161.13 62.6205 161.3 62.3905C161.47 62.1605 156.26 58.7105 149.65 54.6905C143.05 50.6705 137.55 47.6005 137.37 47.8305Z" fill="#263238"/>
<path d="M136.54 66.3901C136.27 66.5301 138.21 70.0301 140.88 74.2001C143.55 78.3801 145.92 81.6501 146.19 81.5101C146.46 81.3701 144.52 77.8701 141.85 73.7001C139.19 69.5201 136.81 66.2501 136.54 66.3901Z" fill="#263238"/>
</svg>
