<svg width="385" height="300" viewBox="0 0 385 300" fill="none" xmlns="http://www.w3.org/2000/svg">
<path d="M151.338 125.765L172.009 121.798L211.701 130.894L231.79 135.054L232.081 162.439L187.246 170.664L156.967 161.761L145.516 144.924L151.338 125.765Z" fill="#FFBE9D"/>
<path d="M136.587 128.474L156.094 123.926C156.094 123.926 169.874 166.502 203.938 164.663C231.693 163.212 231.693 135.054 231.693 135.054L251.976 138.634C251.976 138.634 260.516 190.015 251.199 226.012C243.435 256.008 236.545 297.133 236.545 297.133H101.845L136.587 128.474Z" fill="#963EEE"/>
<path d="M334.368 260.073C334.368 260.073 278.761 162.922 268.765 150.536C257.799 136.892 249.064 138.441 249.064 138.441L243.145 203.853L290.406 270.717L301.664 274.781L334.368 260.073Z" fill="#963EEE"/>
<path d="M138.916 127.894C138.916 127.894 107.279 130.409 96.0219 182.081C90.8784 205.401 84.3763 232.785 82.5324 251.171C81.1738 264.524 89.4227 278.361 102.815 280.103L119.604 283.199C128.824 284.941 137.752 279.135 139.887 270.04L145.516 246.719L130.473 241.688L133.967 172.115L138.916 127.894Z" fill="#963EEE"/>
<path d="M254.693 174.727C254.693 174.727 254.79 175.017 254.79 175.404C254.887 175.888 254.984 176.662 255.081 177.436C255.178 177.92 255.178 178.404 255.275 178.984C255.373 179.565 255.373 180.145 255.47 180.823C255.567 182.081 255.761 183.629 255.858 185.177C256.052 188.467 256.052 192.338 255.955 196.692C255.761 201.046 255.276 205.788 254.596 210.723C253.917 215.658 252.946 220.302 252.073 224.56C251.2 228.817 250.229 232.591 249.453 235.688C248.676 238.881 247.997 241.397 247.512 243.139C247.318 244.009 247.124 244.687 246.929 245.171C246.832 245.654 246.735 245.848 246.735 245.848C246.735 245.848 246.735 245.558 246.832 245.171C246.929 244.687 247.124 244.009 247.318 243.139C247.803 241.3 248.385 238.784 249.162 235.591C249.938 232.398 250.811 228.624 251.685 224.366C252.558 220.109 253.529 215.464 254.208 210.529C254.887 205.594 255.47 200.853 255.664 196.595C255.858 192.338 255.858 188.37 255.664 185.177C255.664 183.532 255.47 182.081 255.373 180.823C255.276 180.145 255.275 179.565 255.275 178.984C255.178 178.404 255.178 177.92 255.081 177.436C254.984 176.565 254.887 175.888 254.887 175.307C254.693 175.017 254.693 174.727 254.693 174.727Z" fill="#263238"/>
<path d="M146.971 249.237C146.971 249.237 146.874 249.14 146.777 248.85C146.68 248.559 146.583 248.076 146.389 247.592C146.195 247.011 146.001 246.334 145.806 245.56C145.515 244.786 145.418 243.818 144.642 243.044C143.963 242.27 142.895 241.689 141.731 241.302C140.566 240.818 139.207 240.528 137.752 240.238C134.84 239.657 131.541 239.367 128.047 239.27H127.756V238.98C128.629 233.464 129.6 227.078 130.57 220.401C132.414 208.693 134.064 198.145 135.325 190.404C135.908 186.631 136.49 183.534 136.781 181.309C136.975 180.244 137.072 179.47 137.169 178.889C137.266 178.599 137.266 178.406 137.266 178.212C137.266 178.115 137.363 178.019 137.363 178.019C137.363 178.019 137.363 178.115 137.363 178.212C137.363 178.406 137.363 178.599 137.266 178.889C137.169 179.47 137.072 180.341 136.975 181.405C136.684 183.631 136.199 186.727 135.617 190.501C134.452 198.242 132.802 208.789 131.055 220.498C129.988 227.175 129.017 233.464 128.144 239.077L127.95 238.786C131.541 238.883 134.84 239.27 137.752 239.851C139.207 240.141 140.566 240.528 141.731 241.012C142.895 241.496 143.963 242.076 144.739 242.947C145.127 243.334 145.321 243.818 145.515 244.302C145.612 244.786 145.807 245.173 145.904 245.56C146.098 246.334 146.292 247.011 146.486 247.592C146.583 248.076 146.777 248.559 146.777 248.85C146.971 249.14 146.971 249.237 146.971 249.237Z" fill="#263238"/>
<path d="M103.494 257.17C103.494 257.17 103.494 256.686 103.785 255.912C103.979 255.041 104.368 253.88 105.047 252.525C106.308 249.719 108.735 246.139 112.519 243.333C116.304 240.527 120.574 239.366 123.583 239.075C125.135 238.882 126.3 238.882 127.173 238.979C128.047 239.075 128.532 239.075 128.532 239.172C128.532 239.269 126.688 239.075 123.68 239.462C120.671 239.849 116.595 241.107 112.908 243.817C109.22 246.526 106.697 250.01 105.435 252.719C103.882 255.332 103.591 257.17 103.494 257.17Z" fill="#263238"/>
<path d="M110.772 231.431C110.772 231.431 111.064 231.334 111.549 231.334C112.034 231.334 112.713 231.334 113.587 231.431C115.334 231.624 117.76 232.108 120.283 233.076C122.806 234.14 124.844 235.495 126.203 236.559C126.882 237.14 127.367 237.624 127.756 237.914C128.144 238.301 128.241 238.495 128.241 238.495C128.144 238.591 127.367 237.817 126.009 236.753C124.65 235.688 122.515 234.43 120.089 233.463C117.663 232.495 115.334 231.915 113.587 231.721C111.84 231.528 110.772 231.528 110.772 231.431Z" fill="#263238"/>
<path d="M143.477 164.567C143.477 164.567 143.38 164.083 143.38 163.212C143.38 162.341 143.283 161.084 143.186 159.439C142.992 156.245 142.41 151.891 141.051 147.246C139.693 142.602 137.946 138.538 136.49 135.731C135.714 134.28 135.131 133.216 134.646 132.442C134.161 131.667 133.967 131.28 133.967 131.184C133.967 131.184 134.258 131.571 134.743 132.345C135.228 133.119 135.908 134.183 136.684 135.538C138.237 138.344 140.081 142.311 141.439 147.053C142.798 151.697 143.283 156.149 143.38 159.342C143.477 160.89 143.477 162.245 143.38 163.116C143.574 164.083 143.477 164.567 143.477 164.567Z" fill="#263238"/>
<g opacity="0.3">
<path opacity="0.3" d="M253.236 218.078C261.291 204.434 261.485 186.726 254.401 172.599C256.536 187.694 256.342 203.176 252.945 217.981" fill="black"/>
</g>
<g opacity="0.3">
<path opacity="0.3" d="M181.52 233.463C175.406 235.301 166.963 235.688 160.946 233.463C165.605 240.043 174.63 242.462 182.394 240.333C190.157 238.204 197.436 230.366 198.018 222.335C194.233 227.367 187.634 231.624 181.52 233.463Z" fill="black"/>
</g>
<path d="M204.035 211.497C204.035 211.497 204.035 211.691 203.938 212.078C203.841 212.465 203.647 212.949 203.453 213.626C202.967 214.981 202.094 216.819 200.832 218.948C199.571 221.077 197.727 223.496 195.301 225.818C192.875 228.14 189.866 230.269 186.47 232.011C182.976 233.656 179.385 234.624 176.086 235.011C172.786 235.398 169.778 235.398 167.254 235.011C164.731 234.72 162.79 234.14 161.432 233.753C160.752 233.559 160.267 233.366 159.879 233.172C159.491 233.075 159.394 232.979 159.394 232.979C159.394 232.979 160.17 233.172 161.529 233.559C162.887 233.946 164.828 234.43 167.351 234.624C172.301 235.204 179.385 234.72 186.275 231.43C193.166 228.14 197.921 222.818 200.541 218.658C201.9 216.529 202.773 214.787 203.259 213.432C203.647 212.174 203.938 211.497 204.035 211.497Z" fill="#263238"/>
<path d="M135.81 279.233C135.81 279.233 135.713 279.33 135.519 279.523C135.325 279.717 135.131 279.91 134.743 280.201C134.064 280.781 132.899 281.459 131.443 281.942C129.891 282.523 128.047 282.813 125.912 282.91C123.777 283.007 121.448 282.91 119.118 282.717C114.266 282.33 109.996 281.555 106.793 281.072C105.241 280.781 103.979 280.588 103.106 280.394C102.232 280.201 101.747 280.104 101.747 280.104C101.747 280.104 102.232 280.104 103.106 280.201C104.076 280.298 105.338 280.491 106.793 280.781C109.899 281.265 114.266 281.846 119.021 282.33C121.448 282.523 123.68 282.717 125.815 282.62C127.853 282.523 129.794 282.233 131.249 281.749C134.355 280.588 135.713 279.136 135.81 279.233Z" fill="#263238"/>
<path d="M245.474 24.6479L249.452 20.7773C254.79 23.0997 257.216 29.1958 258.09 34.9049C258.963 40.6139 258.866 46.6133 261.292 51.8385C263.136 55.9026 266.533 59.5796 266.144 64.0307C265.756 68.2883 261.971 71.6751 261.874 75.8359C261.874 79.9 265.271 82.9964 267.212 86.5767C271.191 93.834 273.811 123.25 271.676 131.282C254.014 129.733 222.862 127.895 205.199 123.831C209.954 93.6404 229.558 50.8709 245.474 24.6479Z" fill="#263238"/>
<path d="M220.532 143.473C220.532 143.473 220.435 143.763 220.532 143.473V143.473Z" fill="#FFBE9D"/>
<path d="M253.334 51.6443C254.596 31.0336 239.554 12.1647 218.592 9.74558C196.368 7.13296 176.765 23.0022 174.921 44.4838L169.68 131.474C169.583 133.119 170.068 134.861 171.039 136.216C176.182 143.667 185.402 149.569 193.748 150.634C201.802 151.698 209.954 149.666 216.748 145.892C219.077 144.634 220.435 142.118 220.532 139.506L220.921 120.056C220.921 119.959 221.018 119.959 221.018 119.959C222.182 120.056 225.288 120.056 226.452 119.766C231.596 118.508 244.794 113.476 249.258 94.2203C250.714 87.8339 252.267 69.7391 253.334 51.6443Z" fill="#FFBE9D"/>
<path d="M224.608 80.0928C224.608 79.8993 226.743 79.7058 230.237 79.5123C231.11 79.5123 231.984 79.4155 232.178 78.8349C232.469 78.2543 232.081 77.2867 231.79 76.2223C231.11 74.0935 230.334 71.8679 229.655 69.4488C226.646 59.8692 224.511 52.0314 224.9 51.8378C225.288 51.7411 228.005 59.3854 231.013 68.965C231.693 71.2873 232.469 73.6097 233.051 75.7385C233.343 76.7061 233.828 77.8673 233.246 79.1252C232.954 79.7058 232.275 80.1896 231.693 80.2864C231.11 80.3831 230.625 80.3831 230.14 80.3831C226.743 80.3831 224.608 80.2864 224.608 80.0928Z" fill="#263238"/>
<path d="M247.608 58.9029C247.22 59.29 244.891 57.3547 241.688 57.3547C238.389 57.2579 235.963 58.9997 235.574 58.5159C235.38 58.3223 235.769 57.5482 236.836 56.7741C237.904 56 239.65 55.2259 241.688 55.3227C243.726 55.4194 245.473 56.2903 246.444 57.1612C247.511 57.9353 247.802 58.7094 247.608 58.9029Z" fill="#263238"/>
<path d="M214.321 59.7724C213.836 60.1594 211.507 58.0306 207.916 57.7403C204.326 57.3533 201.511 59.095 201.22 58.6112C201.026 58.4177 201.511 57.6436 202.773 56.8695C203.937 56.0953 205.975 55.418 208.207 55.6115C210.439 55.8051 212.283 56.8695 213.254 57.8371C214.224 58.708 214.515 59.5788 214.321 59.7724Z" fill="#263238"/>
<path d="M220.921 119.96C220.921 119.96 207.528 120.153 191.516 109.122C191.516 109.122 195.689 126.733 220.824 126.152L220.921 119.96Z" fill="#EFA077"/>
<path d="M222.668 88.1246C221.503 86.4796 219.465 85.4152 217.233 85.5119C215.68 85.6087 214.128 86.1893 213.157 87.2537C212.187 88.4149 211.895 90.0598 212.672 91.221C213.545 92.5757 215.486 92.9627 217.136 92.6725C218.786 92.2854 220.338 91.4145 221.697 90.4469C222.085 90.1566 222.474 89.8663 222.765 89.4793C223.056 89.0922 223.153 88.6084 222.862 88.2213" fill="#EFA077"/>
<path d="M214.321 81.7381C214.904 81.7381 214.612 85.4151 217.718 88.2213C220.726 91.0274 224.802 90.9306 224.705 91.4145C224.705 91.608 223.735 92.0918 222.085 91.995C220.435 91.8983 218.009 91.2209 216.165 89.4792C214.321 87.7374 213.642 85.6086 213.545 84.0604C213.642 82.609 214.03 81.6413 214.321 81.7381Z" fill="#263238"/>
<path d="M214.807 46.2252C214.418 47.0961 211.022 46.4187 206.946 46.6122C202.87 46.709 199.57 47.5799 199.085 46.709C198.891 46.322 199.473 45.4511 200.929 44.677C202.288 43.9029 204.423 43.2255 206.849 43.1288C209.275 43.032 211.507 43.6126 212.963 44.2899C214.321 45.064 215.001 45.8381 214.807 46.2252Z" fill="#263238"/>
<path d="M248.287 47.0009C247.608 47.775 244.794 47.0009 241.494 47.0009C238.194 46.9041 235.38 47.5815 234.701 46.7106C234.41 46.3235 234.895 45.5494 236.059 44.7753C237.224 44.0012 239.262 43.4206 241.591 43.5174C243.823 43.6142 245.861 44.2915 247.026 45.0656C248.19 45.8397 248.675 46.6138 248.287 47.0009Z" fill="#263238"/>
<path d="M221.697 5.39147C219.853 2.29503 216.553 0.940341 212.769 0.359759C197.435 -1.96257 180.452 7.22998 171.815 20.0996C163.275 32.8724 162.887 52.0316 169.098 66.0623L178.608 60.1598C197.726 52.3219 211.313 33.9368 223.638 14.8743C225.288 12.2617 223.25 8.00409 221.697 5.39147Z" fill="#263238"/>
<path d="M245.182 13.7136C238.777 6.45634 234.119 -0.80094 220.824 4.23078C218.883 7.9078 222.765 12.746 226.064 15.5521C230.916 19.713 235.089 22.4224 238.292 25.422C244.697 31.4214 251.976 51.3547 252.558 62.289C252.558 62.9664 253.819 52.903 254.499 52.8062C255.372 52.7094 258.963 48.2583 258.478 42.2589C256.828 21.8418 251.587 20.9709 245.182 13.7136Z" fill="#263238"/>
<path d="M212.769 0.360257C212.769 0.263494 213.933 0.16673 215.777 0.650548C217.524 1.13437 219.95 2.3923 221.794 4.61786C222.279 5.19844 222.667 5.77903 222.958 6.35961C223.347 6.94019 223.444 7.61754 223.638 8.19812C224.026 9.35929 224.317 10.4237 224.414 11.2946C224.705 13.1331 224.22 14.2942 224.123 14.2942C223.929 14.2942 224.123 13.1331 223.735 11.3913C223.541 10.5204 223.153 9.55281 222.764 8.39165C222.57 7.81106 222.376 7.23048 222.085 6.74666C221.794 6.16608 221.406 5.68226 220.92 5.19844C219.174 3.16641 217.039 1.90848 215.389 1.23113C213.933 0.553785 212.769 0.457021 212.769 0.360257Z" fill="#455A64"/>
<path d="M244.6 65.1909C244.697 66.7391 243.436 68.0938 241.883 68.1906C240.33 68.2873 238.971 67.1262 238.874 65.6747C238.777 64.1265 240.039 62.7718 241.592 62.675C243.144 62.5783 244.503 63.6427 244.6 65.1909Z" fill="#263238"/>
<path d="M212.671 65.3858C212.768 66.934 211.507 68.2887 209.954 68.3854C208.401 68.4822 206.946 67.321 206.946 65.8696C206.849 64.3214 208.11 62.9667 209.663 62.8699C211.216 62.7731 212.574 63.9343 212.671 65.3858Z" fill="#263238"/>
<path d="M124.651 89.6731C126.495 86.6734 128.533 83.964 131.832 82.7061C135.132 81.4481 138.917 80.7708 141.44 78.3517C145.516 74.6747 145.322 68.4818 144.934 63.063C144.545 57.6443 144.448 51.4514 148.621 47.7744C152.115 44.7747 157.647 44.4844 160.655 41.0009C162.693 38.6786 163.081 35.4854 163.761 32.5824C165.702 24.6478 170.069 10.9074 193.457 2.87598L172.786 81.2546C174.339 81.6417 178.026 85.2219 178.221 87.5443C178.415 89.7698 177.444 91.9954 177.444 94.221C177.444 96.9303 180.453 98.5753 182.297 100.607C184.723 103.123 185.402 106.897 185.014 110.284C184.626 113.67 182.588 120.734 181.326 123.927C162.111 121.992 134.161 121.412 119.507 109.219C116.79 106.897 120.672 96.253 124.651 89.6731Z" fill="#263238"/>
<path d="M178.608 60.1609C178.22 59.9673 164.148 54.355 163.275 69.2566C162.401 84.0615 177.444 81.9327 177.541 81.4489C177.541 81.0618 178.608 60.1609 178.608 60.1609Z" fill="#FFBE9D"/>
<path d="M173.368 75.5456C173.271 75.4488 173.076 75.7391 172.688 75.8359C172.203 76.0294 171.524 76.1262 170.747 75.7391C169.195 75.0618 168.03 72.5459 168.127 69.8365C168.127 68.4818 168.515 67.2239 169.098 66.1595C169.583 65.0951 170.359 64.4178 171.136 64.321C171.912 64.2242 172.494 64.708 172.591 65.0951C172.785 65.4822 172.688 65.7724 172.688 65.8692C172.688 65.8692 172.979 65.6757 172.979 64.9983C172.979 64.708 172.785 64.321 172.494 64.0307C172.203 63.7404 171.621 63.5469 171.038 63.5469C169.874 63.5469 168.806 64.5145 168.224 65.6757C167.545 66.8368 167.157 68.1915 167.06 69.7398C166.963 72.7394 168.321 75.6424 170.456 76.3197C171.524 76.61 172.397 76.4165 172.882 76.0294C173.271 75.9326 173.368 75.5456 173.368 75.5456Z" fill="#EFA077"/>
<path d="M231.499 64.0293C231.596 64.0293 231.499 62.7713 231.984 60.7393C232.469 58.7073 233.828 55.6108 236.837 53.2885C238.389 52.1273 240.233 51.1597 242.465 50.6759C244.697 50.2888 247.123 50.2888 249.55 51.1597C250.714 51.5467 251.879 52.1273 252.946 52.9014C254.014 53.6755 254.984 54.6432 255.858 55.7076C257.507 57.8364 258.575 60.6425 258.575 63.6422C258.575 66.5451 257.702 69.3513 256.052 71.5768C255.275 72.738 254.305 73.7056 253.237 74.4798C252.17 75.2539 251.005 75.9312 249.841 76.415C247.512 77.3827 244.988 77.4794 242.756 77.0924C240.524 76.7053 238.583 75.8344 237.031 74.6733C233.925 72.351 232.469 69.3513 231.887 67.3192C231.499 65.2872 231.596 64.0293 231.499 64.0293C231.499 64.0293 231.499 64.126 231.499 64.2228C231.499 64.4163 231.499 64.6099 231.499 64.9001C231.499 65.1904 231.499 65.5775 231.596 65.9645C231.693 66.3516 231.693 66.8354 231.887 67.416C232.372 69.5448 233.828 72.6412 237.031 74.9636C238.583 76.1247 240.621 77.0924 242.95 77.4794C245.28 77.8665 247.803 77.7697 250.229 76.8021C251.491 76.3183 252.655 75.7377 253.723 74.8668C254.79 74.0927 255.858 73.0283 256.634 71.8671C258.284 69.5448 259.254 66.6419 259.254 63.6422C259.157 60.6425 258.187 57.7396 256.44 55.4173C255.567 54.2561 254.596 53.2885 253.431 52.5144C252.364 51.7403 251.102 51.0629 249.841 50.6759C247.318 49.805 244.794 49.805 242.562 50.1921C240.233 50.6759 238.292 51.7403 236.74 52.9014C233.634 55.4173 232.372 58.5137 231.887 60.6425C231.79 61.1264 231.693 61.6102 231.693 62.094C231.596 62.481 231.596 62.8681 231.596 63.1584C231.596 63.4487 231.596 63.6422 231.596 63.8357C231.499 63.9325 231.499 64.0293 231.499 64.0293Z" fill="#455A64"/>
<path d="M194.039 64.6103C194.136 64.6103 194.039 63.3524 194.525 61.3204C195.01 59.2883 196.368 56.1919 199.377 53.8695C200.93 52.7084 202.774 51.7407 205.006 51.2569C207.238 50.8699 209.664 50.8699 212.09 51.7407C213.255 52.1278 214.419 52.7084 215.487 53.4825C216.554 54.2566 217.525 55.2242 218.398 56.2886C220.048 58.4174 221.115 61.2236 221.115 64.2233C221.115 67.1262 220.242 69.9323 218.592 72.1579C217.816 73.3191 216.845 74.2867 215.778 75.0608C214.71 75.8349 213.546 76.5123 212.381 76.9961C210.052 77.9637 207.529 78.0605 205.297 77.6734C203.065 77.2864 201.124 76.4155 199.571 75.2543C196.465 72.932 195.01 69.9323 194.428 67.9003C194.039 65.8683 194.039 64.6103 194.039 64.6103C194.039 64.6103 194.039 64.7071 194.039 64.8039C194.039 64.9974 194.039 65.1909 194.039 65.4812C194.039 65.7715 194.039 66.1585 194.136 66.5456C194.233 66.9327 194.233 67.4165 194.428 67.9971C194.913 70.1259 196.368 73.2223 199.571 75.5446C201.124 76.7058 203.162 77.6734 205.491 78.0605C207.82 78.4475 210.343 78.3508 212.769 77.3831C214.031 76.8993 215.195 76.3187 216.263 75.4479C217.33 74.6738 218.398 73.6094 219.174 72.4482C220.824 70.1259 221.795 67.2229 221.795 64.2233C221.698 61.2236 220.727 58.3207 218.98 55.9984C218.107 54.8372 217.136 53.8695 215.972 53.0954C214.904 52.3213 213.643 51.644 212.381 51.2569C209.858 50.3861 207.335 50.3861 205.103 50.7731C202.774 51.2569 200.833 52.3213 199.28 53.4825C196.174 55.9983 194.913 59.0948 194.428 61.2236C194.33 61.7074 194.233 62.1912 194.233 62.6751C194.136 63.0621 194.136 63.4492 194.136 63.7395C194.136 64.0297 194.136 64.2233 194.136 64.4168C193.942 64.6103 193.942 64.6103 194.039 64.6103Z" fill="#455A64"/>
<path d="M220.824 63.6416C220.921 63.7384 221.31 63.061 222.183 62.3837C223.056 61.7063 224.512 60.9322 226.259 60.8355C228.006 60.8355 229.558 61.5128 230.432 62.1902C231.402 62.8675 231.791 63.4481 231.888 63.4481C231.888 63.4481 231.596 62.674 230.723 61.8999C229.85 61.1258 228.2 60.2549 226.356 60.2549C224.415 60.2549 222.862 61.2225 221.989 61.9966C221.018 62.8675 220.727 63.6416 220.824 63.6416Z" fill="#455A64"/>
<path d="M175.212 59.1914C175.212 59.2882 176.279 59.4817 177.929 59.772C179.676 60.0623 182.005 60.2558 184.625 60.5461C187.149 60.7396 189.478 60.9332 191.322 61.1267C193.068 61.3202 194.136 61.417 194.136 61.3202C194.136 61.2235 193.068 61.0299 191.419 60.7396C189.672 60.4493 187.343 60.2558 184.722 59.9655C182.199 59.772 179.87 59.5785 178.026 59.3849C176.279 59.2882 175.212 59.0946 175.212 59.1914Z" fill="#455A64"/>
<path d="M253.14 72.4482C253.043 72.3514 254.984 70.7064 256.052 67.8035C257.119 64.9006 256.731 62.3848 256.925 62.3848C257.022 62.3848 257.216 62.9653 257.216 64.0297C257.216 65.0941 257.119 66.5456 256.537 67.9971C255.955 69.4485 255.178 70.7064 254.402 71.4806C253.723 72.1579 253.237 72.4482 253.14 72.4482Z" fill="white"/>
<path d="M255.469 57.1599C255.566 57.0632 256.052 57.3535 256.44 57.9341C256.731 58.6114 256.634 59.192 256.537 59.192C256.44 59.192 256.246 58.7082 256.052 58.1276C255.76 57.6438 255.372 57.2567 255.469 57.1599Z" fill="white"/>
<path d="M218.884 69.449C218.787 69.449 219.078 68.6749 219.272 67.417C219.466 66.159 219.563 64.4173 219.272 62.482C218.884 60.5467 218.204 58.9985 217.525 57.9341C216.846 56.8697 216.36 56.2891 216.36 56.1924C216.36 56.1924 217.04 56.6762 217.816 57.7406C218.592 58.805 219.369 60.45 219.757 62.3853C220.145 64.3205 219.951 66.159 219.66 67.417C219.369 68.7717 218.981 69.5458 218.884 69.449Z" fill="white"/>
<path d="M167.254 81.2539C167.254 81.2539 167.06 81.5441 166.768 82.1247C166.477 82.6086 166.186 83.4794 166.089 84.5438C166.089 85.6082 166.477 86.9629 167.448 87.9306C168.418 88.8982 170.068 89.5756 171.621 89.2853C173.174 88.995 174.532 87.8338 175.114 86.5759C175.697 85.3179 175.6 83.9632 175.211 82.8988C174.823 81.9312 174.241 81.2539 173.756 80.77C173.271 80.383 172.979 80.1895 172.979 80.1895C172.979 80.1895 173.368 80.2862 173.853 80.6733C174.338 81.0603 175.017 81.7377 175.503 82.8021C175.988 83.8665 176.182 85.3179 175.503 86.7694C174.92 88.1241 173.465 89.4788 171.718 89.7691C169.874 90.0594 168.224 89.382 167.06 88.2209C165.895 87.1565 165.604 85.6082 165.701 84.5438C165.798 83.3827 166.186 82.5118 166.574 82.028C166.963 81.4474 167.254 81.2539 167.254 81.2539Z" fill="#E0E0E0"/>
<path d="M249.259 92.6728C249.259 92.576 250.229 93.2533 251.879 92.8663C252.655 92.6728 253.529 92.1889 254.208 91.4148C254.888 90.6407 255.567 89.5763 255.761 88.4151C255.955 87.254 255.761 85.9961 255.373 85.0284C254.887 84.0608 254.305 83.2867 253.626 82.8028C252.364 81.7384 251.297 81.6417 251.297 81.5449C251.297 81.5449 251.588 81.5449 252.073 81.6417C252.558 81.7384 253.238 82.0287 253.917 82.5126C254.596 82.9964 255.373 83.7705 255.858 84.8349C256.343 85.8993 256.634 87.1572 256.343 88.5119C256.052 89.8666 255.47 90.931 254.596 91.8019C253.82 92.6728 252.85 93.1566 251.976 93.2533C251.103 93.4469 250.423 93.3501 249.938 93.1566C249.453 92.8663 249.259 92.6728 249.259 92.6728Z" fill="#E0E0E0"/>
<path d="M195.398 284.747L209.761 289.005C209.761 289.005 217.719 292.392 221.6 293.263C226.356 294.327 229.655 292.876 229.849 290.263C230.043 287.65 226.259 287.263 226.259 287.263C226.259 287.263 220.242 284.941 217.039 283.006C213.837 281.07 211.896 277.2 211.896 277.2L217.039 277.877C217.039 277.877 227.811 285.618 231.984 287.941C236.06 290.263 236.934 286.199 237.322 284.941C237.71 283.683 225.288 271.104 225.288 271.104C225.288 271.104 237.128 278.748 239.263 280.587C241.398 282.522 244.6 283.102 245.28 281.845C245.959 280.587 247.9 280.587 245.28 275.361C242.66 270.136 221.309 256.009 221.309 256.009L227.132 254.751L233.537 257.557C233.537 257.557 233.925 260.169 236.157 263.653C238.487 267.04 242.562 263.653 242.562 263.653L240.039 250.59L227.423 242.752C227.423 242.752 214.322 244.3 212.381 245.268C210.44 246.139 208.305 249.816 208.305 249.816L204.714 251.267C199.183 252.815 199.377 258.331 197.63 258.524C195.883 258.718 144.06 248.655 144.06 248.655L139.402 247.397C131.638 253.299 128.533 262.976 127.174 271.588C127.174 271.588 125.719 275.845 127.174 278.168L195.398 284.747Z" fill="#FFBE9D"/>
<path d="M185.984 275.653C185.984 275.653 185.887 275.362 185.887 274.782C185.887 274.492 185.887 274.201 185.984 273.814C185.984 273.427 186.081 273.04 186.275 272.556C186.76 270.621 188.022 268.202 189.866 265.88C191.709 263.557 193.747 261.816 195.203 260.558C196.659 259.3 197.726 258.622 197.726 258.719C197.726 258.816 196.853 259.59 195.494 260.848C194.039 262.106 192.098 263.944 190.254 266.267C188.41 268.492 187.148 270.911 186.566 272.653C185.984 274.395 186.081 275.653 185.984 275.653Z" fill="#EFA077"/>
<path d="M208.402 249.911C208.402 249.911 208.014 250.105 207.334 250.685C206.655 251.169 205.782 252.137 205.005 253.395C204.617 254.072 204.132 254.749 203.841 255.523C203.452 256.298 203.452 257.265 203.258 258.33C203.064 259.297 202.773 260.458 202.094 261.426C201.414 262.394 200.735 263.265 200.347 264.329C199.668 266.167 199.668 268.199 200.347 269.748L200.444 269.941L200.25 270.038C197.533 271.78 196.174 274.392 195.689 276.328C195.203 278.263 195.301 279.424 195.203 279.424C195.203 279.424 195.106 279.134 195.106 278.553C195.106 277.973 195.106 277.198 195.398 276.231C195.786 274.296 197.144 271.489 199.959 269.651L199.862 269.941C199.182 268.199 199.085 266.071 199.862 264.135C200.25 262.974 201.026 262.007 201.609 261.136C202.288 260.265 202.482 259.297 202.676 258.233C202.87 257.265 202.87 256.201 203.355 255.33C203.744 254.459 204.229 253.782 204.617 253.104C205.49 251.846 206.461 250.976 207.14 250.492C207.528 250.201 207.82 250.105 208.014 250.008C208.208 249.911 208.402 249.911 208.402 249.911Z" fill="#EFA077"/>
<path d="M220.824 255.719C220.824 255.816 219.077 256.009 217.136 255.332C215.195 254.654 213.934 253.396 214.031 253.3C214.128 253.203 215.389 254.171 217.33 254.848C219.174 255.525 220.824 255.525 220.824 255.719Z" fill="#EFA077"/>
<path d="M224.123 270.041C224.026 270.137 221.6 269.266 218.689 268.009C215.777 266.751 213.351 265.589 213.448 265.493C213.545 265.396 215.971 266.267 218.883 267.525C221.891 268.783 224.22 269.847 224.123 270.041Z" fill="#EFA077"/>
<path d="M212.478 277.103C212.381 277.199 211.216 276.715 209.664 276.038C208.111 275.458 206.946 274.974 206.946 274.78C206.946 274.683 208.305 274.877 209.858 275.554C211.41 276.232 212.575 277.006 212.478 277.103Z" fill="#EFA077"/>
<path d="M222.377 270.911C222.474 271.008 221.212 271.492 220.242 272.75C219.271 274.008 219.077 275.266 218.98 275.266C218.883 275.266 218.883 274.878 218.98 274.395C219.077 273.814 219.368 273.137 219.853 272.459C220.339 271.782 221.018 271.395 221.503 271.105C221.988 270.911 222.377 270.911 222.377 270.911Z" fill="#EFA077"/>
<path d="M227.52 263.073C227.617 263.17 226.647 263.653 225.967 264.815C225.288 265.879 225.288 266.943 225.191 266.943C225.094 266.943 224.803 265.782 225.579 264.524C226.356 263.266 227.52 262.976 227.52 263.073Z" fill="#EFA077"/>
<path d="M226.065 248.848C225.968 248.848 225.774 248.654 225.677 248.17C225.579 247.686 225.482 247.009 225.677 246.235C225.871 245.461 226.259 244.88 226.647 244.59C227.035 244.203 227.326 244.106 227.326 244.203C227.423 244.3 226.55 245.074 226.162 246.428C225.871 247.686 226.259 248.848 226.065 248.848Z" fill="#EFA077"/>
<path d="M331.069 253.3C331.069 253.3 330.39 240.624 317.191 238.011C303.993 235.399 280.896 246.527 280.896 246.527L216.166 291.522L218.107 297.134L283.807 288.038L289.824 290.361L336.018 260.074L379.592 228.625L374.74 224.852C374.74 224.852 362.512 233.27 354.457 236.85C346.402 240.431 334.66 246.817 331.069 253.3Z" fill="#F5F5F5"/>
<path d="M215.099 298.972L269.93 265.007L327.867 255.718C327.867 255.718 330.778 259.879 335.727 258.911L383.377 226.012L384.251 228.044L291.862 292.779C288.466 293.843 285.943 293.069 283.808 291.23L215.099 298.972Z" fill="#455A64"/>
<path d="M327.867 255.719C327.867 255.719 327.77 255.816 327.381 256.106C326.993 256.396 326.605 256.686 326.023 257.073C324.858 257.944 323.208 259.105 321.17 260.654C317.095 263.653 311.466 268.008 305.449 272.943C299.432 277.878 293.997 282.426 290.116 285.812C288.175 287.457 286.622 288.812 285.554 289.78C285.069 290.167 284.584 290.554 284.293 290.844C284.002 291.038 283.808 291.231 283.808 291.231C283.808 291.231 283.905 291.038 284.196 290.844C284.487 290.554 284.875 290.167 285.36 289.683C286.428 288.715 287.981 287.264 289.824 285.619C293.609 282.232 299.044 277.587 305.061 272.652C311.078 267.717 316.706 263.46 320.879 260.46C322.917 259.009 324.664 257.751 325.829 256.977C326.411 256.59 326.896 256.299 327.187 256.106C327.673 255.816 327.867 255.719 327.867 255.719Z" fill="#263238"/>
<path d="M327.284 248.656C322.044 243.044 313.795 241.012 306.128 241.593C298.461 242.173 291.183 245.076 284.001 247.882L216.942 293.651L217.525 295.393L284.972 249.914C284.972 249.914 300.014 245.076 306.71 244.205C317.774 242.85 327.284 248.656 327.284 248.656Z" fill="#E0E0E0"/>
<path d="M337.766 254.654L369.985 232.979C369.985 232.979 343.588 246.719 337.766 254.654Z" fill="#E0E0E0"/>
<path d="M216.846 293.65C216.846 293.65 216.943 293.553 217.137 293.456C217.331 293.263 217.622 293.069 218.01 292.876C218.787 292.295 219.854 291.618 221.213 290.65C224.027 288.715 228.103 285.909 233.052 282.425C243.145 275.555 257.023 265.976 272.356 255.525C276.238 252.816 280.12 250.3 283.808 247.784C290.892 244.784 297.782 242.559 304.187 241.688C310.69 240.914 316.512 241.978 320.879 244.01C323.014 245.075 324.858 246.332 326.217 247.59C327.576 248.848 328.546 250.203 329.225 251.364C329.905 252.525 330.196 253.493 330.39 254.17C330.487 254.461 330.487 254.751 330.584 254.944C330.584 255.138 330.681 255.235 330.584 255.235C330.487 255.235 330.39 253.783 329.031 251.461C328.352 250.3 327.382 249.042 326.023 247.784C324.664 246.526 322.82 245.268 320.685 244.3C316.415 242.268 310.593 241.301 304.187 242.075C297.782 242.946 290.892 245.171 283.905 248.171C280.217 250.687 276.432 253.299 272.453 256.009C257.12 266.459 243.145 275.942 233.052 282.812C228.006 286.199 223.93 289.005 221.116 290.844C219.757 291.811 218.593 292.489 217.816 292.973C217.428 293.166 217.137 293.36 216.943 293.553C216.943 293.65 216.846 293.65 216.846 293.65Z" fill="#263238"/>
<path d="M275.559 259.106C275.559 259.106 275.753 259.009 276.044 258.815C276.432 258.622 276.917 258.331 277.5 258.041C278.761 257.364 280.702 256.396 283.128 255.332C287.883 253.203 294.774 250.494 302.829 249.333C310.883 248.171 318.259 249.333 323.208 251.171C325.732 252.042 327.575 253.106 328.837 253.88C329.516 254.267 329.905 254.558 330.293 254.848C330.584 255.042 330.778 255.235 330.778 255.235C330.778 255.235 330.099 254.848 328.837 254.074C327.575 253.3 325.635 252.429 323.208 251.558C318.259 249.816 310.981 248.752 303.023 249.816C295.065 250.977 288.272 253.59 283.419 255.622C280.993 256.687 279.052 257.557 277.694 258.138C277.111 258.428 276.529 258.622 276.141 258.815C275.753 259.009 275.559 259.106 275.559 259.106Z" fill="#263238"/>
<path d="M377.845 227.271C377.845 227.271 377.748 227.367 377.457 227.561C377.166 227.754 376.681 228.045 376.196 228.432C375.031 229.206 373.478 230.173 371.537 231.431C367.559 233.947 362.221 237.431 356.204 241.301C350.284 245.172 344.947 248.849 341.065 251.365C339.221 252.623 337.571 253.687 336.504 254.461C336.018 254.751 335.533 255.042 335.242 255.235C334.951 255.429 334.757 255.526 334.757 255.526C334.757 255.526 334.854 255.429 335.145 255.138C335.436 254.945 335.824 254.558 336.31 254.268C337.377 253.493 338.93 252.429 340.774 251.074C344.559 248.365 349.896 244.785 355.913 240.817C361.833 236.947 367.364 233.463 371.343 231.044C373.381 229.786 374.934 228.819 376.099 228.238C376.584 227.948 377.069 227.658 377.36 227.464C377.651 227.367 377.845 227.271 377.845 227.271Z" fill="#263238"/>
<path d="M348.44 262.105C348.44 262.105 347.179 265.105 345.917 266.556C344.655 268.008 340.579 270.04 340.288 272.846C339.997 275.652 340.677 282.232 336.212 287.167C331.845 292.199 325.828 293.941 325.828 293.941L308.554 292.296L280.896 281.458C280.896 281.458 278.664 280.877 279.149 278.555C279.44 277.2 280.605 276.136 282.06 275.943L282.74 275.846C282.74 275.846 281.187 274.588 283.419 272.266C285.36 270.33 289.533 271.395 291.668 272.169C293.803 272.846 306.322 278.071 308.554 278.845C310.495 279.523 312.048 280.2 312.048 280.2C312.048 280.2 296.035 269.459 295.841 268.008C295.55 266.266 295.744 265.589 297.394 264.331C299.335 262.976 302.537 264.428 305.643 265.686C307.972 266.653 322.626 273.911 322.626 273.911C322.626 273.911 323.305 273.233 322.626 271.975C322.044 270.717 317.094 264.428 316.318 263.267C315.542 262.105 315.347 261.428 316.124 260.46C317.191 259.106 320.006 258.428 322.626 260.751C324.276 262.299 330.098 266.169 330.098 266.169L356.98 246.623C356.98 246.623 360.377 246.526 359.212 251.171C357.951 255.816 348.44 262.105 348.44 262.105Z" fill="#FFBE9D"/>
<path d="M328.449 278.361C328.449 278.458 326.896 278.071 325.537 276.91C324.081 275.749 323.499 274.394 323.596 274.297C323.693 274.2 324.47 275.458 325.828 276.523C327.187 277.684 328.449 278.265 328.449 278.361Z" fill="#EFA077"/>
<path d="M330.584 266.653C330.584 266.557 330.972 266.46 331.554 266.557C332.137 266.653 332.913 266.944 333.592 267.524C334.272 268.105 334.757 268.782 334.854 269.363C335.048 269.943 335.048 270.331 334.951 270.331C334.854 270.331 334.563 268.976 333.204 267.911C332.04 266.847 330.584 266.847 330.584 266.653Z" fill="#EFA077"/>
<path d="M331.943 272.071C331.749 272.071 331.749 270.62 331.166 268.975C330.584 267.33 329.808 266.169 329.905 266.072C330.002 265.975 331.069 267.136 331.652 268.878C332.137 270.62 332.04 272.071 331.943 272.071Z" fill="#EFA077"/>
<path d="M347.858 260.653C347.858 260.653 347.47 260.46 347.179 260.073C346.791 259.589 346.5 258.912 346.403 257.944C346.306 257.073 346.5 256.299 346.694 255.718C346.888 255.235 347.179 254.944 347.276 254.944C347.373 255.041 346.694 256.202 346.888 257.847C346.985 259.492 347.955 260.557 347.858 260.653Z" fill="#EFA077"/>
<path d="M323.499 285.135C323.499 285.232 322.82 285.329 321.655 285.135C320.491 284.942 318.938 284.458 317.385 283.587C315.833 282.716 314.571 281.652 313.698 280.878C312.824 280.104 312.339 279.62 312.339 279.523C312.339 279.426 313.018 279.91 313.892 280.587C314.862 281.265 316.124 282.232 317.579 283.103C319.132 283.974 320.588 284.555 321.655 284.748C322.723 285.039 323.499 285.039 323.499 285.135Z" fill="#EFA077"/>
<path d="M327.964 282.329C328.061 282.329 328.158 283.297 327.284 284.071C326.508 284.845 325.44 284.845 325.537 284.748C325.537 284.651 326.314 284.458 326.993 283.781C327.672 283.103 327.867 282.329 327.964 282.329Z" fill="#EFA077"/>
<path d="M334.563 277.49C334.66 277.49 334.66 277.781 334.466 278.071C334.272 278.458 333.884 278.845 333.398 279.039C332.816 279.329 332.331 279.329 331.943 279.232C331.554 279.135 331.36 279.039 331.36 278.942C331.36 278.845 332.234 279.039 333.204 278.555C334.078 278.264 334.466 277.49 334.563 277.49Z" fill="#EFA077"/>
<path d="M311.271 288.521C311.174 288.618 304.769 286.005 296.908 282.522C289.047 279.135 282.642 276.232 282.739 276.039C282.836 275.942 289.241 278.555 297.102 282.038C304.963 285.522 311.368 288.424 311.271 288.521Z" fill="#EFA077"/>
<path d="M0.139317 195.935L21.1984 298.988H167.156H203.937C205.975 298.988 207.625 297.343 207.625 295.311C207.625 293.279 205.975 291.634 203.937 291.634H167.156L147.65 195.741C147.262 193.903 145.709 192.548 143.768 192.548L4.02117 191C1.49797 191.097 -0.345915 193.419 0.139317 195.935Z" fill="#E0E0E0"/>
<path d="M0.140178 195.935C0.140178 195.935 0.140178 195.838 0.0431317 195.645C0.0431317 195.451 -0.0539147 195.161 0.0431317 194.677C0.140178 193.903 0.528364 192.548 1.98406 191.677C2.37225 191.484 2.76043 191.29 3.14862 191.193C3.63385 191.097 4.11908 191.097 4.60431 191.097C5.57478 191.097 6.73933 191.097 7.90389 191.097C10.33 191.097 13.0473 191.097 16.1528 191.193C28.5748 191.29 46.5284 191.484 68.9461 191.677C80.2035 191.774 92.5283 191.871 105.727 192.064C112.326 192.161 119.216 192.161 126.398 192.258C129.988 192.258 133.579 192.355 137.17 192.355C139.014 192.355 140.857 192.355 142.701 192.451C143.187 192.451 143.575 192.451 144.157 192.451C144.642 192.548 145.127 192.645 145.613 192.838C146.486 193.225 147.263 194 147.651 194.967C147.845 195.451 147.942 195.935 148.039 196.322L148.33 197.677C148.524 198.644 148.718 199.515 148.912 200.483C149.3 202.321 149.689 204.257 150.077 206.095C150.853 209.869 151.63 213.739 152.406 217.61C153.959 225.351 155.609 233.286 157.258 241.317C160.558 257.477 163.954 274.313 167.545 291.634L167.254 291.441C174.144 291.441 181.229 291.441 188.41 291.441C192.001 291.441 195.592 291.441 199.279 291.441H201.997H203.355C203.841 291.441 204.326 291.441 204.811 291.537C205.781 291.731 206.655 292.312 207.237 293.086C207.819 293.86 208.014 294.924 207.917 295.892C207.722 297.053 206.946 298.117 205.879 298.698C205.393 298.988 204.714 299.182 204.132 299.182H202.482C200.25 299.182 198.018 299.182 195.786 299.182C191.322 299.182 186.954 299.182 182.49 299.182C173.659 299.182 165.022 299.182 156.482 299.182C139.402 299.182 122.904 299.182 106.988 299.182C75.2541 299.182 46.2372 299.182 21.1992 299.182H21.0052V298.988C14.6001 267.347 9.35959 241.511 5.67182 223.706C3.82794 214.804 2.46929 207.837 1.49883 203.095C1.0136 200.773 0.62541 198.935 0.431317 197.677C0.237224 196.515 0.140178 195.935 0.140178 195.935C0.140178 195.935 0.334271 196.515 0.528364 197.773C0.819503 199.031 1.20769 200.773 1.69292 203.095C2.66338 207.837 4.11908 214.707 5.96296 223.706C9.65072 241.607 14.8912 267.347 21.3933 298.988L21.1992 298.795C46.2372 298.795 75.2541 298.795 106.988 298.795C122.807 298.795 139.402 298.795 156.482 298.795C165.022 298.795 173.659 298.795 182.49 298.795C186.857 298.795 191.322 298.795 195.786 298.795C198.018 298.795 200.25 298.795 202.482 298.795H204.132C204.617 298.795 205.199 298.601 205.587 298.408C206.461 297.924 207.14 296.956 207.334 295.892C207.431 295.021 207.237 294.15 206.752 293.473C206.267 292.795 205.49 292.215 204.714 292.118C204.326 292.021 203.841 292.021 203.355 292.021H201.997H199.279C195.592 292.021 192.001 292.021 188.41 292.021C181.229 292.021 174.144 292.021 167.254 292.021H167.06V291.828C163.566 274.507 160.073 257.67 156.87 241.511C155.22 233.382 153.571 225.545 152.018 217.803C151.241 213.933 150.465 210.159 149.689 206.289C149.3 204.353 148.912 202.515 148.524 200.676C148.33 199.709 148.136 198.838 147.942 197.87L147.651 196.515C147.554 196.032 147.457 195.645 147.263 195.161C146.874 194.387 146.292 193.709 145.516 193.322C145.127 193.129 144.642 193.032 144.254 192.935C143.866 192.935 143.381 192.935 142.895 192.935C141.052 192.935 139.208 192.935 137.364 192.838C133.676 192.838 130.085 192.742 126.592 192.742C119.507 192.645 112.617 192.548 105.921 192.548C92.6254 192.355 80.3005 192.258 69.1402 192.161C46.7224 191.871 28.6718 191.677 16.3469 191.484C13.2414 191.484 10.5241 191.387 8.09798 191.387C6.93343 191.387 5.76887 191.387 4.79841 191.387C4.31317 191.387 3.82794 191.387 3.34271 191.484C2.95452 191.58 2.46929 191.774 2.17815 191.968C0.819503 192.838 0.334271 194.096 0.237224 194.87C0.0431315 195.451 0.140178 195.935 0.140178 195.935Z" fill="#263238"/>
<path d="M78.263 249.058C81.586 249.058 84.2799 246.372 84.2799 243.059C84.2799 239.746 81.586 237.06 78.263 237.06C74.9399 237.06 72.2461 239.746 72.2461 243.059C72.2461 246.372 74.9399 249.058 78.263 249.058Z" fill="white"/>
<path d="M0.333984 196.71C0.333984 196.71 0.528077 196.71 0.916262 196.71C1.30445 196.71 1.98377 196.71 2.76014 196.71C4.40993 196.71 6.83609 196.71 9.84453 196.71C16.0555 196.71 24.9838 196.807 35.95 196.807C58.0766 197 88.5492 197.194 122.127 197.387C126.3 197.387 130.473 197.484 134.646 197.484C135.714 197.484 136.684 197.484 137.752 197.484C138.237 197.484 138.819 197.484 139.304 197.581C139.79 197.678 140.372 197.871 140.76 198.161C141.634 198.742 142.313 199.613 142.604 200.677C142.798 201.645 142.992 202.613 143.186 203.58C144.739 211.321 146.195 218.869 147.65 225.933C150.465 240.157 152.988 253.027 155.123 263.864C157.258 274.605 159.005 283.41 160.169 289.41C160.752 292.409 161.237 294.732 161.528 296.377C161.625 297.151 161.819 297.731 161.819 298.215C161.916 298.602 161.916 298.796 161.916 298.796C161.916 298.796 161.819 298.602 161.722 298.215C161.625 297.828 161.528 297.151 161.334 296.377C161.043 294.732 160.558 292.409 159.878 289.41C158.617 283.41 156.87 274.605 154.735 263.864C152.6 253.027 149.98 240.254 147.068 225.933C145.612 218.772 144.157 211.321 142.604 203.58C142.41 202.613 142.216 201.645 142.022 200.677C141.828 199.806 141.148 198.936 140.372 198.452C139.984 198.161 139.499 197.968 139.013 197.968C138.528 197.871 138.043 197.871 137.558 197.871C136.587 197.871 135.52 197.871 134.452 197.871C130.376 197.871 126.203 197.774 121.933 197.774C88.258 197.484 57.7855 197.194 35.7559 197C24.6926 196.904 15.7644 196.807 9.65044 196.71C6.54495 196.71 4.21584 196.613 2.56605 196.613C1.78968 196.613 1.11036 196.613 0.72217 196.613C0.528077 196.807 0.333984 196.71 0.333984 196.71Z" fill="#263238"/>
</svg>
